<?xml version="1.0" encoding="utf-8"?>
<!-- Generator: Adobe Illustrator 19.2.1, SVG Export Plug-In . SVG Version: 6.00 Build 0)  -->
<svg version="1.1" id="Layer_1" xmlns="http://www.w3.org/2000/svg" xmlns:xlink="http://www.w3.org/1999/xlink" x="0px" y="0px"
	 viewBox="0 0 52 59" style="enable-background:new 0 0 52 59;" xml:space="preserve">
<style type="text/css">
	.st0{fill:#3A3A3A;}
	.st1{fill:#FDFCFB;}
</style>
<polygon class="st0" points="26,58.3 51,43.9 51,15.1 26,0.7 1,15.1 1,43.9 "/>
<polygon class="st1" points="26,54.9 48,42.2 48,16.8 26,4.1 4,16.8 4,42.2 "/>
<polygon class="st0" points="6.6,14.5 11.2,32 46.4,22.6 49.1,22.8 49.1,16 26,2.8 "/>
<polygon class="st0" points="49.9,33 48.9,34.3 44.1,16.5 49.1,22.8 "/>
<path class="st0" d="M15.2,38.3c-1.6,0-3-1.1-3.4-2.6l-1-3.6c-0.2-0.9-0.1-1.8,0.4-2.7c0.5-0.8,1.2-1.4,2.1-1.6L41,20.4
	c0.3-0.1,0.6-0.1,0.9-0.1c1.6,0,3,1.1,3.4,2.6l1,3.6c0.2,0.9,0.1,1.8-0.4,2.7c-0.5,0.8-1.2,1.4-2.1,1.6l-27.7,7.4
	C15.8,38.3,15.5,38.3,15.2,38.3z"/>
<path class="st1" d="M41.9,20.8c1.3,0,2.5,0.9,2.9,2.2l1,3.6c0.4,1.6-0.5,3.2-2.1,3.7L16,37.7c-0.3,0.1-0.5,0.1-0.8,0.1
	c-1.3,0-2.5-0.9-2.9-2.2l-1-3.6c-0.4-1.6,0.5-3.2,2.1-3.7l27.7-7.4C41.4,20.8,41.7,20.8,41.9,20.8 M41.9,19.8L41.9,19.8
	c-0.3,0-0.7,0-1,0.1l-27.7,7.4c-1,0.3-1.9,0.9-2.4,1.9c-0.5,0.9-0.7,2-0.4,3l1,3.6c0.5,1.7,2.1,3,3.9,3c0.3,0,0.7,0,1-0.1L44,31.3
	c1-0.3,1.9-0.9,2.4-1.9s0.7-2,0.4-3l-1-3.6C45.3,21,43.7,19.8,41.9,19.8L41.9,19.8z"/>
<g>
	<path class="st0" d="M35.3,51.7l-1.4,0.4l-3.7-13.8c-0.2-0.7-0.6-0.6-0.8-0.6l-16.8,4.5c-1.9,0.5-2.9-1-3.2-1.8l-1-3.9
		c-0.2-0.9,0-1.5,0.2-1.9c0.6-0.9,1.7-1.2,1.8-1.2l3.9-1.1l0.4,1.4l-4,1.1c-0.2,0-0.7,0.2-0.9,0.6c-0.1,0.2-0.1,0.4,0,0.7l1,3.9
		c0.1,0.2,0.5,1,1.4,0.8L29,36.3c0.8-0.2,2.2,0,2.6,1.6L35.3,51.7z"/>
</g>
<path class="st0" d="M36,48l-4.5,1.2c-0.7,0.2-1.4-0.2-1.6-0.9l0,0c-0.2-0.7,0.2-1.4,0.9-1.6l4.5-1.2c0.7-0.2,1.4,0.2,1.6,0.9l0,0
	C37.1,47.1,36.7,47.8,36,48z"/>
<rect x="32.5" y="47.3" transform="matrix(0.9658 -0.2591 0.2591 0.9658 -11.7904 10.5428)" class="st0" width="3.2" height="5.4"/>
</svg>
