<?xml version="1.0" encoding="utf-8"?>
<!-- Generator: Adobe Illustrator 19.2.1, SVG Export Plug-In . SVG Version: 6.00 Build 0)  -->
<svg version="1.1" id="Layer_1" xmlns="http://www.w3.org/2000/svg" xmlns:xlink="http://www.w3.org/1999/xlink" x="0px" y="0px"
	 viewBox="0 0 52 59" style="enable-background:new 0 0 52 59;" xml:space="preserve">
<style type="text/css">
	.st0{fill:#3A3A3A;}
	.st1{fill:#FDFCFB;}
</style>
<polygon class="st0" points="26,58.3 51,43.9 51,15.1 26,0.7 1,15.1 1,43.9 "/>
<polygon class="st1" points="26,54.9 48,42.2 48,16.8 26,4.1 4,16.8 4,42.2 "/>
<polygon class="st0" points="36,51 9,37.8 9,22 43.5,12.7 49.3,16 49.3,42.9 "/>
<polygon class="st1" points="48,37 9.9,22.6 48,38 "/>
<polygon class="st1" points="26.1,28.6 28.2,30.2 25.7,29.3 24,31.5 24.9,28.9 22.7,27.3 25.3,28.2 26.9,26 "/>
<polygon class="st1" points="25.7,28.3 30.2,27.3 25.9,29 27,33.5 25.2,29.2 20.7,30.2 25,28.5 24,24 "/>
</svg>
