<?xml version="1.0" encoding="utf-8"?>
<!-- Generator: Adobe Illustrator 22.0.1, SVG Export Plug-In . SVG Version: 6.00 Build 0)  -->
<svg version="1.1" id="Layer_1" xmlns="http://www.w3.org/2000/svg" xmlns:xlink="http://www.w3.org/1999/xlink" x="0px" y="0px"
	 viewBox="0 0 46.2 47.1" style="enable-background:new 0 0 46.2 47.1;" xml:space="preserve">
<style type="text/css">
	.st0{fill:#D80D00;}
</style>
<g>
	<g>
		<g>
			<circle class="st0" cx="5.2" cy="10.5" r="3.7"/>
			<path class="st0" d="M5.2,14.7c-2.3,0-4.2-1.9-4.2-4.2c0-2.3,1.9-4.2,4.2-4.2s4.2,1.9,4.2,4.2C9.4,12.8,7.5,14.7,5.2,14.7z
				 M5.2,7.3C3.4,7.3,2,8.7,2,10.5s1.4,3.2,3.2,3.2s3.2-1.4,3.2-3.2S7,7.3,5.2,7.3z"/>
		</g>
		<g>
			<line class="st0" x1="17.6" y1="10.5" x2="43.7" y2="10.5"/>
			<path class="st0" d="M43.7,12.7H17.6c-1.2,0-2.2-1-2.2-2.2s1-2.2,2.2-2.2h26.1c1.2,0,2.2,1,2.2,2.2S44.9,12.7,43.7,12.7z"/>
		</g>
	</g>
	<g>
		<g>
			<circle class="st0" cx="5.2" cy="22.6" r="3.7"/>
			<path class="st0" d="M5.2,26.8c-2.3,0-4.2-1.9-4.2-4.2c0-2.3,1.9-4.2,4.2-4.2s4.2,1.9,4.2,4.2C9.4,24.9,7.5,26.8,5.2,26.8z
				 M5.2,19.4c-1.8,0-3.2,1.4-3.2,3.2c0,1.8,1.4,3.2,3.2,3.2s3.2-1.4,3.2-3.2C8.4,20.8,7,19.4,5.2,19.4z"/>
		</g>
		<g>
			<line class="st0" x1="17.6" y1="22.6" x2="43.7" y2="22.6"/>
			<path class="st0" d="M43.7,24.8H17.6c-1.2,0-2.2-1-2.2-2.2s1-2.2,2.2-2.2h26.1c1.2,0,2.2,1,2.2,2.2S44.9,24.8,43.7,24.8z"/>
		</g>
	</g>
	<g>
		<g>
			<circle class="st0" cx="5.2" cy="34.7" r="3.7"/>
			<path class="st0" d="M5.2,38.9C2.9,38.9,1,37,1,34.7s1.9-4.2,4.2-4.2s4.2,1.9,4.2,4.2S7.5,38.9,5.2,38.9z M5.2,31.5
				c-1.8,0-3.2,1.4-3.2,3.2s1.4,3.2,3.2,3.2s3.2-1.4,3.2-3.2S7,31.5,5.2,31.5z"/>
		</g>
		<g>
			<line class="st0" x1="17.6" y1="34.7" x2="43.7" y2="34.7"/>
			<path class="st0" d="M43.7,36.9H17.6c-1.2,0-2.2-1-2.2-2.2s1-2.2,2.2-2.2h26.1c1.2,0,2.2,1,2.2,2.2S44.9,36.9,43.7,36.9z"/>
		</g>
	</g>
</g>
</svg>
