<?xml version="1.0" encoding="utf-8"?>
<svg version="1.1" id="Layer_1" xmlns="http://www.w3.org/2000/svg" xmlns:xlink="http://www.w3.org/1999/xlink" x="0px" y="0px" viewBox="0 0 48 48" style="enable-background:new 0 0 48 48;" xml:space="preserve">
<style type="text/css"> .st0{fill:#FF5111;} </style>
<path class="st0" d="M14,36c-2.2,0-4,1.8-4,4s1.8,4,4,4s4-1.8,4-4S16.2,36,14,36z M34,36c-2.2,0-4,1.8-4,4s1.8,4,4,4s4-1.8,4-4S36.2,36,34,36z"/>
<rect x="12" y="15.7" class="st0" width="24.8" height="3.5"/>
<polygon class="st0" points="22.8,23.6 19.4,23.6 18.1,12 21.5,12 "/>
<polygon class="st0" points="28.6,23.6 25.2,23.6 26.5,12 29.8,12 "/>
<path class="st0" d="M16.2,26h14.9c1.5,0,2.8-0.8,3.5-2.1l5.7-10.3c0.3-0.4,0.4-0.9,0.4-1.4c0-1.3-1.1-2.4-2.4-2.4h-27L10.4,8L8.5,4H2v4h4l7.2,15.2l-2.7,4.9C10.2,28.7,10,29.3,10,30c0,2.2,1.8,4,4,4h24v-4H14.8c-0.3,0-0.5-0.2-0.5-0.5c0-0.1,0-0.2,0.1-0.2L16.2,26zM13,13.3h22.9L31.1,22h-14l-0.3-0.5L13,13.3z"/>
</svg>
