<?xml version="1.0" encoding="utf-8"?>
<!-- Generator: Adobe Illustrator 22.0.1, SVG Export Plug-In . SVG Version: 6.00 Build 0)  -->
<svg version="1.1" id="Layer_1" xmlns="http://www.w3.org/2000/svg" xmlns:xlink="http://www.w3.org/1999/xlink" x="0px" y="0px"
	 viewBox="0 0 39.4 40.2" style="enable-background:new 0 0 39.4 40.2;" xml:space="preserve">
<style type="text/css">
	.st0{fill:#FF5111;}
</style>
<path class="st0" d="M22.9,36c0,2.2,1.8,4,4,4s4-1.8,4-4s-1.8-4-4-4S22.9,33.8,22.9,36z M2.9,36c0,2.2,1.8,4,4,4s4-1.8,4-4
	s-1.8-4-4-4S2.9,33.8,2.9,36z"/>
<rect x="4.1" y="11.7" class="st0" width="24.8" height="3.5"/>
<polygon class="st0" points="19.4,8 22.8,8 21.5,19.6 18.1,19.6 "/>
<polygon class="st0" points="11.1,8 14.4,8 15.7,19.6 12.3,19.6 "/>
<path class="st0" d="M26.5,25.3c0.1,0,0.1,0.1,0.1,0.2c0,0.3-0.2,0.5-0.5,0.5H2.9v4h24c2.2,0,4-1.8,4-4c0-0.7-0.2-1.3-0.5-1.9
	l-2.7-4.9L34.9,4h4V0l-6.5,0l-1.9,4l-0.9,1.8h-27c-1.3,0-2.4,1.1-2.4,2.4c0,0.5,0.1,1,0.4,1.4l5.7,10.3C7,21.2,8.3,22,9.8,22h14.9
	L26.5,25.3z M24.1,17.5L23.8,18h-14L5,9.3h22.9L24.1,17.5z"/>
</svg>
