<?xml version="1.0" encoding="utf-8"?>
<!-- Generator: Adobe Illustrator 19.2.1, SVG Export Plug-In . SVG Version: 6.00 Build 0)  -->
<svg version="1.1" id="Layer_1" xmlns="http://www.w3.org/2000/svg" xmlns:xlink="http://www.w3.org/1999/xlink" x="0px" y="0px"
	 viewBox="0 0 50 50" style="enable-background:new 0 0 50 50;" xml:space="preserve">
<style type="text/css">
	.st0{fill:#E6E7E8;}
	.st1{fill:#414042;}
</style>
<rect class="st0" width="50" height="50"/>
<rect x="2.7" y="2.7" class="st1" width="44.5" height="44.5"/>
<polygon class="st0" points="40.6,0.1 40.5,0 2.8,0 10.2,27.5 44.8,18.3 47.9,29.9 50,30 50,0 "/>
<path class="st0" d="M14.2,33.9c-1.6,0-3-1.1-3.4-2.6l-1-3.6c-0.2-0.9-0.1-1.8,0.4-2.7c0.5-0.8,1.2-1.4,2.1-1.6L40,16
	c0.3-0.1,0.6-0.1,0.9-0.1c1.6,0,3,1.1,3.4,2.6l1,3.6c0.2,0.9,0.1,1.8-0.4,2.7c-0.5,0.8-1.2,1.4-2.1,1.6l-27.7,7.4
	C14.8,33.8,14.5,33.9,14.2,33.9z"/>
<path class="st1" d="M41,16.3c1.3,0,2.5,0.9,2.9,2.2l1,3.6c0.4,1.6-0.5,3.2-2.1,3.7L15,33.3c-0.3,0.1-0.5,0.1-0.8,0.1
	c-1.3,0-2.5-0.9-2.9-2.2l-1-3.6c-0.4-1.6,0.5-3.2,2.1-3.7l27.7-7.4C40.4,16.3,40.7,16.3,41,16.3 M41,15.3L41,15.3
	c-0.3,0-0.7,0-1,0.1l-27.7,7.4c-1,0.3-1.9,0.9-2.4,1.9c-0.5,0.9-0.7,2-0.4,3l1,3.6c0.5,1.7,2.1,3,3.9,3c0.3,0,0.7,0,1-0.1L43,26.8
	c1-0.3,1.9-0.9,2.4-1.9s0.7-2,0.4-3l-1-3.6C44.4,16.5,42.8,15.3,41,15.3L41,15.3z"/>
<g>
	<path class="st0" d="M34.4,47.2L33,47.6l-3.7-13.8c-0.2-0.7-0.6-0.6-0.8-0.6l-16.8,4.5c-1.9,0.5-2.9-1-3.2-1.8L7.4,32
		c-0.2-0.9,0-1.5,0.2-1.9c0.6-0.9,1.7-1.2,1.8-1.2l3.9-1.1l0.4,1.4l-4,1.1c-0.2,0-0.7,0.2-0.9,0.6c-0.1,0.2-0.1,0.4,0,0.7l1,3.9
		c0.1,0.2,0.5,1,1.4,0.8L28,31.8c0.8-0.2,2.2,0,2.6,1.6L34.4,47.2z"/>
</g>
<path class="st0" d="M35,43.6l-4.5,1.2c-0.7,0.2-1.4-0.2-1.6-0.9l0,0c-0.2-0.7,0.2-1.4,0.9-1.6l4.5-1.2c0.7-0.2,1.4,0.2,1.6,0.9l0,0
	C36.1,42.6,35.7,43.4,35,43.6z"/>
<rect x="31.5" y="42.8" transform="matrix(0.9658 -0.2591 0.2591 0.9658 -10.6613 10.1293)" class="st0" width="3.2" height="5.4"/>
</svg>
