<?xml version="1.0" encoding="utf-8"?>
<!-- Generator: Adobe Illustrator 19.2.1, SVG Export Plug-In . SVG Version: 6.00 Build 0)  -->
<svg version="1.1" id="Layer_1" xmlns="http://www.w3.org/2000/svg" xmlns:xlink="http://www.w3.org/1999/xlink" x="0px" y="0px"
	 viewBox="0 0 50 50" style="enable-background:new 0 0 50 50;" xml:space="preserve">
<style type="text/css">
	.st0{fill:#382B2F;}
	.st1{fill:#E5E0D9;}
</style>
<rect class="st0" width="50" height="50"/>
<rect x="2.7" y="2.7" class="st1" width="44.5" height="44.5"/>
<path class="st0" d="M48.6,26.1l-32.1,4.8c-0.4,0.1-0.7,0.3-0.9,0.6c-0.2,0.3-0.3,0.7-0.3,1l1.6,10.9c0.1,0.7,0.7,1.2,1.4,1.2h0.1
	l30.1-4.5L48.6,26.1L48.6,26.1z"/>
<path class="st1" d="M47.3,39.5l-28.9,4.3h-0.1c-0.3,0-0.6-0.2-0.6-0.5L16,32.4c-0.1-0.3,0.2-0.7,0.5-0.7l30.7-4.6v-1.6l-30.9,4.6
	c-1.2,0.2-2,1.3-1.8,2.5l1.6,10.9c0.2,1.1,1.1,1.8,2.1,1.8c0.1,0,0.2,0,0.3,0L47.1,41v-1.5H47.3z"/>
<path class="st0" d="M20.1,45.3c-0.4,0-0.8-0.2-1.1-0.5l-6.9-8.6c-0.5-0.6-0.4-1.5,0.2-2l28.2-22.4c0.2-0.2,0.6-0.3,0.9-0.3
	c0.4,0,0.8,0.2,1.1,0.5l6.9,8.6c0.5,0.6,0.4,1.5-0.2,2L21,45C20.7,45.2,20.4,45.3,20.1,45.3z"/>
<path class="st1" d="M41.4,10.7c-0.5,0-1,0.2-1.3,0.5L11.9,33.6c-0.9,0.7-1.1,2.1-0.3,3l6.9,8.6c0.4,0.5,1,0.8,1.7,0.8
	c0.5,0,1-0.2,1.3-0.5L47.3,25v-2L20.5,44.4c-0.1,0.1-0.3,0.1-0.4,0.1c-0.2,0-0.4-0.1-0.5-0.2l-6.9-8.6c-0.2-0.3-0.2-0.7,0.1-0.9
	L41,12.4c0.1-0.1,0.3-0.1,0.4-0.1c0.2,0,0.4,0.1,0.5,0.2l5.4,6.8v-2.5l-4.2-5.2C42.7,11,42.1,10.7,41.4,10.7z"/>
<path class="st0" d="M22.1,45c-0.2,0-0.3,0-0.5-0.1l-10.3-4.1c-0.7-0.3-1.1-1.1-0.8-1.8L23.7,5.5C23.9,5,24.5,4.7,25,4.7
	c0.2,0,0.3,0,0.5,0.1l10.3,4.1c0.7,0.3,1.1,1.1,0.8,1.8L23.4,44.1C23.2,44.6,22.7,45,22.1,45z"/>
<path class="st1" d="M25,5.4c0.1,0,0.2,0,0.2,0l10.3,4.1c0.3,0.1,0.5,0.5,0.4,0.8L22.7,43.8c-0.1,0.2-0.3,0.4-0.6,0.4
	c-0.1,0-0.2,0-0.2,0l-10.3-4.1c-0.3-0.1-0.5-0.5-0.4-0.8L24.4,5.8C24.5,5.6,24.8,5.4,25,5.4 M25,3.9c-0.9,0-1.7,0.5-2,1.4L9.8,38.7
	c-0.4,1.1,0.1,2.4,1.2,2.8l10.3,4.1c0.3,0.1,0.5,0.2,0.8,0.2c0.9,0,1.7-0.5,2-1.4l13.2-33.5c0.4-1.1-0.1-2.4-1.2-2.8L25.8,4
	C25.6,3.9,25.3,3.9,25,3.9L25,3.9z"/>
<path class="st0" d="M12.7,45.3c-0.7,0-1.3-0.5-1.4-1.2L6,8.5c-0.1-0.4,0-0.7,0.3-1C6.5,7.2,6.8,7,7.2,7l11-1.6h0.1
	c0.7,0,1.3,0.5,1.4,1.2L25,42.1c0.1,0.4,0,0.7-0.3,1c-0.2,0.3-0.5,0.5-0.9,0.6l-11,1.6L12.7,45.3z"/>
<path class="st1" d="M18.3,6.1c0.3,0,0.6,0.2,0.6,0.5l5.3,35.6c0.1,0.3-0.2,0.7-0.5,0.7l-10.9,1.6h-0.1c-0.3,0-0.6-0.2-0.6-0.5
	L6.8,8.4C6.7,8.1,7,7.8,7.3,7.7L18.3,6.1L18.3,6.1 M18.3,4.5L18.3,4.5c-0.1,0-0.2,0-0.3,0L7.1,6.2c-1.2,0.2-2,1.3-1.8,2.5l5.3,35.6
	c0.2,1.1,1.1,1.8,2.1,1.8c0.1,0,0.2,0,0.3,0l11-1.6c0.6-0.1,1.1-0.4,1.4-0.9s0.5-1,0.4-1.6L20.5,6.4C20.3,5.3,19.4,4.5,18.3,4.5
	L18.3,4.5z"/>
<ellipse transform="matrix(0.9891 -0.1475 0.1475 0.9891 -5.6756 3.4611)" class="st1" cx="20.5" cy="40" rx="1.4" ry="1.4"/>
</svg>
