<?xml version="1.0" encoding="utf-8"?>
<!-- Generator: Adobe Illustrator 19.2.1, SVG Export Plug-In . SVG Version: 6.00 Build 0)  -->
<svg version="1.1" id="Layer_1" xmlns="http://www.w3.org/2000/svg" xmlns:xlink="http://www.w3.org/1999/xlink" x="0px" y="0px"
	 viewBox="0 0 50 50" style="enable-background:new 0 0 50 50;" xml:space="preserve">
<style type="text/css">
	.st0{fill:#382B2F;}
	.st1{fill:#E5E0D9;}
</style>
<rect class="st0" width="50" height="50"/>
<rect x="2.7" y="2.7" class="st1" width="44.5" height="44.5"/>
<path class="st0" d="M30.4,24.5c-2.1-4.4-6.1-16.8-6.1-16.8s-4,12.4-6.1,16.8c-2.1,4.5-3.5,10.1-0.9,13.4c2.6,3.3,5.6,3.7,6.9,3.7
	s4.3-0.5,6.9-3.7C33.9,34.6,32.6,29,30.4,24.5z"/>
<ellipse transform="matrix(0.244 -0.9698 0.9698 0.244 -13.1565 40.1314)" class="st1" cx="19.2" cy="28.5" rx="3" ry="1.1"/>
<polygon class="st0" points="32.6,40 32.6,36.1 28.8,36.1 28.8,32.2 32.6,32.2 32.6,28.3 36.8,28.3 36.8,32.2 40.6,32.2 40.6,36.1 
	36.8,36.1 36.8,40 "/>
<path class="st1" d="M36.3,28.8v3.9h3.9v2.9h-3.9v3.9h-3.1v-3.9h-3.8v-2.9h3.8v-3.9L36.3,28.8 M37.3,27.8h-1h-3.1h-1v1v2.9h-2.8h-1
	v1v2.9v1h1h2.8v2.9v1h1h3.1h1v-1v-2.9h2.9h1v-1v-2.9v-1h-1h-2.9v-2.9V27.8L37.3,27.8z"/>
<circle class="st1" cx="20.3" cy="23.9" r="0.6"/>
</svg>
