<?xml version="1.0" encoding="utf-8"?>
<!-- Generator: Adobe Illustrator 19.2.1, SVG Export Plug-In . SVG Version: 6.00 Build 0)  -->
<svg version="1.1" id="Layer_1" xmlns="http://www.w3.org/2000/svg" xmlns:xlink="http://www.w3.org/1999/xlink" x="0px" y="0px"
	 viewBox="0 0 50 50" style="enable-background:new 0 0 50 50;" xml:space="preserve">
<style type="text/css">
	.st0{fill:#E6E7E8;}
	.st1{fill:#414042;}
</style>
<rect class="st0" width="50" height="50"/>
<rect x="2.7" y="2.7" class="st1" width="44.5" height="44.5"/>
<polygon class="st0" points="17.1,45.5 17.1,32.4 4.2,32.4 4.2,17.6 17.1,17.6 17.1,4.6 32.7,4.6 32.7,17.6 45.8,17.6 45.8,32.4 
	32.7,32.4 32.7,45.5 "/>
<path class="st1" d="M30,18.6c-1.8-3.8-5.1-14.3-5.1-14.3s-3.4,10.5-5.1,14.3c-1.8,3.9-2.9,8.6-0.7,11.4s4.7,3.2,5.9,3.2
	s3.7-0.4,5.9-3.2S31.8,22.4,30,18.6z"/>
<ellipse transform="matrix(0.244 -0.9698 0.9698 0.244 -5.8392 36.3936)" class="st0" cx="20.4" cy="21.9" rx="2.6" ry="1"/>
<circle class="st0" cx="21.4" cy="18.1" r="0.5"/>
</svg>
