<?xml version="1.0" encoding="utf-8"?>
<!-- Generator: Adobe Illustrator 19.2.1, SVG Export Plug-In . SVG Version: 6.00 Build 0)  -->
<svg version="1.1" id="Layer_1" xmlns="http://www.w3.org/2000/svg" xmlns:xlink="http://www.w3.org/1999/xlink" x="0px" y="0px"
	 viewBox="0 0 50 50" style="enable-background:new 0 0 50 50;" xml:space="preserve">
<style type="text/css">
	.st0{fill:#382B2F;}
	.st1{fill:#E5E0D9;}
</style>
<rect class="st0" width="50" height="50"/>
<rect x="2.7" y="2.7" class="st1" width="44.5" height="44.5"/>
<polygon class="st0" points="48.6,46.5 1.2,30.5 1.1,3.6 48.8,19.7 "/>
<rect x="33.1" y="21.3" transform="matrix(0.3134 -0.9496 0.9496 0.3134 4.9463 50.7203)" class="st1" width="8.9" height="1.3"/>
<rect x="20.8" y="20.8" transform="matrix(0.3134 -0.9496 0.9496 0.3134 -1.3275 41.6428)" class="st1" width="14.6" height="1.9"/>
<rect x="16.1" y="15.7" transform="matrix(0.3134 -0.9496 0.9496 0.3134 -1.3941 30.7392)" class="st1" width="8.9" height="1.3"/>
<rect x="7.6" y="12.9" transform="matrix(0.3134 -0.9496 0.9496 0.3134 -4.5643 20.7487)" class="st1" width="8.9" height="1.3"/>
<polygon class="st1" points="47.3,20.4 46.8,20.3 44,28.8 45.3,29.2 47.3,23.2 "/>
<polygon class="st1" points="4.4,6.3 2.7,11.3 2.7,15.1 2.9,15.2 5.7,6.7 "/>
</svg>
