<?xml version="1.0" encoding="utf-8"?>
<!-- Generator: Adobe Illustrator 19.2.1, SVG Export Plug-In . SVG Version: 6.00 Build 0)  -->
<svg version="1.1" id="Layer_1" xmlns="http://www.w3.org/2000/svg" xmlns:xlink="http://www.w3.org/1999/xlink" x="0px" y="0px"
	 viewBox="0 0 50 50" style="enable-background:new 0 0 50 50;" xml:space="preserve">
<style type="text/css">
	.st0{fill:#E6E7E8;}
	.st1{fill:#414042;}
</style>
<rect class="st0" width="50" height="50"/>
<rect x="2.7" y="2.7" class="st1" width="44.5" height="44.5"/>
<polygon class="st0" points="19.5,48.4 35,1.5 48,1.5 48,48.5 "/>
<polygon class="st1" points="2.7,2.8 2.7,32.3 47.1,47.3 47.3,47.3 47.3,17.8 "/>
<polygon class="st0" points="48.7,46.4 1.2,30.4 1.1,3.5 48.8,19.6 "/>
<rect x="33.1" y="21.2" transform="matrix(0.3134 -0.9496 0.9496 0.3134 5.0366 50.6536)" class="st1" width="8.9" height="1.3"/>
<rect x="20.9" y="20.7" transform="matrix(0.3134 -0.9496 0.9496 0.3134 -1.2576 41.6373)" class="st1" width="14.6" height="1.9"/>
<rect x="16.1" y="15.6" transform="matrix(0.3134 -0.9496 0.9496 0.3134 -1.3059 30.6596)" class="st1" width="8.9" height="1.3"/>
<rect x="7.7" y="12.8" transform="matrix(0.3134 -0.9496 0.9496 0.3134 -4.4417 20.7744)" class="st1" width="8.9" height="1.3"/>
<polygon class="st1" points="47.3,20.3 46.8,20.2 44,28.7 45.3,29.1 47.3,23.1 "/>
<polygon class="st1" points="4.4,6.2 2.7,11.2 2.7,15.1 2.9,15.1 5.7,6.6 "/>
</svg>
