<?xml version="1.0" encoding="utf-8"?>
<!-- Generator: Adobe Illustrator 19.2.1, SVG Export Plug-In . SVG Version: 6.00 Build 0)  -->
<svg version="1.1" id="Layer_1" xmlns="http://www.w3.org/2000/svg" xmlns:xlink="http://www.w3.org/1999/xlink" x="0px" y="0px"
	 viewBox="0 0 50 50" style="enable-background:new 0 0 50 50;" xml:space="preserve">
<style type="text/css">
	.st0{fill:#E6E7E8;}
	.st1{fill:#414042;}
</style>
<rect class="st0" width="50" height="50"/>
<rect x="2.7" y="2.7" class="st1" width="44.5" height="44.5"/>
<polygon class="st1" points="47.3,20.7 46.1,20.3 43.2,28.8 45.2,29.5 47.3,23.5 "/>
<polygon class="st0" points="48.6,46.6 1.2,30.6 1.1,3.7 48.8,19.8 "/>
<rect x="36.9" y="17.6" transform="matrix(0.9496 0.3134 -0.3134 0.9496 8.8001 -10.661)" class="st1" width="1.3" height="8.9"/>
<rect x="27.2" y="14.6" transform="matrix(0.9496 0.3134 -0.3134 0.9496 8.2972 -7.7279)" class="st1" width="1.9" height="14.6"/>
<rect x="19.9" y="12" transform="matrix(0.9496 0.3134 -0.3134 0.9496 6.1904 -5.6262)" class="st1" width="1.3" height="8.9"/>
<rect x="11.4" y="9.2" transform="matrix(0.9496 0.3134 -0.3134 0.9496 4.8855 -3.1089)" class="st1" width="1.3" height="8.9"/>
<polygon class="st1" points="47.3,20.5 46.8,20.4 44,28.9 45.3,29.3 47.3,23.3 "/>
<polygon class="st1" points="4.4,6.4 2.7,11.4 2.7,15.3 2.9,15.3 5.7,6.8 "/>
</svg>
