<?xml version="1.0" encoding="utf-8"?>
<!-- Generator: Adobe Illustrator 21.0.2, SVG Export Plug-In . SVG Version: 6.00 Build 0)  -->
<svg version="1.1"
	 id="svg2" inkscape:version="0.91pre4 r13712" sodipodi:docname="pdf_logo.svg" xmlns:cc="http://creativecommons.org/ns#" xmlns:dc="http://purl.org/dc/elements/1.1/" xmlns:inkscape="http://www.inkscape.org/namespaces/inkscape" xmlns:rdf="http://www.w3.org/1999/02/22-rdf-syntax-ns#" xmlns:sodipodi="http://sodipodi.sourceforge.net/DTD/sodipodi-0.dtd" xmlns:svg="http://www.w3.org/2000/svg"
	 xmlns="http://www.w3.org/2000/svg" xmlns:xlink="http://www.w3.org/1999/xlink" x="0px" y="0px" viewBox="0 0 496 447.5"
	 style="enable-background:new 0 0 496 447.5;" xml:space="preserve" preserveAspectRatio="xMinYMid">
<style type="text/css">
	.st0{opacity:0.24;}
	.st1{fill:url(#path14_2_);}
	.st2{fill:#FFFFFF;}
	.st3{fill:url(#SVGID_1_);}
	.st4{fill:url(#SVGID_2_);}
	.st5{fill:url(#SVGID_3_);}
	.st6{fill:url(#SVGID_4_);}
	.st7{fill:url(#SVGID_5_);}
	.st8{fill:url(#SVGID_6_);}
	.st9{fill:url(#SVGID_7_);}
</style>
<g id="g12_1_" transform="matrix(1.25,0,0,-1.25,247.68875,0)" class="st0">
	<path id="path14_1_" inkscape:connector-curvature="0" d="M69.7-1.6h-198.2v-357h259v296.2L69.7-1.6z"/>
</g>
<sodipodi:namedview  bordercolor="#666666" borderopacity="1" fit-margin-bottom="0" fit-margin-left="0" fit-margin-right="0" fit-margin-top="0" gridtolerance="10" guidetolerance="10" id="namedview35" inkscape:current-layer="svg2" inkscape:cx="559.0219" inkscape:cy="294.40697" inkscape:pageopacity="0" inkscape:pageshadow="2" inkscape:snap-grids="true" inkscape:snap-page="true" inkscape:window-height="878" inkscape:window-maximized="1" inkscape:window-width="1538" inkscape:window-x="-8" inkscape:window-y="1012" inkscape:zoom="0.89001173" objecttolerance="10" pagecolor="#ffffff" showgrid="false">
	</sodipodi:namedview>
<g id="g12" transform="matrix(1.25,0,0,-1.25,247.68875,0)">
	
		<linearGradient id="path14_2_" gradientUnits="userSpaceOnUse" x1="-733.2347" y1="-1055.8853" x2="-649.456" y2="-580.7521" gradientTransform="matrix(1.9531 0 0 1.9531 1397.401 1688.5125)">
		<stop  offset="0" style="stop-color:#E44948"/>
		<stop  offset="0.1374" style="stop-color:#DB4645"/>
		<stop  offset="0.3614" style="stop-color:#C33D3B"/>
		<stop  offset="0.6253" style="stop-color:#9E2F2D"/>
		<stop  offset="0.6864" style="stop-color:#942C2A"/>
		<stop  offset="0.8863" style="stop-color:#762220"/>
		<stop  offset="1" style="stop-color:#6B1F1D"/>
	</linearGradient>
	<path id="path14" inkscape:connector-curvature="0" class="st1" d="M68.4,0h-198.2v-357h259v296.2L68.4,0z"/>
</g>
<g id="g28-9_1_" transform="matrix(1.25,0,0,-1.25,211.08288,280.09275)">
	<path id="path30_1_" inkscape:connector-curvature="0" class="st2" d="M54-61.9h19.8v-7.4H61.4v-7h11.7v-7.3H61.4v-16h-7.3L54-61.9
		 M21.6-61.9h7.7c4.3,0,7.5-0.4,9.6-1.2c2.1-0.8,3.9-2.2,5.5-4.1c1.3-1.7,2.3-3.7,3-5.9c0.6-2.2,1-4.7,1-7.6c0-2.8-0.3-5.4-1-7.6
		c-0.6-2.2-1.6-4.2-3-5.9c-1.5-2-3.4-3.3-5.5-4.2c-2.1-0.8-5.3-1.2-9.6-1.2h-7.7V-61.9 M28.9-69.2v-23h2.6c3,0,5.3,1,6.9,3
		c1.6,2,2.4,4.8,2.4,8.6c0,3.7-0.8,6.6-2.4,8.5c-1.6,2-3.9,2.9-6.9,2.9H28.9 M0.3-68.9v-10.5h4.1c1.4,0,2.5,0.5,3.3,1.4
		s1.2,2.2,1.2,3.9c0,1.7-0.4,3-1.2,3.9s-1.9,1.4-3.3,1.4H0.3 M-7-61.9H5.2c3.6,0,6.4-1.1,8.3-3.2c1.9-2.1,2.9-5.2,2.9-9.1
		c0-4-1-7-2.9-9.1s-4.7-3.2-8.3-3.2H0.4v-13.1h-7.3L-7-61.9"/>
</g>
<linearGradient id="SVGID_1_" gradientUnits="userSpaceOnUse" x1="329.69" y1="766.35" x2="371.59" y2="808.25" gradientTransform="matrix(1 0 0 -1 0 846)">
	<stop  offset="0" style="stop-color:#C43F3E"/>
	<stop  offset="0.2154" style="stop-color:#BB3B3A"/>
	<stop  offset="0.5657" style="stop-color:#A3312F"/>
	<stop  offset="0.6253" style="stop-color:#9E2F2D"/>
	<stop  offset="0.6864" style="stop-color:#942C2A"/>
	<stop  offset="0.8863" style="stop-color:#762220"/>
	<stop  offset="1" style="stop-color:#6B1F1D"/>
</linearGradient>
<polygon class="st3" points="333.8,0 330.9,80.9 409.3,75.5 "/>
<linearGradient id="SVGID_2_" gradientUnits="userSpaceOnUse" x1="333.84" y1="770.5" x2="371.59" y2="808.25" gradientTransform="matrix(1 0 0 -1 0 846)">
	<stop  offset="0" style="stop-color:#FFFFFF"/>
	<stop  offset="0.3665" style="stop-color:#FCFCFC"/>
	<stop  offset="0.6617" style="stop-color:#F2F2F2"/>
	<stop  offset="0.9312" style="stop-color:#E1E1E1"/>
	<stop  offset="1" style="stop-color:#DBDBDB"/>
</linearGradient>
<polygon class="st4" points="333.8,0 333.8,75.5 409.3,75.5 "/>
<linearGradient id="SVGID_3_" gradientUnits="userSpaceOnUse" x1="314.4063" y1="595.2664" x2="345.8091" y2="563.8636" gradientTransform="matrix(1 0 0 -1 0 846)">
	<stop  offset="0" style="stop-color:#FF7373"/>
	<stop  offset="0.2004" style="stop-color:#E36060"/>
	<stop  offset="0.5585" style="stop-color:#B74342"/>
	<stop  offset="0.837" style="stop-color:#9C312F"/>
	<stop  offset="1" style="stop-color:#922A28"/>
</linearGradient>
<path class="st5" d="M345.5,263c-4.4-1.4-10.9-2.1-18.7-2.1c-7,0-15.2,0.5-24.1,1.5c17.5,8.6,34.7,13.7,44.2,13.7
	c2.3,0,4.2-0.3,5.5-0.9c1.6-0.8,3.6-3.5,3.6-3.5l0.1-1.1C356.1,269.9,356.1,266.4,345.5,263z M350.7,272c-0.4,0.2-1.5,0.5-3.9,0.5
	c-6.8,0-18-2.9-29.9-7.7c3.5-0.2,6.8-0.3,9.8-0.3c7.8,0,13.7,0.6,17.6,1.9c5.7,1.8,7.4,3.4,7.9,4C351.7,271.2,351.1,271.8,350.7,272
	z"/>
<g>
	<g>
		
			<linearGradient id="SVGID_4_" gradientUnits="userSpaceOnUse" x1="337.4835" y1="543.9947" x2="174.046" y2="638.3553" gradientTransform="matrix(1 0 0 -1 0 846)">
			<stop  offset="0" style="stop-color:#FF7373"/>
			<stop  offset="5.033737e-02" style="stop-color:#F96F6E"/>
			<stop  offset="0.4758" style="stop-color:#CD4D4C"/>
			<stop  offset="0.8065" style="stop-color:#B23936"/>
			<stop  offset="1" style="stop-color:#A8312E"/>
		</linearGradient>
		<path class="st6" d="M237.2,117.6h3h0.5h0.1c6.6,0,9.8,8.5,10.1,11.8c0.6,5.5-2,14.9-2,14.9c0-3.8,0.1,1.4,0.1,1.4
			s-1.3,27.2-3.1,35.4c-0.4,1.7-0.8,3.5-1.3,5.2c6.6,18.4,17.2,34.7,29.8,46.5c5,4.7,11.3,8.4,17.2,11.8c12.3-1.8,23.6-2.6,33.3-2.6
			c0.6,0,1.1,0,1.7,0c13.2,0.2,23,2.1,26.9,6c1.9,1.9,2.7,4.2,3,6.7c0.1,1-0.4,3.3-0.6,3.9c0.1-0.7-0.1,1.1-0.1,1.1s-1.2,5.4-2,6.7
			c-1.1,1.5-3.2,3-5.2,3.6c-1.6,0.4-3.7,0.6-6,0.6c-13,0-35.9-6.5-56.3-18.1c-26.9,4-56.4,11.3-80.1,19
			c-20,35.1-35.8,53.8-48.8,53.8c-2.1,0-4.2-0.5-6.1-1.5l-5.2-2.6c-2.1-1.2-2.4-4.2-2-6.6c1.7-8.1,11.8-20.3,32.3-32.5
			c2.2-1.3,12-6.5,12-6.5s-2.3,15.5,24.4-36.8c6.5-12.7,13.8-27,19.7-41.3l2.3-5.7c-7.7-29.3-12.3-52.7-8.2-67.9
			C227.7,120,232.3,117.6,237.2,117.6 M251.7,121L251.7,121c-2.2-3.7-5.7-6.9-10.8-6.9h-0.2h-0.5h-2.9l0,0l0,0
			c-6.9,0-12.6,3.6-14.1,9c-4.2,15.6,0,38.7,7.9,68.6l-1.9,4.6c-5.6,13.6-12.6,27.4-18.8,39.5l-0.8,1.5c-4.8,9.5-11,21.1-17.7,32.5
			l-5.2,2.7c-0.4,0.2-9.9,5.2-12.2,6.6c-19.1,11.4-31.8,24.5-33.9,34.9c-0.9,4.6,0.5,8.6,3.7,10.4h0.1h0.1l5.2,2.6
			c2.5,1.2,5.1,1.9,7.7,1.9c14,0,29.4-16.3,51.3-54.4c24.6-8,52.4-14.6,77-18.3c19,10.6,42.2,18,56.9,18c2.7,0,5-0.3,6.9-0.8
			c2.6-0.7,5.5-2.7,7.2-4.9l0.1-0.1l0.1-0.1c1-1.6,2-5.6,2.5-7.9l-0.5-10.9l0,0c-0.7-1.5-1.6-2.9-2.8-4.1c-4.5-4.5-14.4-6.8-29.4-7
			c-0.6,0-1.1,0-1.7,0c-9.6,0-20.8,0.9-32.6,2.5c-5.5-3.2-11.1-6.6-15.5-10.7c-12.1-11.3-22.2-26.9-28.5-44.1c0.4-1.4,0.7-2.8,1-4.2
			c1.9-8.4,3.2-34.9,3.2-36l0.1-1.8c0.7-2.8,2.3-10.1,1.8-15.1c-0.1-1-0.4-2.3-0.9-3.7L251.7,121L251.7,121z"/>
	</g>
	
		<linearGradient id="SVGID_5_" gradientUnits="userSpaceOnUse" x1="215.59" y1="619.75" x2="256.89" y2="578.45" gradientTransform="matrix(1 0 0 -1 0 846)">
		<stop  offset="0" style="stop-color:#FF7373"/>
		<stop  offset="0.2004" style="stop-color:#E36060"/>
		<stop  offset="0.5585" style="stop-color:#B74342"/>
		<stop  offset="0.837" style="stop-color:#9C312F"/>
		<stop  offset="1" style="stop-color:#922A28"/>
	</linearGradient>
	<path class="st7" d="M268.5,240.3c-12.6-10.6-22.2-23.9-29.1-37.9c-4.4,11.9-9.6,24.5-18.3,40.8c-4.5,8.4-8.8,16.2-12.9,23.4
		c22.3-9.3,46.2-15.3,69.1-19.5C274.3,244.9,271.3,242.6,268.5,240.3z M224.3,244.9c7.3-13.8,12.1-24.8,15.6-33.9
		c7.2,12.6,16,23.3,26.2,32c0.8,0.7,1.6,1.3,2.5,2c-19.7,4-37,8.8-52.3,14.5C219,254.7,221.6,249.9,224.3,244.9z"/>
	
		<linearGradient id="SVGID_6_" gradientUnits="userSpaceOnUse" x1="225.4758" y1="713.7568" x2="254.8863" y2="684.3463" gradientTransform="matrix(1 0 0 -1 0 846)">
		<stop  offset="0" style="stop-color:#FF7373"/>
		<stop  offset="0.2004" style="stop-color:#E36060"/>
		<stop  offset="0.5585" style="stop-color:#B74342"/>
		<stop  offset="0.837" style="stop-color:#9C312F"/>
		<stop  offset="1" style="stop-color:#922A28"/>
	</linearGradient>
	<path class="st8" d="M246.7,129.2c-2.8-6.1-5.4-9.7-7.8-10.3c-1.2,0.8-2.4,2.5-2.8,5.7c-0.8,4.5-1.1,10.1-1.1,13
		c0,10.3,2,23.9,6,37.9c0.8-2.2,1.4-4.3,1.9-6.2c0.8-3.1,5.9-24.9,5.9-24.9l0.3-1.6C249.3,139,249.1,134.4,246.7,129.2z
		 M245.4,144.3v1.3c-0.6,2.4-2.5,9.9-4,15.7c-1.7-8.6-2.7-16.9-2.7-23.8c0-2.6,0.2-8.1,1-12.4V125v-0.1c0-0.3,0.1-0.6,0.1-0.8
		c0.9,1.2,2.1,3.2,3.6,6.5c1.9,4.3,1.9,9.5,1.9,13L245.4,144.3z"/>
	
		<linearGradient id="SVGID_7_" gradientUnits="userSpaceOnUse" x1="169.7785" y1="553.2615" x2="177.6211" y2="545.4189" gradientTransform="matrix(1 0 0 -1 0 846)">
		<stop  offset="0" style="stop-color:#FF7373"/>
		<stop  offset="0.2004" style="stop-color:#E36060"/>
		<stop  offset="0.5585" style="stop-color:#B74342"/>
		<stop  offset="0.837" style="stop-color:#9C312F"/>
		<stop  offset="1" style="stop-color:#922A28"/>
	</linearGradient>
	<path class="st9" d="M179.3,284.1c-16.3,13.4-28.4,30.2-28.1,36.7l0.1,0.6c8.7-1.2,20-12.7,33.9-33.9l10-16.4l-6.7,4.6L179.3,284.1
		z M156.5,315.5c3.5-6.8,12.2-17.9,24.2-27.9C172.3,300.2,163.8,310.9,156.5,315.5z"/>
	<g id="g24" transform="matrix(1.25,0,0,-1.25,137.303,233.06512)">
		<path id="path26" inkscape:connector-curvature="0" class="st2" d="M67-8.1c-3.6-6.7-7.1-13-10.3-18.7c17.8,7.5,37,12.2,55.3,15.6
			c-2.5,1.7-4.8,3.5-7.1,5.4c-10,8.6-17.7,19.2-23.2,30.4C78.1,15.1,74,5,67-8.1 M60.3-4.6c5.1,10.1,11,21.6,15.7,33l1.9,4.5
			c-6.1,23.5-9.8,42.3-6.5,54.4c0.9,3.2,4.6,5.1,8.5,5.1h2.4h0.4c5.4,0.1,7.9-6.7,8.2-9.4c0.5-4.4-1.6-11.9-1.6-11.9
			c0,3,0.1,7.9-1.8,12.1c-2.2,4.9-4.3,7.8-6.2,8.3c-1-0.6-1.9-2-2.2-4.5c-0.7-3.6-0.9-8.1-0.9-10.4c0-8.2,1.6-19.1,4.8-30.3
			c0.6,1.7,1.1,3.4,1.6,5c0.6,2.5,4.8,18.8,4.8,18.8s-1-21.7-2.5-28.3c-0.3-1.4-0.7-2.8-1-4.2c5.2-14.8,13.6-27.9,23.7-37.4
			c4-3.7,9-6.7,13.8-9.5c10.4,1.5,20,2.2,28,2.1c10.6-0.1,18.4-1.7,21.5-4.8c1.5-1.5,2.2-3.3,2.4-5.4c0-0.8-0.3-2.7-0.5-3.1
			c0.1,0.6,0.1,3.4-8.4,6.1c-6.7,2.1-19.2,2.1-34.3,0.5c17.4-8.5,34.3-12.7,39.7-10.2c1.3,0.6,2.9,2.8,2.9,2.8s-0.9-4.3-1.6-5.4
			c-0.9-1.2-2.6-2.4-4.2-2.9c-8.5-2.3-30.6,3-49.8,14C97.6-18.8,74-24.6,55-30.8C36.4-63.4,22.5-78.4,11.1-72.7l-4.2,2.1
			c-1.7,1-2,3.3-1.6,5.3c1.3,6.5,9.5,16.3,25.8,26c1.8,1.1,9.6,5.2,9.6,5.2s-5.8-5.6-7.2-6.7C20.4-51.5,10.8-64.9,11.1-70.2v-0.5
			C22.3-69,38.9-46.4,60.3-4.6"/>
	</g>
</g>
</svg>
