<?xml version="1.0" encoding="utf-8"?>
<!-- Generator: Adobe Illustrator 19.2.1, SVG Export Plug-In . SVG Version: 6.00 Build 0)  -->
<svg version="1.1"
	 id="svg2" inkscape:version="0.91pre4 r13712" sodipodi:docname="pdf_logo.svg" xmlns:cc="http://creativecommons.org/ns#" xmlns:dc="http://purl.org/dc/elements/1.1/" xmlns:inkscape="http://www.inkscape.org/namespaces/inkscape" xmlns:rdf="http://www.w3.org/1999/02/22-rdf-syntax-ns#" xmlns:sodipodi="http://sodipodi.sourceforge.net/DTD/sodipodi-0.dtd" xmlns:svg="http://www.w3.org/2000/svg"
	 xmlns="http://www.w3.org/2000/svg" xmlns:xlink="http://www.w3.org/1999/xlink" x="0px" y="0px" viewBox="0 0 323.8 446.2"
	 style="enable-background:new 0 0 323.8 446.2;" xml:space="preserve">
<style type="text/css">
	.st0{fill:url(#path14_1_);}
	.st1{fill:#FFFFFF;}
	.st2{fill:url(#SVGID_1_);}
	.st3{fill:url(#SVGID_2_);}
	.st4{fill:url(#SVGID_3_);}
	.st5{fill:url(#SVGID_4_);}
	.st6{fill:url(#SVGID_5_);}
	.st7{fill:url(#SVGID_6_);}
	.st8{fill:url(#SVGID_7_);}
</style>
<sodipodi:namedview  bordercolor="#666666" borderopacity="1" fit-margin-bottom="0" fit-margin-left="0" fit-margin-right="0" fit-margin-top="0" gridtolerance="10" guidetolerance="10" id="namedview35" inkscape:current-layer="svg2" inkscape:cx="559.0219" inkscape:cy="294.40697" inkscape:pageopacity="0" inkscape:pageshadow="2" inkscape:snap-grids="true" inkscape:snap-page="true" inkscape:window-height="878" inkscape:window-maximized="1" inkscape:window-width="1538" inkscape:window-x="-8" inkscape:window-y="1012" inkscape:zoom="0.89001173" objecttolerance="10" pagecolor="#ffffff" showgrid="false">
	</sodipodi:namedview>
<g id="g12" transform="matrix(1.25,0,0,-1.25,247.68875,0)">
	
		<linearGradient id="path14_1_" gradientUnits="userSpaceOnUse" x1="-283.1885" y1="-163.8893" x2="-538.3426" y2="-605.8292" gradientTransform="matrix(1.5625 0 0 1.5625 468.2498 241.2)">
		<stop  offset="0" style="stop-color:#E44948"/>
		<stop  offset="0.1374" style="stop-color:#DB4645"/>
		<stop  offset="0.3614" style="stop-color:#C33D3B"/>
		<stop  offset="0.6253" style="stop-color:#9E2F2D"/>
		<stop  offset="0.6864" style="stop-color:#942C2A"/>
		<stop  offset="0.8863" style="stop-color:#762220"/>
		<stop  offset="1" style="stop-color:#6B1F1D"/>
	</linearGradient>
	<path id="path14" inkscape:connector-curvature="0" class="st0" d="M0,0h-198.2v-357h259v296.2L0,0z"/>
</g>
<g id="g28-9_1_" transform="matrix(1.25,0,0,-1.25,211.08288,280.09275)">
	<path id="path30_1_" inkscape:connector-curvature="0" class="st1" d="M-14.4-61.9H5.4v-7.4H-7v-7H4.7v-7.3H-7v-16h-7.3L-14.4-61.9
		 M-46.8-61.9h7.7c4.3,0,7.5-0.4,9.6-1.2s3.9-2.2,5.5-4.1c1.3-1.7,2.3-3.7,3-5.9c0.6-2.2,1-4.7,1-7.6c0-2.8-0.3-5.4-1-7.6
		c-0.6-2.2-1.6-4.2-3-5.9c-1.5-2-3.4-3.3-5.5-4.2c-2.1-0.8-5.3-1.2-9.6-1.2h-7.7V-61.9 M-39.5-69.2v-23h2.6c3,0,5.3,1,6.9,3
		s2.4,4.8,2.4,8.6c0,3.7-0.8,6.6-2.4,8.5c-1.6,2-3.9,2.9-6.9,2.9H-39.5 M-68.1-68.9v-10.5h4.1c1.4,0,2.5,0.5,3.3,1.4
		s1.2,2.2,1.2,3.9c0,1.7-0.4,3-1.2,3.9s-1.9,1.4-3.3,1.4h-4.1 M-75.4-61.9h12.2c3.6,0,6.4-1.1,8.3-3.2c1.9-2.1,2.9-5.2,2.9-9.1
		c0-4-1-7-2.9-9.1s-4.7-3.2-8.3-3.2H-68v-13.1h-7.3L-75.4-61.9"/>
</g>
<linearGradient id="SVGID_1_" gradientUnits="userSpaceOnUse" x1="244.15" y1="-316.35" x2="286.05" y2="-358.25" gradientTransform="matrix(1 0 0 1 0 396)">
	<stop  offset="0" style="stop-color:#C43F3E"/>
	<stop  offset="0.2154" style="stop-color:#BB3B3A"/>
	<stop  offset="0.5657" style="stop-color:#A3312F"/>
	<stop  offset="0.6253" style="stop-color:#9E2F2D"/>
	<stop  offset="0.6864" style="stop-color:#942C2A"/>
	<stop  offset="0.8863" style="stop-color:#762220"/>
	<stop  offset="1" style="stop-color:#6B1F1D"/>
</linearGradient>
<polygon class="st2" points="248.3,0 245.4,80.9 323.8,75.5 "/>
<linearGradient id="SVGID_2_" gradientUnits="userSpaceOnUse" x1="248.3" y1="-320.5" x2="286.05" y2="-358.25" gradientTransform="matrix(1 0 0 1 0 396)">
	<stop  offset="0" style="stop-color:#FFFFFF"/>
	<stop  offset="0.2475" style="stop-color:#FCFCFC"/>
	<stop  offset="0.4414" style="stop-color:#F2F2F2"/>
	<stop  offset="0.6172" style="stop-color:#E1E1E1"/>
	<stop  offset="0.7822" style="stop-color:#CACACA"/>
	<stop  offset="0.9383" style="stop-color:#ACACAC"/>
	<stop  offset="1" style="stop-color:#9E9E9E"/>
</linearGradient>
<polygon class="st3" points="248.3,0 248.3,75.5 323.8,75.5 "/>
<linearGradient id="SVGID_3_" gradientUnits="userSpaceOnUse" x1="228.8663" y1="-145.2664" x2="260.2691" y2="-113.8637" gradientTransform="matrix(1 0 0 1 0 396)">
	<stop  offset="0" style="stop-color:#FF7373"/>
	<stop  offset="0.2004" style="stop-color:#E36060"/>
	<stop  offset="0.5585" style="stop-color:#B74342"/>
	<stop  offset="0.837" style="stop-color:#9C312F"/>
	<stop  offset="1" style="stop-color:#922A28"/>
</linearGradient>
<path class="st4" d="M260,263c-4.4-1.4-10.9-2.1-18.7-2.1c-7,0-15.2,0.5-24.1,1.5c17.5,8.6,34.7,13.7,44.2,13.7
	c2.3,0,4.2-0.3,5.5-0.9c1.6-0.8,3.6-3.5,3.6-3.5l0.1-1.1C270.6,269.9,270.6,266.4,260,263z M265.2,272c-0.4,0.2-1.5,0.5-3.9,0.5
	c-6.8,0-18-2.9-29.9-7.7c3.5-0.2,6.8-0.3,9.8-0.3c7.8,0,13.7,0.6,17.6,1.9c5.7,1.8,7.4,3.4,7.9,4C266.2,271.2,265.6,271.8,265.2,272
	z"/>
<g>
	<g>
		
			<linearGradient id="SVGID_4_" gradientUnits="userSpaceOnUse" x1="251.9435" y1="-93.9947" x2="88.506" y2="-188.3553" gradientTransform="matrix(1 0 0 1 0 396)">
			<stop  offset="0" style="stop-color:#FF7373"/>
			<stop  offset="5.033737e-02" style="stop-color:#F96F6E"/>
			<stop  offset="0.4758" style="stop-color:#CD4D4C"/>
			<stop  offset="0.8065" style="stop-color:#B23936"/>
			<stop  offset="1" style="stop-color:#A8312E"/>
		</linearGradient>
		<path class="st5" d="M151.7,117.6h3h0.5h0.1c6.6,0,9.8,8.5,10.1,11.8c0.6,5.5-2,14.9-2,14.9c0-3.8,0.1,1.4,0.1,1.4
			s-1.3,27.2-3.1,35.4c-0.4,1.7-0.8,3.5-1.3,5.2c6.6,18.4,17.2,34.7,29.8,46.5c5,4.7,11.3,8.4,17.2,11.8c12.3-1.8,23.6-2.6,33.3-2.6
			c0.6,0,1.1,0,1.7,0c13.2,0.2,23,2.1,26.9,6c1.9,1.9,2.7,4.2,3,6.7c0.1,1-0.4,3.3-0.6,3.9c0.1-0.7-0.1,1.1-0.1,1.1s-1.2,5.4-2,6.7
			c-1.1,1.5-3.2,3-5.2,3.6c-1.6,0.4-3.7,0.6-6,0.6c-13,0-35.9-6.5-56.3-18.1c-26.9,4-56.4,11.3-80.1,19
			c-20,35.1-35.8,53.8-48.8,53.8c-2.1,0-4.2-0.5-6.1-1.5l-5.2-2.6c-2.1-1.2-2.4-4.2-2-6.6c1.7-8.1,11.8-20.3,32.3-32.5
			c2.2-1.3,12-6.5,12-6.5s-2.3,15.5,24.4-36.8c6.5-12.7,13.8-27,19.7-41.3l2.3-5.7c-7.7-29.3-12.3-52.7-8.2-67.9
			C142.2,120,146.8,117.6,151.7,117.6 M166.2,121L166.2,121c-2.2-3.7-5.7-6.9-10.8-6.9h-0.2h-0.5h-2.9l0,0l0,0
			c-6.9,0-12.6,3.6-14.1,9c-4.2,15.6,0,38.7,7.9,68.6l-1.9,4.6c-5.6,13.6-12.6,27.4-18.8,39.5l-0.8,1.5c-4.8,9.5-11,21.1-17.7,32.5
			l-5.2,2.7c-0.4,0.2-9.9,5.2-12.2,6.6c-19.1,11.4-31.8,24.5-33.9,34.9c-0.9,4.6,0.5,8.6,3.7,10.4h0.1H59l5.2,2.6
			c2.5,1.2,5.1,1.9,7.7,1.9c14,0,29.4-16.3,51.3-54.4c24.6-8,52.4-14.6,77-18.3c19,10.6,42.2,18,56.9,18c2.7,0,5-0.3,6.9-0.8
			c2.6-0.7,5.5-2.7,7.2-4.9l0.1-0.1l0.1-0.1c1-1.6,2-5.6,2.5-7.9l-0.5-10.9l0,0c-0.7-1.5-1.6-2.9-2.8-4.1c-4.5-4.5-14.4-6.8-29.4-7
			c-0.6,0-1.1,0-1.7,0c-9.6,0-20.8,0.9-32.6,2.5c-5.5-3.2-11.1-6.6-15.5-10.7c-12.1-11.3-22.2-26.9-28.5-44.1c0.4-1.4,0.7-2.8,1-4.2
			c1.9-8.4,3.2-34.9,3.2-36l0.1-1.8c0.7-2.8,2.3-10.1,1.8-15.1c-0.1-1-0.4-2.3-0.9-3.7L166.2,121L166.2,121z"/>
	</g>
	
		<linearGradient id="SVGID_5_" gradientUnits="userSpaceOnUse" x1="130.05" y1="-169.75" x2="171.35" y2="-128.45" gradientTransform="matrix(1 0 0 1 0 396)">
		<stop  offset="0" style="stop-color:#FF7373"/>
		<stop  offset="0.2004" style="stop-color:#E36060"/>
		<stop  offset="0.5585" style="stop-color:#B74342"/>
		<stop  offset="0.837" style="stop-color:#9C312F"/>
		<stop  offset="1" style="stop-color:#922A28"/>
	</linearGradient>
	<path class="st6" d="M183,240.3c-12.6-10.6-22.2-23.9-29.1-37.9c-4.4,11.9-9.6,24.5-18.3,40.8c-4.5,8.4-8.8,16.2-12.9,23.4
		c22.3-9.3,46.2-15.3,69.1-19.5C188.8,244.9,185.8,242.6,183,240.3z M138.8,244.9c7.3-13.8,12.1-24.8,15.6-33.9
		c7.2,12.6,16,23.3,26.2,32c0.8,0.7,1.6,1.3,2.5,2c-19.7,4-37,8.8-52.3,14.5C133.5,254.7,136.1,249.9,138.8,244.9z"/>
	
		<linearGradient id="SVGID_6_" gradientUnits="userSpaceOnUse" x1="139.9358" y1="-263.7568" x2="169.3463" y2="-234.3463" gradientTransform="matrix(1 0 0 1 0 396)">
		<stop  offset="0" style="stop-color:#FF7373"/>
		<stop  offset="0.2004" style="stop-color:#E36060"/>
		<stop  offset="0.5585" style="stop-color:#B74342"/>
		<stop  offset="0.837" style="stop-color:#9C312F"/>
		<stop  offset="1" style="stop-color:#922A28"/>
	</linearGradient>
	<path class="st7" d="M161.2,129.2c-2.8-6.1-5.4-9.7-7.8-10.3c-1.2,0.8-2.4,2.5-2.8,5.7c-0.8,4.5-1.1,10.1-1.1,13
		c0,10.3,2,23.9,6,37.9c0.8-2.2,1.4-4.3,1.9-6.2c0.8-3.1,5.9-24.9,5.9-24.9l0.3-1.6C163.8,139,163.6,134.4,161.2,129.2z
		 M159.9,144.3v1.3c-0.6,2.4-2.5,9.9-4,15.7c-1.7-8.6-2.7-16.9-2.7-23.8c0-2.6,0.2-8.1,1-12.4V125v-0.1c0-0.3,0.1-0.6,0.1-0.8
		c0.9,1.2,2.1,3.2,3.6,6.5c1.9,4.3,1.9,9.5,1.9,13L159.9,144.3z"/>
	
		<linearGradient id="SVGID_7_" gradientUnits="userSpaceOnUse" x1="84.2385" y1="-103.2615" x2="92.0811" y2="-95.4189" gradientTransform="matrix(1 0 0 1 0 396)">
		<stop  offset="0" style="stop-color:#FF7373"/>
		<stop  offset="0.2004" style="stop-color:#E36060"/>
		<stop  offset="0.5585" style="stop-color:#B74342"/>
		<stop  offset="0.837" style="stop-color:#9C312F"/>
		<stop  offset="1" style="stop-color:#922A28"/>
	</linearGradient>
	<path class="st8" d="M93.8,284.1c-16.3,13.4-28.4,30.2-28.1,36.7l0.1,0.6c8.7-1.2,20-12.7,33.9-33.9l10-16.4l-6.7,4.6L93.8,284.1z
		 M71,315.5c3.5-6.8,12.2-17.9,24.2-27.9C86.8,300.2,78.3,310.9,71,315.5z"/>
	<g id="g24" transform="matrix(1.25,0,0,-1.25,137.303,233.06512)">
		<path id="path26" inkscape:connector-curvature="0" class="st1" d="M-1.4-8.1c-3.6-6.7-7.1-13-10.3-18.7
			c17.8,7.5,37,12.2,55.3,15.6c-2.5,1.7-4.8,3.5-7.1,5.4c-10,8.6-17.7,19.2-23.2,30.4C9.7,15.1,5.6,5-1.4-8.1 M-8.1-4.6
			C-3,5.5,2.9,17,7.6,28.4l1.9,4.5C3.4,56.4-0.3,75.2,3,87.3c0.9,3.2,4.6,5.1,8.5,5.1h2.4h0.4c5.4,0.1,7.9-6.7,8.2-9.4
			c0.5-4.4-1.6-11.9-1.6-11.9c0,3,0.1,7.9-1.8,12.1c-2.2,4.9-4.3,7.8-6.2,8.3c-1-0.6-1.9-2-2.2-4.5c-0.7-3.6-0.9-8.1-0.9-10.4
			c0-8.2,1.6-19.1,4.8-30.3c0.6,1.7,1.1,3.4,1.6,5c0.6,2.5,4.8,18.8,4.8,18.8s-1-21.7-2.5-28.3c-0.3-1.4-0.7-2.8-1-4.2
			C22.7,22.8,31.1,9.7,41.2,0.2c4-3.7,9-6.7,13.8-9.5c10.4,1.5,20,2.2,28,2.1c10.6-0.1,18.4-1.7,21.5-4.8c1.5-1.5,2.2-3.3,2.4-5.4
			c0-0.8-0.3-2.7-0.5-3.1c0.1,0.6,0.1,3.4-8.4,6.1c-6.7,2.1-19.2,2.1-34.3,0.5c17.4-8.5,34.3-12.7,39.7-10.2
			c1.3,0.6,2.9,2.8,2.9,2.8s-0.9-4.3-1.6-5.4c-0.9-1.2-2.6-2.4-4.2-2.9c-8.5-2.3-30.6,3-49.8,14c-21.5-3.2-45.1-9-64.1-15.2
			C-32-63.4-45.9-78.4-57.3-72.7l-4.2,2.1c-1.7,1-2,3.3-1.6,5.3c1.3,6.5,9.5,16.3,25.8,26c1.8,1.1,9.6,5.2,9.6,5.2s-5.8-5.6-7.2-6.7
			C-48-51.5-57.6-64.9-57.3-70.2v-0.5C-46.1-69-29.5-46.4-8.1-4.6"/>
	</g>
</g>
</svg>
