<?xml version="1.0" encoding="utf-8"?>
<!-- Generator: Adobe Illustrator 21.0.2, SVG Export Plug-In . SVG Version: 6.00 Build 0)  -->
<svg version="1.1"
	 id="svg2" inkscape:version="0.91pre4 r13712" sodipodi:docname="pdf_logo.svg" xmlns:cc="http://creativecommons.org/ns#" xmlns:dc="http://purl.org/dc/elements/1.1/" xmlns:inkscape="http://www.inkscape.org/namespaces/inkscape" xmlns:rdf="http://www.w3.org/1999/02/22-rdf-syntax-ns#" xmlns:sodipodi="http://sodipodi.sourceforge.net/DTD/sodipodi-0.dtd" xmlns:svg="http://www.w3.org/2000/svg"
	 xmlns="http://www.w3.org/2000/svg" xmlns:xlink="http://www.w3.org/1999/xlink" x="0px" y="0px" viewBox="0 0 496 447.5"
	 style="enable-background:new 0 0 496 447.5;" xml:space="preserve" preserveAspectRatio="xMinYMid">
<style type="text/css">
	.st0{opacity:0.24;}
	.st1{fill:url(#path14_2_);}
	.st2{fill:#999898;}
	.st3{fill:url(#SVGID_1_);}
	.st4{fill:url(#SVGID_2_);}
	.st5{fill:#FFFFFF;}
	.st6{fill:#295595;}
</style>
<g id="g12_1_" transform="matrix(1.25,0,0,-1.25,247.68875,0)" class="st0">
	<path id="path14_1_" inkscape:connector-curvature="0" d="M69.7-1.6h-198.2v-357h259v296.2L69.7-1.6z"/>
</g>
<sodipodi:namedview  bordercolor="#666666" borderopacity="1" fit-margin-bottom="0" fit-margin-left="0" fit-margin-right="0" fit-margin-top="0" gridtolerance="10" guidetolerance="10" id="namedview35" inkscape:current-layer="svg2" inkscape:cx="559.0219" inkscape:cy="294.40697" inkscape:pageopacity="0" inkscape:pageshadow="2" inkscape:snap-grids="true" inkscape:snap-page="true" inkscape:window-height="878" inkscape:window-maximized="1" inkscape:window-width="1538" inkscape:window-x="-8" inkscape:window-y="1012" inkscape:zoom="0.89001173" objecttolerance="10" pagecolor="#ffffff" showgrid="false">
	</sodipodi:namedview>
<g id="g12" transform="matrix(1.25,0,0,-1.25,247.68875,0)">
	
		<linearGradient id="path14_2_" gradientUnits="userSpaceOnUse" x1="-699.2108" y1="-860.8687" x2="-782.9896" y2="-1336.0018" gradientTransform="matrix(1.9531 0 0 1.9531 1397.8606 1687.75)">
		<stop  offset="0" style="stop-color:#D4D4D4"/>
		<stop  offset="0.5321" style="stop-color:#FFFFFF"/>
	</linearGradient>
	<path id="path14" inkscape:connector-curvature="0" class="st1" d="M68.3,0h-198.2v-357h259v296.2L68.3,0z"/>
</g>
<path id="path2991" inkscape:connector-curvature="0" class="st2" d="M132.3,174.9h118.8H370v8.5v8.5H251.1H132.3V174.9z M132.3,135
	h118.8H370v8.5v8.5H251.1H132.3V135z M132.3,95.6h118.8H370v8.5v8.5H251.1H132.3V95.6z M132.3,55.8h118.8H370v8.5v8.5H251.1H132.3
	V55.8z M132.3,214.6h118.8H370v8.5v8.5H251.1H132.3V214.6z M132.3,254h118.8H370v8.5v8.5H251.1H132.3V254z M132.3,293.4h118.8H370
	v8.5v8.5H251.1H132.3V293.4z M132.3,334.1h118.8H370v8.5v8.5H251.1H132.3V334.1z M132.3,375.6h118.8H370v8.5v8.5H251.1H132.3V375.6z
	"/>
<linearGradient id="SVGID_1_" gradientUnits="userSpaceOnUse" x1="329.5472" y1="764.35" x2="371.4472" y2="806.25" gradientTransform="matrix(1 0 0 -1 0 844)">
	<stop  offset="0" style="stop-color:#C4C4C4"/>
	<stop  offset="0.2154" style="stop-color:#BBBBBB"/>
	<stop  offset="0.5657" style="stop-color:#A3A3A3"/>
	<stop  offset="0.6253" style="stop-color:#9E9E9E"/>
	<stop  offset="0.6864" style="stop-color:#949494"/>
	<stop  offset="0.8863" style="stop-color:#767676"/>
	<stop  offset="1" style="stop-color:#6B6B6B"/>
</linearGradient>
<polygon class="st3" points="333.7,0 330.8,80.9 409.2,75.5 "/>
<linearGradient id="SVGID_2_" gradientUnits="userSpaceOnUse" x1="333.6972" y1="768.5" x2="371.4472" y2="806.25" gradientTransform="matrix(1 0 0 -1 0 844)">
	<stop  offset="0" style="stop-color:#FFFFFF"/>
	<stop  offset="0.3665" style="stop-color:#FCFCFC"/>
	<stop  offset="0.6617" style="stop-color:#F2F2F2"/>
	<stop  offset="0.9312" style="stop-color:#E1E1E1"/>
	<stop  offset="1" style="stop-color:#DBDBDB"/>
</linearGradient>
<polygon class="st4" points="333.7,0 333.7,75.5 409.2,75.5 "/>
<rect id="path2990" x="9.3" y="161.2" class="st5" width="208.3" height="208.3"/>
<path id="path2989" inkscape:connector-curvature="0" sodipodi:nodetypes="cccccccccccssccccccccccccccccccccccccccccccccccccccccccccccc" class="st6" d="
	M1,265.4V152.2h113.3h113.3v113.3v113.3H114.3H1V265.4z M167.2,223.9l-11.4-0.2v-11.2v-11.2h27.4h27.4v-16v-16h-96.3H18v96.3v96.3
	h96.3h96.3v-68.9h0v-68.9h-4.4c-3.8,0-8.1,7.2-33.9,56.2l-29.5,57.4l-34.1-0.2l-0.5-27.3l-0.5-27.3L92,310l-15.7,27.2h-30v-56.6
	v-56.6h-7.6h-7.6v-11.3v-11.3h34h34v11.3v11.3h-8.5h-8.5l0.2,20.3l0.2,20.3l15.3-31.6l15.3-31.6h15.7h15.7l0,32.6l0,32.6
	L167.2,223.9z"/>
</svg>
