<?xml version="1.0" encoding="utf-8"?>
<!-- Generator: Adobe Illustrator 22.0.1, SVG Export Plug-In . SVG Version: 6.00 Build 0)  -->
<svg version="1.1" id="Layer_1" xmlns="http://www.w3.org/2000/svg" xmlns:xlink="http://www.w3.org/1999/xlink" x="0px" y="0px"
	 viewBox="0 0 46.2 47.1" style="enable-background:new 0 0 46.2 47.1;" xml:space="preserve">
<style type="text/css">
	.st0{fill:#FF5111;}
</style>
<g>
	<g>
		<path class="st0" d="M18.2,32.8c-7.7,0-14-6.3-14-14s6.3-14,14-14c7.7,0,14,6.3,14,14S26,32.8,18.2,32.8z M18.2,11
			c-4.3,0-7.8,3.5-7.8,7.8s3.5,7.8,7.8,7.8s7.8-3.5,7.8-7.8S22.5,11,18.2,11z"/>
	</g>
	<g>
		<path class="st0" d="M39,43.2c-0.8,0-1.6-0.3-2.2-0.9L23.5,29c-1.2-1.2-1.2-3.2,0-4.4c1.2-1.2,3.2-1.2,4.4,0l13.3,13.3
			c1.2,1.2,1.2,3.2,0,4.4C40.5,42.9,39.8,43.2,39,43.2z"/>
	</g>
</g>
</svg>
