<?xml version="1.0" encoding="utf-8"?>
<!-- Generator: Adobe Illustrator 22.0.1, SVG Export Plug-In . SVG Version: 6.00 Build 0)  -->
<svg version="1.1" id="Layer_1" xmlns="http://www.w3.org/2000/svg" xmlns:xlink="http://www.w3.org/1999/xlink" x="0px" y="0px"
	 viewBox="0 0 46.2 47.1" style="enable-background:new 0 0 46.2 47.1;" xml:space="preserve">
<style type="text/css">
	.st0{fill:#FFFFFF;}
	.st1{fill:#03ABC9;}
</style>
<g>
	<g>
		
			<rect x="3.3" y="8.8" transform="matrix(0.9989 -4.656678e-02 4.656678e-02 0.9989 -0.876 0.8997)" class="st0" width="31.2" height="21"/>
		<path class="st1" d="M1.8,32.6L0.6,7.5l35.3-1.6L37.1,31L1.8,32.6z M5,11.5l0.8,16.8L32.7,27L32,10.2L5,11.5z"/>
	</g>
	<g>
		
			<rect x="17.3" y="11.1" transform="matrix(2.458341e-02 -0.9997 0.9997 2.458341e-02 0.4448 53.8722)" class="st0" width="21" height="31.2"/>
		<path class="st1" d="M45.2,39.7L9.9,38.8l0.6-25.2l35.3,0.9L45.2,39.7z M14.1,34.8l27,0.7l0.4-16.8l-27-0.7L14.1,34.8z"/>
	</g>
</g>
</svg>
