<?xml version="1.0" encoding="utf-8"?>
<!-- Generator: Adobe Illustrator 21.0.2, SVG Export Plug-In . SVG Version: 6.00 Build 0)  -->
<svg version="1.1" id="Layer_1" xmlns="http://www.w3.org/2000/svg" xmlns:xlink="http://www.w3.org/1999/xlink" x="0px" y="0px"
	 viewBox="0 0 45 45" style="enable-background:new 0 0 45 45;" xml:space="preserve">
<style type="text/css">
	.st0{fill:#8A8C8E;}
</style>
<path class="st0" d="M22.5,0.7c-12,0-21.8,9.8-21.8,21.8s9.8,21.8,21.8,21.8s21.8-9.8,21.8-21.8S34.5,0.7,22.5,0.7z M34.2,14.8
	L22.3,35.1c-0.5,0.8-1.3,1.3-2.2,1.5c-0.1,0-0.3,0-0.4,0c-0.8,0-1.6-0.3-2.1-0.9l-7.1-7.1c-1.2-1.2-1.2-3.1,0-4.3s3.1-1.2,4.3,0
	l4.3,4.3l10-16.9c0.8-1.4,2.7-1.9,4.1-1.1C34.6,11.5,35.1,13.4,34.2,14.8z"/>
</svg>
