<?xml version="1.0" encoding="utf-8"?>
<!-- Generator: Adobe Illustrator 19.2.1, SVG Export Plug-In . SVG Version: 6.00 Build 0)  -->
<svg version="1.1" id="Layer_1" xmlns="http://www.w3.org/2000/svg" xmlns:xlink="http://www.w3.org/1999/xlink" x="0px" y="0px"
	 viewBox="0 0 17.5 21.5" style="enable-background:new 0 0 17.5 21.5;" xml:space="preserve">
<style type="text/css">
	.st0{fill:#F36B26;}
</style>
<g>
	<path class="st0" d="M7.7,8.6l-1.4,4.1c-0.1,0.2,0,0.4,0.3,0.4h1.6c0.2,0,0.5-0.2,0.6-0.4l0.5-1.4H8.3L8.8,10h3.1l-1.5,4.4H1.6
		c0,0-0.1,0-0.1,0.1s0,0.1,0.1,0.1l3.1,0.7c0.9,1.5,2,2.6,3.3,3.5c0,0,4.7-1.7,6.4-10.5H8.3C8.1,8.2,7.8,8.4,7.7,8.6z"/>
	<path class="st0" d="M2.8,5.5c0,0-0.5,3.9,0.5,6.8c0.1,0.3,0.2,0.6,0.3,0.9l0,0l1.7-4.9C5.6,7.5,6.3,7,7,7h7.6
		c0.1-0.8,0.3-2.1,0.3-3.6C15,3.4,9.8,1.8,2.8,5.5z"/>
</g>
</svg>
