<?xml version="1.0" encoding="utf-8"?>
<!-- Generator: Adobe Illustrator 19.2.1, SVG Export Plug-In . SVG Version: 6.00 Build 0)  -->
<svg version="1.1" id="Layer_1" xmlns="http://www.w3.org/2000/svg" xmlns:xlink="http://www.w3.org/1999/xlink" x="0px" y="0px"
	 viewBox="0 0 50 50" style="enable-background:new 0 0 50 50;" xml:space="preserve">
<style type="text/css">
	.st0{fill:#58595B;}
	.st1{fill:#E6E7E8;}
</style>
<rect class="st0" width="50" height="50"/>
<rect x="2.7" y="2.7" class="st1" width="44.5" height="44.5"/>
<g>
	<path class="st0" d="M16.3,41.9h-1.7L11,33.3h1.8l2.6,6.7l2.6-6.7h1.8L16.3,41.9z"/>
	<path class="st0" d="M29.3,37.6c0,2.2-1.4,4.5-4.4,4.5c-3,0-4.4-2.2-4.4-4.4s1.5-4.5,4.4-4.5C27.9,33.1,29.4,35.4,29.3,37.6z
		 M22.1,37.7c0,1.4,0.8,2.9,2.8,2.9c2,0,2.8-1.5,2.8-2.9c0-1.5-0.8-3.1-2.8-3.1C22.9,34.6,22.1,36.2,22.1,37.7z"/>
	<path class="st0" d="M38.1,40.8c-0.9,0.9-2,1.3-3.3,1.3c-3.2,0-4.5-2.2-4.6-4.4c0-2.2,1.5-4.5,4.6-4.5c1.2,0,2.3,0.4,3.2,1.3
		l-1.1,1c-0.6-0.6-1.3-0.8-2.1-0.8c-2.1,0-3,1.5-3,3c0,1.4,0.8,2.9,3,2.9c0.8,0,1.6-0.3,2.2-0.9L38.1,40.8z"/>
</g>
<g>
	<path class="st0" d="M12.7,22.8v6.9h4.3v1.5h-5.9v-8.4H12.7z"/>
	<path class="st0" d="M26.2,27c0,2.2-1.4,4.3-4.3,4.3c-3,0-4.3-2.1-4.3-4.3c0-2.2,1.4-4.4,4.3-4.4C24.8,22.6,26.2,24.8,26.2,27z
		 M19.1,27c0,1.4,0.8,2.9,2.8,2.9c2,0,2.7-1.5,2.7-2.9c0-1.4-0.8-3-2.7-3C19.9,24,19.1,25.6,19.1,27z"/>
	<path class="st0" d="M36,31.2h-1.3l-1-2.6l-0.9-2.6l-0.9,2.7l-1,2.6h-1.3l-3.1-8.4h1.8l2,6.1l2-6.1h1l2.1,6.1l1.9-6.1h1.8L36,31.2z
		"/>
</g>
<path class="st0" d="M23.9,7.4c0,0,1.6,1.8,1.1,3.7s-3.2,3.1-2.3,5.8c0.8,2.7,2.4,3.3,2.4,3.3s-1.3-1.4-0.6-3.8S29.7,11.6,23.9,7.4z
	"/>
</svg>
