<?xml version="1.0" encoding="utf-8"?>
<!-- Generator: Adobe Illustrator 22.1.0, SVG Export Plug-In . SVG Version: 6.00 Build 0)  -->
<svg version="1.1" id="Layer_1" xmlns="http://www.w3.org/2000/svg" xmlns:xlink="http://www.w3.org/1999/xlink" x="0px" y="0px"
	 viewBox="0 0 112 168.9" style="enable-background:new 0 0 112 168.9;" xml:space="preserve">
<style type="text/css">
	.st0{fill:#F05523;}
</style>
<g>
	<path class="st0" d="M18.3,91.2C5.5,70.4,12.1,42.9,32.9,30.2S81.2,23.9,94,44.7s6.2,48.3-14.6,61.1C58.3,118.8,31.1,112,18.3,91.2
		z M23.3,88.2c11.1,18.1,34.9,23.8,53,12.7s23.8-34.9,12.7-53S54.1,24.1,36,35.2S12.2,70.1,23.3,88.2z"/>
</g>
<polygon class="st0" points="35.3,128.6 24.8,168.7 39.8,168.9 49,131.8 "/>
<path class="st0" d="M55.5,38.6c0,0-28.7-0.9-29.9,31.2C25.6,69.8,27.6,53.3,55.5,38.6z"/>
<g>
	<polygon class="st0" points="37.4,120.6 36.1,125.6 49.8,128.9 51,123.8 	"/>
	<path class="st0" d="M51.8,120.8l1.5-5.9c0.9-3.7-1.5-7.5-5.1-8.4c-3.7-0.9-7.5,1.5-8.4,5.1l-1.5,5.8L51.8,120.8z"/>
</g>
</svg>
