<?xml version="1.0" encoding="utf-8"?>
<!-- Generator: Adobe Illustrator 22.1.0, SVG Export Plug-In . SVG Version: 6.00 Build 0)  -->
<svg version="1.1" id="Layer_1" xmlns="http://www.w3.org/2000/svg" xmlns:xlink="http://www.w3.org/1999/xlink" x="0px" y="0px"
	 viewBox="0 0 121.8 168.9" style="enable-background:new 0 0 121.8 168.9;" xml:space="preserve">
<style type="text/css">
	.st0{fill:#F05523;}
</style>
<g>
	<path class="st0" d="M44.6,131.6c-24.1-3.8-40.8-26.7-36.9-50.8s26.8-40.6,50.9-36.8s40.7,26.6,36.9,50.7S69,135.5,44.6,131.6z
		 M57.6,49.7c-21-3.3-40.8,11.1-44.1,32.1s11.1,40.8,32.1,44.1s40.8-11.1,44.1-32.1C92.9,72.8,78.5,53,57.6,49.7z"/>
</g>
<polygon class="st0" points="83.2,144.1 101.1,169 119,168.9 94.7,136 "/>
<path class="st0" d="M80.4,77.7C67,48.5,40.9,60.4,40.9,60.4C72.3,63.2,80.4,77.7,80.4,77.7z"/>
<g>
	<polygon class="st0" points="78.4,137.4 81.4,141.7 92.9,133.5 89.8,129.4 	"/>
	<path class="st0" d="M87.8,126.7l-3.5-4.8c-2.2-3-6.6-3.8-9.7-1.6c-3,2.2-3.8,6.6-1.6,9.7l3.6,4.9L87.8,126.7z"/>
</g>
</svg>
