<?xml version="1.0" encoding="utf-8"?>
<!-- Generator: Adobe Illustrator 19.2.1, SVG Export Plug-In . SVG Version: 6.00 Build 0)  -->
<svg version="1.1" id="Layer_1" xmlns="http://www.w3.org/2000/svg" xmlns:xlink="http://www.w3.org/1999/xlink" x="0px" y="0px"
	 viewBox="0 0 124.2 107.6" style="enable-background:new 0 0 124.2 107.6;" xml:space="preserve">
<style type="text/css">
	.st0{fill:none;stroke:#E6EEF9;stroke-width:0.8619;stroke-miterlimit:10;}
	.st1{fill:none;stroke:#E6EEF9;stroke-width:0.75;stroke-miterlimit:10;}
	.st2{fill:#E6EEF9;}
</style>
<polygon class="st0" points="62.1,104.1 18.4,79 18.4,28.4 62.1,3.3 105.8,28.4 105.8,79 "/>
<g>
	<path class="st1" d="M43.5,33.9l-0.3-0.7l0.3-0.8l0.7-0.2l0.4-0.9l1.6-0.2l0.5,0.2l0.5-0.4l0.7-0.6l1.1,0l0.7-0.6l0.5,0.2l0.9,0.9
		l0.2,0.7l2-0.6l3.2-0.3l5.8,1.3l4.8,0.7c0,0,1.7,0.2,1.9,0.8l2.4,0.6c0,0,0.8,0.2,1.3,0.6s2,1.9,2,1.9s0.9,0.9,1.3,1
		c0.4,0.2,1.3,0.6,1.3,0.6s1,1.4,1.3,2.5l1,0.7l0.3,1.3l1.5,2l1.4,2.1l2,1.4l0.1,0.5l1.5,0.5l0.5,0.9l1.3,0.4l1.5,0.9l0.4,2.4l0,2.9
		l0.3,0.7l-0.4,1.5l-0.9,1.4L88,60.8l-0.7,0.3l0,1.3l-0.2,1.2l-0.4,0.3l-0.6,1l-1,1L84,66.5l-0.8,1l-0.7,0.1l-0.9,0.9l-1.1,0.3
		L80,69.2l-1.2,1L76.4,72l0,1l1.5,0.9l-0.1,1.3l0.5,0.7l0.1,1.4l0.3,0.9l-1.2,1.4l-1-0.3l-0.9,0.1l-0.6,0.4l-1.7-0.4l-0.8,0.3
		l-0.5,0.7l-1.3-0.1l-1-0.5l-0.2,0.5l-1.1,0.2l-0.6-0.5l0.1-0.5L67.6,79l0.1-0.6l-1.5-0.7l-0.6,0.7l-0.8,0.3l-0.6-0.7l-2-0.5
		l-1.3,0.3l-2.1-1.3l-1.3-0.3l-1.8-0.8l-0.6,0.7L54.6,76l-0.7,0.7l-1.8-2l-3.2-0.9l0-1.3l-0.7-0.3L46.4,71l0.1-0.9l-2.1-0.7L41.7,68
		l0.5-0.6l-0.8-0.8l-1.5,0.2l-0.3-1.1l-0.3-2.5l-0.6-0.4l-0.1-0.5l-1-1.5l-0.3-1.3l0.4-0.5l-0.7-1.3l0.4-1l-0.7-2.4
		c0,0,0.6-1.7,0.1-3.1l0.7-0.7l0-1.7l-0.5-2l1.4-1.1l0.1-0.7l-0.2-0.9l0.3-0.7l-0.5,0L37,39l0.5-1.2l0.6-0.2l0.7-1.1l0-0.4l2.6-1.8
		l1.4,0.1L43.5,33.9z"/>
	<polygon class="st2" points="50.7,67.4 48.9,69.8 50.1,70.6 50.2,70 50.7,70.3 52.1,69.4 54.4,70.2 54.7,69.6 54,69.7 54.1,69.1 
		53.6,69.7 54,68.4 53,69.3 52.4,68.6 51.6,68.9 50.7,67.4 	"/>
	<polygon class="st2" points="54.1,66 54.5,66.2 54.6,66.5 54.4,66.8 54.8,66.8 54.8,66.4 54.4,66 54.7,65.5 55.2,65.8 55.9,65.5 
		56.2,66 56.2,65.4 56.7,65.6 56.7,65.2 55.5,64.8 54.7,65 54.5,64.9 54.2,65.2 52.8,65.5 52.8,65.9 52.3,66 52.4,66.2 51.9,66.4 
		53.4,68.1 54.1,67.9 53.7,67.7 53.5,67.8 53.1,66.7 53.6,66.4 53.4,66 53.4,65.7 53.9,65.7 54.1,66 	"/>
	<polygon class="st2" points="56.5,66.3 56.6,67.1 56.5,67.4 56.8,67.6 56.6,68.9 56,69 55.8,69.1 56,69.5 55.7,69.8 56.4,69.9 
		56.6,70.1 56.6,69.8 56.9,69.7 56.9,69.5 57.3,69 57.7,69 57.6,68.5 57.4,68.3 57.4,68 57.1,67.8 57.1,67.5 56.8,67.3 56.5,66.3 	
		"/>
	<polygon class="st2" points="57.7,71.4 57.8,71.9 57.6,72.1 57.7,72.7 57.5,72.8 57.6,73.2 57.4,73.4 57.5,73.8 57.1,74.1 
		56.9,73.7 56.5,73.6 56.7,73.2 57,73.3 57.4,72.8 57.2,72.6 56,73 55.9,72.9 56.6,72.2 56.8,72.4 57,72.1 57.4,72.3 57.4,71.9 
		56.9,71.9 56.8,71.6 57,71.5 57,71.7 57.5,71.7 57.7,71.4 	"/>
	<polygon class="st2" points="58.8,67.9 58.4,67.4 58.2,68 58.1,67.4 58.5,67.2 57.9,66.6 57.7,66.7 57.3,66.3 57.5,66.1 57.9,66.2 
		58.5,67 58.6,66.7 59,66.5 57.8,65.6 57.5,65.7 57.3,66 56.9,65.9 56.9,65.7 58.2,64.7 58.2,64.5 59.2,64.1 59.5,64.3 59.9,63.9 
		60.4,64.3 62.4,63.8 62.7,63.3 62.6,62.9 62.2,62.8 62.2,62.5 62.5,62.7 62.9,62.6 62.9,63 63.7,62.9 63.2,62.5 63.7,62.5 
		64.1,62.8 64.4,62.5 64.9,62.6 65.3,62.3 65.8,62.5 66.2,62.3 66.2,62.7 66.5,62.9 66.8,62.7 67,63 67.4,62.6 67.5,62.9 67.2,63.3 
		66.4,63.5 66.1,63.3 64.3,63.7 64.1,63.5 63.2,63.7 62.6,64.4 61.9,64.6 61.4,65.2 60.7,65.4 60.6,64.5 59.3,64.6 59.2,64.9 
		58.9,64.5 58.4,64.6 58.3,64.9 58.1,65 58.1,65.7 58.4,66.1 59.2,66.1 59.3,66 59.4,66.2 59.7,66.4 59.3,66.6 59.2,67.1 59.4,67.3 
		59.2,67.2 58.8,67.9 	"/>
	<polygon class="st2" points="68.5,62.9 68.5,63.4 68.7,63.3 70.2,64.3 70.3,64.2 70.6,64.5 70.8,64.3 71,64.6 71.2,64.6 71.8,65.1 
		72.1,65.1 72.3,65.3 72.6,65.3 72.7,65.4 73,65.4 72,64.8 71.7,63.9 71.6,64.5 71,64.3 70.8,64.1 70.5,64.2 70.4,63.9 69.4,63.4 
		69.2,63.4 68.5,62.9 	"/>
	<polygon class="st2" points="74.4,69.5 72.5,73.3 72.7,73.5 72.9,73.4 73.2,73.7 73.2,73.3 72.9,73.2 72.9,73.1 73.1,72.7 
		73.3,73.1 73.6,73.1 73.6,73.5 73.5,73.8 73.6,73.9 74,73.7 74.3,73.9 74.3,73.6 74,73.6 73.9,73.1 74.1,72.8 74.4,73.1 74.3,71.8 
		73.9,72.3 74,72.7 73.5,72.9 73.4,72.7 73.6,71.9 74.2,71.6 74.6,71.8 74.6,71.9 74.9,71.9 75,71.7 75.3,71.5 75.3,71.4 74.9,71.4 
		74.8,71.3 75,71 75.3,71 75.5,71.2 76.1,71 76.2,70.8 76.5,70.8 76.5,70.4 76.3,70.5 75.9,70.9 75.7,70.7 75.7,70.5 75.9,70.4 
		75.8,70.2 75.2,70.1 74.6,70.5 74.5,70.2 74.4,70.2 74.4,69.5 	"/>
	<polygon class="st2" points="72.4,73.8 72.5,74.1 72.2,74.3 72.1,74.6 72.4,74.8 72.7,74.7 72.7,74.5 72.9,74.4 72.9,74.7 
		73.3,74.8 73.1,75.1 73.1,74.9 72.8,74.8 72.4,74.9 72,74.8 71.7,74.9 71.8,75.2 72.1,75.4 72.2,75.6 72.5,75.6 72.9,76.3 
		73.1,76.3 72.8,76.4 72.8,76.6 72.6,76.7 72.7,77 72.6,77.1 72.2,77.1 72.2,76.9 72.6,76.5 72.6,76.3 72.1,76.1 72.1,76.6 
		71.8,76.7 71.8,77.1 71.4,77.4 71,76.5 70.8,76.7 70.8,77.1 69.7,77.7 69.6,77.5 69.5,77.5 69.5,77.2 69.9,77 69.9,76.8 70.7,76.3 
		70.8,76 71,75.9 71,75.7 71.6,75.2 71.6,74.8 72.4,73.8 	"/>
	<polyline class="st1" points="39.3,60.8 39.3,59.1 39.9,58.8 40.4,58 40.9,57.7 40.7,57.1 41,56.4 41.3,55.3 42.3,54.1 42.8,53.8 	
		"/>
	<polyline class="st1" points="41.4,56.5 42,56.1 42.5,55.4 43.4,55.2 44,54.5 44.4,53.7 45.1,53.6 45.5,52.9 46,52.2 46.1,51.2 
		46.4,50.2 47.2,49.7 47.9,49.1 47.9,48.2 48.1,47.5 48.9,47.6 49.7,48.4 51.1,49.2 51.7,48.6 53.3,49.3 54.9,50 56.4,50.6 
		57.5,51.5 58.5,52.3 	"/>
	<line class="st1" x1="58.9" y1="51.6" x2="59.1" y2="50.6"/>
	<polyline class="st1" points="59.3,49.7 60,48.7 60.2,47.8 62.1,47.3 62.9,47.4 63.3,47 63.7,47.2 63.9,46.8 64.6,46.6 65.2,46.3 
		65.8,45.6 66.1,44.8 66.8,45.1 	"/>
	<polyline class="st1" points="67.7,45.1 66.9,44.6 69,44.4 70.6,45 72.3,44.8 73.8,45.3 75.5,46.7 76.1,49.2 76.8,51.2 77.9,52.8 
		78.7,55 79.6,57.4 80.2,58.9 	"/>
	<polyline class="st1" points="42,50.5 42.2,49.5 42.1,49.1 42.4,48.1 42.4,47.2 42.4,45.4 43.2,44.5 44.4,44.8 44.5,45.6 45,44.9 
		46.5,44.5 47.6,45.1 49.2,44.9 49.7,45.1 51.7,44.6 57.6,43.3 	"/>
	<path class="st1" d="M58.6,43.1c0.1,0.2,4.5,0.9,4.5,0.9l0.8-0.1l0.4,0.5l0.8-0.4l0.6,0.3"/>
	<polyline class="st1" points="52,31.5 54.1,31.9 54.7,32.2 56,32.1 56.4,32.5 57.9,32.9 58.7,32.8 60.2,33.2 60.8,33.3 62.2,33.6 
		63.6,33.6 64.2,34 64.5,34.5 	"/>
	<polyline class="st1" points="66.7,35.2 67.3,35.3 67.8,36.3 68.6,36.8 69.1,37.7 69.9,38 70.3,38.9 70.9,39.1 71.4,39.8 
		72.4,40.1 74.3,40.3 74.8,40.9 76,41 77.3,41.9 78.5,42.9 79.2,43.1 	"/>
	<line class="st1" x1="72.3" y1="40.9" x2="74.8" y2="40.9"/>
	<polyline class="st1" points="39.6,43.5 41.6,44.5 43,44.2 43.1,43.8 42.6,43.5 41.6,43.2 40.2,41.4 	"/>
	<path class="st2" d="M45.9,59.3c0.2-0.1,0.8-1.2,0.8-1.2l0.9-0.2l0.6,0.4l0.3-0.3l1,0.2l-0.7,0.3l-0.2-0.2l-0.5,0.3l-0.1,0.3
		l-0.3,0.1l-0.2-0.3l-0.3,0l-0.5,0.2l-0.2,0L46.3,59l0,0.2L45.9,59.3z"/>
	<path class="st2" d="M48.1,59.2l-0.9,0.2c0,0,0,0.2-0.1,0.2c-0.1,0-0.6,0.2-0.6,0.2l0.7-0.1l0.2,0.3l0.1-0.4L48.1,59.2z"/>
	<polygon class="st2" points="52.4,60.3 52.6,59.9 53.1,59.9 53.5,60.2 53.6,60.5 53.2,60.4 53,60.3 	"/>
	<polygon class="st2" points="53,61.8 53.7,61.6 53.7,61.8 53.9,61.9 54.1,62.4 54.1,62.7 53.8,62.4 53.4,62 	"/>
	<polygon class="st2" points="50.3,60.6 50.5,60.5 50.7,60.5 50.7,60.8 50.9,61.2 50.7,61.3 50.7,61 	"/>
	<path class="st2" d="M48.7,60.1c0,0-0.1,0.4,0,0.4s0.2,0,0.2,0s0.2-0.1,0.2-0.1l-0.2-0.1L48.7,60.1z"/>
	<polyline class="st1" points="42.5,36.3 43.2,35.4 44.3,35.1 	"/>
	<polyline class="st1" points="46.9,34.1 47.6,33.9 48.5,33 48.3,31.9 48.5,31.2 47.3,31.5 46.5,32 45.9,32 	"/>
	<polyline class="st1" points="55.9,41.6 57.3,41.5 57.7,40.7 	"/>
	<polyline class="st1" points="58.8,39.7 58.4,40.4 58,40.2 	"/>
	<polyline class="st1" points="53.8,39.9 54.3,40.4 54.8,40.3 55.6,39.8 56.8,39.6 	"/>
	<polyline class="st1" points="77,44.8 76.4,45.5 75.7,45 76.5,46.2 76.9,47.9 77.1,49.7 78.3,51 79.1,52.1 80.5,52.5 81,52.9 
		81.6,55.3 83.6,56.3 85,56.5 	"/>
	<polyline class="st1" points="80.1,49.9 80.7,51.6 81.8,52.8 83.4,53.1 85.9,52.7 	"/>
	<path class="st1" d="M59.9,52.5c0.2,0,1.6,0.6,1.6,0.6l2,0.1l1.5,0.5l0.7,0.8"/>
	<polyline class="st1" points="58.8,67.9 58.6,69 58.3,69.8 58.5,70.7 57.5,71.7 	"/>
	<line class="st1" x1="58.1" y1="75.2" x2="58.8" y2="76.4"/>
	<path class="st1" d="M74,65.9c0.4,0.2,0.7,2,0.7,2l0,0.9"/>
	<path class="st1" d="M75.1,60.3c0.3,0.1,2.1,0.9,2.1,0.9l0.8,0.7l1.2,0.4l1.5,0.8"/>
	<line class="st1" x1="40.9" y1="65.4" x2="41.4" y2="66.6"/>
	<polyline class="st1" points="59,42.6 60.1,42 60.9,41.1 61,42.2 	"/>
</g>
</svg>
