<?xml version="1.0" encoding="utf-8"?>
<!-- Generator: Adobe Illustrator 19.2.1, SVG Export Plug-In . SVG Version: 6.00 Build 0)  -->
<svg version="1.1" id="Layer_1" xmlns="http://www.w3.org/2000/svg" xmlns:xlink="http://www.w3.org/1999/xlink" x="0px" y="0px"
	 viewBox="0 0 7.7 7.6" style="enable-background:new 0 0 7.7 7.6;" xml:space="preserve">
<style type="text/css">
	.st0{fill:#F7941E;}
	.st1{fill:#FFFFFF;}
</style>
<g>
	<circle class="st0" cx="3.9" cy="3.8" r="3.7"/>
	<g>
		<path class="st1" d="M1.8,2.6C1.8,1.4,2.9,1,3.8,1c1,0,2.1,0.3,2.1,1.6c0,1.1-0.6,1.3-1.1,1.5C4,4.3,3.9,4.5,3.9,5.4H3.5
			c0-1.1,0.3-1.5,1.2-1.7c0.4-0.1,0.8-0.3,0.8-1.1c0-1-0.9-1.2-1.7-1.2c-0.7,0-1.7,0.2-1.7,1.2H1.8z M4,6.3c0,0.4-0.6,0.4-0.6,0
			C3.4,5.9,4,5.9,4,6.3z"/>
	</g>
</g>
</svg>
