<?xml version="1.0" encoding="utf-8"?>
<!-- Generator: Adobe Illustrator 19.2.1, SVG Export Plug-In . SVG Version: 6.00 Build 0)  -->
<svg version="1.1" id="Layer_1" xmlns="http://www.w3.org/2000/svg" xmlns:xlink="http://www.w3.org/1999/xlink" x="0px" y="0px"
	 viewBox="0 0 14 14" style="enable-background:new 0 0 14 14;" xml:space="preserve">
<style type="text/css">
	.st0{fill:#DCDDDE;}
	.st1{fill:#FFFFFF;}
	.st2{fill:#7B7C80;}
	.st3{fill:#CFCFCF;}
	.st4{fill:#F2F2F2;}
	.st5{fill:#454647;}
	.st6{fill:#636466;}
	.st7{fill:#949494;}
</style>
<polygon class="st0" points="10.4,1 13.8,7 10.4,12.8 3.7,12.8 0.2,6.9 3.6,1 "/>
<polygon class="st1" points="3.7,13 0.3,7 3.7,1.2 10.4,1.2 13.9,7.1 10.5,13 "/>
<polygon class="st2" points="3.7,12.8 0.3,7 3.7,1.2 10.4,1.2 13.8,7 10.4,12.8 "/>
<polygon class="st3" points="3.9,12.5 0.7,7 3.9,1.5 10.2,1.5 13.4,7 10.2,12.5 "/>
<polygon class="st4" points="4,12.5 1,7 4.1,1.8 10.2,1.8 13.4,7 10.2,12.5 "/>
<polygon class="st5" points="13.4,7 10.2,1.5 3.8,1.5 0.6,7 3.8,12.5 10.2,12.5 3.9,12.5 0.7,7 3.9,1.5 10.2,1.5 "/>
<polygon class="st6" points="10.4,1.2 13.7,7 10.4,12.8 3.7,12.8 10.4,12.8 13.8,7 "/>
<polygon class="st7" points="10.3,1.7 4,1.7 0.8,7.1 0.7,7 3.9,1.5 10.2,1.5 "/>
</svg>
