<?xml version="1.0" encoding="utf-8"?>
<!-- Generator: Adobe Illustrator 19.2.1, SVG Export Plug-In . SVG Version: 6.00 Build 0)  -->
<svg version="1.1" id="Layer_1" xmlns="http://www.w3.org/2000/svg" xmlns:xlink="http://www.w3.org/1999/xlink" x="0px" y="0px"
	 viewBox="0 0 14 14" style="enable-background:new 0 0 14 14;" xml:space="preserve">
<style type="text/css">
	.st0{fill:#DCDDDE;}
	.st1{fill:#FFFFFF;}
	.st2{fill:#6D6E6F;}
	.st3{fill:#86888A;}
	.st4{fill:#A5A7AA;}
	.st5{fill:#615C5D;}
	.st6{fill:#474445;}
</style>
<polygon class="st0" points="10.4,1 13.8,7 10.4,12.8 3.7,12.8 0.1,6.9 3.6,1 "/>
<polygon class="st1" points="3.7,13 0.3,7 3.7,1.2 10.4,1.2 13.9,7.1 10.5,13 "/>
<g>
	<path class="st2" d="M10.4,12.9H3.6L0.3,7l3.4-5.9h6.7L13.7,7L10.4,12.9z"/>
</g>
<polygon class="st3" points="2,9.8 3.8,12.5 10.1,12.5 13.2,7 11.7,4 13.7,7 10.4,12.9 3.6,12.9 "/>
<polygon class="st4" points="2,9.8 3.8,12.5 10.1,12.5 13.2,7 11.8,4 13.5,7 10.3,12.7 3.7,12.7 "/>
<polyline class="st5" points="11.9,4.2 10.4,1.1 3.7,1.1 0.3,7 2.1,9.9 0.8,7 3.9,1.5 10.2,1.5 11.9,4.2 "/>
<polygon class="st6" points="11.8,4.1 10.2,1.5 3.9,1.5 0.8,7 2,9.8 0.6,7 3.7,1.3 10.3,1.3 "/>
</svg>
