<?xml version="1.0" encoding="utf-8"?>
<!-- Generator: Adobe Illustrator 21.0.2, SVG Export Plug-In . SVG Version: 6.00 Build 0)  -->
<svg version="1.1" id="Layer_1" xmlns="http://www.w3.org/2000/svg" xmlns:xlink="http://www.w3.org/1999/xlink" x="0px" y="0px"
	 viewBox="0 0 48 48" style="enable-background:new 0 0 48 48;" xml:space="preserve">
<style type="text/css">
	.st0{fill:#404040;}
</style>
<g>
	<path class="st0" d="M41.4,39.6c0,0.9-0.8,1.7-1.7,1.7H38V25.8c0-0.9-0.8-1.7-1.7-1.7H12.2c-0.9,0-1.7,0.8-1.7,1.7v15.5H8.8
		c-0.9,0-1.7-0.8-1.7-1.7v-31c0-0.9,0.8-1.7,1.7-1.7h5.2v10.3c0,0.9,0.8,1.7,1.7,1.7h17.2c0.9,0,1.7-0.8,1.7-1.7V6.9h0.9l6,6
		L41.4,39.6L41.4,39.6z M36.3,41.3H12.2V25.8h24.1V41.3z M15.7,6.9h17.2v10.3H15.7L15.7,6.9L15.7,6.9z M41.4,10.3l-5.2-5.2H8.8
		c-1.9,0-3.4,1.5-3.4,3.4v31c0,1.9,1.5,3.4,3.4,3.4h31c1.9,0,3.4-1.5,3.4-3.4V12L41.4,10.3z M32.8,32.7H15.7v1.7h17.2V32.7z
		 M32.8,36.1H15.7v1.7h17.2V36.1z M26,29.2H15.7V31H26V29.2z M27.7,15.5h3.4V8.6h-3.4V15.5z"/>
</g>
</svg>
