<?xml version="1.0" encoding="utf-8"?>
<svg version="1.1" id="Layer_1" xmlns="http://www.w3.org/2000/svg" xmlns:xlink="http://www.w3.org/1999/xlink" width="19px" height="23px" x="0px" y="0px" viewBox="0 0 27.6 30.8" style="enable-background:new 0 0 27.6 30.8;" xml:space="preserve">
	<style> .st0 { fill:#FF611D } </style>
	<path class="st0" d="M16.1,6.7C13.6,3.5,9.1,3,6,5.4c-3.1,2.4-3.7,6.9-1.2,10c2.4,3.1,6.9,3.7,10,1.2C17.9,14.3,18.5,9.8,16.1,6.7z M13.7,15.2c-2.3,1.8-5.6,1.4-7.4-0.9C4.5,12,4.9,8.7,7.2,6.9c2.3-1.8,5.6-1.4,7.4,0.9C16.4,10.1,16,13.4,13.7,15.2z"/>
	<path class="st0" d="M22.9,25.4l-1.6,1.2c-0.4,0.3-0.9,0.2-1.2-0.2l-5.4-6.9c-0.3-0.4-0.2-0.9,0.2-1.2l1.6-1.2 c0.4-0.3,0.9-0.2,1.2,0.2l5.4,6.9C23.4,24.6,23.3,25.1,22.9,25.4z"/>
	<rect class="st0" x="15" y="15.8" transform="matrix(0.7885 -0.6151 0.6151 0.7885 -7.8027 13.6939)" width="1.9" height="4.8"/>
</svg>