<?xml version="1.0" encoding="utf-8"?>
<!-- Generator: Adobe Illustrator 19.2.1, SVG Export Plug-In . SVG Version: 6.00 Build 0)  -->
<svg version="1.1" id="Layer_1" xmlns="http://www.w3.org/2000/svg" xmlns:xlink="http://www.w3.org/1999/xlink" x="0px" y="0px"
	 viewBox="0 0 61.8 62.7" style="enable-background:new 0 0 61.8 62.7;" xml:space="preserve">
<style type="text/css">
	.st0{fill:#FFFFFF;}
</style>
<g>
	<g>
		<path class="st0" d="M15,27.2c-2,0-3.8-1.4-4.3-3.3l-1.2-4.6c-0.3-1.1-0.1-2.4,0.4-3.4c0.6-1,1.6-1.8,2.7-2.1L48,4.3
			c0.4-0.1,0.8-0.2,1.2-0.2c2,0,3.8,1.4,4.3,3.3l1.2,4.6c0.3,1.1,0.1,2.4-0.4,3.4c-0.6,1-1.6,1.8-2.7,2.1L16.2,27
			C15.8,27.1,15.4,27.2,15,27.2z"/>
	</g>
	<g>
		<path class="st0" d="M42.3,45.6l-1.9,0.5l-4.9-18.4c-0.2-0.9-0.8-0.8-1.1-0.8l-22.5,6c-2.5,0.7-3.9-1.3-4.3-2.4l-1.4-5.2
			c-0.3-1.2,0-2.1,0.3-2.6c0.8-1.3,2.3-1.6,2.4-1.6l5.3-1.4l0.5,1.9l-5.3,1.4c-0.3,0.1-0.9,0.3-1.2,0.7c-0.2,0.3-0.2,0.6-0.1,1
			L9.5,30c0.1,0.3,0.6,1.4,1.8,1.1l22.5-6c1.1-0.3,3,0,3.5,2.2L42.3,45.6z"/>
	</g>
	<path class="st0" d="M43.2,40.7l-6,1.6c-0.9,0.3-1.9-0.3-2.2-1.2v0c-0.3-0.9,0.3-1.9,1.2-2.2l6-1.6c0.9-0.3,1.9,0.3,2.2,1.2v0
		C44.7,39.5,44.1,40.5,43.2,40.7z"/>
	
		<rect x="39.8" y="39.8" transform="matrix(0.9658 -0.2591 0.2591 0.9658 -11.1335 12.5627)" class="st0" width="4.5" height="17.4"/>
	<circle class="st0" cx="44.3" cy="56.7" r="2.2"/>
</g>
</svg>
