<?xml version="1.0" encoding="utf-8"?>
<!-- Generator: Adobe Illustrator 21.0.2, SVG Export Plug-In . SVG Version: 6.00 Build 0)  -->
<svg version="1.1" id="Layer_1" xmlns="http://www.w3.org/2000/svg" xmlns:xlink="http://www.w3.org/1999/xlink" x="0px" y="0px"
	 viewBox="0 0 48 48" style="enable-background:new 0 0 48 48;" xml:space="preserve">
<style type="text/css">
	.st0{fill:#404040;}
</style>
<g>
	<path class="st0" d="M30.6,15.3c0.2,0,0.4,0.1,0.6,0.3c0.2,0.2,0.2,0.4,0.2,0.6L30.8,37c0,0.3-0.2,0.6-0.4,0.7
		c-0.3,0.1-0.6,0.1-0.8,0c-0.3-0.2-0.4-0.4-0.4-0.7l0.6-20.8c0-0.2,0.1-0.4,0.3-0.6C30.2,15.4,30.4,15.3,30.6,15.3z M17.4,15.3
		c0.2,0,0.5,0.1,0.6,0.2c0.2,0.2,0.3,0.4,0.3,0.6L18.9,37c0,0.3-0.1,0.6-0.4,0.7c-0.3,0.2-0.6,0.2-0.8,0c-0.3-0.1-0.4-0.4-0.4-0.7
		l-0.6-20.8c0-0.2,0.1-0.4,0.2-0.6C17,15.4,17.2,15.3,17.4,15.3z M24,15.3c0.2,0,0.5,0.1,0.6,0.2c0.2,0.2,0.3,0.4,0.2,0.6V37
		c0,0.3-0.2,0.6-0.4,0.7c-0.3,0.2-0.6,0.2-0.9,0c-0.3-0.2-0.4-0.4-0.4-0.7V16.2c0-0.2,0.1-0.4,0.2-0.6C23.6,15.4,23.8,15.3,24,15.3z
		 M12.5,13.6C12.5,13.6,12.5,13.6,12.5,13.6c0.5,0,0.9,0.4,0.9,0.8l1.3,26.9h18.7l1.3-26.9c0-0.5,0.4-0.8,0.9-0.8s0.8,0.4,0.8,0.9
		l-1.3,27c0,0.3-0.1,0.6-0.2,0.8c-0.2,0.3-0.5,0.6-1,0.6H14.2c-0.5,0-0.8-0.3-1-0.6C13,42.1,13,41.8,13,41.5l-1.3-27
		c0-0.2,0.1-0.4,0.2-0.6C12,13.7,12.3,13.6,12.5,13.6z M20.3,10.3h7.5l0-1.7c0-1.1-0.8-2-1.9-2h-3.7h0c-1,0-1.9,0.8-1.9,2L20.3,10.3
		z M18.6,8.7c0-2,1.6-3.7,3.6-3.7h3.7c2,0,3.6,1.7,3.6,3.7l0,1.7h8.5c0.3,0,0.6,0.2,0.7,0.4c0.2,0.3,0.2,0.6,0,0.9
		c-0.2,0.3-0.4,0.4-0.7,0.4H10.1c-0.3,0-0.6-0.2-0.7-0.4c-0.2-0.3-0.2-0.6,0-0.9s0.4-0.4,0.7-0.4h8.5L18.6,8.7z"/>
</g>
</svg>
