<?xml version="1.0" encoding="utf-8"?>
<!-- Generator: Adobe Illustrator 19.2.1, SVG Export Plug-In . SVG Version: 6.00 Build 0)  -->
<svg version="1.1" id="Layer_1" xmlns="http://www.w3.org/2000/svg" xmlns:xlink="http://www.w3.org/1999/xlink" x="0px" y="0px"
	 viewBox="0 0 50 50" style="enable-background:new 0 0 50 50;" xml:space="preserve">
<style type="text/css">
	.st0{fill:#382B2F;}
	.st1{fill:#E5E0D9;}
</style>
<rect class="st0" width="50" height="50"/>
<rect x="2.7" y="2.7" class="st1" width="44.5" height="44.5"/>
<g>
	<path class="st0" d="M16.1,43.2h-1.7l-3.6-8.6h1.8l2.6,6.7l2.6-6.7h1.8L16.1,43.2z"/>
	<path class="st0" d="M29.1,38.9c0,2.2-1.4,4.5-4.4,4.5s-4.4-2.2-4.4-4.4s1.5-4.5,4.4-4.5C27.7,34.4,29.2,36.7,29.1,38.9z M21.9,39
		c0,1.4,0.8,2.9,2.8,2.9s2.8-1.5,2.8-2.9c0-1.5-0.8-3.1-2.8-3.1S21.9,37.5,21.9,39z"/>
	<path class="st0" d="M37.9,42.1c-0.9,0.9-2,1.3-3.3,1.3c-3.2,0-4.5-2.2-4.6-4.4c0-2.2,1.5-4.5,4.6-4.5c1.2,0,2.3,0.4,3.2,1.3
		l-1.1,1c-0.6-0.6-1.3-0.8-2.1-0.8c-2.1,0-3,1.5-3,3c0,1.4,0.8,2.9,3,2.9c0.8,0,1.6-0.3,2.2-0.9L37.9,42.1z"/>
</g>
<path class="st0" d="M23.7,19.2c0,0,1.4,1.6,1,3.2s-2.8,2.7-2.1,5.1c0.7,2.4,2.2,3,2.2,3s-1.2-1.3-0.5-3.3
	C24.9,25.1,28.9,23,23.7,19.2z"/>
<g>
	<path class="st0" d="M21.9,6.5h1.6V15h-1l0,0l-4.4-5.7V15h-1.6V6.6h1.3l4.1,5.2V6.5z"/>
	<path class="st0" d="M33.3,10.8c0,2.2-1.4,4.3-4.3,4.3s-4.3-2.1-4.3-4.3s1.4-4.4,4.3-4.4S33.4,8.6,33.3,10.8z M26.3,10.8
		c0,1.4,0.8,2.9,2.8,2.9s2.7-1.5,2.7-2.9s-0.8-3-2.7-3C27.1,7.8,26.2,9.4,26.3,10.8z"/>
</g>
<g>
	<g>
		<path class="st0" d="M24.4,32.5c-4.2,0-7.7-3.4-7.7-7.7s3.4-7.7,7.7-7.7c4.2,0,7.7,3.4,7.7,7.7S28.7,32.5,24.4,32.5z M24.4,18.3
			c-3.6,0-6.5,2.9-6.5,6.5s2.9,6.5,6.5,6.5s6.5-2.9,6.5-6.5S28,18.3,24.4,18.3z"/>
	</g>
	<g>
		
			<rect x="23.5" y="18" transform="matrix(0.7071 -0.7071 0.7071 0.7071 -10.5255 24.3153)" class="st0" width="1.2" height="13.7"/>
	</g>
</g>
</svg>
