<?xml version="1.0" encoding="utf-8"?>
<!-- Generator: Adobe Illustrator 19.2.1, SVG Export Plug-In . SVG Version: 6.00 Build 0)  -->
<svg version="1.1" id="Layer_1" xmlns="http://www.w3.org/2000/svg" xmlns:xlink="http://www.w3.org/1999/xlink" x="0px" y="0px"
	 viewBox="0 0 50 50" style="enable-background:new 0 0 50 50;" xml:space="preserve">
<style type="text/css">
	.st0{fill:#E7E7E7;}
	.st1{fill:#424143;}
</style>
<rect class="st0" width="50" height="50"/>
<rect x="2.7" y="2.7" class="st1" width="44.5" height="44.5"/>
<polygon class="st0" points="25.1,6.8 27.2,4.9 28.8,7.2 31.3,5.8 32.4,8.4 35.1,7.5 35.7,10.3 38.5,10 38.5,12.8 41.3,13.1 
	40.7,15.9 43.4,16.8 42.3,19.4 44.7,20.8 43.1,23.1 45.2,25 43.1,26.8 44.7,29.1 42.3,30.5 43.4,33.1 40.7,34 41.3,36.8 38.5,37.1 
	38.5,39.9 35.7,39.6 35.1,42.4 32.4,41.5 31.3,44.1 28.8,42.7 27.2,45 25.1,43.1 22.9,45 21.3,42.7 18.8,44.1 17.7,41.5 15,42.4 
	14.4,39.6 11.6,39.9 11.6,37.1 8.8,36.8 9.4,34 6.7,33.1 7.8,30.5 5.4,29.1 7,26.8 4.9,25 7,23.1 5.4,20.8 7.8,19.4 6.7,16.8 
	9.4,15.9 8.8,13.1 11.6,12.8 11.6,10 14.4,10.3 15,7.5 17.7,8.4 18.8,5.8 21.3,7.2 22.9,4.9 "/>
<path class="st1" d="M25.1,8.8C16.2,8.8,8.9,16,8.9,24.9c0,8.9,7.2,16.1,16.1,16.1c8.9,0,16.1-7.2,16.1-16.1
	C41.2,16,34,8.8,25.1,8.8z M13.7,31.9c-0.1,0.3-0.3,0.5-0.4,0.6c0,0,0,0,0,0l-0.1,0c0,0,0,0,0,0c-0.1,0.1-0.4,0.2-0.7,0.1
	c-0.3-0.1-0.6-0.3-0.6-0.4c0.1-0.1,0.4-0.2,0.8-0.1c0.2,0,0.3,0.1,0.5,0.2c0,0,0,0,0,0c-0.1-0.2-0.3-0.4-0.4-0.6c0,0,0,0,0,0
	c-0.1,0.1-0.4,0.1-0.7,0c-0.3-0.1-0.6-0.3-0.6-0.5c0.1-0.1,0.4-0.1,0.8,0c0.2,0.1,0.3,0.1,0.4,0.2c-0.1-0.1-0.2-0.3-0.2-0.4
	c-0.1-0.1-0.1-0.2-0.1-0.2l0,0c0,0,0,0,0,0c-0.1,0.1-0.4,0.1-0.7,0c-0.3-0.1-0.5-0.4-0.6-0.5c0.1-0.1,0.5-0.1,0.8,0
	c0.2,0.1,0.3,0.2,0.4,0.3c0,0,0,0,0,0c-0.1-0.2-0.2-0.4-0.3-0.7c0,0,0,0,0,0c-0.1,0.1-0.4,0.1-0.7-0.1c-0.3-0.1-0.5-0.4-0.5-0.5
	c0.1-0.1,0.5-0.1,0.8,0.1c0.2,0.1,0.3,0.2,0.4,0.3c-0.1-0.2-0.1-0.3-0.2-0.4c0-0.1-0.1-0.2-0.1-0.2c0-0.1,0-0.1,0-0.1h0c0,0,0,0,0,0
	c-0.2,0.1-0.4,0-0.7-0.1c-0.3-0.2-0.5-0.4-0.5-0.6c0.2-0.1,0.5,0,0.8,0.1c0.2,0.1,0.3,0.2,0.4,0.3c0,0,0,0,0,0
	c-0.1-0.2-0.1-0.4-0.2-0.7c0,0,0,0,0,0c-0.2,0-0.4,0-0.7-0.2c-0.3-0.2-0.4-0.5-0.4-0.6c0.2-0.1,0.5,0,0.7,0.2
	c0.2,0.1,0.3,0.3,0.4,0.4c0-0.2-0.1-0.3-0.1-0.5c0-0.1,0-0.2,0-0.3h0c0,0,0,0,0-0.1c-0.2,0-0.4,0-0.7-0.2c-0.3-0.2-0.4-0.5-0.4-0.6
	c0.2,0,0.5,0,0.7,0.3c0.1,0.1,0.3,0.2,0.3,0.4c0,0,0,0,0,0c0-0.2,0-0.4-0.1-0.7c0,0,0,0,0,0c-0.2,0-0.4,0-0.7-0.3
	C10,25.5,9.9,25.2,9.9,25c0.2,0,0.5,0.1,0.7,0.3c0.2,0.1,0.2,0.3,0.3,0.4c0-0.4,0-0.7,0-0.7h0c0,0,0,0,0-0.1c-0.2,0-0.4-0.1-0.7-0.3
	C10,24.4,10,24.1,10,24c0.2,0,0.5,0.1,0.7,0.3c0.1,0.2,0.2,0.3,0.3,0.4c0-0.2,0-0.5,0.1-0.8c0,0,0,0,0,0c-0.2,0-0.4-0.1-0.6-0.3
	c-0.2-0.3-0.3-0.6-0.2-0.7c0.2,0,0.4,0.1,0.7,0.4c0.1,0.2,0.2,0.3,0.2,0.5c0-0.2,0-0.3,0.1-0.5c0-0.1,0-0.2,0-0.3l0,0l0,0
	c0,0,0,0,0,0l0,0c0,0,0,0,0,0c-0.2,0-0.4-0.1-0.6-0.4c-0.2-0.3-0.2-0.6-0.2-0.7c0.2,0,0.4,0.2,0.6,0.4c0.1,0.2,0.2,0.3,0.2,0.5
	c0,0,0,0,0,0c0-0.2,0.1-0.4,0.2-0.7c0,0,0,0,0,0c-0.2,0-0.4-0.2-0.6-0.4c-0.2-0.3-0.2-0.6-0.1-0.7c0.2,0,0.4,0.2,0.6,0.5
	c0.1,0.2,0.2,0.3,0.2,0.5c0.1-0.3,0.2-0.6,0.2-0.7l0,0c0,0,0,0,0-0.1c-0.2,0-0.4-0.2-0.6-0.5c-0.2-0.3-0.2-0.6-0.1-0.7
	c0.2,0,0.4,0.2,0.6,0.5c0.1,0.2,0.1,0.3,0.1,0.5c0.1-0.2,0.1-0.4,0.2-0.7c0,0,0,0,0,0c-0.2,0-0.4-0.2-0.5-0.5
	c-0.1-0.3-0.1-0.6,0-0.7c0.2,0,0.4,0.2,0.5,0.5c0.1,0.2,0.1,0.4,0.1,0.5c0.2-0.4,0.3-0.7,0.3-0.7l0,0c-0.1-0.1-0.1-0.4,0-0.7
	c0.1-0.3,0.4-0.5,0.6-0.5c0.1,0.1,0.1,0.4,0,0.7c-0.1,0.3-0.3,0.4-0.5,0.5l0,0c0,0-0.1,0.3-0.3,0.7c0.1-0.1,0.2-0.2,0.4-0.3
	c0.3-0.1,0.6-0.1,0.8,0c0,0.1-0.2,0.3-0.5,0.5c-0.3,0.1-0.6,0.1-0.7,0c0,0,0,0,0,0c-0.1,0.2-0.2,0.5-0.2,0.7
	c0.1-0.1,0.2-0.2,0.4-0.3c0.3-0.1,0.6-0.1,0.8,0c0,0.1-0.2,0.3-0.5,0.5c-0.3,0.1-0.6,0.1-0.7,0.1c0,0,0,0,0,0l0,0
	c0,0-0.1,0.3-0.2,0.7c0.1-0.1,0.2-0.2,0.4-0.3c0.3-0.2,0.6-0.2,0.8-0.1c0,0.1-0.2,0.4-0.5,0.5c-0.3,0.1-0.6,0.2-0.7,0.1c0,0,0,0,0,0
	c-0.1,0.2-0.1,0.5-0.1,0.7c0,0,0,0,0,0c0.1-0.1,0.2-0.2,0.4-0.3c0.3-0.2,0.6-0.2,0.8-0.1c0,0.1-0.1,0.4-0.4,0.5
	C11.7,23,11.4,23,11.2,23c0,0,0,0.1,0,0.1c0,0,0,0.1,0,0.3c0,0.1,0,0.3-0.1,0.4c0.1-0.1,0.2-0.2,0.3-0.3c0.3-0.2,0.6-0.2,0.7-0.2
	c0,0.1-0.1,0.4-0.4,0.6c-0.3,0.2-0.5,0.2-0.7,0.2c0,0,0,0,0,0c0,0.3,0,0.5-0.1,0.7c0.1-0.1,0.2-0.2,0.3-0.4c0.3-0.2,0.6-0.3,0.7-0.2
	c0,0.1-0.1,0.4-0.4,0.6C11.5,24.9,11.2,25,11,25c0,0,0,0,0,0h0c0,0,0,0.3,0,0.8c0-0.1,0.1-0.3,0.3-0.4c0.2-0.2,0.6-0.3,0.7-0.3
	c0,0.1-0.1,0.4-0.3,0.6C11.5,25.9,11.2,26,11,26c0,0,0,0,0,0c0,0.3,0,0.5,0.1,0.7c0,0,0,0,0,0c0-0.1,0.1-0.3,0.2-0.4
	c0.2-0.2,0.5-0.3,0.7-0.3c0,0.1,0,0.4-0.3,0.6c-0.2,0.2-0.5,0.3-0.6,0.3c0,0,0,0,0,0c0,0,0,0.1,0,0.3c0,0.1,0,0.3,0.1,0.4
	c0-0.1,0.1-0.3,0.2-0.4c0.2-0.3,0.5-0.4,0.7-0.4c0.1,0.1,0,0.4-0.2,0.6c-0.2,0.2-0.4,0.4-0.6,0.4c0,0,0,0,0,0
	c0.1,0.2,0.1,0.5,0.2,0.7c0,0,0,0,0,0c0-0.1,0.1-0.3,0.2-0.4c0.2-0.3,0.5-0.4,0.6-0.4c0.1,0.1,0,0.4-0.2,0.6
	c-0.2,0.2-0.4,0.4-0.6,0.4c0,0,0,0,0,0l0,0c0,0,0,0,0,0c0,0,0,0,0,0l0,0c0,0,0,0,0,0c0,0.1,0,0.1,0.1,0.2c0,0.1,0.1,0.2,0.1,0.4
	c0-0.1,0-0.3,0.1-0.4c0.2-0.3,0.4-0.4,0.6-0.4c0.1,0.1,0.1,0.4-0.1,0.7c-0.2,0.3-0.4,0.4-0.5,0.5c0,0,0,0,0,0
	c0.1,0.2,0.2,0.5,0.3,0.6c0,0,0,0,0,0c0-0.1,0-0.3,0.1-0.4c0.1-0.3,0.4-0.5,0.6-0.5c0.1,0.1,0.1,0.4-0.1,0.7
	c-0.1,0.3-0.3,0.5-0.5,0.5c0,0,0,0,0,0c0,0,0.1,0.1,0.1,0.3c0.1,0.1,0.1,0.2,0.2,0.4c0-0.1,0-0.3,0.1-0.5c0.1-0.3,0.4-0.5,0.5-0.5
	c0.1,0.1,0.1,0.4,0,0.7c-0.1,0.3-0.3,0.5-0.5,0.5c0,0,0,0,0,0c0.1,0.2,0.3,0.4,0.4,0.6c0,0,0,0,0,0c0-0.1,0-0.3,0-0.5
	c0.1-0.3,0.3-0.5,0.5-0.6C13.7,31.3,13.8,31.6,13.7,31.9z M25.1,37C18.4,37,13,31.6,13,24.9s5.4-12.1,12.1-12.1s12.1,5.4,12.1,12.1
	S31.7,37,25.1,37z M39.4,27.2c0.3-0.2,0.6-0.3,0.7-0.2c0,0.2-0.1,0.4-0.4,0.6c-0.3,0.2-0.6,0.2-0.7,0.2c0,0,0,0,0,0
	c-0.1,0.2-0.1,0.5-0.2,0.7c0,0,0,0,0,0c0.1-0.1,0.2-0.2,0.4-0.3c0.3-0.2,0.6-0.2,0.8-0.1c0,0.2-0.2,0.4-0.5,0.6
	c-0.3,0.2-0.6,0.2-0.7,0.1c0,0,0,0,0,0c0,0,0,0,0,0c0,0.1,0,0.1-0.1,0.2c0,0.1-0.1,0.3-0.2,0.4c0.1-0.1,0.2-0.2,0.4-0.3
	c0.3-0.1,0.6-0.2,0.8-0.1c0,0.2-0.2,0.4-0.5,0.6c-0.3,0.1-0.6,0.1-0.7,0.1c0,0,0,0,0,0c-0.1,0.2-0.2,0.5-0.3,0.7c0,0,0,0,0,0
	c0.1-0.1,0.2-0.2,0.4-0.3c0.3-0.1,0.6-0.1,0.8,0c0,0.2-0.2,0.4-0.6,0.5c-0.3,0.1-0.6,0.1-0.7,0c0,0,0,0,0,0c0,0-0.1,0.1-0.1,0.2
	c-0.1,0.1-0.1,0.2-0.2,0.4c0.1-0.1,0.3-0.2,0.4-0.2c0.3-0.1,0.6-0.1,0.8,0c0,0.2-0.3,0.4-0.6,0.5c-0.3,0.1-0.6,0-0.7,0c0,0,0,0,0,0
	c-0.1,0.2-0.3,0.4-0.4,0.6c0,0,0,0,0,0c0.1-0.1,0.3-0.1,0.5-0.2c0.3-0.1,0.6,0,0.8,0.1c0,0.2-0.3,0.3-0.6,0.4
	c-0.3,0.1-0.6,0-0.7-0.1c0,0,0,0,0,0l-0.1,0c0,0,0,0,0,0c-0.1-0.1-0.3-0.3-0.4-0.6c-0.1-0.3,0-0.6,0.1-0.7c0.2,0,0.4,0.3,0.5,0.6
	c0.1,0.2,0.1,0.3,0,0.5c0,0,0,0,0,0c0.1-0.2,0.3-0.4,0.4-0.6c0,0,0,0,0,0c-0.2-0.1-0.3-0.3-0.5-0.5c-0.1-0.3-0.1-0.6,0-0.7
	c0.2,0,0.4,0.2,0.5,0.5c0.1,0.2,0.1,0.3,0.1,0.5c0.1-0.1,0.2-0.3,0.2-0.4c0.1-0.1,0.1-0.2,0.1-0.2c0,0,0,0,0,0
	c-0.2,0-0.4-0.2-0.5-0.5c-0.1-0.3-0.1-0.5-0.1-0.7c0.2,0,0.4,0.2,0.6,0.5c0.1,0.2,0.1,0.3,0.1,0.4c0,0,0,0,0,0
	c0.1-0.2,0.2-0.4,0.3-0.6c0,0,0,0,0,0c-0.2,0-0.4-0.2-0.5-0.5c-0.2-0.3-0.2-0.5-0.1-0.7c0.2,0,0.4,0.2,0.6,0.4
	c0.1,0.2,0.1,0.3,0.1,0.4c0.1-0.1,0.1-0.3,0.1-0.4c0-0.1,0.1-0.2,0.1-0.2c0,0,0-0.1,0-0.1c0,0,0,0,0,0c-0.2,0-0.4-0.2-0.6-0.4
	c-0.2-0.3-0.2-0.5-0.2-0.6c0.2,0,0.4,0.1,0.6,0.4c0.1,0.1,0.2,0.3,0.2,0.4c0,0,0,0,0,0c0.1-0.2,0.1-0.4,0.2-0.7c0,0,0,0,0,0
	c-0.2,0-0.4-0.1-0.6-0.4c-0.2-0.3-0.3-0.5-0.2-0.6c0.2,0,0.5,0.1,0.7,0.4c0.1,0.2,0.2,0.3,0.2,0.4c0-0.2,0.1-0.3,0.1-0.4
	c0-0.2,0-0.3,0-0.3c0,0,0,0,0,0c-0.2,0-0.4-0.1-0.6-0.3c-0.2-0.2-0.3-0.5-0.3-0.6c0.2,0,0.5,0.1,0.7,0.3c0.1,0.1,0.2,0.3,0.2,0.4
	c0,0,0,0,0,0c0-0.2,0-0.4,0.1-0.7c0,0,0,0,0,0c-0.2,0-0.4-0.1-0.7-0.3c-0.3-0.2-0.3-0.5-0.3-0.6c0.2,0,0.5,0,0.7,0.3
	c0.1,0.1,0.2,0.3,0.3,0.4c0-0.4,0-0.8,0-0.8h0c0,0,0,0,0,0c-0.2,0-0.4-0.1-0.7-0.2c-0.3-0.2-0.4-0.4-0.4-0.6c0.2,0,0.5,0,0.7,0.2
	c0.2,0.1,0.2,0.2,0.3,0.4c0-0.2,0-0.4-0.1-0.7c0,0,0,0,0,0c-0.2,0-0.4,0-0.7-0.2c-0.3-0.2-0.4-0.4-0.4-0.6c0.2-0.1,0.5,0,0.7,0.2
	c0.2,0.1,0.3,0.2,0.3,0.3c0-0.2,0-0.3-0.1-0.4c0-0.1,0-0.2,0-0.3h0c0,0,0,0,0-0.1c-0.2,0-0.4,0-0.7-0.2c-0.3-0.2-0.4-0.4-0.4-0.5
	c0.1-0.1,0.5,0,0.8,0.1c0.2,0.1,0.3,0.2,0.4,0.3c0,0,0,0,0,0c0-0.2-0.1-0.4-0.1-0.7c0,0,0,0,0,0c-0.2,0.1-0.4,0-0.7-0.1
	c-0.3-0.2-0.5-0.4-0.5-0.5c0.1-0.1,0.5-0.1,0.8,0.1c0.2,0.1,0.3,0.2,0.4,0.3c-0.1-0.4-0.2-0.7-0.2-0.7l0,0c0,0,0,0,0,0
	c-0.2,0.1-0.4,0-0.7-0.1c-0.3-0.1-0.5-0.3-0.5-0.5c0.1-0.1,0.5-0.1,0.8,0c0.2,0.1,0.3,0.2,0.4,0.3c-0.1-0.2-0.1-0.4-0.2-0.7
	c0,0,0,0,0,0c-0.1,0.1-0.4,0.1-0.7,0c-0.3-0.1-0.5-0.3-0.5-0.5c0.1-0.1,0.4-0.1,0.8,0c0.2,0.1,0.3,0.2,0.4,0.3
	c-0.1-0.4-0.3-0.7-0.3-0.7l0,0c-0.2,0-0.4-0.2-0.5-0.5c-0.1-0.3-0.1-0.6,0-0.7c0.2,0,0.4,0.2,0.6,0.5c0.1,0.3,0.1,0.5,0,0.7l0,0
	c0,0,0.1,0.3,0.3,0.7c0-0.1,0-0.3,0.1-0.5c0.1-0.3,0.4-0.5,0.5-0.5c0.1,0.1,0.1,0.4,0,0.7c-0.1,0.3-0.4,0.4-0.5,0.5c0,0,0,0,0,0
	c0.1,0.3,0.2,0.5,0.2,0.7c0-0.1,0-0.3,0.1-0.5c0.2-0.3,0.4-0.5,0.6-0.5c0.1,0.1,0.1,0.4-0.1,0.7c-0.2,0.3-0.4,0.4-0.6,0.5
	c0,0,0,0.1,0,0.1l0,0c0,0.1,0.1,0.4,0.2,0.7c0-0.1,0-0.3,0.2-0.5c0.2-0.3,0.4-0.4,0.6-0.5c0.1,0.1,0.1,0.4-0.1,0.7
	c-0.2,0.3-0.4,0.4-0.6,0.4c0,0,0,0,0,0c0.1,0.2,0.1,0.5,0.2,0.7c0,0,0,0,0,0c0-0.1,0.1-0.3,0.2-0.5c0.2-0.3,0.5-0.4,0.6-0.4
	c0.1,0.1,0,0.4-0.2,0.7c-0.2,0.3-0.4,0.4-0.6,0.4c0,0,0,0,0,0l0,0c0,0,0,0,0,0l0,0c0,0,0,0.1,0,0.3c0,0.1,0,0.3,0.1,0.5
	c0-0.1,0.1-0.3,0.2-0.5c0.2-0.3,0.5-0.4,0.7-0.4c0.1,0.1,0,0.4-0.2,0.7c-0.2,0.2-0.5,0.4-0.6,0.3c0,0,0,0,0,0c0,0.3,0,0.6,0.1,0.8
	c0-0.1,0.1-0.3,0.3-0.4c0.2-0.2,0.5-0.4,0.7-0.3c0,0.1,0,0.4-0.3,0.7c-0.2,0.2-0.5,0.3-0.7,0.3c0,0,0,0.1,0,0.1h0c0,0.1,0,0.4,0,0.7
	c0-0.1,0.1-0.3,0.3-0.4c0.3-0.2,0.5-0.3,0.7-0.3c0,0.2-0.1,0.4-0.3,0.7c-0.2,0.2-0.5,0.3-0.7,0.3c0,0,0,0,0,0c0,0.3,0,0.5-0.1,0.7
	c0,0,0,0,0,0c0.1-0.1,0.2-0.2,0.3-0.4c0.3-0.2,0.6-0.3,0.7-0.3c0,0.2-0.1,0.4-0.4,0.6c-0.3,0.2-0.5,0.3-0.7,0.2c0,0,0,0.1,0,0.1h0
	c0,0,0,0.1,0,0.3c0,0.1,0,0.3-0.1,0.5C39.1,27.4,39.2,27.3,39.4,27.2z"/>
<g>
	<path class="st1" d="M18.4,29.5l-1.5-2.4v0h0.4l1.3,2.1l1.3-2.1h0.4v0l-1.5,2.4V31h-0.3V29.5z"/>
	<path class="st1" d="M21.6,28.9h2.3v0.3h-2.3v1.6h2.5V31h-2.8v-3.9H24v0.3h-2.4V28.9z"/>
	<path class="st1" d="M28.5,31l-0.4-1h-2.4l-0.4,1h-0.3l1.8-3.9H27l1.8,3.9H28.5z M27.9,29.8l-1.1-2.4l-1.1,2.4H27.9z"/>
	<path class="st1" d="M33,31h-0.4l-1.4-1.5h-1.1V31h-0.3v-3.9c0.6,0,1.2,0,1.7,0c0.9,0,1.3,0.6,1.3,1.2c0,0.6-0.4,1.2-1.3,1.2L33,31
		z M30.2,29.2h1.4c0.7,0,1-0.4,1-0.9c0-0.5-0.3-0.9-1-0.9h-1.4V29.2z"/>
</g>
<g>
	<path class="st1" d="M17.1,24.7H18v-4h-0.9v-1h2.1v5.1H20v1h-2.9V24.7z"/>
</g>
<g>
	<path class="st1" d="M21.3,22.2c0-3.6,5.3-3.7,5.3-0.1l0,0.9c0,3.6-5.3,3.7-5.3,0.1L21.3,22.2z M22.4,23.1c0,2.2,3.1,2.2,3,0l0-0.9
		c0-2.2-3.1-2.2-3,0L22.4,23.1z"/>
</g>
<g>
	<path class="st1" d="M27.8,22.2c0-3.6,5.3-3.6,5.3,0V23c0,3.6-5.3,3.6-5.3,0V22.2z M29,23c0,2.2,3,2.2,3,0v-0.9c0-2.2-3-2.2-3,0V23
		z"/>
</g>
<g>
	<path class="st0" d="M17,15.1l-0.3,0.3L16,15l-0.7-0.4l0.4,0.8l0.3,0.8l-0.3,0.3l-2.4-1.2l0.4-0.4l1.6,0.9l-0.8-1.7l0.2-0.2
		l1.7,0.9l-0.8-1.7l0.4-0.4L17,15.1z"/>
	<path class="st0" d="M19.2,13.1l-1.2,0.6l0,0.5l-0.4,0.2l-0.2-2.7l0.5-0.2l2.1,1.7l-0.5,0.2L19.2,13.1z M18,12.1l0.1,1.1l0.8-0.4
		L18,12.1z"/>
	<path class="st0" d="M22.7,12.5l-0.5,0.1L21.2,12l-0.4,0.1l0.2,0.8L20.5,13l-0.6-2.4c0.4-0.1,0.8-0.2,1.1-0.3
		c0.6-0.1,1,0.1,1.1,0.6c0.1,0.3,0,0.7-0.4,0.9L22.7,12.5L22.7,12.5z M20.5,10.9l0.2,0.8l0.7-0.2c0.3-0.1,0.4-0.3,0.3-0.5
		c-0.1-0.2-0.2-0.3-0.5-0.3L20.5,10.9z"/>
	<path class="st0" d="M25.4,12.3l-0.6,0l-0.8-0.8l-0.4,0l0,0.8l-0.5,0l-0.1-2.5c0.4,0,0.8,0,1.2-0.1c0.6,0,0.9,0.3,0.9,0.8
		c0,0.3-0.1,0.7-0.6,0.8L25.4,12.3L25.4,12.3z M23.6,10.3l0,0.8l0.7,0c0.3,0,0.4-0.2,0.4-0.4c0-0.2-0.2-0.4-0.4-0.4L23.6,10.3z"/>
	<path class="st0" d="M27.7,12.1l-1.3-0.2l-0.3,0.4l-0.5-0.1l1.5-2.3l0.5,0.1l0.7,2.6l-0.5-0.1L27.7,12.1z M27.3,10.6l-0.6,1
		l0.9,0.1L27.3,10.6z"/>
	<path class="st0" d="M31.2,11.2l0.4,0.2l-0.9,2.3l-0.3-0.1l0,0l-0.6-2l-0.6,1.5l-0.4-0.2l0.9-2.3l0.4,0.1l0.5,1.9L31.2,11.2z"/>
	<path class="st0" d="M33,12.6l-0.7-0.4l0.2-0.4c0.6,0.4,1.1,0.7,1.7,1.1L34,13.3l-0.7-0.4l-1.1,1.7l-0.4-0.3L33,12.6z"/>
	<path class="st0" d="M35.2,15.2l1.2-0.2l0.4,0.4l0,0L35,15.7l-0.7,0.7L34,16l0.7-0.7l0.4-1.7l0,0l0.4,0.4L35.2,15.2z"/>
</g>
<g>
	<path class="st0" d="M15.9,37.1l-0.3-0.3l0.3-0.8l0.3-0.8l-0.7,0.4l-0.7,0.4l-0.3-0.3l0.9-2.5l0.4,0.3L15,35.5l1.6-1l0.2,0.2
		l-0.7,1.8l1.6-1l0.4,0.3L15.9,37.1z"/>
	<path class="st0" d="M19,38.4l-1.2-0.6l-0.4,0.3L17,37.9l2.1-1.7l0.5,0.2l-0.1,2.7L19,38.9L19,38.4z M19.1,36.8l-0.9,0.7l0.8,0.4
		L19.1,36.8z"/>
	<path class="st0" d="M22.5,39.9l-0.5-0.1l-0.5-1L21,38.7l-0.2,0.8l-0.5-0.1l0.6-2.4c0.4,0.1,0.8,0.2,1.1,0.3c0.6,0.1,0.8,0.6,0.7,1
		c-0.1,0.3-0.3,0.6-0.8,0.6L22.5,39.9L22.5,39.9z M21.3,37.5l-0.2,0.8l0.7,0.2c0.3,0.1,0.5-0.1,0.5-0.3c0-0.2,0-0.4-0.3-0.5
		L21.3,37.5z"/>
	<path class="st0" d="M25.7,40.1l-0.6,0l-0.7-0.9l-0.4,0l0,0.8l-0.5,0l0.1-2.5c0.4,0,0.8,0,1.2,0c0.6,0,0.9,0.4,0.9,0.9
		c0,0.3-0.2,0.7-0.7,0.8L25.7,40.1L25.7,40.1z M24,38l0,0.8l0.7,0c0.3,0,0.4-0.2,0.4-0.4c0-0.2-0.1-0.4-0.4-0.4L24,38z"/>
	<path class="st0" d="M28.2,39.3l-1.3,0.2L26.8,40l-0.5,0.1l0.7-2.6l0.5-0.1l1.5,2.3l-0.5,0.1L28.2,39.3z M27.3,37.9L27,39.1
		l0.9-0.2L27.3,37.9z"/>
	<path class="st0" d="M30.3,36.5l0.4-0.2l0.9,2.3l-0.3,0.1l0,0l-1.8-1.1l0.6,1.5l-0.4,0.2l-0.9-2.3l0.4-0.1l1.7,1L30.3,36.5z"/>
	<path class="st0" d="M32.1,36l-0.7,0.4l-0.2-0.4c0.6-0.4,1.1-0.7,1.7-1.1l0.2,0.4l-0.7,0.4l1.1,1.7l-0.4,0.3L32.1,36z"/>
	<path class="st0" d="M34.8,34.6l-0.3-1.2L35,33l0,0l0.3,1.7l0.7,0.7l-0.3,0.3L35,35l-1.7-0.3l0,0l0.4-0.4L34.8,34.6z"/>
</g>
</svg>
