<?xml version="1.0" encoding="utf-8"?>
<!-- Generator: Adobe Illustrator 19.2.1, SVG Export Plug-In . SVG Version: 6.00 Build 0)  -->
<svg version="1.1" id="Layer_1" xmlns="http://www.w3.org/2000/svg" xmlns:xlink="http://www.w3.org/1999/xlink" x="0px" y="0px"
	 viewBox="0 0 50 50" style="enable-background:new 0 0 50 50;" xml:space="preserve">
<style type="text/css">
	.st0{fill:none;stroke:#000000;stroke-width:0.75;stroke-miterlimit:10;}
</style>
<g id="basement">
	<polygon class="st0" points="28,42.3 34,42.3 34,36.3 28,36.3 28,30.3 22,30.3 22,24.3 16,24.3 16,18.3 10,18.3 10,24.3 	"/>
	<g>
		<line class="st0" x1="10" y1="8.1" x2="39.8" y2="8.1"/>
		<line class="st0" x1="33.5" y1="8.1" x2="33.5" y2="15.5"/>
		<path class="st0" d="M33.5,19c-0.6,0-1.2-0.6-1.2-1.1s0.5-0.8,0.5-1.7c0-0.4,0.3-0.7,0.7-0.7s0.7,0.3,0.7,0.7c0,1,0.5,1.2,0.5,1.7
			C34.6,18.4,34.1,19,33.5,19z"/>
	</g>
</g>
</svg>
