<?xml version="1.0" encoding="utf-8"?>
<!-- Generator: Adobe Illustrator 19.2.1, SVG Export Plug-In . SVG Version: 6.00 Build 0)  -->
<svg version="1.1" id="Layer_1" xmlns="http://www.w3.org/2000/svg" xmlns:xlink="http://www.w3.org/1999/xlink" x="0px" y="0px"
	 viewBox="0 0 50 50" style="enable-background:new 0 0 50 50;" xml:space="preserve">
<style type="text/css">
	.st0{fill:none;stroke:#000000;stroke-width:0.75;stroke-linecap:round;stroke-linejoin:round;stroke-miterlimit:10;}
</style>
<g id="chimney">
	<rect id="XMLID_27_" x="17.8" y="36.3" class="st0" width="5.2" height="2.6"/>
	<rect id="XMLID_32_" x="23.1" y="36.3" class="st0" width="5.2" height="2.6"/>
	<rect id="XMLID_33_" x="28.3" y="36.3" class="st0" width="3.1" height="2.6"/>
	<rect id="XMLID_128_" x="26.2" y="38.9" class="st0" width="5.2" height="2.6"/>
	<rect id="XMLID_35_" x="21" y="38.9" class="st0" width="5.2" height="2.6"/>
	<rect id="XMLID_34_" x="17.8" y="38.9" class="st0" width="3.1" height="2.6"/>
	<rect id="XMLID_139_" x="17.8" y="31" class="st0" width="5.2" height="2.6"/>
	<rect id="XMLID_138_" x="23.1" y="31" class="st0" width="5.2" height="2.6"/>
	<rect id="XMLID_136_" x="28.3" y="31" class="st0" width="3.1" height="2.6"/>
	<rect id="XMLID_132_" x="26.2" y="33.6" class="st0" width="5.2" height="2.6"/>
	<rect id="XMLID_130_" x="21" y="33.6" class="st0" width="5.2" height="2.6"/>
	<rect id="XMLID_129_" x="17.8" y="33.6" class="st0" width="3.1" height="2.6"/>
	<rect id="XMLID_31_" x="16.3" y="26.8" class="st0" width="16.7" height="4.2"/>
	<path id="XMLID_46_" class="st0" d="M31.4,26.8c0.1-0.2,0.2-0.4,0.2-0.5c0.2-0.7,0.4-1.4,0.4-2.1c0-1.9-0.9-3.7-2.2-4.8
		c2.5-0.4,4.3-2.6,4.3-5.1c0-2.9-2.4-5.2-5.2-5.2c-2.6,0-4.8,1.9-5.2,4.5c-0.5-0.2-1-0.3-1.6-0.3c-2.6,0-4.7,2.1-4.7,4.7
		c0,1.8,1,3.3,2.5,4.1c-0.2,0.7-0.4,1.4-0.4,2.1s0.1,1.4,0.4,2.1c0.1,0.2,0.2,0.4,0.2,0.5"/>
	<path id="XMLID_25_" class="st0" d="M32.9,17.4C33.6,18.1,34,19,34,20c0,1.5-0.9,2.8-2.1,3.3"/>
	<path id="XMLID_26_" class="st0" d="M19.6,13.9c-0.1-0.4-0.2-0.8-0.2-1.2c0-1.7,1.4-3.1,3.1-3.1c1,0,1.9,0.5,2.5,1.2"/>
	<path id="XMLID_21_" class="st0" d="M19.5,25.2c-0.2,0.1-0.4,0.1-0.6,0.1c-2,0-3.7-1.6-3.7-3.7c0-1.5,0.8-2.7,2.1-3.3"/>
</g>
</svg>
