<?xml version="1.0" encoding="utf-8"?>
<!-- Generator: Adobe Illustrator 19.2.1, SVG Export Plug-In . SVG Version: 6.00 Build 0)  -->
<svg version="1.1" id="Layer_1" xmlns="http://www.w3.org/2000/svg" xmlns:xlink="http://www.w3.org/1999/xlink" x="0px" y="0px"
	 viewBox="0 0 50 50" style="enable-background:new 0 0 50 50;" xml:space="preserve">
<style type="text/css">
	.st0{fill:none;stroke:#000000;stroke-width:0.75;stroke-linejoin:round;stroke-miterlimit:10;}
	.st1{fill:none;stroke:#000000;stroke-width:0.75;stroke-linecap:round;stroke-miterlimit:10;}
</style>
<path class="st0" d="M17.8,23.6c0,2.2,2.9,3.9,6.6,3.9s6.6-1.8,6.6-3.9H17.8z"/>
<path class="st0" d="M12.6,30.5c0,3.9,5.2,7.1,11.7,7.1S36,34.4,36,30.5H12.6z"/>
<path class="st0" d="M24.3,37.6c-1,0-1.9-0.1-2.8-0.2c0,0.7,0,1.4,0,2.1h5.6c0-0.7,0-1.4,0-2.1C26.2,37.5,25.3,37.6,24.3,37.6z"/>
<path class="st0" d="M20.9,18c0,1.5,1.5,2.6,3.4,2.6s3.4-1.2,3.4-2.6H20.9z"/>
<path class="st1" d="M18.1,12.1c0-1.7,1.4-3.1,3.1-3.1s3.1,1.4,3.1,3.1"/>
<path class="st1" d="M24.3,13.6c0-1.4,1.1-2.6,2.6-2.6s2.6,1.1,2.6,2.6"/>
<path class="st1" d="M19.9,15.7c0-1.2,1-2.2,2.2-2.2s2.2,1,2.2,2.2"/>
<line class="st1" x1="24.3" y1="12.1" x2="24.3" y2="18"/>
<path class="st0" d="M24.4,27.5c-0.8,0-1.6-0.1-2.3-0.2c-0.1,1-0.2,2.1-0.3,3.2h5c-0.1-1.1-0.2-2.2-0.3-3.2
	C25.8,27.4,25.1,27.5,24.4,27.5z"/>
<path class="st0" d="M24.3,20.6c-0.3,0-0.6,0-0.9-0.1c-0.3,0.7-0.6,1.8-0.8,3.1H26c-0.2-1.3-0.5-2.4-0.8-3.1
	C24.9,20.6,24.6,20.6,24.3,20.6z"/>
</svg>
