<?xml version="1.0" encoding="utf-8"?>
<!-- Generator: Adobe Illustrator 19.2.1, SVG Export Plug-In . SVG Version: 6.00 Build 0)  -->
<svg version="1.1" id="Layer_1" xmlns="http://www.w3.org/2000/svg" xmlns:xlink="http://www.w3.org/1999/xlink" x="0px" y="0px"
	 viewBox="0 0 50 50" style="enable-background:new 0 0 50 50;" xml:space="preserve">
<style type="text/css">
	.st0{fill:none;stroke:#000000;stroke-width:0.75;stroke-linejoin:round;stroke-miterlimit:10;}
	.st1{fill:none;stroke:#000000;stroke-width:0.75;stroke-linecap:round;stroke-linejoin:round;stroke-miterlimit:10;}
</style>
<g id="kennel">
	<rect x="6.6" y="16.2" class="st0" width="21.2" height="21.1"/>
	<polygon class="st0" points="27.8,16.2 6.6,16.2 23,12.2 42.4,12.2 	"/>
	<polygon class="st0" points="27.8,37.4 42.4,32.3 42.4,12.2 27.8,16.2 	"/>
	<line class="st0" x1="6.6" y1="21.5" x2="27.8" y2="21.4"/>
	<line class="st0" x1="35.1" y1="14.1" x2="35.1" y2="34.6"/>
	<line class="st0" x1="31.5" y1="15.3" x2="31.5" y2="36"/>
	<line class="st0" x1="22.5" y1="16.5" x2="22.5" y2="37.2"/>
	<line class="st0" x1="17.2" y1="16.5" x2="17.2" y2="37.2"/>
	<line class="st0" x1="11.9" y1="16.5" x2="11.9" y2="37.2"/>
	<line class="st0" x1="38.8" y1="13.2" x2="38.8" y2="33.5"/>
	<polyline class="st1" points="13.1,26.3 15.1,26.3 15.1,31.1 6.6,31.1 	"/>
	<line class="st1" x1="27.8" y1="21.5" x2="42.4" y2="17.2"/>
	<line class="st1" x1="27.8" y1="26.8" x2="42.4" y2="22.2"/>
	<line class="st1" x1="27.8" y1="32" x2="42.4" y2="27.3"/>
</g>
</svg>
