<?xml version="1.0" encoding="utf-8"?>
<!-- Generator: Adobe Illustrator 19.2.1, SVG Export Plug-In . SVG Version: 6.00 Build 0)  -->
<svg version="1.1" id="Layer_1" xmlns="http://www.w3.org/2000/svg" xmlns:xlink="http://www.w3.org/1999/xlink" x="0px" y="0px"
	 viewBox="0 0 50 50" style="enable-background:new 0 0 50 50;" xml:space="preserve">
<style type="text/css">
	.st0{fill:none;stroke:#000000;stroke-width:0.75;stroke-linecap:round;stroke-linejoin:round;stroke-miterlimit:10;}
</style>
<g id="roof">
	<polygon class="st0" points="13,13.4 7.9,34.5 7.9,36.4 12,35.1 16.5,36.6 20.6,35.1 25,36.6 29.1,35.1 33.5,36.6 37.8,35.1 
		41.9,36.6 41.9,34.5 36.8,13.4 	"/>
	<path class="st0" d="M44.5,36.6"/>
	<path class="st0" d="M5.7,36.6"/>
	<polyline class="st0" points="7.9,34.1 12.1,32.8 16.5,34.2 20.6,32.8 25.1,34.2 29.2,32.8 33.6,34.2 37.9,32.8 42,34.2 	"/>
	<polyline class="st0" points="9.7,26.8 13.4,25.5 17.4,26.9 21.1,25.5 25.1,26.9 28.8,25.5 32.7,26.9 36.5,25.5 40.2,26.9 	"/>
	<polyline class="st0" points="11.5,20.1 14.8,18.8 18.2,20.3 21.6,18.8 25,20.3 28.3,18.8 31.8,20.3 35.2,18.8 38.5,20.3 	"/>
	<line class="st0" x1="19.1" y1="13.4" x2="16.5" y2="34.2"/>
	<line class="st0" x1="30.9" y1="13.4" x2="33.5" y2="34.2"/>
	<line class="st0" x1="25" y1="13.4" x2="25" y2="34.2"/>
</g>
</svg>
