<?xml version="1.0" encoding="utf-8"?>
<!-- Generator: Adobe Illustrator 19.2.1, SVG Export Plug-In . SVG Version: 6.00 Build 0)  -->
<svg version="1.1" id="Layer_1" xmlns="http://www.w3.org/2000/svg" xmlns:xlink="http://www.w3.org/1999/xlink" x="0px" y="0px"
	 viewBox="0 0 50 50" style="enable-background:new 0 0 50 50;" xml:space="preserve">
<style type="text/css">
	.st0{fill:none;stroke:#000000;stroke-width:0.75;}
	.st1{fill:none;stroke:#000000;stroke-width:0.75;stroke-linecap:round;}
</style>
<g id="warehouse">
	<g id="Page-1">
		<g id="_x30_43-Forklift" transform="translate(1.000000, 1.000000)">
			<path id="Stroke-1174" class="st0" d="M24.3,35.1c0,2-1.7,3.7-3.7,3.7s-3.7-1.7-3.7-3.7s1.7-3.7,3.7-3.7S24.3,33.1,24.3,35.1
				L24.3,35.1z"/>
			<path id="Stroke-1175" class="st0" d="M42,36.6c0,1.2-1,2.2-2.2,2.2s-2.2-1-2.2-2.2s1-2.2,2.2-2.2C41,34.4,42,35.4,42,36.6
				L42,36.6z"/>
			<path id="Stroke-1176" class="st1" d="M27.2,36.6v-2.9"/>
			<path id="Stroke-1177" class="st1" d="M25,30l2.2,3.7"/>
			<path id="Stroke-1178" class="st1" d="M21.3,28.5L25,30"/>
			<path id="Stroke-1179" class="st1" d="M27.2,36.6h8.1"/>
			<path id="Stroke-1180" class="st1" d="M35.3,36.6c0-2.4,2-4.4,4.4-4.4s4.4,2,4.4,4.4"/>
			<path id="Stroke-1181" class="st1" d="M44.2,36.6h0.7"/>
			<path id="Stroke-1182" class="st1" d="M44.9,30.7v5.9"/>
			<path id="Stroke-1183" class="st1" d="M44.2,30.7h0.7"/>
			<path id="Stroke-1184" class="st1" d="M44.2,28.5v2.2"/>
			<path id="Stroke-1185" class="st1" d="M44.9,27.8l-0.7,0.7"/>
			<path id="Stroke-1186" class="st1" d="M44.9,24.8v2.9"/>
			<path id="Stroke-1187" class="st1" d="M39.7,24.8h5.2"/>
			<path id="Stroke-1188" class="st1" d="M39.7,10.8V30"/>
			<path id="Stroke-1189" class="st1" d="M28,10.8h11.8"/>
			<path id="Stroke-1190" class="st1" d="M19.8,31.4L28,10.8"/>
			<path id="Stroke-1191" class="st1" d="M27.2,35.9h-2.9"/>
			<path id="Stroke-1192" class="st1" d="M21.3,27l-3.7-1.5"/>
			<path id="Stroke-1193" class="st1" d="M17.6,11.5v21.4"/>
			<path id="Stroke-1194" class="st1" d="M14.7,11.5h2.9"/>
			<path id="Stroke-1195" class="st1" d="M14.7,30.7V11.5"/>
			<path id="Stroke-1196" class="st1" d="M14.7,25.5h-2.2"/>
			<path id="Stroke-1197" class="st1" d="M12.5,35.9V25.5"/>
			<path id="Stroke-1198" class="st1" d="M14.7,30.7v5.2"/>
			<path id="Stroke-1199" class="st1" d="M2.2,35.9h14.7"/>
			<path id="Stroke-1200" class="st1" d="M25,30l2.2-5.9"/>
			<path id="Stroke-1201" class="st1" d="M23.5,22.6l3.7,1.5"/>
			<path id="Stroke-1202" class="st1" d="M26.5,23.3l0.7-1.5"/>
			<path id="Stroke-1203" class="st1" d="M25.7,21.1l2.9,1.5"/>
			<path id="Stroke-1204" class="st1" d="M25,30h14.7"/>
			<path id="Stroke-1205" class="st1" d="M29.4,30l1.5-3.7"/>
			<path id="Stroke-1206" class="st1" d="M39.7,26.3h-9.6"/>
			<path id="Stroke-1207" class="st1" d="M37.5,19.6v6.6"/>
			<path id="Stroke-1208" class="st1" d="M34.6,24.1l1.5-4.4"/>
			<path id="Stroke-1209" class="st1" d="M30.2,24.1h4.4"/>
			<path id="Stroke-1210" class="st1" d="M30.2,24.1v2.2"/>
			<path id="Stroke-1211" class="st1" d="M37.5,19.6H36"/>
		</g>
	</g>
</g>
</svg>
