<?xml version="1.0" encoding="utf-8"?>
<!-- Generator: Adobe Illustrator 19.2.1, SVG Export Plug-In . SVG Version: 6.00 Build 0)  -->
<svg version="1.1" id="Layer_1" xmlns="http://www.w3.org/2000/svg" xmlns:xlink="http://www.w3.org/1999/xlink" x="0px" y="0px"
	 viewBox="0 0 58 50" style="enable-background:new 0 0 58 50;" xml:space="preserve">
<style type="text/css">
	.st0{fill:#58595B;}
	.st1{fill:#E6E7E8;}
</style>
<polygon class="st0" points="57.8,25 43.4,0 14.6,0 0.2,25 14.6,50 43.4,50 "/>
<polygon class="st1" points="54.4,25 41.7,3 16.3,3 3.6,25 16.3,47 41.7,47 "/>
<polygon class="st0" points="9.9,11.3 14.2,27.5 49.4,18.1 47.2,9.2 42.7,1.8 15.1,1.9 "/>
<polygon class="st0" points="55.6,25.3 51.9,29.8 47.1,12 54.2,20.8 "/>
<g>
	<path class="st0" d="M18.2,33.8c-1.6,0-3-1.1-3.4-2.6l-1-3.6c-0.2-0.9-0.1-1.8,0.4-2.7c0.5-0.8,1.2-1.4,2.1-1.6L44,15.9
		c0.3-0.1,0.6-0.1,0.9-0.1c1.6,0,3,1.1,3.4,2.6l1,3.6c0.2,0.9,0.1,1.8-0.4,2.7c-0.5,0.8-1.2,1.4-2.1,1.6l-27.7,7.4
		C18.8,33.8,18.5,33.8,18.2,33.8z"/>
	<path class="st1" d="M44.9,16.3c1.3,0,2.5,0.9,2.9,2.2l1,3.6c0.4,1.6-0.5,3.2-2.1,3.7L19,33.2c-0.3,0.1-0.5,0.1-0.8,0.1
		c-1.3,0-2.5-0.9-2.9-2.2l-1-3.6c-0.4-1.6,0.5-3.2,2.1-3.7l27.7-7.4C44.4,16.3,44.7,16.3,44.9,16.3 M44.9,15.3L44.9,15.3
		c-0.3,0-0.7,0-1,0.1l-27.7,7.4c-1,0.3-1.9,0.9-2.4,1.9c-0.5,0.9-0.7,2-0.4,3l1,3.6c0.5,1.7,2.1,3,3.9,3c0.3,0,0.7,0,1-0.1L47,26.8
		c1-0.3,1.9-0.9,2.4-1.9s0.7-2,0.4-3l-1-3.6C48.3,16.5,46.7,15.3,44.9,15.3L44.9,15.3z"/>
</g>
<g>
	<path class="st0" d="M38.3,47.2l-1.4,0.4l-3.7-13.8c-0.2-0.7-0.6-0.6-0.8-0.6l-16.8,4.5c-1.9,0.5-2.9-1-3.2-1.8L11.4,32
		c-0.2-0.9,0-1.5,0.2-1.9c0.6-0.9,1.7-1.2,1.8-1.2l3.9-1.1l0.4,1.4l-4,1.1c-0.2,0-0.7,0.2-0.9,0.6c-0.1,0.2-0.1,0.4,0,0.7l1,3.9
		c0.1,0.2,0.5,1,1.4,0.8L32,31.8c0.8-0.2,2.2,0,2.6,1.6L38.3,47.2z"/>
</g>
<path class="st0" d="M39,43.5l-4.5,1.2c-0.7,0.2-1.4-0.2-1.6-0.9v0c-0.2-0.7,0.2-1.4,0.9-1.6l4.5-1.2c0.7-0.2,1.4,0.2,1.6,0.9l0,0
	C40.1,42.6,39.7,43.3,39,43.5z"/>
<rect x="35.5" y="42.8" transform="matrix(0.9658 -0.2591 0.2591 0.9658 -10.5189 11.1719)" class="st0" width="3.2" height="5.4"/>
</svg>
