<?xml version="1.0" encoding="utf-8"?>
<!-- Generator: Adobe Illustrator 19.2.1, SVG Export Plug-In . SVG Version: 6.00 Build 0)  -->
<svg version="1.1" id="Layer_1" xmlns="http://www.w3.org/2000/svg" xmlns:xlink="http://www.w3.org/1999/xlink" x="0px" y="0px"
	 viewBox="0 0 58 50" style="enable-background:new 0 0 58 50;" xml:space="preserve">
<style type="text/css">
	.st0{fill:#58595B;}
	.st1{fill:#E6E7E8;}
</style>
<polygon class="st0" points="57.8,25 43.4,0 14.6,0 0.2,25 14.6,50 43.4,50 "/>
<polygon class="st1" points="54.4,25 41.7,3 16.3,3 3.6,25 16.3,47 41.7,47 "/>
<path class="st0" d="M53.3,28.3l0-1.6c0-0.3-0.3-0.5-0.7-0.5l-33,5.1c-0.3,0-0.5,0.3-0.5,0.7l1.6,10.1c0,0.3,0.3,0.5,0.7,0.5
	l26.5-4.2L53.3,28.3z"/>
<path class="st1" d="M46.9,37.9l-25.6,4l-1.5-9.9L52.5,27l0.2,1l1.1-1.8c-0.1-0.1-0.2-0.3-0.3-0.4c-0.3-0.2-0.6-0.3-1-0.2l-33,5.1
	c-0.3,0.1-0.6,0.2-0.8,0.5c-0.2,0.3-0.3,0.6-0.2,1L20,42.3c0.1,0.3,0.2,0.6,0.5,0.8c0.2,0.2,0.5,0.2,0.8,0.2c0.1,0,0.1,0,0.2,0
	L46,39.5L46.9,37.9z"/>
<path class="st0" d="M22.5,43.1l-6.4-8c-0.2-0.2-0.2-0.6,0.1-0.8l26-20.9c0.2-0.2,0.6-0.2,0.8,0.1l6.4,8c0.2,0.2,0.2,0.6-0.1,0.8
	l-26,20.9C23.1,43.4,22.7,43.4,22.5,43.1z"/>
<path class="st1" d="M22.9,44c-0.4,0-0.8-0.2-1-0.5h0l-6.4-8c-0.4-0.6-0.4-1.4,0.2-1.8l26-20.9c0.6-0.4,1.4-0.4,1.8,0.2l6.4,8
	c0.2,0.3,0.3,0.6,0.3,0.9c0,0.3-0.2,0.7-0.5,0.9l-26,20.9C23.5,43.9,23.2,44,22.9,44z M23,42.7L23,42.7L23,42.7z M16.7,34.8l6.3,7.8
	l25.8-20.8L42.5,14L16.7,34.8z"/>
<path class="st0" d="M24.6,42.9L15,39.3c-0.3-0.1-0.4-0.5-0.3-0.8l12-31.1c0.1-0.3,0.5-0.4,0.8-0.3l9.5,3.7c0.3,0.1,0.4,0.5,0.3,0.8
	l-12,31.1C25.2,42.9,24.9,43.1,24.6,42.9z"/>
<path class="st1" d="M24.8,43.7c-0.2,0-0.3,0-0.5-0.1l0,0l-9.5-3.7c-0.3-0.1-0.6-0.4-0.7-0.7s-0.1-0.7,0-1l12-31.1
	c0.1-0.3,0.4-0.6,0.7-0.7c0.3-0.1,0.7-0.1,1,0l9.5,3.7c0.3,0.1,0.6,0.4,0.7,0.7s0.1,0.7,0,1L26,42.9C25.8,43.4,25.3,43.7,24.8,43.7z
	 M15.4,38.6l9.3,3.6l11.9-30.9l-9.3-3.6L15.4,38.6z"/>
<path class="st0" d="M26.3,41.8l-10.1,1.6c-0.3,0-0.6-0.2-0.7-0.5l-5.1-33c0-0.3,0.2-0.6,0.5-0.7L21,7.7c0.3,0,0.6,0.2,0.7,0.5
	l5.1,33C26.8,41.4,26.6,41.7,26.3,41.8z"/>
<ellipse transform="matrix(0.9881 -0.154 0.154 0.9881 -5.7491 4.0566)" class="st1" cx="23.3" cy="39.1" rx="1.3" ry="1.3"/>
<path class="st1" d="M21.8,7.2c-0.3-0.2-0.6-0.3-1-0.2l-7.6,1.2l-0.9,1.6L21,8.4l5.1,32.7l-9.9,1.5l-4.8-31.1l-1.1,2L14.8,43
	c0.1,0.3,0.2,0.6,0.5,0.8c0.2,0.2,0.5,0.2,0.8,0.2c0.1,0,0.1,0,0.2,0l10.1-1.6c0.3-0.1,0.6-0.2,0.8-0.5c0.2-0.3,0.3-0.6,0.2-1
	l-5.1-33C22.3,7.7,22.1,7.4,21.8,7.2z"/>
</svg>
