<?xml version="1.0" encoding="utf-8"?>
<!-- Generator: Adobe Illustrator 19.2.1, SVG Export Plug-In . SVG Version: 6.00 Build 0)  -->
<svg version="1.1" id="Layer_1" xmlns="http://www.w3.org/2000/svg" xmlns:xlink="http://www.w3.org/1999/xlink" x="0px" y="0px"
	 viewBox="0 0 58 50" style="enable-background:new 0 0 58 50;" xml:space="preserve">
<style type="text/css">
	.st0{fill:#58595B;}
	.st1{fill:#E6E7E8;}
</style>
<polygon class="st0" points="57.8,25 43.4,0 14.6,0 0.2,25 14.6,50 43.4,50 "/>
<polygon class="st1" points="54.4,25 41.7,3 16.3,3 3.6,25 16.3,47 41.7,47 "/>
<path class="st0" d="M34.6,25c-2.1-4.4-6.1-16.8-6.1-16.8s-4,12.4-6.1,16.8c-2.1,4.5-3.5,10.1-0.9,13.4c2.6,3.3,5.7,3.7,7,3.7
	s4.4-0.4,7-3.7C38.1,35.1,36.7,29.5,34.6,25z"/>
<ellipse transform="matrix(0.244 -0.9698 0.9698 0.244 -10.641 44.4813)" class="st1" cx="23.2" cy="29.1" rx="3" ry="1.1"/>
<polygon class="st0" points="36.5,40.8 36.5,36.9 32.7,36.9 32.7,32.5 36.5,32.5 36.5,28.6 41.2,28.6 41.2,32.5 45,32.5 45,36.9 
	41.2,36.9 41.2,40.8 "/>
<path class="st1" d="M40.4,29.4v3.9h3.9v2.9h-3.9V40h-3.1v-3.9h-3.8v-2.9h3.8v-3.9h3.1 M41.9,27.9h-1.5h-3.1h-1.5v1.5v2.4h-2.3H32
	v1.5v2.9v1.5h1.5h2.3V40v1.5h1.5h3.1h1.5V40v-2.4h2.4h1.5v-1.5v-2.9v-1.5h-1.5h-2.4v-2.4V27.9L41.9,27.9z"/>
<circle class="st1" cx="24.5" cy="24.5" r="0.6"/>
</svg>
