<?xml version="1.0" encoding="utf-8"?>
<!-- Generator: Adobe Illustrator 19.2.1, SVG Export Plug-In . SVG Version: 6.00 Build 0)  -->
<svg version="1.1" id="Layer_1" xmlns="http://www.w3.org/2000/svg" xmlns:xlink="http://www.w3.org/1999/xlink" x="0px" y="0px"
	 viewBox="0 0 58 50" style="enable-background:new 0 0 58 50;" xml:space="preserve">
<style type="text/css">
	.st0{fill:#58595B;}
	.st1{fill:#E6E7E8;}
</style>
<polygon class="st0" points="57.8,25 43.4,0 14.6,0 0.2,25 14.6,50 43.4,50 "/>
<polygon class="st1" points="54.4,25 41.7,3 16.3,3 3.6,25 16.3,47 41.7,47 "/>
<polygon class="st0" points="2.3,24.4 7.8,34.6 45.9,41.8 55.5,24.5 51.6,17 10.5,9.2 "/>
<rect x="38.5" y="16.4" transform="matrix(0.9835 0.1807 -0.1807 0.9835 4.4091 -6.7333)" class="st1" width="1.3" height="8.9"/>
<rect x="28.9" y="14.7" transform="matrix(0.9835 0.1807 -0.1807 0.9835 4.4701 -5.0338)" class="st1" width="1.9" height="14.6"/>
<rect x="20.9" y="13.1" transform="matrix(0.9835 0.1807 -0.1807 0.9835 3.5369 -3.6121)" class="st1" width="1.3" height="8.9"/>
<rect x="12.1" y="11.5" transform="matrix(0.9835 0.1807 -0.1807 0.9835 3.1007 -2.0515)" class="st1" width="1.3" height="8.9"/>
<rect x="47.3" y="18" transform="matrix(0.9835 0.1807 -0.1807 0.9835 4.8451 -8.2939)" class="st1" width="1.3" height="8.9"/>
</svg>
