<?xml version="1.0" encoding="utf-8"?>
<!-- Generator: Adobe Illustrator 19.2.1, SVG Export Plug-In . SVG Version: 6.00 Build 0)  -->
<svg version="1.1" id="Layer_1" xmlns="http://www.w3.org/2000/svg" xmlns:xlink="http://www.w3.org/1999/xlink" x="0px" y="0px"
	 viewBox="0 0 58 50" style="enable-background:new 0 0 58 50;" xml:space="preserve">
<style type="text/css">
	.st0{fill:#58595B;}
	.st1{fill:#E6E7E8;}
</style>
<polygon class="st0" points="57.8,25 43.4,0 14.6,0 0.2,25 14.6,50 43.4,50 "/>
<polygon class="st1" points="54.4,25 41.7,3 16.3,3 3.6,25 16.3,47 41.7,47 "/>
<polygon class="st0" points="41.6,47.8 12,33.3 12,17.5 46.5,8.2 55.9,25.1 "/>
<polygon class="st1" points="50.2,32.2 12.9,18.1 49.8,33 "/>
<polygon class="st1" points="29.1,24.1 31.2,25.7 28.7,24.8 27,27 27.9,24.4 25.7,22.8 28.3,23.7 29.9,21.5 "/>
<polygon class="st1" points="28.7,23.8 33.2,22.8 28.9,24.5 30,29 28.2,24.7 23.7,25.7 28,24 27,19.5 "/>
</svg>
