<?xml version="1.0" encoding="utf-8"?>
<!-- Generator: Adobe Illustrator 19.2.1, SVG Export Plug-In . SVG Version: 6.00 Build 0)  -->
<svg version="1.1" id="Layer_1" xmlns="http://www.w3.org/2000/svg" xmlns:xlink="http://www.w3.org/1999/xlink" x="0px" y="0px"
	 viewBox="0 0 58 50" style="enable-background:new 0 0 58 50;" xml:space="preserve">
<style type="text/css">
	.st0{fill:#58595B;}
	.st1{fill:#E6E7E8;}
</style>
<polygon class="st0" points="57.8,25 43.4,0 14.6,0 0.2,25 14.6,50 43.4,50 "/>
<polygon class="st1" points="54.4,25 41.7,3 16.3,3 3.6,25 16.3,47 41.7,47 "/>
<path class="st0" d="M27,6.8c0,0,4.5,5.2,3.1,10.4c-1.4,5.2-9,8.7-6.6,16.3s6.9,9.4,6.9,9.4s-3.8-4-1.7-10.6S43.5,18.9,27,6.8z"/>
<rect x="26.9" y="2.2" transform="matrix(0.5245 -0.8514 0.8514 0.5245 -7.6876 36.5358)" class="st0" width="4" height="46"/>
</svg>
