<?xml version="1.0" encoding="utf-8"?>
<!-- Generator: Adobe Illustrator 19.2.1, SVG Export Plug-In . SVG Version: 6.00 Build 0)  -->
<svg version="1.1" id="Layer_1" xmlns="http://www.w3.org/2000/svg" xmlns:xlink="http://www.w3.org/1999/xlink" x="0px" y="0px"
	 viewBox="0 0 58 50" style="enable-background:new 0 0 58 50;" xml:space="preserve">
<style type="text/css">
	.st0{fill:#58595B;}
	.st1{fill:#E6E7E8;}
</style>
<polygon class="st0" points="57.8,25 43.4,0 14.5,0 0.1,25 14.5,50 43.4,50 "/>
<polygon class="st1" points="54.3,25 41.6,3 16.2,3 3.5,25 16.2,47 41.6,47 "/>
<g>
	<path class="st0" d="M21,41h-1.5l-3.2-7.9h1.6l2.4,6.1l2.4-6.1h1.6L21,41z"/>
	<path class="st0" d="M32.9,37.1c0,2-1.3,4.1-4,4.1s-4-2-4-4c0-2,1.4-4.1,4-4.1C31.5,33,32.9,35,32.9,37.1z M26.3,37.1
		c0,1.3,0.7,2.6,2.5,2.6s2.5-1.4,2.5-2.6c0-1.4-0.7-2.8-2.5-2.8S26.3,35.9,26.3,37.1z"/>
	<path class="st0" d="M40.8,40c-0.8,0.8-1.8,1.2-3,1.2c-2.9,0-4.1-2-4.2-4c0-2,1.4-4.1,4.2-4.1c1.1,0,2.1,0.4,2.9,1.2l-1,0.9
		c-0.5-0.5-1.2-0.7-1.9-0.7c-1.9,0-2.7,1.4-2.7,2.7c0,1.3,0.7,2.6,2.7,2.6c0.7,0,1.5-0.3,2-0.8L40.8,40z"/>
</g>
<g>
	<path class="st0" d="M17.8,23.6v6.3h3.9v1.4h-5.4v-7.6H17.8z"/>
	<path class="st0" d="M30,27.5c0,2-1.3,3.9-3.9,3.9c-2.7,0-3.9-1.9-3.9-3.9s1.3-4,3.9-4S30,25.5,30,27.5z M23.5,27.5
		c0,1.3,0.7,2.6,2.5,2.6c1.8,0,2.5-1.4,2.5-2.6s-0.7-2.7-2.5-2.7C24.3,24.7,23.5,26.2,23.5,27.5z"/>
	<path class="st0" d="M39,31.2h-1.2l-0.9-2.4l-0.8-2.5l-0.8,2.5l-0.9,2.4h-1.2l-2.8-7.6H32l1.8,5.6l1.8-5.6h0.9l1.9,5.6l1.7-5.6h1.5
		L39,31.2z"/>
</g>
<path class="st0" d="M27.8,7.3c0,0,1.6,1.8,1.1,3.7s-3.2,3.1-2.3,5.8c0.8,2.7,2.4,3.3,2.4,3.3s-1.3-1.4-0.6-3.8S33.7,11.6,27.8,7.3z
	"/>
</svg>
