<?xml version="1.0" encoding="utf-8"?>
<!-- Generator: Adobe Illustrator 19.2.1, SVG Export Plug-In . SVG Version: 6.00 Build 0)  -->
<svg version="1.1" id="Layer_1" xmlns="http://www.w3.org/2000/svg" xmlns:xlink="http://www.w3.org/1999/xlink" x="0px" y="0px"
	 viewBox="0 0 116 100" style="enable-background:new 0 0 116 100;" xml:space="preserve">
<style type="text/css">
	.st0{fill:#58595B;}
	.st1{fill:#E6E7E8;}
	.st2{fill:none;stroke:#E6E7E8;stroke-width:2;stroke-miterlimit:10;}
</style>
<polygon class="st0" points="115.8,50 87,0 29.2,0 0.4,50 29.2,100 87,100 "/>
<polygon class="st1" points="108.9,50 83.5,6 32.7,6 7.3,50 32.7,94 83.5,94 "/>
<path class="st2" d="M27.5,66.5"/>
<g>
	<g>
		<path class="st0" d="M91.3,20.1c0,0-9.5-7.7-33.2-7.7c-23.7,0-33.2,7.7-33.2,7.7c-2.8,54.5,33.2,76.6,33.2,76.6
			S94.1,74.5,91.3,20.1z"/>
		<g>
			<g>
				<g>
					<path class="st1" d="M41.1,53.5l-3.9-6.1v0h0.9l3.4,5.3l3.4-5.3h0.9v0l-4,6.1v4h-0.8V53.5z"/>
				</g>
				<g>
					<path class="st1" d="M49.5,52.1h5.9v0.7h-5.9v4h6.4v0.8h-7.1V47.4h7v0.7h-6.2V52.1z"/>
				</g>
				<g>
					<path class="st1" d="M67.1,57.5L65.9,55h-6l-1.1,2.5H58l4.5-10.1h0.9l4.5,10.1H67.1z M65.6,54.3l-2.7-6.2l-2.7,6.2H65.6z"/>
				</g>
				<g>
					<path class="st1" d="M78.7,57.5h-1l-3.5-3.8h-2.8v3.8h-0.8V47.4c1.5,0,3,0,4.4,0c2.2,0,3.3,1.6,3.3,3.1c0,1.6-1.1,3.1-3.3,3.1
						L78.7,57.5z M71.4,52.9H75c1.8,0,2.5-1,2.6-2.4c0-1.2-0.8-2.4-2.5-2.4h-3.7V52.9z"/>
				</g>
			</g>
			<g>
				<g>
					<path class="st1" d="M38,41.2h2.3V30.8h-2.4v-2.7h5.3v13h2.2v2.5H38V41.2z"/>
				</g>
			</g>
			<g>
				<g>
					<path class="st1" d="M48.6,34.8c-0.1-9.3,13.5-9.4,13.6-0.1l0,2.2c0.1,9.2-13.5,9.4-13.6,0.1L48.6,34.8z M51.5,37.1
						c0.1,5.6,7.9,5.6,7.8-0.1l0-2.2c-0.1-5.5-7.9-5.5-7.8,0.1L51.5,37.1z"/>
				</g>
			</g>
			<g>
				<g>
					<path class="st1" d="M65.4,34.8c0-9.3,13.6-9.2,13.6,0V37c0,9.2-13.6,9.3-13.6,0V34.8z M68.3,37c0,5.6,7.8,5.6,7.8,0v-2.2
						c0-5.5-7.8-5.6-7.8,0V37z"/>
				</g>
			</g>
		</g>
	</g>
	<g>
		<path class="st0" d="M26.6,63.8c0,0-2.3-1-3.7-1.6c-1.4-0.7-2.6-1.5-2.6-1.5l0.2,1.2c0,0,0.3,1.5,0.8,3c0.5,1.5,1.1,3,1.1,3
			c-2.7,0.9-6.9,1.6-6.9,1.6s0.3,0.2,0.7,0.5c0.5,0.3,1.2,0.8,1.9,1.2c1.6,0.9,3.6,1.7,5.6,2.5c3.9,1.4,7.8,2.2,7.8,2.2l0.7-3.9
			L26.6,63.8z"/>
		<path class="st0" d="M84,71.9l0.7,3.9c0,0,3.8-0.8,7.8-2.2c2-0.7,4-1.6,5.6-2.5c0.8-0.4,1.5-0.9,1.9-1.2c0.5-0.3,0.7-0.5,0.7-0.5
			s-4.1-0.7-6.9-1.6c0,0,0.6-1.5,1.1-3c0.5-1.5,0.8-3,0.8-3l0.2-1.2c0,0-1.2,0.8-2.6,1.5c-1.4,0.7-3.7,1.6-3.7,1.6L84,71.9z"/>
		<path class="st1" d="M27,60.7l-0.3,1.1l-2.4,8.2L24,71.1c5.4,2,10.7,3.1,16.1,3.8c12.6,1.6,25.3,1.6,37.9-0.3
			c4.7-0.7,9.5-1.8,14.2-3.5l-0.3-1.1l-2.4-8.2l-0.3-1.1c-3.8,1.4-8.1,2.4-12.5,3.1c-11.6,1.8-23.8,1.8-35.4,0.3
			C36.3,63.3,31.4,62.3,27,60.7z"/>
		<g>
			<path class="st0" d="M33.7,71.2L32.8,71l-0.3-1.9l-0.2-1.9l-1,1.6l-1.1,1.6l-0.9-0.2l-0.8-6l1.2,0.3l0.4,4.3l2.3-3.7l0.7,0.2
				l0.5,4.3l2.2-3.7l1.2,0.3L33.7,71.2z"/>
			<path class="st0" d="M41.7,71.3l-3.1-0.4l-0.6,1l-1.2-0.1l3.3-5.3l1.2,0.1l1.9,6l-1.2-0.1L41.7,71.3z M40.6,67.7L39.2,70l2.2,0.3
				L40.6,67.7z"/>
			<path class="st0" d="M50.5,73l-1.3-0.1l-1.6-2l-1.1-0.1l-0.1,1.9l-1.1-0.1l0.3-5.7c0.9,0.1,1.9,0.1,2.8,0.2c1.4,0.1,2.1,1,2,2
				c0,0.8-0.5,1.5-1.6,1.7L50.5,73L50.5,73z M46.7,68.1l-0.1,1.8l1.7,0.1c0.7,0,1-0.4,1.1-0.8c0-0.5-0.3-0.9-1-1L46.7,68.1z"/>
			<path class="st0" d="M58.1,73.2l-1.3,0L55,71.2l-1.1,0l0,1.9l-1.1,0l0.1-5.7c0.9,0,1.9,0,2.8,0.1c1.4,0,2.1,0.9,2.1,1.9
				c0,0.8-0.4,1.6-1.5,1.8L58.1,73.2L58.1,73.2z M54,68.4l0,1.8l1.7,0c0.7,0,1-0.4,1-0.9c0-0.5-0.3-0.9-1-0.9L54,68.4z"/>
			<path class="st0" d="M64.5,72l-3.1,0.1l-0.5,1.1l-1.2,0l2.5-5.8l1.2,0l2.8,5.6L65,73L64.5,72z M62.9,68.6l-1,2.4L64,71L62.9,68.6
				z"/>
			<path class="st0" d="M71.9,67l1.1-0.1l0.4,5.7l-0.7,0l0,0L69.4,69l0.3,3.8l-1.1,0.1l-0.4-5.7l0.9-0.1l3.1,3.3L71.9,67z"/>
			<path class="st0" d="M77.3,67.3l-1.8,0.3l-0.1-1c1.7-0.2,3.1-0.4,4.8-0.7l0.1,1l-1.8,0.3l0.6,4.7L77.9,72L77.3,67.3z"/>
			<path class="st0" d="M85,67.4l1-2.6l1.3-0.3l0,0l-1.5,3.7l0.6,2.3l-1.1,0.3l-0.6-2.3l-3-2.7l0,0l1.3-0.3L85,67.4z"/>
		</g>
	</g>
</g>
</svg>
