<?xml version="1.0" encoding="utf-8"?>
<!-- Generator: Adobe Illustrator 19.2.1, SVG Export Plug-In . SVG Version: 6.00 Build 0)  -->
<svg version="1.1" id="Layer_1" xmlns="http://www.w3.org/2000/svg" xmlns:xlink="http://www.w3.org/1999/xlink" x="0px" y="0px"
	 viewBox="0 0 116 100" style="enable-background:new 0 0 116 100;" xml:space="preserve">
<style type="text/css">
	.st0{fill:#58595B;}
	.st1{fill:#E6E7E8;}
</style>
<polygon class="st0" points="115.7,50 86.9,0 29.1,0 0.3,50 29.1,100 86.9,100 "/>
<polygon class="st1" points="108.8,50 83.4,6 32.6,6 7.2,50 32.6,94 83.4,94 "/>
<g>
	<polygon class="st0" points="58.1,17.5 61.8,14.1 64.8,18.2 69.2,15.7 71.2,20.3 76.1,18.7 77.1,23.7 82.2,23.2 82.1,28.2 
		87.2,28.8 86.1,33.7 90.9,35.3 88.9,39.9 93.3,42.4 90.3,46.5 94.1,49.9 90.3,53.3 93.3,57.4 88.9,59.9 90.9,64.5 86.1,66.1 
		87.2,71.1 82.1,71.6 82.2,76.6 77.1,76.1 76.1,81.1 71.2,79.5 69.2,84.1 64.8,81.6 61.8,85.7 58.1,82.3 54.3,85.7 51.3,81.6 
		47,84.1 44.9,79.5 40.1,81.1 39,76.1 34,76.6 34,71.6 29,71.1 30,66.1 25.2,64.5 27.3,59.9 22.9,57.4 25.9,53.3 22.1,49.9 
		25.9,46.5 22.9,42.4 27.3,39.9 25.2,35.3 30,33.7 29,28.8 34,28.2 34,23.2 39,23.7 40.1,18.7 44.9,20.3 47,15.7 51.3,18.2 
		54.3,14.1 	"/>
	<path class="st1" d="M58.1,21.1c-15.9,0-28.8,12.9-28.8,28.8c0,15.9,12.9,28.8,28.8,28.8c15.9,0,28.8-12.9,28.8-28.8
		C86.9,34,74,21.1,58.1,21.1z M37.8,62.3c-0.2,0.5-0.5,0.9-0.7,1c0,0,0.1,0.1,0.1,0.1L37,63.5c0,0,0,0-0.1-0.1
		c-0.2,0.2-0.7,0.3-1.3,0.2c-0.6-0.1-1.1-0.5-1.1-0.7c0.2-0.2,0.8-0.3,1.4-0.1c0.3,0.1,0.6,0.2,0.8,0.3c0,0,0,0,0,0
		c-0.2-0.3-0.5-0.7-0.7-1.1c0,0,0,0,0,0c-0.2,0.2-0.7,0.2-1.3,0.1c-0.6-0.2-1-0.6-1.1-0.8c0.2-0.2,0.8-0.2,1.4,0
		c0.3,0.1,0.6,0.2,0.8,0.4c-0.1-0.2-0.3-0.5-0.4-0.7c-0.1-0.2-0.2-0.4-0.2-0.4l0,0c0,0,0-0.1,0-0.1c-0.3,0.1-0.8,0.2-1.3,0
		c-0.6-0.2-0.9-0.6-1-0.9c0.2-0.2,0.8-0.2,1.4,0.1c0.3,0.1,0.6,0.3,0.7,0.5c0,0,0,0,0,0c-0.1-0.3-0.3-0.7-0.5-1.2c0,0,0,0,0-0.1
		c-0.3,0.1-0.8,0.1-1.3-0.1c-0.6-0.3-0.9-0.7-0.9-1c0.3-0.1,0.8-0.1,1.4,0.2c0.4,0.2,0.6,0.4,0.7,0.6c-0.1-0.3-0.2-0.6-0.3-0.8
		c-0.1-0.2-0.1-0.3-0.1-0.4c0-0.1,0-0.2,0-0.2h0c0,0,0,0,0,0c-0.3,0.1-0.8,0.1-1.3-0.2c-0.6-0.3-0.8-0.8-0.8-1
		c0.3-0.1,0.8,0,1.4,0.3c0.3,0.2,0.5,0.4,0.7,0.6c0,0,0,0,0,0c-0.1-0.3-0.2-0.8-0.3-1.2c0,0,0,0,0-0.1c-0.3,0.1-0.8,0-1.3-0.3
		c-0.5-0.3-0.8-0.8-0.8-1.1c0.3-0.1,0.8,0,1.3,0.4c0.3,0.2,0.5,0.5,0.6,0.7c-0.1-0.3-0.1-0.6-0.1-0.8c0-0.3-0.1-0.4-0.1-0.5h0
		c0,0,0-0.1,0-0.1c-0.3,0.1-0.8,0-1.3-0.4c-0.5-0.4-0.7-0.9-0.7-1.2c0.3-0.1,0.8,0.1,1.3,0.5c0.3,0.2,0.5,0.4,0.6,0.6c0,0,0,0,0,0
		c0-0.3-0.1-0.8-0.1-1.3c0,0,0,0,0-0.1c-0.3,0-0.8-0.1-1.2-0.5c-0.4-0.4-0.6-0.9-0.6-1.2c0.3-0.1,0.8,0.1,1.3,0.5
		c0.3,0.3,0.4,0.5,0.5,0.8c0-0.6,0-1.2,0-1.3h0c0,0,0-0.1,0-0.1c-0.3,0-0.8-0.1-1.2-0.5c-0.4-0.4-0.6-1-0.5-1.2
		c0.3,0,0.8,0.2,1.2,0.6c0.3,0.3,0.4,0.5,0.5,0.8c0-0.3,0-0.8,0.1-1.3c0,0,0,0,0-0.1c-0.3,0-0.8-0.2-1.1-0.6c-0.4-0.5-0.5-1-0.4-1.2
		c0.3,0,0.8,0.2,1.2,0.7c0.2,0.3,0.4,0.6,0.4,0.8c0-0.3,0.1-0.6,0.1-0.8c0-0.3,0.1-0.4,0.1-0.5l0,0l0,0c0,0,0-0.1,0-0.1l0,0
		c0,0,0,0,0,0c-0.3,0-0.8-0.2-1.1-0.7c-0.4-0.5-0.4-1-0.3-1.3c0.3,0,0.8,0.3,1.1,0.8c0.2,0.3,0.3,0.6,0.3,0.8c0,0,0,0,0-0.1
		c0.1-0.3,0.2-0.8,0.3-1.2c0,0,0,0,0-0.1c-0.3,0-0.7-0.3-1.1-0.8c-0.3-0.5-0.4-1-0.2-1.3c0.3,0,0.7,0.3,1.1,0.8
		c0.2,0.3,0.3,0.6,0.3,0.8c0.2-0.6,0.3-1.1,0.4-1.3l0,0c0,0,0-0.1,0-0.1c-0.3,0-0.7-0.3-1-0.8c-0.3-0.5-0.3-1.1-0.1-1.3
		c0.3,0,0.7,0.4,1,0.9c0.2,0.3,0.2,0.6,0.2,0.9c0.1-0.3,0.3-0.8,0.4-1.3c0,0,0,0,0-0.1c-0.3-0.1-0.7-0.4-1-0.9
		c-0.3-0.5-0.2-1.1-0.1-1.3c0.3,0.1,0.7,0.4,1,0.9c0.2,0.3,0.2,0.6,0.2,0.9c0.3-0.7,0.5-1.3,0.5-1.3l0,0c-0.2-0.2-0.2-0.7,0.1-1.2
		c0.3-0.5,0.7-0.8,1-0.8c0.1,0.2,0.2,0.7-0.1,1.2c-0.2,0.5-0.6,0.8-0.9,0.8l0,0c0,0-0.2,0.6-0.5,1.2c0.2-0.2,0.4-0.3,0.7-0.5
		c0.6-0.2,1.1-0.2,1.4,0c0,0.2-0.4,0.6-0.9,0.8c-0.5,0.2-1,0.2-1.3,0.1c0,0,0,0,0,0.1c-0.2,0.4-0.3,0.9-0.4,1.2
		c0.2-0.2,0.4-0.4,0.7-0.5c0.6-0.2,1.1-0.2,1.4-0.1c0,0.2-0.3,0.6-0.9,0.9c-0.5,0.2-1,0.3-1.3,0.1c0,0,0,0,0,0l0,0
		c0,0-0.2,0.6-0.4,1.3c0.1-0.2,0.4-0.4,0.7-0.5c0.5-0.3,1.1-0.3,1.4-0.1c0,0.2-0.3,0.6-0.8,0.9c-0.5,0.3-1,0.3-1.3,0.2
		c0,0,0,0,0,0.1c-0.1,0.4-0.2,0.9-0.3,1.2c0,0,0,0,0,0c0.1-0.2,0.3-0.4,0.6-0.6c0.5-0.3,1.1-0.3,1.3-0.2c0,0.2-0.3,0.6-0.8,0.9
		c-0.5,0.3-1,0.4-1.3,0.3c0,0,0,0.1,0,0.1c0,0.1,0,0.2-0.1,0.5c0,0.2-0.1,0.5-0.1,0.7c0.1-0.2,0.3-0.4,0.6-0.6
		c0.5-0.3,1.1-0.4,1.3-0.3c0,0.2-0.2,0.7-0.7,1c-0.5,0.3-1,0.4-1.3,0.4c0,0,0,0,0,0.1c0,0.5-0.1,0.9-0.1,1.3
		c0.1-0.2,0.3-0.4,0.5-0.6c0.5-0.4,1-0.5,1.3-0.4c0,0.2-0.2,0.7-0.6,1c-0.4,0.3-0.9,0.5-1.2,0.4c0,0,0,0,0,0h0c0,0,0,0.6,0,1.3
		c0.1-0.2,0.2-0.5,0.5-0.7c0.4-0.4,1-0.5,1.3-0.5c0,0.2-0.1,0.7-0.6,1.1c-0.4,0.4-0.9,0.5-1.2,0.5c0,0,0,0,0,0.1
		c0,0.5,0.1,0.9,0.1,1.2c0,0,0,0,0,0c0.1-0.2,0.2-0.5,0.4-0.7c0.4-0.4,0.9-0.6,1.2-0.6c0.1,0.2-0.1,0.7-0.5,1.1
		c-0.4,0.4-0.8,0.6-1.1,0.6c0,0,0,0,0,0c0,0,0,0.2,0.1,0.5c0,0.2,0.1,0.5,0.1,0.8c0-0.2,0.1-0.5,0.4-0.8c0.4-0.4,0.9-0.7,1.2-0.6
		c0.1,0.2,0,0.7-0.4,1.1c-0.4,0.4-0.8,0.7-1.1,0.7c0,0,0,0,0,0.1c0.1,0.4,0.2,0.9,0.3,1.2c0,0,0,0,0,0c0-0.2,0.1-0.5,0.3-0.8
		c0.4-0.5,0.8-0.7,1.1-0.7c0.1,0.2,0,0.7-0.3,1.1c-0.3,0.4-0.7,0.7-1,0.8c0,0,0,0,0,0l0,0c0,0,0,0,0,0.1c0,0,0,0,0,0l0,0
		c0,0,0,0,0,0.1c0,0.1,0.1,0.2,0.1,0.4c0.1,0.2,0.2,0.4,0.2,0.7c0-0.2,0.1-0.5,0.2-0.8c0.3-0.5,0.8-0.8,1.1-0.8
		c0.1,0.2,0.1,0.7-0.2,1.2c-0.3,0.5-0.7,0.8-1,0.8c0,0,0,0,0,0.1c0.2,0.4,0.4,0.8,0.5,1.2c0,0,0,0,0,0c0-0.2,0-0.5,0.2-0.8
		c0.3-0.5,0.7-0.8,1-0.9c0.2,0.2,0.2,0.7-0.1,1.2c-0.2,0.5-0.6,0.8-0.9,0.9c0,0,0,0,0,0c0,0,0.1,0.2,0.3,0.5
		c0.1,0.2,0.2,0.4,0.4,0.7c0-0.2,0-0.5,0.1-0.8c0.2-0.5,0.6-0.9,0.9-1c0.2,0.2,0.2,0.7,0,1.2c-0.2,0.5-0.5,0.9-0.8,1c0,0,0,0,0,0
		c0.2,0.4,0.5,0.8,0.7,1.1c0,0,0,0,0,0c0-0.2,0-0.5,0-0.8c0.2-0.5,0.6-0.9,0.8-1C37.9,61.3,38,61.8,37.8,62.3z M58.1,71.5
		c-11.9,0-21.6-9.7-21.6-21.6s9.7-21.6,21.6-21.6S79.6,38,79.6,49.9S70,71.5,58.1,71.5z M83.6,53.9c0.5-0.3,1.1-0.5,1.3-0.4
		c0,0.3-0.2,0.8-0.8,1.1c-0.5,0.3-1,0.4-1.3,0.3c0,0,0,0,0,0.1c-0.1,0.4-0.2,0.9-0.3,1.2c0,0,0,0,0,0c0.1-0.2,0.4-0.4,0.7-0.6
		c0.5-0.3,1.1-0.4,1.4-0.3c0,0.3-0.3,0.8-0.8,1c-0.5,0.3-1,0.3-1.3,0.2c0,0,0,0.1,0,0.1c0,0,0,0,0,0.1c0,0.1-0.1,0.2-0.1,0.4
		c-0.1,0.2-0.2,0.5-0.3,0.8c0.2-0.2,0.4-0.4,0.7-0.6c0.6-0.3,1.1-0.3,1.4-0.2c0,0.3-0.4,0.7-0.9,1c-0.5,0.2-1.1,0.2-1.3,0.1
		c0,0,0,0,0,0.1c-0.2,0.4-0.4,0.9-0.5,1.2c0,0,0,0,0,0c0.2-0.2,0.4-0.3,0.7-0.5c0.6-0.2,1.1-0.2,1.4-0.1c-0.1,0.3-0.4,0.7-1,0.9
		c-0.6,0.2-1.1,0.1-1.3,0c0,0,0,0.1,0,0.1c0,0.1-0.1,0.2-0.2,0.4c-0.1,0.2-0.2,0.4-0.4,0.7c0.2-0.2,0.5-0.3,0.8-0.4
		c0.6-0.2,1.1-0.1,1.4,0c-0.1,0.3-0.5,0.7-1.1,0.8c-0.6,0.2-1.1,0.1-1.3-0.1c0,0,0,0,0,0c-0.2,0.4-0.5,0.8-0.7,1.1c0,0,0,0,0,0
		c0.2-0.1,0.5-0.3,0.8-0.3c0.6-0.1,1.1,0,1.4,0.1c-0.1,0.3-0.5,0.6-1.1,0.7c-0.6,0.1-1.1,0-1.3-0.2c0,0-0.1,0.1-0.1,0.1l-0.1-0.1
		c0,0,0,0,0.1-0.1c-0.3-0.1-0.6-0.5-0.7-1c-0.2-0.6-0.1-1,0.1-1.2c0.3,0.1,0.7,0.5,0.8,1c0.1,0.3,0.1,0.6,0,0.8c0,0,0,0,0,0
		c0.2-0.3,0.5-0.7,0.7-1.1c0,0,0,0,0,0c-0.3-0.1-0.6-0.5-0.8-1c-0.2-0.5-0.2-1,0-1.2c0.3,0.1,0.7,0.4,0.9,1c0.1,0.3,0.1,0.6,0.1,0.8
		c0.1-0.2,0.3-0.5,0.4-0.7c0.1-0.2,0.2-0.4,0.2-0.4c0,0,0,0,0-0.1c-0.3-0.1-0.6-0.4-0.9-0.9c-0.3-0.5-0.3-1-0.1-1.2
		c0.3,0,0.7,0.4,1,0.9c0.2,0.3,0.2,0.6,0.2,0.8c0,0,0,0,0,0c0.1-0.3,0.3-0.7,0.5-1.2c0,0,0,0,0-0.1c-0.3-0.1-0.7-0.4-1-0.8
		c-0.3-0.5-0.3-0.9-0.2-1.2c0.3,0,0.8,0.3,1.1,0.8c0.2,0.3,0.2,0.5,0.2,0.8c0.1-0.3,0.2-0.5,0.2-0.7c0.1-0.2,0.1-0.3,0.1-0.4
		c0-0.1,0-0.1,0-0.1c0,0,0,0,0-0.1c-0.3,0-0.7-0.3-1-0.8c-0.3-0.5-0.4-0.9-0.3-1.1c0.3,0,0.8,0.2,1.1,0.7c0.2,0.3,0.3,0.5,0.3,0.8
		c0,0,0,0,0,0c0.1-0.3,0.2-0.8,0.3-1.2c0,0,0,0,0-0.1c-0.3,0-0.7-0.3-1.1-0.7c-0.4-0.4-0.5-0.9-0.4-1.1c0.3,0,0.8,0.2,1.2,0.6
		c0.2,0.3,0.3,0.5,0.4,0.8c0.1-0.3,0.1-0.6,0.1-0.8c0.1-0.3,0.1-0.5,0.1-0.6c0,0,0,0,0,0c-0.3,0-0.8-0.2-1.1-0.6
		c-0.4-0.4-0.6-0.9-0.5-1.1c0.3,0,0.8,0.1,1.2,0.6c0.2,0.2,0.4,0.5,0.4,0.7c0,0,0,0,0,0c0-0.3,0.1-0.8,0.1-1.2c0,0,0,0,0-0.1
		c-0.3,0-0.8-0.2-1.2-0.5c-0.5-0.4-0.6-0.8-0.6-1.1c0.3-0.1,0.8,0.1,1.3,0.5c0.3,0.2,0.4,0.5,0.5,0.7c0-0.7,0-1.3,0-1.3h0
		c0,0,0,0,0,0c-0.3,0-0.8-0.1-1.2-0.4c-0.5-0.4-0.7-0.8-0.6-1c0.3-0.1,0.8,0,1.3,0.4c0.3,0.2,0.4,0.4,0.5,0.6c0-0.3,0-0.8-0.1-1.3
		c0,0,0,0,0-0.1c-0.3,0.1-0.8,0-1.3-0.4c-0.5-0.3-0.7-0.7-0.7-1c0.3-0.1,0.8,0,1.3,0.3c0.3,0.2,0.5,0.4,0.6,0.6
		c0-0.3-0.1-0.5-0.1-0.7c0-0.2-0.1-0.4-0.1-0.5h0c0,0,0-0.1,0-0.1c-0.3,0.1-0.8,0-1.3-0.3c-0.5-0.3-0.8-0.7-0.8-0.9
		c0.3-0.1,0.8-0.1,1.3,0.2c0.3,0.2,0.5,0.4,0.6,0.6c0,0,0,0,0,0c-0.1-0.3-0.2-0.8-0.3-1.2c0,0,0,0,0-0.1c-0.3,0.1-0.8,0-1.3-0.2
		c-0.5-0.3-0.8-0.7-0.8-0.9c0.3-0.1,0.8-0.1,1.4,0.1c0.3,0.1,0.5,0.3,0.7,0.5c-0.2-0.7-0.4-1.3-0.4-1.3l0,0c0,0,0,0,0,0
		c-0.3,0.1-0.8,0.1-1.3-0.1c-0.6-0.2-0.9-0.6-0.9-0.9c0.3-0.1,0.8-0.2,1.4,0.1c0.3,0.1,0.5,0.3,0.7,0.5c-0.1-0.3-0.3-0.8-0.4-1.2
		c0,0,0,0,0-0.1c-0.3,0.1-0.8,0.1-1.3-0.1c-0.6-0.2-0.9-0.6-0.9-0.8c0.2-0.2,0.8-0.2,1.4,0c0.3,0.1,0.6,0.3,0.7,0.5
		c-0.3-0.7-0.5-1.2-0.5-1.2l0,0c-0.3-0.1-0.7-0.4-0.9-0.8c-0.2-0.5-0.2-1-0.1-1.2c0.3,0,0.7,0.3,1,0.8c0.2,0.5,0.2,1,0.1,1.2l0,0
		c0,0,0.3,0.6,0.5,1.3c0-0.2,0-0.5,0.2-0.9c0.3-0.5,0.7-0.9,1-0.9c0.2,0.2,0.2,0.8-0.1,1.3c-0.3,0.5-0.7,0.8-1,0.9c0,0,0,0,0,0.1
		c0.2,0.5,0.3,0.9,0.4,1.3c0-0.2,0.1-0.5,0.2-0.9c0.3-0.5,0.7-0.8,1-0.9c0.2,0.2,0.2,0.8-0.1,1.3c-0.3,0.5-0.7,0.8-1,0.8
		c0,0,0,0.1,0,0.1l0,0c0,0.1,0.2,0.7,0.4,1.3c0-0.2,0.1-0.5,0.3-0.8c0.3-0.5,0.8-0.8,1.1-0.8c0.1,0.2,0.1,0.8-0.2,1.3
		c-0.3,0.5-0.8,0.7-1.1,0.8c0,0,0,0,0,0.1c0.1,0.4,0.2,0.9,0.3,1.2c0,0,0,0.1,0,0.1c0-0.2,0.1-0.5,0.3-0.8c0.4-0.5,0.8-0.8,1.1-0.8
		c0.1,0.2,0.1,0.8-0.3,1.3c-0.3,0.5-0.8,0.7-1.1,0.7c0,0,0,0,0,0l0,0c0,0,0,0.1,0,0.1l0,0c0,0.1,0,0.2,0.1,0.5
		c0,0.2,0.1,0.5,0.1,0.8c0-0.2,0.2-0.5,0.4-0.8c0.4-0.5,0.9-0.7,1.2-0.7c0.1,0.3,0,0.8-0.4,1.2c-0.4,0.4-0.8,0.6-1.1,0.6
		c0,0,0,0,0,0.1c0.1,0.5,0.1,1,0.1,1.3c0.1-0.2,0.2-0.5,0.5-0.8c0.4-0.4,0.9-0.7,1.2-0.6c0.1,0.3,0,0.8-0.5,1.2
		c-0.4,0.4-0.9,0.6-1.2,0.5c0,0,0,0.1,0,0.1h0c0,0.2,0,0.7,0,1.3c0.1-0.2,0.2-0.5,0.5-0.8c0.5-0.4,1-0.6,1.3-0.5
		c0.1,0.3-0.1,0.8-0.6,1.2c-0.4,0.4-0.9,0.5-1.2,0.5c0,0,0,0,0,0.1c0,0.5-0.1,0.9-0.1,1.3c0,0,0,0,0,0c0.1-0.2,0.3-0.4,0.6-0.6
		c0.5-0.4,1-0.5,1.3-0.5c0,0.3-0.2,0.8-0.7,1.2c-0.5,0.4-1,0.4-1.3,0.4c0,0,0,0.1,0,0.1h0c0,0.1,0,0.2-0.1,0.5
		c0,0.2-0.1,0.5-0.1,0.8C83.1,54.4,83.3,54.1,83.6,53.9z"/>
	<g>
		<path class="st1" d="M46.1,57.9l-2.7-4.2v0H44l2.4,3.7l2.4-3.7h0.6v0l-2.8,4.2v2.8h-0.5V57.9z"/>
		<path class="st1" d="M51.9,57h4.1v0.5h-4.1v2.8h4.5v0.5h-5v-7h4.9v0.5h-4.3V57z"/>
		<path class="st1" d="M64.2,60.8L63.4,59h-4.2l-0.8,1.7h-0.6l3.2-7h0.6l3.2,7H64.2z M63.2,58.5l-1.9-4.3l-1.9,4.3H63.2z"/>
		<path class="st1" d="M72.3,60.8h-0.7l-2.4-2.7h-1.9v2.7h-0.5v-7c1,0,2.1,0,3.1,0c1.5,0,2.3,1.1,2.3,2.2c0,1.1-0.7,2.2-2.3,2.2
			L72.3,60.8z M67.2,57.6h2.5c1.2,0,1.8-0.7,1.8-1.7c0-0.8-0.6-1.7-1.7-1.7h-2.6V57.6z"/>
	</g>
	<g>
		<path class="st1" d="M43.9,49.4h1.6v-7.2h-1.7v-1.9h3.7v9.1h1.5v1.7h-5.1V49.4z"/>
	</g>
	<g>
		<path class="st1" d="M51.3,45c-0.1-6.5,9.4-6.5,9.5-0.1l0,1.6c0.1,6.4-9.4,6.6-9.5,0.1L51.3,45z M53.4,46.5c0,3.9,5.5,3.9,5.4-0.1
			l0-1.6c0-3.9-5.5-3.9-5.4,0.1L53.4,46.5z"/>
	</g>
	<g>
		<path class="st1" d="M63.1,44.9c0-6.5,9.5-6.4,9.5,0v1.6c0,6.4-9.5,6.5-9.5,0V44.9z M65.1,46.5c0,3.9,5.4,3.9,5.4,0v-1.6
			c0-3.9-5.4-3.9-5.4,0V46.5z"/>
	</g>
	<g>
		<path class="st0" d="M43.7,32.3l-0.5,0.5l-1.4-0.6l-1.3-0.7l0.6,1.3l0.5,1.4l-0.5,0.5L37,32.6l0.7-0.6l2.9,1.6l-1.4-3.1l0.4-0.4
			l3,1.6l-1.4-3l0.7-0.6L43.7,32.3z"/>
		<path class="st0" d="M47.7,28.8l-2.1,1.1l0,0.9l-0.8,0.4l-0.3-4.8l0.8-0.4l3.8,3l-0.8,0.4L47.7,28.8z M45.4,27l0.1,2.1l1.5-0.8
			L45.4,27z"/>
		<path class="st0" d="M53.8,27.6l-1,0.3l-1.6-1.1L50.4,27l0.4,1.4L50,28.6l-1.1-4.3c0.7-0.2,1.4-0.4,2-0.5c1-0.3,1.7,0.3,1.9,1
			c0.2,0.6,0,1.3-0.7,1.6L53.8,27.6L53.8,27.6z M49.9,24.9l0.4,1.4l1.2-0.3c0.5-0.1,0.6-0.5,0.6-0.9c-0.1-0.3-0.4-0.6-0.9-0.5
			L49.9,24.9z"/>
		<path class="st0" d="M58.7,27.3l-1,0.1l-1.4-1.4l-0.8,0l0.1,1.5l-0.8,0l-0.2-4.4c0.7,0,1.4-0.1,2.1-0.1c1-0.1,1.6,0.6,1.7,1.4
			c0,0.6-0.2,1.2-1,1.5L58.7,27.3L58.7,27.3z M55.4,23.8l0.1,1.4l1.3-0.1c0.5,0,0.7-0.4,0.7-0.7c0-0.4-0.3-0.7-0.8-0.7L55.4,23.8z"
			/>
		<path class="st0" d="M62.9,27l-2.3-0.4l-0.5,0.8l-0.9-0.1l2.7-4.1l0.9,0.1L64,28l-0.9-0.1L62.9,27z M62.1,24.2L61,25.9l1.6,0.3
			L62.1,24.2z"/>
		<path class="st0" d="M69.1,25.3l0.8,0.3l-1.7,4.1l-0.5-0.2l0,0l-1-3.7l-1.1,2.8l-0.8-0.3l1.7-4.1l0.6,0.3l1,3.4L69.1,25.3z"/>
		<path class="st0" d="M72.3,27.9l-1.2-0.8l0.4-0.6c1.1,0.7,2,1.3,3,2l-0.4,0.6l-1.2-0.8l-2,3.1l-0.7-0.5L72.3,27.9z"/>
		<path class="st0" d="M76.2,32.5l2.1-0.4l0.7,0.7l0,0l-3.1,0.5l-1.3,1.3L74,34l1.3-1.3l0.7-3l0,0l0.7,0.7L76.2,32.5z"/>
	</g>
	<g>
		<path class="st0" d="M41.7,71.6l-0.5-0.5l0.5-1.4l0.5-1.4l-1.3,0.8l-1.3,0.7l-0.5-0.5l1.6-4.4l0.7,0.6l-1.3,3.1l2.9-1.7l0.4,0.4
			l-1.2,3.2l2.8-1.8l0.7,0.6L41.7,71.6z"/>
		<path class="st0" d="M47.3,73.9l-2.1-1l-0.7,0.6l-0.8-0.4l3.7-3.1l0.8,0.4l-0.2,4.9l-0.8-0.4L47.3,73.9z M47.5,71l-1.6,1.3
			l1.5,0.7L47.5,71z"/>
		<path class="st0" d="M53.4,76.7l-1-0.2l-0.9-1.8l-0.8-0.2l-0.4,1.4l-0.8-0.2l1.1-4.3c0.7,0.2,1.4,0.3,2,0.5c1,0.3,1.4,1.1,1.2,1.8
			c-0.1,0.6-0.6,1.1-1.4,1.1L53.4,76.7L53.4,76.7z M51.3,72.4L51,73.8l1.2,0.3c0.5,0.1,0.8-0.2,0.9-0.5c0.1-0.3-0.1-0.7-0.6-0.9
			L51.3,72.4z"/>
		<path class="st0" d="M59.2,77l-1,0l-1.2-1.5l-0.8,0l-0.1,1.5l-0.8,0l0.2-4.4c0.7,0,1.4,0.1,2.1,0.1c1,0,1.6,0.8,1.5,1.5
			c0,0.6-0.3,1.2-1.2,1.4L59.2,77L59.2,77z M56.2,73.3l0,1.4l1.3,0c0.5,0,0.8-0.3,0.8-0.7c0-0.4-0.2-0.7-0.7-0.7L56.2,73.3z"/>
		<path class="st0" d="M63.7,75.6L61.4,76l-0.2,0.9L60.3,77l1.2-4.7l0.9-0.2l2.7,4l-0.9,0.2L63.7,75.6z M62.1,73.1l-0.5,2l1.6-0.3
			L62.1,73.1z"/>
		<path class="st0" d="M67.5,70.5l0.8-0.3l1.7,4.1l-0.5,0.2l0,0l-3.3-1.9l1.1,2.8l-0.8,0.3l-1.7-4.1l0.6-0.3l3,1.7L67.5,70.5z"/>
		<path class="st0" d="M70.7,69.6l-1.2,0.8l-0.4-0.6c1.1-0.7,2-1.3,3-2l0.4,0.6l-1.2,0.8l2,3.1l-0.7,0.5L70.7,69.6z"/>
		<path class="st0" d="M75.5,67.1l-0.5-2.1l0.7-0.7l0,0l0.6,3.1l1.3,1.3l-0.6,0.6l-1.3-1.3l-3-0.6l0,0l0.7-0.7L75.5,67.1z"/>
	</g>
</g>
</svg>
