<?xml version="1.0" encoding="utf-8"?>
<!-- Generator: Adobe Illustrator 22.1.0, SVG Export Plug-In . SVG Version: 6.00 Build 0)  -->
<svg version="1.1" id="Layer_1" xmlns="http://www.w3.org/2000/svg" xmlns:xlink="http://www.w3.org/1999/xlink" x="0px" y="0px"
	 viewBox="0 0 201.7 290.9" style="enable-background:new 0 0 201.7 290.9;" xml:space="preserve">
<style type="text/css">
	.st0{opacity:0.7;}
	.st1{fill:#FFFFFF;}
</style>
<g id="Logo-Shield_2_">
	<g class="st0">
		<path class="st1" d="M198.6,17.4c0,2.3-1.4,4.2-3.9,4.2c-2.5,0-3.9-1.9-3.9-4.2c0-2.3,1.4-4.2,3.9-4.2
			C197.2,13.1,198.6,15.1,198.6,17.4z M194.7,21c2.1,0,3.2-1.6,3.2-3.6c0-2-1.2-3.6-3.2-3.6c-2.1,0-3.2,1.6-3.2,3.6
			C191.5,19.4,192.6,21,194.7,21z M195.4,17.9c1.6-0.2,1.5-2.8-0.3-2.8c-0.6,0-1.3,0-1.9,0v4.4h0.6v-1.6h0.8l1.3,1.6h0.7v-0.1
			L195.4,17.9z M195.1,15.8c1,0,1,1.6,0,1.6h-1.2v-1.6H195.1z"/>
	</g>
	<g>
		<g>
			<path class="st1" d="M39.3,132.7L39.3,132.7c0.5,0,1-0.5,1-0.5l19.6-57.2c2.1-5.5,4.7-9.3,7.8-11.5c3.1-2.2,7.8-3.3,12.9-3.3
				h97.2c0.5,0,1-0.5,1-1.1l1-8.2c2.6-21.4,2.6-35.7,2.6-35.7c0-0.5-0.5-1-1-1.1c-10.9-2.2-22.7-3.3-34.1-3.3
				C83.7,10.6,32.5,42.7,32,43c-0.4,0.2-0.5,0.7-0.5,1.1c-3.1,31.9-1,61.6,6.7,88C38.2,132.1,38.7,132.7,39.3,132.7"/>
			<path class="st1" d="M95.1,143.1c0.5,0,1.6,0,2.6-1.7l6.2-17.6c0.1-0.4,0.1-0.6,0.1-0.6c0-0.6-0.4-1.1-1-1.1h-0.2H90.9
				c1.6-4.4,4.1-7.7,6.7-9.3c3.1-2.2,7.2-3.3,12.4-3.3h27.4l-10.2,31.9c-1.6,5.5-4.8,8.8-8.4,11c-3.1,2.2-7.8,3.3-12.9,3.3h-92
				c-0.5,0-1,0.5-1,1.1c0,0.5,0.5,1.1,1,1.1l38.8,8.8c18.6,35.2,42.9,50,42.9,50l0.5,0.3l0.5-0.3c50.1-29.1,70.3-91.8,79.1-140.2
				c0-0.8-0.3-0.8-0.9-1c0,0-0.2-0.1-0.7-0.1H90.9c-1,0-2.1,0.6-2.6,1.7l-21.7,63.8c0,0-0.4,0.9-0.1,1.5c0.2,0.5,0.6,0.7,1.1,0.7
				H95.1z"/>
		</g>
	</g>
</g>
<g>
	<g>
		<path class="st1" d="M22,279.9h-4.1c-0.4,0-0.6-0.2-0.6-0.6v-37.5c0-0.3,0.3-0.6,0.6-0.6H22c0.4,0,0.6,0.3,0.6,0.6v37.5
			C22.6,279.8,22.4,279.9,22,279.9z"/>
		<path class="st1" d="M38.6,246c-0.6,0.3-1.1,0.6-1.7,1.2c-0.4,0.5-0.8,1.1-1.1,1.8c-0.3,0.6-0.4,1.4-0.4,2.1
			c0,0.8,0.1,1.5,0.6,2.1c0.4,0.6,0.8,1.2,1.4,1.7c0.6,0.5,1.4,1.1,2.4,1.5c1,0.5,2,1.1,3.1,1.5c1.6,0.8,2.8,1.5,4,2.3
			c1.1,0.8,2,1.7,2.8,2.7c0.7,0.9,1.3,2,1.7,3.2s0.6,2.6,0.6,4.1c0,1.5-0.3,3-0.7,4.2c-0.6,1.2-1.3,2.4-2.1,3.3
			c-0.8,0.9-2,1.7-3.3,2.1c-1.3,0.5-2.7,0.8-4.2,0.8h-2.4c-1.4,0-2.5-0.2-3.7-0.5c-1.1-0.3-2-0.8-2.5-1.4c-1.1-0.9-2-1.8-2.5-2.6
			c-0.6-0.8-0.8-1.4-0.8-2c0-0.2,0.1-0.3,0.3-0.5l3.7-2c0.1-0.2,0.3-0.2,0.3-0.2c0.1,0,0.3,0.2,0.6,0.5c0.3,0.5,0.7,0.9,1,1.4
			s0.6,0.8,1,1.1c0.3,0.3,0.7,0.6,1.3,0.8c0.4,0.2,1,0.3,1.7,0.3h2.4c1.4,0,2.7-0.6,3.7-1.7c1-1.1,1.6-2.4,1.6-3.9
			c0-0.9-0.1-1.7-0.4-2.3c-0.3-0.6-0.7-1.2-1.4-1.8c-0.6-0.6-1.3-1.1-2.1-1.5c-0.8-0.5-1.8-1.1-3-1.7c-1.6-0.8-3-1.5-4.1-2.3
			c-1.1-0.8-2.1-1.5-3-2.4c-0.8-0.9-1.4-2-1.8-3c-0.4-1.2-0.6-2.6-0.6-4.1s0.3-3,0.7-4.2c0.6-1.4,1.1-2.4,2.1-3.3
			c0.8-0.9,2-1.7,3.3-2.1c1.3-0.5,2.7-0.8,4.2-0.8h1c1.4,0,2.7,0.2,4,0.6c1.1,0.5,2.1,0.9,3,1.7c0.6,0.6,1.1,1.4,1.7,2.1
			c0.4,0.8,0.7,1.4,0.7,2c0,0.2-0.1,0.3-0.3,0.5l-3.7,2c-0.1,0-0.1,0-0.3,0s-0.3-0.2-0.4-0.3c-0.7-0.9-1.3-1.8-2-2.4
			s-1.6-1.1-2.8-1.1h-1C39.8,245.5,39.3,245.7,38.6,246z"/>
		<path class="st1" d="M80.6,274.3c-0.6,1.4-1.3,2.4-2.1,3.3c-0.8,0.9-2,1.7-3.3,2.1c-1.3,0.5-2.7,0.8-4.2,0.8h-1.8
			c-1.6,0-3-0.3-4.2-0.8c-1.3-0.5-2.4-1.2-3.3-2.1c-0.8-0.9-1.6-2-2.1-3.3c-0.6-1.4-0.7-2.7-0.7-4.2V251c0-1.5,0.3-3,0.7-4.2
			c0.6-1.4,1.1-2.4,2.1-3.3c0.8-0.9,2-1.7,3.3-2.1c1.3-0.5,2.7-0.8,4.2-0.8h1.7c1.6,0,3,0.3,4.2,0.8s2.4,1.2,3.3,2.1
			c0.8,0.9,1.6,2,2.1,3.3c0.6,1.4,0.7,2.7,0.7,4.2v19C81.3,271.6,81.1,273.1,80.6,274.3z M76.1,251c0-1.5-0.6-2.9-1.6-3.9
			c-1-1.1-2.3-1.7-3.7-1.7h-1.7c-1.4,0-2.7,0.6-3.7,1.7c-1,1.1-1.6,2.4-1.6,3.9v19c0,1.5,0.6,2.9,1.6,3.9c1,1.1,2.3,1.7,3.7,1.7h1.7
			c1.4,0,2.7-0.6,3.7-1.7c1-1.1,1.6-2.4,1.6-3.9L76.1,251z"/>
		<path class="st1" d="M99.2,262.7H90c-0.4,0-0.6-0.2-0.6-0.5v-3.6c0-0.3,0.1-0.5,0.6-0.5h9.2c0.4,0,0.6,0.2,0.6,0.5v3.6
			C99.8,262.6,99.6,262.7,99.2,262.7z"/>
		<path class="st1" d="M123.8,246.1h-6.7c-0.4,0-0.6,0.2-0.6,0.6v32.5c0,0.5-0.1,0.6-0.6,0.6h-4.1c-0.4,0-0.6-0.2-0.6-0.6v-32.5
			c0-0.5-0.1-0.6-0.6-0.6h-6.7c-0.4,0-0.6-0.2-0.6-0.6v-3.8c0-0.5,0.1-0.6,0.6-0.6h19.7c0.4,0,0.6,0.3,0.6,0.6v3.6
			C124.4,246,124.3,246.1,123.8,246.1z"/>
		<path class="st1" d="M152.2,279.9h-19.7c-0.4,0-0.6-0.2-0.6-0.6v-37.5c0-0.5,0.1-0.6,0.6-0.6h19.7c0.4,0,0.6,0.3,0.6,0.6v3.6
			c0,0.5-0.1,0.6-0.6,0.6h-14.4c-0.4,0-0.6,0.2-0.6,0.6V257c0,0.5,0.1,0.6,0.6,0.6h11.9c0.4,0,0.6,0.2,0.6,0.6v3.6
			c0,0.5-0.1,0.6-0.6,0.6h-11.9c-0.4,0-0.6,0.2-0.6,0.6v11.3c0,0.5,0.1,0.6,0.6,0.6h14.4c0.4,0,0.6,0.2,0.6,0.6v3.6
			C152.7,279.8,152.6,279.9,152.2,279.9z"/>
		<path class="st1" d="M186.4,279.5c0,0.3-0.1,0.5-0.6,0.5h-5.1l-0.4-0.3L170,261.7c-1.1,1.4-2.4,3.2-4,5.3v12.4
			c0,0.5-0.1,0.6-0.6,0.6h-4.2c-0.4,0-0.6-0.2-0.6-0.6v-37.5c0-0.5,0.1-0.6,0.6-0.6h4.1c0.4,0,0.6,0.2,0.6,0.6v16.1
			c0,0.5,0.1,0.8,0.6,0.8c0.1,0,0.3-0.2,0.6-0.3l12.2-16.9l0.4-0.3h4.8c0.4,0,0.6,0.2,0.6,0.5c0,0.2,0,0.3-0.1,0.5l-11,14.5
			c-0.1,0.2-0.1,0.2-0.1,0.3s0,0.2,0,0.3l12.6,21.7C186.3,279.1,186.4,279.3,186.4,279.5z"/>
	</g>
	<path class="st1" d="M192.2,241.2h-0.6c-0.1,0-0.2,0.1-0.2,0.2v3.1c0,0.1-0.1,0.2-0.2,0.2H191c-0.1,0-0.2-0.1-0.2-0.2v-3.1
		c0-0.1-0.1-0.2-0.2-0.2H190c-0.1,0-0.2-0.1-0.2-0.2v-0.2c0-0.1,0.1-0.2,0.2-0.2h2.3c0.1,0,0.2,0.1,0.2,0.2v0.2
		C192.4,241.1,192.4,241.2,192.2,241.2z M196.8,244.8h-0.2c-0.1,0-0.2-0.1-0.2-0.2V243c0-0.2-0.1-0.2-0.2-0.2s-0.1,0-0.2,0.1
		l-0.5,0.9l-0.2,0.1h-0.1l-0.2-0.1l-0.6-0.9c-0.1-0.1-0.1-0.1-0.2-0.1c-0.1,0-0.2,0.1-0.2,0.2v1.7c0,0.1-0.1,0.2-0.2,0.2h-0.2
		c-0.1,0-0.2-0.1-0.2-0.2v-3.9c0-0.1,0.1-0.2,0.2-0.2h0.2l0.2,0.1l1,1.9c0.1,0.1,0.1,0.1,0.2,0.1s0.1,0,0.2-0.1l1-1.9l0.2-0.1h0.2
		c0.1,0,0.2,0.1,0.2,0.2v3.9C197,244.8,196.9,244.8,196.8,244.8z"/>
</g>
</svg>
