<?xml version="1.0" encoding="utf-8"?>
<!-- Generator: Adobe Illustrator 20.1.0, SVG Export Plug-In . SVG Version: 6.00 Build 0)  -->
<svg version="1.1" id="Layer_1" xmlns="http://www.w3.org/2000/svg" xmlns:xlink="http://www.w3.org/1999/xlink" x="0px" y="0px"
	 viewBox="0 0 295.7 33.1" style="enable-background:new 0 0 295.7 33.1;" xml:space="preserve">
<style type="text/css">
	.st0{fill:#00A668;}
</style>
<g>
	<path class="st0" d="M11.8,7.3c0.8,0.3,1.5,0.6,2.1,1c0.6,0.4,1,0.8,1.4,1.3c0.3,0.5,0.5,0.9,0.5,1.3c0,0.1-0.1,0.2-0.2,0.3
		L13,12.6c-0.1,0-0.1,0-0.2,0c-0.1,0-0.2-0.1-0.3-0.2c-0.5-0.6-0.9-1.1-1.4-1.6c-0.5-0.4-1.1-0.7-2-0.7H7.2c-1,0-1.9,0.3-2.6,1
		c-0.7,0.7-1,1.5-1,2.6v12.4c0,1,0.3,1.9,1,2.6c0.7,0.7,1.5,1,2.6,1h1.2c1,0,1.9-0.3,2.6-1c0.7-0.7,1-1.5,1-2.6v-2.6
		c0-0.3-0.1-0.4-0.4-0.4h-4c-0.3,0-0.4-0.1-0.4-0.4v-2.4c0-0.3,0.1-0.4,0.4-0.4h7.6c0.3,0,0.4,0.1,0.4,0.4v5.8c0,1-0.2,1.9-0.5,2.8
		c-0.3,0.8-0.8,1.6-1.5,2.2c-0.6,0.6-1.4,1.1-2.3,1.4c-0.9,0.3-1.9,0.5-3,0.5H7.2c-1.1,0-2.1-0.2-3-0.5c-0.9-0.3-1.6-0.8-2.3-1.4
		c-0.6-0.6-1.1-1.3-1.5-2.2S0,27.2,0,26.1V13.7c0-1,0.2-1.9,0.5-2.8C0.9,10.1,1.4,9.4,2,8.8c0.6-0.6,1.4-1.1,2.3-1.4
		c0.9-0.3,1.9-0.5,3-0.5h1.9C10.1,6.9,11,7.1,11.8,7.3z"/>
	<path class="st0" d="M33.6,32.5H20c-0.3,0-0.4-0.1-0.4-0.4V7.7c0-0.3,0.1-0.4,0.4-0.4h13.6c0.3,0,0.4,0.1,0.4,0.4v2.4
		c0,0.3-0.1,0.4-0.4,0.4h-10c-0.3,0-0.4,0.1-0.4,0.4v6.8c0,0.3,0.1,0.4,0.4,0.4h8.2c0.3,0,0.4,0.1,0.4,0.4v2.4
		c0,0.3-0.1,0.4-0.4,0.4h-8.2c-0.3,0-0.4,0.1-0.4,0.4v7.2c0,0.3,0.1,0.4,0.4,0.4h10c0.3,0,0.4,0.1,0.4,0.4v2.4
		C34,32.4,33.9,32.5,33.6,32.5z"/>
	<path class="st0" d="M58.1,32.5h-2.8c-0.3,0-0.4-0.1-0.4-0.4l0.4-17.8l-5.7,14.3c-0.1,0.1-0.2,0.2-0.4,0.2h-1.4
		c-0.2,0-0.3-0.1-0.4-0.2l-5.6-14.4l0.4,17.8c0,0.3-0.1,0.4-0.4,0.4h-2.8c-0.3,0-0.4-0.1-0.4-0.4V7.7c0-0.3,0.1-0.4,0.4-0.4h2.8
		c0.2,0,0.3,0.1,0.4,0.2l6.3,15.9h0.1l6.3-15.9l0.4-0.2l2.8,0c0.3,0,0.4,0.1,0.4,0.4v24.4C58.5,32.4,58.4,32.5,58.1,32.5z"/>
	<path class="st0" d="M70,25.3h-6.4c-0.3,0-0.4-0.1-0.4-0.4v-2.8c0-0.3,0.1-0.4,0.4-0.4H70c0.3,0,0.4,0.1,0.4,0.4v2.8
		C70.4,25.2,70.3,25.3,70,25.3z"/>
	<path class="st0" d="M84.5,10.5h-4.6c-0.3,0-0.4,0.1-0.4,0.4v21.2c0,0.3-0.1,0.4-0.4,0.4h-2.8c-0.3,0-0.4-0.1-0.4-0.4V10.9
		c0-0.3-0.1-0.4-0.4-0.4h-4.6c-0.3,0-0.4-0.1-0.4-0.4V7.7c0-0.3,0.1-0.4,0.4-0.4h13.6c0.3,0,0.4,0.1,0.4,0.4v2.4
		C84.9,10.4,84.8,10.5,84.5,10.5z"/>
	<path class="st0" d="M102.6,32.5H89c-0.3,0-0.4-0.1-0.4-0.4V7.7c0-0.3,0.1-0.4,0.4-0.4h13.6c0.3,0,0.4,0.1,0.4,0.4v2.4
		c0,0.3-0.1,0.4-0.4,0.4h-10c-0.3,0-0.4,0.1-0.4,0.4v6.8c0,0.3,0.1,0.4,0.4,0.4h8.2c0.3,0,0.4,0.1,0.4,0.4v2.4
		c0,0.3-0.1,0.4-0.4,0.4h-8.2c-0.3,0-0.4,0.1-0.4,0.4v7.2c0,0.3,0.1,0.4,0.4,0.4h10c0.3,0,0.4,0.1,0.4,0.4v2.4
		C103,32.4,102.9,32.5,102.6,32.5z"/>
	<path class="st0" d="M125.5,32.2c0,0.2-0.1,0.3-0.4,0.3h-3.6l-0.3-0.2L114,20.7c-0.8,0.9-1.7,2.1-2.7,3.4v8c0,0.3-0.1,0.4-0.4,0.4
		h-2.8c-0.3,0-0.4-0.1-0.4-0.4V7.7c0-0.3,0.1-0.4,0.4-0.4h2.8c0.3,0,0.4,0.1,0.4,0.4v10.5c0,0.3,0.1,0.5,0.4,0.5
		c0.1,0,0.2-0.1,0.4-0.2l8.4-11l0.3-0.2h3.3c0.3,0,0.4,0.1,0.4,0.3c0,0.1,0,0.2-0.1,0.3l-7.7,9.5c-0.1,0.1-0.1,0.1-0.1,0.2
		c0,0.1,0,0.1,0,0.2l8.8,14.1C125.5,32,125.5,32.1,125.5,32.2z"/>
	<path class="st0" d="M148.8,31c-1.3,1.3-3,1.9-5.3,1.9h-1.2c-1,0-1.8-0.1-2.6-0.3c-0.7-0.2-1.3-0.5-1.8-0.8
		c-0.8-0.6-1.3-1.2-1.7-1.7c-0.4-0.5-0.6-0.9-0.6-1.3c0-0.1,0.1-0.2,0.2-0.3l2.5-1.3c0.1-0.1,0.2-0.1,0.2-0.1c0.1,0,0.2,0.1,0.4,0.3
		c0.2,0.3,0.5,0.6,0.7,0.9c0.2,0.3,0.4,0.5,0.7,0.7c0.2,0.2,0.5,0.4,0.8,0.5c0.3,0.1,0.7,0.2,1.2,0.2h1.2c1,0,1.8-0.3,2.5-1
		c0.7-0.7,1.1-1.5,1.1-2.6v-1.4c0-1-0.4-1.9-1.1-2.6c-0.7-0.7-1.6-1-2.5-1h-6.4c-0.3,0-0.4-0.1-0.4-0.4v-13c0-0.3,0.1-0.4,0.4-0.4
		h12.8c0.3,0,0.4,0.1,0.4,0.4v2.4c0,0.3-0.1,0.4-0.4,0.4h-9.2c-0.3,0-0.4,0.1-0.4,0.4v6.6c0,0.3,0.1,0.4,0.4,0.4h2.8
		c2.2,0,4,0.6,5.3,1.9s1.9,3,1.9,5.2v0.8C150.7,28,150,29.7,148.8,31z"/>
	<path class="st0" d="M167.4,32.5H155c-0.3,0-0.4-0.1-0.4-0.4v-2.4c0-0.3,0.1-0.4,0.4-0.4h4c0.3,0,0.4-0.1,0.4-0.4V14.5
		c0-0.3-0.1-0.4-0.4-0.4c-0.1,0-0.2,0.1-0.3,0.2l-1.9,2c-0.1,0.1-0.2,0.2-0.3,0.2s-0.2-0.1-0.3-0.2l-1.8-1.7
		c-0.1-0.1-0.2-0.2-0.2-0.3c0-0.1,0.1-0.2,0.2-0.3l6.4-6.4l0.3-0.1h1.4c0.3,0,0.4,0.1,0.4,0.4v21.2c0,0.3,0.1,0.4,0.4,0.4h4
		c0.3,0,0.4,0.1,0.4,0.4v2.4C167.8,32.4,167.7,32.5,167.4,32.5z"/>
	<path class="st0" d="M185.9,28.9c-0.3,0.8-0.8,1.6-1.5,2.2c-0.6,0.6-1.4,1.1-2.3,1.4c-0.9,0.3-1.9,0.5-3,0.5H178
		c-1.1,0-2.1-0.2-3-0.5c-0.9-0.3-1.6-0.8-2.3-1.4c-0.6-0.6-1.1-1.3-1.5-2.2s-0.5-1.8-0.5-2.8V13.7c0-1,0.2-1.9,0.5-2.8
		c0.3-0.8,0.8-1.6,1.5-2.2c0.6-0.6,1.4-1.1,2.3-1.4c0.9-0.3,1.9-0.5,3-0.5h1.2c1.1,0,2.1,0.2,3,0.5c0.9,0.3,1.6,0.8,2.3,1.4
		c0.6,0.6,1.1,1.3,1.5,2.2c0.3,0.8,0.5,1.8,0.5,2.8v12.4C186.4,27.2,186.3,28.1,185.9,28.9z M182.8,13.7c0-1-0.3-1.9-1-2.6
		c-0.7-0.7-1.5-1-2.6-1H178c-1,0-1.9,0.3-2.6,1c-0.7,0.7-1,1.5-1,2.6v12.4c0,1,0.3,1.9,1,2.6c0.7,0.7,1.5,1,2.6,1h1.2
		c1,0,1.9-0.3,2.6-1c0.7-0.7,1-1.5,1-2.6V13.7z"/>
	<path class="st0" d="M202.8,31c-1.3,1.3-3,1.9-5.3,1.9h-1.2c-1,0-1.8-0.1-2.6-0.3c-0.7-0.2-1.3-0.5-1.8-0.8
		c-0.8-0.6-1.3-1.2-1.7-1.7c-0.4-0.5-0.6-0.9-0.6-1.3c0-0.1,0.1-0.2,0.2-0.3l2.5-1.3c0.1-0.1,0.2-0.1,0.2-0.1c0.1,0,0.2,0.1,0.4,0.3
		c0.2,0.3,0.5,0.6,0.7,0.9c0.2,0.3,0.4,0.5,0.7,0.7c0.2,0.2,0.5,0.4,0.8,0.5c0.3,0.1,0.7,0.2,1.2,0.2h1.2c1,0,1.8-0.3,2.5-1
		c0.7-0.7,1.1-1.5,1.1-2.6v-1.4c0-1-0.4-1.9-1.1-2.6c-0.7-0.7-1.6-1-2.5-1h-6.4c-0.3,0-0.4-0.1-0.4-0.4v-13c0-0.3,0.1-0.4,0.4-0.4
		h12.8c0.3,0,0.4,0.1,0.4,0.4v2.4c0,0.3-0.1,0.4-0.4,0.4h-9.2c-0.3,0-0.4,0.1-0.4,0.4v6.6c0,0.3,0.1,0.4,0.4,0.4h2.8
		c2.2,0,4,0.6,5.3,1.9s1.9,3,1.9,5.2v0.8C204.7,28,204,29.7,202.8,31z"/>
</g>
</svg>
