<?xml version="1.0" encoding="utf-8"?>
<!-- Generator: Adobe Illustrator 20.1.0, SVG Export Plug-In . SVG Version: 6.00 Build 0)  -->
<svg version="1.1" id="Layer_1" xmlns="http://www.w3.org/2000/svg" xmlns:xlink="http://www.w3.org/1999/xlink" x="0px" y="0px"
	 viewBox="0 0 312.2 33.1" style="enable-background:new 0 0 312.2 33.1;" xml:space="preserve">
<style type="text/css">
	.st0{fill:#DF1E37;}
</style>
<path class="st0" d="M14.8,32.6H0.4c-0.3,0-0.4-0.1-0.4-0.4V6.5C0,6.2,0.1,6,0.4,6h3c0.3,0,0.4,0.1,0.4,0.4v22.4
	c0,0.3,0.1,0.4,0.4,0.4h10.6c0.3,0,0.4,0.1,0.4,0.4v2.5C15.2,32.5,15.1,32.6,14.8,32.6z"/>
<path class="st0" d="M21.8,32.6h-3c-0.3,0-0.4-0.1-0.4-0.4V6.5c0-0.3,0.1-0.4,0.4-0.4h3c0.3,0,0.4,0.1,0.4,0.4v25.8
	C22.2,32.5,22.1,32.6,21.8,32.6z"/>
<path class="st0" d="M40.4,9.4h-4.9c-0.3,0-0.4,0.1-0.4,0.4v22.4c0,0.3-0.1,0.4-0.4,0.4h-3c-0.3,0-0.4-0.1-0.4-0.4V9.8
	c0-0.3-0.1-0.4-0.4-0.4H26c-0.3,0-0.4-0.1-0.4-0.4V6.5C25.6,6.2,25.8,6,26,6h14.4c0.3,0,0.4,0.1,0.4,0.4V9
	C40.8,9.3,40.7,9.4,40.4,9.4z"/>
<path class="st0" d="M61.4,32.6h-3c-0.3,0-0.4-0.1-0.4-0.4v-11c0-0.3-0.1-0.4-0.4-0.4h-8.7c-0.3,0-0.4,0.1-0.4,0.4v11
	c0,0.3-0.1,0.4-0.4,0.4h-3c-0.3,0-0.4-0.1-0.4-0.4V6.5c0-0.3,0.1-0.4,0.4-0.4h3c0.3,0,0.4,0.1,0.4,0.4V17c0,0.3,0.1,0.4,0.4,0.4h8.7
	c0.3,0,0.4-0.1,0.4-0.4V6.5C58,6.2,58.1,6,58.4,6h3c0.3,0,0.4,0.1,0.4,0.4v25.8C61.8,32.5,61.7,32.6,61.4,32.6z"/>
<path class="st0" d="M70.1,32.6h-3c-0.3,0-0.4-0.1-0.4-0.4V6.5c0-0.3,0.1-0.4,0.4-0.4h3c0.3,0,0.4,0.1,0.4,0.4v25.8
	C70.5,32.5,70.4,32.6,70.1,32.6z"/>
<path class="st0" d="M82,25h-6.8c-0.3,0-0.4-0.1-0.4-0.4v-3c0-0.3,0.1-0.4,0.4-0.4H82c0.3,0,0.4,0.1,0.4,0.4v3
	C82.4,24.9,82.3,25,82,25z"/>
<path class="st0" d="M97.2,9.4h-4.9c-0.3,0-0.4,0.1-0.4,0.4v22.4c0,0.3-0.1,0.4-0.4,0.4h-3c-0.3,0-0.4-0.1-0.4-0.4V9.8
	c0-0.3-0.1-0.4-0.4-0.4h-4.9c-0.3,0-0.4-0.1-0.4-0.4V6.5c0-0.3,0.1-0.4,0.4-0.4h14.4c0.3,0,0.4,0.1,0.4,0.4V9
	C97.6,9.3,97.5,9.4,97.2,9.4z"/>
<path class="st0" d="M116.3,32.6h-14.4c-0.3,0-0.4-0.1-0.4-0.4V6.5c0-0.3,0.1-0.4,0.4-0.4h14.4c0.3,0,0.4,0.1,0.4,0.4V9
	c0,0.3-0.1,0.4-0.4,0.4h-10.6c-0.3,0-0.4,0.1-0.4,0.4V17c0,0.3,0.1,0.4,0.4,0.4h8.7c0.3,0,0.4,0.1,0.4,0.4v2.5
	c0,0.3-0.1,0.4-0.4,0.4h-8.7c-0.3,0-0.4,0.1-0.4,0.4v7.6c0,0.3,0.1,0.4,0.4,0.4h10.6c0.3,0,0.4,0.1,0.4,0.4v2.5
	C116.7,32.5,116.6,32.6,116.3,32.6z"/>
<path class="st0" d="M140.4,32.3c0,0.2-0.1,0.3-0.4,0.3h-3.8l-0.3-0.2l-7.6-12.3c-0.8,1-1.8,2.2-2.9,3.6v8.4c0,0.3-0.1,0.4-0.4,0.4
	h-3c-0.3,0-0.4-0.1-0.4-0.4V6.5c0-0.3,0.1-0.4,0.4-0.4h3c0.3,0,0.4,0.1,0.4,0.4v11.1c0,0.3,0.1,0.5,0.4,0.5c0.1,0,0.2-0.1,0.4-0.3
	l8.9-11.6l0.3-0.2h3.5c0.3,0,0.5,0.1,0.5,0.3c0,0.1,0,0.2-0.1,0.3l-8.1,10c-0.1,0.1-0.1,0.1-0.1,0.3c0,0.1,0,0.2,0,0.2l9.2,14.9
	C140.4,32.1,140.4,32.2,140.4,32.3z"/>
<path class="st0" d="M167.8,26.5h-3c-0.3,0-0.4,0.1-0.4,0.4v5.3c0,0.3-0.1,0.4-0.4,0.4h-3c-0.3,0-0.4-0.1-0.4-0.4v-5.3
	c0-0.3-0.1-0.4-0.4-0.4h-10.6c-0.3,0-0.4-0.1-0.4-0.3v-0.1l0-3l11.2-16.9l0.3-0.2h3.2c0.3,0,0.4,0.1,0.4,0.4v16.3
	c0,0.3,0.1,0.4,0.4,0.4h3c0.3,0,0.4,0.1,0.4,0.4v2.5C168.2,26.4,168.1,26.5,167.8,26.5z M160.6,13.1c0-0.3-0.1-0.5-0.4-0.5
	c-0.2,0-0.3,0.1-0.4,0.2l-6.4,9.6c-0.1,0.1-0.1,0.3-0.1,0.3c0,0.2,0.2,0.3,0.5,0.3h6.4c0.3,0,0.4-0.1,0.4-0.4V13.1z"/>
<path class="st0" d="M184.4,31c-1.4,1.4-3.2,2-5.6,2h-1.3c-1,0-1.9-0.1-2.7-0.3c-0.8-0.2-1.4-0.5-1.9-0.9c-0.8-0.6-1.4-1.2-1.8-1.8
	c-0.4-0.5-0.6-1-0.6-1.3c0-0.1,0.1-0.2,0.3-0.3l2.7-1.4c0.1-0.1,0.2-0.1,0.2-0.1c0.1,0,0.2,0.1,0.4,0.3c0.3,0.3,0.5,0.6,0.7,0.9
	c0.2,0.3,0.4,0.5,0.7,0.8c0.3,0.2,0.5,0.4,0.9,0.5c0.3,0.1,0.7,0.2,1.2,0.2h1.3c1,0,1.9-0.4,2.7-1.1c0.7-0.7,1.1-1.6,1.1-2.7v-1.5
	c0-1.1-0.4-2-1.1-2.7c-0.7-0.7-1.6-1.1-2.7-1.1h-6.8c-0.3,0-0.4-0.1-0.4-0.4V6.5c0-0.3,0.1-0.4,0.4-0.4h13.5c0.3,0,0.4,0.1,0.4,0.4
	V9c0,0.3-0.1,0.4-0.4,0.4h-9.7c-0.3,0-0.4,0.1-0.4,0.4v7c0,0.3,0.1,0.4,0.4,0.4h3c2.4,0,4.2,0.7,5.6,2c1.4,1.4,2,3.2,2,5.5v0.8
	C186.4,27.9,185.7,29.7,184.4,31z"/>
<path class="st0" d="M206,28.8c-0.4,0.9-0.9,1.6-1.5,2.3c-0.7,0.6-1.5,1.1-2.4,1.5c-0.9,0.3-2,0.5-3.1,0.5h-1.3
	c-1.2,0-2.2-0.2-3.1-0.5c-0.9-0.3-1.7-0.8-2.4-1.5c-0.7-0.6-1.2-1.4-1.5-2.3c-0.4-0.9-0.5-1.9-0.5-2.9V12.8c0-1.1,0.2-2,0.5-2.9
	c0.4-0.9,0.9-1.6,1.5-2.3c0.7-0.6,1.5-1.1,2.4-1.5c0.9-0.3,2-0.5,3.1-0.5h1.3c1.2,0,2.2,0.2,3.1,0.5c0.9,0.3,1.7,0.8,2.4,1.5
	c0.7,0.6,1.2,1.4,1.5,2.3c0.4,0.9,0.5,1.9,0.5,2.9v13.1C206.6,27,206.4,27.9,206,28.8z M202.8,12.8c0-1.1-0.4-2-1.1-2.7
	C200.9,9.4,200,9,199,9h-1.3c-1.1,0-2,0.4-2.7,1.1c-0.7,0.7-1.1,1.6-1.1,2.7v13.1c0,1.1,0.4,2,1.1,2.7c0.7,0.7,1.6,1.1,2.7,1.1h1.3
	c1.1,0,2-0.4,2.7-1.1c0.7-0.7,1.1-1.6,1.1-2.7V12.8z"/>
<path class="st0" d="M226.2,28.8c-0.4,0.9-0.9,1.6-1.5,2.3c-0.7,0.6-1.5,1.1-2.4,1.5c-0.9,0.3-2,0.5-3.1,0.5h-1.3
	c-1.2,0-2.2-0.2-3.1-0.5c-0.9-0.3-1.7-0.8-2.4-1.5c-0.7-0.6-1.2-1.4-1.5-2.3c-0.4-0.9-0.5-1.9-0.5-2.9V12.8c0-1.1,0.2-2,0.5-2.9
	c0.4-0.9,0.9-1.6,1.5-2.3c0.7-0.6,1.5-1.1,2.4-1.5c0.9-0.3,2-0.5,3.1-0.5h1.3c1.2,0,2.2,0.2,3.1,0.5c0.9,0.3,1.7,0.8,2.4,1.5
	c0.7,0.6,1.2,1.4,1.5,2.3c0.4,0.9,0.5,1.9,0.5,2.9v13.1C226.8,27,226.6,27.9,226.2,28.8z M223,12.8c0-1.1-0.4-2-1.1-2.7
	c-0.7-0.7-1.6-1.1-2.7-1.1h-1.3c-1.1,0-2,0.4-2.7,1.1c-0.7,0.7-1.1,1.6-1.1,2.7v13.1c0,1.1,0.4,2,1.1,2.7c0.7,0.7,1.6,1.1,2.7,1.1
	h1.3c1.1,0,2-0.4,2.7-1.1c0.7-0.7,1.1-1.6,1.1-2.7V12.8z"/>
</svg>
