<?xml version="1.0" encoding="utf-8"?>
<!-- Generator: Adobe Illustrator 20.1.0, SVG Export Plug-In . SVG Version: 6.00 Build 0)  -->
<svg version="1.1" id="Layer_1" xmlns="http://www.w3.org/2000/svg" xmlns:xlink="http://www.w3.org/1999/xlink" x="0px" y="0px"
	 viewBox="0 0 355.7 33.1" style="enable-background:new 0 0 355.7 33.1;" xml:space="preserve">
<style type="text/css">
	.st0{fill:#E93629;}
</style>
<g>
	<path class="st0" d="M6.4,10.1c-0.4,0.2-0.8,0.4-1.2,0.8c-0.3,0.3-0.6,0.7-0.8,1.2c-0.2,0.4-0.3,0.9-0.3,1.4c0,0.5,0.1,1,0.4,1.4
		c0.2,0.4,0.6,0.8,1,1.1c0.4,0.3,1,0.7,1.7,1c0.7,0.3,1.4,0.7,2.2,1c1.1,0.5,2,1,2.8,1.5c0.8,0.5,1.4,1.1,2,1.8
		c0.5,0.6,0.9,1.3,1.2,2.1c0.3,0.8,0.4,1.7,0.4,2.7c0,1-0.2,2-0.5,2.8c-0.4,0.8-0.8,1.6-1.5,2.2c-0.6,0.6-1.4,1.1-2.3,1.4
		c-0.9,0.3-1.9,0.5-3,0.5H6.8c-1,0-1.8-0.1-2.6-0.3c-0.8-0.2-1.4-0.5-1.8-0.9c-0.8-0.6-1.4-1.2-1.7-1.7c-0.4-0.5-0.6-1-0.6-1.3
		c0-0.1,0.1-0.2,0.2-0.3l2.6-1.3C2.9,27.2,3,27.1,3,27.1c0.1,0,0.2,0.1,0.4,0.3c0.2,0.3,0.5,0.6,0.7,0.9c0.2,0.3,0.4,0.5,0.7,0.7
		c0.2,0.2,0.5,0.4,0.9,0.5c0.3,0.1,0.7,0.2,1.2,0.2h1.7c1,0,1.9-0.4,2.6-1.1c0.7-0.7,1.1-1.6,1.1-2.6c0-0.6-0.1-1.1-0.3-1.5
		c-0.2-0.4-0.5-0.8-1-1.2c-0.4-0.4-0.9-0.7-1.5-1C8.7,22,8,21.7,7.2,21.3c-1.1-0.5-2-1-2.9-1.5c-0.8-0.5-1.5-1-2.1-1.6
		c-0.6-0.6-1-1.3-1.3-2c-0.3-0.8-0.4-1.7-0.4-2.7c0-1,0.2-2,0.5-2.8c0.4-0.9,0.8-1.6,1.5-2.2c0.6-0.6,1.4-1.1,2.3-1.4
		c0.9-0.3,1.9-0.5,3-0.5h0.7c1,0,1.9,0.1,2.7,0.4c0.8,0.3,1.5,0.6,2.1,1.1c0.6,0.4,1.1,0.9,1.4,1.3c0.3,0.5,0.5,0.9,0.5,1.3
		c0,0.1-0.1,0.2-0.2,0.3l-2.6,1.3c-0.1,0-0.1,0-0.2,0c-0.1,0-0.2-0.1-0.3-0.2c-0.5-0.6-0.9-1.2-1.4-1.6C10,10,9.3,9.8,8.5,9.8H7.8
		C7.3,9.8,6.9,9.9,6.4,10.1z"/>
	<path class="st0" d="M22.4,32.6h-2.8c-0.3,0-0.4-0.1-0.4-0.4V7.4c0-0.3,0.1-0.4,0.4-0.4h2.8c0.3,0,0.4,0.1,0.4,0.4v24.8
		C22.8,32.5,22.6,32.6,22.4,32.6z"/>
	<path class="st0" d="M41.7,32.6H27.9c-0.3,0-0.4-0.1-0.4-0.4V7.4c0-0.3,0.1-0.4,0.4-0.4h2.8c0.3,0,0.4,0.1,0.4,0.4v21.6
		c0,0.3,0.1,0.4,0.4,0.4h10.2c0.3,0,0.4,0.1,0.4,0.4v2.4C42.1,32.5,42,32.6,41.7,32.6z"/>
	<path class="st0" d="M59.7,28.9c-0.4,0.9-0.8,1.6-1.5,2.2c-0.6,0.6-1.4,1.1-2.3,1.4C55,32.8,54,33,52.9,33h-1.2
		c-1.1,0-2.1-0.2-3-0.5c-0.9-0.3-1.7-0.8-2.3-1.4c-0.6-0.6-1.1-1.3-1.5-2.2c-0.4-0.9-0.5-1.8-0.5-2.8V13.5c0-1,0.2-2,0.5-2.8
		c0.4-0.9,0.8-1.6,1.5-2.2c0.6-0.6,1.4-1.1,2.3-1.4c0.9-0.3,1.9-0.5,3-0.5h1.2c1.1,0,2.1,0.2,3,0.5c0.9,0.3,1.7,0.8,2.3,1.4
		c0.6,0.6,1.1,1.3,1.5,2.2c0.4,0.9,0.5,1.8,0.5,2.8v12.6C60.2,27.1,60,28.1,59.7,28.9z M56.5,13.5c0-1-0.4-1.9-1.1-2.6
		c-0.7-0.7-1.6-1.1-2.6-1.1h-1.2c-1,0-1.9,0.4-2.6,1.1c-0.7,0.7-1.1,1.6-1.1,2.6v12.6c0,1,0.4,1.9,1.1,2.6c0.7,0.7,1.6,1.1,2.6,1.1
		h1.2c1,0,1.9-0.4,2.6-1.1c0.7-0.7,1.1-1.6,1.1-2.6V13.5z"/>
	<path class="st0" d="M79.8,32.3c0,0.2-0.1,0.3-0.4,0.3h-3.5c-0.2,0-0.3-0.1-0.4-0.2l-4-8.6c-0.1-0.2-0.2-0.3-0.4-0.3
		c-0.2,0-0.3,0.1-0.4,0.3l-4.2,8.6l-0.4,0.2h-3.5c-0.3,0-0.4-0.1-0.4-0.3c0,0,0-0.1,0.1-0.3l6.1-12v-0.4l-6.1-12
		c-0.1-0.2-0.1-0.3-0.1-0.3c0-0.2,0.1-0.3,0.4-0.3h3.5l0.4,0.2l4.2,8.7c0.1,0.2,0.2,0.3,0.4,0.3c0.2,0,0.3-0.1,0.4-0.3l4-8.7
		C75.6,7.1,75.7,7,75.8,7h3.5c0.3,0,0.4,0.1,0.4,0.3c0,0.1,0,0.1-0.1,0.2l-6.1,12v0.4L79.7,32C79.8,32.1,79.8,32.2,79.8,32.3z"/>
	<path class="st0" d="M99.5,32.2C99.5,32.2,99.5,32.2,99.5,32.2c0,0.3-0.1,0.4-0.4,0.4h-3c-0.2,0-0.4-0.1-0.4-0.3l-1.5-5.4
		c0-0.2-0.2-0.2-0.4-0.2h-6.6c-0.2,0-0.4,0.1-0.4,0.2l-1.5,5.4c0,0.2-0.2,0.3-0.4,0.3h-3c-0.3,0-0.4-0.1-0.4-0.4c0,0,0,0,0-0.1
		c0,0,0,0,0-0.1l7.6-24.8C89,7.1,89.1,7,89.3,7h2.2c0.2,0,0.3,0.1,0.4,0.3l7.6,24.8C99.5,32.1,99.5,32.2,99.5,32.2z M91,15.3
		c-0.1-0.2-0.1-0.5-0.2-0.8c-0.1-0.3-0.2-0.6-0.3-1h-0.2l-0.5,1.8l-2,7.6c0,0.1,0,0.1,0,0.1c0,0,0,0,0,0.1c0,0.2,0.1,0.4,0.4,0.4
		h4.3c0.3,0,0.4-0.1,0.4-0.4c0,0,0-0.1,0-0.1c0,0,0-0.1,0-0.1L91,15.3z"/>
	<path class="st0" d="M107.8,25.3h-6.5c-0.3,0-0.4-0.1-0.4-0.4V22c0-0.3,0.1-0.4,0.4-0.4h6.5c0.3,0,0.4,0.1,0.4,0.4v2.8
		C108.2,25.1,108.1,25.3,107.8,25.3z"/>
	<path class="st0" d="M122.5,10.2h-4.7c-0.3,0-0.4,0.1-0.4,0.4v21.6c0,0.3-0.1,0.4-0.4,0.4h-2.8c-0.3,0-0.4-0.1-0.4-0.4V10.6
		c0-0.3-0.1-0.4-0.4-0.4h-4.7c-0.3,0-0.4-0.1-0.4-0.4V7.4c0-0.3,0.1-0.4,0.4-0.4h13.8c0.3,0,0.4,0.1,0.4,0.4v2.4
		C122.9,10.1,122.8,10.2,122.5,10.2z"/>
	<path class="st0" d="M140.9,32.6h-13.8c-0.3,0-0.4-0.1-0.4-0.4V7.4c0-0.3,0.1-0.4,0.4-0.4h13.8c0.3,0,0.4,0.1,0.4,0.4v2.4
		c0,0.3-0.1,0.4-0.4,0.4h-10.2c-0.3,0-0.4,0.1-0.4,0.4v6.9c0,0.3,0.1,0.4,0.4,0.4h8.3c0.3,0,0.4,0.1,0.4,0.4v2.4
		c0,0.3-0.1,0.4-0.4,0.4h-8.3c-0.3,0-0.4,0.1-0.4,0.4v7.3c0,0.3,0.1,0.4,0.4,0.4h10.2c0.3,0,0.4,0.1,0.4,0.4v2.4
		C141.3,32.5,141.2,32.6,140.9,32.6z"/>
	<path class="st0" d="M163.4,32.3c0,0.2-0.1,0.3-0.4,0.3h-3.6l-0.3-0.2l-7.3-11.8c-0.8,0.9-1.7,2.1-2.8,3.5v8.1
		c0,0.3-0.1,0.4-0.4,0.4h-2.8c-0.3,0-0.4-0.1-0.4-0.4V7.4c0-0.3,0.1-0.4,0.4-0.4h2.8c0.3,0,0.4,0.1,0.4,0.4v10.7
		c0,0.3,0.1,0.5,0.4,0.5c0.1,0,0.2-0.1,0.4-0.2l8.5-11.2l0.3-0.2h3.4c0.3,0,0.4,0.1,0.4,0.3c0,0.1,0,0.2-0.1,0.3l-7.8,9.6
		c-0.1,0.1-0.1,0.1-0.1,0.2c0,0.1,0,0.1,0,0.2l8.9,14.3C163.4,32.1,163.4,32.2,163.4,32.3z"/>
	<path class="st0" d="M187,31c-1.3,1.3-3.1,2-5.4,2h-1.2c-2.3,0-4.1-0.7-5.4-2s-2-3.1-2-5.3v-1c0-0.5,0.1-1,0.3-1.6
		c0.2-0.6,0.5-1.2,0.9-1.8c0.4-0.5,0.7-0.9,1-1.2s0.5-0.4,0.5-0.6c0-0.2-0.2-0.4-0.5-0.6c-0.3-0.2-0.7-0.6-1-1
		c-0.8-1.2-1.3-2.3-1.3-3.3v-0.8c0-2.3,0.7-4,2-5.3c1.3-1.3,3.1-2,5.3-2h1.2c2.3,0,4,0.7,5.3,2c1.3,1.3,2,3.1,2,5.3v0.8
		c0,1-0.4,2.1-1.3,3.3c-0.3,0.5-0.7,0.8-1,1c-0.3,0.2-0.5,0.4-0.5,0.6c0,0.1,0.2,0.3,0.5,0.6c0.3,0.2,0.7,0.6,1,1.2
		c0.8,1.2,1.3,2.4,1.3,3.4v1C189,28,188.3,29.7,187,31z M185.3,13.5c0-1-0.4-1.9-1.1-2.6c-0.7-0.7-1.6-1.1-2.6-1.1h-1.2
		c-1,0-1.9,0.4-2.6,1.1c-0.7,0.7-1.1,1.6-1.1,2.6v0.8c0,1,0.4,1.9,1.1,2.6c0.7,0.7,1.6,1.1,2.6,1.1h1.2c1,0,1.9-0.4,2.6-1.1
		c0.7-0.7,1.1-1.6,1.1-2.6V13.5z M185.3,24.9c0-1-0.4-1.9-1.1-2.6c-0.7-0.7-1.6-1.1-2.6-1.1h-1.2c-1,0-1.9,0.4-2.6,1.1
		c-0.7,0.7-1.1,1.6-1.1,2.6v1.2c0,1,0.4,1.9,1.1,2.6c0.7,0.7,1.6,1.1,2.6,1.1h1.2c1,0,1.9-0.4,2.6-1.1c0.7-0.7,1.1-1.6,1.1-2.6V24.9
		z"/>
	<path class="st0" d="M205.3,31c-1.3,1.3-3.1,2-5.4,2h-1.2c-1,0-1.8-0.1-2.6-0.3c-0.8-0.2-1.4-0.5-1.8-0.9c-0.8-0.6-1.4-1.2-1.7-1.7
		c-0.4-0.5-0.6-1-0.6-1.3c0-0.1,0.1-0.2,0.2-0.3l2.6-1.3c0.1-0.1,0.2-0.1,0.2-0.1c0.1,0,0.2,0.1,0.4,0.3c0.2,0.3,0.5,0.6,0.7,0.9
		c0.2,0.3,0.4,0.5,0.7,0.7c0.2,0.2,0.5,0.4,0.9,0.5c0.3,0.1,0.7,0.2,1.2,0.2h1.2c1,0,1.9-0.4,2.6-1.1c0.7-0.7,1.1-1.6,1.1-2.6v-1.4
		c0-1-0.4-1.9-1.1-2.6c-0.7-0.7-1.6-1.1-2.6-1.1h-6.5c-0.3,0-0.4-0.1-0.4-0.4V7.4c0-0.3,0.1-0.4,0.4-0.4h13c0.3,0,0.4,0.1,0.4,0.4
		v2.4c0,0.3-0.1,0.4-0.4,0.4h-9.4c-0.3,0-0.4,0.1-0.4,0.4v6.7c0,0.3,0.1,0.4,0.4,0.4h2.8c2.3,0,4.1,0.7,5.4,2c1.3,1.3,2,3.1,2,5.3
		v0.8C207.3,28,206.6,29.7,205.3,31z"/>
	<path class="st0" d="M226.3,28.9c-0.4,0.9-0.8,1.6-1.5,2.2c-0.6,0.6-1.4,1.1-2.3,1.4c-0.9,0.3-1.9,0.5-3,0.5h-1.2
		c-1.1,0-2.1-0.2-3-0.5c-0.9-0.3-1.7-0.8-2.3-1.4c-0.6-0.6-1.1-1.3-1.5-2.2c-0.4-0.9-0.5-1.8-0.5-2.8V13.5c0-1,0.2-2,0.5-2.8
		c0.4-0.9,0.8-1.6,1.5-2.2c0.6-0.6,1.4-1.1,2.3-1.4c0.9-0.3,1.9-0.5,3-0.5h1.2c1.1,0,2.1,0.2,3,0.5c0.9,0.3,1.7,0.8,2.3,1.4
		c0.6,0.6,1.1,1.3,1.5,2.2c0.4,0.9,0.5,1.8,0.5,2.8v12.6C226.8,27.1,226.6,28.1,226.3,28.9z M223.1,13.5c0-1-0.4-1.9-1.1-2.6
		c-0.7-0.7-1.6-1.1-2.6-1.1h-1.2c-1,0-1.9,0.4-2.6,1.1c-0.7,0.7-1.1,1.6-1.1,2.6v12.6c0,1,0.4,1.9,1.1,2.6c0.7,0.7,1.6,1.1,2.6,1.1
		h1.2c1,0,1.9-0.4,2.6-1.1c0.7-0.7,1.1-1.6,1.1-2.6V13.5z"/>
	<path class="st0" d="M245.7,28.9c-0.4,0.9-0.8,1.6-1.5,2.2c-0.6,0.6-1.4,1.1-2.3,1.4c-0.9,0.3-1.9,0.5-3,0.5h-1.2
		c-1.1,0-2.1-0.2-3-0.5c-0.9-0.3-1.7-0.8-2.3-1.4c-0.6-0.6-1.1-1.3-1.5-2.2c-0.4-0.9-0.5-1.8-0.5-2.8V13.5c0-1,0.2-2,0.5-2.8
		c0.4-0.9,0.8-1.6,1.5-2.2c0.6-0.6,1.4-1.1,2.3-1.4c0.9-0.3,1.9-0.5,3-0.5h1.2c1.1,0,2.1,0.2,3,0.5c0.9,0.3,1.7,0.8,2.3,1.4
		c0.6,0.6,1.1,1.3,1.5,2.2c0.4,0.9,0.5,1.8,0.5,2.8v12.6C246.2,27.1,246.1,28.1,245.7,28.9z M242.6,13.5c0-1-0.4-1.9-1.1-2.6
		c-0.7-0.7-1.6-1.1-2.6-1.1h-1.2c-1,0-1.9,0.4-2.6,1.1c-0.7,0.7-1.1,1.6-1.1,2.6v12.6c0,1,0.4,1.9,1.1,2.6c0.7,0.7,1.6,1.1,2.6,1.1
		h1.2c1,0,1.9-0.4,2.6-1.1c0.7-0.7,1.1-1.6,1.1-2.6V13.5z"/>
</g>
</svg>
