<?xml version="1.0" encoding="utf-8"?>
<!-- Generator: Adobe Illustrator 20.1.0, SVG Export Plug-In . SVG Version: 6.00 Build 0)  -->
<svg version="1.1" id="Layer_1" xmlns="http://www.w3.org/2000/svg" xmlns:xlink="http://www.w3.org/1999/xlink" x="0px" y="0px"
	 viewBox="0 0 355.7 33.1" style="enable-background:new 0 0 355.7 33.1;" xml:space="preserve">
<style type="text/css">
	.st0{fill:#E93629;}
</style>
<g>
	<path class="st0" d="M6.4,10.1c-0.4,0.2-0.8,0.4-1.2,0.8c-0.3,0.3-0.6,0.7-0.8,1.2c-0.2,0.4-0.3,0.9-0.3,1.4c0,0.5,0.1,1,0.4,1.4
		c0.2,0.4,0.6,0.8,1,1.1c0.4,0.3,1,0.7,1.7,1c0.7,0.3,1.4,0.7,2.2,1c1.1,0.5,2,1,2.8,1.5c0.8,0.5,1.4,1.1,2,1.8
		c0.5,0.6,0.9,1.3,1.2,2.1c0.3,0.8,0.4,1.7,0.4,2.7c0,1-0.2,2-0.5,2.8c-0.4,0.8-0.8,1.6-1.5,2.2c-0.6,0.6-1.4,1.1-2.3,1.4
		c-0.9,0.3-1.9,0.5-3,0.5H6.7c-1,0-1.8-0.1-2.6-0.3c-0.8-0.2-1.4-0.5-1.8-0.9c-0.8-0.6-1.4-1.2-1.7-1.7c-0.4-0.5-0.6-1-0.6-1.3
		c0-0.1,0.1-0.2,0.2-0.3l2.6-1.3C2.9,27.1,3,27.1,3,27.1c0.1,0,0.2,0.1,0.4,0.3C3.6,27.7,3.8,28,4,28.3c0.2,0.3,0.4,0.5,0.7,0.7
		c0.2,0.2,0.5,0.4,0.9,0.5c0.3,0.1,0.7,0.2,1.2,0.2h1.7c1,0,1.9-0.4,2.6-1.1c0.7-0.7,1.1-1.6,1.1-2.6c0-0.6-0.1-1.1-0.3-1.5
		c-0.2-0.4-0.5-0.8-1-1.2c-0.4-0.4-0.9-0.7-1.5-1C8.7,22,8,21.6,7.2,21.3c-1.1-0.5-2-1-2.9-1.5c-0.8-0.5-1.5-1-2.1-1.6
		c-0.6-0.6-1-1.3-1.3-2c-0.3-0.8-0.4-1.6-0.4-2.7c0-1,0.2-2,0.5-2.8c0.4-0.9,0.8-1.6,1.5-2.2c0.6-0.6,1.4-1.1,2.3-1.4
		c0.9-0.3,1.9-0.5,3-0.5h0.6c1,0,1.9,0.1,2.7,0.4C12,7.3,12.7,7.6,13.3,8c0.6,0.4,1.1,0.9,1.4,1.3c0.3,0.5,0.5,0.9,0.5,1.3
		c0,0.1-0.1,0.2-0.2,0.3l-2.6,1.3c-0.1,0-0.1,0-0.2,0c-0.1,0-0.2-0.1-0.3-0.2c-0.5-0.6-0.9-1.2-1.4-1.6C10,10,9.3,9.8,8.4,9.8H7.8
		C7.3,9.8,6.8,9.9,6.4,10.1z"/>
	<path class="st0" d="M22.3,32.5h-2.8c-0.3,0-0.4-0.1-0.4-0.4V7.4c0-0.3,0.1-0.4,0.4-0.4h2.8c0.3,0,0.4,0.1,0.4,0.4v24.7
		C22.7,32.4,22.6,32.5,22.3,32.5z"/>
	<path class="st0" d="M41.6,32.5H27.8c-0.3,0-0.4-0.1-0.4-0.4V7.4c0-0.3,0.1-0.4,0.4-0.4h2.8c0.3,0,0.4,0.1,0.4,0.4v21.5
		c0,0.3,0.1,0.4,0.4,0.4h10.1c0.3,0,0.4,0.1,0.4,0.4v2.4C42,32.4,41.9,32.5,41.6,32.5z"/>
	<path class="st0" d="M59.5,28.9c-0.4,0.9-0.8,1.6-1.5,2.2c-0.6,0.6-1.4,1.1-2.3,1.4c-0.9,0.3-1.9,0.5-3,0.5h-1.2
		c-1.1,0-2.1-0.2-3-0.5c-0.9-0.3-1.7-0.8-2.3-1.4c-0.6-0.6-1.1-1.3-1.5-2.2c-0.4-0.9-0.5-1.8-0.5-2.8V13.5c0-1,0.2-2,0.5-2.8
		c0.4-0.9,0.8-1.6,1.5-2.2c0.6-0.6,1.4-1.1,2.3-1.4c0.9-0.3,1.9-0.5,3-0.5h1.2c1.1,0,2.1,0.2,3,0.5c0.9,0.3,1.7,0.8,2.3,1.4
		c0.6,0.6,1.1,1.3,1.5,2.2c0.4,0.9,0.5,1.8,0.5,2.8V26C60,27.1,59.9,28,59.5,28.9z M56.4,13.5c0-1-0.4-1.9-1.1-2.6
		c-0.7-0.7-1.6-1.1-2.6-1.1h-1.2c-1,0-1.9,0.4-2.6,1.1c-0.7,0.7-1.1,1.6-1.1,2.6V26c0,1,0.4,1.9,1.1,2.6c0.7,0.7,1.6,1.1,2.6,1.1
		h1.2c1,0,1.9-0.4,2.6-1.1c0.7-0.7,1.1-1.6,1.1-2.6V13.5z"/>
	<path class="st0" d="M79.6,32.2c0,0.2-0.1,0.3-0.4,0.3h-3.5c-0.2,0-0.3-0.1-0.4-0.2l-4-8.6c-0.1-0.2-0.2-0.3-0.4-0.3
		c-0.2,0-0.3,0.1-0.4,0.3l-4.2,8.6L66,32.5h-3.5c-0.3,0-0.4-0.1-0.4-0.3c0,0,0-0.1,0.1-0.3l6.1-12v-0.4l-6.1-12
		c-0.1-0.2-0.1-0.3-0.1-0.3c0-0.2,0.1-0.3,0.4-0.3H66l0.4,0.2l4.2,8.7c0.1,0.2,0.2,0.3,0.4,0.3c0.2,0,0.3-0.1,0.4-0.3l4-8.7
		C75.4,7.1,75.5,7,75.6,7h3.5c0.3,0,0.4,0.1,0.4,0.3c0,0.1,0,0.1-0.1,0.2l-6,12v0.4l6,12C79.6,32.1,79.6,32.2,79.6,32.2z"/>
	<path class="st0" d="M99.3,32.1C99.3,32.1,99.3,32.1,99.3,32.1c0,0.3-0.1,0.4-0.4,0.4h-3c-0.2,0-0.4-0.1-0.4-0.3l-1.5-5.4
		c0-0.2-0.2-0.2-0.4-0.2h-6.6c-0.2,0-0.4,0.1-0.4,0.2L85,32.2c0,0.2-0.2,0.3-0.4,0.3h-3c-0.3,0-0.4-0.1-0.4-0.4c0,0,0,0,0-0.1
		c0,0,0,0,0-0.1l7.5-24.7c0-0.2,0.2-0.3,0.4-0.3h2.2c0.2,0,0.3,0.1,0.4,0.3L99.3,32C99.3,32.1,99.3,32.1,99.3,32.1z M90.8,15.2
		c-0.1-0.2-0.1-0.5-0.2-0.8c-0.1-0.3-0.2-0.6-0.3-1h-0.2l-0.5,1.8l-2,7.6c0,0.1,0,0.1,0,0.1c0,0,0,0,0,0.1c0,0.2,0.1,0.4,0.4,0.4
		h4.3c0.3,0,0.4-0.1,0.4-0.4c0,0,0-0.1,0-0.1c0,0,0-0.1,0-0.1L90.8,15.2z"/>
	<path class="st0" d="M107.6,25.2h-6.5c-0.3,0-0.4-0.1-0.4-0.4V22c0-0.3,0.1-0.4,0.4-0.4h6.5c0.3,0,0.4,0.1,0.4,0.4v2.8
		C108,25.1,107.8,25.2,107.6,25.2z"/>
	<path class="st0" d="M122.2,10.2h-4.7c-0.3,0-0.4,0.1-0.4,0.4v21.5c0,0.3-0.1,0.4-0.4,0.4h-2.8c-0.3,0-0.4-0.1-0.4-0.4V10.6
		c0-0.3-0.1-0.4-0.4-0.4h-4.7c-0.3,0-0.4-0.1-0.4-0.4V7.4c0-0.3,0.1-0.4,0.4-0.4h13.8c0.3,0,0.4,0.1,0.4,0.4v2.4
		C122.6,10.1,122.5,10.2,122.2,10.2z"/>
	<path class="st0" d="M140.5,32.5h-13.8c-0.3,0-0.4-0.1-0.4-0.4V7.4c0-0.3,0.1-0.4,0.4-0.4h13.8c0.3,0,0.4,0.1,0.4,0.4v2.4
		c0,0.3-0.1,0.4-0.4,0.4h-10.1c-0.3,0-0.4,0.1-0.4,0.4v6.9c0,0.3,0.1,0.4,0.4,0.4h8.3c0.3,0,0.4,0.1,0.4,0.4v2.4
		c0,0.3-0.1,0.4-0.4,0.4h-8.3c-0.3,0-0.4,0.1-0.4,0.4v7.3c0,0.3,0.1,0.4,0.4,0.4h10.1c0.3,0,0.4,0.1,0.4,0.4v2.4
		C140.9,32.4,140.8,32.5,140.5,32.5z"/>
	<path class="st0" d="M163,32.2c0,0.2-0.1,0.3-0.4,0.3H159l-0.3-0.2l-7.3-11.8c-0.8,0.9-1.7,2.1-2.8,3.5v8.1c0,0.3-0.1,0.4-0.4,0.4
		h-2.8c-0.3,0-0.4-0.1-0.4-0.4V7.4c0-0.3,0.1-0.4,0.4-0.4h2.8c0.3,0,0.4,0.1,0.4,0.4V18c0,0.3,0.1,0.5,0.4,0.5
		c0.1,0,0.2-0.1,0.4-0.2l8.5-11.2l0.3-0.2h3.4c0.3,0,0.4,0.1,0.4,0.3c0,0.1,0,0.2-0.1,0.3l-7.8,9.6c-0.1,0.1-0.1,0.1-0.1,0.2
		c0,0.1,0,0.1,0,0.2l8.9,14.3C163,32,163,32.1,163,32.2z"/>
	<path class="st0" d="M186.5,31c-1.3,1.3-3.1,1.9-5.4,1.9H180c-2.3,0-4.1-0.6-5.4-1.9c-1.3-1.3-1.9-3.1-1.9-5.3v-1
		c0-0.5,0.1-1,0.3-1.6c0.2-0.6,0.5-1.2,0.9-1.8c0.4-0.5,0.7-0.9,1-1.2c0.3-0.2,0.5-0.4,0.5-0.6c0-0.2-0.2-0.4-0.5-0.6
		c-0.3-0.2-0.7-0.6-1-1c-0.8-1.2-1.3-2.3-1.3-3.3v-0.8c0-2.2,0.7-4,2-5.3c1.3-1.3,3.1-2,5.3-2h1.2c2.2,0,4,0.7,5.3,2
		c1.3,1.3,2,3.1,2,5.3v0.8c0,1-0.4,2.1-1.3,3.3c-0.3,0.5-0.7,0.8-1,1c-0.3,0.2-0.5,0.4-0.5,0.6c0,0.1,0.2,0.3,0.5,0.6
		c0.3,0.2,0.7,0.6,1,1.2c0.8,1.2,1.3,2.4,1.3,3.4v1C188.5,27.9,187.8,29.7,186.5,31z M184.8,13.5c0-1-0.4-1.9-1.1-2.6
		c-0.7-0.7-1.6-1.1-2.6-1.1H180c-1,0-1.9,0.4-2.6,1.1c-0.7,0.7-1.1,1.6-1.1,2.6v0.8c0,1,0.4,1.9,1.1,2.6c0.7,0.7,1.6,1.1,2.6,1.1
		h1.2c1,0,1.9-0.4,2.6-1.1c0.7-0.7,1.1-1.6,1.1-2.6V13.5z M184.8,24.8c0-1-0.4-1.9-1.1-2.6c-0.7-0.7-1.6-1.1-2.6-1.1H180
		c-1,0-1.9,0.4-2.6,1.1c-0.7,0.7-1.1,1.6-1.1,2.6V26c0,1,0.4,1.9,1.1,2.6c0.7,0.7,1.6,1.1,2.6,1.1h1.2c1,0,1.9-0.4,2.6-1.1
		c0.7-0.7,1.1-1.6,1.1-2.6V24.8z"/>
	<path class="st0" d="M204.8,31c-1.3,1.3-3.1,1.9-5.4,1.9h-1.2c-1,0-1.8-0.1-2.6-0.3c-0.8-0.2-1.4-0.5-1.8-0.9
		c-0.8-0.6-1.4-1.2-1.7-1.7c-0.4-0.5-0.6-1-0.6-1.3c0-0.1,0.1-0.2,0.2-0.3l2.6-1.3c0.1-0.1,0.2-0.1,0.2-0.1c0.1,0,0.2,0.1,0.4,0.3
		c0.2,0.3,0.5,0.6,0.7,0.9c0.2,0.3,0.4,0.5,0.7,0.7c0.2,0.2,0.5,0.4,0.9,0.5c0.3,0.1,0.7,0.2,1.2,0.2h1.2c1,0,1.9-0.4,2.6-1.1
		c0.7-0.7,1.1-1.6,1.1-2.6v-1.4c0-1-0.4-1.9-1.1-2.6c-0.7-0.7-1.6-1.1-2.6-1.1H193c-0.3,0-0.4-0.1-0.4-0.4V7.4
		c0-0.3,0.1-0.4,0.4-0.4h13c0.3,0,0.4,0.1,0.4,0.4v2.4c0,0.3-0.1,0.4-0.4,0.4h-9.3c-0.3,0-0.4,0.1-0.4,0.4v6.7
		c0,0.3,0.1,0.4,0.4,0.4h2.8c2.3,0,4.1,0.6,5.4,1.9c1.3,1.3,1.9,3.1,1.9,5.3v0.8C206.8,27.9,206.1,29.7,204.8,31z"/>
	<path class="st0" d="M225.7,28.9c-0.4,0.9-0.8,1.6-1.5,2.2c-0.6,0.6-1.4,1.1-2.3,1.4c-0.9,0.3-1.9,0.5-3,0.5h-1.2
		c-1.1,0-2.1-0.2-3-0.5c-0.9-0.3-1.7-0.8-2.3-1.4c-0.6-0.6-1.1-1.3-1.5-2.2c-0.4-0.9-0.5-1.8-0.5-2.8V13.5c0-1,0.2-2,0.5-2.8
		c0.4-0.9,0.8-1.6,1.5-2.2c0.6-0.6,1.4-1.1,2.3-1.4c0.9-0.3,1.9-0.5,3-0.5h1.2c1.1,0,2.1,0.2,3,0.5c0.9,0.3,1.7,0.8,2.3,1.4
		c0.6,0.6,1.1,1.3,1.5,2.2c0.4,0.9,0.5,1.8,0.5,2.8V26C226.2,27.1,226.1,28,225.7,28.9z M222.6,13.5c0-1-0.4-1.9-1.1-2.6
		c-0.7-0.7-1.6-1.1-2.6-1.1h-1.2c-1,0-1.9,0.4-2.6,1.1c-0.7,0.7-1.1,1.6-1.1,2.6V26c0,1,0.4,1.9,1.1,2.6c0.7,0.7,1.6,1.1,2.6,1.1
		h1.2c1,0,1.9-0.4,2.6-1.1c0.7-0.7,1.1-1.6,1.1-2.6V13.5z"/>
	<g>
		<path class="st0" d="M243,30.9c-1.3,1.3-3.1,1.9-5.4,1.9h-1.2c-1,0-1.8-0.1-2.6-0.3c-0.8-0.2-1.4-0.5-1.8-0.9
			c-0.8-0.6-1.4-1.2-1.7-1.7c-0.4-0.5-0.6-1-0.6-1.3c0-0.1,0.1-0.2,0.2-0.3l2.6-1.3c0.1-0.1,0.2-0.1,0.2-0.1c0.1,0,0.2,0.1,0.4,0.3
			c0.2,0.3,0.5,0.6,0.7,0.9c0.2,0.3,0.4,0.5,0.7,0.7c0.2,0.2,0.5,0.4,0.9,0.5c0.3,0.1,0.7,0.2,1.2,0.2h1.2c1,0,1.9-0.4,2.6-1.1
			c0.7-0.7,1.1-1.6,1.1-2.6v-1.4c0-1-0.4-1.9-1.1-2.6c-0.7-0.7-1.6-1.1-2.6-1.1h-6.5c-0.3,0-0.4-0.1-0.4-0.4V7.3
			c0-0.3,0.1-0.4,0.4-0.4h13c0.3,0,0.4,0.1,0.4,0.4v2.4c0,0.3-0.1,0.4-0.4,0.4h-9.3c-0.3,0-0.4,0.1-0.4,0.4v6.7
			c0,0.3,0.1,0.4,0.4,0.4h2.8c2.3,0,4.1,0.6,5.4,1.9c1.3,1.3,1.9,3.1,1.9,5.3v0.8C244.9,27.8,244.3,29.6,243,30.9z"/>
	</g>
</g>
</svg>
