<?xml version="1.0" encoding="utf-8"?>
<!-- Generator: Adobe Illustrator 19.2.1, SVG Export Plug-In . SVG Version: 6.00 Build 0)  -->
<svg version="1.1" id="Layer_1" xmlns="http://www.w3.org/2000/svg" xmlns:xlink="http://www.w3.org/1999/xlink" x="0px" y="0px"
	 viewBox="0 0 349.7 65.9" style="enable-background:new 0 0 349.7 65.9;" xml:space="preserve">
<style type="text/css">
	.st0{fill:#F16C28;}
	.st1{fill:#211C1B;}
</style>
<g>
	<g>
		<path class="st0" d="M275.7,30.2l12.2-20.5h-14.5V5.2h21.9l0.3,2.5l-13.4,22.5H275.7z"/>
		<path class="st0" d="M299.9,30.2l12.2-20.5h-14.5V5.2h21.9l0.3,2.5l-13.4,22.5H299.9z"/>
		<path class="st0" d="M322.3,15.9c0-14.9,26.2-14.9,26.2,0v3.6c0,14.9-26.2,14.9-26.2,0V15.9z M327.9,19.5c0,9.1,15,9.1,15,0v-3.6
			c0-8.9-15-9-15,0V19.5z"/>
	</g>
</g>
<g>
	<path class="st1" d="M14,8.9c-3.4,0-6,0.8-7.9,2.3s-2.8,3.6-2.8,6.4c0,2.8,0.9,4.9,2.8,6.4c1.9,1.5,4.5,2.3,7.8,2.3
		c2.4,0,4.6-0.3,6.5-1l0.8,2c-1.1,0.4-2.2,0.7-3.4,0.9s-2.5,0.3-4,0.3c-2.4,0-4.5-0.3-6.2-0.8c-1.7-0.5-3.2-1.3-4.3-2.2
		c-1.1-0.9-2-2.1-2.5-3.4C0.3,20.7,0,19.2,0,17.6c0-1.6,0.3-3,0.9-4.4c0.6-1.3,1.5-2.5,2.7-3.4C4.8,8.8,6.3,8.1,8,7.5
		c1.7-0.5,3.7-0.8,6-0.8c1.5,0,2.8,0.1,3.9,0.3C19,7.2,20,7.4,21,7.7l-0.8,2C18.4,9.2,16.3,8.9,14,8.9z"/>
	<path class="st1" d="M36.4,28.4c-2.2,0-4.2-0.3-5.8-0.8c-1.6-0.5-3-1.3-4.1-2.3c-1.1-1-1.9-2.1-2.4-3.4c-0.5-1.3-0.8-2.8-0.8-4.3
		s0.3-3,0.8-4.3c0.5-1.3,1.3-2.5,2.4-3.4c1.1-1,2.4-1.7,4.1-2.3c1.6-0.5,3.6-0.8,5.8-0.8c2.2,0,4.2,0.3,5.8,0.8
		c1.6,0.5,3,1.3,4.1,2.3c1.1,1,1.9,2.1,2.4,3.4c0.5,1.3,0.8,2.8,0.8,4.3s-0.3,3-0.8,4.3c-0.5,1.3-1.3,2.5-2.4,3.4
		c-1.1,1-2.4,1.7-4.1,2.3C40.6,28.1,38.7,28.4,36.4,28.4z M36.4,26.4c1.6,0,3.1-0.2,4.3-0.6c1.2-0.4,2.2-1,3-1.8
		c0.8-0.8,1.4-1.7,1.8-2.8c0.4-1.1,0.6-2.3,0.6-3.7s-0.2-2.6-0.6-3.7c-0.4-1.1-1-2-1.8-2.8c-0.8-0.8-1.8-1.4-3-1.8s-2.6-0.6-4.3-0.6
		c-1.6,0-3.1,0.2-4.3,0.6s-2.3,1-3.1,1.8c-0.8,0.8-1.4,1.7-1.8,2.8c-0.4,1.1-0.6,2.3-0.6,3.7s0.2,2.6,0.6,3.7c0.4,1.1,1,2,1.8,2.8
		c0.8,0.8,1.8,1.4,3.1,1.8C33.3,26.2,34.8,26.4,36.4,26.4z"/>
	<path class="st1" d="M65.3,28.4c-1.7,0-3.2-0.2-4.6-0.5c-1.4-0.3-2.5-0.9-3.5-1.6c-1-0.7-1.7-1.6-2.2-2.7c-0.5-1.1-0.8-2.4-0.8-3.9
		V7h3.3v12.7c0,2.2,0.7,3.8,2,4.9c1.3,1.1,3.2,1.6,5.7,1.6c2.5,0,4.4-0.5,5.7-1.6c1.3-1.1,2-2.7,2-4.9V7h3.3v12.7
		c0,1.5-0.3,2.8-0.8,3.9c-0.5,1.1-1.2,2-2.2,2.7c-1,0.7-2.1,1.3-3.5,1.6C68.5,28.2,67,28.4,65.3,28.4z"/>
	<path class="st1" d="M99,21.3c0.6,0.7,1.1,1.3,1.6,2c0.5,0.6,0.9,1.2,1.2,1.6h0.1c-0.1-0.7-0.2-1.4-0.3-2.1c0-0.7-0.1-1.5-0.1-2.3
		V7h3.3v21.1h-3.5L88.9,13.8c-0.6-0.6-1.1-1.3-1.6-1.9c-0.5-0.6-0.9-1.2-1.2-1.7H86c0.1,0.7,0.2,1.4,0.3,2.1c0,0.7,0.1,1.5,0.1,2.3
		v13.4H83V7h3.5L99,21.3z"/>
	<path class="st1" d="M121.8,9.2v18.9h-3.3V9.2l-9,0V7h21.4v2.3L121.8,9.2z"/>
	<path class="st1" d="M134.9,7h17.8v2.2h-14.5v6.9h13.6v2.2h-13.6v7.6H153v2.2h-18.1V7z"/>
	<path class="st1" d="M179,13.3c0,1.5-0.6,2.8-1.9,3.9c-1.2,1.1-2.9,1.8-5.1,2.2l7.1,8.7h-3.6l-6.9-8.4h0h-6.5v8.4h-3.3V7h10.5
		c1.5,0,2.9,0.2,4.1,0.5s2.2,0.8,3,1.3c0.8,0.6,1.4,1.2,1.9,2C178.8,11.6,179,12.4,179,13.3z M175.6,13.3c0-1.2-0.5-2.2-1.6-3
		c-1.1-0.7-2.7-1.1-4.7-1.1h-7.2v8.3h6.9c2.1,0,3.7-0.4,4.9-1.1C175.1,15.6,175.6,14.6,175.6,13.3z"/>
	<path class="st1" d="M195.2,9.2v18.9h-3.3V9.2l-9,0V7h21.4v2.3L195.2,9.2z"/>
	<path class="st1" d="M219.4,28.4c-2.2,0-4.2-0.3-5.8-0.8c-1.6-0.5-3-1.3-4.1-2.3c-1.1-1-1.9-2.1-2.4-3.4c-0.5-1.3-0.8-2.8-0.8-4.3
		s0.3-3,0.8-4.3c0.5-1.3,1.3-2.5,2.4-3.4c1.1-1,2.4-1.7,4.1-2.3c1.6-0.5,3.6-0.8,5.8-0.8c2.2,0,4.2,0.3,5.8,0.8
		c1.6,0.5,3,1.3,4.1,2.3c1.1,1,1.9,2.1,2.4,3.4c0.5,1.3,0.8,2.8,0.8,4.3s-0.3,3-0.8,4.3c-0.5,1.3-1.3,2.5-2.4,3.4
		c-1.1,1-2.4,1.7-4.1,2.3C223.6,28.1,221.6,28.4,219.4,28.4z M219.4,26.4c1.6,0,3.1-0.2,4.3-0.6c1.2-0.4,2.2-1,3-1.8
		c0.8-0.8,1.4-1.7,1.8-2.8c0.4-1.1,0.6-2.3,0.6-3.7s-0.2-2.6-0.6-3.7c-0.4-1.1-1-2-1.8-2.8c-0.8-0.8-1.8-1.4-3-1.8
		c-1.2-0.4-2.6-0.6-4.3-0.6c-1.6,0-3.1,0.2-4.3,0.6c-1.2,0.4-2.3,1-3.1,1.8c-0.8,0.8-1.4,1.7-1.8,2.8c-0.4,1.1-0.6,2.3-0.6,3.7
		s0.2,2.6,0.6,3.7c0.4,1.1,1,2,1.8,2.8c0.8,0.8,1.8,1.4,3.1,1.8C216.3,26.2,217.8,26.4,219.4,26.4z"/>
	<path class="st1" d="M257.3,13.5c0,1-0.2,1.8-0.7,2.6c-0.5,0.8-1.1,1.5-2,2.1c-0.9,0.6-1.9,1.1-3.1,1.4c-1.2,0.3-2.6,0.5-4.1,0.5
		h-5.9v7.9h-3.3V7h9.5c1.5,0,2.9,0.2,4.1,0.5c1.2,0.3,2.2,0.8,3,1.4c0.8,0.6,1.4,1.3,1.9,2.1C257,11.7,257.3,12.6,257.3,13.5z
		 M253.9,13.5c0-1.3-0.5-2.4-1.6-3.2c-1.1-0.8-2.7-1.2-4.7-1.2h-6.2V18h5.9c2.1,0,3.7-0.4,4.9-1.2C253.3,16,253.9,14.9,253.9,13.5z"
		/>
	<path class="st1" d="M123.6,60.5c-2.1,0-3.8-0.1-5.1-0.3c-1.3-0.2-2.4-0.5-3.4-0.9l0.9-1.9c0.8,0.3,1.9,0.5,3.1,0.8
		c1.2,0.2,2.6,0.3,4.1,0.3c1.1,0,2-0.1,2.9-0.2c0.9-0.1,1.7-0.4,2.3-0.7c0.6-0.3,1.1-0.7,1.5-1.2c0.4-0.5,0.5-1.1,0.5-1.7
		c0-0.7-0.2-1.2-0.6-1.7c-0.4-0.4-0.9-0.8-1.6-1.1c-0.7-0.3-1.4-0.6-2.3-0.8c-0.8-0.2-1.7-0.4-2.7-0.6c-0.9-0.2-1.9-0.5-2.8-0.8
		c-1-0.3-1.9-0.7-2.7-1.1c-0.8-0.4-1.5-1-2-1.7c-0.5-0.7-0.8-1.5-0.8-2.5c0-0.8,0.2-1.5,0.5-2.2c0.4-0.7,0.9-1.3,1.7-1.8
		c0.8-0.5,1.8-0.9,3-1.2c1.2-0.3,2.7-0.4,4.4-0.4c1.5,0,2.8,0.1,4,0.3c1.2,0.2,2.3,0.5,3.2,0.8l-0.9,1.9c-0.8-0.3-1.8-0.5-2.9-0.7
		c-1.1-0.2-2.2-0.3-3.4-0.3c-2.3,0-4,0.3-5,1c-1,0.6-1.5,1.5-1.5,2.5c0,0.6,0.2,1.1,0.5,1.5c0.4,0.4,0.8,0.8,1.4,1.1
		c0.6,0.3,1.3,0.6,2.1,0.8c0.8,0.2,1.7,0.4,2.6,0.7c1.1,0.2,2.1,0.5,3.1,0.8c1,0.3,2,0.7,2.8,1.2c0.8,0.5,1.5,1,2,1.7
		c0.5,0.7,0.8,1.5,0.8,2.5c0,1-0.2,1.9-0.7,2.6c-0.5,0.7-1.2,1.3-2.1,1.8c-0.9,0.5-2,0.8-3.2,1.1C126.4,60.4,125.1,60.5,123.6,60.5z
		"/>
	<path class="st1" d="M139.5,39.2h17.8v2.2h-14.5v6.9h13.6v2.2h-13.6v7.6h14.8v2.2h-18.1V39.2z"/>
	<path class="st1" d="M179.7,54.5h-12.6l-2.9,5.8h-3.4l11-21.1h3.3l11,21.1h-3.4L179.7,54.5z M168.2,52.3h10.3l-3.2-6.3
		c-0.3-0.7-0.6-1.4-0.9-2.1c-0.3-0.7-0.6-1.4-0.9-2.1h-0.1c-0.3,0.7-0.6,1.4-0.9,2.1s-0.6,1.4-0.9,2.1L168.2,52.3z"/>
	<path class="st1" d="M190.6,39.2h3.3v18.9h14.1v2.2h-17.4V39.2z"/>
	<path class="st1" d="M213,39.2h17.8v2.2h-14.5v6.9h13.6v2.2h-13.6v7.6h14.8v2.2H213V39.2z"/>
	<path class="st1" d="M257,45.4c0,1.5-0.6,2.8-1.9,3.9c-1.2,1.1-2.9,1.8-5.1,2.2l7.1,8.7h-3.6l-6.9-8.4h0h-6.5v8.4h-3.3V39.1h10.5
		c1.5,0,2.9,0.2,4.1,0.5s2.2,0.8,3,1.3c0.8,0.6,1.4,1.2,1.9,2C256.8,43.7,257,44.5,257,45.4z M253.7,45.4c0-1.2-0.5-2.2-1.6-3
		c-1.1-0.7-2.7-1.1-4.7-1.1h-7.2v8.3h6.9c2.1,0,3.7-0.4,4.9-1.1C253.1,47.8,253.7,46.7,253.7,45.4z"/>
</g>
</svg>
