<?xml version="1.0" encoding="utf-8"?>
<!-- Generator: Adobe Illustrator 19.2.1, SVG Export Plug-In . SVG Version: 6.00 Build 0)  -->
<svg version="1.1" id="Layer_1" xmlns="http://www.w3.org/2000/svg" xmlns:xlink="http://www.w3.org/1999/xlink" x="0px" y="0px"
	 viewBox="0 0 328.8 33.1" style="enable-background:new 0 0 328.8 33.1;" xml:space="preserve">
<style type="text/css">
	.st0{fill:#F16C28;}
	.st1{fill:#211C1B;}
	.st2{fill:#B0A19E;}
	.st3{fill:#CCC6BF;}
</style>
<g>
	<path class="st0" d="M267.4,9.4h-16.1v4.4h5.8c6.3,0,12,2.2,12,8c0,5.7-5.7,8.4-11.7,8.4c-6.6,0-12.2-2-12.2-7.8h5.6
		c0,2.7,3.7,3.5,6.6,3.5c2.7,0,6.2-1.1,6.2-4c0-2.8-3.3-3.6-6.4-3.6h-11.3c0-4.5,0-8.7,0-13.2h21.6L267.4,9.4L267.4,9.4z"/>
	<path class="st0" d="M239.8,9.4h-16.1v4.4h5.8c6.3,0,12,2.2,12,8c0,5.7-5.7,8.4-11.7,8.4c-6.6,0-12.2-2-12.2-7.8h5.6
		c0,2.7,3.7,3.5,6.6,3.5c2.7,0,6.2-1.1,6.2-4c0-2.8-3.3-3.6-6.4-3.6h-11.3c0-4.5,0-8.7,0-13.2h21.6v4.3H239.8z"/>
	<path class="st0" d="M271.7,15.6c0-14.9,26.2-14.9,26.2,0v3.6c0,14.9-26.2,14.9-26.2,0V15.6z M277.3,19.2c0,9.1,15,9.1,15,0v-3.6
		c0-8.9-15-9-15,0V19.2z"/>
	<path class="st0" d="M301,15.6c0-14.9,26.2-14.9,26.2,0v3.6c0,14.9-26.2,14.9-26.2,0V15.6z M306.5,19.2c0,9.1,15,9.1,15,0v-3.6
		c0-8.9-15-9-15,0V19.2z"/>
</g>
<g>
	<path class="st1" d="M13.9,9c-3.4,0-6,0.7-7.9,2.3s-2.7,3.6-2.7,6.4s0.9,4.9,2.8,6.4s4.5,2.3,7.8,2.3c2.4,0,4.6-0.3,6.5-1l0.8,2
		c-1.1,0.4-2.2,0.7-3.4,0.9c-1.2,0.2-2.5,0.3-4,0.3c-2.4,0-4.5-0.3-6.2-0.8s-3.2-1.3-4.3-2.2c-1.1-0.9-2-2.1-2.5-3.4
		C0.2,20.9,0,19.4,0,17.8s0.3-3,0.9-4.4c0.6-1.3,1.5-2.5,2.7-3.4S6.2,8.3,8,7.8C9.7,7.3,11.7,7,14,7c1.5,0,2.8,0.1,3.9,0.3
		C19,7.5,20,7.7,21,8l-0.8,2C18.3,9.3,16.3,9,13.9,9z"/>
	<path class="st1" d="M46.7,13.4c0,1.5-0.6,2.8-1.9,3.9c-1.2,1.1-2.9,1.8-5.1,2.2l7.1,8.7h-3.5l-7-8.4l0,0h-6.5v8.4h-3.3V7.1H37
		c1.5,0,2.9,0.2,4.1,0.5c1.2,0.3,2.2,0.8,3,1.3c0.8,0.6,1.4,1.2,1.9,2S46.7,12.5,46.7,13.4z M43.4,13.4c0-1.2-0.5-2.2-1.6-3
		c-1.1-0.7-2.7-1.1-4.7-1.1h-7.2v8.3h6.9c2.1,0,3.7-0.4,4.9-1.1C42.8,15.7,43.4,14.7,43.4,13.4z"/>
	<path class="st1" d="M62,19.3v8.9h-3.3v-8.9l-10-12.2h3.5l8.1,10.1h0.1l8-10.1h3.5L62,19.3z"/>
	<path class="st1" d="M76.3,7.1h3.3V26h14.1v2.2H76.3V7.1z"/>
	<path class="st1" d="M102.1,28.2h-3.3V7.1h3.3V28.2z"/>
</g>
<g>
	<path class="st2" d="M175.2,28.3h-3.7V7.2h3.7V28.3z M191.2,7.2h4.4L181.4,17l14.7,11.2h-4.5L177,17L191.2,7.2z"/>
	<g>
		<path class="st2" d="M122,7.2v2.2h10v18.9h3.7V9.4c0.3,0,31.7-0.1,31.7-0.1V7.2H122z"/>
		<polygon class="st2" points="151.3,26.1 151.3,18.5 166.4,18.5 166.4,16.3 151.3,16.3 151.3,11.2 147.6,11.2 147.6,28.3 
			167.7,28.3 167.7,26.1 		"/>
	</g>
	<g>
		<path class="st2" d="M119.4,16.4v2h-9.5v-2H119.4z"/>
	</g>
</g>
<g>
	<path class="st3" d="M198.2,5.9c0.1-0.3,0.3-0.6,0.5-0.8c0.2-0.2,0.5-0.4,0.8-0.5s0.6-0.2,1-0.2c0.3,0,0.7,0.1,1,0.2
		s0.6,0.3,0.8,0.5s0.4,0.5,0.5,0.8s0.2,0.6,0.2,1s-0.1,0.7-0.2,1c-0.1,0.3-0.3,0.6-0.5,0.8s-0.5,0.4-0.8,0.5s-0.6,0.2-1,0.2
		c-0.3,0-0.7-0.1-1-0.2c-0.3-0.1-0.6-0.3-0.8-0.5s-0.4-0.5-0.5-0.8s-0.2-0.6-0.2-1C198,6.5,198.1,6.2,198.2,5.9z M198.6,7.7
		c0.1,0.3,0.2,0.5,0.4,0.7s0.4,0.3,0.6,0.4c0.2,0.1,0.5,0.2,0.8,0.2s0.6-0.1,0.8-0.2c0.2-0.1,0.5-0.3,0.6-0.4
		c0.2-0.2,0.3-0.4,0.4-0.7c0.1-0.3,0.2-0.5,0.2-0.8s-0.1-0.6-0.2-0.8c-0.1-0.3-0.2-0.5-0.4-0.7s-0.4-0.3-0.6-0.4
		c-0.2-0.1-0.5-0.2-0.8-0.2s-0.6,0.1-0.8,0.2s-0.5,0.3-0.6,0.4c-0.2,0.2-0.3,0.4-0.4,0.7c-0.1,0.3-0.2,0.5-0.2,0.8
		C198.5,7.2,198.5,7.4,198.6,7.7z M200.7,5.4c0.3,0,0.6,0.1,0.8,0.2s0.2,0.3,0.2,0.6c0,0.3-0.1,0.5-0.2,0.6
		c-0.2,0.1-0.3,0.2-0.6,0.2l0.8,1.3h-0.4l-0.8-1.2H200v1.2h-0.4V5.4H200.7z M200.5,6.7c0.1,0,0.2,0,0.3,0s0.2,0,0.2-0.1
		c0.1,0,0.1-0.1,0.2-0.1c0-0.1,0.1-0.2,0.1-0.3c0-0.1,0-0.2-0.1-0.2c0-0.1-0.1-0.1-0.1-0.1c-0.1,0-0.1-0.1-0.2-0.1
		c-0.1,0-0.2,0-0.2,0h-0.6v0.9C200.1,6.7,200.5,6.7,200.5,6.7z"/>
</g>
</svg>
