<?xml version="1.0" encoding="utf-8"?>
<!-- Generator: Adobe Illustrator 19.2.1, SVG Export Plug-In . SVG Version: 6.00 Build 0)  -->
<svg version="1.1" id="Layer_1" xmlns="http://www.w3.org/2000/svg" xmlns:xlink="http://www.w3.org/1999/xlink" x="0px" y="0px"
	 viewBox="0 0 219.2 33.1" style="enable-background:new 0 0 219.2 33.1;" xml:space="preserve">
<style type="text/css">
	.st0{fill:#F16C28;}
	.st1{fill:#211C1B;}
</style>
<g>
	<g>
		<g>
			<path class="st0" d="M146.5,18.6v-3.9h4.3c3,0,6.2-0.7,6.3-3c0-1.4-1.4-3.3-6.1-3.3c-2.6,0-6.2,0.8-6.2,3.1h-5.6
				c0-5.4,6.4-7.4,11.9-7.4c5.6,0,11.7,2.3,11.7,7.6c0,2-1.5,4.2-4.1,4.9c2.9,0.8,4.9,3.1,4.9,5.2c0,6.1-6.9,7.9-12.6,7.9
				c-5.7,0-12.1-2-12.2-7.7h5.7c0,2.6,4.1,3.5,6.6,3.5c2.9,0,6.6-1,6.6-3.7c0-1.5-1-3.4-6.3-3.4H146.5z"/>
			<path class="st0" d="M167.2,11.8c0-5.3,6-7.6,11.5-7.6c6,0,12.4,2,12.4,8c0,6.4-5.7,7.6-12,7.6c-2.5,0-6.5,0.5-6.5,3.2v2.1h18.5
				v4.4H167c0-2.2,0-4.4,0-6.6c0-5.7,6.2-7.5,12.1-7.5c2.3,0,6.4-0.3,6.4-3.2c0-2.7-2.9-4-6.8-4c-2.9,0-6,1.2-6,3.5H167.2z"/>
			<path class="st0" d="M216.7,9h-16.1v4.4h5.8c6.3,0,12,2.2,12,8c0,5.7-5.7,8.4-11.7,8.4c-6.6,0-12.2-2-12.2-7.8h5.6
				c0,2.7,3.7,3.5,6.6,3.5c2.7,0,6.2-1.1,6.2-4c0-2.8-3.3-3.6-6.4-3.6h-11.3c0-4.5,0-8.7,0-13.2h21.6V9z"/>
		</g>
	</g>
	<g>
		<path class="st1" d="M0,6.4h17.8v2.2H3.3v6.9H17v2.2H3.3v7.6h14.8v2.2H0V6.4z"/>
		<path class="st1" d="M43.1,12.9c0,1-0.2,1.8-0.7,2.6c-0.5,0.8-1.1,1.5-2,2.1c-0.9,0.6-1.9,1.1-3.1,1.4c-1.2,0.3-2.6,0.5-4.1,0.5
			h-5.9v7.9h-3.3V6.4h9.5c1.5,0,2.9,0.2,4.1,0.5c1.2,0.3,2.2,0.8,3,1.4c0.8,0.6,1.4,1.3,1.9,2.1C42.9,11.2,43.1,12,43.1,12.9z
			 M39.7,12.9c0-1.3-0.5-2.4-1.6-3.2C37,9,35.5,8.6,33.4,8.6h-6.2v8.8h5.9c2.1,0,3.7-0.4,4.9-1.2C39.2,15.4,39.7,14.3,39.7,12.9z"/>
		<path class="st1" d="M59.9,27.8c-2.2,0-4.2-0.3-5.8-0.8c-1.6-0.5-3-1.3-4.1-2.3c-1.1-1-1.9-2.1-2.4-3.4c-0.5-1.3-0.8-2.8-0.8-4.3
			s0.3-3,0.8-4.3c0.5-1.3,1.3-2.5,2.4-3.4c1.1-1,2.4-1.7,4.1-2.3c1.6-0.5,3.6-0.8,5.8-0.8c2.2,0,4.2,0.3,5.8,0.8
			c1.6,0.5,3,1.3,4.1,2.3c1.1,1,1.9,2.1,2.4,3.4C72.7,14,73,15.4,73,17s-0.3,3-0.8,4.3c-0.5,1.3-1.3,2.5-2.4,3.4
			c-1.1,1-2.4,1.7-4.1,2.3C64.1,27.5,62.2,27.8,59.9,27.8z M59.9,25.8c1.6,0,3.1-0.2,4.3-0.6c1.2-0.4,2.2-1,3-1.8
			c0.8-0.8,1.4-1.7,1.8-2.8c0.4-1.1,0.6-2.3,0.6-3.7s-0.2-2.6-0.6-3.7c-0.4-1.1-1-2-1.8-2.8c-0.8-0.8-1.8-1.4-3-1.8
			c-1.2-0.4-2.6-0.6-4.3-0.6c-1.6,0-3.1,0.2-4.3,0.6c-1.2,0.4-2.3,1-3.1,1.8c-0.8,0.8-1.4,1.7-1.8,2.8c-0.4,1.1-0.6,2.3-0.6,3.7
			s0.2,2.6,0.6,3.7c0.4,1.1,1,2,1.8,2.8c0.8,0.8,1.8,1.4,3.1,1.8C56.8,25.6,58.3,25.8,59.9,25.8z"/>
		<path class="st1" d="M87.2,18.3L87.2,18.3l-8.5,9.3h-3.7l10.2-10.9L75.9,6.4h3.7l7.6,8.4l7.6-8.4h3.7l-9.4,10.1l10.3,10.9h-3.7
			L87.2,18.3z"/>
		<path class="st1" d="M113.9,18.6v8.9h-3.3v-8.9l-9.9-12.2h3.5l8.1,10.1h0.1l8-10.1h3.5L113.9,18.6z"/>
	</g>
</g>
</svg>
