<?xml version="1.0" encoding="utf-8"?>
<!-- Generator: Adobe Illustrator 19.2.1, SVG Export Plug-In . SVG Version: 6.00 Build 0)  -->
<svg version="1.1" id="Layer_1" xmlns="http://www.w3.org/2000/svg" xmlns:xlink="http://www.w3.org/1999/xlink" x="0px" y="0px"
	 viewBox="0 0 297 33.1" style="enable-background:new 0 0 297 33.1;" xml:space="preserve">
<style type="text/css">
	.st0{fill:#CCC6BF;}
	.st1{fill:#B0A19E;}
	.st2{fill:#211C1B;}
	.st3{fill:#F16C28;}
</style>
<g>
	<path class="st0" d="M175,6c0.1-0.3,0.3-0.6,0.5-0.8s0.5-0.4,0.8-0.5c0.3-0.1,0.6-0.2,1-0.2c0.3,0,0.7,0.1,1,0.2
		c0.3,0.1,0.6,0.3,0.8,0.5s0.4,0.5,0.5,0.8c0.1,0.3,0.2,0.6,0.2,1c0,0.4-0.1,0.7-0.2,1c-0.1,0.3-0.3,0.6-0.5,0.8
		c-0.2,0.2-0.5,0.4-0.8,0.5c-0.3,0.1-0.6,0.2-1,0.2c-0.3,0-0.7-0.1-1-0.2c-0.3-0.1-0.6-0.3-0.8-0.5c-0.2-0.2-0.4-0.5-0.5-0.8
		c-0.1-0.3-0.2-0.6-0.2-1C174.8,6.6,174.8,6.3,175,6z M175.4,7.8c0.1,0.3,0.2,0.5,0.4,0.7c0.2,0.2,0.4,0.3,0.6,0.4
		c0.2,0.1,0.5,0.2,0.8,0.2c0.3,0,0.6-0.1,0.8-0.2c0.2-0.1,0.5-0.3,0.6-0.4c0.2-0.2,0.3-0.4,0.4-0.7c0.1-0.3,0.2-0.5,0.2-0.8
		c0-0.3-0.1-0.6-0.2-0.8c-0.1-0.3-0.2-0.5-0.4-0.7c-0.2-0.2-0.4-0.3-0.6-0.4c-0.2-0.1-0.5-0.2-0.8-0.2c-0.3,0-0.6,0.1-0.8,0.2
		c-0.2,0.1-0.5,0.3-0.6,0.4c-0.2,0.2-0.3,0.4-0.4,0.7c-0.1,0.3-0.2,0.5-0.2,0.8C175.2,7.2,175.3,7.5,175.4,7.8z M177.4,5.5
		c0.3,0,0.6,0.1,0.8,0.2c0.2,0.1,0.2,0.3,0.2,0.6c0,0.3-0.1,0.5-0.2,0.6c-0.1,0.1-0.3,0.2-0.5,0.2l0.8,1.3H178l-0.8-1.2h-0.5v1.2
		h-0.4V5.5H177.4z M177.2,6.8c0.1,0,0.2,0,0.3,0c0.1,0,0.2,0,0.2-0.1c0.1,0,0.1-0.1,0.2-0.1c0-0.1,0.1-0.2,0.1-0.3
		c0-0.1,0-0.2-0.1-0.2c0-0.1-0.1-0.1-0.1-0.1c-0.1,0-0.1-0.1-0.2-0.1c-0.1,0-0.2,0-0.2,0h-0.6v0.9H177.2z"/>
</g>
<g>
	<path class="st1" d="M152,28.3h-3.7v-21h3.7V28.3z M167.9,7.3h4.4l-14.2,9.8l14.7,11.2h-4.5l-14.6-11.2L167.9,7.3z"/>
	<g>
		<path class="st1" d="M98.8,7.2v2.2h10v18.9h3.7V9.5c0.3,0,31.7-0.1,31.7-0.1V7.2L98.8,7.2z"/>
		<polygon class="st1" points="128,26.1 128,18.5 143.1,18.5 143.1,16.3 128,16.3 128,11.3 124.4,11.3 124.4,28.3 144.4,28.3 
			144.4,26.1 		"/>
	</g>
	<g>
		<path class="st1" d="M96.2,16.4v2h-9.5v-2H96.2z"/>
	</g>
</g>
<g>
	<g>
		<path class="st2" d="M28.5,7.2h17.8v2.2H31.9v6.9h13.6v2.2H31.9v7.6h14.8v2.2H28.5V7.2z"/>
	</g>
	<g>
		<path class="st2" d="M14,8.8c-3.4,0-6,0.7-7.9,2.2s-2.8,3.6-2.8,6.4c0,2.7,0.9,4.9,2.8,6.4c1.9,1.5,4.5,2.3,7.8,2.3
			c2.4,0,4.6-0.3,6.5-1l0.8,2c-1.1,0.4-2.2,0.7-3.4,0.9c-1.2,0.2-2.5,0.3-4,0.3c-2.4,0-4.5-0.3-6.2-0.8C6,27,4.5,26.3,3.4,25.3
			c-1.1-0.9-2-2.1-2.5-3.4C0.3,20.6,0,19.1,0,17.5c0-1.6,0.3-3,0.9-4.4c0.6-1.3,1.5-2.5,2.7-3.4C4.8,8.7,6.3,8,8,7.5
			c1.7-0.5,3.7-0.8,6-0.8c1.5,0,2.8,0.1,3.9,0.3C19,7.1,20,7.4,21,7.7l-0.8,2C18.4,9.1,16.3,8.8,14,8.8z"/>
		<path class="st2" d="M19.1,28v-9.6H13v-2.1h9.2V28C22.1,28,19.1,28,19.1,28z"/>
	</g>
	<path class="st2" d="M56,11.8l0,16.4h-3.3v-21h3.1l10.5,14l10.4-14H80v21h-3.3c0,0,0-16.4,0-16.4L66.4,25.5L56,11.8z"/>
</g>
<g>
	<path class="st3" d="M217.1,9.5H201v4.4h5.8c6.3,0,12,2.2,12,8c0,5.7-5.7,8.4-11.7,8.4c-6.6,0-12.2-2-12.2-7.8h5.6
		c0,2.7,3.7,3.5,6.6,3.5c2.7,0,6.2-1.1,6.2-4c0-2.8-3.3-3.6-6.4-3.6h-11.3c0-4.5,0-8.7,0-13.2h21.6V9.5z"/>
	<path class="st3" d="M223.1,26h4.5V9.3h-4.6V5h10.2v21h4.1v4h-14.2V26z"/>
	<path class="st3" d="M239.9,15.7c0-14.9,26.2-14.9,26.2,0v3.6c0,14.9-26.2,14.9-26.2,0V15.7z M245.4,19.3c0,9.1,15,9.1,15,0v-3.6
		c0-8.9-15-9-15,0V19.3z"/>
	<path class="st3" d="M269.5,15.7c0-14.9,26.2-14.9,26.2,0v3.6c0,14.9-26.2,14.9-26.2,0V15.7z M275.1,19.3c0,9.1,15,9.1,15,0v-3.6
		c0-8.9-15-9-15,0V19.3z"/>
</g>
</svg>
