<?xml version="1.0" encoding="utf-8"?>
<!-- Generator: Adobe Illustrator 19.2.1, SVG Export Plug-In . SVG Version: 6.00 Build 0)  -->
<svg version="1.1" id="Layer_1" xmlns="http://www.w3.org/2000/svg" xmlns:xlink="http://www.w3.org/1999/xlink" x="0px" y="0px"
	 viewBox="0 0 312.2 33.1" style="enable-background:new 0 0 312.2 33.1;" xml:space="preserve">
<style type="text/css">
	.st0{fill:#F16C28;}
	.st1{fill:#211C1B;}
	.st2{fill:#B0A19E;}
	.st3{fill:#CCC6BF;}
</style>
<g>
	<g>
		<path class="st0" d="M250.7,8.6h-16.2V13h5.8c6.4,0,12,2.2,12,8.1c0,5.7-5.7,8.5-11.7,8.5c-6.6,0-12.2-2-12.3-7.9h5.6
			c0,2.8,3.8,3.5,6.6,3.5c2.7,0,6.2-1.1,6.2-4.1c0.1-2.9-3.3-3.7-6.4-3.7H229c0-4.6,0-8.8,0-13.3h21.7L250.7,8.6L250.7,8.6z"/>
		<path class="st0" d="M255,14.9c0-15.1,26.3-15,26.3,0v3.6c0,15-26.3,15.1-26.3,0V14.9z M260.6,18.5c0,9.2,15.1,9.2,15.1,0v-3.6
			c0-9-15.1-9.1-15.1,0V18.5z"/>
		<path class="st0" d="M284.8,14.9c0-15.1,26.3-15,26.3,0v3.6c0,15-26.3,15.1-26.3,0V14.9z M290.4,18.5c0,9.2,15.1,9.2,15.1,0v-3.6
			c0-9-15.1-9.1-15.1,0V18.5L290.4,18.5z"/>
	</g>
	<path class="st0" d="M218.9,21.4v-3.7c-1.3,1.7-4.5,2.6-6.8,2.6c-6,0-12.3-2.1-12.3-8.3c0-5.5,6.3-8.3,12.3-8.3
		c6,0,12.4,2.8,12.4,8.3v9.3c0,5.6-6.1,8.2-12.2,8.2c-6.4,0-12.3-2.2-12.3-7.4h5.6c0,2.2,3.5,3.3,6.7,3.3c3.4,0.1,6.7-1.5,6.7-4.2
		V21.4z M205.4,12c0,2.8,3,4.2,6.7,4.2s6.9-1.4,6.8-4.2s-3.2-4.1-6.8-4.1C208.6,7.9,205.4,9.2,205.4,12z"/>
</g>
<g>
	<path class="st1" d="M0,6.1h3.3v19.3h14.1v2.2H0V6.1z"/>
	<path class="st1" d="M25.8,27.7h-3.3V6.1h3.3V27.7z"/>
	<path class="st1" d="M42.3,8.4v19.3H39V8.4l-9,0V6.1h21.4v2.3L42.3,8.4z"/>
	<path class="st1" d="M73.8,17.7H58.8v10h-3.3V6.1h3.3v9.3h14.9V6.1h3.3v21.6h-3.3V17.7z"/>
	<path class="st1" d="M87.7,27.7h-3.3V6.1h3.3V27.7z"/>
</g>
<g>
	<path class="st2" d="M160.2,27.7h-3.7V6.2h3.7V27.7z M176.2,6.2h4.4l-14.2,10.1l14.7,11.5h-4.5L162,16.3L176.2,6.2z"/>
	<g>
		<path class="st2" d="M107,6.1v2.3h10v19.3h3.7V8.4c0.3,0,31.7-0.1,31.7-0.1V6.1L107,6.1z"/>
		<polygon class="st2" points="136.3,25.5 136.3,17.7 151.4,17.7 151.4,15.4 136.3,15.4 136.3,10.2 132.7,10.2 132.7,27.7 
			152.7,27.7 152.7,25.5 		"/>
	</g>
	<g>
		<path class="st2" d="M105,15.5v2h-9.5v-2H105z"/>
	</g>
</g>
<g>
	<path class="st3" d="M183.2,5.1c0.1-0.3,0.3-0.6,0.5-0.8c0.2-0.2,0.5-0.4,0.8-0.5c0.3-0.1,0.6-0.2,1-0.2c0.3,0,0.7,0.1,1,0.2
		c0.3,0.1,0.6,0.3,0.8,0.5c0.2,0.2,0.4,0.5,0.5,0.8c0.1,0.3,0.2,0.6,0.2,1c0,0.4-0.1,0.7-0.2,1c-0.1,0.3-0.3,0.6-0.5,0.8
		c-0.2,0.2-0.5,0.4-0.8,0.5c-0.3,0.1-0.6,0.2-1,0.2c-0.3,0-0.7-0.1-1-0.2c-0.3-0.1-0.6-0.3-0.8-0.5c-0.2-0.2-0.4-0.5-0.5-0.8
		c-0.1-0.3-0.2-0.6-0.2-1C183.1,5.7,183.1,5.4,183.2,5.1z M183.7,6.9c0.1,0.3,0.2,0.5,0.4,0.7c0.2,0.2,0.4,0.3,0.6,0.4
		c0.2,0.1,0.5,0.2,0.8,0.2c0.3,0,0.6-0.1,0.8-0.2c0.2-0.1,0.5-0.3,0.6-0.4c0.2-0.2,0.3-0.4,0.4-0.7c0.1-0.3,0.2-0.5,0.2-0.8
		c0-0.3-0.1-0.6-0.2-0.8c-0.1-0.3-0.2-0.5-0.4-0.7c-0.2-0.2-0.4-0.3-0.6-0.4c-0.2-0.1-0.5-0.2-0.8-0.2c-0.3,0-0.6,0.1-0.8,0.2
		c-0.2,0.1-0.5,0.3-0.6,0.4c-0.2,0.2-0.3,0.4-0.4,0.7c-0.1,0.3-0.2,0.5-0.2,0.8C183.5,6.3,183.6,6.6,183.7,6.9z M185.7,4.6
		c0.3,0,0.6,0.1,0.8,0.2c0.2,0.1,0.2,0.3,0.2,0.6c0,0.3-0.1,0.5-0.2,0.6c-0.1,0.1-0.3,0.2-0.5,0.2l0.8,1.3h-0.5l-0.8-1.2H185v1.2
		h-0.4V4.6H185.7z M185.5,5.9c0.1,0,0.2,0,0.3,0c0.1,0,0.2,0,0.2-0.1c0.1,0,0.1-0.1,0.2-0.1c0-0.1,0.1-0.2,0.1-0.3
		c0-0.1,0-0.2-0.1-0.2c0-0.1-0.1-0.1-0.1-0.1C186,5,185.9,5,185.8,5c-0.1,0-0.2,0-0.2,0H185v0.9H185.5z"/>
</g>
</svg>
