<?xml version="1.0" encoding="utf-8"?>
<!-- Generator: Adobe Illustrator 19.2.1, SVG Export Plug-In . SVG Version: 6.00 Build 0)  -->
<svg version="1.1" id="Layer_1" xmlns="http://www.w3.org/2000/svg" xmlns:xlink="http://www.w3.org/1999/xlink" x="0px" y="0px"
	 viewBox="0 0 367.6 33.1" style="enable-background:new 0 0 367.6 33.1;" xml:space="preserve">
<style type="text/css">
	.st0{fill:#F16C28;}
	.st1{fill:#211C1B;}
</style>
<g>
	<path class="st0" d="M293.8,29.7L306,9.2h-14.5V4.7h21.9l0.3,2.5l-13.4,22.5H293.8z"/>
	<path class="st0" d="M335.3,4.7v15.6h3.5v4.6h-3.5v4.7h-5.5v-4.7h-15.9l-0.5-4.8l13.4-15.4H335.3z M329.7,20.3V8.8l-10.1,11.6
		H329.7z"/>
	<path class="st0" d="M364.7,9.1h-16.1v4.4h5.8c6.3,0,12,2.2,12,8c0,5.7-5.7,8.4-11.7,8.4c-6.6,0-12.2-2-12.2-7.8h5.6
		c0,2.7,3.7,3.5,6.6,3.5c2.7,0,6.2-1.1,6.2-4c0-2.8-3.3-3.6-6.4-3.6h-11.3c0-4.5,0-8.7,0-13.2h21.6V9.1z"/>
</g>
<g>
	<path class="st1" d="M19.2,13.2c0,1-0.2,1.8-0.7,2.6c-0.5,0.8-1.1,1.5-2,2.1c-0.9,0.6-1.9,1.1-3.1,1.4c-1.2,0.3-2.6,0.5-4.1,0.5
		H3.3v7.9H0V6.7h9.5c1.5,0,2.9,0.2,4.1,0.5c1.2,0.3,2.2,0.8,3,1.4c0.8,0.6,1.4,1.3,1.9,2.1S19.2,12.3,19.2,13.2z M15.9,13.2
		c0-1.3-0.5-2.4-1.6-3.2c-1.1-0.8-2.7-1.2-4.7-1.2H3.3v8.8h5.9c2.1,0,3.7-0.4,4.9-1.2C15.3,15.7,15.9,14.6,15.9,13.2z"/>
	<path class="st1" d="M36,28.1c-2.2,0-4.2-0.3-5.8-0.8c-1.6-0.5-3-1.3-4.1-2.3c-1.1-1-1.9-2.1-2.4-3.4c-0.5-1.3-0.8-2.8-0.8-4.3
		s0.3-3,0.8-4.3c0.5-1.3,1.3-2.5,2.4-3.4c1.1-1,2.4-1.7,4.1-2.3c1.6-0.5,3.6-0.8,5.8-0.8c2.2,0,4.2,0.3,5.8,0.8
		c1.6,0.5,3,1.3,4.1,2.3c1.1,1,1.9,2.1,2.4,3.4c0.5,1.3,0.8,2.8,0.8,4.3s-0.3,3-0.8,4.3C47.8,22.9,47,24,45.9,25
		c-1.1,1-2.4,1.7-4.1,2.3C40.2,27.8,38.3,28.1,36,28.1z M36,26.1c1.6,0,3.1-0.2,4.3-0.6c1.2-0.4,2.2-1,3-1.8
		c0.8-0.8,1.4-1.7,1.8-2.8c0.4-1.1,0.6-2.3,0.6-3.7c0-1.4-0.2-2.6-0.6-3.7c-0.4-1.1-1-2-1.8-2.8c-0.8-0.8-1.8-1.4-3-1.8
		c-1.2-0.4-2.6-0.6-4.3-0.6c-1.6,0-3.1,0.2-4.3,0.6c-1.2,0.4-2.3,1-3.1,1.8c-0.8,0.8-1.4,1.7-1.8,2.8c-0.4,1.1-0.6,2.3-0.6,3.7
		c0,1.4,0.2,2.6,0.6,3.7c0.4,1.1,1,2,1.8,2.8c0.8,0.8,1.8,1.4,3.1,1.8C33,25.9,34.4,26.1,36,26.1z"/>
	<path class="st1" d="M54.1,6.7h3.3v18.9h14.1v2.2H54.1V6.7z"/>
	<path class="st1" d="M83.6,18.9v8.9h-3.3v-8.9L70.3,6.7h3.5l8.1,10.1H82l8-10.1h3.5L83.6,18.9z"/>
	<path class="st1" d="M112.7,22h-12.6l-2.9,5.8h-3.4l11-21.1h3.3l11,21.1h-3.4L112.7,22z M101.2,19.9h10.3l-3.2-6.3
		c-0.3-0.7-0.6-1.4-0.9-2.1c-0.3-0.7-0.6-1.4-0.9-2.1h-0.1c-0.3,0.7-0.6,1.4-0.9,2.1c-0.3,0.7-0.6,1.4-0.9,2.1L101.2,19.9z"/>
	<path class="st1" d="M130.9,28.1c-2.1,0-3.8-0.1-5.1-0.3c-1.3-0.2-2.4-0.5-3.4-0.9l0.9-1.9c0.8,0.3,1.9,0.5,3.1,0.8
		c1.2,0.2,2.6,0.3,4.1,0.3c1.1,0,2-0.1,2.9-0.2c0.9-0.1,1.7-0.4,2.3-0.7c0.6-0.3,1.1-0.7,1.5-1.2c0.4-0.5,0.5-1.1,0.5-1.7
		c0-0.7-0.2-1.2-0.6-1.7c-0.4-0.4-0.9-0.8-1.6-1.1c-0.7-0.3-1.4-0.6-2.3-0.8c-0.8-0.2-1.7-0.4-2.7-0.6c-0.9-0.2-1.9-0.5-2.8-0.8
		c-1-0.3-1.9-0.7-2.7-1.1c-0.8-0.4-1.5-1-2-1.7c-0.5-0.7-0.8-1.5-0.8-2.5c0-0.8,0.2-1.5,0.5-2.2c0.4-0.7,0.9-1.3,1.7-1.8
		c0.8-0.5,1.8-0.9,3-1.2c1.2-0.3,2.7-0.4,4.4-0.4c1.5,0,2.8,0.1,4,0.3c1.2,0.2,2.3,0.5,3.2,0.8l-0.9,1.9c-0.8-0.3-1.8-0.5-2.9-0.7
		c-1.1-0.2-2.2-0.3-3.4-0.3c-2.3,0-4,0.3-5,1c-1,0.6-1.5,1.5-1.5,2.5c0,0.6,0.2,1.1,0.5,1.5c0.4,0.4,0.8,0.8,1.4,1.1
		c0.6,0.3,1.3,0.6,2.1,0.8c0.8,0.2,1.7,0.4,2.6,0.7c1.1,0.2,2.1,0.5,3.1,0.8c1,0.3,2,0.7,2.8,1.2c0.8,0.5,1.5,1,2,1.7
		c0.5,0.7,0.8,1.5,0.8,2.5c0,1-0.2,1.9-0.7,2.6c-0.5,0.7-1.2,1.3-2.1,1.8c-0.9,0.5-2,0.8-3.2,1.1C133.7,28,132.4,28.1,130.9,28.1z"
		/>
	<path class="st1" d="M166,13.2c0,1-0.2,1.8-0.7,2.6c-0.5,0.8-1.1,1.5-2,2.1c-0.9,0.6-1.9,1.1-3.1,1.4c-1.2,0.3-2.6,0.5-4.1,0.5
		h-5.9v7.9h-3.3V6.7h9.5c1.5,0,2.9,0.2,4.1,0.5c1.2,0.3,2.2,0.8,3,1.4c0.8,0.6,1.4,1.3,1.9,2.1C165.7,11.5,166,12.3,166,13.2z
		 M162.6,13.2c0-1.3-0.5-2.4-1.6-3.2c-1.1-0.8-2.7-1.2-4.7-1.2h-6.2v8.8h5.9c2.1,0,3.7-0.4,4.9-1.2C162,15.7,162.6,14.6,162.6,13.2z
		"/>
	<path class="st1" d="M184.8,22h-12.6l-2.9,5.8h-3.4l11-21.1h3.3l11,21.1h-3.4L184.8,22z M173.3,19.9h10.3l-3.2-6.3
		c-0.3-0.7-0.6-1.4-0.9-2.1c-0.3-0.7-0.6-1.4-0.9-2.1h-0.1c-0.3,0.7-0.6,1.4-0.9,2.1c-0.3,0.7-0.6,1.4-0.9,2.1L173.3,19.9z"/>
	<path class="st1" d="M215.9,13c0,1.5-0.6,2.8-1.9,3.9c-1.2,1.1-2.9,1.8-5.1,2.2l7.1,8.7h-3.6l-6.9-8.4h0H199v8.4h-3.3V6.7h10.5
		c1.5,0,2.9,0.2,4.1,0.5c1.2,0.3,2.2,0.8,3,1.3c0.8,0.6,1.4,1.2,1.9,2C215.7,11.3,215.9,12.1,215.9,13z M212.5,13
		c0-1.2-0.5-2.2-1.6-3c-1.1-0.7-2.7-1.1-4.7-1.1H199v8.3h6.9c2.1,0,3.7-0.4,4.9-1.1C212,15.3,212.5,14.3,212.5,13z"/>
	<path class="st1" d="M231.3,8.9v18.9h-3.3V8.9l-9,0V6.7h21.4v2.3L231.3,8.9z"/>
	<path class="st1" d="M247.8,27.8h-3.3V6.7h3.3V27.8z"/>
	<path class="st1" d="M267.5,8.6c-3.4,0-6,0.8-7.9,2.3s-2.8,3.6-2.8,6.4c0,2.8,0.9,4.9,2.8,6.4c1.9,1.5,4.5,2.3,7.8,2.3
		c2.4,0,4.6-0.3,6.5-1l0.8,2c-1.1,0.4-2.2,0.7-3.4,0.9c-1.2,0.2-2.5,0.3-4,0.3c-2.4,0-4.5-0.3-6.2-0.8c-1.7-0.5-3.2-1.3-4.3-2.2
		c-1.1-0.9-2-2.1-2.5-3.4c-0.6-1.3-0.8-2.8-0.8-4.4c0-1.6,0.3-3,0.9-4.4c0.6-1.3,1.5-2.5,2.7-3.4c1.2-0.9,2.6-1.7,4.4-2.2
		c1.7-0.5,3.7-0.8,6-0.8c1.5,0,2.8,0.1,3.9,0.3c1.1,0.2,2.1,0.4,3.1,0.7l-0.8,2C271.9,8.9,269.8,8.6,267.5,8.6z"/>
</g>
</svg>
