<?xml version="1.0" encoding="utf-8"?>
<!-- Generator: Adobe Illustrator 19.2.1, SVG Export Plug-In . SVG Version: 6.00 Build 0)  -->
<svg version="1.1" id="Layer_1" xmlns="http://www.w3.org/2000/svg" xmlns:xlink="http://www.w3.org/1999/xlink" x="0px" y="0px"
	 viewBox="0 0 355.7 33.1" style="enable-background:new 0 0 355.7 33.1;" xml:space="preserve">
<style type="text/css">
	.st0{fill:#F16C28;}
	.st1{fill:#211C1B;}
	.st2{fill:#B0A19E;}
	.st3{fill:#CCC6BF;}
</style>
<g>
	<path class="st0" d="M248,17c-2.6-1.1-3.7-3-3.7-4.9c0-5,5.5-7.6,12-7.6c6.4,0,12.2,2.6,12.2,7.6c0,1.7-1.2,3.8-3.8,4.7
		c3.1,1,4.5,3.6,4.5,5.6c0.1,5.8-6.3,8.1-12.9,8.1c-6.5,0-13-2.2-12.8-8.1C243.5,20.4,244.9,18,248,17z M249.3,22.4
		c0,1.9,2.4,3.7,7,3.7s7-1.8,7-3.7c0-2.5-3.2-3.6-7-3.6C252.8,18.8,249.3,19.9,249.3,22.4z M256.3,15.4c3.5,0,6.2-1.3,6.3-3.5
		c0.1-2.1-2.6-3.5-6.3-3.5c-4.2,0-6.3,1.8-6.3,3.5C250.1,14.1,253,15.4,256.3,15.4z"/>
	<path class="st0" d="M294.8,9.3h-16.1v4.4h5.8c6.3,0,12,2.2,12,8c0,5.7-5.7,8.4-11.7,8.4c-6.6,0-12.2-2-12.2-7.8h5.6
		c0,2.7,3.7,3.5,6.6,3.5c2.7,0,6.2-1.1,6.2-4c0-2.8-3.3-3.6-6.4-3.6h-11.3c0-4.5,0-8.7,0-13.2h21.6V9.3z"/>
	<path class="st0" d="M350.4,9.3h-16.1v4.4h5.8c6.3,0,12,2.2,12,8c0,5.7-5.7,8.4-11.7,8.4c-6.6,0-12.2-2-12.2-7.8h5.6
		c0,2.7,3.7,3.5,6.6,3.5c2.7,0,6.2-1.1,6.2-4c0-2.8-3.3-3.6-6.4-3.6h-11.3c0-4.5,0-8.7,0-13.2h21.6V9.3z"/>
	<path class="st0" d="M299.1,15.5c0-14.9,26.2-14.9,26.2,0v3.6c0,14.9-26.2,14.9-26.2,0V15.5z M304.6,19.1c0,9.1,15,9.1,15,0v-3.6
		c0-8.9-15-9-15,0V19.1z"/>
</g>
<g>
	<path class="st1" d="M8.5,28.2c-2.1,0-3.8-0.1-5.1-0.3C2.1,27.6,0.9,27.4,0,27l0.9-1.9c0.8,0.3,1.9,0.5,3.1,0.8
		c1.2,0.2,2.6,0.3,4.1,0.3c1.1,0,2-0.1,2.9-0.2c0.9-0.1,1.7-0.4,2.3-0.7c0.6-0.3,1.1-0.7,1.5-1.2c0.4-0.5,0.5-1.1,0.5-1.7
		c0-0.7-0.2-1.2-0.6-1.7c-0.4-0.4-0.9-0.8-1.6-1.1c-0.7-0.3-1.4-0.6-2.3-0.8c-0.8-0.2-1.7-0.4-2.7-0.6c-0.9-0.2-1.9-0.5-2.8-0.8
		c-1-0.3-1.9-0.7-2.7-1.1c-0.8-0.4-1.5-1-2-1.7C0.3,13.9,0,13.1,0,12.1c0-0.8,0.2-1.5,0.5-2.2c0.4-0.7,0.9-1.3,1.7-1.8
		c0.8-0.5,1.8-0.9,3-1.2C6.5,6.7,8,6.6,9.7,6.6c1.5,0,2.8,0.1,4,0.3C14.9,7.1,16,7.4,17,7.7l-0.9,1.9c-0.8-0.3-1.8-0.5-2.9-0.7
		C12,8.8,10.9,8.7,9.7,8.7c-2.3,0-4,0.3-5,1c-1,0.6-1.5,1.5-1.5,2.5c0,0.6,0.2,1.1,0.5,1.5c0.4,0.4,0.8,0.8,1.4,1.1
		c0.6,0.3,1.3,0.6,2.1,0.8c0.8,0.2,1.7,0.4,2.6,0.7c1.1,0.2,2.1,0.5,3.1,0.8c1,0.3,2,0.7,2.8,1.2c0.8,0.5,1.5,1,2,1.7
		c0.5,0.7,0.8,1.5,0.8,2.5c0,1-0.2,1.9-0.7,2.6c-0.5,0.7-1.2,1.3-2.1,1.8c-0.9,0.5-2,0.8-3.2,1.1C11.3,28.1,9.9,28.2,8.5,28.2z"/>
	<path class="st1" d="M27.7,27.9h-3.3V6.9h3.3V27.9z"/>
	<path class="st1" d="M35,6.9h3.3v18.9h14.1v2.2H35V6.9z"/>
	<path class="st1" d="M67.6,28.2c-2.2,0-4.2-0.3-5.8-0.8c-1.6-0.5-3-1.3-4.1-2.3c-1.1-1-1.9-2.1-2.4-3.4c-0.5-1.3-0.8-2.8-0.8-4.3
		s0.3-3,0.8-4.3c0.5-1.3,1.3-2.5,2.4-3.4c1.1-1,2.4-1.7,4.1-2.3c1.6-0.5,3.6-0.8,5.8-0.8c2.2,0,4.2,0.3,5.8,0.8
		c1.6,0.5,3,1.3,4.1,2.3c1.1,1,1.9,2.1,2.4,3.4c0.5,1.3,0.8,2.8,0.8,4.3s-0.3,3-0.8,4.3c-0.5,1.3-1.3,2.5-2.4,3.4
		c-1.1,1-2.4,1.7-4.1,2.3C71.8,28,69.8,28.2,67.6,28.2z M67.6,26.3c1.6,0,3.1-0.2,4.3-0.6c1.2-0.4,2.2-1,3-1.8
		c0.8-0.8,1.4-1.7,1.8-2.8c0.4-1.1,0.6-2.3,0.6-3.7s-0.2-2.6-0.6-3.7c-0.4-1.1-1-2-1.8-2.8c-0.8-0.8-1.8-1.4-3-1.8
		c-1.2-0.4-2.6-0.6-4.3-0.6c-1.6,0-3.1,0.2-4.3,0.6c-1.2,0.4-2.3,1-3.1,1.8c-0.8,0.8-1.4,1.7-1.8,2.8c-0.4,1.1-0.6,2.3-0.6,3.7
		s0.2,2.6,0.6,3.7c0.4,1.1,1,2,1.8,2.8c0.8,0.8,1.8,1.4,3.1,1.8C64.5,26,65.9,26.3,67.6,26.3z"/>
	<path class="st1" d="M94.3,18.7L94.3,18.7l-8.5,9.3h-3.7L92.4,17L83,6.9h3.7l7.6,8.4l7.6-8.4h3.7L96.2,17l10.3,10.9h-3.7L94.3,18.7
		z"/>
	<path class="st1" d="M128,22.2h-12.6l-2.9,5.8h-3.4l11-21.1h3.3l11,21.1H131L128,22.2z M116.6,20h10.3l-3.2-6.3
		c-0.3-0.7-0.6-1.4-0.9-2.1c-0.3-0.7-0.6-1.4-0.9-2.1h-0.1c-0.3,0.7-0.6,1.4-0.9,2.1c-0.3,0.7-0.6,1.4-0.9,2.1L116.6,20z"/>
</g>
<g>
	<path class="st2" d="M202.1,28h-3.7V7h3.7V28z M218.1,7h4.4l-14.2,9.8L223,28h-4.5l-14.6-11.2L218.1,7z"/>
	<g>
		<path class="st2" d="M148.9,6.9v2.2h10V28h3.7V9.2c0.3,0,31.7-0.1,31.7-0.1V6.9L148.9,6.9z"/>
		<polygon class="st2" points="178.1,25.8 178.1,18.2 193.3,18.2 193.3,16 178.1,16 178.1,11 174.5,11 174.5,28 194.6,28 
			194.6,25.8 		"/>
	</g>
	<g>
		<path class="st2" d="M147.5,16.1v2H138v-2H147.5z"/>
	</g>
</g>
<g>
	<path class="st3" d="M225.1,5.6c0.1-0.3,0.3-0.6,0.5-0.8c0.2-0.2,0.5-0.4,0.8-0.5c0.3-0.1,0.6-0.2,1-0.2c0.3,0,0.7,0.1,1,0.2
		c0.3,0.1,0.6,0.3,0.8,0.5c0.2,0.2,0.4,0.5,0.5,0.8c0.1,0.3,0.2,0.6,0.2,1c0,0.4-0.1,0.7-0.2,1c-0.1,0.3-0.3,0.6-0.5,0.8
		c-0.2,0.2-0.5,0.4-0.8,0.5c-0.3,0.1-0.6,0.2-1,0.2c-0.3,0-0.7-0.1-1-0.2c-0.3-0.1-0.6-0.3-0.8-0.5c-0.2-0.2-0.4-0.5-0.5-0.8
		c-0.1-0.3-0.2-0.6-0.2-1C224.9,6.3,225,5.9,225.1,5.6z M225.5,7.4c0.1,0.3,0.2,0.5,0.4,0.7c0.2,0.2,0.4,0.3,0.6,0.4
		c0.2,0.1,0.5,0.2,0.8,0.2c0.3,0,0.6-0.1,0.8-0.2c0.2-0.1,0.5-0.3,0.6-0.4c0.2-0.2,0.3-0.4,0.4-0.7c0.1-0.3,0.2-0.5,0.2-0.8
		c0-0.3-0.1-0.6-0.2-0.8c-0.1-0.3-0.2-0.5-0.4-0.7c-0.2-0.2-0.4-0.3-0.6-0.4c-0.2-0.1-0.5-0.2-0.8-0.2c-0.3,0-0.6,0.1-0.8,0.2
		c-0.2,0.1-0.5,0.3-0.6,0.4c-0.2,0.2-0.3,0.4-0.4,0.7c-0.1,0.3-0.2,0.5-0.2,0.8C225.4,6.9,225.4,7.2,225.5,7.4z M227.5,5.2
		c0.3,0,0.6,0.1,0.8,0.2c0.2,0.1,0.2,0.3,0.2,0.6c0,0.3-0.1,0.5-0.2,0.6c-0.1,0.1-0.3,0.2-0.5,0.2l0.8,1.3h-0.5l-0.8-1.2h-0.5v1.2
		h-0.4V5.2H227.5z M227.3,6.4c0.1,0,0.2,0,0.3,0c0.1,0,0.2,0,0.2-0.1c0.1,0,0.1-0.1,0.2-0.1c0-0.1,0.1-0.2,0.1-0.3
		c0-0.1,0-0.2-0.1-0.2c0-0.1-0.1-0.1-0.1-0.1c-0.1,0-0.1-0.1-0.2-0.1c-0.1,0-0.2,0-0.2,0h-0.6v0.9H227.3z"/>
</g>
</svg>
