<?xml version="1.0" encoding="utf-8"?>
<!-- Generator: Adobe Illustrator 19.2.1, SVG Export Plug-In . SVG Version: 6.00 Build 0)  -->
<svg version="1.1" id="Layer_1" xmlns="http://www.w3.org/2000/svg" xmlns:xlink="http://www.w3.org/1999/xlink" x="0px" y="0px"
	 viewBox="0 0 302 33.1" style="enable-background:new 0 0 302 33.1;" xml:space="preserve">
<style type="text/css">
	.st0{fill:#F16C28;}
	.st1{fill:#211C1B;}
</style>
<g>
	<g>
		<path class="st0" d="M225.7,11.9v3.7c1.3-1.7,4.6-2.6,6.9-2.6c6,0,12.3,2.1,12.3,8.3c0,5.5-6.3,8.3-12.4,8.3
			c-6.1,0-12.4-2.7-12.4-8.4V12c0-5.6,6.1-8.2,12.3-8.2c6.5,0,12.2,2.1,12.2,7.4H239c0-2.2-3.3-3.3-6.5-3.3c-3.4,0-6.8,1.5-6.8,4.2
			V11.9z M239.4,21.3c0-2.7-3-4.2-6.7-4.2c-3.7,0-6.9,1.4-6.9,4.2c0,2.7,3.2,4.1,6.9,4.1C236.1,25.4,239.4,24.1,239.4,21.3z"/>
		<path class="st0" d="M270.4,4.3v15.6h3.5v4.6h-3.5v4.7h-5.5v-4.7H249l-0.5-4.8l13.4-15.4H270.4z M264.9,19.9V8.3l-10.1,11.6H264.9
			z"/>
		<path class="st0" d="M299.8,8.7h-16.1v4.4h5.8c6.3,0,12,2.2,12,8c0,5.7-5.7,8.4-11.7,8.4c-6.6,0-12.2-2-12.2-7.8h5.6
			c0,2.7,3.7,3.5,6.6,3.5c2.7,0,6.2-1.1,6.2-4c0-2.8-3.3-3.6-6.4-3.6h-11.3c0-4.5,0-8.7,0-13.2h21.6V8.7z"/>
	</g>
</g>
<g>
	<path class="st1" d="M11,28.1c-1.7,0-3.2-0.2-4.6-0.5C5.1,27.2,3.9,26.7,3,26c-1-0.7-1.7-1.6-2.2-2.7C0.3,22.1,0,20.8,0,19.3V6.5
		h3.3v12.8c0,2.2,0.7,3.9,2,4.9c1.3,1.1,3.2,1.6,5.7,1.6c2.5,0,4.4-0.5,5.7-1.6c1.3-1.1,2-2.7,2-4.9V6.5h3.3v12.8
		c0,1.5-0.3,2.8-0.8,3.9c-0.5,1.1-1.2,2-2.2,2.7c-1,0.7-2.1,1.3-3.5,1.6C14.3,27.9,12.7,28.1,11,28.1z"/>
	<path class="st1" d="M48.1,12.8c0,1.5-0.6,2.9-1.9,4c-1.2,1.1-2.9,1.9-5.1,2.3l7.1,8.8h-3.6l-6.9-8.5h0h-6.5v8.5h-3.3V6.5h10.5
		c1.5,0,2.9,0.2,4.1,0.5c1.2,0.3,2.2,0.8,3,1.3c0.8,0.6,1.4,1.2,1.9,2C47.8,11.1,48.1,11.9,48.1,12.8z M44.7,12.8
		c0-1.3-0.5-2.3-1.6-3c-1.1-0.7-2.7-1.1-4.7-1.1h-7.2v8.3h6.9c2.1,0,3.7-0.4,4.9-1.1C44.1,15.2,44.7,14.2,44.7,12.8z"/>
	<path class="st1" d="M53.6,6.5h17.8v2.2H57v7h13.6v2.2H57v7.7h14.8v2.2H53.6V6.5z"/>
	<path class="st1" d="M88.1,8.7v19.1h-3.3V8.7l-9,0V6.5h21.4v2.3L88.1,8.7z"/>
	<path class="st1" d="M119.5,18h-14.9v9.9h-3.3V6.5h3.3v9.2h14.9V6.5h3.3v21.3h-3.3V18z"/>
	<path class="st1" d="M146.3,22h-12.6l-2.9,5.9h-3.4l11-21.3h3.3l11,21.3h-3.4L146.3,22z M134.9,19.8h10.3l-3.2-6.3
		c-0.3-0.7-0.6-1.4-0.9-2.1c-0.3-0.7-0.6-1.4-0.9-2.1H140c-0.3,0.7-0.6,1.4-0.9,2.1c-0.3,0.7-0.6,1.4-0.9,2.1L134.9,19.8z"/>
	<path class="st1" d="M173.3,20.9c0.6,0.7,1.1,1.3,1.6,2c0.5,0.6,0.9,1.2,1.2,1.7h0.1c-0.1-0.7-0.2-1.4-0.3-2.1
		c0-0.7-0.1-1.5-0.1-2.4V6.5h3.3v21.3h-3.5l-12.4-14.4c-0.6-0.7-1.1-1.3-1.6-2c-0.5-0.7-0.9-1.2-1.2-1.7h-0.1
		c0.1,0.7,0.2,1.4,0.3,2.1c0,0.7,0.1,1.5,0.1,2.4v13.6h-3.3V6.5h3.5L173.3,20.9z"/>
	<path class="st1" d="M186.3,6.5h17.8v2.2h-14.5v7h13.6v2.2h-13.6v7.7h14.8v2.2h-18.1V6.5z"/>
</g>
</svg>
