<?xml version="1.0" encoding="utf-8"?>
<!-- Generator: Adobe Illustrator 19.2.1, SVG Export Plug-In . SVG Version: 6.00 Build 0)  -->
<svg version="1.1" id="Layer_1" xmlns="http://www.w3.org/2000/svg" xmlns:xlink="http://www.w3.org/1999/xlink" x="0px" y="0px"
	 viewBox="0 0 612 71.3" style="enable-background:new 0 0 612 71.3;" xml:space="preserve">
<style type="text/css">
	.st0{fill:#F06B27;}
	.st1{fill:#211C1B;}
	.st2{fill:#CBC5BF;}
</style>
<g>
	<g>
		<g>
			<path class="st0" d="M450,21.4H421v7.9h10.4c11.4,0,21.6,4,21.6,14.6c0,10.3-10.2,15.2-21.1,15.2c-11.9,0-22-3.6-22.1-14.1H420
				c0,5,6.8,6.3,11.9,6.3c4.9,0,11.2-2,11.2-7.4c0.1-5.1-6-6.7-11.5-6.7h-20.4c0-8.2,0-15.8,0-23.9H450L450,21.4L450,21.4z"/>
			<path class="st0" d="M457.8,32.7c0-27.1,47.2-27,47.2,0v6.5c0,27-47.2,27.1-47.2,0V32.7z M467.9,39.2c0,16.5,27.1,16.5,27.1,0
				v-6.5c0-16.2-27.1-16.3-27.1,0V39.2z"/>
			<path class="st0" d="M511.2,32.7c0-27.1,47.2-27,47.2,0v6.5c0,27-47.2,27.1-47.2,0V32.7z M521.3,39.2c0,16.5,27.1,16.5,27.1,0
				v-6.5c0-16.2-27.1-16.3-27.1,0L521.3,39.2L521.3,39.2z"/>
		</g>
		<path class="st0" d="M393,44.4v-6.7c-2.4,3.1-8.1,4.7-12.3,4.7c-10.7,0-22-3.8-22-14.9c0-9.9,11.4-14.9,22-14.9
			c10.8,0,22.2,5,22.2,15v16.7c0,10-10.9,14.6-21.9,14.6c-11.6,0-22.1-3.9-22.1-13.2h10c0,4,6.2,5.9,12,5.9c6,0.1,12.1-2.7,12.1-7.5
			V44.4z M368.7,27.5c0,5,5.3,7.5,12,7.5s12.4-2.6,12.3-7.5c-0.1-5-5.7-7.3-12.3-7.3C374.5,20.1,368.7,22.5,368.7,27.5z"/>
	</g>
	<g>
		<path class="st1" d="M0,14.2h6v39.7h25.3v4.6H0V14.2z"/>
		<path class="st1" d="M46.3,58.5h-6V14.2h6V58.5z"/>
		<path class="st1" d="M76,18.8v39.7h-6V18.8l-16.2,0.1v-4.7h38.4v4.7L76,18.8z"/>
		<path class="st1" d="M132.4,38h-26.8v20.5h-6V14.2h6v19h26.8v-19h6v44.3h-6V38z"/>
		<path class="st1" d="M157.4,58.5h-6V14.2h6V58.5z"/>
	</g>
	<g>
		<path class="st1" d="M287.7,58.5H281V14.3h6.6V58.5z M316.3,14.3h7.9l-25.4,20.6l26.4,23.6H317L290.8,35L316.3,14.3z"/>
		<g>
			<path class="st1" d="M192.2,14.1v4.7h18v39.7h6.6V18.8c0.6,0,56.9-0.1,56.9-0.1v-4.6L192.2,14.1z"/>
			<polygon class="st1" points="244.7,53.9 244.7,37.9 271.8,37.9 271.8,33.3 244.7,33.3 244.7,22.6 238.1,22.6 238.1,58.5 
				274.1,58.5 274.1,53.9 			"/>
		</g>
		<g>
			<path class="st1" d="M188.5,33.5v4.1h-17.1v-4.1H188.5z"/>
		</g>
	</g>
	<g>
		<path class="st2" d="M329,15c0.2-0.5,0.6-1,1-1.4c0.4-0.4,0.9-0.7,1.4-0.9s1.1-0.3,1.7-0.3c0.6,0,1.2,0.1,1.7,0.3
			c0.5,0.2,1,0.5,1.4,0.9c0.4,0.4,0.7,0.9,1,1.4c0.2,0.5,0.4,1.1,0.4,1.7c0,0.6-0.1,1.2-0.4,1.8c-0.2,0.5-0.6,1-1,1.4
			c-0.4,0.4-0.9,0.7-1.4,0.9c-0.5,0.2-1.1,0.3-1.7,0.3c-0.6,0-1.2-0.1-1.7-0.3c-0.5-0.2-1-0.5-1.4-0.9c-0.4-0.4-0.7-0.9-1-1.4
			c-0.2-0.5-0.4-1.1-0.4-1.8C328.6,16.2,328.7,15.6,329,15z M329.7,18.3c0.2,0.5,0.4,0.9,0.8,1.2c0.3,0.3,0.7,0.6,1.2,0.8
			c0.4,0.2,0.9,0.3,1.5,0.3c0.5,0,1-0.1,1.4-0.3c0.4-0.2,0.8-0.5,1.2-0.8c0.3-0.3,0.6-0.7,0.8-1.2c0.2-0.5,0.3-1,0.3-1.5
			c0-0.5-0.1-1-0.3-1.5c-0.2-0.5-0.4-0.9-0.8-1.2c-0.3-0.3-0.7-0.6-1.2-0.8c-0.4-0.2-0.9-0.3-1.4-0.3c-0.5,0-1,0.1-1.5,0.3
			c-0.4,0.2-0.8,0.5-1.2,0.8c-0.3,0.3-0.6,0.7-0.8,1.2c-0.2,0.5-0.3,1-0.3,1.5C329.4,17.3,329.5,17.8,329.7,18.3z M333.3,14.2
			c0.6,0,1.1,0.1,1.4,0.4c0.3,0.2,0.4,0.6,0.4,1.1c0,0.5-0.1,0.8-0.4,1c-0.3,0.2-0.6,0.3-1,0.4l1.5,2.3h-0.9l-1.4-2.2h-0.9v2.2h-0.8
			v-5.2H333.3z M333,16.5c0.2,0,0.4,0,0.5,0c0.2,0,0.3,0,0.4-0.1c0.1-0.1,0.2-0.1,0.3-0.3c0.1-0.1,0.1-0.3,0.1-0.5
			c0-0.2,0-0.3-0.1-0.4c-0.1-0.1-0.2-0.2-0.3-0.2c-0.1-0.1-0.2-0.1-0.4-0.1c-0.1,0-0.3,0-0.4,0h-1.1v1.6H333z"/>
	</g>
</g>
</svg>
