<?xml version="1.0" encoding="utf-8"?>
<!-- Generator: Adobe Illustrator 19.2.1, SVG Export Plug-In . SVG Version: 6.00 Build 0)  -->
<svg version="1.1" id="Layer_1" xmlns="http://www.w3.org/2000/svg" xmlns:xlink="http://www.w3.org/1999/xlink" x="0px" y="0px"
	 viewBox="0 0 612 71.3" style="enable-background:new 0 0 612 71.3;" xml:space="preserve">
<style type="text/css">
	.st0{fill:#9D9FA2;}
	.st1{fill:#F16B27;}
	.st2{fill:#F06A27;}
</style>
<path class="st0" d="M253,54.5h-5.8V15.9h5.8V54.5z M262.7,33.9l22.9,20.6h-7.1L257,35.1V33l21-17.1h6.9L262.7,33.9z"/>
<g>
	<path class="st0" d="M289.1,17.3c0-0.8,0.2-1.5,0.5-2.2s0.7-1.3,1.3-1.8c0.6-0.5,1.2-0.9,2-1.2s1.6-0.4,2.6-0.4s1.8,0.1,2.6,0.4
		c0.8,0.3,1.4,0.7,2,1.2s1,1.1,1.3,1.8s0.5,1.4,0.5,2.2s-0.2,1.5-0.5,2.2s-0.7,1.3-1.3,1.8c-0.6,0.5-1.2,0.9-2,1.2
		c-0.8,0.3-1.6,0.4-2.6,0.4s-1.8-0.1-2.6-0.4c-0.8-0.3-1.5-0.7-2-1.2c-0.6-0.5-1-1.1-1.3-1.8C289.2,18.8,289.1,18.1,289.1,17.3z
		 M301,17.3c0-0.7-0.1-1.3-0.4-1.9c-0.3-0.6-0.6-1.1-1.1-1.6s-1.1-0.8-1.8-1.1c-0.7-0.3-1.4-0.4-2.3-0.4c-0.8,0-1.6,0.1-2.3,0.4
		c-0.7,0.3-1.3,0.6-1.7,1.1c-0.5,0.5-0.9,1-1.1,1.6c-0.3,0.6-0.4,1.2-0.4,1.9c0,0.7,0.1,1.3,0.4,1.9s0.6,1.1,1.1,1.6
		s1.1,0.8,1.7,1.1c0.7,0.3,1.4,0.4,2.3,0.4c0.8,0,1.6-0.1,2.3-0.4c0.7-0.3,1.3-0.6,1.8-1.1s0.9-1,1.1-1.6
		C300.8,18.7,301,18,301,17.3z M298.2,16.2c0,0.5-0.1,0.9-0.4,1.2c-0.3,0.3-0.7,0.5-1.3,0.6l1.6,2.5h-0.8l-1.7-2.5h-1.5v2.5h-0.8
		v-6.1h2.6c0.9,0,1.5,0.2,1.8,0.5C298.1,15.2,298.2,15.7,298.2,16.2z M297.4,16.2c0-0.4-0.1-0.7-0.4-0.9c-0.2-0.2-0.7-0.3-1.2-0.3
		h-1.7v2.4h1.7C296.9,17.4,297.4,17,297.4,16.2z"/>
</g>
<g>
	<polygon class="st0" points="209.7,20 215.5,20 215.5,19.8 240.7,19.8 240.7,15.9 214.1,15.9 214.1,15.8 169.6,15.8 169.6,19.9 
		185.3,19.9 185.3,54.5 191.1,54.5 191.1,19.9 209.7,19.9 	"/>
	<polygon class="st0" points="215.5,50.5 215.5,36.5 239.2,36.5 239.2,32.5 215.5,32.5 215.5,23.2 209.7,23.2 209.7,54.5 
		241.2,54.5 241.2,50.5 	"/>
</g>
<g>
	<path class="st0" d="M166.7,32.7v3.6h-14.9v-3.6H166.7z"/>
</g>
<path class="st1" d="M406.1,21.5H378v7.3h10.1c11.1,0,20.9,3.6,20.9,13.4c0,9.4-9.9,14-20.3,14c-11.4,0-21.2-3.3-21.3-13h9.7
	c0,4.6,6.5,5.8,11.4,5.8c4.8,0,10.8-1.8,10.8-6.7c0.1-4.7-5.8-6.1-11.1-6.1h-19.7c0-7.5,0-14.4,0-22h37.7v7.3
	C406.2,21.5,406.1,21.5,406.1,21.5z"/>
<path class="st1" d="M413.6,31.9c0-24.8,45.6-24.8,45.6,0v6c0,24.8-45.6,24.8-45.6,0V31.9L413.6,31.9z M423.3,37.9
	c0,15.1,26.1,15.1,26.1,0v-6c0-14.9-26.1-15-26.1,0V37.9z"/>
<path class="st1" d="M465.3,31.9c0-24.8,45.6-24.8,45.6,0v6c0,24.8-45.6,24.8-45.6,0V31.9z M475,37.9c0,15.1,26.1,15.1,26.1,0v-6
	c0-14.9-26.1-15-26.1,0V37.9z"/>
<g>
	<path d="M2.9,16.4h4.8v34h22.7v3.5H2.9V16.4z"/>
	<path d="M43.4,53.9h-4.8V16.4h4.8V53.9z"/>
	<path d="M69.7,19.9v34h-4.8v-34c-2.4,0-4.8,0-7.2,0c-2.5,0-4.9,0-7.2,0v-3.6h33.7V20L69.7,19.9z"/>
	<path d="M120.3,36.3H95.8v17.6H91V16.4h4.8v16.4h24.5V16.4h4.8v37.5h-4.8V36.3z"/>
	<path d="M141.6,53.9h-4.8V16.4h4.8V53.9z"/>
</g>
<g>
	<path class="st2" d="M353.7,14.4v26h6.1V48h-6.1v7.9H344V48h-27.8l-0.9-8l23.4-25.7h15V14.4z M344,40.4V21.1l-17.6,19.2L344,40.4
		L344,40.4z"/>
</g>
</svg>
