<?xml version="1.0" encoding="utf-8"?>
<!-- Generator: Adobe Illustrator 19.2.1, SVG Export Plug-In . SVG Version: 6.00 Build 0)  -->
<svg version="1.1" id="Layer_1" xmlns="http://www.w3.org/2000/svg" xmlns:xlink="http://www.w3.org/1999/xlink" x="0px" y="0px"
	 viewBox="0 0 612 71.3" style="enable-background:new 0 0 612 71.3;" xml:space="preserve">
<style type="text/css">
	.st0{fill:#F06B27;}
	.st1{fill:#211C1B;}
	.st2{fill:#AFA19E;}
	.st3{fill:#CBC5BF;}
</style>
<g>
	<g>
		<path class="st0" d="M358.4,23.3h-23v6.3h8.3c9,0,17.1,3.1,17.1,11.6c0,8.1-8.1,12-16.7,12c-9.4,0-17.4-2.9-17.5-11.2h8
			c0,4,5.4,5,9.4,5c3.9,0,8.9-1.6,8.9-5.8c0.1-4.1-4.7-5.3-9.1-5.3h-16.2c0-6.5,0-12.5,0-18.9h30.8L358.4,23.3L358.4,23.3z"/>
		<path class="st0" d="M364.6,32.2c0-21.4,37.4-21.3,37.4,0v5.2c0,21.3-37.4,21.4-37.4,0V32.2z M372.6,37.4c0,13,21.4,13,21.4,0
			v-5.2c0-12.8-21.4-12.9-21.4,0V37.4z"/>
		<path class="st0" d="M406.9,32.2c0-21.4,37.4-21.3,37.4,0v5.2c0,21.3-37.4,21.4-37.4,0V32.2z M414.9,37.4c0,13,21.4,13,21.4,0
			v-5.2c0-12.8-21.4-12.9-21.4,0L414.9,37.4L414.9,37.4z"/>
	</g>
	<path class="st0" d="M313.3,41.5v-5.3c-1.9,2.5-6.4,3.8-9.7,3.8c-8.5,0-17.4-3-17.4-11.8c0-7.8,9-11.8,17.4-11.8
		c8.6,0,17.6,3.9,17.6,11.8v13.2c0,7.9-8.7,11.6-17.3,11.6c-9.2,0-17.5-3.1-17.5-10.5h7.9c0,3.2,4.9,4.7,9.5,4.7
		c4.8,0.1,9.6-2.1,9.6-6V41.5z M294,28.1c0,3.9,4.2,6,9.5,6c5.3,0,9.8-2,9.7-6c-0.1-3.9-4.5-5.8-9.7-5.8
		C298.7,22.3,294,24.2,294,28.1z"/>
</g>
<g>
	<path class="st1" d="M2.2,19.8h4.7v27.5H27v3.2H2.2V19.8z"/>
	<path class="st1" d="M38.8,50.5h-4.7V19.8h4.7V50.5z"/>
	<path class="st1" d="M62.4,23v27.5h-4.7V23l-12.8,0v-3.3h30.4V23L62.4,23z"/>
	<path class="st1" d="M107,36.3H85.8v14.2H81V19.8h4.7V33H107V19.8h4.7v30.7H107V36.3z"/>
	<path class="st1" d="M126.8,50.5h-4.7V19.8h4.7V50.5z"/>
</g>
<g>
	<path class="st2" d="M229.9,50.5h-5.3V19.8h5.3V50.5z M252.6,19.8h6.3l-20.1,14.3l20.9,16.4h-6.4l-20.7-16.3L252.6,19.8z"/>
	<g>
		<path class="st2" d="M154.3,19.7V23h14.2v27.5h5.3V23c0.5,0,45-0.1,45-0.1v-3.2L154.3,19.7z"/>
		<polygon class="st2" points="195.9,47.3 195.9,36.2 217.4,36.2 217.4,33 195.9,33 195.9,25.6 190.7,25.6 190.7,50.5 219.2,50.5 
			219.2,47.3 		"/>
	</g>
	<g>
		<path class="st2" d="M151.4,33.2V36h-13.5v-2.9H151.4z"/>
	</g>
</g>
<g>
	<path class="st3" d="M262.6,18.3c0.2-0.4,0.4-0.8,0.8-1.1c0.3-0.3,0.7-0.6,1.1-0.7c0.4-0.2,0.9-0.3,1.4-0.3c0.5,0,0.9,0.1,1.4,0.3
		c0.4,0.2,0.8,0.4,1.1,0.7c0.3,0.3,0.6,0.7,0.8,1.1c0.2,0.4,0.3,0.9,0.3,1.4c0,0.5-0.1,1-0.3,1.4c-0.2,0.4-0.4,0.8-0.8,1.1
		c-0.3,0.3-0.7,0.6-1.1,0.7c-0.4,0.2-0.9,0.3-1.4,0.3c-0.5,0-0.9-0.1-1.4-0.3c-0.4-0.2-0.8-0.4-1.1-0.7c-0.3-0.3-0.6-0.7-0.8-1.1
		c-0.2-0.4-0.3-0.9-0.3-1.4C262.3,19.1,262.4,18.7,262.6,18.3z M263.2,20.8c0.1,0.4,0.4,0.7,0.6,1c0.3,0.3,0.6,0.5,0.9,0.6
		c0.4,0.2,0.7,0.2,1.1,0.2c0.4,0,0.8-0.1,1.1-0.2c0.4-0.2,0.7-0.4,0.9-0.6c0.3-0.3,0.5-0.6,0.6-1c0.1-0.4,0.2-0.8,0.2-1.2
		c0-0.4-0.1-0.8-0.2-1.2c-0.1-0.4-0.4-0.7-0.6-0.9c-0.3-0.3-0.6-0.5-0.9-0.6c-0.4-0.2-0.7-0.2-1.1-0.2c-0.4,0-0.8,0.1-1.1,0.2
		c-0.4,0.2-0.7,0.4-0.9,0.6c-0.3,0.3-0.5,0.6-0.6,0.9c-0.1,0.4-0.2,0.8-0.2,1.2C263,20.1,263,20.5,263.2,20.8z M266.1,17.6
		c0.5,0,0.8,0.1,1.1,0.3c0.2,0.2,0.4,0.5,0.4,0.9c0,0.4-0.1,0.6-0.3,0.8c-0.2,0.2-0.5,0.3-0.8,0.3l1.2,1.8h-0.7l-1.1-1.8h-0.7v1.8
		h-0.6v-4.1H266.1z M265.8,19.4c0.1,0,0.3,0,0.4,0c0.1,0,0.2,0,0.3-0.1c0.1,0,0.2-0.1,0.2-0.2c0.1-0.1,0.1-0.2,0.1-0.4
		c0-0.1,0-0.2-0.1-0.3c-0.1-0.1-0.1-0.1-0.2-0.2c-0.1,0-0.2-0.1-0.3-0.1c-0.1,0-0.2,0-0.3,0h-0.8v1.3H265.8z"/>
</g>
</svg>
