<?xml version="1.0" encoding="utf-8"?>
<!-- Generator: Adobe Illustrator 22.0.1, SVG Export Plug-In . SVG Version: 6.00 Build 0)  -->
<svg version="1.1" id="Layer_7" xmlns="http://www.w3.org/2000/svg" xmlns:xlink="http://www.w3.org/1999/xlink" x="0px" y="0px"
	 viewBox="0 0 100 100" style="enable-background:new 0 0 100 100;" xml:space="preserve">
<style type="text/css">
	.st0{fill:#E7485A;}
</style>
<g>
	<path class="st0" d="M86.7,24.3L52.2,4.2c-2.1-1.2-4.6-1.2-6.7,0l-34.3,20C9,25.3,7.8,27.6,7.8,30V70c0,2.5,1.3,4.7,3.3,5.8
		L45.6,96c2,1.3,4.6,1.3,6.6,0l34.5-20c2.1-1.2,3.3-3.5,3.3-5.8V30.1C90,27.6,88.7,25.5,86.7,24.3z M85.1,68.2c0,2-1,3.7-2.6,4.7
		l-30.9,18c-1.6,0.8-3.6,0.8-5.3,0l-30.9-18c-1.6-1-2.6-2.7-2.6-4.7V32.1c0-2,1-3.7,2.6-4.7L46.3,9.3c1.6-1,3.6-1,5.3,0l30.9,18.1
		c1.6,1,2.6,2.7,2.6,4.7V68.2z"/>
	<polygon class="st0" points="67.7,75 67.7,68.7 74.1,68.7 74.1,63.9 67.7,63.9 67.7,57.4 67.7,57.2 62.6,57.2 62.6,63.7 56.3,63.7 
		56.3,68.5 62.6,68.5 62.6,75 	"/>
	<path class="st0" d="M58.1,50.1c-3.5-7.3-10-28-10-28s-6.6,20.6-10,28c-3.5,7.5-5.8,16.8-1.5,22.3c4.3,5.5,9.4,6.2,11.5,6.2
		s7.2-0.7,11.5-6.2c0.2-0.3,0.3-0.6,0.5-0.8v-0.3h-3.8h-2.5v-2.5v-4.8v-2.5h2.5h3.8v-4v-2.3C59.5,53.4,58.9,51.7,58.1,50.1z
		 M41.2,57.6c-0.7,2.7-2,4.6-3,4.4s-1.2-2.6-0.6-5.3c0.7-2.7,2-4.6,3-4.4S41.9,54.9,41.2,57.6z M41.5,50.2c-0.5,0-1-0.4-1-1
		s0.4-1,1-1c0.5,0,1,0.4,1,1S42.1,50.2,41.5,50.2z"/>
</g>
</svg>
