<?xml version="1.0" encoding="utf-8"?>
<!-- Generator: Adobe Illustrator 22.0.1, SVG Export Plug-In . SVG Version: 6.00 Build 0)  -->
<svg version="1.1" id="Layer_8" xmlns="http://www.w3.org/2000/svg" xmlns:xlink="http://www.w3.org/1999/xlink" x="0px" y="0px"
	 viewBox="0 0 100 100" style="enable-background:new 0 0 100 100;" xml:space="preserve">
<style type="text/css">
	.st0{fill:#E7485A;}
</style>
<g>
	<path class="st0" d="M88.3,25.5L50.4,3.7c-1-0.6-2.1-0.6-3.1,0L9.4,25.5c-1,0.6-1.5,1.6-1.5,2.7v43.7c0,1.1,0.6,2.1,1.5,2.7
		l37.9,21.8c1,0.5,2.1,0.5,3.1,0l37.9-21.8c1-0.6,1.5-1.6,1.5-2.7V28.2C89.9,27.1,89.3,26.1,88.3,25.5z M84.9,69.1
		c0,1.1-0.6,2.1-1.5,2.7l-33,19.1c-1,0.6-2.1,0.6-3.1,0l-33-19.1c-1-0.6-1.5-1.6-1.5-2.7V31c0-1.1,0.6-2.1,1.5-2.7l33-19.1
		c1-0.6,2.1-0.6,3.1,0l33,19.1c1,0.6,1.5,1.6,1.5,2.7V69.1z"/>
	<g>
		<g>
			<polygon class="st0" points="55.6,50.3 50.8,49 49.1,56.5 54,57.5 			"/>
		</g>
		<g>
			<polyline class="st0" points="53.9,57.5 54,57.5 54.1,57.4 			"/>
			<line class="st0" x1="49.6" y1="56.6" x2="53.2" y2="57.3"/>
			<polyline class="st0" points="49.1,56.5 49.1,56.5 49.2,56.5 			"/>
			<line class="st0" x1="50.8" y1="49.2" x2="49.2" y2="56.1"/>
			<polyline class="st0" points="51,49 50.9,49 50.9,49 			"/>
			<line class="st0" x1="55.2" y1="50.2" x2="51.7" y2="49.2"/>
			<polyline class="st0" points="55.7,50.4 55.7,50.3 55.6,50.3 			"/>
			<line class="st0" x1="54.1" y1="57.3" x2="55.6" y2="50.7"/>
		</g>
	</g>
	<polygon class="st0" points="49.6,93.8 48.4,93.8 18.7,77.2 79.5,77.2 	"/>
	<path class="st0" d="M58.8,66c0-8.5-1.4-12.2-2.6-12.8l-0.8,3.7c2.3,1.1,2.3,7.8,2.3,7.8c-0.2,3.7-0.5,7.1-0.7,8.7
		c-0.2,1.8-32,1.8-32,1.8h48.9c0,0-14.1,0-14.6-1.8C58.7,71.9,58.8,68.9,58.8,66z"/>
	<g>
		<path class="st0" d="M57,30.5c0,0-0.4-1-2.7-0.6c0,0-12.9-7-25.3-9.2c0,0-1.9-0.3-5-1.1l-12.8,8.3v29.9l1.1,0.3l0.2-0.1l0.9,0.2
			l0.2,0.2l3.2,0.7l0.2-0.1l1,0.2l0.1,0.1l3,0.7l0.2-0.1l1.2,0.3l0.1,0.2l1.3,0.3c0,0,1.7,0.5,3.8,0.3c2.1-0.2,16.4-3.3,16.4-3.3
			s0.9-0.4,3.4,0.2l0.2,0.1L50,47.1c0,0-0.4,0-0.4-0.3c0,0,0.3-1,1-1.9s6.1-6.5,6.6-8.2C57.7,34.9,58.4,33.3,57,30.5z M50.9,35.7
			l-3,2.5c0,0-1.2,0.6-2.4-0.1c-1.2-0.7-5.2-3.3-12.4-6.9c0,0-1.3-0.7-0.8-2.4c0.5-1.6,2.3-1.4,2.9-1.2c0.7,0.2,9.8,2.5,15.6,6.9
			C50.8,34.5,51.4,35,50.9,35.7z"/>
	</g>
</g>
</svg>
