<?xml version="1.0" encoding="utf-8"?>
<!-- Generator: Adobe Illustrator 22.0.1, SVG Export Plug-In . SVG Version: 6.00 Build 0)  -->
<svg version="1.1" id="Layer_4" xmlns="http://www.w3.org/2000/svg" xmlns:xlink="http://www.w3.org/1999/xlink" x="0px" y="0px"
	 viewBox="0 0 100 100" style="enable-background:new 0 0 100 100;" xml:space="preserve">
<style type="text/css">
	.st0{fill:#E96937;}
</style>
<g>
	<g>
		<path class="st0" d="M47.4,3.1L9.4,25c-1,0.6-1.6,1.6-1.6,2.7v43.7c0,1.1,0.6,2.1,1.6,2.7l38,21.8c1,0.6,2.1,0.6,3.1,0l38-21.8
			c1-0.6,1.6-1.6,1.6-2.7V27.6c0-1.1-0.6-2.1-1.6-2.7l-38-21.8C49.5,2.6,48.3,2.6,47.4,3.1z M83.5,71.2L50.5,90.3
			c-1,0.6-2.1,0.6-3.1,0L14.3,71.2c-1-0.6-1.5-1.6-1.5-2.7V30.4c0-1.1,0.6-2.1,1.5-2.7l33.1-19c1-0.6,2.1-0.6,3.1,0l33.1,19
			c1,0.6,1.5,1.6,1.5,2.7v38.1C85.1,69.6,84.5,70.7,83.5,71.2z"/>
	</g>
	<g>
		<polygon class="st0" points="30,83.1 25.7,80.3 67.3,18.1 71.6,20.9 		"/>
	</g>
	<g>
		<path class="st0" d="M49,75.3c-3.9,0-7.8,0-11.8,0c-3.2,0-5.3-2.6-4.4-5.9c0.7-2.5,1.8-4.9,2.8-7.2c2.3-5.5,4.7-11.1,7-16.6
			c0.3-0.6,0.4-1.4,0.4-2.1c0.1-2.1,0-4.3,0-6.4c0-0.7-0.1-1.1-0.8-1.4c-1.4-0.6-1.9-1.8-1.6-3.4c0.2-1.3,1.3-2.2,2.6-2.3
			c3.8-0.1,7.6-0.1,11.4,0c1.4,0,2.5,1,2.7,2.3c0.3,1.6-0.3,2.7-1.8,3.5c-0.3,0.2-0.7,0.7-0.7,1c-0.1,2.4-0.1,4.7,0,7.1
			c0,0.6,0.3,1.2,0.5,1.8c3,7,6,14,8.9,21.1c0.5,1.2,0.8,2.6,0.9,3.9c0.1,2.5-1.8,4.4-4.2,4.4C57,75.3,53,75.3,49,75.3z M44.3,34.7
			c0,3.1,0,6.1,0,9.1c0,0.8-0.2,1.6-0.5,2.3c-2.4,5.7-4.8,11.4-7.2,17c-0.9,2.2-1.9,4.4-2.5,6.7c-0.6,2.1,0.8,3.9,2.9,4
			c0.5,0,1.1,0,1.6,0c7.4,0,14.7,0,22.1,0c2.5,0,3.8-1.8,3.2-4.3c-0.2-0.7-0.4-1.5-0.7-2.1c-2.2-5.2-4.2-10.6-6.7-15.7
			c-2.2-4.6-3.4-9.2-2.8-14.3c0.1-0.9,0-1.8,0-2.7c0.3,0,0.4-0.1,0.5-0.1c1.4-0.1,2-0.6,2-1.6c0-1-0.7-1.5-2.1-1.5
			c-1.8,0-3.5,0-5.3,0c-1.8,0-3.6,0-5.4,0c-0.8,0-1.4,0.5-1.4,1.4c0,0.9,0.5,1.4,1.3,1.6C43.5,34.7,43.8,34.7,44.3,34.7z"/>
		<path class="st0" d="M55.9,75.9c-1.2,0-2.3,0-3.5,0H37.2c-1.8,0-3.4-0.8-4.3-2.1c-0.9-1.3-1.1-2.9-0.7-4.6
			c0.6-2.1,1.5-4.2,2.3-6.1l0.5-1.2c1.2-2.8,2.4-5.6,3.5-8.4c1.2-2.7,2.3-5.5,3.5-8.2c0.2-0.5,0.4-1.2,0.4-1.8c0-1.2,0-2.4,0-3.7
			c0-0.9,0-1.8,0-2.7c0-0.5,0-0.6-0.4-0.8c-1.6-0.7-2.3-2.2-1.9-4.1c0.3-1.6,1.6-2.8,3.2-2.8c3.8-0.1,7.6-0.1,11.5,0
			c1.7,0,3,1.2,3.3,2.8c0.3,1.9-0.4,3.2-2.1,4.2c-0.1,0.1-0.3,0.4-0.3,0.5c-0.1,2.4-0.1,4.8,0,7.1c0,0.5,0.2,1,0.4,1.5
			c1,2.4,2,4.8,3,7.1c2,4.7,4,9.4,5.9,14.1c0.5,1.3,0.9,2.8,0.9,4.2c0.1,1.3-0.4,2.6-1.2,3.5c-0.9,1-2.2,1.6-3.6,1.6
			C59.3,75.9,57.6,75.9,55.9,75.9z M49,74.6l3.5,0c2.9,0,5.8,0,8.7,0c1.1,0,2-0.4,2.7-1.2c0.6-0.7,0.9-1.6,0.9-2.6
			c0-1.2-0.3-2.6-0.8-3.7c-2-4.7-3.9-9.4-5.9-14.1c-1-2.3-2-4.6-2.9-6.9c0.5,1.7,1.1,3.5,2,5.3c1.8,3.7,3.3,7.5,4.8,11.2
			c0.6,1.5,1.2,3,1.9,4.5c0.4,0.9,0.6,1.6,0.8,2.3c0.3,1.4,0.1,2.7-0.6,3.6c-0.7,1-1.9,1.5-3.3,1.5c-5.4,0-10.7,0-16,0l-6.5,0
			c-0.4,0-0.8,0-1.2,0c-1.3-0.1-2.4-0.7-3.1-1.7c-0.6-0.9-0.8-2-0.4-3.2c0.7-2.2,1.6-4.4,2.4-6.4l0.1-0.3c1.1-2.7,2.3-5.5,3.5-8.2
			c1.3-2.9,2.5-5.9,3.8-8.8c0.3-0.6,0.4-1.3,0.4-2.1c0-2.2,0-4.4,0-6.7l0-1.8c-0.2,0-0.4,0-0.6-0.1c-1.6-0.4-1.8-1.6-1.7-2.3
			c0.1-1.2,0.8-2,2-2c1.4,0,2.9,0,4.3,0l1.2,0c1.8,0,3.5,0,5.3,0c2.3,0,2.7,1.4,2.7,2.2c0,1.4-0.8,2.1-2.5,2.2c0,0.1,0,0.2,0,0.3
			c0,0.6,0,1.3,0,2c-0.2,1.9-0.2,3.8,0.1,5.7c0-2,0-4.1,0-6.3c0-0.6,0.5-1.3,1-1.6c1.3-0.7,1.7-1.5,1.5-2.8c-0.2-1.1-1-1.8-2.1-1.8
			c-3.8-0.1-7.7-0.1-11.4,0c-1,0-1.9,0.7-2.1,1.8c-0.3,1.3,0.2,2.2,1.2,2.6c1,0.5,1.2,1.2,1.1,2c0,0.9,0,1.8,0,2.7
			c0,1.2,0,2.5,0,3.7c0,0.8-0.2,1.6-0.5,2.3c-1.1,2.7-2.3,5.5-3.5,8.2c-1.2,2.8-2.4,5.6-3.5,8.4l-0.5,1.2c-0.8,1.9-1.7,3.9-2.2,6
			c-0.4,1.3-0.2,2.5,0.5,3.4c0.7,1,1.9,1.6,3.4,1.6l7.8,0L49,74.6z M51.4,32.1c-0.9,0-1.8,0-2.7,0h-1.2c-1.4,0-2.8,0-4.2,0
			c-0.5,0-0.8,0.3-0.8,0.8c0,0.4,0.1,0.7,0.8,1c0.2,0,0.3,0,0.5,0.1l1,0.1l0,3c0,2.3,0,4.5,0,6.7c0,0.9-0.2,1.8-0.5,2.6
			c-1.2,3-2.5,5.9-3.8,8.8c-1.2,2.7-2.3,5.5-3.5,8.2L37,63.7c-0.9,2-1.7,4.2-2.4,6.3c-0.2,0.7-0.1,1.5,0.3,2.1
			c0.4,0.7,1.2,1.1,2.1,1.1c0.4,0,0.7,0,1.1,0l0.5,0l6,0c5.3,0,10.7,0,16,0c1,0,1.8-0.4,2.3-1c0.5-0.6,0.6-1.5,0.3-2.5
			c-0.1-0.6-0.3-1.2-0.7-2c-0.6-1.5-1.3-3-1.9-4.6c-1.5-3.7-3.1-7.5-4.8-11.1c-2.5-5.2-3.4-9.8-2.9-14.7c0.1-0.6,0-1.2,0-1.8
			c0-0.3,0-0.6,0-0.8v-0.6l0.8-0.1c0.2,0,0.2,0,0.3,0c1.5-0.1,1.4-0.6,1.4-0.9c0-0.3,0-0.9-1.5-0.9C53.2,32.1,52.3,32.1,51.4,32.1z"
			/>
		<path class="st0" d="M50.5,26.9c-1.3,0-2.1-0.9-2.1-2.3c0-1.2,0.9-2.2,2.1-2.2c1.2,0,2.1,1,2.1,2.3C52.7,26,51.8,26.9,50.5,26.9z"
			/>
		<path class="st0" d="M49.9,14c0.5,0,0.9,0.4,0.9,1c0,0.6-0.4,1-0.9,1c-0.6,0-1-0.4-1-1C49,14.5,49.3,14,49.9,14z"/>
		<path class="st0" d="M45.3,19.4c0.7,0,1.4,0.7,1.3,1.5c0,0.7-0.7,1.4-1.5,1.3c-0.8,0-1.2-0.6-1.2-1.4
			C43.9,19.9,44.5,19.4,45.3,19.4z"/>
		<path class="st0" d="M46.1,40.4c0-0.5,0-0.8,0-1.3c1,0,2,0,3,0c0,0.4,0,0.8,0,1.3C48.2,40.4,47.2,40.4,46.1,40.4z"/>
		<path class="st0" d="M46.1,36c0-0.5,0-0.8,0-1.3c1,0,2,0,3,0c0,0.4,0,0.8,0,1.3C48.2,36,47.2,36,46.1,36z"/>
		<path class="st0" d="M48.9,71.1c-2.7,0-5.4,0-8.1,0c-2.4,0-3.6-1.6-2.8-3.9c1-2.9,2.5-5.7,3.5-8.6c0.7-2.1,1.7-3,4-2.8
			c1.7,0.1,3.4-0.7,5.1-1.2c0.5-0.1,1-0.4,1.5-0.6c1.7-0.6,2.4-0.2,3.1,1.4c1.5,3.5,3,7,4.5,10.6c0.3,0.7,0.5,1.5,0.5,2.2
			c0.1,1.9-0.9,2.9-2.8,2.9C54.5,71.1,51.7,71.1,48.9,71.1z"/>
	</g>
</g>
</svg>
