<?xml version="1.0" encoding="utf-8"?>
<!-- Generator: Adobe Illustrator 22.0.1, SVG Export Plug-In . SVG Version: 6.00 Build 0)  -->
<svg version="1.1" id="Layer_2" xmlns="http://www.w3.org/2000/svg" xmlns:xlink="http://www.w3.org/1999/xlink" x="0px" y="0px"
	 viewBox="0 0 100 100" style="enable-background:new 0 0 100 100;" xml:space="preserve">
<style type="text/css">
	.st0{fill:#E96937;}
</style>
<g>
	<g>
		<path class="st0" d="M47.3,4.1L9.4,25.9c-1,0.6-1.5,1.6-1.5,2.7v43.7c0,1.1,0.6,2.1,1.5,2.7l37.9,21.8c1,0.6,2.1,0.6,3.1,0
			l37.9-21.8c1-0.6,1.5-1.6,1.5-2.7V28.6c0-1.1-0.6-2.1-1.5-2.7L50.4,4.1C49.4,3.5,48.3,3.5,47.3,4.1z M83.4,72.1l-33,19.1
			c-1,0.6-2.1,0.6-3.1,0l-33-19.1c-1-0.6-1.5-1.6-1.5-2.7V31.4c0-1.1,0.6-2.1,1.5-2.7l33-19c1-0.6,2.1-0.6,3.1,0l33,19
			c1,0.6,1.5,1.6,1.5,2.7v38.1C84.9,70.6,84.3,71.6,83.4,72.1z"/>
	</g>
	<g>
		
			<rect x="11.2" y="48.9" transform="matrix(0.5555 -0.8315 0.8315 0.5555 -21.2415 63.3266)" class="st0" width="74.8" height="5.2"/>
	</g>
	<path class="st0" d="M41.2,23.5c0,0-12,14-12,22.9s5.4,15.3,12,15.3c6.7,0,12-6.3,12-15.3S41.2,23.5,41.2,23.5z M36,44.3
		c-0.4,2.7-1.6,4.8-2.6,4.6c-1-0.2-1.4-2.5-1-5.2c0.4-2.7,1.6-4.8,2.6-4.6C36,39.2,36.4,41.6,36,44.3z"/>
	<path class="st0" d="M61.8,51.5c0,0-6.4,7.4-6.4,12.2s2.9,8.1,6.4,8.1c3.5,0,6.4-3.4,6.4-8.1S61.8,51.5,61.8,51.5z M58.9,66
		c-0.5,0-0.9-1.2-0.8-2.6c0.1-1.4,0.6-2.5,1.1-2.5c0.5,0,0.9,1.2,0.8,2.6S59.4,66,58.9,66z"/>
</g>
</svg>
