<?xml version="1.0" encoding="utf-8"?>
<!-- Generator: Adobe Illustrator 22.0.1, SVG Export Plug-In . SVG Version: 6.00 Build 0)  -->
<svg version="1.1" id="Layer_1" xmlns="http://www.w3.org/2000/svg" xmlns:xlink="http://www.w3.org/1999/xlink" x="0px" y="0px"
	 viewBox="0 0 100 100" style="enable-background:new 0 0 100 100;" xml:space="preserve">
<style type="text/css">
	.st0{fill:#E96937;}
</style>
<g>
	<g>
		<path class="st0" d="M47.3,4.1L9.4,25.9c-1,0.6-1.5,1.6-1.5,2.7v43.7c0,1.1,0.6,2.1,1.5,2.7l37.9,21.8c1,0.6,2.1,0.6,3.1,0
			L88.3,75c1-0.6,1.5-1.6,1.5-2.7V28.6c0-1.1-0.6-2.1-1.5-2.7L50.4,4.1C49.4,3.5,48.3,3.5,47.3,4.1z M83.4,72.2l-33,19.1
			c-1,0.6-2.1,0.6-3.1,0l-33-19.1c-1-0.6-1.5-1.6-1.5-2.7V31.4c0-1.1,0.6-2.1,1.5-2.7l33-19c1-0.6,2.1-0.6,3.1,0l33,19
			c1,0.6,1.5,1.6,1.5,2.7v38.1C84.9,70.6,84.3,71.6,83.4,72.2z"/>
	</g>
	<g>
		
			<rect x="11.2" y="49" transform="matrix(0.5555 -0.8315 0.8315 0.5555 -21.2733 63.3437)" class="st0" width="74.8" height="5.2"/>
	</g>
	<path class="st0" d="M76.2,49l-2.5-2.7l0,0c-0.1-0.1-0.1-0.1-0.2-0.2c0,0,0,0,0,0c-0.1,0-0.1-0.1-0.2-0.1c0,0-0.1,0-0.1,0
		c0,0-0.1,0-0.1,0c0,0-0.1,0-0.1,0c0,0-0.1,0-0.1,0c0,0-0.1,0-0.1,0c0,0-0.1,0-0.1,0l-18.5,1.6l-2.5-2.5c-0.2-0.1-0.3-0.3-0.5-0.3
		l-8.2-2.2l0.5-1.9l4,1c0.7,0.2,1.3-0.2,1.5-0.9c0.2-0.7-0.2-1.3-0.9-1.5L38,36.8c-0.7-0.2-1.3,0.2-1.5,0.9
		c-0.2,0.7,0.2,1.3,0.9,1.5l3.6,0.9L40.5,42l-8.7-2.3c0,0-0.1,0-0.1,0l-5.1-4.8c-0.4-0.4-1-0.5-1.5-0.2L21.3,37
		c-0.5,0.3-0.8,1-0.5,1.6l6.3,14.1L27,53.2c-0.2,0.7,0.2,1.3,0.9,1.5l19.1,5c0.3,0.1,0.6,0,0.8-0.1l24.6-11l1.9,2
		c0.2,0.2,0.4,0.3,0.6,0.3c0.4,0.1,0.8,0,1.2-0.3C76.6,50.3,76.6,49.5,76.2,49z M28.2,48.8l-4.5-10.2l2-1.2l4.5,4.2L28.2,48.8z"/>
	<g>
		<path class="st0" d="M75.5,65.7c-1.4,0-2.5-1.3-2.5-3.2c0-1.9,2.5-4.8,2.5-4.8s2.5,2.9,2.5,4.8C78,64.4,76.9,65.7,75.5,65.7z"/>
	</g>
</g>
</svg>
