<?xml version="1.0" encoding="utf-8"?>
<!-- Generator: Adobe Illustrator 22.0.1, SVG Export Plug-In . SVG Version: 6.00 Build 0)  -->
<svg version="1.1" id="Layer_3" xmlns="http://www.w3.org/2000/svg" xmlns:xlink="http://www.w3.org/1999/xlink" x="0px" y="0px"
	 viewBox="0 0 100 100" style="enable-background:new 0 0 100 100;" xml:space="preserve">
<style type="text/css">
	.st0{fill:#E96937;}
</style>
<g>
	<g>
		<path class="st0" d="M47.4,3.6l-38,21.8c-1,0.6-1.6,1.6-1.6,2.7v43.7c0,1.1,0.6,2.1,1.6,2.7l38,21.8c1,0.6,2.1,0.6,3.1,0l38-21.8
			c1-0.6,1.6-1.6,1.6-2.7V28.1c0-1.1-0.6-2.1-1.6-2.7l-38-21.8C49.5,3,48.3,3,47.4,3.6z M83.5,71.7L50.5,90.7c-1,0.6-2.1,0.6-3.1,0
			L14.3,71.7c-1-0.6-1.5-1.6-1.5-2.7V30.9c0-1.1,0.6-2.1,1.5-2.7l33.1-19c1-0.6,2.1-0.6,3.1,0l33.1,19c1,0.6,1.5,1.6,1.5,2.7V69
			C85.1,70.1,84.5,71.1,83.5,71.7z"/>
	</g>
	<g>
		<polygon class="st0" points="30,83.6 25.7,80.7 67.3,18.5 71.6,21.4 		"/>
	</g>
	<g>
		<path class="st0" d="M42.2,36.9h4.6v24.6H44v0L31.1,44.9v16.5h-4.6V36.9h3.8l12,15.2V36.9z"/>
		<path class="st0" d="M65.4,44.2h4.1v17.3h-4l-0.2-2.5c-1,2-3.7,3-5.6,3c-5.1,0-8.9-3.1-8.9-9.2c0-6,4-9.1,9-9
			c2.3,0,4.5,1.1,5.5,2.8L65.4,44.2z M55,52.8c0,3.3,2.3,5.3,5.1,5.3c6.7,0,6.7-10.5,0-10.5C57.3,47.6,55,49.5,55,52.8z"/>
	</g>
</g>
</svg>
