<?xml version="1.0" encoding="utf-8"?>
<!-- Generator: Adobe Illustrator 22.0.1, SVG Export Plug-In . SVG Version: 6.00 Build 0)  -->
<svg version="1.1" id="Layer_5" xmlns="http://www.w3.org/2000/svg" xmlns:xlink="http://www.w3.org/1999/xlink" x="0px" y="0px"
	 viewBox="0 0 100 100" style="enable-background:new 0 0 100 100;" xml:space="preserve">
<style type="text/css">
	.st0{fill:#4E408B;}
</style>
<g>
	<g>
		<g>
			<path class="st0" d="M47.3,3.3L9.4,25.1c-1,0.6-1.5,1.6-1.5,2.7v43.7c0,1.1,0.6,2.1,1.5,2.7L47.3,96c1,0.6,2.1,0.6,3.1,0
				l37.9-21.8c1-0.6,1.5-1.6,1.5-2.7V27.8c0-1.1-0.6-2.1-1.5-2.7L50.4,3.3C49.4,2.7,48.3,2.7,47.3,3.3z M83.4,71.4l-33,19.1
				c-1,0.6-2.1,0.6-3.1,0l-33-19.1c-1-0.6-1.5-1.6-1.5-2.7V30.6c0-1.1,0.6-2.1,1.5-2.7l33-19.1c1-0.6,2.1-0.6,3.1,0l33,19.1
				c1,0.6,1.5,1.6,1.5,2.7v38.1C84.9,69.8,84.3,70.8,83.4,71.4z"/>
		</g>
		<g>
			<path class="st0" d="M35.1,38c-0.6,0.2-1,0.6-1.5,1c-0.4,0.4-0.7,0.9-1,1.4c-0.2,0.6-0.4,1.1-0.4,1.8c0,0.7,0.2,1.3,0.5,1.7
				c0.3,0.5,0.7,0.9,1.3,1.4c0.6,0.4,1.2,0.8,2.1,1.2c0.8,0.4,1.7,0.8,2.7,1.3c1.3,0.6,2.5,1.2,3.5,1.9c1,0.7,1.8,1.4,2.4,2.2
				c0.7,0.8,1.1,1.7,1.5,2.6c0.3,1,0.5,2.1,0.5,3.3c0,1.3-0.2,2.4-0.7,3.5c-0.4,1-1,1.9-1.8,2.7s-1.7,1.3-2.8,1.8
				c-1.1,0.4-2.3,0.6-3.7,0.6h-2.1c-1.2,0-2.3-0.1-3.2-0.4c-0.9-0.3-1.7-0.6-2.3-1.1c-1-0.8-1.7-1.5-2.2-2.1
				c-0.5-0.7-0.7-1.2-0.7-1.6c0-0.1,0.1-0.3,0.3-0.4l3.2-1.6c0.1-0.1,0.2-0.1,0.3-0.1c0.1,0,0.3,0.1,0.5,0.4
				c0.3,0.4,0.6,0.8,0.8,1.1c0.3,0.3,0.5,0.6,0.8,0.9c0.3,0.3,0.7,0.5,1.1,0.6c0.4,0.1,0.9,0.2,1.5,0.2h2.1c1.2,0,2.3-0.4,3.2-1.3
				c0.9-0.9,1.3-1.9,1.3-3.2c0-0.7-0.1-1.3-0.4-1.9c-0.3-0.5-0.7-1-1.2-1.5c-0.5-0.5-1.2-0.9-1.9-1.3c-0.8-0.4-1.6-0.8-2.6-1.3
				c-1.3-0.6-2.5-1.3-3.6-1.9c-1-0.6-1.9-1.3-2.6-2c-0.7-0.7-1.2-1.6-1.6-2.5s-0.5-2-0.5-3.3c0-1.3,0.2-2.4,0.7-3.5
				c0.4-1.1,1-2,1.8-2.7s1.7-1.3,2.8-1.7c1.1-0.4,2.3-0.6,3.7-0.6h0.8c1.2,0,2.4,0.2,3.4,0.5c1,0.4,1.9,0.8,2.6,1.3
				c0.7,0.5,1.3,1.1,1.7,1.7c0.4,0.6,0.6,1.1,0.6,1.6c0,0.2-0.1,0.3-0.3,0.4l-3.2,1.6c-0.1,0-0.2,0.1-0.3,0.1
				c-0.1,0-0.3-0.1-0.4-0.3c-0.6-0.8-1.1-1.4-1.7-2c-0.6-0.6-1.4-0.8-2.5-0.8h-0.8C36.2,37.7,35.6,37.8,35.1,38z"/>
			<path class="st0" d="M68.8,63.5c-1.6,1.6-3.8,2.4-6.6,2.4H52.1c-0.3,0-0.5-0.2-0.5-0.5V34.6c0-0.3,0.2-0.5,0.5-0.5h10.1
				c2.8,0,5,0.8,6.6,2.4c1.6,1.6,2.4,3.8,2.4,6.6v0.5c0,1.3-0.5,2.6-1.6,4.1c-0.4,0.6-0.9,1.1-1.3,1.3c-0.4,0.3-0.6,0.5-0.6,0.7
				c0,0.2,0.2,0.4,0.6,0.7c0.4,0.3,0.8,0.8,1.3,1.5c1,1.5,1.6,2.9,1.6,4.2v0.8C71.3,59.7,70.5,61.9,68.8,63.5z M66.7,42.7
				c0-1.3-0.4-2.3-1.3-3.2c-0.9-0.9-1.9-1.3-3.2-1.3h-5.5c-0.3,0-0.5,0.2-0.5,0.5v8.6c0,0.3,0.2,0.5,0.5,0.5h5.5
				c1.3,0,2.3-0.4,3.2-1.3c0.9-0.9,1.3-1.9,1.3-3.2V42.7z M66.7,56.3c0-1.2-0.4-2.3-1.3-3.2c-0.9-0.9-1.9-1.3-3.2-1.3h-5.5
				c-0.3,0-0.5,0.2-0.5,0.5v9.1c0,0.3,0.2,0.5,0.5,0.5h5.5c1.3,0,2.3-0.4,3.2-1.3c0.9-0.9,1.3-2,1.3-3.2V56.3z"/>
		</g>
	</g>
</g>
</svg>
