<?xml version="1.0" encoding="utf-8"?>
<!-- Generator: Adobe Illustrator 22.0.1, SVG Export Plug-In . SVG Version: 6.00 Build 0)  -->
<svg version="1.1" id="Layer_9" xmlns="http://www.w3.org/2000/svg" xmlns:xlink="http://www.w3.org/1999/xlink" x="0px" y="0px"
	 viewBox="0 0 100 100" style="enable-background:new 0 0 100 100;" xml:space="preserve">
<style type="text/css">
	.st0{fill:#E7485A;}
</style>
<g>
	<g>
		<g>
			<g>
				<path class="st0" d="M50.4,95.9l37.9-21.8c1-0.6,1.5-1.6,1.5-2.7V27.7c0-1.1-0.6-2.1-1.5-2.7L50.4,3.2c-1-0.6-2.1-0.6-3.1,0
					L9.4,25c-1,0.6-1.5,1.6-1.5,2.7v43.7c0,1.1,0.6,2.1,1.5,2.7l37.9,21.8C48.3,96.4,49.4,96.4,50.4,95.9z M14.3,27.8l33-19.1
					c1-0.6,2.1-0.6,3.1,0l33,19.1c1,0.6,1.5,1.6,1.5,2.7v38.1c0,1.1-0.6,2.1-1.5,2.7l-33,19.1c-1,0.6-2.1,0.6-3.1,0l-33-19.1
					c-1-0.6-1.5-1.6-1.5-2.7V30.5C12.8,29.4,13.3,28.4,14.3,27.8z"/>
			</g>
		</g>
	</g>
	<path class="st0" d="M34,45.5c-2.7,1.7-5.6,3.4-8.1,5.4c-4.6,3.6-5.7,10.7-2.3,15.5c3.7,5.3,10.5,7,15.8,3.8
		c4.4-2.6,8.3-5.1,11.8-7.5c1.3-0.9,2.6-2.3,3.5-3.8c2.9-4.8,1.8-11.3-2.6-14.9c-0.1,0-0.2-0.1-0.3-0.1c-0.9,0.5-1.7,1.4-2,2.4
		c-0.3,1-0.1,2.2,0.5,3.3c1.4,2.2,1.5,6.7-1.9,9c-3.9,2.6-7.9,5.1-11.6,7.4c-2.3,1.4-5.5,1-7.6-0.8c-1.6-1.4-2.5-3.4-2.4-5.6
		c0.1-2.1,1.2-4,3-5.2c1.7-1.1,3.4-2.2,5.2-3.3c1.1-0.7,2.2-1.4,3.3-2.1c0.1-0.1,0.2-0.1,0.2-0.2c-0.1-2.1,0.1-4.2,0.8-6.2
		c-0.9,0.5-1.7,0.9-2.5,1.4C35.8,44.4,34.9,44.9,34,45.5z"/>
	<path class="st0" d="M61.5,56.2c3.2-2,6.5-4,9.7-6.2c5.1-3.5,6.5-10.6,3.1-16c-3.4-5.3-10.4-7.1-15.8-4c-3.5,2-7.2,4.4-11.8,7.4
		c-3.4,2.3-5.2,5.5-5.3,9.6c-0.1,3.7,1.4,6.8,4.3,9.3c0,0,0.1,0,0.1,0c1.2-0.7,1.9-1.5,2.2-2.6c0.3-1.2-0.1-2.2-0.8-3.7
		c-1.5-3.2-0.6-6.5,2.2-8.4c3.4-2.3,7.4-4.9,11.7-7.4c2-1.2,4.4-1.2,6.5,0c2.1,1.2,3.4,3.3,3.5,5.8c0.1,2.5-1,4.6-3.1,6
		c-1.5,1-3.1,2-4.6,3c-1.2,0.8-2.5,1.5-3.7,2.3c-0.1,0.1-0.2,0.2-0.3,0.2c0.1,2.1-0.1,4.2-0.9,6.3c0.2-0.1,0.4-0.2,0.6-0.3
		L61.5,56.2z"/>
</g>
</svg>
