<?xml version="1.0" encoding="utf-8"?>
<!-- Generator: Adobe Illustrator 20.1.0, SVG Export Plug-In . SVG Version: 6.00 Build 0)  -->
<svg version="1.1" id="Layer_1" xmlns="http://www.w3.org/2000/svg" xmlns:xlink="http://www.w3.org/1999/xlink" x="0px" y="0px"
	 viewBox="0 0 52 59" style="enable-background:new 0 0 52 59;" xml:space="preserve">
<style type="text/css">
	.st0{fill:#3A3A3A;}
	.st1{fill:#FDFCFB;}
</style>
<path class="st0" d="M28,57.1L49,45.1c1.3-0.7,2-2.1,2-3.5V17.5c0-1.5-0.8-2.8-2-3.5L28,1.9c-1.3-0.7-2.8-0.7-4.1,0L3,13.9
	c-1.3,0.7-2,2.1-2,3.5v24.1c0,1.5,0.8,2.8,2,3.5L24,57.1C25.2,57.9,26.8,57.9,28,57.1z"/>
<path class="st1" d="M27.6,54l18.8-10.8c1-0.6,1.6-1.6,1.6-2.8V18.7c0-1.2-0.6-2.2-1.6-2.8L27.6,5c-1-0.6-2.2-0.6-3.2,0L5.6,15.9
	c-1,0.6-1.6,1.6-1.6,2.8v21.7c0,1.2,0.6,2.2,1.6,2.8L24.4,54C25.4,54.5,26.6,54.5,27.6,54z"/>
<path class="st0" d="M31.6,29.5c-2.1-4.4-6.1-16.8-6.1-16.8s-4,12.4-6.1,16.8c-2.1,4.5-3.5,10.1-0.9,13.4c2.6,3.3,5.7,3.7,7,3.7
	s4.4-0.4,7-3.7C35.1,39.6,33.7,34,31.6,29.5z"/>
<ellipse transform="matrix(0.244 -0.9698 0.9698 0.244 -17.3654 45.0982)" class="st1" cx="20.2" cy="33.7" rx="3" ry="1.1"/>
<polygon class="st0" points="33.5,45.3 33.5,41.4 29.7,41.4 29.7,37 33.5,37 33.5,33.1 38.2,33.1 38.2,37 42,37 42,41.4 38.2,41.4 
	38.2,45.3 "/>
<path class="st1" d="M37.4,33.9v3.9h3.9v2.9h-3.9v3.8h-3.1v-3.9h-3.8v-2.9h3.8v-3.9h3.1 M38.9,32.4h-1.5h-3.1h-1.5v1.5v2.4h-2.3H29
	v1.5v2.9v1.5h1.5h2.3v2.3V46h1.5h3.1h1.5v-1.5v-2.4h2.4h1.5v-1.5v-2.9v-1.5h-1.5h-2.4v-2.4L38.9,32.4L38.9,32.4z"/>
<circle class="st1" cx="21.5" cy="29" r="0.6"/>
</svg>
