<?xml version="1.0" encoding="utf-8"?>
<!-- Generator: Adobe Illustrator 20.1.0, SVG Export Plug-In . SVG Version: 6.00 Build 0)  -->
<svg version="1.1" id="Layer_1" xmlns="http://www.w3.org/2000/svg" xmlns:xlink="http://www.w3.org/1999/xlink" x="0px" y="0px"
	 viewBox="0 0 52 59" style="enable-background:new 0 0 52 59;" xml:space="preserve">
<style type="text/css">
	.st0{fill:#3A3A3A;}
	.st1{fill:#FDFCFB;}
</style>
<path class="st0" d="M28,57.1L49,45.1c1.3-0.7,2-2.1,2-3.5V17.5c0-1.5-0.8-2.8-2-3.5L28,1.9c-1.3-0.7-2.8-0.7-4.1,0L3,13.9
	c-1.3,0.7-2,2.1-2,3.5v24.1c0,1.5,0.8,2.8,2,3.5L24,57.1C25.2,57.9,26.8,57.9,28,57.1z"/>
<path class="st1" d="M27.6,54l18.8-10.8c1-0.6,1.6-1.6,1.6-2.8V18.7c0-1.2-0.6-2.2-1.6-2.8L27.6,5c-1-0.6-2.2-0.6-3.2,0L5.6,15.9
	c-1,0.6-1.6,1.6-1.6,2.8v21.7c0,1.2,0.6,2.2,1.6,2.8L24.4,54C25.4,54.5,26.6,54.5,27.6,54z"/>
<polygon class="st0" points="2.5,16.1 2.6,38.7 42.9,46.3 49.1,42.8 48.6,21.5 7.5,13.7 "/>
<rect x="31.7" y="24.7" transform="matrix(0.1807 -0.9835 0.9835 0.1807 4.6905 56.3297)" class="st1" width="8.9" height="1.3"/>
<rect x="19.5" y="25.5" transform="matrix(0.1807 -0.9835 0.9835 0.1807 -4.0767 48.0541)" class="st1" width="14.6" height="1.9"/>
<rect x="14.1" y="21.4" transform="matrix(0.1807 -0.9835 0.9835 0.1807 -6.5223 36.3153)" class="st1" width="8.9" height="1.3"/>
<rect x="5.3" y="19.8" transform="matrix(0.1807 -0.9835 0.9835 0.1807 -12.1556 26.3598)" class="st1" width="8.9" height="1.3"/>
<rect x="40.5" y="26.3" transform="matrix(0.1807 -0.9835 0.9835 0.1807 10.3245 66.2853)" class="st1" width="8.9" height="1.3"/>
</svg>
