<?xml version="1.0" encoding="utf-8"?>
<!-- Generator: Adobe Illustrator 20.1.0, SVG Export Plug-In . SVG Version: 6.00 Build 0)  -->
<svg version="1.1" id="Layer_1" xmlns="http://www.w3.org/2000/svg" xmlns:xlink="http://www.w3.org/1999/xlink" x="0px" y="0px"
	 viewBox="0 0 52 59" style="enable-background:new 0 0 52 59;" xml:space="preserve">
<style type="text/css">
	.st0{fill:#3A3A3A;}
	.st1{fill:#FDFCFB;}
</style>
<path class="st0" d="M28,57.1L49,45.1c1.3-0.7,2-2.1,2-3.5V17.5c0-1.5-0.8-2.8-2-3.5L28,1.9c-1.3-0.7-2.8-0.7-4.1,0L3,13.9
	c-1.3,0.7-2,2.1-2,3.5v24.1c0,1.5,0.8,2.8,2,3.5L24,57.1C25.2,57.9,26.8,57.9,28,57.1z"/>
<path class="st1" d="M27.6,54l18.8-10.8c1-0.6,1.6-1.6,1.6-2.8V18.7c0-1.2-0.6-2.2-1.6-2.8L27.6,5c-1-0.6-2.2-0.6-3.2,0L5.6,15.9
	c-1,0.6-1.6,1.6-1.6,2.8v21.7c0,1.2,0.6,2.2,1.6,2.8L24.4,54C25.4,54.5,26.6,54.5,27.6,54z"/>
<polygon class="st0" points="36,51 9,37.8 9,22 43.5,12.7 49.3,16 49.3,42.9 "/>
<polygon class="st1" points="48,37 9.9,22.6 48,38 "/>
<polygon class="st1" points="26.1,28.6 28.2,30.2 25.7,29.3 24,31.5 24.9,28.9 22.7,27.3 25.3,28.2 26.9,26 "/>
<polygon class="st1" points="25.7,28.3 30.2,27.3 25.9,29 27,33.5 25.2,29.2 20.7,30.2 25,28.5 24,24 "/>
</svg>
