<?xml version="1.0" encoding="utf-8"?>
<!-- Generator: Adobe Illustrator 20.1.0, SVG Export Plug-In . SVG Version: 6.00 Build 0)  -->
<svg version="1.1" id="Layer_1" xmlns="http://www.w3.org/2000/svg" xmlns:xlink="http://www.w3.org/1999/xlink" x="0px" y="0px"
	 viewBox="0 0 52 59" style="enable-background:new 0 0 52 59;" xml:space="preserve">
<style type="text/css">
	.st0{fill:#3A3A3A;}
	.st1{fill:#FDFCFB;}
</style>
<path class="st0" d="M28,57.1L49,45.1c1.3-0.7,2-2.1,2-3.5V17.5c0-1.5-0.8-2.8-2-3.5L28,1.9c-1.3-0.7-2.8-0.7-4.1,0L3,13.9
	c-1.3,0.7-2,2.1-2,3.5v24.1c0,1.5,0.8,2.8,2,3.5L24,57.1C25.2,57.9,26.8,57.9,28,57.1z"/>
<path class="st1" d="M27.6,54l18.8-10.8c1-0.6,1.6-1.6,1.6-2.8V18.7c0-1.2-0.6-2.2-1.6-2.8L27.6,5c-1-0.6-2.2-0.6-3.2,0L5.6,15.9
	c-1,0.6-1.6,1.6-1.6,2.8v21.7c0,1.2,0.6,2.2,1.6,2.8L24.4,54C25.4,54.5,26.6,54.5,27.6,54z"/>
<g>
	<path class="st0" d="M18,45.5h-1.5l-3.2-7.9h1.6l2.4,6.1l2.4-6.1h1.6L18,45.5z"/>
	<path class="st0" d="M29.9,41.6c0,2-1.3,4.1-4,4.1s-4-2-4-4s1.4-4.1,4-4.1C28.5,37.5,29.9,39.5,29.9,41.6z M23.5,41.7
		c0,1.3,0.7,2.6,2.5,2.6s2.5-1.4,2.5-2.6c0-1.4-0.7-2.8-2.5-2.8S23.5,40.5,23.5,41.7z"/>
	<path class="st0" d="M37.8,44.5c-0.8,0.8-1.8,1.2-3,1.2c-2.9,0-4.1-2-4.2-4c0-2,1.4-4.1,4.2-4.1c1.1,0,2.1,0.4,2.9,1.2l-1,0.9
		c-0.5-0.5-1.2-0.7-1.9-0.7c-1.9,0-2.7,1.4-2.7,2.7s0.7,2.6,2.7,2.6c0.7,0,1.5-0.3,2-0.8L37.8,44.5z"/>
</g>
<g>
	<path class="st0" d="M14.8,28.1v6.3h3.9v1.4h-5.4v-7.6h1.5C14.8,28.2,14.8,28.1,14.8,28.1z"/>
	<path class="st0" d="M27,32c0,2-1.3,3.9-3.9,3.9c-2.7,0-3.9-1.9-3.9-3.9s1.3-4,3.9-4S27,30,27,32z M20.5,32c0,1.3,0.7,2.6,2.5,2.6
		s2.5-1.4,2.5-2.6s-0.7-2.7-2.5-2.7C21.3,29.2,20.5,30.7,20.5,32z"/>
	<path class="st0" d="M36,35.7h-1.2l-0.9-2.4l-0.8-2.5l-0.8,2.5l-0.9,2.4h-1.2l-2.8-7.6H29l1.8,5.6l1.8-5.6h0.9l1.9,5.6l1.7-5.6h1.5
		L36,35.7z"/>
</g>
<path class="st0" d="M24.8,11.8c0,0,1.6,1.8,1.1,3.7s-3.2,3.1-2.3,5.8c0.8,2.7,2.4,3.3,2.4,3.3s-1.3-1.4-0.6-3.8
	S30.7,16.1,24.8,11.8z"/>
</svg>
