<?xml version="1.0" encoding="utf-8"?>
<!-- Generator: Adobe Illustrator 20.1.0, SVG Export Plug-In . SVG Version: 6.00 Build 0)  -->
<svg version="1.1" id="Layer_1" xmlns="http://www.w3.org/2000/svg" xmlns:xlink="http://www.w3.org/1999/xlink" x="0px" y="0px"
	 viewBox="0 0 104 118" style="enable-background:new 0 0 104 118;" xml:space="preserve">
<style type="text/css">
	.st0{fill:#3A3A3A;}
	.st1{fill:#FDFCFB;}
	.st2{fill:none;stroke:#E6E7E8;stroke-width:2;stroke-miterlimit:10;}
</style>
<path class="st0" d="M56.2,114.2L98,90.1c2.5-1.5,4.1-4.2,4.1-7.1V34.8c0-2.9-1.6-5.6-4.1-7.1L56.2,3.6c-2.5-1.5-5.6-1.5-8.1,0
	L6.2,27.8c-2.5,1.5-4.1,4.2-4.1,7.1V83c0,2.9,1.6,5.6,4.1,7.1L48,114.2C50.6,115.7,53.7,115.7,56.2,114.2z"/>
<path class="st1" d="M55.3,107.9l37.6-21.7c2-1.2,3.2-3.3,3.2-5.6V37.2c0-2.3-1.2-4.4-3.2-5.6L55.3,10c-2-1.2-4.5-1.2-6.5,0
	L11.3,31.6c-2,1.2-3.2,3.3-3.2,5.6v43.4c0,2.3,1.2,4.4,3.2,5.6l37.6,21.7C50.9,109,53.3,109,55.3,107.9z"/>
<path class="st2" d="M21.5,75.5"/>
<path class="st0" d="M85.3,29.1c0,0-9.5-7.7-33.2-7.7s-33.2,7.7-33.2,7.7c-2.8,54.5,33.2,76.6,33.2,76.6S88.1,83.5,85.3,29.1z"/>
<g>
	<g>
		<g>
			<path class="st1" d="M35.1,62.5l-3.9-6.1l0,0h0.9l3.4,5.3l3.4-5.3h0.9l0,0l-4,6.1v4H35L35.1,62.5L35.1,62.5z"/>
		</g>
		<g>
			<path class="st1" d="M43.5,61.1h5.9v0.7h-5.9v4h6.4v0.8h-7.1V56.4h7v0.7h-6.2v4C43.6,61.1,43.5,61.1,43.5,61.1z"/>
		</g>
		<g>
			<path class="st1" d="M61.1,66.5L59.9,64h-6l-1.1,2.5H52l4.5-10.1h0.9l4.5,10.1H61.1z M59.6,63.3l-2.7-6.2l-2.7,6.2H59.6z"/>
		</g>
		<g>
			<path class="st1" d="M72.7,66.5h-1l-3.5-3.8h-2.8v3.8h-0.8V56.4c1.5,0,3,0,4.4,0c2.2,0,3.3,1.6,3.3,3.1c0,1.6-1.1,3.1-3.3,3.1
				L72.7,66.5z M65.4,61.9H69c1.8,0,2.5-1,2.6-2.4c0-1.2-0.8-2.4-2.5-2.4h-3.7V61.9z"/>
		</g>
	</g>
	<g>
		<g>
			<path class="st1" d="M32,50.2h2.3V39.8h-2.4v-2.7h5.3v13h2.2v2.5H32V50.2z"/>
		</g>
	</g>
	<g>
		<g>
			<path class="st1" d="M42.6,43.8c-0.1-9.3,13.5-9.4,13.6-0.1v2.2c0.1,9.2-13.5,9.4-13.6,0.1V43.8z M45.5,46.1
				c0.1,5.6,7.9,5.6,7.8-0.1v-2.2c-0.1-5.5-7.9-5.5-7.8,0.1V46.1z"/>
		</g>
	</g>
	<g>
		<g>
			<path class="st1" d="M59.4,43.8c0-9.3,13.6-9.2,13.6,0V46c0,9.2-13.6,9.3-13.6,0V43.8z M62.3,46c0,5.6,7.8,5.6,7.8,0v-2.2
				c0-5.5-7.8-5.6-7.8,0V46z"/>
		</g>
	</g>
</g>
<path class="st0" d="M20.6,72.8c0,0-2.3-1-3.7-1.6c-1.4-0.7-2.6-1.5-2.6-1.5l0.2,1.2c0,0,0.3,1.5,0.8,3s1.1,3,1.1,3
	c-2.7,0.9-6.9,1.6-6.9,1.6s0.3,0.2,0.7,0.5c0.5,0.3,1.2,0.8,1.9,1.2c1.6,0.9,3.6,1.7,5.6,2.5c3.9,1.4,7.8,2.2,7.8,2.2l0.7-3.9
	L20.6,72.8z"/>
<path class="st0" d="M78,80.9l0.7,3.9c0,0,3.8-0.8,7.8-2.2c2-0.7,4-1.6,5.6-2.5c0.8-0.4,1.5-0.9,1.9-1.2c0.5-0.3,0.7-0.5,0.7-0.5
	s-4.1-0.7-6.9-1.6c0,0,0.6-1.5,1.1-3s0.8-3,0.8-3l0.2-1.2c0,0-1.2,0.8-2.6,1.5s-3.7,1.6-3.7,1.6L78,80.9z"/>
<path class="st1" d="M21,69.7l-0.3,1.1L18.3,79L18,80.1c5.4,2,10.7,3.1,16.1,3.8c12.6,1.6,25.3,1.6,37.9-0.3
	c4.7-0.7,9.5-1.8,14.2-3.5L85.9,79l-2.4-8.2l-0.3-1.1c-3.8,1.4-8.1,2.4-12.5,3.1c-11.6,1.8-23.8,1.8-35.4,0.3
	C30.3,72.3,25.4,71.3,21,69.7z"/>
<g>
	<path class="st0" d="M27.7,80.2L26.8,80l-0.3-1.9l-0.2-1.9l-1,1.6l-1.1,1.6l-0.9-0.2l-0.8-6l1.2,0.3l0.4,4.3l2.3-3.7l0.7,0.2
		l0.5,4.3l2.2-3.7l1.2,0.3L27.7,80.2z"/>
	<path class="st0" d="M35.7,80.3l-3.1-0.4l-0.6,1l-1.2-0.1l3.3-5.3l1.2,0.1l1.9,6L36,81.5L35.7,80.3z M34.6,76.7L33.2,79l2.2,0.3
		L34.6,76.7z"/>
	<path class="st0" d="M44.5,82l-1.3-0.1l-1.6-2l-1.1-0.1l-0.1,1.9l-1.1-0.1l0.3-5.7c0.9,0.1,1.9,0.1,2.8,0.2c1.4,0.1,2.1,1,2,2
		c0,0.8-0.5,1.5-1.6,1.7L44.5,82L44.5,82z M40.7,77.1l-0.1,1.8l1.7,0.1c0.7,0,1-0.4,1.1-0.8c0-0.5-0.3-0.9-1-1L40.7,77.1z"/>
	<path class="st0" d="M52.1,82.2h-1.3l-1.8-2h-1.1v1.9h-1.1l0.1-5.7c0.9,0,1.9,0,2.8,0.1c1.4,0,2.1,0.9,2.1,1.9
		c0,0.8-0.4,1.6-1.5,1.8L52.1,82.2L52.1,82.2z M48,77.4v1.8h1.7c0.7,0,1-0.4,1-0.9s-0.3-0.9-1-0.9H48z"/>
	<path class="st0" d="M58.5,81l-3.1,0.1l-0.5,1.1h-1.2l2.5-5.8h1.2l2.8,5.6L59,82L58.5,81z M56.9,77.6l-1,2.4H58L56.9,77.6z"/>
	<path class="st0" d="M65.9,76l1.1-0.1l0.4,5.7h-0.7l0,0L63.4,78l0.3,3.8l-1.1,0.1l-0.4-5.7l0.9-0.1l3.1,3.3L65.9,76z"/>
	<path class="st0" d="M71.3,76.3l-1.8,0.3l-0.1-1c1.7-0.2,3.1-0.4,4.8-0.7l0.1,1l-1.8,0.3l0.6,4.7L71.9,81L71.3,76.3z"/>
	<path class="st0" d="M79,76.4l1-2.6l1.3-0.3l0,0l-1.5,3.7l0.6,2.3l-1.1,0.3l-0.6-2.3l-3-2.7l0,0l1.3-0.3L79,76.4z"/>
</g>
</svg>
