<?xml version="1.0" encoding="utf-8"?>
<!-- Generator: Adobe Illustrator 19.2.1, SVG Export Plug-In . SVG Version: 6.00 Build 0)  -->
<svg version="1.1" id="Layer_1" xmlns="http://www.w3.org/2000/svg" xmlns:xlink="http://www.w3.org/1999/xlink" x="0px" y="0px"
	 viewBox="0 0 52 59" style="enable-background:new 0 0 52 59;" xml:space="preserve">
<style type="text/css">
	.st0{fill:#F26B26;}
	.st1{fill:#FDFCFB;}
</style>
<polygon class="st0" points="26,58.3 51,43.9 51,15.1 26,0.7 1,15.1 1,43.9 "/>
<polygon class="st1" points="26,54.9 48,42.2 48,16.8 26,4.1 4,16.8 4,42.2 "/>
<path class="st0" d="M49.8,32.8v-1.6c0-0.3-0.3-0.5-0.7-0.5l-32.5,5.1c-0.3,0-0.5,0.3-0.5,0.7l1.6,10.1c0,0.3,0.3,0.5,0.7,0.5
	l30.4-4.8L49.8,32.8z"/>
<path class="st1" d="M48,30.3l-31.5,4.9c-0.3,0.1-0.6,0.2-0.8,0.5c-0.2,0.3-0.3,0.6-0.2,1L17,46.8c0.1,0.3,0.2,0.6,0.5,0.8
	c0.2,0.2,0.5,0.2,0.8,0.2c0.1,0,0.1,0,0.2,0L44.9,44l3.1-1.8v-0.4l-29.7,4.6l-1.5-9.9L48,31.7L48,30.3z"/>
<path class="st0" d="M19.5,47.6l-6.4-8c-0.2-0.2-0.2-0.6,0.1-0.8l26-20.9c0.2-0.2,0.6-0.2,0.8,0.1l6.4,8c0.2,0.2,0.2,0.6-0.1,0.8
	l-26,20.9C20.1,47.9,19.7,47.9,19.5,47.6z"/>
<path class="st1" d="M19.9,48.5c-0.4,0-0.8-0.2-1-0.5l0,0l-6.4-8c-0.4-0.6-0.4-1.4,0.2-1.8l26-20.9c0.6-0.4,1.4-0.4,1.8,0.2l6.4,8
	c0.2,0.3,0.3,0.6,0.3,0.9s-0.2,0.7-0.5,0.9l-26,20.9C20.5,48.4,20.2,48.5,19.9,48.5z M20,47.2L20,47.2L20,47.2z M13.7,39.3l6.3,7.8
	l25.8-20.8l-6.3-7.8L13.7,39.3z"/>
<path class="st0" d="M21.6,47.4L12,43.8c-0.3-0.1-0.4-0.5-0.3-0.8l12-31.1c0.1-0.3,0.5-0.4,0.8-0.3l9.5,3.7c0.3,0.1,0.4,0.5,0.3,0.8
	l-12,31.1C22.2,47.4,21.9,47.6,21.6,47.4z"/>
<path class="st1" d="M21.8,48.2c-0.2,0-0.3,0-0.5-0.1l0,0l-9.5-3.7c-0.3-0.1-0.6-0.4-0.7-0.7s-0.1-0.7,0-1l12-31.1
	c0.1-0.3,0.4-0.6,0.7-0.7c0.3-0.1,0.7-0.1,1,0l9.5,3.7c0.3,0.1,0.6,0.4,0.7,0.7s0.1,0.7,0,1L23,47.4C22.8,47.9,22.3,48.2,21.8,48.2z
	 M12.4,43.1l9.3,3.6l11.9-30.9l-9.3-3.6L12.4,43.1z"/>
<path class="st0" d="M23.3,46.3l-10.1,1.6c-0.3,0-0.6-0.2-0.7-0.5l-5.1-33c0-0.3,0.2-0.6,0.5-0.7L18,12.2c0.3,0,0.6,0.2,0.7,0.5
	l5.1,33C23.8,45.9,23.6,46.2,23.3,46.3z"/>
<g>
	<path class="st1" d="M11.8,46.7L6.9,15.1l4.7-2.7l6.4-1c0.3-0.1,0.7,0,1,0.2c0.3,0.2,0.5,0.5,0.5,0.8l5.1,33
		c0.1,0.7-0.4,1.4-1.1,1.5l-8.8,1.4L11.8,46.7z M8.2,14.4l5.1,32.7l9.8-1.5L18,12.9L8.2,14.4z"/>
</g>
<ellipse transform="matrix(0.9881 -0.154 0.154 0.9881 -6.4726 3.6455)" class="st1" cx="20.3" cy="43.6" rx="1.3" ry="1.3"/>
</svg>
