<?xml version="1.0" encoding="utf-8"?>
<!-- Generator: Adobe Illustrator 19.2.1, SVG Export Plug-In . SVG Version: 6.00 Build 0)  -->
<svg version="1.1" id="Layer_1" xmlns="http://www.w3.org/2000/svg" xmlns:xlink="http://www.w3.org/1999/xlink" x="0px" y="0px"
	 viewBox="0 0 52 59" style="enable-background:new 0 0 52 59;" xml:space="preserve">
<style type="text/css">
	.st0{fill:#F26B26;}
	.st1{fill:#FDFCFB;}
</style>
<polygon class="st0" points="26,58.3 51,43.9 51,15.1 26,0.7 1,15.1 1,43.9 "/>
<polygon class="st1" points="26,54.9 48,42.2 48,16.8 26,4.1 4,16.8 4,42.2 "/>
<polygon class="st0" points="2.5,16.1 2.6,38.7 42.9,46.3 49.1,42.8 48.6,21.5 7.5,13.7 "/>
<rect x="31.7" y="24.7" transform="matrix(0.1807 -0.9835 0.9835 0.1807 4.684 56.3172)" class="st1" width="8.9" height="1.3"/>
<rect x="19.6" y="25.5" transform="matrix(0.1807 -0.9835 0.9835 0.1807 -4.0611 48.119)" class="st1" width="14.6" height="1.9"/>
<rect x="14.1" y="21.4" transform="matrix(0.1807 -0.9835 0.9835 0.1807 -6.4734 36.3137)" class="st1" width="8.9" height="1.3"/>
<rect x="5.3" y="19.8" transform="matrix(0.1807 -0.9835 0.9835 0.1807 -12.108 26.3433)" class="st1" width="8.9" height="1.3"/>
<rect x="40.5" y="26.3" transform="matrix(0.1807 -0.9835 0.9835 0.1807 10.3184 66.2874)" class="st1" width="8.9" height="1.3"/>
</svg>
