<?xml version="1.0" encoding="utf-8"?>
<!-- Generator: Adobe Illustrator 20.1.0, SVG Export Plug-In . SVG Version: 6.00 Build 0)  -->
<svg version="1.1" id="Layer_1" xmlns="http://www.w3.org/2000/svg" xmlns:xlink="http://www.w3.org/1999/xlink" x="0px" y="0px"
	 viewBox="0 0 328.8 33.1" style="enable-background:new 0 0 328.8 33.1;" xml:space="preserve">
<style type="text/css">
	.st0{fill:#444444;}
	.st1{fill:#f7ce3c;}
</style>
<g>
	<path class="st0" d="M15.2,28.8c0,0.1-0.1,0.4-0.4,0.9c-0.3,0.5-0.7,1-1.3,1.5c-1.2,1.1-2.9,1.7-5,1.7H7.3c-1.1,0-2.1-0.2-3-0.5
		S2.7,31.6,2,31c-0.6-0.6-1.1-1.3-1.5-2.2C0.2,28,0,27,0,26V13.6c0-1,0.2-1.9,0.5-2.8C1,10,1.5,9.3,2.1,8.7s1.4-1.1,2.3-1.4
		s1.9-0.5,3-0.5h1.2c1,0,1.9,0.1,2.7,0.4s1.5,0.6,2.1,1c0.6,0.4,1,0.8,1.4,1.3c0.3,0.5,0.5,0.9,0.5,1.3c0,0.1-0.1,0.2-0.2,0.3
		l-2.6,1.3c-0.1,0-0.1,0-0.2,0c-0.1,0-0.2-0.1-0.3-0.2c-0.5-0.6-0.9-1.1-1.4-1.6C10,10.3,9.4,10,8.5,10H7.3c-1,0-1.9,0.3-2.6,1
		s-1,1.6-1,2.6v12.5c0,1,0.3,1.9,1,2.6s1.6,1,2.6,1h1.2c0.5,0,0.9-0.1,1.3-0.3c0.4-0.2,0.7-0.4,0.9-0.6c0.5-0.5,0.8-1,1-1.3
		s0.4-0.5,0.5-0.5s0.1,0,0.2,0.1l2.5,1.3C15.2,28.6,15.2,28.7,15.2,28.8z"/>
	<path class="st0" d="M35.2,32.2c0,0.2-0.1,0.3-0.4,0.3h-3.1l-0.4-0.3l-3.7-10.7l-0.3-0.2h-4c-0.3,0-0.4,0.1-0.4,0.4v10.4
		c0,0.3-0.1,0.4-0.4,0.4h-2.8c-0.3,0-0.4-0.1-0.4-0.4V7.6c0-0.3,0.1-0.4,0.4-0.4h8c2.2,0,4,0.6,5.3,1.9s1.9,3.1,1.9,5.3v0.4
		c0,0.7-0.2,1.5-0.6,2.3c-0.4,0.8-1,1.6-1.7,2.3c-0.4,0.3-0.7,0.6-1,0.7s-0.4,0.3-0.4,0.5c0,0.1,0,0.1,0,0.1L35.1,32
		C35.2,32.1,35.2,32.1,35.2,32.2z M31.3,14.1c0-1-0.3-1.9-1-2.6c-0.7-0.7-1.6-1-2.6-1h-4.4c-0.3,0-0.4,0.1-0.4,0.4v6.8
		c0,0.3,0.1,0.4,0.4,0.4h4.4c1,0,1.9-0.3,2.6-1s1-1.6,1-2.6V14.1z"/>
	<path class="st0" d="M46.7,20.9v11.2c0,0.3-0.1,0.4-0.4,0.4h-2.8c-0.3,0-0.4-0.1-0.4-0.4V20.9l-7-13.1C36,7.6,36,7.5,36,7.5
		c0-0.2,0.1-0.3,0.4-0.3h3.3l0.4,0.2l4.4,9.2c0.1,0.2,0.2,0.3,0.4,0.3s0.3-0.1,0.4-0.3l4.4-9.2l0.4-0.2h3.3c0.3,0,0.4,0.1,0.4,0.3
		c0,0,0,0.1-0.1,0.3L46.7,20.9z"/>
	<path class="st0" d="M70.9,32.5H57.3c-0.3,0-0.4-0.1-0.4-0.4V7.6c0-0.3,0.1-0.4,0.4-0.4h2.8c0.3,0,0.4,0.1,0.4,0.4v21.3
		c0,0.3,0.1,0.4,0.4,0.4h10c0.3,0,0.4,0.1,0.4,0.4v2.4C71.3,32.4,71.2,32.5,70.9,32.5z"/>
	<path class="st0" d="M77.6,32.5h-2.8c-0.3,0-0.4-0.1-0.4-0.4V7.6c0-0.3,0.1-0.4,0.4-0.4h2.8c0.3,0,0.4,0.1,0.4,0.4v24.5
		C78,32.4,77.9,32.5,77.6,32.5z"/>
	<path class="st0" d="M88.9,25.3h-6.4c-0.3,0-0.4-0.1-0.4-0.4v-2.8c0-0.3,0.1-0.4,0.4-0.4h6.4c0.3,0,0.4,0.1,0.4,0.4v2.8
		C89.3,25.2,89.2,25.3,88.9,25.3z"/>
	<path class="st0" d="M103.4,10.4h-4.6c-0.3,0-0.4,0.1-0.4,0.4v21.3c0,0.3-0.1,0.4-0.4,0.4h-2.8c-0.3,0-0.4-0.1-0.4-0.4V10.8
		c0-0.3-0.1-0.4-0.4-0.4h-4.6c-0.3,0-0.4-0.1-0.4-0.4V7.6c0-0.3,0.1-0.4,0.4-0.4h13.7c0.3,0,0.4,0.1,0.4,0.4V10
		C103.8,10.3,103.7,10.4,103.4,10.4z"/>
	<path class="st0" d="M121.6,32.5h-13.7c-0.3,0-0.4-0.1-0.4-0.4V7.6c0-0.3,0.1-0.4,0.4-0.4h13.7c0.3,0,0.4,0.1,0.4,0.4V10
		c0,0.3-0.1,0.4-0.4,0.4h-10c-0.3,0-0.4,0.1-0.4,0.4v6.8c0,0.3,0.1,0.4,0.4,0.4h8.2c0.3,0,0.4,0.1,0.4,0.4v2.4
		c0,0.3-0.1,0.4-0.4,0.4h-8.2c-0.3,0-0.4,0.1-0.4,0.4v7.2c0,0.3,0.1,0.4,0.4,0.4h10c0.3,0,0.4,0.1,0.4,0.4V32
		C122,32.4,121.9,32.5,121.6,32.5z"/>
	<path class="st0" d="M144.6,32.2c0,0.2-0.1,0.3-0.4,0.3h-3.6l-0.3-0.2L133,20.6c-0.8,0.9-1.7,2.1-2.7,3.5v8c0,0.3-0.1,0.4-0.4,0.4
		h-2.8c-0.3,0-0.4-0.1-0.4-0.4V7.6c0-0.3,0.1-0.4,0.4-0.4h2.8c0.3,0,0.4,0.1,0.4,0.4v10.6c0,0.3,0.1,0.5,0.4,0.5
		c0.1,0,0.2-0.1,0.4-0.2l8.4-11l0.3-0.2h3.3c0.3,0,0.4,0.1,0.4,0.3c0,0.1,0,0.2-0.1,0.3l-7.7,9.5c-0.1,0.1-0.1,0.1-0.1,0.2
		s0,0.1,0,0.2l8.8,14.1C144.5,32,144.6,32.1,144.6,32.2z"/>
	<path class="st1" d="M167.9,31c-1.3,1.3-3.1,1.9-5.3,1.9h-1.2c-1,0-1.8-0.1-2.6-0.3s-1.4-0.5-1.8-0.8c-0.8-0.6-1.4-1.2-1.7-1.7
		c-0.4-0.5-0.6-0.9-0.6-1.3c0-0.1,0.1-0.2,0.2-0.3l2.5-1.3c0.1-0.1,0.2-0.1,0.2-0.1c0.1,0,0.2,0.1,0.4,0.3c0.2,0.3,0.5,0.6,0.7,0.9
		s0.4,0.5,0.7,0.7c0.2,0.2,0.5,0.4,0.8,0.5s0.7,0.2,1.2,0.2h1.2c1,0,1.8-0.3,2.6-1c0.7-0.7,1.1-1.6,1.1-2.6v-1.4
		c0-1-0.4-1.9-1.1-2.6c-0.7-0.7-1.6-1-2.6-1h-6.4c-0.3,0-0.4-0.1-0.4-0.4V7.6c0-0.3,0.1-0.4,0.4-0.4H169c0.3,0,0.4,0.1,0.4,0.4V10
		c0,0.3-0.1,0.4-0.4,0.4h-9.2c-0.3,0-0.4,0.1-0.4,0.4v6.6c0,0.3,0.1,0.4,0.4,0.4h2.8c2.3,0,4,0.6,5.3,1.9s1.9,3,1.9,5.2v0.8
		C169.8,28,169.2,29.7,167.9,31z"/>
	<path class="st1" d="M186.7,31c-1.3,1.3-3.1,1.9-5.3,1.9h-1.2c-1,0-1.8-0.1-2.6-0.3s-1.4-0.5-1.8-0.8c-0.8-0.6-1.4-1.2-1.7-1.7
		c-0.4-0.5-0.6-0.9-0.6-1.3c0-0.1,0.1-0.2,0.2-0.3l2.5-1.3c0.1-0.1,0.2-0.1,0.2-0.1c0.1,0,0.2,0.1,0.4,0.3c0.2,0.3,0.5,0.6,0.7,0.9
		s0.4,0.5,0.7,0.7c0.2,0.2,0.5,0.4,0.8,0.5s0.7,0.2,1.2,0.2h1.2c1,0,1.8-0.3,2.6-1c0.7-0.7,1.1-1.6,1.1-2.6v-1.4
		c0-1-0.4-1.9-1.1-2.6c-0.7-0.7-1.6-1-2.6-1H175c-0.3,0-0.4-0.1-0.4-0.4V7.6c0-0.3,0.1-0.4,0.4-0.4h12.9c0.3,0,0.4,0.1,0.4,0.4V10
		c0,0.3-0.1,0.4-0.4,0.4h-9.2c-0.3,0-0.4,0.1-0.4,0.4v6.6c0,0.3,0.1,0.4,0.4,0.4h2.8c2.3,0,4,0.6,5.3,1.9s1.9,3,1.9,5.2v0.8
		C188.6,28,188,29.7,186.7,31z"/>
	<path class="st1" d="M207.8,28.9c-0.3,0.8-0.8,1.6-1.5,2.2c-0.6,0.6-1.4,1.1-2.3,1.4c-0.9,0.3-1.9,0.5-3,0.5h-1.2
		c-1.1,0-2.1-0.2-3-0.5s-1.6-0.8-2.3-1.4c-0.6-0.6-1.1-1.3-1.5-2.2c-0.3-0.8-0.5-1.8-0.5-2.8V13.6c0-1,0.2-1.9,0.5-2.8
		c0.3-0.8,0.8-1.6,1.5-2.2c0.6-0.6,1.4-1.1,2.3-1.4c0.9-0.3,1.9-0.5,3-0.5h1.2c1.1,0,2.1,0.2,3,0.5s1.6,0.8,2.3,1.4
		c0.6,0.6,1.1,1.3,1.5,2.2c0.3,0.8,0.5,1.8,0.5,2.8v12.5C208.3,27.1,208.1,28.1,207.8,28.9z M204.7,13.6c0-1-0.3-1.9-1-2.6
		c-0.7-0.7-1.6-1-2.6-1h-1.2c-1,0-1.9,0.3-2.6,1c-0.7,0.7-1,1.6-1,2.6v12.5c0,1,0.3,1.9,1,2.6s1.6,1,2.6,1h1.2c1,0,1.9-0.3,2.6-1
		c0.7-0.7,1-1.6,1-2.6V13.6z"/>
	<path class="st1" d="M227.8,28.9c-0.3,0.8-0.8,1.6-1.5,2.2c-0.6,0.6-1.4,1.1-2.3,1.4c-0.9,0.3-1.9,0.5-3,0.5h-1.2
		c-1.1,0-2.1-0.2-3-0.5s-1.6-0.8-2.3-1.4c-0.6-0.6-1.1-1.3-1.5-2.2c-0.3-0.8-0.5-1.8-0.5-2.8V13.6c0-1,0.2-1.9,0.5-2.8
		c0.3-0.8,0.8-1.6,1.5-2.2c0.6-0.6,1.4-1.1,2.3-1.4c0.9-0.3,1.9-0.5,3-0.5h1.2c1.1,0,2.1,0.2,3,0.5s1.6,0.8,2.3,1.4
		c0.6,0.6,1.1,1.3,1.5,2.2c0.3,0.8,0.5,1.8,0.5,2.8v12.5C228.3,27.1,228.2,28.1,227.8,28.9z M224.7,13.6c0-1-0.3-1.9-1-2.6
		c-0.7-0.7-1.6-1-2.6-1h-1.2c-1,0-1.9,0.3-2.6,1c-0.7,0.7-1,1.6-1,2.6v12.5c0,1,0.3,1.9,1,2.6s1.6,1,2.6,1h1.2c1,0,1.9-0.3,2.6-1
		c0.7-0.7,1-1.6,1-2.6V13.6z"/>
</g>
</svg>
