<?xml version="1.0" encoding="utf-8"?>
<!-- Generator: Adobe Illustrator 20.1.0, SVG Export Plug-In . SVG Version: 6.00 Build 0)  -->
<svg version="1.1" id="Layer_1" xmlns="http://www.w3.org/2000/svg" xmlns:xlink="http://www.w3.org/1999/xlink" x="0px" y="0px"
	 viewBox="0 0 327 33.1" style="enable-background:new 0 0 327 33.1;" xml:space="preserve">
<style type="text/css">
	.st0{fill:#444444;}
	.st1{fill:#f7ce3c;}
</style>
<g>
	<path class="st0" d="M16,28.8c0,0.1-0.1,0.4-0.4,0.9c-0.3,0.5-0.7,1-1.3,1.6c-1.3,1.1-3,1.7-5.1,1.7H8c-1.1,0-2.1-0.2-3-0.5
		s-1.7-0.8-2.3-1.4s-1.1-1.3-1.5-2.2c-0.4-0.9-0.5-1.8-0.5-2.8V13.5c0-1,0.2-2,0.5-2.8C1.5,9.8,2,9.1,2.7,8.5C3.3,7.9,4.1,7.4,5,7.1
		s1.9-0.5,3-0.5h1.2c1,0,1.9,0.1,2.7,0.4s1.5,0.6,2.1,1c0.6,0.4,1.1,0.8,1.4,1.3c0.3,0.5,0.5,0.9,0.5,1.3c0,0.1-0.1,0.2-0.2,0.3
		l-2.6,1.3c-0.1,0-0.1,0-0.2,0c-0.1,0-0.2-0.1-0.3-0.2c-0.5-0.6-0.9-1.2-1.4-1.6c-0.5-0.4-1.1-0.7-2-0.7H8c-1,0-1.9,0.4-2.6,1.1
		c-0.7,0.7-1.1,1.6-1.1,2.6V26c0,1,0.4,1.9,1.1,2.6S7,29.7,8,29.7h1.2c0.5,0,0.9-0.1,1.3-0.3c0.4-0.2,0.7-0.4,0.9-0.6
		c0.5-0.5,0.8-1,1-1.3s0.4-0.5,0.5-0.5s0.1,0,0.2,0.1l2.6,1.3C15.9,28.6,16,28.7,16,28.8z"/>
	<path class="st0" d="M36.1,32.3c0,0.2-0.1,0.3-0.4,0.3h-3.1l-0.4-0.3l-3.8-10.8l-0.3-0.2h-4c-0.3,0-0.4,0.1-0.4,0.4v10.6
		c0,0.3-0.1,0.4-0.4,0.4h-2.8c-0.3,0-0.4-0.1-0.4-0.4V7.4C20,7.2,20.1,7,20.4,7h8.1c2.2,0,4,0.7,5.3,2s2,3.1,2,5.3v0.4
		c0,0.7-0.2,1.5-0.6,2.3c-0.4,0.8-1,1.6-1.7,2.3c-0.4,0.4-0.7,0.6-1,0.7s-0.4,0.3-0.4,0.5c0,0.1,0,0.1,0,0.1L36,32
		C36.1,32.1,36.1,32.2,36.1,32.3z M32.2,13.9c0-1-0.4-1.9-1.1-2.6c-0.7-0.7-1.6-1.1-2.6-1.1H24c-0.3,0-0.4,0.1-0.4,0.4v6.9
		c0,0.3,0.1,0.4,0.4,0.4h4.5c1,0,1.9-0.4,2.6-1.1s1.1-1.6,1.1-2.6V13.9z"/>
	<path class="st0" d="M47.8,20.9v11.3c0,0.3-0.1,0.4-0.4,0.4h-2.8c-0.3,0-0.4-0.1-0.4-0.4V20.9L37.1,7.6C37,7.5,37,7.4,37,7.4
		C37,7.1,37.1,7,37.4,7h3.3l0.4,0.2l4.5,9.3c0.1,0.2,0.2,0.3,0.4,0.3s0.3-0.1,0.4-0.3l4.5-9.3L51.2,7h3.3c0.3,0,0.4,0.1,0.4,0.3
		c0,0,0,0.1-0.1,0.3L47.8,20.9z"/>
	<path class="st0" d="M72.2,32.6H58.4c-0.3,0-0.4-0.1-0.4-0.4V7.4C58,7.2,58.2,7,58.4,7h2.8c0.3,0,0.4,0.1,0.4,0.4V29
		c0,0.3,0.1,0.4,0.4,0.4h10.2c0.3,0,0.4,0.1,0.4,0.4v2.4C72.6,32.5,72.5,32.6,72.2,32.6z"/>
	<path class="st0" d="M79,32.6h-2.8c-0.3,0-0.4-0.1-0.4-0.4V7.4c0-0.3,0.1-0.4,0.4-0.4H79c0.3,0,0.4,0.1,0.4,0.4v24.8
		C79.4,32.5,79.2,32.6,79,32.6z"/>
	<path class="st0" d="M90.4,25.3h-6.5c-0.3,0-0.4-0.1-0.4-0.4V22c0-0.3,0.1-0.4,0.4-0.4h6.5c0.3,0,0.4,0.1,0.4,0.4v2.8
		C90.8,25.2,90.7,25.3,90.4,25.3z"/>
	<path class="st0" d="M105.1,10.3h-4.7c-0.3,0-0.4,0.1-0.4,0.4v21.5c0,0.3-0.1,0.4-0.4,0.4h-2.8c-0.3,0-0.4-0.1-0.4-0.4V10.7
		c0-0.3-0.1-0.4-0.4-0.4h-4.7c-0.3,0-0.4-0.1-0.4-0.4V7.4C90.9,7.2,91,7,91.3,7h13.8c0.3,0,0.4,0.1,0.4,0.4v2.4
		C105.5,10.1,105.3,10.3,105.1,10.3z"/>
	<path class="st0" d="M123.4,32.6h-13.8c-0.3,0-0.4-0.1-0.4-0.4V7.4c0-0.3,0.1-0.4,0.4-0.4h13.8c0.3,0,0.4,0.1,0.4,0.4v2.4
		c0,0.3-0.1,0.4-0.4,0.4h-10.2c-0.3,0-0.4,0.1-0.4,0.4v6.9c0,0.3,0.1,0.4,0.4,0.4h8.3c0.3,0,0.4,0.1,0.4,0.4v2.4
		c0,0.3-0.1,0.4-0.4,0.4h-8.3c-0.3,0-0.4,0.1-0.4,0.4V29c0,0.3,0.1,0.4,0.4,0.4h10.2c0.3,0,0.4,0.1,0.4,0.4v2.4
		C123.8,32.5,123.7,32.6,123.4,32.6z"/>
	<path class="st0" d="M146.7,32.3c0,0.2-0.1,0.3-0.4,0.3h-3.6l-0.3-0.2L135,20.6c-0.8,0.9-1.7,2.1-2.8,3.5v8.1
		c0,0.3-0.1,0.4-0.4,0.4H129c-0.3,0-0.4-0.1-0.4-0.4V7.4c0-0.3,0.1-0.4,0.4-0.4h2.8c0.3,0,0.4,0.1,0.4,0.4v10.7
		c0,0.3,0.1,0.5,0.4,0.5c0.1,0,0.2-0.1,0.4-0.2l8.5-11.2l0.3-0.2h3.4c0.3,0,0.4,0.1,0.4,0.3c0,0.1,0,0.2-0.1,0.3l-7.8,9.6
		c-0.1,0.1-0.1,0.1-0.1,0.2s0,0.1,0,0.2l8.9,14.3C146.6,32.1,146.7,32.2,146.7,32.3z"/>
	<path class="st1" d="M170.2,31.1c-1.3,1.3-3.1,1.9-5.4,1.9h-1.2c-1,0-1.8-0.1-2.6-0.3s-1.4-0.5-1.8-0.9c-0.8-0.6-1.4-1.2-1.7-1.7
		c-0.4-0.5-0.6-1-0.6-1.3c0-0.1,0.1-0.2,0.2-0.3l2.6-1.3c0.1-0.1,0.2-0.1,0.2-0.1c0.1,0,0.2,0.1,0.4,0.3c0.2,0.3,0.5,0.6,0.7,0.9
		s0.4,0.5,0.7,0.7c0.2,0.2,0.5,0.4,0.9,0.5c0.3,0.1,0.7,0.2,1.2,0.2h1.2c1,0,1.9-0.4,2.6-1.1c0.7-0.7,1.1-1.6,1.1-2.6v-1.4
		c0-1-0.4-1.9-1.1-2.6c-0.7-0.7-1.6-1.1-2.6-1.1h-6.5c-0.3,0-0.4-0.1-0.4-0.4V7.4c0-0.3,0.1-0.4,0.4-0.4h13c0.3,0,0.4,0.1,0.4,0.4
		v2.4c0,0.3-0.1,0.4-0.4,0.4H162c-0.3,0-0.4,0.1-0.4,0.4v6.7c0,0.3,0.1,0.4,0.4,0.4h2.8c2.3,0,4.1,0.6,5.4,1.9
		c1.3,1.3,1.9,3.1,1.9,5.3v0.8C172.2,28,171.5,29.8,170.2,31.1z"/>
	<path class="st1" d="M189.1,31.1c-1.3,1.3-3.1,1.9-5.4,1.9h-1.2c-1,0-1.8-0.1-2.6-0.3s-1.4-0.5-1.8-0.9c-0.8-0.6-1.4-1.2-1.7-1.7
		c-0.4-0.5-0.6-1-0.6-1.3c0-0.1,0.1-0.2,0.2-0.3l2.6-1.3c0.1-0.1,0.2-0.1,0.2-0.1c0.1,0,0.2,0.1,0.4,0.3c0.2,0.3,0.5,0.6,0.7,0.9
		s0.4,0.5,0.7,0.7c0.2,0.2,0.5,0.4,0.9,0.5c0.3,0.1,0.7,0.2,1.2,0.2h1.2c1,0,1.9-0.4,2.6-1.1c0.7-0.7,1.1-1.6,1.1-2.6v-1.4
		c0-1-0.4-1.9-1.1-2.6c-0.7-0.7-1.6-1.1-2.6-1.1h-6.5c-0.3,0-0.4-0.1-0.4-0.4V7.4c0-0.3,0.1-0.4,0.4-0.4h13c0.3,0,0.4,0.1,0.4,0.4
		v2.4c0,0.3-0.1,0.4-0.4,0.4h-9.3c-0.3,0-0.4,0.1-0.4,0.4v6.7c0,0.3,0.1,0.4,0.4,0.4h2.8c2.3,0,4.1,0.6,5.4,1.9
		c1.3,1.3,1.9,3.1,1.9,5.3v0.8C191.1,28,190.4,29.8,189.1,31.1z"/>
	<path class="st1" d="M210.4,28.9c-0.4,0.9-0.8,1.6-1.5,2.2c-0.6,0.6-1.4,1.1-2.3,1.4c-0.9,0.3-1.9,0.5-3,0.5h-1.2
		c-1.1,0-2.1-0.2-3-0.5s-1.7-0.8-2.3-1.4s-1.1-1.3-1.5-2.2c-0.4-0.9-0.5-1.8-0.5-2.8V13.5c0-1,0.2-2,0.5-2.8
		c0.4-0.9,0.8-1.6,1.5-2.2c0.6-0.6,1.4-1.1,2.3-1.4c0.9-0.3,1.9-0.5,3-0.5h1.2c1.1,0,2.1,0.2,3,0.5s1.7,0.8,2.3,1.4s1.1,1.3,1.5,2.2
		s0.5,1.8,0.5,2.8v12.6C210.9,27.1,210.8,28.1,210.4,28.9z M207.3,13.5c0-1-0.4-1.9-1.1-2.6c-0.7-0.7-1.6-1.1-2.6-1.1h-1.2
		c-1,0-1.9,0.4-2.6,1.1c-0.7,0.7-1.1,1.6-1.1,2.6v12.6c0,1,0.4,1.9,1.1,2.6c0.7,0.7,1.6,1.1,2.6,1.1h1.2c1,0,1.9-0.4,2.6-1.1
		c0.7-0.7,1.1-1.6,1.1-2.6V13.5z"/>
	<path class="st1" d="M228.1,31.1c-1.3,1.3-3.1,1.9-5.4,1.9h-1.2c-1,0-1.8-0.1-2.6-0.3s-1.4-0.5-1.8-0.9c-0.8-0.6-1.4-1.2-1.7-1.7
		c-0.4-0.5-0.6-1-0.6-1.3c0-0.1,0.1-0.2,0.2-0.3l2.6-1.3c0.1-0.1,0.2-0.1,0.2-0.1c0.1,0,0.2,0.1,0.4,0.3c0.2,0.3,0.5,0.6,0.7,0.9
		s0.4,0.5,0.7,0.7c0.2,0.2,0.5,0.4,0.9,0.5c0.3,0.1,0.7,0.2,1.2,0.2h1.2c1,0,1.9-0.4,2.6-1.1c0.7-0.7,1.1-1.6,1.1-2.6v-1.4
		c0-1-0.4-1.9-1.1-2.6c-0.7-0.7-1.6-1.1-2.6-1.1h-6.5c-0.3,0-0.4-0.1-0.4-0.4V7.4c0-0.3,0.1-0.4,0.4-0.4h13c0.3,0,0.4,0.1,0.4,0.4
		v2.4c0,0.3-0.1,0.4-0.4,0.4h-9.3c-0.3,0-0.4,0.1-0.4,0.4v6.7c0,0.3,0.1,0.4,0.4,0.4h2.8c2.3,0,4.1,0.6,5.4,1.9
		c1.3,1.3,1.9,3.1,1.9,5.3v0.8C230,28,229.4,29.8,228.1,31.1z"/>
</g>
</svg>
