<?xml version="1.0" encoding="utf-8"?>
<!-- Generator: Adobe Illustrator 20.1.0, SVG Export Plug-In . SVG Version: 6.00 Build 0)  -->
<svg version="1.1" id="Layer_1" xmlns="http://www.w3.org/2000/svg" xmlns:xlink="http://www.w3.org/1999/xlink" x="0px" y="0px"
	 viewBox="0 0 297 33.1" style="enable-background:new 0 0 297 33.1;" xml:space="preserve">
<style type="text/css">
	.st0{fill:#444444;}
	.st1{fill:#00ad68;}
</style>
<g>
	<path class="st0" d="M11.9,7.3c0.8,0.3,1.5,0.6,2.1,1c0.6,0.4,1,0.8,1.4,1.3c0.3,0.5,0.5,0.9,0.5,1.3c0,0.1-0.1,0.2-0.2,0.3
		l-2.6,1.3c-0.1,0-0.1,0-0.2,0c-0.1,0-0.2-0.1-0.3-0.2c-0.5-0.6-0.9-1.1-1.4-1.6c-0.5-0.4-1.1-0.7-2-0.7H7.3c-1,0-1.9,0.3-2.6,1
		s-1,1.6-1,2.6v12.5c0,1,0.3,1.9,1,2.6s1.6,1,2.6,1h1.2c1,0,1.9-0.3,2.6-1c0.7-0.7,1-1.6,1-2.6v-2.6c0-0.3-0.1-0.4-0.4-0.4h-4
		c-0.3,0-0.4-0.1-0.4-0.4v-2.4c0-0.3,0.1-0.4,0.4-0.4h7.6c0.3,0,0.4,0.1,0.4,0.4v5.8c0,1-0.2,2-0.5,2.8s-0.8,1.6-1.5,2.2
		c-0.6,0.6-1.4,1.1-2.3,1.4S9.6,33,8.5,33H7.3c-1.1,0-2.1-0.2-3-0.5S2.7,31.7,2,31.1c-0.6-0.6-1.1-1.3-1.5-2.2
		C0.2,28.1,0,27.2,0,26.2V13.7c0-1,0.2-2,0.5-2.8C0.9,10,1.4,9.3,2,8.7s1.4-1.1,2.3-1.4s1.9-0.5,3-0.5h1.9C10.2,6.8,11.1,7,11.9,7.3
		z"/>
	<path class="st0" d="M33.8,32.6H20.1c-0.3,0-0.4-0.1-0.4-0.4V7.6c0-0.3,0.1-0.4,0.4-0.4h13.7c0.3,0,0.4,0.1,0.4,0.4V10
		c0,0.3-0.1,0.4-0.4,0.4h-10c-0.3,0-0.4,0.1-0.4,0.4v6.8c0,0.3,0.1,0.4,0.4,0.4H32c0.3,0,0.4,0.1,0.4,0.4v2.4c0,0.3-0.1,0.4-0.4,0.4
		h-8.3c-0.3,0-0.4,0.1-0.4,0.4V29c0,0.3,0.1,0.4,0.4,0.4h10.1c0.3,0,0.4,0.1,0.4,0.4v2.4C34.2,32.5,34.1,32.6,33.8,32.6z"/>
	<path class="st0" d="M58.5,32.6h-2.8c-0.3,0-0.4-0.1-0.4-0.4l0.4-17.9L50,28.7c-0.1,0.1-0.2,0.2-0.4,0.2h-1.4
		c-0.2,0-0.3-0.1-0.4-0.2l-5.7-14.5l0.4,17.9c0,0.3-0.1,0.4-0.4,0.4h-2.8c-0.3,0-0.4-0.1-0.4-0.4V7.6c0-0.3,0.1-0.4,0.4-0.4h2.8
		c0.2,0,0.3,0.1,0.4,0.2l6.4,16H49l6.3-16l0.4-0.2h2.9c0.3,0,0.4,0.1,0.4,0.4v24.6C58.9,32.5,58.8,32.6,58.5,32.6z"/>
	<path class="st0" d="M70.5,25.4H64c-0.3,0-0.4-0.1-0.4-0.4v-2.8c0-0.3,0.1-0.4,0.4-0.4h6.4c0.3,0,0.4,0.1,0.4,0.4V25
		C70.9,25.2,70.7,25.4,70.5,25.4z"/>
	<path class="st0" d="M85,10.5h-4.6c-0.3,0-0.4,0.1-0.4,0.4v21.3c0,0.3-0.1,0.4-0.4,0.4h-2.8c-0.3,0-0.4-0.1-0.4-0.4V10.9
		c0-0.3-0.1-0.4-0.4-0.4h-4.6c-0.3,0-0.4-0.1-0.4-0.4V7.6c0-0.3,0.1-0.4,0.4-0.4H85c0.3,0,0.4,0.1,0.4,0.4V10
		C85.4,10.3,85.3,10.5,85,10.5z"/>
	<path class="st0" d="M103.2,32.6H89.5c-0.3,0-0.4-0.1-0.4-0.4V7.6c0-0.3,0.1-0.4,0.4-0.4h13.7c0.3,0,0.4,0.1,0.4,0.4V10
		c0,0.3-0.1,0.4-0.4,0.4H93.1c-0.3,0-0.4,0.1-0.4,0.4v6.8c0,0.3,0.1,0.4,0.4,0.4h8.3c0.3,0,0.4,0.1,0.4,0.4v2.4
		c0,0.3-0.1,0.4-0.4,0.4h-8.3c-0.3,0-0.4,0.1-0.4,0.4V29c0,0.3,0.1,0.4,0.4,0.4h10.1c0.3,0,0.4,0.1,0.4,0.4v2.4
		C103.6,32.5,103.5,32.6,103.2,32.6z"/>
	<path class="st0" d="M126.2,32.3c0,0.2-0.1,0.3-0.4,0.3h-3.6l-0.3-0.2l-7.2-11.7c-0.8,0.9-1.7,2.1-2.7,3.5v8.1
		c0,0.3-0.1,0.4-0.4,0.4h-2.8c-0.3,0-0.4-0.1-0.4-0.4V7.6c0-0.3,0.1-0.4,0.4-0.4h2.8c0.3,0,0.4,0.1,0.4,0.4v10.6
		c0,0.3,0.1,0.5,0.4,0.5c0.1,0,0.2-0.1,0.4-0.2l8.5-11.1l0.3-0.2h3.3c0.3,0,0.4,0.1,0.4,0.3c0,0.1,0,0.2-0.1,0.3l-7.7,9.5
		c-0.1,0.1-0.1,0.1-0.1,0.2s0,0.1,0,0.2l8.8,14.2C126.2,32.1,126.2,32.2,126.2,32.3z"/>
	<path class="st1" d="M149.6,31.1c-1.3,1.3-3.1,1.9-5.3,1.9h-1.2c-1,0-1.8-0.1-2.6-0.3s-1.4-0.5-1.8-0.8c-0.8-0.6-1.4-1.2-1.7-1.7
		c-0.4-0.5-0.6-0.9-0.6-1.3c0-0.1,0.1-0.2,0.2-0.3l2.5-1.3c0.1-0.1,0.2-0.1,0.2-0.1c0.1,0,0.2,0.1,0.4,0.3c0.2,0.3,0.5,0.6,0.7,0.9
		s0.4,0.5,0.7,0.7c0.2,0.2,0.5,0.4,0.8,0.5s0.7,0.2,1.2,0.2h1.2c1,0,1.8-0.3,2.6-1c0.7-0.7,1.1-1.6,1.1-2.6v-1.4
		c0-1-0.4-1.9-1.1-2.6c-0.7-0.7-1.6-1-2.6-1h-6.4c-0.3,0-0.4-0.1-0.4-0.4V7.6c0-0.3,0.1-0.4,0.4-0.4h12.9c0.3,0,0.4,0.1,0.4,0.4V10
		c0,0.3-0.1,0.4-0.4,0.4h-9.3c-0.3,0-0.4,0.1-0.4,0.4v6.6c0,0.3,0.1,0.4,0.4,0.4h2.8c2.3,0,4,0.6,5.3,1.9s1.9,3,1.9,5.2v0.8
		C151.5,28,150.9,29.8,149.6,31.1z"/>
	<path class="st1" d="M168.4,32.6h-12.5c-0.3,0-0.4-0.1-0.4-0.4v-2.4c0-0.3,0.1-0.4,0.4-0.4h4c0.3,0,0.4-0.1,0.4-0.4V14.4
		c0-0.3-0.1-0.4-0.4-0.4c-0.1,0-0.2,0.1-0.3,0.2l-1.9,2c-0.1,0.1-0.2,0.2-0.3,0.2s-0.2-0.1-0.3-0.2l-1.8-1.7
		c-0.1-0.1-0.2-0.2-0.2-0.3s0.1-0.2,0.2-0.3l6.5-6.5l0.3-0.1h1.4c0.3,0,0.4,0.1,0.4,0.4V29c0,0.3,0.1,0.4,0.4,0.4h4
		c0.3,0,0.4,0.1,0.4,0.4v2.4C168.8,32.5,168.6,32.6,168.4,32.6z"/>
	<path class="st1" d="M186.7,29c-0.3,0.8-0.8,1.6-1.5,2.2c-0.6,0.6-1.4,1.1-2.3,1.4c-0.9,0.3-1.9,0.5-3,0.5h-1.2
		c-1.1,0-2.1-0.2-3-0.5s-1.6-0.8-2.3-1.4c-0.6-0.6-1.1-1.3-1.5-2.2c-0.3-0.8-0.5-1.8-0.5-2.8V13.7c0-1,0.2-2,0.5-2.8
		s0.8-1.6,1.5-2.2c0.6-0.6,1.4-1.1,2.3-1.4c0.9-0.3,1.9-0.5,3-0.5h1.2c1.1,0,2.1,0.2,3,0.5s1.6,0.8,2.3,1.4c0.6,0.6,1.1,1.3,1.5,2.2
		c0.3,0.8,0.5,1.8,0.5,2.8v12.5C187.3,27.2,187.1,28.1,186.7,29z M183.6,13.7c0-1-0.3-1.9-1-2.6s-1.6-1-2.6-1h-1.2
		c-1,0-1.9,0.3-2.6,1c-0.7,0.7-1,1.6-1,2.6v12.5c0,1,0.3,1.9,1,2.6s1.6,1,2.6,1h1.2c1,0,1.9-0.3,2.6-1c0.7-0.7,1-1.6,1-2.6V13.7z"/>
	<path class="st1" d="M206.2,29c-0.3,0.8-0.8,1.6-1.5,2.2c-0.6,0.6-1.4,1.1-2.3,1.4c-0.9,0.3-1.9,0.5-3,0.5h-1.2
		c-1.1,0-2.1-0.2-3-0.5s-1.6-0.8-2.3-1.4c-0.6-0.6-1.1-1.3-1.5-2.2c-0.3-0.8-0.5-1.8-0.5-2.8V13.7c0-1,0.2-2,0.5-2.8
		s0.8-1.6,1.5-2.2c0.6-0.6,1.4-1.1,2.3-1.4c0.9-0.3,1.9-0.5,3-0.5h1.2c1.1,0,2.1,0.2,3,0.5s1.6,0.8,2.3,1.4c0.6,0.6,1.1,1.3,1.5,2.2
		c0.3,0.8,0.5,1.8,0.5,2.8v12.5C206.8,27.2,206.6,28.1,206.2,29z M203.1,13.7c0-1-0.3-1.9-1-2.6s-1.6-1-2.6-1h-1.2
		c-1,0-1.9,0.3-2.6,1c-0.7,0.7-1,1.6-1,2.6v12.5c0,1,0.3,1.9,1,2.6s1.6,1,2.6,1h1.2c1,0,1.9-0.3,2.6-1c0.7-0.7,1-1.6,1-2.6V13.7z"/>
</g>
</svg>
