<?xml version="1.0" encoding="utf-8"?>
<!-- Generator: Adobe Illustrator 20.1.0, SVG Export Plug-In . SVG Version: 6.00 Build 0)  -->
<svg version="1.1" id="Layer_1" xmlns="http://www.w3.org/2000/svg" xmlns:xlink="http://www.w3.org/1999/xlink" x="0px" y="0px"
	 viewBox="0 0 312.2 33.1" style="enable-background:new 0 0 312.2 33.1;" xml:space="preserve">
<style type="text/css">
	.st0{fill:#444444;}
	.st1{fill:#00B3E4;}
</style>
<g>
	<path class="st0" d="M14.6,32.5H0.4c-0.3,0-0.4-0.1-0.4-0.4V6.7c0-0.3,0.1-0.4,0.4-0.4h2.9c0.3,0,0.4,0.1,0.4,0.4v22.1
		c0,0.3,0.1,0.4,0.4,0.4h10.4c0.3,0,0.4,0.1,0.4,0.4v2.5C15,32.4,14.9,32.5,14.6,32.5z"/>
	<path class="st0" d="M21.5,32.5h-2.9c-0.3,0-0.4-0.1-0.4-0.4V6.7c0-0.3,0.1-0.4,0.4-0.4h2.9c0.3,0,0.4,0.1,0.4,0.4v25.4
		C21.9,32.4,21.8,32.5,21.5,32.5z"/>
	<path class="st0" d="M39.9,9.6h-4.8c-0.3,0-0.4,0.1-0.4,0.4v22.1c0,0.3-0.1,0.4-0.4,0.4h-2.9c-0.3,0-0.4-0.1-0.4-0.4V10
		c0-0.3-0.1-0.4-0.4-0.4h-4.8c-0.3,0-0.4-0.1-0.4-0.4V6.7c0-0.3,0.1-0.4,0.4-0.4H40c0.3,0,0.4,0.1,0.4,0.4v2.5
		C40.3,9.5,40.1,9.6,39.9,9.6z"/>
	<path class="st0" d="M60.6,32.5h-2.9c-0.3,0-0.4-0.1-0.4-0.4V21.3c0-0.3-0.1-0.4-0.4-0.4h-8.5c-0.3,0-0.4,0.1-0.4,0.4v10.8
		c0,0.3-0.1,0.4-0.4,0.4h-2.9c-0.3,0-0.4-0.1-0.4-0.4V6.7c0-0.3,0.1-0.4,0.4-0.4h2.9c0.3,0,0.4,0.1,0.4,0.4v10.4
		c0,0.3,0.1,0.4,0.4,0.4h8.5c0.3,0,0.4-0.1,0.4-0.4V6.7c0-0.3,0.1-0.4,0.4-0.4h2.9c0.3,0,0.4,0.1,0.4,0.4v25.4
		C61,32.4,60.8,32.5,60.6,32.5z"/>
	<path class="st0" d="M69.1,32.5h-2.9c-0.3,0-0.4-0.1-0.4-0.4V6.7c0-0.3,0.1-0.4,0.4-0.4h2.9c0.3,0,0.4,0.1,0.4,0.4v25.4
		C69.6,32.4,69.4,32.5,69.1,32.5z"/>
	<path class="st0" d="M80.9,25h-6.7c-0.3,0-0.4-0.1-0.4-0.4v-2.9c0-0.3,0.1-0.4,0.4-0.4h6.7c0.3,0,0.4,0.1,0.4,0.4v2.9
		C81.3,24.9,81.2,25,80.9,25z"/>
	<path class="st0" d="M95.9,9.6h-4.8c-0.3,0-0.4,0.1-0.4,0.4v22.1c0,0.3-0.1,0.4-0.4,0.4h-2.9c-0.3,0-0.4-0.1-0.4-0.4V10
		c0-0.3-0.1-0.4-0.4-0.4h-4.8c-0.3,0-0.4-0.1-0.4-0.4V6.7c0-0.3,0.1-0.4,0.4-0.4H96c0.3,0,0.4,0.1,0.4,0.4v2.5
		C96.3,9.5,96.2,9.6,95.9,9.6z"/>
	<path class="st0" d="M114.7,32.5h-14.2c-0.3,0-0.4-0.1-0.4-0.4V6.7c0-0.3,0.1-0.4,0.4-0.4h14.2c0.3,0,0.4,0.1,0.4,0.4v2.5
		c0,0.3-0.1,0.4-0.4,0.4h-10.4c-0.3,0-0.4,0.1-0.4,0.4v7.1c0,0.3,0.1,0.4,0.4,0.4h8.5c0.3,0,0.4,0.1,0.4,0.4v2.5
		c0,0.3-0.1,0.4-0.4,0.4h-8.5c-0.3,0-0.4,0.1-0.4,0.4v7.5c0,0.3,0.1,0.4,0.4,0.4h10.4c0.3,0,0.4,0.1,0.4,0.4V32
		C115.2,32.4,115,32.5,114.7,32.5z"/>
	<path class="st0" d="M138.6,32.2c0,0.2-0.1,0.3-0.4,0.3h-3.7l-0.3-0.2l-7.5-12.1c-0.8,0.9-1.7,2.1-2.8,3.6v8.3
		c0,0.3-0.1,0.4-0.4,0.4h-2.9c-0.3,0-0.4-0.1-0.4-0.4V6.7c0-0.3,0.1-0.4,0.4-0.4h2.9c0.3,0,0.4,0.1,0.4,0.4v11
		c0,0.3,0.1,0.5,0.4,0.5c0.1,0,0.2-0.1,0.4-0.2l8.7-11.5l0.3-0.2h3.5c0.3,0,0.5,0.1,0.5,0.3c0,0.1,0,0.2-0.1,0.3l-8,9.8
		c-0.1,0.1-0.1,0.1-0.1,0.2s0,0.2,0,0.2l9.1,14.7C138.5,32,138.6,32.1,138.6,32.2z"/>
	<path class="st1" d="M164.2,28.7c-0.4,0.9-0.9,1.6-1.5,2.2c-0.7,0.6-1.4,1.1-2.4,1.4c-0.9,0.3-1.9,0.5-3.1,0.5H156
		c-1,0-1.9-0.1-2.7-0.3s-1.4-0.5-1.9-0.9c-0.8-0.6-1.4-1.2-1.8-1.8c-0.4-0.5-0.6-1-0.6-1.3c0-0.1,0.1-0.2,0.2-0.3l2.6-1.3
		c0.1-0.1,0.2-0.1,0.3-0.1s0.1,0,0.2,0.1c0,0.1,0.1,0.1,0.1,0.2c0.3,0.3,0.5,0.6,0.7,0.9s0.4,0.5,0.7,0.7c0.2,0.2,0.5,0.4,0.9,0.5
		c0.3,0.1,0.7,0.2,1.2,0.2h1.2c1.1,0,1.9-0.4,2.7-1.1c0.7-0.7,1.1-1.6,1.1-2.7V22c0-0.3-0.1-0.5-0.3-0.5c-0.1,0-0.3,0.1-0.6,0.2
		c-0.2,0.1-0.5,0.3-0.8,0.5s-0.7,0.3-1.1,0.5c-0.4,0.1-0.9,0.2-1.4,0.2h-1.2c-1,0-2-0.2-2.8-0.5c-0.9-0.3-1.6-0.8-2.2-1.5
		c-0.6-0.6-1.1-1.4-1.5-2.2c-0.4-0.9-0.5-1.8-0.5-2.9v-3.1c0-1.1,0.2-2,0.5-2.9c0.4-0.9,0.9-1.6,1.5-2.2c0.7-0.6,1.4-1.1,2.4-1.4
		c0.9-0.3,1.9-0.5,3.1-0.5h1.2c1.1,0,2.2,0.2,3.1,0.5c0.9,0.3,1.7,0.8,2.4,1.4s1.2,1.4,1.5,2.2c0.4,0.9,0.5,1.8,0.5,2.9v12.9
		C164.7,26.9,164.5,27.9,164.2,28.7z M161,12.9c0-1.1-0.4-1.9-1.1-2.7c-0.7-0.7-1.6-1.1-2.7-1.1H156c-1.1,0-1.9,0.4-2.7,1.1
		c-0.7,0.7-1.1,1.6-1.1,2.7V16c0,1,0.4,1.9,1.1,2.6c0.7,0.7,1.6,1.1,2.7,1.1h1.2c1.1,0,1.9-0.4,2.7-1.1c0.7-0.7,1.1-1.6,1.1-2.6
		V12.9z"/>
	<path class="st1" d="M182.1,30.9c-1.3,1.3-3.2,2-5.5,2h-1.2c-1,0-1.9-0.1-2.7-0.3s-1.4-0.5-1.9-0.9c-0.8-0.6-1.4-1.2-1.8-1.8
		c-0.4-0.5-0.6-1-0.6-1.3c0-0.1,0.1-0.2,0.3-0.3l2.6-1.3c0.1-0.1,0.2-0.1,0.2-0.1c0.1,0,0.2,0.1,0.4,0.3c0.3,0.3,0.5,0.6,0.7,0.9
		s0.4,0.5,0.7,0.7s0.5,0.4,0.9,0.5c0.3,0.1,0.7,0.2,1.2,0.2h1.2c1,0,1.9-0.4,2.6-1.1c0.7-0.7,1.1-1.6,1.1-2.7v-1.5
		c0-1.1-0.4-1.9-1.1-2.7c-0.7-0.7-1.6-1.1-2.6-1.1h-6.7c-0.3,0-0.4-0.1-0.4-0.4V6.7c0-0.3,0.1-0.4,0.4-0.4h13.3
		c0.3,0,0.4,0.1,0.4,0.4v2.5c0,0.3-0.1,0.4-0.4,0.4h-9.6c-0.3,0-0.4,0.1-0.4,0.4v6.9c0,0.3,0.1,0.4,0.4,0.4h2.9c2.3,0,4.2,0.7,5.5,2
		s2,3.1,2,5.4v0.8C184.1,27.8,183.4,29.6,182.1,30.9z"/>
	<path class="st1" d="M203.1,28.7c-0.4,0.9-0.9,1.6-1.5,2.2c-0.7,0.6-1.4,1.1-2.4,1.4c-0.9,0.3-1.9,0.5-3.1,0.5h-1.2
		c-1.1,0-2.2-0.2-3.1-0.5c-0.9-0.3-1.7-0.8-2.4-1.4s-1.2-1.4-1.5-2.2c-0.4-0.9-0.5-1.8-0.5-2.9V12.9c0-1.1,0.2-2,0.5-2.9
		c0.4-0.9,0.9-1.6,1.5-2.2c0.7-0.6,1.4-1.1,2.4-1.4c0.9-0.3,1.9-0.5,3.1-0.5h1.2c1.1,0,2.2,0.2,3.1,0.5c0.9,0.3,1.7,0.8,2.4,1.4
		s1.2,1.4,1.5,2.2c0.4,0.9,0.5,1.8,0.5,2.9v12.9C203.6,26.9,203.4,27.9,203.1,28.7z M199.8,12.9c0-1.1-0.4-1.9-1.1-2.7
		c-0.7-0.7-1.6-1.1-2.7-1.1h-1.2c-1.1,0-1.9,0.4-2.7,1.1c-0.7,0.7-1.1,1.6-1.1,2.7v12.9c0,1.1,0.4,1.9,1.1,2.7
		c0.7,0.7,1.6,1.1,2.7,1.1h1.2c1.1,0,1.9-0.4,2.7-1.1c0.7-0.7,1.1-1.6,1.1-2.7V12.9z"/>
	<path class="st1" d="M222.9,28.7c-0.4,0.9-0.9,1.6-1.5,2.2c-0.7,0.6-1.4,1.1-2.4,1.4c-0.9,0.3-1.9,0.5-3.1,0.5h-1.2
		c-1.1,0-2.2-0.2-3.1-0.5c-0.9-0.3-1.7-0.8-2.4-1.4s-1.2-1.4-1.5-2.2s-0.5-1.8-0.5-2.9V12.9c0-1.1,0.2-2,0.5-2.9
		c0.4-0.9,0.9-1.6,1.5-2.2c0.7-0.6,1.4-1.1,2.4-1.4c0.9-0.3,1.9-0.5,3.1-0.5h1.2c1.1,0,2.2,0.2,3.1,0.5c0.9,0.3,1.7,0.8,2.4,1.4
		s1.2,1.4,1.5,2.2c0.4,0.9,0.5,1.8,0.5,2.9v12.9C223.4,26.9,223.2,27.9,222.9,28.7z M219.6,12.9c0-1.1-0.4-1.9-1.1-2.7
		c-0.7-0.7-1.6-1.1-2.7-1.1h-1.2c-1.1,0-1.9,0.4-2.7,1.1c-0.7,0.7-1.1,1.6-1.1,2.7v12.9c0,1.1,0.4,1.9,1.1,2.7
		c0.7,0.7,1.6,1.1,2.7,1.1h1.2c1.1,0,1.9-0.4,2.7-1.1c0.7-0.7,1.1-1.6,1.1-2.7V12.9z"/>
</g>
</svg>
