<?xml version="1.0" encoding="utf-8"?>
<!-- Generator: Adobe Illustrator 20.1.0, SVG Export Plug-In . SVG Version: 6.00 Build 0)  -->
<svg version="1.1" id="Layer_1" xmlns="http://www.w3.org/2000/svg" xmlns:xlink="http://www.w3.org/1999/xlink" x="0px" y="0px"
	 viewBox="0 0 303.7 33.1" style="enable-background:new 0 0 303.7 33.1;" xml:space="preserve">
<style type="text/css">
	.st0{fill:#444444;}
	.st1{fill:#6c54a3;}
</style>
<g>
	<path class="st0" d="M6.5,9.5C6.1,9.7,5.7,10,5.3,10.3C5,10.6,4.7,11,4.5,11.5c-0.2,0.5-0.3,1-0.3,1.5c0,0.6,0.1,1,0.4,1.4
		c0.2,0.4,0.6,0.8,1.1,1.1s1,0.7,1.7,1s1.4,0.7,2.3,1.1c1.1,0.5,2.1,1,2.9,1.6c0.8,0.6,1.5,1.2,2,1.8c0.5,0.6,0.9,1.4,1.2,2.2
		c0.3,0.8,0.4,1.7,0.4,2.7s-0.2,2-0.5,2.9c-0.4,0.9-0.9,1.6-1.5,2.2s-1.4,1.1-2.3,1.5S10,33,8.8,33H6.9c-1,0-1.9-0.1-2.7-0.3
		s-1.4-0.5-1.9-0.9C1.6,31,1,30.4,0.6,29.9S0,28.9,0,28.6c0-0.1,0.1-0.2,0.2-0.3L2.9,27C3,26.9,3,26.9,3.1,26.9s0.2,0.1,0.4,0.3
		c0.2,0.3,0.5,0.6,0.7,0.9s0.4,0.5,0.7,0.7c0.2,0.2,0.5,0.4,0.9,0.5c0.3,0.1,0.7,0.2,1.2,0.2h1.7c1,0,1.9-0.4,2.6-1.1
		s1.1-1.6,1.1-2.7c0-0.6-0.1-1.1-0.3-1.5s-0.5-0.8-1-1.2c-0.4-0.4-1-0.7-1.6-1.1c-0.6-0.3-1.3-0.7-2.1-1.1c-1.1-0.5-2.1-1-2.9-1.5
		c-0.9-0.5-1.6-1-2.2-1.6s-1-1.3-1.3-2.1C0.6,14.9,0.5,14,0.5,13s0.2-2,0.5-2.9c0.4-0.9,0.9-1.6,1.5-2.2C3.2,7.3,4,6.8,4.9,6.4
		C5.8,6.1,6.8,5.9,8,5.9h0.7c1,0,2,0.1,2.8,0.4C12.3,6.7,13,7,13.6,7.5s1.1,0.9,1.4,1.4c0.3,0.5,0.5,0.9,0.5,1.3
		c0,0.1-0.1,0.2-0.2,0.3l-2.7,1.3c-0.1,0-0.1,0-0.2,0c-0.1,0-0.2-0.1-0.3-0.2c-0.5-0.6-0.9-1.2-1.4-1.6c-0.5-0.5-1.1-0.7-2-0.7H8
		C7.5,9.3,7,9.4,6.5,9.5z"/>
	<path class="st0" d="M22.8,32.5h-2.9c-0.3,0-0.4-0.1-0.4-0.4V6.8c0-0.3,0.1-0.4,0.4-0.4h2.9c0.3,0,0.4,0.1,0.4,0.4V32
		C23.2,32.3,23.1,32.5,22.8,32.5z"/>
	<path class="st0" d="M42.5,32.5H28.4c-0.3,0-0.4-0.1-0.4-0.4V6.8c0-0.3,0.1-0.4,0.4-0.4h2.9c0.3,0,0.4,0.1,0.4,0.4v22
		c0,0.3,0.1,0.4,0.4,0.4h10.4c0.3,0,0.4,0.1,0.4,0.4V32C42.9,32.3,42.8,32.5,42.5,32.5z"/>
	<path class="st0" d="M63.3,32C63.3,32,63.3,32.1,63.3,32c0,0.3-0.1,0.4-0.4,0.4h-3.1c-0.2,0-0.4-0.1-0.4-0.3l-1.5-5.5
		c0-0.2-0.2-0.2-0.4-0.2h-6.7c-0.2,0-0.4,0.1-0.4,0.2l-1.5,5.5c0,0.2-0.2,0.3-0.4,0.3h-3.1c-0.3,0-0.5-0.1-0.5-0.4c0,0,0,0,0-0.1
		c0,0,0,0,0-0.1l7.7-25.3c0-0.2,0.2-0.3,0.4-0.3h2.2c0.2,0,0.3,0.1,0.4,0.3l7.7,25.3C63.3,32,63.3,32,63.3,32z M54.6,14.8
		c-0.1-0.2-0.1-0.5-0.2-0.8c-0.1-0.3-0.2-0.6-0.3-1H54l-0.5,1.9l-2,7.7c0,0.1,0,0.1,0,0.1s0,0,0,0.1c0,0.2,0.2,0.4,0.5,0.4h4.3
		c0.3,0,0.5-0.1,0.5-0.4v-0.1v-0.1L54.6,14.8z"/>
	<path class="st0" d="M71.8,25h-6.6c-0.3,0-0.4-0.1-0.4-0.4v-2.9c0-0.3,0.1-0.4,0.4-0.4h6.6c0.3,0,0.4,0.1,0.4,0.4v2.9
		C72.2,24.9,72.1,25,71.8,25z"/>
	<path class="st0" d="M86.7,9.7H82c-0.3,0-0.4,0.1-0.4,0.4v22c0,0.3-0.1,0.4-0.4,0.4h-2.9c-0.3,0-0.4-0.1-0.4-0.4v-22
		c0-0.3-0.1-0.4-0.4-0.4h-4.8c-0.3,0-0.4-0.1-0.4-0.4V6.8c0-0.3,0.1-0.4,0.4-0.4h14.1c0.3,0,0.4,0.1,0.4,0.4v2.5
		C87.2,9.5,87,9.7,86.7,9.7z"/>
	<path class="st0" d="M105.5,32.5H91.4c-0.3,0-0.4-0.1-0.4-0.4V6.8c0-0.3,0.1-0.4,0.4-0.4h14.1c0.3,0,0.4,0.1,0.4,0.4v2.5
		c0,0.3-0.1,0.4-0.4,0.4H95.1c-0.3,0-0.4,0.1-0.4,0.4v7c0,0.3,0.1,0.4,0.4,0.4h8.5c0.3,0,0.4,0.1,0.4,0.4v2.5c0,0.3-0.1,0.4-0.4,0.4
		h-8.5c-0.3,0-0.4,0.1-0.4,0.4v7.5c0,0.3,0.1,0.4,0.4,0.4h10.4c0.3,0,0.4,0.1,0.4,0.4V32C105.9,32.3,105.7,32.5,105.5,32.5z"/>
	<path class="st0" d="M129.2,32.1c0,0.2-0.1,0.3-0.4,0.3h-3.7l-0.3-0.2l-7.5-12.1c-0.8,0.9-1.7,2.1-2.8,3.6V32
		c0,0.3-0.1,0.4-0.4,0.4h-2.9c-0.3,0-0.4-0.1-0.4-0.4V6.8c0-0.3,0.1-0.4,0.4-0.4h2.9c0.3,0,0.4,0.1,0.4,0.4v10.9
		c0,0.3,0.1,0.5,0.4,0.5c0.1,0,0.2-0.1,0.4-0.2L124,6.6l0.3-0.2h3.4c0.3,0,0.5,0.1,0.5,0.3c0,0.1,0,0.2-0.1,0.3l-8,9.8
		c-0.1,0.1-0.1,0.1-0.1,0.2s0,0.2,0,0.2l9.1,14.6C129.1,31.9,129.2,32,129.2,32.1z"/>
	<path class="st1" d="M152.6,30.9c-1.3,1.3-3.1,2-5.5,2h-1.2c-1,0-1.9-0.1-2.7-0.3s-1.4-0.5-1.9-0.9c-0.8-0.6-1.4-1.2-1.8-1.8
		c-0.4-0.5-0.6-1-0.6-1.3c0-0.1,0.1-0.2,0.2-0.3l2.6-1.3c0.1-0.1,0.2-0.1,0.2-0.1c0.1,0,0.1,0,0.2,0.1c0,0.1,0.1,0.1,0.1,0.2
		c0.2,0.3,0.5,0.6,0.7,0.9s0.4,0.5,0.7,0.7c0.2,0.2,0.5,0.4,0.9,0.5c0.3,0.1,0.7,0.2,1.2,0.2h1.2c1,0,1.9-0.4,2.6-1.1
		c0.7-0.7,1.1-1.6,1.1-2.7v-1.4c0-1-0.4-1.9-1.1-2.7c-0.7-0.7-1.6-1.1-2.6-1.1h-3.3c-0.3,0-0.4-0.1-0.4-0.4v-2.5
		c0-0.3,0.1-0.4,0.4-0.4h3.3c1,0,1.9-0.4,2.6-1.1c0.7-0.7,1.1-1.6,1.1-2.7V13c0-1-0.4-1.9-1.1-2.7c-0.7-0.7-1.6-1.1-2.6-1.1h-1.2
		c-0.5,0-0.9,0.1-1.2,0.2c-0.3,0.1-0.6,0.3-0.9,0.5c-0.2,0.2-0.5,0.5-0.7,0.7s-0.4,0.6-0.7,0.9c-0.1,0.2-0.3,0.2-0.4,0.2
		c-0.1,0-0.2,0-0.2,0l-2.6-1.3c-0.2-0.1-0.2-0.2-0.2-0.3c0-0.4,0.2-0.8,0.6-1.3c0.4-0.5,1-1.1,1.8-1.7c0.5-0.4,1.1-0.6,1.9-0.9
		c0.8-0.2,1.6-0.3,2.6-0.3h1.2c2.3,0,4.1,0.7,5.4,2c1.3,1.3,2,3.2,2,5.4V14c0,1-0.4,2.2-1.3,3.4c-0.4,0.5-0.7,0.8-1,1.1
		c-0.3,0.2-0.5,0.4-0.5,0.6s0.2,0.3,0.5,0.6c0.3,0.3,0.7,0.7,1,1.2c0.9,1.3,1.3,2.4,1.3,3.4v1.2C154.5,27.8,153.9,29.6,152.6,30.9z"
		/>
	<path class="st1" d="M172.1,30.9c-1.3,1.3-3.1,2-5.5,2h-1.2c-1,0-1.9-0.1-2.7-0.3s-1.4-0.5-1.9-0.9c-0.8-0.6-1.4-1.2-1.8-1.8
		c-0.4-0.5-0.6-1-0.6-1.3c0-0.1,0.1-0.2,0.2-0.3l2.6-1.3c0.1-0.1,0.2-0.1,0.2-0.1c0.1,0,0.2,0.1,0.4,0.3c0.2,0.3,0.5,0.6,0.7,0.9
		s0.4,0.5,0.7,0.7c0.2,0.2,0.5,0.4,0.9,0.5c0.3,0.1,0.7,0.2,1.2,0.2h1.2c1,0,1.9-0.4,2.6-1.1c0.7-0.7,1.1-1.6,1.1-2.7v-1.4
		c0-1-0.4-1.9-1.1-2.7c-0.7-0.7-1.6-1.1-2.6-1.1H160c-0.3,0-0.4-0.1-0.4-0.4V6.8c0-0.3,0.1-0.4,0.4-0.4h13.3c0.3,0,0.4,0.1,0.4,0.4
		v2.5c0,0.3-0.1,0.4-0.4,0.4h-9.5c-0.3,0-0.4,0.1-0.4,0.4v6.8c0,0.3,0.1,0.4,0.4,0.4h2.9c2.3,0,4.1,0.7,5.5,2s2,3.1,2,5.4v0.8
		C174.1,27.8,173.4,29.6,172.1,30.9z"/>
	<path class="st1" d="M193.6,28.7c-0.4,0.9-0.9,1.6-1.5,2.2s-1.4,1.1-2.3,1.4c-0.9,0.3-1.9,0.5-3.1,0.5h-1.2c-1.1,0-2.2-0.2-3.1-0.5
		c-0.9-0.3-1.7-0.8-2.3-1.4s-1.2-1.4-1.5-2.2c-0.4-0.9-0.5-1.8-0.5-2.9V13c0-1,0.2-2,0.5-2.9c0.4-0.9,0.9-1.6,1.5-2.2
		s1.4-1.1,2.3-1.4c0.9-0.3,1.9-0.5,3.1-0.5h1.2c1.1,0,2.2,0.2,3.1,0.5c0.9,0.3,1.7,0.8,2.3,1.4s1.2,1.4,1.5,2.2
		c0.4,0.9,0.5,1.8,0.5,2.9v12.8C194.1,26.9,193.9,27.8,193.6,28.7z M190.4,13c0-1-0.4-1.9-1.1-2.7c-0.7-0.7-1.6-1.1-2.7-1.1h-1.2
		c-1,0-1.9,0.4-2.7,1.1c-0.7,0.7-1.1,1.6-1.1,2.7v12.8c0,1,0.4,1.9,1.1,2.7c0.7,0.7,1.6,1.1,2.7,1.1h1.2c1,0,1.9-0.4,2.7-1.1
		c0.7-0.7,1.1-1.6,1.1-2.7V13z"/>
	<path class="st1" d="M214,28.7c-0.4,0.9-0.9,1.6-1.5,2.2s-1.4,1.1-2.3,1.4c-0.9,0.3-1.9,0.5-3.1,0.5h-1.2c-1.1,0-2.2-0.2-3.1-0.5
		c-0.9-0.3-1.7-0.8-2.3-1.4s-1.2-1.4-1.5-2.2c-0.4-0.9-0.5-1.8-0.5-2.9V13c0-1,0.2-2,0.5-2.9c0.4-0.9,0.9-1.6,1.5-2.2
		s1.4-1.1,2.3-1.4c0.9-0.3,1.9-0.5,3.1-0.5h1.2c1.1,0,2.2,0.2,3.1,0.5c0.9,0.3,1.7,0.8,2.3,1.4s1.2,1.4,1.5,2.2
		c0.4,0.9,0.5,1.8,0.5,2.9v12.8C214.5,26.9,214.4,27.8,214,28.7z M210.8,13c0-1-0.4-1.9-1.1-2.7c-0.7-0.7-1.6-1.1-2.7-1.1h-1.2
		c-1,0-1.9,0.4-2.7,1.1c-0.7,0.7-1.1,1.6-1.1,2.7v12.8c0,1,0.4,1.9,1.1,2.7c0.7,0.7,1.6,1.1,2.7,1.1h1.2c1,0,1.9-0.4,2.7-1.1
		c0.7-0.7,1.1-1.6,1.1-2.7V13z"/>
</g>
</svg>
