<?xml version="1.0" encoding="utf-8"?>
<!-- Generator: Adobe Illustrator 22.1.0, SVG Export Plug-In . SVG Version: 6.00 Build 0)  -->
<svg version="1.1" id="Layer_1" xmlns="http://www.w3.org/2000/svg" xmlns:xlink="http://www.w3.org/1999/xlink" x="0px" y="0px"
	 viewBox="0 0 412 370.2" style="enable-background:new 0 0 412 370.2;" xml:space="preserve">
<style type="text/css">
	.st0{fill:#FBFBFB;}
	.st1{fill:none;stroke:#B1B3B6;stroke-width:0.8966;stroke-miterlimit:10;}
</style>
<path class="st0" d="M111.1,6.8c-5.2,0-10.2,2.9-12.8,7.4L3.6,178.3c-2.6,4.6-2.6,10.2,0,14.7l94.7,164.1c2.6,4.6,7.5,7.4,12.8,7.4
	h189.4c5.2,0,10.2-2.9,12.8-7.4L408,193c2.6-4.6,2.6-10.2,0-14.7L313.3,14.2c-2.6-4.6-7.5-7.4-12.8-7.4
	C300.5,6.8,111.1,6.8,111.1,6.8z"/>
<path class="st1" d="M122.8,28.9c-4.6,0-8.9,2.5-11.2,6.5l-83,143.8c-2.3,4-2.3,8.9,0,12.9l83,143.8c2.3,4,6.6,6.5,11.2,6.5h166
	c4.6,0,8.9-2.5,11.2-6.5l83-143.8c2.3-4,2.3-8.9,0-12.9L300,35.4c-2.3-4-6.6-6.5-11.2-6.5C288.8,28.9,122.8,28.9,122.8,28.9z"/>
</svg>
