<?xml version="1.0" encoding="utf-8"?>
<!-- Generator: Adobe Illustrator 19.2.1, SVG Export Plug-In . SVG Version: 6.00 Build 0)  -->
<svg version="1.1" id="Layer_1" xmlns="http://www.w3.org/2000/svg" xmlns:xlink="http://www.w3.org/1999/xlink" x="0px" y="0px"
	 viewBox="0 0 327 33.1" style="enable-background:new 0 0 327 33.1;" xml:space="preserve">
<style type="text/css">
	.st0{fill:#F16C28;}
	.st1{fill:#211C1B;}
	.st2{fill:#B0A19E;}
	.st3{fill:#CCC6BF;}
</style>
<g>
	<path class="st0" d="M259.9,10.7h-13.6v3.7h4.9c5.3,0,10.1,1.9,10.1,6.8c0,4.8-4.8,7.1-9.9,7.1c-5.6,0-10.3-1.7-10.3-6.6h4.7
		c0,2.3,3.1,3,5.6,3c2.3,0,5.2-0.9,5.2-3.4c0-2.4-2.8-3-5.4-3h-9.6c0-3.8,0-7.3,0-11.1h18.2V10.7z"/>
	<path class="st0" d="M307.2,10.7h-13.6v3.7h4.9c5.3,0,10.1,1.9,10.1,6.8c0,4.8-4.8,7.1-9.9,7.1c-5.6,0-10.3-1.7-10.3-6.6h4.7
		c0,2.3,3.1,3,5.6,3c2.3,0,5.2-0.9,5.2-3.4c0-2.4-2.8-3-5.4-3h-9.5c0-3.8,0-7.3,0-11.1h18.2L307.2,10.7L307.2,10.7z"/>
	<path class="st0" d="M236.5,10.7H223v3.7h4.9c5.3,0,10.1,1.9,10.1,6.8c0,4.8-4.8,7.1-9.9,7.1c-5.6,0-10.3-1.7-10.3-6.6h4.7
		c0,2.3,3.1,3,5.6,3c2.3,0,5.2-0.9,5.2-3.4c0-2.4-2.8-3-5.4-3h-9.5c0-3.8,0-7.3,0-11.1h18.2V10.7z"/>
	<path class="st0" d="M263.5,16c0-12.6,22.1-12.6,22.1,0v3c0,12.6-22.1,12.6-22.1,0V16z M268.2,19c0,7.7,12.7,7.7,12.7,0v-3
		c0-7.5-12.7-7.6-12.7,0V19z"/>
</g>
<g>
	<path class="st1" d="M14,8.8c-3.4,0-6,0.7-7.9,2.3s-2.8,3.6-2.8,6.4s0.9,4.9,2.8,6.4s4.5,2.3,7.8,2.3c2.4,0,4.6-0.3,6.5-1l0.8,2
		c-1.1,0.4-2.2,0.7-3.4,0.9c-1.2,0.2-2.5,0.3-4,0.3c-2.4,0-4.5-0.3-6.2-0.8C6,27,4.5,26.3,3.4,25.3c-1.1-0.9-2-2.1-2.5-3.4
		C0.3,20.6,0,19.1,0,17.5s0.3-3,0.9-4.4c0.6-1.3,1.5-2.5,2.7-3.4C4.8,8.7,6.3,8,8,7.5s3.7-0.8,6-0.8c1.5,0,2.8,0.1,3.9,0.3
		C19,7.1,20,7.3,21,7.7l-0.8,2C18.4,9.1,16.3,8.8,14,8.8z"/>
	<path class="st1" d="M46.7,13.2c0,1.5-0.6,2.8-1.9,3.9c-1.2,1.1-2.9,1.8-5.1,2.2l7.1,8.7h-3.6l-6.9-8.4l0,0h-6.5V28h-3.3V6.9H37
		c1.5,0,2.9,0.2,4.1,0.5c1.2,0.3,2.2,0.8,3,1.3c0.8,0.6,1.4,1.2,1.9,2S46.7,12.3,46.7,13.2z M43.4,13.2c0-1.2-0.5-2.2-1.6-3
		c-1.1-0.7-2.7-1.1-4.7-1.1h-7.2v8.3h6.9c2.1,0,3.7-0.4,4.9-1.1C42.8,15.5,43.4,14.5,43.4,13.2z"/>
	<path class="st1" d="M62.1,19.1V28h-3.3v-8.9l-10-12.2h3.5L60.4,17h0.1l8-10.1H72L62.1,19.1z"/>
	<path class="st1" d="M76.3,6.9h3.3v18.9h14.1V28H76.3V6.9z"/>
	<path class="st1" d="M102.1,28h-3.3V6.9h3.3V28z"/>
</g>
<g>
	<path class="st2" d="M175.3,28.1h-3.7V7h3.7V28.1z M191.2,7h4.4l-14.2,9.8L196.1,28h-4.5L177,16.9L191.2,7z"/>
	<g>
		<path class="st2" d="M122.1,7v2.2h10v18.9h3.7V9.2c0.3,0,31.7-0.1,31.7-0.1V7H122.1z"/>
		<polygon class="st2" points="151.3,25.9 151.3,18.3 166.5,18.3 166.5,16.1 151.3,16.1 151.3,11 147.7,11 147.7,28.1 167.7,28.1 
			167.7,25.9 		"/>
	</g>
	<g>
		<path class="st2" d="M119.5,16.2v2H110v-2H119.5z"/>
	</g>
</g>
<g>
	<path class="st3" d="M198.3,5.7c0.1-0.3,0.3-0.6,0.5-0.8s0.5-0.4,0.8-0.5s0.6-0.2,1-0.2c0.3,0,0.7,0.1,1,0.2s0.6,0.3,0.8,0.5
		s0.4,0.5,0.5,0.8s0.2,0.6,0.2,1s-0.1,0.7-0.2,1c-0.1,0.3-0.3,0.6-0.5,0.8s-0.5,0.4-0.8,0.5s-0.6,0.2-1,0.2c-0.3,0-0.7-0.1-1-0.2
		c-0.3-0.1-0.6-0.3-0.8-0.5s-0.4-0.5-0.5-0.8s-0.2-0.6-0.2-1C198.1,6.3,198.1,6,198.3,5.7z M198.7,7.5c0.1,0.3,0.2,0.5,0.4,0.7
		s0.4,0.3,0.6,0.4c0.2,0.1,0.5,0.2,0.8,0.2s0.6-0.1,0.8-0.2c0.2-0.1,0.5-0.3,0.6-0.4c0.2-0.2,0.3-0.4,0.4-0.7
		c0.1-0.3,0.2-0.5,0.2-0.8s-0.1-0.6-0.2-0.8c-0.1-0.3-0.2-0.5-0.4-0.7s-0.4-0.3-0.6-0.4c-0.2-0.1-0.5-0.2-0.8-0.2s-0.6,0.1-0.8,0.2
		s-0.5,0.3-0.6,0.4c-0.2,0.2-0.3,0.4-0.4,0.7c-0.1,0.3-0.2,0.5-0.2,0.8S198.6,7.3,198.7,7.5z M200.7,5.2c0.3,0,0.6,0.1,0.8,0.2
		s0.2,0.3,0.2,0.6c0,0.3-0.1,0.5-0.2,0.6c-0.1,0.1-0.3,0.2-0.5,0.2l0.8,1.3h-0.5l-0.8-1.2H200v1.2h-0.4V5.2H200.7z M200.5,6.5
		c0.1,0,0.2,0,0.3,0s0.2,0,0.2-0.1c0.1,0,0.1-0.1,0.2-0.1c0-0.1,0.1-0.2,0.1-0.3c0-0.1,0-0.2-0.1-0.2c0-0.1-0.1-0.1-0.1-0.1
		c-0.1,0-0.1-0.1-0.2-0.1c-0.1,0-0.2,0-0.2,0h-0.6v0.9C200.1,6.5,200.5,6.5,200.5,6.5z"/>
</g>
</svg>
