<?xml version="1.0" encoding="utf-8"?>
<!-- Generator: Adobe Illustrator 19.2.1, SVG Export Plug-In . SVG Version: 6.00 Build 0)  -->
<svg version="1.1" id="Layer_1" xmlns="http://www.w3.org/2000/svg" xmlns:xlink="http://www.w3.org/1999/xlink" x="0px" y="0px"
	 viewBox="0 0 295.7 33.1" style="enable-background:new 0 0 295.7 33.1;" xml:space="preserve">
<style type="text/css">
	.st0{fill:#F16C28;}
	.st1{fill:#CCC6BF;}
	.st2{fill:#B0A19E;}
	.st3{fill:#211C1B;}
</style>
<g>
	<path class="st0" d="M213.4,11h-13.7v3.7h4.9c5.4,0,10.2,1.9,10.2,6.8c0,4.8-4.8,7.1-9.9,7.1c-5.6,0-10.4-1.7-10.4-6.6h4.8
		c0,2.3,3.1,3,5.6,3c2.3,0,5.3-0.9,5.3-3.4c0-2.4-2.8-3.1-5.4-3.1h-9.6c0-3.8,0-7.4,0-11.2h18.4L213.4,11L213.4,11z"/>
	<path class="st0" d="M218.5,25.1h3.8V10.9h-3.9V7.2h8.7v17.9h3.5v3.4h-12.1V25.1z"/>
	<path class="st0" d="M232.8,16.3c0-12.7,22.3-12.7,22.3,0v3.1c0,12.7-22.3,12.7-22.3,0L232.8,16.3L232.8,16.3z M237.4,19.4
		c0,7.7,12.8,7.7,12.8,0v-3.1c0-7.6-12.8-7.7-12.8,0V19.4z"/>
	<path class="st0" d="M277.4,11h-13.7v3.7h4.9c5.4,0,10.2,1.9,10.2,6.8c0,4.8-4.8,7.1-9.9,7.1c-5.6,0-10.4-1.7-10.4-6.6h4.8
		c0,2.3,3.1,3,5.6,3c2.3,0,5.3-0.9,5.3-3.4c0-2.4-2.8-3.1-5.4-3.1h-9.6c0-3.8,0-7.4,0-11.2h18.3V11z"/>
</g>
<g>
	<path class="st1" d="M175,6c0.1-0.3,0.3-0.6,0.5-0.8s0.5-0.4,0.8-0.5s0.6-0.2,1-0.2c0.3,0,0.7,0.1,1,0.2s0.6,0.3,0.8,0.5
		s0.4,0.5,0.5,0.8s0.2,0.6,0.2,1s-0.1,0.7-0.2,1c-0.1,0.3-0.3,0.6-0.5,0.8s-0.5,0.4-0.8,0.5s-0.6,0.2-1,0.2c-0.3,0-0.7-0.1-1-0.2
		c-0.3-0.1-0.6-0.3-0.8-0.5S175.1,8.3,175,8s-0.2-0.6-0.2-1S174.8,6.3,175,6z M175.4,7.8c0.1,0.3,0.2,0.5,0.4,0.7s0.4,0.3,0.6,0.4
		c0.2,0.1,0.5,0.2,0.8,0.2s0.6-0.1,0.8-0.2c0.2-0.1,0.5-0.3,0.6-0.4c0.2-0.2,0.3-0.4,0.4-0.7c0.1-0.3,0.2-0.5,0.2-0.8
		s-0.1-0.6-0.2-0.8c-0.1-0.3-0.2-0.5-0.4-0.7s-0.4-0.3-0.6-0.4c-0.2-0.1-0.5-0.2-0.8-0.2s-0.6,0.1-0.8,0.2s-0.5,0.3-0.6,0.4
		c-0.2,0.2-0.3,0.4-0.4,0.7c-0.1,0.3-0.2,0.5-0.2,0.8C175.2,7.2,175.3,7.5,175.4,7.8z M177.4,5.5c0.3,0,0.6,0.1,0.8,0.2
		s0.2,0.3,0.2,0.6c0,0.3-0.1,0.5-0.2,0.6c-0.1,0.1-0.3,0.2-0.5,0.2l0.8,1.3H178l-0.8-1.2h-0.5v1.2h-0.4V5.5H177.4z M177.2,6.8
		c0.1,0,0.2,0,0.3,0s0.2,0,0.2-0.1c0.1,0,0.1-0.1,0.2-0.1c0-0.1,0.1-0.2,0.1-0.3c0-0.1,0-0.2-0.1-0.2c0-0.1-0.1-0.1-0.1-0.1
		c-0.1,0-0.1-0.1-0.2-0.1c-0.1,0-0.2,0-0.2,0h-0.6v0.9C176.8,6.8,177.2,6.8,177.2,6.8z"/>
</g>
<g>
	<path class="st2" d="M152,28.3h-3.7v-21h3.7V28.3z M167.9,7.3h4.4l-14.2,9.8l14.7,11.2h-4.5l-14.6-11.2L167.9,7.3z"/>
	<g>
		<path class="st2" d="M98.8,7.2v2.2h10v18.9h3.7V9.5c0.3,0,31.7-0.1,31.7-0.1V7.2H98.8z"/>
		<polygon class="st2" points="128,26.1 128,18.5 143.1,18.5 143.1,16.3 128,16.3 128,11.3 124.4,11.3 124.4,28.3 144.4,28.3 
			144.4,26.1 		"/>
	</g>
	<g>
		<path class="st2" d="M96.2,16.4v2h-9.5v-2H96.2z"/>
	</g>
</g>
<g>
	<g>
		<path class="st3" d="M28.5,7.2h17.8v2.2H31.9v6.9h13.6v2.2H31.9v7.6h14.8v2.2H28.5V7.2z"/>
	</g>
	<g>
		<path class="st3" d="M14,8.8c-3.4,0-6,0.7-7.9,2.2s-2.8,3.6-2.8,6.4c0,2.7,0.9,4.9,2.8,6.4s4.5,2.3,7.8,2.3c2.4,0,4.6-0.3,6.5-1
			l0.8,2c-1.1,0.4-2.2,0.7-3.4,0.9c-1.2,0.2-2.5,0.3-4,0.3c-2.4,0-4.5-0.3-6.2-0.8C6,27,4.5,26.3,3.4,25.3c-1.1-0.9-2-2.1-2.5-3.4
			C0.3,20.6,0,19.1,0,17.5s0.3-3,0.9-4.4c0.6-1.3,1.5-2.5,2.7-3.4C4.8,8.7,6.3,8,8,7.5s3.7-0.8,6-0.8c1.5,0,2.8,0.1,3.9,0.3
			C19,7.1,20,7.4,21,7.7l-0.8,2C18.4,9.1,16.3,8.8,14,8.8z"/>
		<path class="st3" d="M19.1,28v-9.6H13v-2.1h9.2V28C22.1,28,19.1,28,19.1,28z"/>
	</g>
	<path class="st3" d="M56,11.8v16.4h-3.3v-21h3.1l10.5,14l10.4-14H80v21h-3.3V11.8L66.4,25.5L56,11.8z"/>
</g>
</svg>
