<?xml version="1.0" encoding="utf-8"?>
<!-- Generator: Adobe Illustrator 19.2.1, SVG Export Plug-In . SVG Version: 6.00 Build 0)  -->
<svg version="1.1" id="Layer_1" xmlns="http://www.w3.org/2000/svg" xmlns:xlink="http://www.w3.org/1999/xlink" x="0px" y="0px"
	 viewBox="0 0 312.2 33.1" style="enable-background:new 0 0 312.2 33.1;" xml:space="preserve">
<style type="text/css">
	.st0{fill:#211C1B;}
	.st1{fill:#B0A19E;}
	.st2{fill:#CCC6BF;}
	.st3{fill:#F16C28;}
</style>
<g>
	<path class="st0" d="M0,6.1h3.3v19.3h14.1v2.2H0V6.1z"/>
	<path class="st0" d="M25.8,27.7h-3.3V6.1h3.3V27.7z"/>
	<path class="st0" d="M42.3,8.4v19.3H39V8.4h-9V6.1h21.4v2.3H42.3z"/>
	<path class="st0" d="M73.8,17.7h-15v10h-3.3V6.1h3.3v9.3h14.9V6.1H77v21.6h-3.3v-10H73.8z"/>
	<path class="st0" d="M87.7,27.7h-3.3V6.1h3.3V27.7z"/>
</g>
<g>
	<path class="st1" d="M160.2,27.7h-3.7V6.2h3.7V27.7z M176.2,6.2h4.4l-14.2,10.1l14.7,11.5h-4.5L162,16.3L176.2,6.2z"/>
	<g>
		<path class="st1" d="M107,6.1v2.3h10v19.3h3.7V8.4c0.3,0,31.7-0.1,31.7-0.1V6.1H107z"/>
		<polygon class="st1" points="136.3,25.5 136.3,17.7 151.4,17.7 151.4,15.4 136.3,15.4 136.3,10.2 132.7,10.2 132.7,27.7 
			152.7,27.7 152.7,25.5 		"/>
	</g>
	<g>
		<path class="st1" d="M105,15.5v2h-9.5v-2H105z"/>
	</g>
</g>
<g>
	<path class="st2" d="M183.2,5.1c0.1-0.3,0.3-0.6,0.5-0.8c0.2-0.2,0.5-0.4,0.8-0.5s0.6-0.2,1-0.2c0.3,0,0.7,0.1,1,0.2
		c0.3,0.1,0.6,0.3,0.8,0.5s0.4,0.5,0.5,0.8s0.2,0.6,0.2,1s-0.1,0.7-0.2,1c-0.1,0.3-0.3,0.6-0.5,0.8s-0.5,0.4-0.8,0.5
		c-0.3,0.1-0.6,0.2-1,0.2c-0.3,0-0.7-0.1-1-0.2c-0.3-0.1-0.6-0.3-0.8-0.5s-0.4-0.5-0.5-0.8s-0.2-0.6-0.2-1
		C183.1,5.7,183.1,5.4,183.2,5.1z M183.7,6.9c0.1,0.3,0.2,0.5,0.4,0.7s0.4,0.3,0.6,0.4c0.2,0.1,0.5,0.2,0.8,0.2s0.6-0.1,0.8-0.2
		c0.2-0.1,0.5-0.3,0.6-0.4c0.2-0.2,0.3-0.4,0.4-0.7c0.1-0.3,0.2-0.5,0.2-0.8s-0.1-0.6-0.2-0.8c-0.1-0.3-0.2-0.5-0.4-0.7
		s-0.4-0.3-0.6-0.4c-0.2-0.1-0.5-0.2-0.8-0.2s-0.6,0.1-0.8,0.2s-0.5,0.3-0.6,0.4c-0.2,0.2-0.3,0.4-0.4,0.7c-0.1,0.3-0.2,0.5-0.2,0.8
		C183.5,6.3,183.6,6.6,183.7,6.9z M185.7,4.6c0.3,0,0.6,0.1,0.8,0.2s0.2,0.3,0.2,0.6c0,0.3-0.1,0.5-0.2,0.6
		c-0.1,0.1-0.3,0.2-0.5,0.2l0.8,1.3h-0.5l-0.8-1.2H185v1.2h-0.4V4.6H185.7z M185.5,5.9c0.1,0,0.2,0,0.3,0s0.2,0,0.2-0.1
		c0.1,0,0.1-0.1,0.2-0.1c0-0.1,0.1-0.2,0.1-0.3c0-0.1,0-0.2-0.1-0.2c0-0.1-0.1-0.1-0.1-0.1C186,5,185.9,5,185.8,5
		c-0.1,0-0.2,0-0.2,0H185v0.9H185.5z"/>
</g>
<g>
	<g>
		<path class="st3" d="M218.7,6v13.6h3.1v4h-3.1v4.1h-4.8v-4.1h-13.9l-0.4-4.2L211.2,6C211.2,6,218.7,6,218.7,6z M213.8,19.7V9.6
			L205,19.8L213.8,19.7L213.8,19.7z"/>
		<path class="st3" d="M244.4,9.9h-14.1v3.8h5.1c5.5,0,10.5,1.9,10.5,7c0,5-5,7.3-10.2,7.3c-5.8,0-10.7-1.7-10.7-6.8h4.9
			c0,2.4,3.2,3.1,5.8,3.1c2.4,0,5.4-1,5.4-3.5c0-2.4-2.9-3.1-5.6-3.1h-9.9c0-3.9,0-7.6,0-11.5h18.9L244.4,9.9L244.4,9.9z"/>
		<path class="st3" d="M248.1,15.3c0-13,22.9-13,22.9,0v3.1c0,13-22.9,13-22.9,0V15.3L248.1,15.3z M253,18.5c0,8,13.1,8,13.1,0v-3.1
			c0-7.8-13.1-7.9-13.1,0V18.5z"/>
		<path class="st3" d="M274.1,15.3c0-13,22.9-13,22.9,0v3.1c0,13-22.9,13-22.9,0V15.3z M279,18.5c0,8,13.1,8,13.1,0v-3.1
			c0-7.8-13.1-7.9-13.1,0V18.5z"/>
	</g>
</g>
</svg>
