<?xml version="1.0" encoding="utf-8"?>
<!-- Generator: Adobe Illustrator 19.2.1, SVG Export Plug-In . SVG Version: 6.00 Build 0)  -->
<svg version="1.1" id="Layer_1" xmlns="http://www.w3.org/2000/svg" xmlns:xlink="http://www.w3.org/1999/xlink" x="0px" y="0px"
	 viewBox="0 0 367.6 33.1" style="enable-background:new 0 0 367.6 33.1;" xml:space="preserve">
<style type="text/css">
	.st0{fill:#F16C28;}
	.st1{fill:#211C1B;}
</style>
<g>
	<path class="st0" d="M293.5,28.2L304,10.6h-12.5V6.7h18.9l0.3,2.2l-11.5,19.4H293.5z"/>
	<path class="st0" d="M329.2,6.7v13.4h3v4h-3v4h-4.7v-4h-13.7l-0.4-4.1l11.5-13.3C321.9,6.7,329.2,6.7,329.2,6.7z M324.4,20.1v-9.9
		l-8.7,10L324.4,20.1L324.4,20.1z"/>
	<path class="st0" d="M354.5,10.5h-13.9v3.8h5c5.4,0,10.3,1.9,10.3,6.9c0,4.9-4.9,7.2-10.1,7.2c-5.7,0-10.5-1.7-10.5-6.7h4.8
		c0,2.3,3.2,3,5.7,3c2.3,0,5.3-0.9,5.3-3.4c0-2.4-2.8-3.1-5.5-3.1H336c0-3.9,0-7.5,0-11.4h18.6L354.5,10.5L354.5,10.5z"/>
</g>
<g>
	<path class="st1" d="M19.2,13.2c0,1-0.2,1.8-0.7,2.6s-1.1,1.5-2,2.1s-1.9,1.1-3.1,1.4s-2.6,0.5-4.1,0.5h-6v7.9H0v-21h9.5
		c1.5,0,2.9,0.2,4.1,0.5s2.2,0.8,3,1.4c0.8,0.6,1.4,1.3,1.9,2.1S19.2,12.3,19.2,13.2z M15.9,13.2c0-1.3-0.5-2.4-1.6-3.2
		c-1.1-0.8-2.7-1.2-4.7-1.2H3.3v8.8h5.9c2.1,0,3.7-0.4,4.9-1.2C15.3,15.7,15.9,14.6,15.9,13.2z"/>
	<path class="st1" d="M36,28.1c-2.2,0-4.2-0.3-5.8-0.8c-1.6-0.5-3-1.3-4.1-2.3s-1.9-2.1-2.4-3.4s-0.8-2.8-0.8-4.3s0.3-3,0.8-4.3
		s1.3-2.5,2.4-3.4c1.1-1,2.4-1.7,4.1-2.3c1.6-0.5,3.6-0.8,5.8-0.8s4.2,0.3,5.8,0.8s3,1.3,4.1,2.3s1.9,2.1,2.4,3.4s0.8,2.8,0.8,4.3
		s-0.3,3-0.8,4.3C47.8,22.9,47,24,45.9,25s-2.4,1.7-4.1,2.3C40.2,27.8,38.3,28.1,36,28.1z M36,26.1c1.6,0,3.1-0.2,4.3-0.6
		s2.2-1,3-1.8s1.4-1.7,1.8-2.8c0.4-1.1,0.6-2.3,0.6-3.7c0-1.4-0.2-2.6-0.6-3.7c-0.4-1.1-1-2-1.8-2.8s-1.8-1.4-3-1.8
		c-1.2-0.4-2.6-0.6-4.3-0.6c-1.6,0-3.1,0.2-4.3,0.6c-1.2,0.4-2.3,1-3.1,1.8c-0.8,0.8-1.4,1.7-1.8,2.8s-0.6,2.3-0.6,3.7
		s0.2,2.6,0.6,3.7s1,2,1.8,2.8s1.8,1.4,3.1,1.8C33,25.9,34.4,26.1,36,26.1z"/>
	<path class="st1" d="M54.1,6.7h3.3v18.9h14.1v2.2H54.1V6.7z"/>
	<path class="st1" d="M83.6,18.9v8.9h-3.3v-8.9l-10-12.2h3.5l8.1,10.1H82l8-10.1h3.5L83.6,18.9z"/>
	<path class="st1" d="M112.7,22h-12.6l-2.9,5.8h-3.4l11-21.1h3.3l11,21.1h-3.4L112.7,22z M101.2,19.9h10.3l-3.2-6.3
		c-0.3-0.7-0.6-1.4-0.9-2.1s-0.6-1.4-0.9-2.1h-0.1c-0.3,0.7-0.6,1.4-0.9,2.1c-0.3,0.7-0.6,1.4-0.9,2.1L101.2,19.9z"/>
	<path class="st1" d="M130.9,28.1c-2.1,0-3.8-0.1-5.1-0.3c-1.3-0.2-2.4-0.5-3.4-0.9l0.9-1.9c0.8,0.3,1.9,0.5,3.1,0.8
		c1.2,0.2,2.6,0.3,4.1,0.3c1.1,0,2-0.1,2.9-0.2s1.7-0.4,2.3-0.7c0.6-0.3,1.1-0.7,1.5-1.2s0.5-1.1,0.5-1.7c0-0.7-0.2-1.2-0.6-1.7
		c-0.4-0.4-0.9-0.8-1.6-1.1c-0.7-0.3-1.4-0.6-2.3-0.8c-0.8-0.2-1.7-0.4-2.7-0.6c-0.9-0.2-1.9-0.5-2.8-0.8c-1-0.3-1.9-0.7-2.7-1.1
		c-0.8-0.4-1.5-1-2-1.7s-0.8-1.5-0.8-2.5c0-0.8,0.2-1.5,0.5-2.2c0.4-0.7,0.9-1.3,1.7-1.8c0.8-0.5,1.8-0.9,3-1.2
		c1.2-0.3,2.7-0.4,4.4-0.4c1.5,0,2.8,0.1,4,0.3c1.2,0.2,2.3,0.5,3.2,0.8l-0.9,1.9c-0.8-0.3-1.8-0.5-2.9-0.7
		c-1.1-0.2-2.2-0.3-3.4-0.3c-2.3,0-4,0.3-5,1c-1,0.6-1.5,1.5-1.5,2.5c0,0.6,0.2,1.1,0.5,1.5c0.4,0.4,0.8,0.8,1.4,1.1
		s1.3,0.6,2.1,0.8s1.7,0.4,2.6,0.7c1.1,0.2,2.1,0.5,3.1,0.8s2,0.7,2.8,1.2s1.5,1,2,1.7s0.8,1.5,0.8,2.5s-0.2,1.9-0.7,2.6
		s-1.2,1.3-2.1,1.8c-0.9,0.5-2,0.8-3.2,1.1C133.7,28,132.4,28.1,130.9,28.1z"/>
	<path class="st1" d="M166,13.2c0,1-0.2,1.8-0.7,2.6s-1.1,1.5-2,2.1s-1.9,1.1-3.1,1.4c-1.2,0.3-2.6,0.5-4.1,0.5h-5.9v7.9h-3.3v-21
		h9.5c1.5,0,2.9,0.2,4.1,0.5c1.2,0.3,2.2,0.8,3,1.4c0.8,0.6,1.4,1.3,1.9,2.1C165.7,11.5,166,12.3,166,13.2z M162.6,13.2
		c0-1.3-0.5-2.4-1.6-3.2c-1.1-0.8-2.7-1.2-4.7-1.2h-6.2v8.8h5.9c2.1,0,3.7-0.4,4.9-1.2C162,15.7,162.6,14.6,162.6,13.2z"/>
	<path class="st1" d="M184.8,22h-12.6l-2.9,5.8h-3.4l11-21.1h3.3l11,21.1h-3.4L184.8,22z M173.3,19.9h10.3l-3.2-6.3
		c-0.3-0.7-0.6-1.4-0.9-2.1c-0.3-0.7-0.6-1.4-0.9-2.1h-0.1c-0.3,0.7-0.6,1.4-0.9,2.1c-0.3,0.7-0.6,1.4-0.9,2.1L173.3,19.9z"/>
	<path class="st1" d="M215.9,13c0,1.5-0.6,2.8-1.9,3.9c-1.2,1.1-2.9,1.8-5.1,2.2l7.1,8.7h-3.6l-6.9-8.4l0,0H199v8.4h-3.3V6.7h10.5
		c1.5,0,2.9,0.2,4.1,0.5c1.2,0.3,2.2,0.8,3,1.3c0.8,0.6,1.4,1.2,1.9,2S215.9,12.1,215.9,13z M212.5,13c0-1.2-0.5-2.2-1.6-3
		c-1.1-0.7-2.7-1.1-4.7-1.1H199v8.3h6.9c2.1,0,3.7-0.4,4.9-1.1C212,15.3,212.5,14.3,212.5,13z"/>
	<path class="st1" d="M231.3,8.9v18.9H228V8.9h-9V6.7h21.4V9L231.3,8.9z"/>
	<path class="st1" d="M247.8,27.8h-3.3V6.7h3.3V27.8z"/>
	<path class="st1" d="M267.5,8.6c-3.4,0-6,0.8-7.9,2.3s-2.8,3.6-2.8,6.4s0.9,4.9,2.8,6.4s4.5,2.3,7.8,2.3c2.4,0,4.6-0.3,6.5-1l0.8,2
		c-1.1,0.4-2.2,0.7-3.4,0.9c-1.2,0.2-2.5,0.3-4,0.3c-2.4,0-4.5-0.3-6.2-0.8s-3.2-1.3-4.3-2.2c-1.1-0.9-2-2.1-2.5-3.4
		c-0.6-1.3-0.8-2.8-0.8-4.4s0.3-3,0.9-4.4c0.6-1.3,1.5-2.5,2.7-3.4c1.2-0.9,2.6-1.7,4.4-2.2c1.7-0.5,3.7-0.8,6-0.8
		c1.5,0,2.8,0.1,3.9,0.3c1.1,0.2,2.1,0.4,3.1,0.7l-0.8,2C271.9,8.9,269.8,8.6,267.5,8.6z"/>
</g>
</svg>
