<?xml version="1.0" encoding="utf-8"?>
<!-- Generator: Adobe Illustrator 19.2.1, SVG Export Plug-In . SVG Version: 6.00 Build 0)  -->
<svg version="1.1" id="Layer_1" xmlns="http://www.w3.org/2000/svg" xmlns:xlink="http://www.w3.org/1999/xlink" x="0px" y="0px"
	 viewBox="0 0 303.7 33.1" style="enable-background:new 0 0 303.7 33.1;" xml:space="preserve">
<style type="text/css">
	.st0{fill:#F16C28;}
	.st1{fill:#211C1B;}
	.st2{fill:#B0A19E;}
	.st3{fill:#CCC6BF;}
</style>
<g>
	<g>
		<path class="st0" d="M198.1,18.7v-3.3h3.7c2.6,0,5.3-0.6,5.4-2.6c0-1.2-1.2-2.8-5.2-2.8c-2.2,0-5.3,0.7-5.3,2.7h-4.8
			c0-4.6,5.5-6.3,10.2-6.3c4.8,0,10,2,10,6.5c0,1.7-1.3,3.6-3.5,4.2c2.5,0.7,4.2,2.7,4.2,4.4c0,5.2-5.9,6.8-10.8,6.8
			c-4.9,0-10.4-1.7-10.4-6.6h4.9c0,2.2,3.5,3,5.6,3c2.5,0,5.6-0.9,5.6-3.2c0-1.3-0.9-2.9-5.4-2.9h-4.2V18.7z"/>
		<path class="st0" d="M235.1,10.5h-13.8v3.8h5c5.4,0,10.3,1.9,10.3,6.8c0,4.9-4.9,7.2-10,7.2c-5.6,0-10.4-1.7-10.4-6.7h4.8
			c0,2.3,3.2,3,5.6,3c2.3,0,5.3-0.9,5.3-3.4c0-2.4-2.8-3.1-5.5-3.1h-9.7c0-3.8,0-7.4,0-11.3h18.5L235.1,10.5L235.1,10.5z"/>
		<path class="st0" d="M238.8,15.8c0-12.7,22.4-12.7,22.4,0v3.1c0,12.7-22.4,12.7-22.4,0V15.8z M243.5,18.9c0,7.8,12.8,7.8,12.8,0
			v-3.1c0-7.6-12.8-7.7-12.8,0L243.5,18.9L243.5,18.9z"/>
		<path class="st0" d="M264.1,15.8c0-12.7,22.4-12.7,22.4,0v3.1c0,12.7-22.4,12.7-22.4,0V15.8z M268.9,18.9c0,7.8,12.8,7.8,12.8,0
			v-3.1c0-7.6-12.8-7.7-12.8,0V18.9z"/>
	</g>
</g>
<g>
	<path class="st1" d="M8.5,28.1c-2.1,0-3.8-0.1-5.1-0.3C2.1,27.6,1,27.3,0,26.9L0.9,25c0.8,0.3,1.9,0.5,3.1,0.7
		C5.1,25.9,6.5,26,8.1,26c1.1,0,2-0.1,2.9-0.2s1.7-0.4,2.3-0.7c0.6-0.3,1.1-0.7,1.5-1.2s0.5-1.1,0.5-1.7c0-0.7-0.2-1.2-0.6-1.7
		c-0.4-0.4-0.9-0.8-1.6-1.1c-0.7-0.3-1.4-0.6-2.3-0.8C10,18.4,9.1,18.2,8.1,18c-0.9-0.2-1.9-0.5-2.8-0.8c-1-0.3-1.9-0.7-2.7-1.1
		s-1.5-1-2-1.7C0.3,13.8,0,13,0,12c0-0.8,0.2-1.5,0.5-2.2C0.9,9.1,1.4,8.5,2.2,8s1.8-0.9,3-1.2S8,6.5,9.7,6.5c1.5,0,2.8,0.1,4,0.3
		C14.9,7,16,7.3,17,7.6l-0.9,1.9c-0.8-0.3-1.8-0.5-2.9-0.7C12,8.7,10.9,8.6,9.7,8.6c-2.3,0-4,0.3-5,1c-1,0.6-1.5,1.5-1.5,2.5
		c0,0.6,0.2,1.1,0.5,1.5c0.4,0.4,0.8,0.8,1.4,1.1s1.3,0.6,2.1,0.8s1.7,0.4,2.6,0.7c1.1,0.2,2.1,0.5,3.1,0.8s2,0.7,2.8,1.2
		s1.5,1,2,1.7s0.8,1.5,0.8,2.5s-0.2,1.9-0.7,2.6s-1.2,1.3-2.1,1.8s-2,0.8-3.2,1.1C11.3,28,9.9,28.1,8.5,28.1z"/>
	<path class="st1" d="M27.7,27.8h-3.3v-21h3.3V27.8z"/>
	<path class="st1" d="M35,6.8h3.3v18.9h14.1v2.2H35V6.8z"/>
	<path class="st1" d="M74.1,22H61.5l-2.9,5.8h-3.4l11-21.1h3.3l11,21.1h-3.4L74.1,22z M62.7,19.9H73l-3.2-6.3
		c-0.3-0.7-0.6-1.4-0.9-2.1s-0.6-1.4-0.9-2.1h-0.1c-0.3,0.7-0.6,1.4-0.9,2.1c-0.3,0.7-0.6,1.4-0.9,2.1L62.7,19.9z"/>
</g>
<g>
	<path class="st2" d="M149.2,27.9h-3.7v-21h3.7V27.9z M165.2,6.9h4.4l-14.2,9.8l14.7,11.2h-4.5L151,16.7L165.2,6.9z"/>
	<g>
		<path class="st2" d="M96,6.8V9h10v18.9h3.7V9.1c0.3,0,31.7-0.1,31.7-0.1V6.8H96z"/>
		<polygon class="st2" points="125.3,25.8 125.3,18.1 140.4,18.1 140.4,15.9 125.3,15.9 125.3,10.9 121.6,10.9 121.6,27.9 
			141.7,27.9 141.7,25.8 		"/>
	</g>
	<g>
		<path class="st2" d="M93.9,16v2h-9.5v-2H93.9z"/>
	</g>
</g>
<g>
	<path class="st3" d="M172.2,5.5c0.1-0.3,0.3-0.6,0.5-0.8c0.2-0.2,0.5-0.4,0.8-0.5s0.6-0.2,1-0.2c0.3,0,0.7,0.1,1,0.2
		s0.6,0.3,0.8,0.5s0.4,0.5,0.5,0.8s0.2,0.6,0.2,1s-0.1,0.7-0.2,1c-0.1,0.3-0.3,0.6-0.5,0.8s-0.5,0.4-0.8,0.5s-0.6,0.2-1,0.2
		c-0.3,0-0.7-0.1-1-0.2c-0.3-0.1-0.6-0.3-0.8-0.5s-0.4-0.5-0.5-0.8s-0.2-0.6-0.2-1C172,6.2,172.1,5.8,172.2,5.5z M172.6,7.4
		c0.1,0.3,0.2,0.5,0.4,0.7c0.2,0.2,0.4,0.3,0.6,0.4c0.2,0.1,0.5,0.2,0.8,0.2s0.6-0.1,0.8-0.2c0.2-0.1,0.5-0.3,0.6-0.4
		c0.2-0.2,0.3-0.4,0.4-0.7c0.1-0.3,0.2-0.5,0.2-0.8s-0.1-0.6-0.2-0.8c-0.1-0.3-0.2-0.5-0.4-0.7s-0.4-0.3-0.6-0.4
		c-0.2-0.1-0.5-0.2-0.8-0.2s-0.6,0.1-0.8,0.2S173.1,5,173,5.1c-0.2,0.2-0.3,0.4-0.4,0.7c-0.1,0.3-0.2,0.5-0.2,0.8
		C172.5,6.8,172.5,7.1,172.6,7.4z M174.7,5.1c0.3,0,0.6,0.1,0.8,0.2s0.2,0.3,0.2,0.6c0,0.3-0.1,0.5-0.2,0.6
		c-0.1,0.1-0.3,0.2-0.5,0.2l0.8,1.3h-0.5l-0.8-1.2H174V8h-0.4V5.1H174.7z M174.5,6.4c0.1,0,0.2,0,0.3,0s0.2,0,0.2-0.1
		c0.1,0,0.1-0.1,0.2-0.1c0-0.1,0.1-0.2,0.1-0.3c0-0.1,0-0.2-0.1-0.2c0-0.1-0.1-0.1-0.1-0.1c-0.1,0-0.1-0.1-0.2-0.1
		c-0.1,0-0.2,0-0.2,0H174v0.9C174,6.4,174.5,6.4,174.5,6.4z"/>
</g>
</svg>
