<?xml version="1.0" encoding="utf-8"?>
<!-- Generator: Adobe Illustrator 19.2.1, SVG Export Plug-In . SVG Version: 6.00 Build 0)  -->
<svg version="1.1" id="Layer_1" xmlns="http://www.w3.org/2000/svg" xmlns:xlink="http://www.w3.org/1999/xlink" x="0px" y="0px"
	 viewBox="0 0 355.7 33.1" style="enable-background:new 0 0 355.7 33.1;" xml:space="preserve">
<style type="text/css">
	.st0{fill:#F16C28;}
	.st1{fill:#211C1B;}
	.st2{fill:#B0A19E;}
	.st3{fill:#CCC6BF;}
</style>
<g>
	<path class="st0" d="M247.2,17.3c-2.2-0.9-3.2-2.6-3.2-4.2c0-4.3,4.7-6.5,10.2-6.5c5.5,0,10.4,2.2,10.4,6.5c0,1.5-1,3.2-3.2,4
		c2.6,0.9,3.8,3.1,3.8,4.8c0.1,4.9-5.4,6.9-11,6.9c-5.5,0-11.1-1.9-10.9-6.9C243.3,20.2,244.6,18.1,247.2,17.3z M248.3,21.9
		c0,1.6,2,3.2,6,3.2c3.9,0,6-1.5,6-3.2c0-2.1-2.7-3.1-6-3.1C251.3,18.8,248.3,19.7,248.3,21.9z M254.3,15.9c3,0,5.3-1.1,5.4-3
		c0.1-1.8-2.2-3-5.4-3c-3.6,0-5.4,1.5-5.4,3C249,14.8,251.5,15.9,254.3,15.9z"/>
	<path class="st0" d="M287.2,10.7h-13.7v3.8h4.9c5.4,0,10.2,1.9,10.2,6.8c0,4.9-4.9,7.2-10,7.2c-5.6,0-10.4-1.7-10.4-6.7h4.8
		c0,2.3,3.2,3,5.6,3c2.3,0,5.3-0.9,5.3-3.4c0-2.4-2.8-3.1-5.5-3.1h-9.6c0-3.8,0-7.4,0-11.3h18.4L287.2,10.7L287.2,10.7z"/>
	<path class="st0" d="M290.8,16c0-12.7,22.4-12.7,22.4,0V19c0,12.7-22.4,12.7-22.4,0V16z M295.5,19c0,7.8,12.8,7.8,12.8,0V16
		c0-7.6-12.8-7.7-12.8,0V19z"/>
	<path class="st0" d="M315.8,16c0-12.7,22.4-12.7,22.4,0V19c0,12.7-22.4,12.7-22.4,0V16z M320.5,19c0,7.8,12.8,7.8,12.8,0V16
		c0-7.6-12.8-7.7-12.8,0V19z"/>
</g>
<g>
	<path class="st1" d="M8.5,28.3c-2.1,0-3.8-0.1-5.1-0.3C2.1,27.8,1,27.5,0,27.1l0.9-1.9C1.7,25.5,2.8,25.7,4,26
		c1.2,0.2,2.6,0.3,4.1,0.3c1.1,0,2-0.1,2.9-0.2s1.7-0.4,2.3-0.7c0.6-0.3,1.1-0.7,1.5-1.2s0.5-1.1,0.5-1.7c0-0.7-0.2-1.2-0.6-1.7
		c-0.4-0.4-0.9-0.8-1.6-1.1c-0.7-0.3-1.4-0.6-2.3-0.8c-0.8-0.2-1.7-0.4-2.7-0.6c-0.9-0.2-1.9-0.5-2.8-0.8c-1-0.3-1.9-0.7-2.7-1.1
		s-1.5-1-2-1.7C0.3,14,0,13.2,0,12.2c0-0.8,0.2-1.5,0.5-2.2c0.4-0.7,0.9-1.3,1.7-1.8S4,7.3,5.2,7C6.5,6.8,8,6.6,9.7,6.6
		c1.5,0,2.8,0.1,4,0.3C14.9,7.1,16,7.4,17,7.8l-0.9,1.9c-0.8-0.3-1.8-0.5-2.9-0.7C12,8.8,10.9,8.7,9.7,8.7c-2.3,0-4,0.3-5,1
		c-1,0.6-1.5,1.5-1.5,2.5c0,0.6,0.2,1.1,0.5,1.5c0.4,0.4,0.8,0.8,1.4,1.1s1.3,0.6,2.1,0.8s1.7,0.4,2.6,0.7c1.1,0.2,2.1,0.5,3.1,0.8
		s2,0.7,2.8,1.2s1.5,1,2,1.7s0.8,1.5,0.8,2.5s-0.2,1.9-0.7,2.6s-1.2,1.3-2.1,1.8s-2,0.8-3.2,1.1C11.3,28.2,9.9,28.3,8.5,28.3z"/>
	<path class="st1" d="M27.7,28h-3.3V6.9h3.3V28z"/>
	<path class="st1" d="M35,6.9h3.3v18.9h14.1V28H35V6.9z"/>
	<path class="st1" d="M67.6,28.3c-2.2,0-4.2-0.3-5.8-0.8s-3-1.3-4.1-2.3s-1.9-2.1-2.4-3.4s-0.8-2.8-0.8-4.3s0.3-3,0.8-4.3
		s1.3-2.5,2.4-3.4c1.1-1,2.4-1.7,4.1-2.3c1.6-0.5,3.6-0.8,5.8-0.8s4.2,0.3,5.8,0.8c1.6,0.5,3,1.3,4.1,2.3s1.9,2.1,2.4,3.4
		s0.8,2.8,0.8,4.3s-0.3,3-0.8,4.3s-1.3,2.5-2.4,3.4c-1.1,1-2.4,1.7-4.1,2.3C71.8,28,69.8,28.3,67.6,28.3z M67.6,26.3
		c1.6,0,3.1-0.2,4.3-0.6c1.2-0.4,2.2-1,3-1.8s1.4-1.7,1.8-2.8c0.4-1.1,0.6-2.3,0.6-3.7s-0.2-2.6-0.6-3.7s-1-2-1.8-2.8
		s-1.8-1.4-3-1.8c-1.2-0.4-2.6-0.6-4.3-0.6c-1.6,0-3.1,0.2-4.3,0.6c-1.2,0.4-2.3,1-3.1,1.8s-1.4,1.7-1.8,2.8
		c-0.4,1.1-0.6,2.3-0.6,3.7s0.2,2.6,0.6,3.7c0.4,1.1,1,2,1.8,2.8s1.8,1.4,3.1,1.8C64.5,26.1,65.9,26.3,67.6,26.3z"/>
	<path class="st1" d="M94.3,18.7L94.3,18.7L85.9,28h-3.7l10.2-10.9L83,6.9h3.7l7.6,8.4l7.6-8.4h3.7L96.2,17l10.3,11h-3.7L94.3,18.7z
		"/>
	<path class="st1" d="M128,22.2h-12.6l-2.9,5.8h-3.4l11-21.1h3.3l11,21.1H131L128,22.2z M116.6,20.1h10.3l-3.2-6.3
		c-0.3-0.7-0.6-1.4-0.9-2.1s-0.6-1.4-0.9-2.1h-0.1c-0.3,0.7-0.6,1.4-0.9,2.1c-0.3,0.7-0.6,1.4-0.9,2.1L116.6,20.1z"/>
</g>
<g>
	<path class="st2" d="M202.1,28.1h-3.7V7h3.7V28.1z M218.1,7h4.4l-14.2,9.8L223,28.1h-4.5l-14.6-11.2L218.1,7z"/>
	<g>
		<path class="st2" d="M148.9,7v2.2h10v18.9h3.7V9.2c0.3,0,31.7-0.1,31.7-0.1V7H148.9z"/>
		<polygon class="st2" points="178.1,25.9 178.1,18.3 193.3,18.3 193.3,16.1 178.1,16.1 178.1,11 174.5,11 174.5,28.1 194.6,28.1 
			194.6,25.9 		"/>
	</g>
	<g>
		<path class="st2" d="M147.5,16.2v2H138v-2H147.5z"/>
	</g>
</g>
<g>
	<path class="st3" d="M225.1,5.7c0.1-0.3,0.3-0.6,0.5-0.8c0.2-0.2,0.5-0.4,0.8-0.5s0.6-0.2,1-0.2c0.3,0,0.7,0.1,1,0.2
		s0.6,0.3,0.8,0.5s0.4,0.5,0.5,0.8s0.2,0.6,0.2,1s-0.1,0.7-0.2,1c-0.1,0.3-0.3,0.6-0.5,0.8s-0.5,0.4-0.8,0.5s-0.6,0.2-1,0.2
		c-0.3,0-0.7-0.1-1-0.2c-0.3-0.1-0.6-0.3-0.8-0.5s-0.4-0.5-0.5-0.8s-0.2-0.6-0.2-1C224.9,6.3,225,6,225.1,5.7z M225.5,7.5
		c0.1,0.3,0.2,0.5,0.4,0.7s0.4,0.3,0.6,0.4c0.2,0.1,0.5,0.2,0.8,0.2s0.6-0.1,0.8-0.2c0.2-0.1,0.5-0.3,0.6-0.4
		c0.2-0.2,0.3-0.4,0.4-0.7c0.1-0.3,0.2-0.5,0.2-0.8s-0.1-0.6-0.2-0.8c-0.1-0.3-0.2-0.5-0.4-0.7s-0.4-0.3-0.6-0.4
		c-0.2-0.1-0.5-0.2-0.8-0.2s-0.6,0.1-0.8,0.2s-0.5,0.3-0.6,0.4c-0.2,0.2-0.3,0.4-0.4,0.7c-0.1,0.3-0.2,0.5-0.2,0.8
		C225.4,7,225.4,7.2,225.5,7.5z M227.5,5.2c0.3,0,0.6,0.1,0.8,0.2s0.2,0.3,0.2,0.6c0,0.3-0.1,0.5-0.2,0.6c-0.1,0.1-0.3,0.2-0.5,0.2
		l0.8,1.3h-0.5l-0.8-1.2h-0.5v1.2h-0.4V5.2H227.5z M227.3,6.5c0.1,0,0.2,0,0.3,0s0.2,0,0.2-0.1c0.1,0,0.1-0.1,0.2-0.1
		c0-0.1,0.1-0.2,0.1-0.3c0-0.1,0-0.2-0.1-0.2c0-0.1-0.1-0.1-0.1-0.1c-0.1,0-0.1-0.1-0.2-0.1c-0.1,0-0.2,0-0.2,0h-0.6v0.9
		C226.9,6.5,227.3,6.5,227.3,6.5z"/>
</g>
</svg>
