<?xml version="1.0" encoding="utf-8"?>
<!-- Generator: Adobe Illustrator 19.2.1, SVG Export Plug-In . SVG Version: 6.00 Build 0)  -->
<svg version="1.1" id="Layer_1" xmlns="http://www.w3.org/2000/svg" xmlns:xlink="http://www.w3.org/1999/xlink" x="0px" y="0px"
	 viewBox="0 0 302 33.1" style="enable-background:new 0 0 302 33.1;" xml:space="preserve">
<style type="text/css">
	.st0{fill:#F16C28;}
	.st1{fill:#211C1B;}
</style>
<g>
	<g>
		<path class="st0" d="M225,13v3.3c1.1-1.5,4.1-2.3,6.1-2.3c5.3,0,10.9,1.9,10.9,7.3c0,4.9-5.6,7.3-11,7.3c-5.4,0-11-2.4-11-7.4V13
			c0-4.9,5.4-7.2,10.9-7.2c5.7,0,10.8,1.9,10.8,6.5h-4.9c0-1.9-2.9-2.9-5.7-2.9c-3,0-6,1.3-6,3.7V13z M237.1,21.3
			c0-2.4-2.6-3.7-5.9-3.7c-3.3,0-6.1,1.2-6.1,3.7c0,2.4,2.8,3.6,6.1,3.6C234.2,24.9,237.1,23.7,237.1,21.3z"/>
		<path class="st0" d="M264.5,6.2V20h3.1v4.1h-3.1v4.2h-4.9v-4.2h-14l-0.4-4.2L257,6.2C257,6.2,264.5,6.2,264.5,6.2z M259.7,20V9.8
			L250.8,20C250.8,20,259.7,20,259.7,20z"/>
		<path class="st0" d="M290.5,10.1h-14.2V14h5.1C287,14,292,16,292,21.1c0,5-5,7.4-10.3,7.4c-5.8,0-10.8-1.8-10.8-6.9h4.9
			c0,2.4,3.3,3.1,5.8,3.1c2.4,0,5.5-1,5.5-3.5c0-2.5-2.9-3.2-5.7-3.2h-10c0-4,0-7.7,0-11.7h19.1L290.5,10.1L290.5,10.1z"/>
	</g>
</g>
<g>
	<path class="st1" d="M11,28.1c-1.7,0-3.2-0.2-4.6-0.5C5.1,27.2,3.9,26.7,3,26c-1-0.7-1.7-1.6-2.2-2.7c-0.5-1.2-0.8-2.5-0.8-4V6.5
		h3.3v12.8c0,2.2,0.7,3.9,2,4.9c1.3,1.1,3.2,1.6,5.7,1.6s4.4-0.5,5.7-1.6c1.3-1.1,2-2.7,2-4.9V6.5H22v12.8c0,1.5-0.3,2.8-0.8,3.9
		s-1.2,2-2.2,2.7s-2.1,1.3-3.5,1.6C14.3,27.9,12.7,28.1,11,28.1z"/>
	<path class="st1" d="M48.1,12.8c0,1.5-0.6,2.9-1.9,4c-1.2,1.1-2.9,1.9-5.1,2.3l7.1,8.8h-3.6l-6.9-8.5l0,0h-6.5v8.5h-3.3V6.5h10.5
		c1.5,0,2.9,0.2,4.1,0.5c1.2,0.3,2.2,0.8,3,1.3c0.8,0.6,1.4,1.2,1.9,2C47.8,11.1,48.1,11.9,48.1,12.8z M44.7,12.8
		c0-1.3-0.5-2.3-1.6-3s-2.7-1.1-4.7-1.1h-7.2V17h6.9c2.1,0,3.7-0.4,4.9-1.1C44.1,15.2,44.7,14.2,44.7,12.8z"/>
	<path class="st1" d="M53.6,6.5h17.8v2.2H57v7h13.6v2.2H57v7.7h14.8v2.2H53.6V6.5z"/>
	<path class="st1" d="M88.1,8.7v19.1h-3.3V8.7h-9V6.5h21.4v2.3L88.1,8.7z"/>
	<path class="st1" d="M119.5,18h-14.9v9.9h-3.3V6.5h3.3v9.2h14.9V6.5h3.3v21.3h-3.3V18z"/>
	<path class="st1" d="M146.3,22h-12.6l-2.9,5.9h-3.4l11-21.3h3.3l11,21.3h-3.4L146.3,22z M134.9,19.8h10.3l-3.2-6.3
		c-0.3-0.7-0.6-1.4-0.9-2.1c-0.3-0.7-0.6-1.4-0.9-2.1H140c-0.3,0.7-0.6,1.4-0.9,2.1c-0.3,0.7-0.6,1.4-0.9,2.1L134.9,19.8z"/>
	<path class="st1" d="M173.3,20.9c0.6,0.7,1.1,1.3,1.6,2c0.5,0.6,0.9,1.2,1.2,1.7h0.1c-0.1-0.7-0.2-1.4-0.3-2.1
		c0-0.7-0.1-1.5-0.1-2.4V6.5h3.3v21.3h-3.5l-12.4-14.4c-0.6-0.7-1.1-1.3-1.6-2s-0.9-1.2-1.2-1.7h-0.1c0.1,0.7,0.2,1.4,0.3,2.1
		c0,0.7,0.1,1.5,0.1,2.4v13.6h-3.3V6.5h3.5L173.3,20.9z"/>
	<path class="st1" d="M186.3,6.5h17.8v2.2h-14.5v7h13.6v2.2h-13.6v7.7h14.8v2.2h-18.1V6.5z"/>
</g>
</svg>
