<?xml version="1.0" encoding="utf-8"?>
<!-- Generator: Adobe Illustrator 19.2.1, SVG Export Plug-In . SVG Version: 6.00 Build 0)  -->
<svg version="1.1" id="Layer_1" xmlns="http://www.w3.org/2000/svg" xmlns:xlink="http://www.w3.org/1999/xlink" x="0px" y="0px"
	 viewBox="0 0 268.4 358.3" style="enable-background:new 0 0 268.4 358.3;" xml:space="preserve">
<style type="text/css">
	.st0{fill:#A9A9AA;}
	.st1{fill:none;stroke:#3A3B3B;stroke-miterlimit:10;}
	.st2{fill:none;stroke:#3A3B3B;stroke-miterlimit:10;stroke-dasharray:1.0817,3.2451;}
	.st3{fill:none;stroke:#3A3B3B;stroke-miterlimit:10;stroke-dasharray:1.0037,3.0112;}
	.st4{fill:none;stroke:#3A3B3B;stroke-miterlimit:10;stroke-dasharray:1.0851,3.2554;}
	.st5{fill:none;stroke:#3A3B3B;stroke-miterlimit:10;stroke-dasharray:1.0079,3.0238;}
	.st6{fill:none;stroke:#3A3B3B;stroke-miterlimit:10;stroke-dasharray:1.0028,3.0084;}
	.st7{fill:none;stroke:#3A3B3B;stroke-miterlimit:10;stroke-dasharray:1.0187,3.0561;}
	.st8{fill:none;stroke:#3A3B3B;stroke-miterlimit:10;stroke-dasharray:0.9991,2.9972;}
	.st9{fill:none;stroke:#3A3B3B;stroke-miterlimit:10;stroke-dasharray:1.0046,3.0139;}
	.st10{fill:none;stroke:#3A3B3B;stroke-miterlimit:10;stroke-dasharray:0.7857,2.3571;}
	.st11{fill:none;stroke:#3A3B3B;stroke-miterlimit:10;stroke-dasharray:1.0921,3.2763;}
	.st12{fill:none;stroke:#3A3B3B;stroke-miterlimit:10;stroke-dasharray:0.7143,2.1429;}
	.st13{fill:none;stroke:#3A3B3B;stroke-miterlimit:10;stroke-dasharray:0.998,2.994;}
	.st14{fill:none;stroke:#3A3B3B;stroke-width:0.9976;stroke-miterlimit:10;}
	.st15{fill:none;stroke:#3A3B3B;stroke-width:0.9976;stroke-miterlimit:10;stroke-dasharray:0.9951,2.9854;}
	.st16{fill:none;stroke:#3A3B3B;stroke-width:0.9976;stroke-miterlimit:10;stroke-dasharray:1.0357,3.1071;}
</style>
<g id="bottle-outline">
	<g>
		<polygon class="st0" points="59.7,6.3 58.2,27.8 126.4,27.8 124.2,6.3 		"/>
		<g>
			<polyline class="st1" points="60.2,6.3 59.7,6.3 59.7,6.8 			"/>
			<line class="st2" x1="59.4" y1="10" x2="58.3" y2="25.6"/>
			<polyline class="st1" points="58.2,27.3 58.2,27.8 58.7,27.8 			"/>
			<line class="st3" x1="61.7" y1="27.8" x2="124.4" y2="27.8"/>
			<polyline class="st1" points="125.9,27.8 126.4,27.8 126.4,27.3 			"/>
			<line class="st4" x1="126.1" y1="24" x2="124.4" y2="8.4"/>
			<polyline class="st1" points="124.2,6.8 124.2,6.3 123.7,6.3 			"/>
			<line class="st5" x1="120.7" y1="6.3" x2="61.7" y2="6.3"/>
		</g>
	</g>
	<g>
		<path class="st0" d="M258.4,272l1-1c0,0,0-3-0.8-28.5s0-41.2,0-41.2c4.2-78.8-20.5-167.5-20.5-167.5c5.5-13.2,0-17.2,0-17.2
			c-15.2-13-26-10.7-37.2-10s-53,25.8-59.5,29S128.2,39,128.2,39c-1.8-0.8-1.2-3-1.2-3l-69.2-0.5V37c0,16-3.8,20.8-3.8,20.8
			S14.8,141,10.5,153.5S6.8,177,6.8,177v8.5l1.1,1.2v7.5l-1.1,1.2v19.2l0.7,1v6.2L6.8,223v20.5l0.9,1.2v5.6l-0.9,0.9v21l0.9,1.2v5.3
			l-0.9,0.8v21l0.9,1.7l0,5.8l-0.9,1.2L6.7,329c0,21.8,19.5,22.5,19.5,22.5c125.2,2,181.8,0.2,206.2,0s27-21.5,27-21.5v-22.5l-1-0.5
			v-6.5l1-0.5v-21.8l-1-0.2V272z M213.7,169.8c-10.8,0.5-13.5-8.2-13.5-8.2c-11.5-49.3-22.2-77.3-24.5-85.5s2.8-14.8,2.8-14.8
			l19.5-14.8c4.8-2,6.8,2.2,6.8,2.2c18.8,41.5,19.8,100.3,20.2,104.8S224.4,169.3,213.7,169.8z"/>
		<g>
			<g>
				<polyline class="st1" points="258.4,272.5 258.4,272 258.8,271.7 				"/>
				<path class="st1" d="M259.1,271.4l0.4-0.3c0,0,0-0.1,0-0.5"/>
				<path class="st6" d="M259.4,267.5c-0.1-3.6-0.3-10.8-0.7-25c-0.8-25.5,0-41.2,0-41.2c4.2-78.8-20.5-167.5-20.5-167.5
					c5.5-13.2,0-17.2,0-17.2c-15.2-13-26-10.8-37.2-10s-53,25.8-59.5,29S128.2,39,128.2,39c-0.5-0.2-0.9-0.6-1.1-1"/>
				<path class="st1" d="M126.9,36.5c0-0.3,0.1-0.5,0.1-0.5l-0.5,0"/>
				<line class="st7" x1="123.4" y1="36" x2="59.7" y2="35.5"/>
				<polyline class="st1" points="58.2,35.5 57.7,35.5 57.7,36 				"/>
				<path class="st8" d="M57.7,39c-0.3,14.4-3.7,18.8-3.7,18.8S14.8,141,10.5,153.5S6.8,177,6.8,177v8.5l1.1,1.2v7.5l-1.1,1.2v19.2
					l0.7,1v6.2L6.8,223v20.5l0.9,1.2v5.6l-0.9,0.9v21l0.9,1.2v3.3"/>
				<polyline class="st1" points="7.7,278.3 7.7,278.8 7.3,279.1 				"/>
				<polyline class="st1" points="7.2,279.2 6.8,279.5 6.8,280 				"/>
				<path class="st9" d="M6.8,283v17.5l0.9,1.7l0,5.8l-0.9,1.2L6.7,329c0,21.8,19.5,22.5,19.5,22.5c125.2,2,181.8,0.2,206.2,0
					s27-21.5,27-21.5v-20.5"/>
				<polyline class="st1" points="259.4,308 259.4,307.5 259,307.3 				"/>
				<polyline class="st1" points="258.8,307.2 258.4,307 258.4,306.5 				"/>
				<line class="st10" x1="258.4" y1="304.2" x2="258.4" y2="302.2"/>
				<polyline class="st1" points="258.4,301 258.4,300.5 258.8,300.3 				"/>
				<polyline class="st1" points="259,300.2 259.4,300 259.4,299.5 				"/>
				<line class="st11" x1="259.4" y1="296.2" x2="259.4" y2="280.4"/>
				<polyline class="st1" points="259.4,278.8 259.4,278.3 259,278.1 				"/>
				<polyline class="st1" points="258.9,278.1 258.4,278 258.4,277.5 				"/>
				<line class="st12" x1="258.4" y1="275.4" x2="258.4" y2="273.6"/>
			</g>
			<path class="st13" d="M213.7,169.8c-10.8,0.5-13.5-8.2-13.5-8.2c-11.5-49.2-22.2-77.2-24.5-85.5s2.8-14.8,2.8-14.8l19.5-14.8
				c4.8-2,6.8,2.2,6.8,2.2c18.8,41.5,19.8,100.2,20.2,104.8S224.4,169.3,213.7,169.8z"/>
		</g>
	</g>
	<g>
		<rect x="56.4" y="27.5" class="st0" width="71.7" height="8.2"/>
		<g>
			<polyline class="st14" points="128.1,35.3 128.1,35.8 127.6,35.8 			"/>
			<line class="st15" x1="124.6" y1="35.8" x2="58.4" y2="35.8"/>
			<polyline class="st14" points="56.9,35.8 56.4,35.8 56.4,35.3 			"/>
			<line class="st16" x1="56.4" y1="32.2" x2="56.4" y2="29.6"/>
			<polyline class="st14" points="56.4,28 56.4,27.5 56.9,27.5 			"/>
			<line class="st15" x1="59.9" y1="27.5" x2="126.1" y2="27.5"/>
			<polyline class="st14" points="127.6,27.5 128.1,27.5 128.1,28 			"/>
			<line class="st16" x1="128.1" y1="31.1" x2="128.1" y2="33.7"/>
		</g>
	</g>
</g>
</svg>
