<?xml version="1.0" encoding="utf-8"?>
<!-- Generator: Adobe Illustrator 19.2.1, SVG Export Plug-In . SVG Version: 6.00 Build 0)  -->
<svg version="1.1" id="Layer_1" xmlns="http://www.w3.org/2000/svg" xmlns:xlink="http://www.w3.org/1999/xlink" x="0px" y="0px"
	 viewBox="0 0 41.1 35.6" style="enable-background:new 0 0 41.1 35.6;" xml:space="preserve">
<style type="text/css">
	.st0{fill:#3E5862;}
	.st1{fill:#FFFFFF;}
</style>
<g>
	<polygon class="st0" points="11,34.7 1.2,17.8 11,0.8 30.6,0.8 40.3,17.8 30.6,34.7 	"/>
	<path class="st1" d="M11.5,10.2c0,0-0.8,5.9,0.8,10.4s3.8,7.6,7.2,9.8c0,0,7.2-2.7,9.8-16.3c0,0,0.7-3,0.8-7.2
		C30.1,7,22.1,4.5,11.5,10.2z"/>
	<g>
		<path class="st0" d="M29.1,3.4l8.3,14.4l-8.3,14.4H12.5L4.1,17.8l8.3-14.4L29.1,3.4 M30.6,0.8H11l-9.8,17L11,34.7h19.6l9.8-16.9
			L30.6,0.8L30.6,0.8z"/>
	</g>
	<g>
		<path class="st0" d="M18.4,19l-0.3-0.1c-0.1-0.9,0.3-7.9,0.3-8h0.3c0,0,0,3.9,0.3,7.2l3.9-1.3l0.1,0.3l-4.4,2.2L18.4,19z"/>
	</g>
	<g>
		<path class="st0" d="M27.2,17.7L27.2,17.7l-0.8-0.1c-0.1,0-0.2-0.1-0.2-0.3c0-0.1,0.1-0.2,0.3-0.2l0.7,0.1c0.1,0,0.2,0.1,0.2,0.3
			C27.5,17.6,27.3,17.7,27.2,17.7z"/>
	</g>
	<g>
		<path class="st0" d="M19.4,28.9c-0.1,0-0.2-0.1-0.2-0.2L19.1,28c0-0.1,0.1-0.3,0.2-0.3s0.3,0.1,0.3,0.2l0.1,0.7
			C19.7,28.8,19.6,28.9,19.4,28.9C19.5,28.9,19.4,28.9,19.4,28.9z"/>
	</g>
	<g>
		<path class="st0" d="M12.8,19.4c-0.1,0-0.2-0.1-0.2-0.2s0-0.3,0.1-0.3l0.3-0.1c0.1-0.1,0.3,0,0.3,0.1s0,0.3-0.1,0.3L12.8,19.4
			L12.8,19.4z"/>
	</g>
	<g>
		<path class="st0" d="M18.7,9.3L18.7,9.3c-0.2,0-0.3-0.1-0.2-0.3V8.3c0-0.1,0.1-0.2,0.3-0.2c0.1,0,0.2,0.1,0.2,0.3v0.7
			C19,9.2,18.8,9.3,18.7,9.3z"/>
	</g>
</g>
</svg>
