<?xml version="1.0" encoding="utf-8"?>
<!-- Generator: Adobe Illustrator 19.2.1, SVG Export Plug-In . SVG Version: 6.00 Build 0)  -->
<svg version="1.1" id="Layer_1" xmlns="http://www.w3.org/2000/svg" xmlns:xlink="http://www.w3.org/1999/xlink" x="0px" y="0px"
	 viewBox="0 0 41.1 35.6" style="enable-background:new 0 0 41.1 35.6;" xml:space="preserve">
<style type="text/css">
	.st0{fill:#3E5862;}
	.st1{fill:#FFFFFF;}
</style>
<g>
	<polygon class="st0" points="10.9,34.7 1.2,17.7 10.9,0.8 30.5,0.8 40.3,17.7 30.5,34.7 	"/>
	<path class="st1" d="M28,20.8l-1.4,0.3L23,21.3h-3.1L18.4,21c0,0-1.6,0.2-2.1-0.1c-0.5-0.2-0.8-0.1-0.8-0.1l-1.2,0.3l-0.8-0.4
		l-1.6-0.2L11,20.9L9.9,21c-0.9-0.1-1.2-0.2-1.8,0C7.6,21.2,7,21.4,7,21.4H6.2L5.7,21L5,20.4l-1.4,0.2l7.5,13.5h19l7.6-12.9
		l-0.4-0.5h-1.6l-0.8,0.1l-0.8-0.3l-0.8,0.3l-1.9,0.1l-0.6-0.4l-1.3,0.3L28.9,21L28,20.8z"/>
	<path class="st0" d="M29.9,1.8l9.2,15.9l-9.2,15.9H11.5L2.3,17.7l9.2-15.9L29.9,1.8 M30.5,0.8H10.9L1.2,17.7L11,34.6h19.6l9.8-16.9
		L30.5,0.8L30.5,0.8z"/>
	<g>
		<g>
			<path class="st1" d="M26.7,7.7c-0.6,0-1.1-0.5-1.1-1.1s1-1.9,1-2l0.1-0.1l0.1,0.1c0,0.1,1,1.4,1,2C27.8,7.2,27.3,7.7,26.7,7.7z
				 M26.7,4.9c-0.2,0.3-0.9,1.4-0.9,1.8c0,0.5,0.4,0.9,0.9,0.9s0.9-0.4,0.9-0.9C27.6,6.3,27,5.3,26.7,4.9z"/>
		</g>
		<path class="st1" d="M27.3,5.9c0,0.1,0,0.2-0.1,0.2S27.1,6,27,5.9s-0.1-0.6,0-0.6S27.3,5.8,27.3,5.9z"/>
	</g>
	<g>
		<g>
			<path class="st1" d="M12.9,12.8c-0.9,0-1.6-0.7-1.6-1.6c0-0.9,1.5-3.4,1.6-3.5L13,7.6l0,0c0.1,0.1,1.6,2.7,1.6,3.5
				C14.5,12,13.8,12.8,12.9,12.8z M12.9,7.8c-0.3,0.5-1.5,2.6-1.5,3.3c0,0.8,0.7,1.5,1.5,1.5s1.5-0.7,1.5-1.5
				C14.4,10.4,13.2,8.3,12.9,7.8z"/>
		</g>
		<path class="st1" d="M13.9,9.9c0,0.2-0.1,0.3-0.2,0.4s-0.2-0.1-0.3-0.3c0-0.2-0.2-1.2-0.1-1.2C13.5,8.7,13.9,9.7,13.9,9.9z"/>
	</g>
	<path class="st0" d="M23.1,12.6c-3.1,0-5.6,2.5-5.6,5.6c0,1.1,0.3,2.2,0.9,3.1c0,0,0.1,0.1,0.1,0.2c0.2,0.2,0.6,0.6,4.5,0.6
		c4.1,0,4.4-0.4,4.6-0.6c0-0.1,0.1-0.1,0.1-0.1c0.6-0.9,0.9-2,0.9-3C28.7,15.1,26.2,12.6,23.1,12.6z M27.5,18.2
		c0,0.8-0.2,1.7-0.7,2.4c-0.2,0.1-1,0.2-3.7,0.2c-2.6,0-3.4-0.2-3.6-0.2c-0.5-0.7-0.7-1.5-0.7-2.4c0-2.4,2-4.4,4.4-4.4
		C25.5,13.8,27.5,15.8,27.5,18.2z"/>
	<path class="st1" d="M23.1,21.6c-3.8,0-4.1-0.4-4.2-0.5L18.8,21c-0.6-0.8-0.9-1.8-0.9-2.9c0-2.9,2.3-5.2,5.2-5.2s5.2,2.3,5.2,5.2
		c0,1-0.3,2-0.9,2.9C27.3,21.2,27,21.6,23.1,21.6z M23.1,13.5c-2.6,0-4.7,2.1-4.7,4.7c0,0.9,0.3,1.9,0.8,2.6c0,0,0.5,0.3,3.9,0.3
		c3.3,0,3.9-0.3,4-0.3c0.5-0.8,0.8-1.7,0.8-2.6C27.8,15.6,25.7,13.5,23.1,13.5z"/>
	<path class="st1" d="M27.6,18c0,0.2-2,0.3-4.4,0.3s-4.4-0.1-4.4-0.3s2-0.3,4.4-0.3S27.6,17.8,27.6,18z"/>
	<ellipse transform="matrix(0.6404 -0.7681 0.7681 0.6404 -2.2599 25.3887)" class="st1" cx="26" cy="15.1" rx="0.8" ry="1.2"/>
	<ellipse transform="matrix(0.5379 -0.843 0.843 0.5379 -0.6926 27.1475)" class="st1" cx="24.4" cy="14.2" rx="0.3" ry="0.4"/>
	<polygon class="st0" points="28.8,23.3 28.5,23.6 28.8,24 29.2,24.1 29.4,23.6 29.1,23.4 	"/>
	<polygon class="st0" points="20.7,23.1 20.5,23.1 20.4,23.3 20.6,23.6 20.9,23.5 20.8,23.3 	"/>
	<polygon class="st0" points="21.5,31.6 21.4,31.8 21.5,32 21.8,32.1 21.9,31.7 21.7,31.6 	"/>
	<polygon class="st0" points="14.4,22.6 14.4,22.3 14.1,22.3 13.9,22.4 14,22.7 14.2,22.7 	"/>
	<path class="st0" d="M15.7,23.2c0,0-1.2-0.6-1-0.6c0.1,0,0.2-0.3,0.2-0.3l0.6,0.1L15.7,23.2z"/>
	<path class="st0" d="M25.8,22.8c0,0-1.1,0.3-1,0.2c0.1-0.1-0.1-0.3-0.1-0.3l0.4-0.2L25.8,22.8z"/>
	<polygon class="st0" points="21,23 21.1,23.5 21.8,23.5 21.8,22.8 	"/>
	<polygon class="st0" points="9.5,28.5 8.9,28.5 8.8,29.2 9.5,29.3 	"/>
	<polygon class="st0" points="11.6,25.3 11.3,25 10.7,25.3 11,25.8 	"/>
	<g>
		<path class="st0" d="M11.3,27.9l-0.4-0.5l-0.2-0.8l0,0l1.1-1l0.6,0.8l0,0l-0.2,1.2l0,0L11.3,27.9z M11,27.3l0.3,0.4l0.7-0.3
			l0.2-1.1l-0.5-0.5l-0.8,0.7L11,27.3z"/>
	</g>
	<g>
		<path class="st0" d="M34.5,22.1L34.5,22.1l-1.1-0.5l0,0l-0.1-0.9l0.6-0.2h0.9l0.6,1.3L34.5,22.1z M33.5,21.5l1,0.5l0.8-0.3
			l-0.5-1.1H34l-0.5,0.2V21.5z"/>
	</g>
	<g>
		<path class="st0" d="M24.6,29.6L24.3,29L24,28.2l0,0l1.1-1l0.6,0.8l0,0l-0.2,1.2l0,0L24.6,29.6z M24.4,29l0.3,0.4l0.7-0.3l0.2-1.1
			l-0.5-0.7l-0.9,0.8L24.4,29z"/>
	</g>
	<g>
		<path class="st0" d="M19.6,24l-0.2-0.3l-0.1-0.5l0,0l0.6-0.6l0.4,0.5l-0.1,0.7l0,0L19.6,24z M19.5,23.6l0.2,0.2l0.4-0.1l0.1-0.6
			l-0.3-0.3l-0.5,0.4L19.5,23.6z"/>
	</g>
	<g>
		<path class="st0" d="M31.5,28.1L31.5,28.1l-1.8-0.3l0,0l-0.5-1.3L30,26l1.2-0.4l0,0l1.4,1.6h-0.1L31.5,28.1z M29.8,27.7l1.7,0.3
			l1.1-0.8l-1.3-1.5L30.1,26l-0.7,0.5L29.8,27.7z"/>
	</g>
	<g>
		<path class="st0" d="M16,30.4L16,30.4l-0.3-0.1v-1.4l0,0l1.3-1.2l1.4,0.4v1l-0.5,1.2L16,30.4z M15.8,30.2l0.2,0.1l1.8-0.1l0.4-1.1
			v-0.9L17,27.8L15.8,29V30.2z"/>
	</g>
	<g>
		<path class="st0" d="M29.2,22.1L28.9,22v-1.4l0,0l1.3-1.2l0,0l1.3,0.4l0,0v0.9L31.1,22L29.2,22.1z M29,21.9l0.2,0.1l1.8-0.1
			l0.4-1.1v-0.9l-1.2-0.4L29,20.7L29,21.9z"/>
	</g>
	<g>
		<path class="st0" d="M25.2,26.9l-2.4-2.2l0,0l1.6-1.4l0,0l2.6,0.2l0,0l0.9,1.8l-1.1,0.9L25.2,26.9z M23,24.7l2.2,2.1l1.7-0.7
			l1-0.9L27,23.5l-2.5-0.2L23,24.7z"/>
	</g>
	<g>
		<path class="st0" d="M18.6,34.4L18.6,34.4l-1-1.3l0.7-0.9l1.3-0.8l0,0l1.8,1.1l0,0l0.2,0.3l-1,1.2l0,0L18.6,34.4z M17.8,33
			l0.9,1.2l2-0.3l0.9-1.1l-0.1-0.3l-1.8-1.1l-1.2,0.8L17.8,33z"/>
	</g>
	<g>
		<path class="st0" d="M12.3,34.5L12.3,34.5l-1.7-1.8l1-1.1l1.9-0.9l0,0l3,1.7l0.3,0.5l0,0l-1.3,1.5l0,0L12.3,34.5z M10.8,32.7
			l1.6,1.7l3.1-0.1l1.3-1.4l-0.2-0.4l-3-1.6l-1.8,0.9L10.8,32.7z"/>
	</g>
	<g>
		<path class="st0" d="M13.1,26.6L13.1,26.6l-1.7-1.8l1-1.1l1.9-0.9l0,0l3,1.7l0.3,0.5l0,0l-1.3,1.5l0,0L13.1,26.6z M11.6,24.8
			l1.6,1.7l3.1-0.1l1.3-1.4l-0.2-0.4l-3-1.6l-1.8,0.9L11.6,24.8z"/>
	</g>
	<g>
		<path class="st0" d="M29.7,32.7L29.7,32.7L28,30.9l1-1.1l1.9-0.9l0,0l1,1.4l0.3,0.5l0,0l-1.3,1.5L29.7,32.7z M28.2,30.9l1.5,1.6
			l1.1-0.4l1.3-1.4l-0.2-0.4l-1-1.3l-1.8,0.9L28.2,30.9z"/>
	</g>
	<polygon class="st0" points="12.6,27 12.8,27.1 12.9,26.8 12.8,26.5 12.5,26.6 12.5,26.8 	"/>
	<polygon class="st0" points="12.5,30.4 12.7,30.5 12.8,30.2 12.7,29.9 12.4,30 12.4,30.3 	"/>
	<polygon class="st0" points="26.4,33.9 26.6,33.9 26.7,33.7 26.6,33.4 26.3,33.5 26.3,33.7 	"/>
	<polygon class="st0" points="29.5,29.1 29.7,29 29.7,28.7 29.5,28.5 29.3,28.7 29.4,28.9 	"/>
	<g>
		<path class="st0" d="M7.4,24l-0.6-0.8l0,0l0.3-0.8l0.6,0.4l0.6-0.3h0.6l-0.5,1l0,0L7.4,24z M7,23.2l0.5,0.7l0.9-0.4l0.2-0.8
			l-0.2,0L7.7,23l-0.5-0.3L7,23.2z"/>
	</g>
	<polygon class="st0" points="5.1,22.4 5.2,22.6 5.5,22.4 5.6,22.2 5.3,22 5.2,22.2 	"/>
	<path class="st0" d="M9.2,25.7c0,0-1.7-0.6-1.5-0.5c0.2,0,0.2-0.4,0.2-0.4l0.7,0.1L9.2,25.7z"/>
	<path class="st0" d="M30.2,25.6c0,0-0.9,0.6-0.8,0.5s-0.2-0.2-0.2-0.2l0.3-0.3H30.2z"/>
	<path class="st0" d="M30.2,22.3c0,0,1.1-0.1,1-0.1s0,0.3,0,0.3l-0.4,0.2L30.2,22.3z"/>
	<polygon class="st0" points="25.8,29.7 26.1,29.1 25.9,29 25.4,29.6 	"/>
	<polygon class="st0" points="35.4,22.5 35.8,22.1 35.6,21.8 35,22.3 	"/>
	<polygon class="st0" points="31.9,23.9 32.2,24.3 32.9,24 32.6,23.4 	"/>
	<g>
		<path class="st0" d="M33.6,26.2L33.6,26.2l-1.2-1.3v-0.3l0,0l2.4-0.9h0.5v0.1l-0.1,1.9L34.9,26L33.6,26.2z M32.5,24.8l1.2,1.2
			l1.4-0.2l0.2-2.1h-0.4l-2.3,0.9L32.5,24.8z"/>
	</g>
	<polygon class="st0" points="25.9,27.7 26.2,27.4 25.9,26.9 25.4,27.2 	"/>
	<polygon class="st0" points="31.6,21.7 31.4,21.9 31.6,22.3 32.1,22.4 32.2,21.9 31.9,21.7 	"/>
	<polygon class="st0" points="23.6,26.8 23.5,27 23.6,27.2 23.9,27.2 24,26.9 23.8,26.8 	"/>
	<g>
		<path class="st0" d="M11.3,22.6L11.3,22.6l-1.7-0.2l-0.1-0.9L9.7,21l0,0l0.9-0.2h1v0.7L11.3,22.6z M9.7,22.3l1.5,0.1l0.2-0.9v-0.6
			h-0.8l-0.8,0.2l-0.2,0.4L9.7,22.3z"/>
	</g>
	<polygon class="st0" points="20.9,32 21.1,31.9 21.1,31.6 20.9,31.4 20.7,31.6 20.8,31.9 	"/>
	<g>
		<path class="st0" d="M21.3,28.8L20,26.7l-0.2-0.5c0,0,0-0.1,0.1-0.2s0.3-0.1,0.5,0c3.8,1.4,3.8,1.4,3.8,1.5c0,0,0,0.1-0.1,0.1
			l-0.4,0.5l-0.4,0.5L21.3,28.8z M20,26.3l0.2,0.4l1.2,2l2-0.1l0.4-0.5l0.4-0.5c-0.3-0.2-1.7-0.7-3.7-1.4
			C20.2,26.1,20.1,26.2,20,26.3C20,26.2,20,26.3,20,26.3z"/>
	</g>
	<polygon class="st0" points="18.7,31.3 18.3,31.6 18.4,31.9 19.1,31.5 	"/>
	<polygon class="st0" points="14.8,28.8 14.6,28.8 14.6,29.1 14.7,29.4 15,29.2 15,29 	"/>
	<polygon class="st0" points="24.2,31 24,31 24,31.3 24.1,31.5 24.4,31.4 24.3,31.1 	"/>
	<polygon class="st0" points="30.9,25.4 30.8,25.3 30.6,25.3 30.6,25.5 30.7,25.6 30.8,25.5 	"/>
	<polygon class="st0" points="27.2,30.3 26.8,30.7 27,30.9 27.6,30.4 	"/>
	<polygon class="st0" points="24.2,27 24.4,27.5 24.8,27.1 24.4,26.7 	"/>
	<polygon class="st0" points="32.6,28.2 33.1,28.5 33.6,28 33.1,27.5 	"/>
	<polygon class="st0" points="18.6,29 19,29.1 19.3,28.5 18.7,28.3 	"/>
</g>
</svg>
