<?xml version="1.0" encoding="utf-8"?>
<!-- Generator: Adobe Illustrator 19.2.1, SVG Export Plug-In . SVG Version: 6.00 Build 0)  -->
<svg version="1.1" id="Layer_1" xmlns="http://www.w3.org/2000/svg" xmlns:xlink="http://www.w3.org/1999/xlink" x="0px" y="0px"
	 viewBox="0 0 41.1 35.6" style="enable-background:new 0 0 41.1 35.6;" xml:space="preserve">
<style type="text/css">
	.st0{fill:#3E5862;}
	.st1{fill:#FFFFFF;}
</style>
<g>
	<polygon class="st0" points="10.9,34.7 1.2,17.7 10.9,0.8 30.5,0.8 40.3,17.7 30.5,34.7 	"/>
	<g>
		<path class="st1" d="M11.5,10.4c0,0-0.8,5.9,0.8,10.3c0.2,0.4,0.3,0.9,0.5,1.3l2.6-7.4c0.4-1.1,1.5-1.9,2.6-1.9h11.6
			c0.2-1.3,0.4-3.2,0.5-5.5C30,7.2,22,4.7,11.5,10.4z"/>
		<path class="st1" d="M18.9,15.1l-2.2,6.3c-0.1,0.3,0,0.6,0.3,0.6h0.1h2.4c0.3,0,0.7-0.3,0.8-0.6l0.7-2.1h-1.6l2.3-1.6l3.7,0L24,22
			c-0.4,1.1-1.5,1.9-2.6,1.9h-3.3l0,0h-4.3c-0.1,0-0.2,0-0.2,0c0,0,0,0,0,0H9.6c-0.1,0-0.1,0.1-0.1,0.1c0,0.1,0.1,0.1,0.1,0.1l4.6,1
			c1.3,2.2,3,4,5.1,5.4c0,0,7.1-2.6,9.8-16h-9.4C19.4,14.5,19,14.8,18.9,15.1z"/>
	</g>
</g>
</svg>
