<?xml version="1.0" encoding="utf-8"?>
<!-- Generator: Adobe Illustrator 19.2.1, SVG Export Plug-In . SVG Version: 6.00 Build 0)  -->
<svg version="1.1" id="Layer_1" xmlns="http://www.w3.org/2000/svg" xmlns:xlink="http://www.w3.org/1999/xlink" x="0px" y="0px"
	 viewBox="0 0 41.1 35.6" style="enable-background:new 0 0 41.1 35.6;" xml:space="preserve">
<style type="text/css">
	.st0{fill:#E6EEF8;}
</style>
<g>
	<g>
		<path class="st0" d="M30.7,35.1h-20L0.8,17.7l9.9-17.3h20l10,17.3L30.7,35.1z M10.9,34.6h19.6l9.8-16.9L30.5,0.9H10.9L1.2,17.7
			L10.9,34.6z"/>
	</g>
	<polygon class="st0" points="15.8,29 15.8,30.2 16,30.3 17.8,30.2 18.2,29.1 18.2,28.2 17,27.8 	"/>
	<polygon class="st0" points="19.7,31.4 18.5,32.2 17.8,33 18.2,33.6 20.9,33.6 21.6,32.8 21.4,32.5 	"/>
	<polygon class="st0" points="11.7,25.8 10.9,26.5 11,27.3 11.3,27.7 12,27.4 12.2,26.3 	"/>
	<polygon class="st0" points="8.4,22.7 7.7,23 7.2,22.7 7,23.2 7.5,23.9 8.4,23.5 8.6,22.7 	"/>
	<polygon class="st0" points="9.7,22.3 11.2,22.4 11.4,21.5 11.4,20.9 11,20.9 10.4,21 9.8,21.1 9.6,21.5 	"/>
	<polygon class="st0" points="14.4,23 12.6,23.9 11.6,24.8 13.2,26.5 16.3,26.4 17.6,25 17.3,24.6 	"/>
	<polygon class="st0" points="30.1,26 29.4,26.5 29.8,27.7 31.5,28 32.1,27.6 32.5,27.2 32.6,27.2 31.3,25.7 	"/>
	<polygon class="st0" points="24.5,23.3 23,24.7 25.2,26.8 26.9,26.1 27.9,25.2 27,23.5 	"/>
	<path class="st0" d="M23.7,28.1l0.4-0.5l0,0c-0.4-0.2-1.7-0.7-3.6-1.4c-0.3-0.1-0.4,0-0.5,0.1l0.2,0.4l1.2,2l1.8-0.1h0.1L23.7,28.1
		z"/>
	<polygon class="st0" points="31,21.9 31.4,20.9 30.8,20.5 29.5,20.8 29,21 29,21.9 29.2,22 	"/>
	<polygon class="st0" points="35.3,21.7 34.9,20.8 34.4,20.6 34,20.6 33.5,20.8 33.5,21.5 34.5,22 	"/>
	<g>
		<g>
			<path class="st0" d="M26.7,7.7c-0.6,0-1.1-0.5-1.1-1.1s1-1.9,1-2l0.1-0.1l0.1,0.1c0,0.1,1,1.4,1,2C27.8,7.2,27.3,7.7,26.7,7.7z
				 M26.7,4.9c-0.2,0.3-0.9,1.4-0.9,1.8c0,0.5,0.4,0.9,0.9,0.9s0.9-0.4,0.9-0.9C27.6,6.3,27,5.3,26.7,4.9z"/>
		</g>
		<path class="st0" d="M27.3,5.9c0,0.1,0,0.2-0.1,0.2S27.1,6,27,5.9s-0.1-0.6,0-0.6S27.3,5.8,27.3,5.9z"/>
	</g>
	<g>
		<g>
			<path class="st0" d="M12.9,12.8c-0.9,0-1.6-0.7-1.6-1.6c0-0.9,1.5-3.4,1.6-3.5L13,7.6l0,0c0.1,0.1,1.6,2.7,1.6,3.5
				C14.5,12,13.8,12.8,12.9,12.8z M12.9,7.8c-0.3,0.5-1.5,2.6-1.5,3.3c0,0.8,0.7,1.5,1.5,1.5s1.5-0.7,1.5-1.5
				C14.4,10.4,13.2,8.3,12.9,7.8z"/>
		</g>
		<path class="st0" d="M13.9,9.9c0,0.2-0.1,0.3-0.2,0.4s-0.2-0.1-0.3-0.3c0-0.2-0.2-1.2-0.1-1.2C13.5,8.7,13.9,9.7,13.9,9.9z"/>
	</g>
	<path class="st0" d="M23.1,21.6c-3.8,0-4.1-0.4-4.2-0.5L18.8,21c-0.6-0.8-0.9-1.8-0.9-2.9c0-2.9,2.3-5.2,5.2-5.2s5.2,2.3,5.2,5.2
		c0,1-0.3,2-0.9,2.9C27.3,21.2,27,21.6,23.1,21.6z M23.1,13.5c-2.6,0-4.7,2.1-4.7,4.7c0,0.9,0.3,1.9,0.8,2.6c0,0,0.5,0.3,3.9,0.3
		c3.3,0,3.9-0.3,4-0.3c0.5-0.8,0.8-1.7,0.8-2.6C27.8,15.6,25.7,13.5,23.1,13.5z"/>
	<path class="st0" d="M27.6,18c0,0.2-2,0.3-4.4,0.3s-4.4-0.1-4.4-0.3s2-0.3,4.4-0.3S27.6,17.8,27.6,18z"/>
	<ellipse transform="matrix(0.6404 -0.7681 0.7681 0.6404 -2.2349 25.4001)" class="st0" cx="26" cy="15.1" rx="0.8" ry="1.2"/>
	<ellipse transform="matrix(0.5379 -0.843 0.843 0.5379 -0.71 27.1249)" class="st0" cx="24.4" cy="14.2" rx="0.3" ry="0.4"/>
	<polygon class="st0" points="25.1,27.3 24.2,28.1 24.4,29 24.7,29.4 25.4,29.1 25.6,28 	"/>
	<polygon class="st0" points="19.9,22.8 19.4,23.2 19.5,23.6 19.7,23.8 20.1,23.7 20.2,23.1 	"/>
	<polygon class="st0" points="13.6,30.9 11.8,31.8 10.9,32.6 11.3,33.2 11.6,33.6 16.2,33.6 16.8,32.9 16.5,32.5 	"/>
	<polygon class="st0" points="30.9,29 29.1,29.9 28.2,30.9 29.7,32.5 30.8,32.1 31.8,30.2 	"/>
	<path class="st0" d="M35.3,24.3l2.1-3.6l0,0h-1.6L35,20.8l0.5,1l-0.9,0.3l-1.1-0.5l-0.1-0.8l0,0l-1.9,0.1L31.1,22l-1.9,0.1L28.9,22
		v-1L28,20.8c-0.1,0.2-0.2,0.4-0.3,0.6c0,0-0.1,0-0.1,0.1c-0.2,0.2-0.5,0.6-4.6,0.6c-3.9,0-4.3-0.4-4.5-0.6c0-0.1-0.1-0.2-0.1-0.2
		c-0.1-0.1-0.1-0.2-0.2-0.3c-0.4,0-1.5,0.1-1.9-0.1c-0.5-0.2-0.8-0.1-0.8-0.1l-1.2,0.3l-0.8-0.4l-1.6-0.2l-0.7,0.3h0.4v0.7l-0.3,1.1
		l-1.7-0.2l-0.1-0.9L9.7,21h0.1c-0.8-0.1-1.1-0.2-1.7,0C7.6,21.2,7,21.4,7,21.4H6.2L5.7,21L5,20.4l-1.1,0.2L8.8,29l0.1-0.5h0.6v0.8
		L9,29.2l1.9,3.2l0.8-0.8l1.9-0.9l3,1.7v0.1h0.1l0.2,0.4l-0.6,0.7H18l-0.4-0.5l0.7-0.9l1.3-0.8h0.1l0,0l1.8,1.1l0.1,0.3l-0.7,0.8
		h5.4v-0.1l0.3-0.1l0.1,0.2h3.2l0.7-1.2l-0.9,0.3L28,30.9l1-1.1l1.9-0.9l0.9,1.3l1.1-1.8l-0.3-0.2l0.5-0.7l0.2,0.2l0.9-1.6l-0.6,0.1
		l-1.2-1.3v-0.3l2.4-0.9h0.1l-2.3,0.9l-0.1,0.2l1.2,1.2l0.7-0.1L35.3,24.3v-0.6v0.1V24.3z M5.5,22.4l-0.3,0.2l-0.1-0.2l0.1-0.2
		L5.3,22l0.3,0.2L5.5,22.4z M6.8,23.2l0.3-0.8l0.6,0.4l0.6-0.3h0.6l-0.5,1l-1,0.5L6.8,23.2z M7.7,25.2c0.2,0,0.2-0.4,0.2-0.4
		l0.7,0.1l0.6,0.8C9.2,25.7,7.9,25.2,7.7,25.2z M25.1,22.5l0.7,0.3c0,0-1.1,0.3-1,0.2c0.1-0.1-0.1-0.3-0.1-0.3L25.1,22.5z
		 M21.8,22.8v0.7h-0.7L21,23L21.8,22.8z M20.5,23.1h0.2l0.1,0.2l0.1,0.2l-0.3,0.1l-0.2-0.3L20.5,23.1z M14.7,22.6
		c0.1,0,0.2-0.3,0.2-0.3l0.6,0.1l0.2,0.8C15.7,23.2,14.5,22.6,14.7,22.6z M14.1,22.3h0.3v0.3l-0.2,0.1H14l-0.1-0.3L14.1,22.3z
		 M11.3,25l0.3,0.3L11,25.8l-0.3-0.5L11.3,25z M11.3,27.9l-0.4-0.5l-0.2-0.8l1.1-1l0.6,0.8l-0.2,1.2L11.3,27.9z M12.7,30.5l-0.2-0.1
		l-0.1-0.1V30l0.3-0.1l0.1,0.3L12.7,30.5z M12.8,27.1L12.6,27l-0.1-0.2v-0.2l0.3-0.1l0.1,0.3L12.8,27.1z M13.1,26.6l-1.7-1.8l1-1.1
		l1.9-0.9l3,1.7v0.1h0.1l0.2,0.4l-1.3,1.5L13.1,26.6z M15,29.2l-0.3,0.2l-0.1-0.3v-0.3h0.2L15,29V29.2z M17.9,30.3L16,30.4l-0.3-0.1
		v-1.4l1.3-1.2l1.4,0.4v1L17.9,30.3z M18.4,31.9l-0.1-0.3l0.4-0.3l0.4,0.2L18.4,31.9z M19,29.1L18.6,29l0.1-0.7l0.6,0.2L19,29.1z
		 M19.6,24l-0.2-0.3l-0.1-0.5l0.6-0.6l0.4,0.5l-0.1,0.7L19.6,24z M21.1,31.9L20.9,32l-0.1-0.1l-0.1-0.3l0.2-0.2l0.2,0.2V31.9z
		 M21.8,32.1L21.5,32l-0.1-0.2l0.1-0.2h0.2l0.2,0.1L21.8,32.1z M23.4,28.6h-0.2l-1.9,0.2L20,26.7l-0.2-0.5c0,0,0-0.1,0.1-0.2
		s0.3-0.1,0.5,0c1.7,0.6,2.7,1,3.2,1.2L23.5,27l0.1-0.2h0.2l0.2,0.1l-0.1,0.3h-0.3c0.6,0.2,0.6,0.2,0.6,0.3c0,0,0,0-0.1,0.1
		c0,0,0,0,0.1,0l-0.4,0.5L23.4,28.6z M24.1,31.5L24,31.3V31h0.2l0.1,0.1l0.1,0.3L24.1,31.5z M24.3,29L24,28.2l1.1-1l0.6,0.8
		l-0.2,1.2l-0.9,0.4L24.3,29z M24.2,27l0.2-0.3l0.4,0.4l-0.4,0.4L24.2,27z M25.8,29.7l-0.4-0.1l0.5-0.6l0.2,0.1L25.8,29.7z
		 M25.9,27.7l-0.5-0.5l0.5-0.3l0.3,0.5L25.9,27.7z M27,30.9l-0.2-0.2l0.4-0.4l0.4,0.1L27,30.9z M27.9,25.3l-1.1,0.9l-1.6,0.7
		l-2.4-2.2l1.6-1.4h0.1l0,0l2.5,0.2L27.9,25.3L27.9,25.3L27.9,25.3z M31.6,21.7h0.3l0.3,0.2l-0.1,0.5l-0.5-0.1l-0.2-0.4L31.6,21.7z
		 M31.2,22.2c-0.1,0,0,0.3,0,0.3l-0.4,0.2l-0.6-0.4C30.2,22.3,31.3,22.2,31.2,22.2z M30.9,25.4l-0.1,0.1l-0.1,0.1l-0.1-0.1v-0.2h0.2
		L30.9,25.4z M30.2,25.6c0,0-0.9,0.6-0.8,0.5s-0.2-0.2-0.2-0.2l0.3-0.3H30.2z M28.8,24l-0.3-0.4l0.3-0.3l0.3,0.1l0.3,0.2l-0.2,0.5
		L28.8,24z M29.7,29l-0.2,0.1l-0.1-0.2l-0.1-0.2l0.2-0.2l0.2,0.2V29z M32.6,27.2l-0.5,0.4l-0.6,0.5l-1.8-0.3l-0.5-1.3L30,26l1.2-0.4
		l0.1,0.1l0,0L32.6,27.2z M32.2,24.3l-0.3-0.4l0.7-0.5l0.3,0.6L32.2,24.3z M35,22.3l0.6-0.5l0.2,0.3l-0.4,0.4L35,22.3z"/>
</g>
</svg>
