<?xml version="1.0" encoding="utf-8"?>
<!-- Generator: Adobe Illustrator 19.2.1, SVG Export Plug-In . SVG Version: 6.00 Build 0)  -->
<svg version="1.1" id="Layer_1" xmlns="http://www.w3.org/2000/svg" xmlns:xlink="http://www.w3.org/1999/xlink" x="0px" y="0px"
	 viewBox="0 0 41.1 35.6" style="enable-background:new 0 0 41.1 35.6;" xml:space="preserve">
<style type="text/css">
	.st0{fill:#E6EEF8;}
</style>
<polygon class="st0" points="31.1,21.9 30.7,22.4 31.1,23 31.9,23.2 32.2,22.4 31.6,22 "/>
<polygon class="st0" points="15.5,20.6 15.3,20.6 15.2,20.9 15.3,21.2 15.6,21.1 15.6,20.8 "/>
<polygon class="st0" points="29.2,23.4 29,23.6 29.2,23.8 29.5,23.9 29.6,23.6 29.4,23.5 "/>
<polygon class="st0" points="13.7,23.4 13.6,23.2 13.3,23.4 13.2,23.6 13.5,23.8 13.7,23.6 "/>
<polygon class="st0" points="30.6,13 30.4,13 30.3,13.3 30.5,13.3 30.7,13.3 30.7,13.2 "/>
<polygon class="st0" points="10.2,9.8 10.3,10 10.6,10 10.8,9.7 10.5,9.5 10.3,9.7 "/>
<polygon class="st0" points="13.8,11.7 14,11.9 13.8,12 13.5,11.9 13.4,11.7 13.7,11.7 "/>
<path class="st0" d="M9.9,21.2c0,0,1.7,0.4,1.5,0.4S11.3,22,11.3,22h-0.8L9.9,21.2z"/>
<path class="st0" d="M28.5,21.9c0,0-1.1,0.3-1,0.2s-0.1-0.3-0.1-0.3l0.4-0.2L28.5,21.9z"/>
<polygon class="st0" points="25.1,20.7 25.2,21.2 25.9,21.2 25.9,20.6 "/>
<polygon class="st0" points="27.7,28.8 27.2,28.8 27,29.5 27.7,29.6 "/>
<polygon class="st0" points="9.4,23.5 9.1,23.1 8.6,23.4 8.9,24 "/>
<polygon class="st0" points="9.1,26.6 9.5,26.3 9.7,25.7 9.4,25.3 8.8,25.8 8.9,26.3 "/>
<polygon class="st0" points="12.3,26.7 12.5,26.7 12.6,26.5 12.5,26.2 12.2,26.3 12.2,26.5 "/>
<polygon class="st0" points="10.6,30.3 10.8,30.3 10.9,30 10.8,29.7 10.5,29.8 10.5,30.1 "/>
<polygon class="st0" points="29.2,33 29.4,33 29.5,32.8 29.4,32.5 29.1,32.6 29.1,32.8 "/>
<polygon class="st0" points="32.3,28.2 32.5,28.1 32.5,27.8 32.3,27.6 32,27.8 32.2,28 "/>
<polygon class="st0" points="30,13.5 30.2,13.4 30.2,13.2 29.9,13.2 29.7,13.3 29.9,13.4 "/>
<polygon class="st0" points="5.8,22.2 6,22.4 6.2,22.2 6.3,22 6.1,21.8 5.9,22 "/>
<path class="st0" d="M13.7,32.3c0,0-1.7-0.6-1.5-0.5c0.2,0,0.2-0.4,0.2-0.4l0.7,0.1L13.7,32.3z"/>
<path class="st0" d="M32.3,24.3c0,0,1,0.4,0.9,0.4S33.1,25,33.1,25h-0.5L32.3,24.3z"/>
<path class="st0" d="M33.6,21.1c0,0,1,0.4,0.9,0.4s-0.1,0.3-0.1,0.3h-0.5L33.6,21.1z"/>
<polygon class="st0" points="29.1,32 29.4,31.5 29.1,31.3 28.7,32 "/>
<polygon class="st0" points="34.5,23.8 34.9,24 35.4,23.5 34.9,23.1 "/>
<polygon class="st0" points="30.1,25.6 30.4,25.9 31,25.7 30.7,25.1 "/>
<polygon class="st0" points="9.8,7.3 31.1,8.2 31.4,8.9 31.9,9.3 32.2,10 32,10.9 31.9,11.7 30.9,11.7 30.8,12.3 29.5,12.4 
	28.1,12.7 25.7,12.8 23.8,13.5 21.6,13.2 19.6,13.9 18.9,13.7 18,12.9 17.3,12.4 16.2,12.4 15.3,11.8 14.7,10.9 13.8,10.3 
	13.1,10.1 13.1,9.3 11.5,8.9 10.3,8.5 "/>
<polygon class="st0" points="32.9,8.1 31.7,8.3 31.7,8.8 32.4,9.4 32.5,8.8 "/>
<polygon class="st0" points="28.5,13.3 28,13.5 27.1,13.5 27.1,13.6 28.2,13.9 28.8,13.5 "/>
<polygon class="st0" points="31.5,8.2 31.3,8.3 31.4,8.5 "/>
<polygon class="st0" points="10.3,9.4 10,9.5 10.1,9.6 "/>
<polygon class="st0" points="30.2,13.5 30.4,13.6 30.5,13.4 "/>
<g>
	<polygon class="st0" points="12.2,11.9 11.3,11.8 11.1,11.9 11.7,12.3 11.9,12.3 12.2,11.9 	"/>
	<polygon class="st0" points="9.9,11 10,11.4 10.8,11.7 12.4,11.8 13,11.6 12.7,10.5 10.9,10.1 10.3,10.3 	"/>
	<path class="st0" d="M33.7,8.3h-0.3L33,8.8l0.3,0.7l-0.4,1l-0.2,0.9v0.7l-0.1,0l0.3,0.2l-0.4-0.2l-0.6,0.2l-0.2,0.4l-0.8,0.6
		l-0.3,0.4l-1.1-0.4l-0.6,0.4l-0.6,0.5L27.4,14l-0.2,0l-1.4,0.3l0.8-0.2l-0.1-0.2l-0.6-0.1l-1.7,0.7l-1.8-0.2l-2.5,0.9L19,15
		l-0.5-0.5l-0.9-0.7l-0.9,0.1l0.7,0.5l-0.9-0.5l-0.1,0l-0.9-0.6l-0.9-1l-1,0.1L12.8,12L12,12.4l-0.4,0.9l0.1-0.4l-0.4-0.7l-0.6-0.4
		L10,11.5l-0.6,0.1v0L9,11.8l0.3-0.3l0.4-0.4L9.8,11l0.3-0.9l0,0L9.8,9.4L9.1,8.7L7.9,8.6L7.6,8.5l-5.3,9.2L3.1,19l0.8-0.1l0.6,0.2
		L5,18.9L7.5,19l1.8,0.1l1.2-0.1h0.8l0.9,0.3l2.1-0.2l0.6-0.2h0.9H17l1.3-0.2h0.9l1.4-1.8l0.4-0.5l0.4,0.5L23,19l2.1-0.1L27,19
		l1-0.2l0.6-0.1h1.1l0.9,0.6H32l0.6-0.3l0.6,0.2l0.8,0.1l0.8-0.3l1,0.1h0.8l0.8-0.1l0.8,0.2l0.9-1.5L33.7,8.3z M30.6,15.2L30,14.8
		l-0.3-0.1h-0.1l-1.4-0.5l0.9,0.3l0.8,0.2H30l0.1-0.1l0.2-0.6l-0.2,0.7l0.1,0.1L30.6,15.2h0.1l0,0l0.2,0.6L30.6,15.2z"/>
	<polygon class="st0" points="11.4,12.3 11.5,12.5 11.6,12.6 11.7,12.8 11.7,12.8 11.8,12.6 11.6,12.4 	"/>
	<polygon class="st0" points="9.5,11.5 9.8,11.4 9.9,11.3 9.8,11.1 9.7,11.2 	"/>
</g>
<path class="st0" d="M21,17.1l-8.2,10.3h3.6V34h9.2v-6.5H29L21,17.1z M20.9,30.3c-1.3,0-2.4-1.1-2.4-2.4s2.4-5.4,2.4-5.4
	s2.4,4.1,2.4,5.4S22.2,30.3,20.9,30.3z"/>
<path class="st0" d="M22.8,27.3c0,0.5-0.2,0.8-0.5,0.8s-0.5-0.4-0.5-0.8s-0.4-3-0.4-3S22.8,26.9,22.8,27.3z"/>
<g>
	<path class="st0" d="M30.6,35.1h-20L0.7,17.7l9.9-17.3h20l10,17.3L30.6,35.1z M10.9,34.6h19.6l9.8-16.9L30.4,0.9H10.9L1.2,17.7
		L10.9,34.6z"/>
</g>
</svg>
