<?xml version="1.0" encoding="utf-8"?>
<!-- Generator: Adobe Illustrator 19.2.0, SVG Export Plug-In . SVG Version: 6.00 Build 0)  -->
<svg version="1.1" id="Layer_1" xmlns="http://www.w3.org/2000/svg" xmlns:xlink="http://www.w3.org/1999/xlink" x="0px" y="0px"
	 viewBox="0 0 229.3 43.3" style="enable-background:new 0 0 229.3 43.3;" xml:space="preserve">
<g>
	<g id="GhostShield">
		<path d="M7.9,24.9L7.9,24.9c0.1,0,0.2-0.1,0.2-0.1l3.8-10.4c0.4-1,0.9-1.7,1.5-2.1c0.6-0.4,1.5-0.6,2.5-0.6h18.8
			c0.1,0,0.2-0.1,0.2-0.2l0.2-1.5c0.5-3.9,0.5-6.5,0.5-6.5c0-0.1-0.1-0.2-0.2-0.2c-2.1-0.4-4.4-0.6-6.6-0.6
			C16.5,2.7,6.6,8.5,6.5,8.6c-0.1,0-0.1,0.1-0.1,0.2c-0.6,5.8-0.2,11.2,1.3,16C7.7,24.8,7.8,24.9,7.9,24.9"/>
		<path d="M34.2,14.6c0,0-0.1-0.1-0.2-0.1H17.9c-0.2,0-0.4,0.1-0.5,0.3c0,0.1,0,0-0.3,0.8l-0.8,2.2c-0.3,0.9-0.7,1.8-1,2.8
			c-0.4,1-0.7,1.9-1,2.8c-0.3,0.9-0.7,1.9-1.1,3c0,0,0,0,0,0.1c0,0.1,0.1,0.3,0.2,0.3c0.1,0,0.1,0,0.1,0h5.2c0.1,0,0.3,0,0.5-0.3
			c0.1-0.2,0.2-0.5,0.3-0.8c0.1-0.3,0.2-0.5,0.3-0.7l0.6-1.7c0-0.1,0-0.1,0-0.2c0-0.1-0.1-0.1-0.2-0.1h-2.3c0.3-0.8,0.8-1.4,1.3-1.7
			c0.6-0.4,1.4-0.6,2.4-0.6l5.3,0l-2.1,5.8c-0.3,1-0.8,1.6-1.5,2c-0.6,0.4-1.5,0.6-2.5,0.6H3c-0.1,0-0.2,0.1-0.2,0.2
			c0,0.1,0.1,0.2,0.2,0.2l7.5,1.6c3.6,6.4,8.3,9,8.3,9.1c0,0,0.1,0,0.1,0c0,0,0.1,0,0.1,0c9.7-5.3,13.6-16.7,15.3-25.5
			C34.3,14.7,34.3,14.7,34.2,14.6"/>
		<path d="M75.4,13.7c0-0.7-0.2-1.2-0.7-1.5c-0.5-0.3-1-0.5-1.6-0.5H61.4c-0.8,0-1.5,0.1-2,0.4c-0.2,0.1-0.4,0.2-0.6,0.3
			c-0.6,0.4-1.1,1.1-1.5,2.2l-4.1,12.2c-0.1,0.3-0.1,0.6-0.1,0.9c0,0.7,0.2,1.2,0.7,1.5c0.5,0.3,1,0.5,1.6,0.5h11.7
			c0.8,0,1.5-0.1,2-0.4c0.2-0.1,0.4-0.2,0.6-0.3c0.6-0.4,1.1-1.1,1.5-2.2l4.1-12.2C75.3,14.2,75.4,13.9,75.4,13.7 M68.8,15.2
			c-0.1,0.3-0.2,0.7-0.3,1.1c-0.1,0.4-0.2,0.7-0.4,1.1c-0.1,0.3-0.2,0.5-0.2,0.6l-1.9,5.8l-0.7,2c0,0.1-0.1,0.3-0.1,0.4
			c0,0.1-0.1,0.3-0.1,0.4c0,0.1-0.1,0.1-0.1,0.1c0,0-0.1,0-0.1,0h-5.2c-0.1,0-0.1,0-0.1-0.1c0,0,0.1-0.2,0.2-0.5s0.2-0.7,0.3-1.1
			c0.1-0.4,0.2-0.7,0.4-1.1c0.1-0.3,0.2-0.5,0.2-0.6l1.9-5.8l0.7-2c0-0.1,0.1-0.3,0.1-0.4c0-0.1,0.1-0.3,0.1-0.4
			c0-0.1,0.1-0.1,0.1-0.1c0,0,0.1,0,0.1,0h5.2c0.1,0,0.1,0,0.1,0.1C68.9,14.7,68.9,14.8,68.8,15.2"/>
		<path d="M113.9,11.7H97.8H96h-15c-1.1,0-1.9,0.2-2.6,0.6c-0.6,0.4-1.1,1.1-1.5,2.2l-1.7,5.1C75.1,20,75,20.3,75,20.5
			c0,0.7,0.2,1.2,0.7,1.5c0.5,0.3,1,0.5,1.6,0.5h8.4c0.1,0,0.1,0,0.1,0.1c0,0,0,0.2-0.1,0.5c-0.1,0.3-0.2,0.6-0.3,0.9
			c-0.1,0.3-0.2,0.6-0.3,0.9c-0.1,0.3-0.2,0.5-0.2,0.6c-0.2,0.5-0.4,0.8-0.8,1c-0.3,0.2-0.7,0.3-1.2,0.3H72.8
			c-0.1,0.3-0.1,0.6-0.1,0.9c0,0.7,0.2,1.2,0.7,1.5c0.5,0.3,1,0.4,1.6,0.4h11.6c1,0,1.9-0.2,2.6-0.6c0.7-0.4,1.2-1.1,1.5-2.2l1.7-5
			c0.1-0.3,0.1-0.6,0.1-0.9c0-0.7-0.2-1.2-0.7-1.5c-0.5-0.3-1-0.5-1.6-0.5h-8.5l1-3c0.2-0.5,0.4-0.8,0.7-1c0.3-0.2,0.8-0.3,1.2-0.3
			H92h1.9h5.4c0.1,0,0.2,0,0.2,0.1c0,0,0,0,0,0v0.1c-0.7,2-1.3,3.9-2,5.9c-0.6,2-1.3,3.9-1.9,5.9c0,0.1-0.1,0.2-0.2,0.5
			c-0.1,0.3-0.2,0.6-0.3,1c-0.1,0.3-0.2,0.7-0.3,0.9c-0.1,0.3-0.1,0.4-0.1,0.5c0,0.1,0,0.1,0.1,0.1h5.8c0.1,0,0.2-0.1,0.3-0.2
			l4.9-14.6c0-0.1,0.1-0.2,0.2-0.2h4C111.9,14.5,113.2,13.6,113.9,11.7"/>
		<path d="M151.6,16.9c0.1-0.3,0.2-0.6,0.4-1.1c0.1-0.4,0.3-0.8,0.4-1.3c0.2-0.5,0.3-0.9,0.4-1.3c0.1-0.4,0.2-0.7,0.3-1
			c0.1-0.3,0.1-0.4,0.1-0.4c0-0.1,0-0.1-0.1-0.1h-5.8c-0.1,0-0.2,0.1-0.2,0.2l-2.3,6.7c0,0.1-0.1,0.2-0.3,0.2h-5.2
			c-0.1,0-0.1,0-0.1-0.1c0-0.1,0-0.2,0.1-0.5c0.1-0.3,0.2-0.6,0.3-1c0.1-0.4,0.3-0.8,0.4-1.2c0.2-0.4,0.3-0.8,0.4-1.2
			c0.1-0.4,0.3-0.7,0.4-1c0.1-0.3,0.2-0.5,0.2-0.7c0-0.1,0-0.1,0.1-0.3c0-0.1,0.1-0.3,0.1-0.4c0-0.1,0.1-0.3,0.1-0.4
			c0-0.1,0.1-0.2,0.1-0.3c0-0.1,0-0.1-0.1-0.1h-6.8h-1.5h-15.4c-1.1,0-1.9,0.2-2.6,0.6c-0.6,0.4-1.1,1.1-1.5,2.2l-1.7,5.1
			c-0.1,0.3-0.1,0.6-0.1,0.9c0,0.7,0.2,1.2,0.7,1.5c0.5,0.3,1,0.5,1.6,0.5h8.4c0.1,0,0.1,0,0.1,0.1c0,0,0,0.2-0.1,0.5
			c-0.1,0.3-0.2,0.6-0.3,0.9c-0.1,0.3-0.2,0.6-0.3,0.9c-0.1,0.3-0.2,0.5-0.2,0.6c-0.2,0.5-0.4,0.8-0.8,1c-0.3,0.2-0.7,0.3-1.2,0.3
			h-10.2c-0.1,0.3-0.1,0.6-0.1,0.9c0,0.7,0.2,1.2,0.7,1.5c0.5,0.3,1,0.4,1.6,0.4h11.6c1,0,1.9-0.2,2.6-0.6c0.7-0.4,1.2-1.1,1.5-2.2
			l1.7-5c0.1-0.3,0.1-0.6,0.1-0.9c0-0.7-0.2-1.2-0.7-1.5c-0.5-0.3-1-0.5-1.6-0.5h-8.5l1-3c0.2-0.5,0.4-0.8,0.7-1
			c0.3-0.2,0.8-0.3,1.2-0.3h7.7h1.6h3.6c0.1,0,0.2,0.1,0.2,0.2c0,0-0.1,0.3-0.3,0.9c-0.2,0.5-0.4,1.2-0.7,2
			c-0.3,0.8-0.6,1.7-0.9,2.7c-0.3,1-0.6,1.9-0.9,2.7c-0.3,0.9-0.5,1.6-0.8,2.3c-0.2,0.6-0.4,1.1-0.4,1.2c0,0-0.1,0.2-0.2,0.5
			c-0.1,0.3-0.2,0.6-0.3,1c-0.1,0.3-0.3,0.8-0.5,1.4c0,0.1,0,0.2,0.1,0.2h5.8c0.1,0,0.2-0.1,0.3-0.2l2.2-6.7c0-0.1,0.1-0.2,0.2-0.2
			h5.2c0.1,0,0.1,0,0.1,0.1c0,0.1,0,0.1,0,0.3c0,0.1-0.1,0.2-0.1,0.4c0,0.1-0.1,0.3-0.1,0.4c0,0.1-0.1,0.2-0.1,0.3
			c0,0.1-0.1,0.3-0.2,0.6c-0.1,0.3-0.2,0.6-0.4,1c-0.1,0.4-0.3,0.8-0.4,1.2c-0.2,0.4-0.3,0.8-0.4,1.2c-0.1,0.4-0.2,0.7-0.3,0.9
			c-0.1,0.3-0.1,0.4-0.1,0.5c0,0.1,0,0.1,0.1,0.1h5.7c0.1,0,0.2-0.1,0.2-0.2c0.1-0.2,0.1-0.4,0.2-0.6c0.1-0.2,0.1-0.4,0.2-0.6l1-2.9
			l2.6-7.8C151.4,17.4,151.5,17.2,151.6,16.9"/>
		<path d="M161.8,11.9C161.8,11.9,161.8,11.9,161.8,11.9C161.8,11.8,161.8,11.8,161.8,11.9c0-0.1,0-0.1,0-0.1c0,0,0,0,0,0
			c0,0,0,0,0,0h-5.8c-0.1,0-0.2,0.1-0.3,0.2c-0.1,0.2-5.6,16.8-5.8,17.4c0,0,0,0,0,0c0,0,0,0,0,0c0,0,0,0,0,0.1c0,0,0,0,0,0
			c0,0,0,0,0.1,0c0,0,0,0,0,0h5.8c0.1,0,0.2-0.1,0.3-0.2c0.1-0.2,0.2-0.4,0.2-0.6C156.3,28.6,161.7,12.5,161.8,11.9
			C161.8,11.9,161.8,11.9,161.8,11.9"/>
		<path d="M165.5,26.6c0,0,0.1-0.2,0.2-0.6c0.1-0.4,0.3-0.8,0.4-1.3c0.2-0.5,0.3-0.9,0.5-1.4c0.2-0.4,0.2-0.7,0.3-0.8h5.4
			c0.1,0,0.2-0.1,0.2-0.2c0-0.1,0.1-0.3,0.2-0.6c0.1-0.3,0.2-0.7,0.4-1.1c0.1-0.4,0.2-0.7,0.3-1.1c0.1-0.3,0.2-0.5,0.2-0.5
			s0-0.1-0.1-0.1c0,0,0,0-0.1,0h-11.6l-2.6,7.8c-0.1,0.3-0.1,0.6-0.1,0.9c0,0.7,0.2,1.2,0.7,1.5c0.5,0.3,1,0.4,1.6,0.4h11.6
			c1.1,0,1.9-0.2,2.6-0.6c0.7-0.4,1.2-1.1,1.5-2.2h-11.5C165.5,26.7,165.5,26.6,165.5,26.6"/>
		<path d="M186.2,26.5c0.2-0.6,0.3-1,0.5-1.4c0.1-0.3,0.2-0.7,0.3-1c0.1-0.3,0.2-0.5,0.2-0.5c0.1-0.2,0.2-0.6,0.4-1.2
			c0.2-0.6,0.5-1.4,0.8-2.3c0.3-0.9,0.6-1.8,0.9-2.7c0.3-0.9,0.6-1.8,0.9-2.7c0.3-0.8,0.5-1.5,0.7-2c0.2-0.5,0.3-0.8,0.3-0.9
			c0-0.1,0-0.1-0.1-0.1h-23.6c-1.1,0-1.9,0.2-2.6,0.6c-0.7,0.4-1.2,1.1-1.5,2.2h6.3h5.2h9c0.1,0,0.1,0,0.1,0.1
			c-0.2,0.6-0.3,1-0.5,1.4c-0.1,0.3-0.2,0.6-0.3,0.9c-0.1,0.3-0.2,0.5-0.2,0.5c-0.1,0.2-0.2,0.6-0.4,1.2c-0.2,0.6-0.5,1.4-0.8,2.3
			c-0.3,0.9-0.6,1.8-0.9,2.8c-0.3,1-0.6,1.9-0.9,2.7c-0.3,0.8-0.5,1.5-0.7,2c-0.2,0.5-0.3,0.8-0.3,0.8c0,0.2,0.1,0.2,0.2,0.2h12.4
			c1.1,0,1.9-0.2,2.6-0.6c0.7-0.4,1.2-1.1,1.5-2.2h-9.4C186.3,26.7,186.2,26.6,186.2,26.5"/>
		<path d="M218.5,12.2c-0.5-0.3-1-0.4-1.6-0.4h-15.7c-1.1,0-1.9,0.2-2.6,0.6c-0.6,0.4-1.1,1.1-1.5,2.2h0.8h3.3h6.2h1.9h3.5
			c0.1,0,0.1,0.1,0.1,0.2c0,0-0.1,0.3-0.3,0.8c-0.2,0.5-0.4,1.2-0.7,2.1c-0.3,0.8-0.6,1.7-0.9,2.7c-0.3,1-0.6,1.9-0.9,2.8
			c-0.3,0.9-0.6,1.6-0.8,2.3c-0.2,0.7-0.4,1.1-0.4,1.2c0,0.1-0.1,0.1-0.1,0.1h-5.4l3.6-10.9h-6.2c-0.5,1.6-1,3.2-1.6,4.7
			c-0.7,2-1.3,4-2,6c0,0.1-0.1,0.2-0.2,0.5c-0.1,0.3-0.2,0.6-0.3,1c-0.1,0.3-0.2,0.7-0.3,0.9c-0.1,0.3-0.1,0.4-0.1,0.5
			c0,0.1,0,0.1,0.1,0.1H211c1,0,1.9-0.2,2.6-0.6c0.7-0.4,1.2-1.1,1.5-2.2l4-12.2c0.1-0.3,0.1-0.6,0.1-0.9
			C219.3,13,219,12.5,218.5,12.2"/>
		<path d="M54.2,16.9c0.1-0.3,0.2-0.6,0.4-1.1c0.1-0.4,0.3-0.8,0.4-1.3c0.2-0.5,0.3-0.9,0.4-1.3c0.1-0.4,0.2-0.7,0.3-1
			c0.1-0.3,0.1-0.4,0.1-0.4c0-0.1,0-0.1-0.1-0.1H50c-0.1,0-0.2,0.1-0.2,0.2l-2.3,6.8c0,0.1-0.1,0.2-0.3,0.2H42c-0.1,0-0.1,0-0.1-0.1
			c0-0.1,0-0.2,0.1-0.5c0.1-0.3,0.2-0.6,0.3-1c0.1-0.4,0.3-0.8,0.4-1.2c0.2-0.4,0.3-0.8,0.4-1.2c0.1-0.4,0.3-0.7,0.4-1
			c0.1-0.3,0.2-0.5,0.2-0.7c0-0.1,0-0.1,0.1-0.3c0-0.1,0.1-0.3,0.1-0.4c0-0.1,0.1-0.3,0.1-0.4c0-0.1,0.1-0.2,0.1-0.3
			c0-0.1,0-0.1-0.1-0.1h-0.1h-5.2h-0.6c-0.1,0-0.2,0.1-0.2,0.2c-0.1,0.2-0.1,0.4-0.2,0.6c-0.1,0.2-0.1,0.4-0.2,0.6l-1,2.9L34,23.8
			c0,0.1-0.1,0.2-0.2,0.5c-0.1,0.3-0.2,0.6-0.4,1.1c-0.1,0.4-0.3,0.8-0.4,1.3c-0.2,0.5-0.3,0.9-0.4,1.3c-0.1,0.4-0.2,0.7-0.3,1
			c0,0.1-0.1,0.2-0.1,0.3c0,0,0,0.1,0,0.1c0,0,0,0,0,0c0,0,0,0,0,0c0,0.1,0,0.1,0.1,0.1h0H38h0c0.1,0,0.2-0.1,0.3-0.2l2.2-6.7
			c0-0.1,0-0.1,0.1-0.1c0,0,0.1,0,0.1,0h3.9H46c0.1,0,0.1,0,0.1,0.1c0,0.1,0,0.1,0,0.3c0,0.1-0.1,0.2-0.1,0.4c0,0.1-0.1,0.3-0.1,0.4
			c0,0.1-0.1,0.2-0.1,0.3c0,0.1-0.1,0.3-0.2,0.6c-0.1,0.3-0.2,0.6-0.4,1c-0.1,0.4-0.3,0.8-0.4,1.2c-0.2,0.4-0.3,0.8-0.4,1.2
			c-0.1,0.4-0.2,0.7-0.3,0.9c-0.1,0.3-0.1,0.4-0.1,0.5c0,0.1,0,0.1,0.1,0.1h5.7c0.1,0,0.2-0.1,0.2-0.2c0.1-0.2,0.1-0.4,0.2-0.6
			c0.1-0.2,0.1-0.4,0.2-0.6l1-2.9l2.6-7.9C54,17.4,54.1,17.2,54.2,16.9"/>
	</g>
	<g id="Tagline">
		<path d="M44,33.3h0.4v4.1H44L42,34.3l-0.2-0.4l0,0.8v2.8h-0.4v-4.1h0.5l1.9,3.1l0.2,0.4l0-0.7V33.3z"/>
		<path d="M45.5,34.6c0-0.1,0-0.2,0.1-0.3c0-0.1,0.1-0.2,0.2-0.3l0.6-0.6c0.1-0.1,0.1-0.1,0.2-0.1c0.1,0,0.2,0,0.3,0h0.4
			c0.2,0,0.3,0,0.5,0.1c0.1,0.1,0.3,0.1,0.4,0.2c0.1,0.1,0.2,0.2,0.2,0.4c0.1,0.1,0.1,0.3,0.1,0.4v3H48v-1.6h-2.1v1.6h-0.4V34.6z
			 M46.9,33.7c-0.1,0-0.1,0-0.2,0c0,0-0.1,0.1-0.2,0.1L46,34.3c-0.1,0.1-0.1,0.2-0.1,0.3v0.8H48v-1c0-0.2-0.1-0.4-0.2-0.5
			c-0.1-0.1-0.3-0.2-0.5-0.2H46.9z"/>
		<path d="M52,33.3h0.4v4.1H52l-1.9-3.1l-0.2-0.4l0,0.8v2.8h-0.4v-4.1H50l1.9,3.1l0.2,0.4l0-0.7V33.3z"/>
		<path d="M56.5,36.1c0,0.4-0.1,0.8-0.3,1c-0.2,0.2-0.5,0.3-1,0.3h-0.4c-0.4,0-0.7-0.1-1-0.3c-0.2-0.2-0.3-0.6-0.3-1v-1.5
			c0-0.4,0.1-0.8,0.3-1c0.2-0.2,0.6-0.3,1-0.3h0.4c0.4,0,0.7,0.1,1,0.3c0.2,0.2,0.3,0.6,0.3,1V36.1z M56.1,34.7
			c0-0.6-0.3-0.9-0.9-0.9h-0.4c-0.6,0-0.9,0.3-0.9,0.9v1.5c0,0.6,0.3,0.9,0.9,0.9h0.4c0.6,0,0.9-0.3,0.9-0.9V34.7z"/>
		<path d="M60,33.7h-1.3v3.7h-0.4v-3.7h-1.3v-0.4H60V33.7z"/>
		<path d="M63.2,37.4h-2.6v-4.1h2.6v0.4H61v1.4h1.8v0.4H61V37h2.2V37.4z"/>
		<path d="M65.4,37.5c-0.4,0-0.8-0.1-1-0.4c-0.2-0.2-0.4-0.6-0.4-1v-1.5c0-0.4,0.1-0.7,0.3-0.9c0.2-0.2,0.5-0.3,1-0.3h0.5
			c0.2,0,0.3,0,0.4,0.1c0.1,0,0.2,0.1,0.3,0.2c0.1,0.1,0.2,0.2,0.2,0.3c0.1,0.1,0.1,0.3,0.1,0.4v0.1h-0.4v-0.1
			c0-0.2-0.1-0.3-0.2-0.4c-0.1-0.1-0.3-0.2-0.5-0.2h-0.5c-0.3,0-0.5,0.1-0.7,0.2c-0.1,0.2-0.2,0.4-0.2,0.6V36c0,0.3,0.1,0.6,0.2,0.7
			c0.2,0.2,0.4,0.3,0.7,0.3h0.3c0.2,0,0.4-0.1,0.6-0.2c0.1-0.1,0.2-0.3,0.2-0.5v-0.1h0.4v0.1c0,0.2,0,0.3-0.1,0.4
			c-0.1,0.1-0.1,0.2-0.2,0.3c-0.1,0.1-0.2,0.2-0.4,0.2c-0.1,0.1-0.3,0.1-0.5,0.1H65.4z"/>
		<path d="M70.6,37.4h-0.4v-1.9h-2v1.9h-0.4v-4.1h0.4v1.8h2v-1.8h0.4V37.4z"/>
		<path d="M74.2,33.3h0.4v4.1h-0.4l-1.9-3.1l-0.2-0.4l0,0.8v2.8h-0.4v-4.1h0.5l1.9,3.1l0.2,0.4l0-0.7V33.3z"/>
		<path d="M78.7,36.1c0,0.4-0.1,0.8-0.3,1c-0.2,0.2-0.6,0.3-1,0.3H77c-0.4,0-0.7-0.1-1-0.3c-0.2-0.2-0.3-0.6-0.3-1v-1.5
			c0-0.4,0.1-0.8,0.3-1c0.2-0.2,0.5-0.3,1-0.3h0.4c0.4,0,0.7,0.1,1,0.3c0.2,0.2,0.3,0.6,0.3,1V36.1z M78.2,34.7
			c0-0.6-0.3-0.9-0.9-0.9H77c-0.6,0-0.9,0.3-0.9,0.9v1.5c0,0.6,0.3,0.9,0.9,0.9h0.4c0.6,0,0.9-0.3,0.9-0.9V34.7z"/>
		<path d="M79.7,37.4v-4.1h0.4V37h2v0.4H79.7z"/>
		<path d="M85.5,36.1c0,0.4-0.1,0.8-0.3,1c-0.2,0.2-0.6,0.3-1,0.3h-0.4c-0.4,0-0.7-0.1-1-0.3c-0.2-0.2-0.3-0.6-0.3-1v-1.5
			c0-0.4,0.1-0.8,0.3-1c0.2-0.2,0.6-0.3,1-0.3h0.4c0.4,0,0.7,0.1,1,0.3c0.2,0.2,0.3,0.6,0.3,1V36.1z M85.1,34.7
			c0-0.6-0.3-0.9-0.9-0.9h-0.4c-0.6,0-0.9,0.3-0.9,0.9v1.5c0,0.6,0.3,0.9,0.9,0.9h0.4c0.6,0,0.9-0.3,0.9-0.9V34.7z"/>
		<path d="M89.4,36.4c0,0.3-0.1,0.6-0.3,0.8c-0.2,0.2-0.5,0.3-0.8,0.3h-0.4c-0.4,0-0.8-0.1-1-0.4c-0.2-0.2-0.4-0.6-0.4-1v-1.5
			c0-0.4,0.1-0.7,0.3-0.9c0.2-0.2,0.5-0.3,1-0.3h0.5c0.2,0,0.3,0,0.4,0.1c0.1,0,0.2,0.1,0.3,0.2c0.1,0.1,0.2,0.2,0.2,0.3
			c0.1,0.1,0.1,0.3,0.1,0.4v0.1h-0.4v-0.1c0-0.2-0.1-0.3-0.2-0.4c-0.1-0.1-0.3-0.2-0.5-0.2h-0.5c-0.3,0-0.5,0.1-0.7,0.2
			c-0.1,0.1-0.2,0.4-0.2,0.6v1.5c0,0.3,0.1,0.5,0.2,0.7c0.2,0.2,0.4,0.3,0.7,0.3h0.4c0.2,0,0.4-0.1,0.5-0.2c0.1-0.1,0.2-0.3,0.2-0.5
			v-0.8h-0.7v-0.4h1.2V36.4z"/>
		<path d="M91.5,35.5v1.9h-0.4v-1.9l-1.4-2.2h0.5l1.1,1.8c0.2-0.3,0.4-0.6,0.5-0.9c0.2-0.3,0.4-0.6,0.5-0.9h0.5L91.5,35.5z"/>
		<path d="M95.4,34.6c0-0.1,0-0.2,0.1-0.3c0-0.1,0.1-0.2,0.2-0.3l0.6-0.6c0.1-0.1,0.1-0.1,0.2-0.1c0.1,0,0.2,0,0.3,0h0.4
			c0.2,0,0.3,0,0.5,0.1c0.1,0.1,0.3,0.1,0.4,0.2c0.1,0.1,0.2,0.2,0.2,0.4c0.1,0.1,0.1,0.3,0.1,0.4v3h-0.4v-1.6h-2.1v1.6h-0.4V34.6z
			 M96.9,33.7c-0.1,0-0.1,0-0.2,0c0,0-0.1,0.1-0.2,0.1L96,34.3c-0.1,0.1-0.1,0.2-0.1,0.3v0.8h2.1v-1c0-0.2-0.1-0.4-0.2-0.5
			c-0.1-0.1-0.3-0.2-0.5-0.2H96.9z"/>
		<path d="M102.3,35.8c0,0.6-0.1,1-0.4,1.2c-0.3,0.3-0.7,0.4-1.2,0.4h-1.3v-4.1h1.4c0.3,0,0.5,0,0.7,0.1c0.2,0.1,0.4,0.2,0.5,0.3
			c0.1,0.1,0.2,0.3,0.3,0.5c0.1,0.2,0.1,0.4,0.1,0.7V35.8z M101.9,34.9c0-0.4-0.1-0.7-0.3-0.9c-0.2-0.2-0.5-0.3-0.8-0.3h-0.9V37h0.9
			c0.4,0,0.7-0.1,0.9-0.3c0.2-0.2,0.3-0.5,0.3-1V34.9z"/>
		<path d="M104.3,37.5l-1.4-4.1h0.5l1.1,3.2l0.1,0.4l0.1-0.4l1.1-3.2h0.5l-1.4,4.1H104.3z"/>
		<path d="M106.8,34.6c0-0.1,0-0.2,0.1-0.3c0-0.1,0.1-0.2,0.2-0.3l0.6-0.6c0.1-0.1,0.1-0.1,0.2-0.1c0.1,0,0.2,0,0.3,0h0.4
			c0.2,0,0.3,0,0.5,0.1c0.1,0.1,0.3,0.1,0.4,0.2c0.1,0.1,0.2,0.2,0.2,0.4c0.1,0.1,0.1,0.3,0.1,0.4v3h-0.4v-1.6h-2.1v1.6h-0.4V34.6z
			 M108.2,33.7c-0.1,0-0.1,0-0.2,0c0,0-0.1,0.1-0.2,0.1l-0.5,0.5c-0.1,0.1-0.1,0.2-0.1,0.3v0.8h2.1v-1c0-0.2-0.1-0.4-0.2-0.5
			c-0.1-0.1-0.3-0.2-0.5-0.2H108.2z"/>
		<path d="M113.4,33.3h0.4v4.1h-0.4l-1.9-3.1l-0.2-0.4l0,0.8v2.8h-0.4v-4.1h0.5l1.9,3.1l0.2,0.4l0-0.7V33.3z"/>
		<path d="M116.2,37.5c-0.4,0-0.8-0.1-1-0.4c-0.2-0.2-0.4-0.6-0.4-1v-1.5c0-0.4,0.1-0.7,0.3-0.9c0.2-0.2,0.5-0.3,1-0.3h0.5
			c0.2,0,0.3,0,0.4,0.1c0.1,0,0.2,0.1,0.3,0.2c0.1,0.1,0.2,0.2,0.2,0.3c0.1,0.1,0.1,0.3,0.1,0.4v0.1h-0.4v-0.1
			c0-0.2-0.1-0.3-0.2-0.4c-0.1-0.1-0.3-0.2-0.5-0.2h-0.5c-0.3,0-0.5,0.1-0.7,0.2c-0.1,0.2-0.2,0.4-0.2,0.6V36c0,0.3,0.1,0.6,0.2,0.7
			c0.2,0.2,0.4,0.3,0.7,0.3h0.3c0.2,0,0.4-0.1,0.6-0.2c0.1-0.1,0.2-0.3,0.2-0.5v-0.1h0.4v0.1c0,0.2,0,0.3-0.1,0.4
			c-0.1,0.1-0.1,0.2-0.2,0.3c-0.1,0.1-0.2,0.2-0.4,0.2c-0.1,0.1-0.3,0.1-0.5,0.1H116.2z"/>
		<path d="M121.1,37.4h-2.6v-4.1h2.6v0.4H119v1.4h1.8v0.4H119V37h2.2V37.4z"/>
		<path d="M123.6,35.3c0.1,0.1,0.2,0.1,0.3,0.2c0.1,0.1,0.2,0.1,0.3,0.2c0.1,0.1,0.1,0.2,0.2,0.3c0,0.1,0.1,0.2,0.1,0.4v0.1
			c0,0.3-0.1,0.6-0.3,0.7c-0.2,0.2-0.5,0.3-0.8,0.3h-1.6V37h1.6c0.2,0,0.4,0,0.5-0.1c0.1-0.1,0.2-0.2,0.2-0.5v-0.1
			c0-0.2,0-0.3-0.1-0.4c-0.1-0.1-0.2-0.2-0.4-0.2l-1.1-0.4c-0.1,0-0.2-0.1-0.3-0.1c-0.1-0.1-0.2-0.1-0.2-0.2
			c-0.1-0.1-0.1-0.2-0.2-0.3c0-0.1-0.1-0.2-0.1-0.3v-0.1c0-0.1,0-0.2,0.1-0.3c0-0.1,0.1-0.2,0.2-0.3c0.1-0.1,0.2-0.1,0.3-0.2
			c0.1,0,0.3-0.1,0.4-0.1h1.6v0.4h-1.6c-0.2,0-0.3,0-0.4,0.1c-0.1,0.1-0.1,0.2-0.1,0.4v0.1c0,0.1,0,0.2,0.1,0.3
			c0.1,0.1,0.2,0.2,0.3,0.2L123.6,35.3z"/>
		<path d="M127.3,37.4v-4.1h0.4v4.1H127.3z"/>
		<path d="M131.4,33.3h0.4v4.1h-0.4l-1.9-3.1l-0.2-0.4l0,0.8v2.8h-0.4v-4.1h0.5l1.9,3.1l0.2,0.4l0-0.7V33.3z"/>
		<path d="M136.2,37.5c-0.4,0-0.8-0.1-1-0.4c-0.2-0.2-0.4-0.6-0.4-1v-1.5c0-0.4,0.1-0.7,0.3-0.9c0.2-0.2,0.5-0.3,1-0.3h0.5
			c0.2,0,0.3,0,0.4,0.1c0.1,0,0.2,0.1,0.3,0.2c0.1,0.1,0.2,0.2,0.2,0.3c0.1,0.1,0.1,0.3,0.1,0.4v0.1h-0.4v-0.1
			c0-0.2-0.1-0.3-0.2-0.4c-0.1-0.1-0.3-0.2-0.5-0.2h-0.5c-0.3,0-0.5,0.1-0.7,0.2c-0.1,0.2-0.2,0.4-0.2,0.6V36c0,0.3,0.1,0.6,0.2,0.7
			c0.2,0.2,0.4,0.3,0.7,0.3h0.3c0.2,0,0.4-0.1,0.6-0.2c0.1-0.1,0.2-0.3,0.2-0.5v-0.1h0.4v0.1c0,0.2,0,0.3-0.1,0.4
			c-0.1,0.1-0.1,0.2-0.2,0.3c-0.1,0.1-0.2,0.2-0.4,0.2c-0.1,0.1-0.3,0.1-0.5,0.1H136.2z"/>
		<path d="M141.4,36.1c0,0.4-0.1,0.8-0.3,1c-0.2,0.2-0.6,0.3-1,0.3h-0.4c-0.4,0-0.7-0.1-1-0.3c-0.2-0.2-0.3-0.6-0.3-1v-1.5
			c0-0.4,0.1-0.8,0.3-1c0.2-0.2,0.5-0.3,1-0.3h0.4c0.4,0,0.7,0.1,1,0.3c0.2,0.2,0.3,0.6,0.3,1V36.1z M141,34.7
			c0-0.6-0.3-0.9-0.9-0.9h-0.4c-0.6,0-0.9,0.3-0.9,0.9v1.5c0,0.6,0.3,0.9,0.9,0.9h0.4c0.6,0,0.9-0.3,0.9-0.9V34.7z"/>
		<path d="M145,33.3h0.4v4.1H145l-1.9-3.1l-0.2-0.4l0,0.8v2.8h-0.4v-4.1h0.5l1.9,3.1l0.2,0.4l0-0.7V33.3z"/>
		<path d="M147.9,37.5c-0.4,0-0.8-0.1-1-0.4c-0.2-0.2-0.4-0.6-0.4-1v-1.5c0-0.4,0.1-0.7,0.3-0.9c0.2-0.2,0.5-0.3,1-0.3h0.5
			c0.2,0,0.3,0,0.4,0.1c0.1,0,0.2,0.1,0.3,0.2c0.1,0.1,0.2,0.2,0.2,0.3c0.1,0.1,0.1,0.3,0.1,0.4v0.1h-0.4v-0.1
			c0-0.2-0.1-0.3-0.2-0.4c-0.1-0.1-0.3-0.2-0.5-0.2h-0.5c-0.3,0-0.5,0.1-0.7,0.2c-0.1,0.2-0.2,0.4-0.2,0.6V36c0,0.3,0.1,0.6,0.2,0.7
			c0.2,0.2,0.4,0.3,0.7,0.3h0.3c0.2,0,0.4-0.1,0.6-0.2c0.1-0.1,0.2-0.3,0.2-0.5v-0.1h0.4v0.1c0,0.2,0,0.3-0.1,0.4
			c-0.1,0.1-0.1,0.2-0.2,0.3c-0.1,0.1-0.2,0.2-0.4,0.2c-0.1,0.1-0.3,0.1-0.5,0.1H147.9z"/>
		<path d="M151.9,33.3c0.2,0,0.3,0,0.4,0.1c0.1,0,0.2,0.1,0.3,0.2c0.1,0.1,0.2,0.2,0.2,0.3c0.1,0.1,0.1,0.3,0.1,0.4v0.3
			c0,0.1,0,0.3-0.1,0.4c0,0.1-0.1,0.2-0.2,0.3c-0.1,0.1-0.1,0.1-0.2,0.2c-0.1,0.1-0.2,0.1-0.2,0.1l0.7,1.8h-0.4l-0.7-1.8v0h-1.2v1.8
			h-0.4v-4.1H151.9z M150.6,33.7v1.5h1.3c0.2,0,0.3,0,0.4-0.1c0.1-0.1,0.2-0.2,0.2-0.4v-0.3c0-0.4-0.2-0.6-0.6-0.6H150.6z"/>
		<path d="M156.4,37.4h-2.6v-4.1h2.6v0.4h-2.1v1.4h1.8v0.4h-1.8V37h2.2V37.4z"/>
		<path d="M159.9,33.7h-1.3v3.7h-0.4v-3.7h-1.3v-0.4h3.1V33.7z"/>
		<path d="M163.1,37.4h-2.6v-4.1h2.6v0.4H161v1.4h1.8v0.4H161V37h2.2V37.4z"/>
		<path d="M167.5,33.3c0.2,0,0.3,0,0.4,0.1c0.1,0,0.2,0.1,0.3,0.2c0.1,0.1,0.2,0.2,0.2,0.3c0.1,0.1,0.1,0.3,0.1,0.4v0.4
			c0,0.2,0,0.3-0.1,0.5c-0.1,0.1-0.1,0.2-0.2,0.3c-0.1,0.1-0.2,0.2-0.4,0.2c-0.1,0-0.3,0.1-0.4,0.1h-1.2v1.7h-0.4v-4.1H167.5z
			 M166.3,33.7v1.7h1.2c0.2,0,0.4-0.1,0.5-0.2c0.1-0.1,0.2-0.3,0.2-0.5v-0.4c0-0.4-0.2-0.6-0.6-0.6H166.3z"/>
		<path d="M171.1,33.3c0.2,0,0.3,0,0.4,0.1c0.1,0,0.2,0.1,0.3,0.2c0.1,0.1,0.2,0.2,0.2,0.3c0.1,0.1,0.1,0.3,0.1,0.4v0.3
			c0,0.1,0,0.3-0.1,0.4c0,0.1-0.1,0.2-0.2,0.3c-0.1,0.1-0.1,0.1-0.2,0.2c-0.1,0.1-0.2,0.1-0.2,0.1l0.7,1.8h-0.4l-0.7-1.8v0h-1.2v1.8
			h-0.4v-4.1H171.1z M169.8,33.7v1.5h1.3c0.2,0,0.3,0,0.4-0.1c0.1-0.1,0.2-0.2,0.2-0.4v-0.3c0-0.4-0.2-0.6-0.6-0.6H169.8z"/>
		<path d="M175.9,36.1c0,0.4-0.1,0.8-0.3,1c-0.2,0.2-0.6,0.3-1,0.3h-0.4c-0.4,0-0.7-0.1-1-0.3c-0.2-0.2-0.3-0.6-0.3-1v-1.5
			c0-0.4,0.1-0.8,0.3-1c0.2-0.2,0.6-0.3,1-0.3h0.4c0.4,0,0.7,0.1,1,0.3c0.2,0.2,0.3,0.6,0.3,1V36.1z M175.5,34.7
			c0-0.6-0.3-0.9-0.9-0.9h-0.4c-0.6,0-0.9,0.3-0.9,0.9v1.5c0,0.6,0.3,0.9,0.9,0.9h0.4c0.6,0,0.9-0.3,0.9-0.9V34.7z"/>
		<path d="M179.4,33.7h-1.3v3.7h-0.4v-3.7h-1.3v-0.4h3.1V33.7z"/>
		<path d="M182.6,37.4h-2.6v-4.1h2.6v0.4h-2.1v1.4h1.8v0.4h-1.8V37h2.2V37.4z"/>
		<path d="M184.8,37.5c-0.4,0-0.8-0.1-1-0.4c-0.2-0.2-0.4-0.6-0.4-1v-1.5c0-0.4,0.1-0.7,0.3-0.9c0.2-0.2,0.5-0.3,1-0.3h0.5
			c0.2,0,0.3,0,0.4,0.1c0.1,0,0.2,0.1,0.3,0.2c0.1,0.1,0.2,0.2,0.2,0.3c0.1,0.1,0.1,0.3,0.1,0.4v0.1h-0.4v-0.1
			c0-0.2-0.1-0.3-0.2-0.4c-0.1-0.1-0.3-0.2-0.5-0.2h-0.5c-0.3,0-0.5,0.1-0.7,0.2c-0.1,0.2-0.2,0.4-0.2,0.6V36c0,0.3,0.1,0.6,0.2,0.7
			c0.2,0.2,0.4,0.3,0.7,0.3h0.3c0.2,0,0.4-0.1,0.6-0.2c0.1-0.1,0.2-0.3,0.2-0.5v-0.1h0.4v0.1c0,0.2,0,0.3-0.1,0.4
			c-0.1,0.1-0.1,0.2-0.2,0.3s-0.2,0.2-0.4,0.2c-0.1,0.1-0.3,0.1-0.5,0.1H184.8z"/>
		<path d="M189.8,33.7h-1.3v3.7H188v-3.7h-1.3v-0.4h3.1V33.7z"/>
		<path d="M190.5,37.4v-4.1h0.4v4.1H190.5z"/>
		<path d="M195,36.1c0,0.4-0.1,0.8-0.3,1c-0.2,0.2-0.6,0.3-1,0.3h-0.4c-0.4,0-0.7-0.1-1-0.3c-0.2-0.2-0.3-0.6-0.3-1v-1.5
			c0-0.4,0.1-0.8,0.3-1c0.2-0.2,0.5-0.3,1-0.3h0.4c0.4,0,0.7,0.1,1,0.3c0.2,0.2,0.3,0.6,0.3,1V36.1z M194.6,34.7
			c0-0.6-0.3-0.9-0.9-0.9h-0.4c-0.6,0-0.9,0.3-0.9,0.9v1.5c0,0.6,0.3,0.9,0.9,0.9h0.4c0.6,0,0.9-0.3,0.9-0.9V34.7z"/>
		<path d="M198.6,33.3h0.4v4.1h-0.4l-1.9-3.1l-0.2-0.4l0,0.8v2.8H196v-4.1h0.5l1.9,3.1l0.2,0.4l0-0.7V33.3z"/>
		<path d="M201.4,33.6h-0.5V35h-0.3v-1.4H200v-0.3h1.4V33.6z M203.2,35h-0.3v-1.2l-0.4,0.5h-0.1l-0.4-0.5V35h-0.3v-1.7h0.3l0.5,0.6
			l0.5-0.6h0.3V35z"/>
	</g>
	<g id="Registered">
		<path d="M221,13.5c0-0.6,0.2-1,0.5-1.3c0.3-0.3,0.8-0.5,1.3-0.5h0.6c0.5,0,1,0.2,1.3,0.5c0.3,0.3,0.5,0.7,0.5,1.3v0.8
			c0,0.6-0.2,1-0.5,1.3c-0.3,0.3-0.8,0.5-1.3,0.5h-0.6c-0.5,0-1-0.2-1.3-0.5c-0.3-0.3-0.5-0.7-0.5-1.3V13.5z M221.4,14.3
			c0,0.9,0.5,1.4,1.4,1.4h0.6c0.9,0,1.4-0.5,1.4-1.4v-0.8c0-0.9-0.5-1.4-1.4-1.4h-0.6c-0.9,0-1.4,0.5-1.4,1.4V14.3z M223.4,12.7
			c0.2,0,0.4,0.1,0.5,0.2c0.1,0.1,0.2,0.3,0.2,0.5v0.2c0,0.2-0.1,0.3-0.2,0.4c-0.1,0.1-0.2,0.2-0.4,0.2l0.6,1h-0.4l-0.5-1h-0.5v1
			h-0.4v-2.5H223.4z M222.7,13v0.9h0.7c0.1,0,0.2,0,0.3-0.1c0.1-0.1,0.1-0.2,0.1-0.3v-0.2c0-0.1,0-0.2-0.1-0.2
			c-0.1-0.1-0.1-0.1-0.3-0.1H222.7z"/>
	</g>
</g>
</svg>
