<?xml version="1.0" encoding="utf-8"?>
<!-- Generator: Adobe Illustrator 19.2.1, SVG Export Plug-In . SVG Version: 6.00 Build 0)  -->
<svg version="1.1" id="Layer_1" xmlns="http://www.w3.org/2000/svg" xmlns:xlink="http://www.w3.org/1999/xlink" x="0px" y="0px"
	 viewBox="0 0 403.7 72.3" style="enable-background:new 0 0 403.7 72.3;" xml:space="preserve">
<style type="text/css">
	.st0{fill:#FFFFFF;}
</style>
<path class="st0" d="M384.9,20.3h-0.2h-25.8h-5.7l-1.9,5.2h5.8c0,0,0,0,0,0h10.6l0,0h8.4c0.9,0,1.4,0.8,1.1,1.7l-6,17.5
	c-0.3,1-1.4,1.7-2.3,1.7h-8.3l6.1-17.7H356c-3.2,9.3-7.8,22.8-7.9,22.9h26c2.9,0,6.1-2.4,7.1-5.3l7.1-20.7
	C389.4,22.7,387.8,20.3,384.9,20.3z"/>
<polygon class="st0" points="266.1,51.7 276.7,51.7 287.5,20.4 276.9,20.4 "/>
<polygon class="st0" points="329.9,46.2 338.8,20.4 328.2,20.4 319.3,46.2 317.4,51.7 328,51.7 344.7,51.7 346.6,46.2 "/>
<polygon class="st0" points="89.5,20.4 85,33.4 74.9,33.4 79.4,20.4 68.8,20.4 58,51.7 68.6,51.7 73,39 83.1,39 78.7,51.7 
	89.3,51.7 100.1,20.4 "/>
<polygon class="st0" points="261.2,20.4 256.7,33.4 246.6,33.4 251.1,20.4 240.5,20.4 229.7,51.7 240.3,51.7 244.7,39 254.8,39 
	250.4,51.7 261,51.7 271.8,20.4 "/>
<path class="st0" d="M130.8,20.4H110c-2.9,0-6.1,2.4-7.1,5.3l-7.1,20.7c-1,2.9,0.6,5.3,3.5,5.3H120c2.9,0,6.1-2.4,7.1-5.3l7.1-20.7
	C135.2,22.8,133.7,20.4,130.8,20.4z M117,44.8c-0.3,1-1.4,1.7-2.3,1.7h-6.5c-1,0-1.5-0.8-1.1-1.7l6-17.5c0.3-1,1.4-1.7,2.3-1.7h6.5
	c1,0,1.5,0.8,1.1,1.7L117,44.8z"/>
<g>
	<path class="st0" d="M160.8,33.4l-13.6,0c-1,0-1.5-0.8-1.1-1.7l1-2.9h-10.6l-1.6,4.5c-1,2.9,0.6,5.3,3.5,5.3l13.6,0
		c1,0,1.5,0.8,1.1,1.7l-1.5,4.4c-0.3,1-1.4,1.7-2.3,1.7h-6.5l-12.4,0l-1.8,5.2h26c2.9,0,6.1-2.4,7.1-5.3l2.6-7.7
		C165.3,35.8,163.7,33.4,160.8,33.4z"/>
	<path class="st0" d="M137.5,25.6c1-2.9,4.2-5.2,7.1-5.2l58.4,0l-3.8,5.2h-10l-9,26.2h-10.6l9-26.2L137.5,25.6z"/>
</g>
<g>
	<polygon class="st0" points="313.5,38.8 315.5,33.3 298.4,33.3 299.8,29.2 289.2,29.2 287.8,33.3 285.9,38.8 283.4,46.2 
		281.4,51.7 292,51.7 312.9,51.7 314.9,46.2 294,46.2 296.5,38.8 	"/>
	<polygon class="st0" points="328.2,20.4 292.2,20.4 290.3,26 290.3,26 300.9,26 300.9,26 326.4,26 328.3,20.4 	"/>
</g>
<g>
	<path class="st0" d="M33.5,27.1l-6,17.5c-0.3,1,0.2,1.7,1.1,1.7h6.5c1,0,2-0.8,2.3-1.7l2.1-6H36l1.9-5.5h13.8l-6.3,18.4H7.7
		c-0.2,0-0.4,0.2-0.4,0.4s0.2,0.4,0.4,0.4l12.9,2.7c3.7,6.1,8.3,11,14.1,14.9c0,0,19.8-7.3,27-44.4H35.9
		C34.9,25.3,33.9,26.1,33.5,27.1z"/>
	<path class="st0" d="M12.8,14c0,0-2.2,16.3,2.1,28.6c0.4,1.3,0.9,2.5,1.4,3.7l0-0.1l7.1-20.7c1-2.9,4.2-5.3,7.1-5.3h32.1
		c0.6-3.5,1.2-8.8,1.5-15.1C64.1,5,42-1.7,12.8,14z"/>
</g>
<path class="st0" d="M225.5,33.4l-13.6,0c-1,0-1.5-0.8-1.1-1.7l1.5-4.4c0.3-1,1.4-1.7,2.3-1.7l23.7,0l5.1-5.2h-34.1
	c-2.9,0-6.1,2.4-7.1,5.3l-2.6,7.7c-1,2.9,0.6,5.3,3.5,5.3l13.6,0c1,0,1.5,0.8,1.1,1.7l-1.5,4.4c-0.3,1-1.4,1.7-2.3,1.7l-18.9,0
	l-1.8,5.2h26c2.9,0,6.1-2.4,7.1-5.3l2.6-7.7C230,35.8,228.4,33.4,225.5,33.4z"/>
<g>
	<path class="st0" d="M391.6,24.1c0-2.5,1.6-3.9,3.9-3.9h1.5c2.4,0,4,1.4,4,3.9v1.7c0,2.5-1.6,3.8-4,3.8h-1.5
		c-2.3,0-3.9-1.4-3.9-3.8V24.1z M392.6,25.8c0,2,1,3,3,3h1.5c2,0,3-1,3-3v-1.7c0-2-1-3-3-3h-1.5c-2,0-3,1-3,3V25.8z M396.8,22.2
		c1.1,0,1.8,0.5,1.8,1.6v0.2c0,0.8-0.4,1.2-1.1,1.5l1.3,2.1h-1.3l-1.1-1.9h-0.8v1.9h-1.2v-5.4H396.8z M395.6,23.3v1.4h1.2
		c0.4,0,0.6-0.2,0.6-0.6v-0.2c0-0.4-0.2-0.6-0.6-0.6H395.6z"/>
</g>
<g>
	<path class="st0" d="M73.5,57.9h1.1v7.2h-1l-3-4.6l-0.4-0.9l0.1,0.9v4.6h-1.1v-7.2h1.1l2.9,4.5l0.4,0.8l0-0.8V57.9z"/>
	<path class="st0" d="M76.4,60.2c0-0.4,0.1-0.8,0.5-1.1l0.9-0.9c0.2-0.2,0.6-0.4,1.1-0.4h0.7c1.3,0,2.1,0.9,2.1,2.1v5.1h-1.1v-2.6
		h-3.3v2.6h-1.1V60.2z M79,58.9c-0.3,0-0.4,0.1-0.5,0.2l-0.8,0.7c-0.1,0.1-0.2,0.2-0.2,0.5v1.1h3.3v-1.5c0-0.6-0.4-1-1-1H79z"/>
	<path class="st0" d="M88.1,57.9h1.1v7.2h-1l-3-4.6l-0.4-0.9l0.1,0.9v4.6h-1.1v-7.2h1.1l2.9,4.5l0.4,0.8l0-0.8V57.9z"/>
	<path class="st0" d="M96.5,62.7c0,1.6-0.9,2.4-2.4,2.4h-0.9c-1.5,0-2.4-0.8-2.4-2.4v-2.5c0-1.6,0.9-2.4,2.4-2.4h0.9
		c1.5,0,2.4,0.8,2.4,2.4V62.7z M95.4,60.2c0-0.9-0.4-1.3-1.3-1.3h-0.9c-0.8,0-1.3,0.4-1.3,1.3v2.5c0,0.9,0.4,1.3,1.3,1.3h0.9
		c0.8,0,1.3-0.4,1.3-1.3V60.2z"/>
	<path class="st0" d="M102.8,58.9h-2.3v6.2h-1.1v-6.2h-2.3v-1h5.7V58.9z"/>
	<path class="st0" d="M108.7,65.1h-4.8v-7.2h4.8v1H105v2h3.1v1H105v2.1h3.7V65.1z"/>
	<path class="st0" d="M112.5,65.1c-1.6,0-2.5-0.9-2.5-2.5v-2.4c0-1.5,0.8-2.3,2.3-2.3h1c1.1,0,2,0.7,2,1.8V60h-1.1v-0.3
		c0-0.5-0.3-0.8-0.8-0.8h-1c-0.9,0-1.2,0.5-1.2,1.3v2.4c0,1,0.5,1.5,1.4,1.5h0.6c0.7,0,1.1-0.4,1.1-1v-0.3h1.1v0.3
		c0,1.1-0.9,2-2.2,2H112.5z"/>
	<path class="st0" d="M122.2,65.1h-1.1v-3.2h-3.2v3.2h-1.1v-7.2h1.1v3h3.2v-3h1.1V65.1z"/>
	<path class="st0" d="M128.4,57.9h1.1v7.2h-1l-3-4.6l-0.4-0.9l0.1,0.9v4.6H124v-7.2h1.1l2.9,4.5l0.4,0.8l0-0.8V57.9z"/>
	<path class="st0" d="M136.8,62.7c0,1.6-0.9,2.4-2.4,2.4h-0.9c-1.5,0-2.4-0.8-2.4-2.4v-2.5c0-1.6,0.9-2.4,2.4-2.4h0.9
		c1.5,0,2.4,0.8,2.4,2.4V62.7z M135.7,60.2c0-0.9-0.4-1.3-1.3-1.3h-0.9c-0.8,0-1.3,0.4-1.3,1.3v2.5c0,0.9,0.4,1.3,1.3,1.3h0.9
		c0.8,0,1.3-0.4,1.3-1.3V60.2z"/>
	<path class="st0" d="M138.5,65.1v-7.2h1.1v6.2h3.4v1H138.5z"/>
	<path class="st0" d="M149.3,62.7c0,1.6-0.9,2.4-2.4,2.4h-0.9c-1.5,0-2.4-0.8-2.4-2.4v-2.5c0-1.6,0.9-2.4,2.4-2.4h0.9
		c1.5,0,2.4,0.8,2.4,2.4V62.7z M148.2,60.2c0-0.9-0.4-1.3-1.3-1.3h-0.9c-0.8,0-1.3,0.4-1.3,1.3v2.5c0,0.9,0.4,1.3,1.3,1.3h0.9
		c0.8,0,1.3-0.4,1.3-1.3V60.2z"/>
	<path class="st0" d="M156.3,63.1c0,1.2-0.8,2-2,2h-0.9c-1.6,0-2.5-0.9-2.5-2.5v-2.5c0-1.5,0.8-2.3,2.3-2.3h1.1c1.1,0,2,0.7,2,1.8
		V60h-1.1v-0.3c0-0.5-0.4-0.7-0.9-0.7h-1.1c-0.9,0-1.2,0.4-1.2,1.2v2.5c0,0.9,0.4,1.4,1.4,1.4h0.9c0.6,0,0.9-0.4,0.9-1v-1.1h-1.3v-1
		h2.4V63.1z"/>
	<path class="st0" d="M160.5,61.8v3.2h-1.1v-3.2l-2.5-4h1.2l1.8,2.9l1.8-2.9h1.2L160.5,61.8z"/>
	<path class="st0" d="M167.3,60.2c0-0.4,0.1-0.8,0.5-1.1l0.9-0.9c0.2-0.2,0.6-0.4,1.1-0.4h0.7c1.3,0,2.1,0.9,2.1,2.1v5.1h-1.1v-2.6
		h-3.3v2.6h-1.1V60.2z M169.9,58.9c-0.3,0-0.4,0.1-0.5,0.2l-0.8,0.7c-0.1,0.1-0.2,0.2-0.2,0.5v1.1h3.3v-1.5c0-0.6-0.4-1-1-1H169.9z"
		/>
	<path class="st0" d="M180,62.3c0,2-0.8,2.8-2.9,2.8h-2.5v-7.2h2.7c2,0,2.7,0.9,2.7,2.7V62.3z M178.9,60.6c0-1.3-0.5-1.7-1.6-1.7
		h-1.6v5.2h1.4c1.2,0,1.8-0.4,1.8-1.8V60.6z"/>
	<path class="st0" d="M183.4,65.1l-2.5-7.2h1.2l1.6,4.7l0.4,1.6l0.4-1.6l1.6-4.7h1.2l-2.5,7.2H183.4z"/>
	<path class="st0" d="M188.2,60.2c0-0.4,0.1-0.8,0.5-1.1l0.9-0.9c0.2-0.2,0.6-0.4,1.1-0.4h0.7c1.3,0,2.1,0.9,2.1,2.1v5.1h-1.1v-2.6
		h-3.3v2.6h-1.1V60.2z M190.8,58.9c-0.3,0-0.4,0.1-0.5,0.2l-0.8,0.7c-0.1,0.1-0.2,0.2-0.2,0.5v1.1h3.3v-1.5c0-0.6-0.4-1-1-1H190.8z"
		/>
	<path class="st0" d="M199.9,57.9h1.1v7.2h-1l-3-4.6l-0.4-0.9l0.1,0.9v4.6h-1.1v-7.2h1.1l2.9,4.5l0.4,0.8l0-0.8V57.9z"/>
	<path class="st0" d="M205.2,65.1c-1.6,0-2.5-0.9-2.5-2.5v-2.4c0-1.5,0.8-2.3,2.3-2.3h1c1.1,0,2,0.7,2,1.8V60h-1.1v-0.3
		c0-0.5-0.3-0.8-0.8-0.8h-1c-0.9,0-1.2,0.5-1.2,1.3v2.4c0,1,0.5,1.5,1.4,1.5h0.6c0.7,0,1.1-0.4,1.1-1v-0.3h1.1v0.3
		c0,1.1-0.9,2-2.2,2H205.2z"/>
	<path class="st0" d="M214.3,65.1h-4.8v-7.2h4.8v1h-3.7v2h3.1v1h-3.1v2.1h3.7V65.1z"/>
	<path class="st0" d="M218.9,61.2c0.9,0.3,1.5,0.9,1.5,1.9v0.1c0,1.1-0.8,1.8-2,1.8h-3v-1h3c0.5,0,0.9-0.2,0.9-0.8v-0.1
		c0-0.4-0.3-0.7-0.7-0.9l-1.9-0.7c-0.7-0.3-1.3-0.9-1.3-1.8v-0.2c0-0.9,0.7-1.7,1.9-1.7h3v1h-3c-0.5,0-0.7,0.3-0.7,0.6v0.1
		c0,0.3,0.2,0.7,0.6,0.8L218.9,61.2z"/>
	<path class="st0" d="M225.3,65.1v-7.2h1.1v7.2H225.3z"/>
	<path class="st0" d="M232.7,57.9h1.1v7.2h-1l-3-4.6l-0.4-0.9l0.1,0.9v4.6h-1.1v-7.2h1.1l2.9,4.5l0.4,0.8l0-0.8V57.9z"/>
	<path class="st0" d="M241.4,65.1c-1.6,0-2.5-0.9-2.5-2.5v-2.4c0-1.5,0.8-2.3,2.3-2.3h1c1.1,0,2,0.7,2,1.8V60H243v-0.3
		c0-0.5-0.3-0.8-0.8-0.8h-1c-0.9,0-1.2,0.5-1.2,1.3v2.4c0,1,0.5,1.5,1.4,1.5h0.6c0.7,0,1.1-0.4,1.1-1v-0.3h1.1v0.3
		c0,1.1-0.9,2-2.2,2H241.4z"/>
	<path class="st0" d="M251.1,62.7c0,1.6-0.9,2.4-2.4,2.4h-0.9c-1.5,0-2.4-0.8-2.4-2.4v-2.5c0-1.6,0.9-2.4,2.4-2.4h0.9
		c1.5,0,2.4,0.8,2.4,2.4V62.7z M250,60.2c0-0.9-0.4-1.3-1.3-1.3h-0.9c-0.8,0-1.3,0.4-1.3,1.3v2.5c0,0.9,0.4,1.3,1.3,1.3h0.9
		c0.8,0,1.3-0.4,1.3-1.3V60.2z"/>
	<path class="st0" d="M257.3,57.9h1.1v7.2h-1l-3-4.6l-0.4-0.9l0.1,0.9v4.6h-1.1v-7.2h1.1l2.9,4.5l0.4,0.8l0-0.8V57.9z"/>
	<path class="st0" d="M262.6,65.1c-1.6,0-2.5-0.9-2.5-2.5v-2.4c0-1.5,0.8-2.3,2.3-2.3h1c1.1,0,2,0.7,2,1.8V60h-1.1v-0.3
		c0-0.5-0.3-0.8-0.8-0.8h-1c-0.9,0-1.2,0.5-1.2,1.3v2.4c0,1,0.5,1.5,1.4,1.5h0.6c0.7,0,1.1-0.4,1.1-1v-0.3h1.1v0.3
		c0,1.1-0.9,2-2.2,2H262.6z"/>
	<path class="st0" d="M270,57.9c1.1,0,1.9,0.7,1.9,1.9v0.5c0,0.9-0.7,1.4-1.2,1.7l1.4,3.1h-1.2l-1.3-2.9h-1.7v2.9h-1.1v-7.2H270z
		 M267.9,58.9v2.2h2.1c0.5,0,0.8-0.3,0.8-0.8v-0.5c0-0.6-0.3-0.9-0.8-0.9H267.9z"/>
	<path class="st0" d="M278.4,65.1h-4.8v-7.2h4.8v1h-3.7v2h3.1v1h-3.1v2.1h3.7V65.1z"/>
	<path class="st0" d="M284.7,58.9h-2.3v6.2h-1.1v-6.2H279v-1h5.7V58.9z"/>
	<path class="st0" d="M290.6,65.1h-4.8v-7.2h4.8v1h-3.7v2h3.1v1h-3.1v2.1h3.7V65.1z"/>
	<path class="st0" d="M298.5,57.9c1.1,0,1.9,0.7,1.9,1.9v0.6c0,1.4-0.9,1.9-2.1,1.9h-1.9v2.7h-1.1v-7.2H298.5z M296.4,58.9v2.4h1.9
		c0.6,0,1-0.3,1-0.9v-0.6c0-0.6-0.3-0.9-0.8-0.9H296.4z"/>
	<path class="st0" d="M304.9,57.9c1.1,0,1.9,0.7,1.9,1.9v0.5c0,0.9-0.7,1.4-1.2,1.7l1.4,3.1h-1.2l-1.3-2.9h-1.7v2.9h-1.1v-7.2H304.9
		z M302.8,58.9v2.2h2.1c0.5,0,0.8-0.3,0.8-0.8v-0.5c0-0.6-0.3-0.9-0.8-0.9H302.8z"/>
	<path class="st0" d="M313.9,62.7c0,1.6-0.9,2.4-2.4,2.4h-0.9c-1.5,0-2.4-0.8-2.4-2.4v-2.5c0-1.6,0.9-2.4,2.4-2.4h0.9
		c1.5,0,2.4,0.8,2.4,2.4V62.7z M312.8,60.2c0-0.9-0.4-1.3-1.3-1.3h-0.9c-0.8,0-1.3,0.4-1.3,1.3v2.5c0,0.9,0.4,1.3,1.3,1.3h0.9
		c0.8,0,1.3-0.4,1.3-1.3V60.2z"/>
	<path class="st0" d="M320.2,58.9h-2.3v6.2h-1.1v-6.2h-2.3v-1h5.7V58.9z"/>
	<path class="st0" d="M326.1,65.1h-4.8v-7.2h4.8v1h-3.7v2h3.1v1h-3.1v2.1h3.7V65.1z"/>
	<path class="st0" d="M329.9,65.1c-1.6,0-2.5-0.9-2.5-2.5v-2.4c0-1.5,0.8-2.3,2.3-2.3h1c1.1,0,2,0.7,2,1.8V60h-1.1v-0.3
		c0-0.5-0.3-0.8-0.8-0.8h-1c-0.9,0-1.2,0.5-1.2,1.3v2.4c0,1,0.5,1.5,1.4,1.5h0.6c0.7,0,1.1-0.4,1.1-1v-0.3h1.1v0.3
		c0,1.1-0.9,2-2.2,2H329.9z"/>
	<path class="st0" d="M339.1,58.9h-2.3v6.2h-1.1v-6.2h-2.3v-1h5.7V58.9z"/>
	<path class="st0" d="M340.3,65.1v-7.2h1.1v7.2H340.3z"/>
	<path class="st0" d="M348.8,62.7c0,1.6-0.9,2.4-2.4,2.4h-0.9c-1.5,0-2.4-0.8-2.4-2.4v-2.5c0-1.6,0.9-2.4,2.4-2.4h0.9
		c1.5,0,2.4,0.8,2.4,2.4V62.7z M347.7,60.2c0-0.9-0.4-1.3-1.3-1.3h-0.9c-0.8,0-1.3,0.4-1.3,1.3v2.5c0,0.9,0.4,1.3,1.3,1.3h0.9
		c0.8,0,1.3-0.4,1.3-1.3V60.2z"/>
	<path class="st0" d="M354.9,57.9h1.1v7.2h-1l-3-4.6l-0.4-0.9l0.1,0.9v4.6h-1.1v-7.2h1.1l2.9,4.5l0.4,0.8l0-0.8V57.9z"/>
	<path class="st0" d="M360.1,58.5h-0.9v2.3h-0.7v-2.3h-0.9v-0.6h2.5V58.5z M363.6,60.8h-0.7v-1.9l-0.6,0.6h-0.3l-0.5-0.6v1.9h-0.7
		v-2.9h0.6l0.8,0.9l0.9-0.9h0.6V60.8z"/>
</g>
</svg>
