<?xml version="1.0" encoding="utf-8"?>
<!-- Generator: Adobe Illustrator 19.2.1, SVG Export Plug-In . SVG Version: 6.00 Build 0)  -->
<svg version="1.1" id="Layer_1" xmlns="http://www.w3.org/2000/svg" xmlns:xlink="http://www.w3.org/1999/xlink" x="0px" y="0px"
	 viewBox="0 0 1899.7 673" style="enable-background:new 0 0 1899.7 673;" xml:space="preserve">
<style type="text/css">
	.st0{fill:none;stroke:#547181;stroke-width:0.8405;stroke-miterlimit:10;}
	.st1{fill:none;stroke:#547181;stroke-width:0.5879;stroke-miterlimit:10;}
	.st2{fill:none;stroke:#D2D3D4;stroke-width:0.5224;stroke-miterlimit:10;}
	.st3{fill:#3E5862;}
	.st4{fill:#F2F2F2;}
	.st5{fill:#E6EEF8;}
	.st6{fill:none;stroke:#6E6F72;stroke-width:0.5224;stroke-miterlimit:10;}
	.st7{fill:none;stroke:#FFFFFF;stroke-width:1.5677;stroke-miterlimit:10;}
	.st8{fill:#FFFFFF;}
	.st9{fill:#FFFFFF;stroke:#6E6F72;stroke-width:0.196;stroke-miterlimit:10;}
	.st10{fill:none;stroke:#FFFFFF;stroke-width:2.3515;stroke-miterlimit:10;}
	.st11{fill:#FFFFFF;stroke:#3E5862;stroke-width:0.8021;stroke-miterlimit:10;}
	.st12{fill:none;stroke:#547181;stroke-width:0.7;stroke-miterlimit:10;}
	.st13{fill:none;stroke:#D2D3D4;stroke-width:0.5;stroke-miterlimit:10;}
</style>
<line class="st0" x1="1618" y1="377.4" x2="1255.2" y2="377.3"/>
<g>
	<g>
		<line class="st1" x1="158.6" y1="147.1" x2="216.2" y2="147.1"/>
		<line class="st1" x1="158.6" y1="527.7" x2="216.2" y2="527.7"/>
		<line class="st1" x1="598.7" y1="527.7" x2="656.3" y2="527.7"/>
		<line class="st1" x1="598.7" y1="146.5" x2="656.3" y2="146.5"/>
		<line class="st1" x1="187.5" y1="147" x2="187.5" y2="172.9"/>
		<line class="st1" x1="376.5" y1="173.9" x2="434.1" y2="173.9"/>
		<line class="st1" x1="405.4" y1="148.3" x2="405.4" y2="174.1"/>
		<line class="st1" x1="627.6" y1="502.1" x2="627.6" y2="528"/>
		<line class="st1" x1="627.2" y1="147" x2="627.2" y2="172.9"/>
		<line class="st1" x1="376.9" y1="500.5" x2="434.5" y2="500.5"/>
		<line class="st1" x1="405.4" y1="501" x2="405.4" y2="526.9"/>
		<line class="st1" x1="187.5" y1="502.1" x2="187.5" y2="528"/>
	</g>
	<path class="st2" d="M201.3,495.2"/>
	<polygon class="st3" points="187.3,514 136.6,484.7 136.6,426.2 187.3,396.9 238,426.2 238,484.7 	"/>
	<g>
		<path class="st4" d="M203.7,478.9L203.7,478.9h-34.6l0,0c-2.8,0-5.1-2.3-5.1-5.1v-40.7c0-0.6,0.5-1,1-1l0,0h34.6l0,0
			c0.4,0,0.8,0.3,0.9,0.6c0.1,0.1,0.1,0.3,0.1,0.4l0,0v14.3h7.1c0.6,0,1,0.5,1,1v25.5C208.8,476.6,206.5,478.9,203.7,478.9z
			 M198.6,473.8v-39.7H166v39.7l0,0l0,0c0,1.7,1.4,3.1,3.1,3.1h30.6C199,476,198.6,475,198.6,473.8z M206.8,449.4h-6.1v24.4
			c0,1.7,1.4,3.1,3.1,3.1s3.1-1.4,3.1-3.1v-24.4H206.8z M169.1,471.1c0-0.6,0.5-1,1-1h9.2c0.6,0,1,0.5,1,1c0,0.6-0.5,1-1,1h-9.2
			C169.5,472.1,169.1,471.7,169.1,471.1z M185.4,456.5h9.2c0.6,0,1,0.5,1,1c0,0.6-0.5,1-1,1h-9.2c-0.6,0-1-0.5-1-1
			S184.8,456.5,185.4,456.5z M185.4,465h9.2c0.6,0,1,0.5,1,1c0,0.6-0.5,1-1,1h-9.2c-0.6,0-1-0.5-1-1
			C184.4,465.4,184.8,465,185.4,465z M185.4,470.1h9.2c0.6,0,1,0.5,1,1c0,0.6-0.5,1-1,1h-9.2c-0.6,0-1-0.5-1-1
			C184.4,470.5,184.8,470.1,185.4,470.1z M184.4,449h-14.3c-0.6,0-1-0.5-1-1c0-0.6,0.5-1,1-1h14.3c0.6,0,1,0.5,1,1
			C185.4,448.6,184.9,449,184.4,449z M170.1,465h9.2c0.6,0,1,0.5,1,1c0,0.6-0.5,1-1,1h-9.2c-0.6,0-1-0.5-1-1
			C169.1,465.4,169.5,465,170.1,465z M180.3,457.5c0,0.6-0.5,1-1,1h-9.2c-0.6,0-1-0.5-1-1c0-0.6,0.5-1,1-1h9.2
			C179.8,456.5,180.3,457,180.3,457.5z"/>
	</g>
	<g>
		<path class="st5" d="M99.8,549.3l-1-2.3h-5.6l-1,2.3h-0.8l4.2-9.3h0.8l4.2,9.3H99.8z M98.5,546.3l-2.5-5.7l-2.5,5.7H98.5z"/>
		<path class="st5" d="M112.3,543.9c-0.7-0.6-1.3-0.7-2.1-0.7c-1,0-2,0.4-2,1.2c0,0.9,1.2,1.1,2,1.2c1.2,0.2,2.8,0.4,2.7,1.9
			c0,1.5-1.5,1.8-2.7,1.8s-2.3-0.4-2.9-1.3l0.5-0.4c0.5,0.8,1.5,1.1,2.4,1.1c0.8,0,2-0.2,2.1-1.3c0-0.9-1.1-1.1-2.1-1.3
			c-1.3-0.2-2.5-0.5-2.6-1.8c0-1.3,1.3-1.9,2.6-1.8c1,0,1.8,0.3,2.5,0.9L112.3,543.9z"/>
		<path class="st5" d="M116.4,540v4c0.5-0.9,1.5-1.3,2.4-1.3c1.8,0,2.8,1.2,2.8,2.9v3.8H121v-3.8c0-1.4-0.6-2.3-2.1-2.3
			c-1.4,0-2.3,1.1-2.3,2.4v3.6h-0.7V540H116.4z"/>
		<path class="st5" d="M124.2,546c0-2,1.5-3.4,3.3-3.4s3.5,1.1,3.3,3.7h-5.9c0.1,1.5,1.3,2.4,2.7,2.4c0.9,0,1.9-0.3,2.4-1l0.5,0.4
			c-0.6,0.8-1.8,1.3-2.8,1.3C125.7,549.4,124.2,548.1,124.2,546z M130.2,545.7c0-1.6-1.1-2.5-2.7-2.5c-1.4,0-2.5,0.9-2.7,2.5H130.2z
			"/>
		<path class="st5" d="M133.5,546c0-2,1.5-3.4,3.3-3.4s3.5,1.1,3.3,3.7h-5.9c0.1,1.5,1.3,2.4,2.7,2.4c0.9,0,1.9-0.3,2.4-1l0.5,0.4
			c-0.6,0.8-1.8,1.3-2.8,1.3C135,549.4,133.5,548.1,133.5,546z M139.5,545.7c0-1.6-1.1-2.5-2.7-2.5c-1.4,0-2.5,0.9-2.7,2.5H139.5z"
			/>
		<path class="st5" d="M144.3,540.7v2h2.2v0.5h-2.2v4c0,0.9,0.2,1.5,1.2,1.5c0.3,0,0.7-0.1,1-0.3l0.2,0.5c-0.4,0.2-0.8,0.3-1.2,0.3
			c-1.4,0-1.9-0.8-1.9-2.1v-4h-1.4v-0.5h1.4v-1.9H144.3z"/>
		<path class="st5" d="M154.1,546c0-2.1,1.5-3.4,3.3-3.4c1.9,0,3.3,1.3,3.3,3.4c0,2.1-1.5,3.4-3.3,3.4S154.1,548.1,154.1,546z
			 M160.1,546c0-1.7-1.2-2.8-2.7-2.8s-2.7,1.1-2.7,2.8s1.2,2.7,2.7,2.7C158.9,548.8,160.1,547.7,160.1,546z"/>
		<path class="st5" d="M164.3,549.3v-6H163v-0.6h1.3v-0.6c0-1.3,0.5-2.3,2-2.3c0.5,0,0.9,0.2,1.3,0.5l-0.3,0.5
			c-0.4-0.2-0.6-0.3-1-0.3c-0.8,0-1.3,0.5-1.3,1.7v0.6h2.2v0.6H165v6h-0.7V549.3z"/>
		<path class="st5" d="M175,552v-9.3h0.6v1.6c0.5-1,1.6-1.7,2.9-1.7c1.8,0.1,3.2,1.3,3.2,3.4c0,2.2-1.5,3.4-3.3,3.4
			c-1.1,0-2.2-0.5-2.7-1.6v4.3H175V552z M181,546c0-1.9-1.2-2.8-2.7-2.8s-2.7,1.2-2.7,2.8s1.2,2.8,2.7,2.8S181,547.9,181,546z"/>
		<path class="st5" d="M190.9,542.7c0,2.2,0,4.4,0,6.6h-0.7v-1.4c-0.6,1-1.6,1.5-2.7,1.5c-1.8,0-3.3-1.4-3.3-3.4s1.5-3.4,3.3-3.4
			c1.1,0,2.1,0.5,2.7,1.5v-1.4L190.9,542.7L190.9,542.7z M184.9,546c0,1.7,1.2,2.8,2.7,2.8c3.7,0,3.7-5.5,0-5.5
			C186.1,543.3,184.9,544.4,184.9,546z"/>
		<path class="st5" d="M194,552v-9.3h0.6v1.6c0.5-1,1.6-1.7,2.9-1.7c1.8,0.1,3.2,1.3,3.2,3.4c0,2.2-1.5,3.4-3.3,3.4
			c-1.1,0-2.2-0.5-2.7-1.6v4.3H194V552z M200.1,546c0-1.9-1.2-2.8-2.7-2.8s-2.7,1.2-2.7,2.8s1.2,2.8,2.7,2.8S200.1,547.9,200.1,546z
			"/>
		<path class="st5" d="M203.3,546c0-2,1.5-3.4,3.3-3.4s3.5,1.1,3.3,3.7H204c0.1,1.5,1.3,2.4,2.7,2.4c0.9,0,1.9-0.3,2.4-1l0.5,0.4
			c-0.6,0.8-1.8,1.3-2.8,1.3C204.8,549.4,203.3,548.1,203.3,546z M209.3,545.7c0-1.6-1.1-2.5-2.7-2.5c-1.4,0-2.5,0.9-2.7,2.5H209.3z
			"/>
		<path class="st5" d="M213.5,542.7v1.2c0.4-0.9,1.3-1.2,2.2-1.2c0.5,0,1,0.1,1.4,0.4l-0.3,0.5c-0.3-0.2-0.7-0.3-1.1-0.3
			c-1.2,0-2.2,1-2.2,2.2v3.8h-0.7v-6.6L213.5,542.7L213.5,542.7z"/>
		<path class="st5" d="M225.3,540.6c0,0.7-1.1,0.7-1.1,0C224.3,539.9,225.3,539.9,225.3,540.6z M224.4,542.7v6.6h0.7v-6.6H224.4z"/>
		<path class="st5" d="M232.8,543.9c-0.7-0.6-1.3-0.7-2.1-0.7c-1,0-2,0.4-2,1.2c0,0.9,1.2,1.1,2,1.2c1.2,0.2,2.8,0.4,2.7,1.9
			c0,1.5-1.5,1.8-2.7,1.8s-2.3-0.4-2.9-1.3l0.5-0.4c0.5,0.8,1.5,1.1,2.4,1.1c0.8,0,2-0.2,2.1-1.3c0-0.9-1.1-1.1-2.1-1.3
			c-1.3-0.2-2.5-0.5-2.6-1.8c0-1.3,1.3-1.9,2.6-1.8c1,0,1.8,0.3,2.5,0.9L232.8,543.9z"/>
		<path class="st5" d="M247.6,542.7c0,2.2,0,4.4,0,6.6H247v-1.4c-0.6,1-1.6,1.5-2.7,1.5c-1.8,0-3.3-1.4-3.3-3.4s1.5-3.4,3.3-3.4
			c1.1,0,2.1,0.5,2.7,1.5v-1.4L247.6,542.7L247.6,542.7z M241.6,546c0,1.7,1.2,2.8,2.7,2.8c3.7,0,3.7-5.5,0-5.5
			C242.8,543.3,241.6,544.4,241.6,546z"/>
		<path class="st5" d="M251.2,540v4.2c0.5-1.1,1.6-1.5,2.7-1.5c1.8,0,3.3,1.2,3.3,3.4s-1.5,3.4-3.3,3.4c-1.1,0-2.2-0.6-2.7-1.6v1.5
			h-0.6V540H251.2z M251.2,546c0,1.6,1.1,2.8,2.7,2.8c1.5,0,2.7-0.9,2.7-2.8c0-1.9-1.2-2.8-2.7-2.8S251.2,544.4,251.2,546z"/>
		<path class="st5" d="M259.9,546c0-2.1,1.5-3.4,3.3-3.4c1.8,0,3.3,1.3,3.3,3.4c0,2.1-1.5,3.4-3.3,3.4
			C261.4,549.4,259.9,548.1,259.9,546z M265.9,546c0-1.7-1.2-2.8-2.7-2.8s-2.7,1.1-2.7,2.8s1.2,2.7,2.7,2.7
			C264.7,548.8,265.9,547.7,265.9,546z"/>
		<path class="st5" d="M274.7,549.3v-1.2c-0.5,0.9-1.4,1.3-2.3,1.3c-1.8,0-3-1.1-3-2.9v-3.8h0.7v3.8c0,1.5,0.9,2.3,2.3,2.3
			c1.4,0,2.3-1,2.3-2.4v-3.7h0.7v6.6L274.7,549.3L274.7,549.3z"/>
		<path class="st5" d="M279.9,540.7v2h2.2v0.5h-2.2v4c0,0.9,0.2,1.5,1.2,1.5c0.3,0,0.7-0.1,1-0.3l0.2,0.5c-0.4,0.2-0.8,0.3-1.2,0.3
			c-1.4,0-1.9-0.8-1.9-2.1v-4h-1.4v-0.5h1.4v-1.9H279.9z"/>
		<path class="st5" d="M91.6,562.8h1.6v-8.1h-1.6v-0.6h2.3v8.7h1.6v0.6h-3.9V562.8z"/>
		<path class="st5" d="M97.7,557.6c0-4.9,7.1-4.9,7.1,0v2.2c0,4.9-7.1,4.9-7.1,0V557.6z M98.4,559.9c0,4,5.7,4,5.7,0v-2.2
			c0-4-5.7-4-5.7,0V559.9z"/>
		<path class="st5" d="M107.5,557.6c0-4.9,7.1-4.9,7.1,0v2.2c0,4.9-7.1,4.9-7.1,0V557.6z M108.2,559.9c0,4,5.7,4,5.7,0v-2.2
			c0-4-5.7-4-5.7,0V559.9z"/>
		<path class="st5" d="M118.5,563c0,0.1,0,0.1,0,0.2l-0.5,1.4h-0.6l0.4-1.1c-0.2-0.1-0.3-0.2-0.3-0.5
			C117.4,562.3,118.5,562.3,118.5,563z"/>
		<path class="st5" d="M121.3,557.6c0-4.9,7.1-4.9,7.1,0v2.2c0,4.9-7.1,4.9-7.1,0V557.6z M122,559.9c0,4,5.7,4,5.7,0v-2.2
			c0-4-5.7-4-5.7,0V559.9z"/>
		<path class="st5" d="M131.1,557.6c0-4.9,7.1-4.9,7.1,0v2.2c0,4.9-7.1,4.9-7.1,0V557.6z M131.8,559.9c0,4,5.7,4,5.7,0v-2.2
			c0-4-5.7-4-5.7,0V559.9z"/>
		<path class="st5" d="M140.9,557.6c0-4.9,7.1-4.9,7.1,0v2.2c0,4.9-7.1,4.9-7.1,0V557.6z M141.6,559.9c0,4,5.7,4,5.7,0v-2.2
			c0-4-5.7-4-5.7,0V559.9z"/>
		<path class="st5" d="M156.6,556.8v1.2c0.5-0.9,1.4-1.3,2.3-1.3c1.8,0,3,1.1,3,2.9v3.8h-0.7v-3.8c0-1.5-0.9-2.3-2.3-2.3
			s-2.3,1-2.3,2.4v3.7h-0.7v-6.6L156.6,556.8L156.6,556.8z"/>
		<path class="st5" d="M171.3,556.8c0,2.2,0,4.4,0,6.6h-0.7V562c-0.6,1-1.6,1.5-2.7,1.5c-1.8,0-3.3-1.4-3.3-3.4s1.5-3.4,3.3-3.4
			c1.1,0,2.1,0.5,2.7,1.5v-1.4L171.3,556.8L171.3,556.8z M165.2,560.1c0,1.7,1.2,2.8,2.7,2.8c3.7,0,3.7-5.5,0-5.5
			C166.4,557.4,165.2,558.5,165.2,560.1z"/>
		<path class="st5" d="M175,556.8v1.2c0.5-0.9,1.4-1.3,2.3-1.3c1.8,0,3,1.1,3,2.9v3.8h-0.7v-3.8c0-1.5-0.9-2.3-2.3-2.3
			s-2.3,1-2.3,2.4v3.7h-0.7v-6.6L175,556.8L175,556.8z"/>
		<path class="st5" d="M183,560.1c0-2.1,1.5-3.4,3.3-3.4s3.3,1.3,3.3,3.4c0,2.1-1.5,3.4-3.3,3.4S183,562.2,183,560.1z M189.1,560.1
			c0-1.7-1.2-2.8-2.7-2.8s-2.7,1.1-2.7,2.8s1.2,2.7,2.7,2.7C187.9,562.9,189.1,561.8,189.1,560.1z"/>
		<path class="st5" d="M202.3,563.4v-3.9c0-1.3-0.9-2.2-2.1-2.2c-1.3,0-2.1,0.9-2.1,2.2v3.9h-0.7v-3.9c0-1.3-0.9-2.2-2.1-2.2
			c-1.3,0-2.1,0.9-2.1,2.2v3.9h-0.7v-6.6h0.6v1.1c0.5-0.9,1.3-1.2,2.1-1.2c1,0,2.1,0.5,2.4,1.6c0.4-1.1,1.4-1.6,2.4-1.6
			c1.6,0,2.8,1.1,2.8,2.8v3.9H202.3z"/>
		<path class="st5" d="M205.8,560.1c0-2,1.5-3.4,3.3-3.4s3.5,1.1,3.3,3.7h-5.9c0.1,1.5,1.3,2.4,2.7,2.4c0.9,0,1.9-0.3,2.4-1l0.5,0.4
			c-0.6,0.8-1.8,1.3-2.8,1.3C207.3,563.5,205.8,562.2,205.8,560.1z M211.8,559.9c0-1.6-1.1-2.5-2.7-2.5c-1.4,0-2.5,0.9-2.7,2.5
			H211.8z"/>
		<path class="st5" d="M216.6,554.8v2h2.2v0.5h-2.2v4c0,0.9,0.2,1.5,1.2,1.5c0.3,0,0.7-0.1,1-0.3l0.2,0.5c-0.4,0.2-0.8,0.3-1.2,0.3
			c-1.4,0-1.9-0.8-1.9-2.1v-4h-1.4v-0.5h1.4v-1.9H216.6z"/>
		<path class="st5" d="M221.3,560.1c0-2,1.5-3.4,3.3-3.4s3.5,1.1,3.3,3.7H222c0.1,1.5,1.3,2.4,2.7,2.4c0.9,0,1.9-0.3,2.4-1l0.5,0.4
			c-0.6,0.8-1.8,1.3-2.8,1.3C222.8,563.5,221.3,562.2,221.3,560.1z M227.3,559.9c0-1.6-1.1-2.5-2.7-2.5c-1.4,0-2.5,0.9-2.7,2.5
			H227.3z"/>
		<path class="st5" d="M231.6,556.8v1.2c0.4-0.9,1.3-1.2,2.2-1.2c0.5,0,1,0.1,1.4,0.4l-0.3,0.5c-0.3-0.2-0.7-0.3-1.1-0.3
			c-1.2,0-2.2,1-2.2,2.2v3.8H231v-6.6L231.6,556.8L231.6,556.8z"/>
		<path class="st5" d="M242,558c-0.7-0.6-1.3-0.7-2.1-0.7c-1,0-2,0.4-2,1.2c0,0.9,1.2,1.1,2,1.2c1.2,0.2,2.8,0.4,2.7,1.9
			c0,1.5-1.5,1.8-2.7,1.8s-2.3-0.4-2.9-1.3l0.5-0.4c0.5,0.8,1.5,1.1,2.4,1.1c0.8,0,2-0.2,2.1-1.3c0-0.9-1.1-1.1-2.1-1.3
			c-1.3-0.2-2.5-0.5-2.6-1.8c0-1.3,1.3-1.9,2.6-1.8c1,0,1.8,0.3,2.5,0.9L242,558z"/>
		<path class="st5" d="M252,554.8v2h2.2v0.5H252v4c0,0.9,0.2,1.5,1.2,1.5c0.3,0,0.7-0.1,1-0.3l0.2,0.5c-0.4,0.2-0.8,0.3-1.2,0.3
			c-1.4,0-1.9-0.8-1.9-2.1v-4H250v-0.5h1.4v-1.9H252z"/>
		<path class="st5" d="M257.7,554.1v4c0.5-0.9,1.5-1.3,2.4-1.3c1.8,0,2.8,1.2,2.8,2.9v3.8h-0.6v-3.8c0-1.4-0.6-2.3-2.1-2.3
			c-1.4,0-2.3,1.1-2.3,2.4v3.6h-0.7v-9.3L257.7,554.1L257.7,554.1z"/>
		<path class="st5" d="M266.7,554.7c0,0.7-1.1,0.7-1.1,0C265.7,554,266.7,554,266.7,554.7z M265.9,556.8v6.6h0.7v-6.6H265.9z"/>
		<path class="st5" d="M275.1,562.5c-0.7,0.7-1.5,1-2.4,1c-1.9,0-3.4-1.3-3.4-3.4s1.5-3.4,3.4-3.4c0.9,0,1.7,0.3,2.4,1l-0.4,0.4
			c-0.5-0.5-1.3-0.8-2-0.8c-1.5,0-2.7,1-2.7,2.7s1.3,2.7,2.7,2.7c0.7,0,1.4-0.3,2-0.8L275.1,562.5z"/>
		<path class="st5" d="M278.4,554.1v5.6l3.1-2.9h0.9l0,0l-3.3,3.1l3.7,3.4l0,0H282l-3.5-3.2v3.2h-0.6V554L278.4,554.1L278.4,554.1z"
			/>
	</g>
	<g>
		<path class="st5" d="M99.9,120.2l-1-2.3h-5.6l-1,2.3h-0.8l4.2-9.3h0.8l4.2,9.3H99.9z M98.6,117.2l-2.5-5.7l-2.5,5.7H98.6z"/>
		<path class="st5" d="M112.4,114.8c-0.7-0.6-1.3-0.7-2.1-0.7c-1,0-2,0.4-2,1.2c0,0.9,1.2,1.1,2,1.2c1.2,0.2,2.8,0.4,2.7,1.9
			c0,1.5-1.5,1.8-2.7,1.8s-2.3-0.4-2.9-1.3l0.5-0.4c0.5,0.8,1.5,1.1,2.4,1.1c0.8,0,2-0.2,2.1-1.3c0-0.9-1.1-1.1-2.1-1.3
			c-1.3-0.2-2.5-0.5-2.6-1.8c0-1.3,1.3-1.9,2.6-1.8c1,0,1.8,0.3,2.5,0.9L112.4,114.8z"/>
		<path class="st5" d="M117.4,111.6v2h2.2v0.5h-2.2v4c0,0.9,0.2,1.5,1.2,1.5c0.3,0,0.7-0.1,1-0.3l0.2,0.5c-0.4,0.2-0.8,0.3-1.2,0.3
			c-1.4,0-1.9-0.8-1.9-2.1v-4h-1.4v-0.5h1.4v-1.9H117.4z"/>
		<path class="st5" d="M123.1,113.6v1.2c0.4-0.9,1.3-1.2,2.2-1.2c0.5,0,1,0.1,1.4,0.4l-0.3,0.5c-0.3-0.2-0.7-0.3-1.1-0.3
			c-1.2,0-2.2,1-2.2,2.2v3.8h-0.7v-6.6H123.1L123.1,113.6z"/>
		<path class="st5" d="M135.4,113.6c0,2.2,0,4.4,0,6.6h-0.7v-1.4c-0.6,1-1.6,1.5-2.7,1.5c-1.8,0-3.3-1.4-3.3-3.4s1.5-3.4,3.3-3.4
			c1.1,0,2.1,0.5,2.7,1.5v-1.4L135.4,113.6L135.4,113.6z M129.3,116.9c0,1.7,1.2,2.8,2.7,2.8c3.7,0,3.7-5.5,0-5.5
			C130.5,114.1,129.3,115.2,129.3,116.9z"/>
		<path class="st5" d="M139.1,113.6v1.2c0.5-0.9,1.4-1.3,2.3-1.3c1.8,0,3,1.1,3,2.9v3.8h-0.7v-3.8c0-1.5-0.9-2.3-2.3-2.3
			c-1.4,0-2.3,1-2.3,2.4v3.7h-0.7v-6.6L139.1,113.6L139.1,113.6z"/>
		<path class="st5" d="M153.8,110.8v9.3h-0.6v-1.5c-0.5,1-1.6,1.6-2.7,1.6c-1.8,0-3.3-1.2-3.3-3.4s1.5-3.4,3.3-3.4
			c1.1,0,2.2,0.5,2.7,1.5v-4.2L153.8,110.8L153.8,110.8z M147.8,116.9c0,1.8,1.2,2.8,2.7,2.8s2.7-1.1,2.7-2.8c0-1.6-1.2-2.8-2.7-2.8
			S147.8,115,147.8,116.9z"/>
		<path class="st5" d="M161.7,116.9c0-2.1,1.5-3.4,3.3-3.4c1.9,0,3.3,1.3,3.3,3.4s-1.5,3.4-3.3,3.4
			C163.2,120.2,161.7,119,161.7,116.9z M167.7,116.9c0-1.7-1.2-2.8-2.7-2.8s-2.7,1.1-2.7,2.8s1.2,2.7,2.7,2.7
			S167.7,118.6,167.7,116.9z"/>
		<path class="st5" d="M171.9,120.2v-6h-1.3v-0.6h1.3V113c0-1.3,0.5-2.3,2-2.3c0.5,0,0.9,0.2,1.3,0.5l-0.3,0.5
			c-0.4-0.2-0.6-0.3-1-0.3c-0.8,0-1.3,0.5-1.3,1.7v0.6h2.2v0.6h-2.2v6L171.9,120.2L171.9,120.2z"/>
		<path class="st5" d="M183.2,110.8v4c0.5-0.9,1.5-1.3,2.4-1.3c1.8,0,2.8,1.2,2.8,2.9v3.8h-0.6v-3.8c0-1.4-0.6-2.3-2.1-2.3
			c-1.4,0-2.3,1.1-2.3,2.4v3.6h-0.7v-9.3L183.2,110.8L183.2,110.8z"/>
		<path class="st5" d="M196.5,120.2V119c-0.5,0.9-1.4,1.3-2.3,1.3c-1.8,0-3-1.1-3-2.9v-3.8h0.7v3.8c0,1.5,0.9,2.3,2.3,2.3
			s2.3-1,2.3-2.4v-3.7h0.7v6.6L196.5,120.2L196.5,120.2z"/>
		<path class="st5" d="M210,120.2v-3.9c0-1.3-0.9-2.2-2.1-2.2c-1.3,0-2.1,0.9-2.1,2.2v3.9h-0.7v-3.9c0-1.3-0.9-2.2-2.1-2.2
			c-1.3,0-2.1,0.9-2.1,2.2v3.9h-0.7v-6.6h0.6v1.1c0.5-0.9,1.3-1.2,2.1-1.2c1,0,2.1,0.5,2.4,1.6c0.4-1.1,1.4-1.6,2.4-1.6
			c1.6,0,2.8,1.1,2.8,2.8v3.9C210.5,120.2,210,120.2,210,120.2z"/>
		<path class="st5" d="M220.1,113.6c0,2.2,0,4.4,0,6.6h-0.7v-1.4c-0.6,1-1.6,1.5-2.7,1.5c-1.8,0-3.3-1.4-3.3-3.4s1.5-3.4,3.3-3.4
			c1.1,0,2.1,0.5,2.7,1.5v-1.4L220.1,113.6L220.1,113.6z M214.1,116.9c0,1.7,1.2,2.8,2.7,2.8c3.7,0,3.7-5.5,0-5.5
			C215.3,114.1,214.1,115.2,214.1,116.9z"/>
		<path class="st5" d="M223.9,113.6v1.2c0.5-0.9,1.4-1.3,2.3-1.3c1.8,0,3,1.1,3,2.9v3.8h-0.7v-3.8c0-1.5-0.9-2.3-2.3-2.3
			s-2.3,1-2.3,2.4v3.7h-0.7v-6.6L223.9,113.6L223.9,113.6z"/>
		<path class="st5" d="M245.2,115.4c0.1,2.4-1.5,4.8-4.7,4.8c-1.1,0-2.1,0-3.2,0v-9.3c1.1,0,2.1,0,3.2,0
			C243.6,110.8,245.1,113.1,245.2,115.4z M238,111.5v8h2.4c2.8,0,4-2.1,4-4.1c0-1.9-1.3-3.9-4-3.9H238z"/>
		<path class="st5" d="M248.5,110.8l6.3,7.7v-7.7h0.7v9.3h-0.3l-6.3-7.7v7.7h-0.7v-9.3H248.5z"/>
		<path class="st5" d="M266.3,120.2l-1-2.3h-5.6l-1,2.3h-0.8l4.2-9.3h0.8l4.2,9.3H266.3z M265,117.2l-2.5-5.7l-2.5,5.7H265z"/>
		<path class="st5" d="M275.2,111.4c0,0.7-1.1,0.7-1.1,0S275.2,110.7,275.2,111.4z M274.3,113.5v6.6h0.7v-6.6H274.3z"/>
		<path class="st5" d="M282.7,114.8c-0.7-0.6-1.3-0.7-2.1-0.7c-1,0-2,0.4-2,1.2c0,0.9,1.2,1.1,2,1.2c1.2,0.2,2.8,0.4,2.7,1.9
			c0,1.5-1.5,1.8-2.7,1.8c-1.2,0-2.3-0.4-2.9-1.3l0.5-0.4c0.5,0.8,1.5,1.1,2.4,1.1c0.8,0,2-0.2,2.1-1.3c0-0.9-1.1-1.1-2.1-1.3
			c-1.3-0.2-2.5-0.5-2.6-1.8c0-1.3,1.3-1.9,2.6-1.8c1,0,1.8,0.3,2.5,0.9L282.7,114.8z"/>
		<path class="st5" d="M84.6,127.4c0-2,1.9-2.6,3.6-2.6s3.6,0.7,3.6,2.7c0,1.9-1.9,2.7-3.6,2.7c-1.4,0-2.9,0.3-2.9,1.9v1.4h6.4v0.7
			h-7.1v-2.1c0-2.1,1.9-2.6,3.6-2.6c1.2,0,2.9-0.5,2.9-2c0-1.6-1.7-2.1-2.9-2.1c-1.2,0-2.9,0.4-2.9,2L84.6,127.4L84.6,127.4z"/>
		<path class="st5" d="M95.7,133.9c0,0.7-1.1,0.7-1.1,0C94.6,133.2,95.7,133.2,95.7,133.9z"/>
		<path class="st5" d="M98.8,129.2v-4.3h6.5v0.6h-5.8v3h3c2.5,0,3.3,1.4,3.3,2.9s-1.1,2.9-3.6,2.9c-1.7,0-3.6-0.6-3.6-2.6h0.7
			c0,1.6,1.6,1.9,2.9,1.9c2,0,2.9-0.9,2.9-2.2c0-1.1-0.6-2.2-2.6-2.2L98.8,129.2L98.8,129.2z"/>
		<path class="st5" d="M114.2,127.7v1.2c0.5-0.9,1.4-1.3,2.3-1.3c1.8,0,3,1.1,3,2.9v3.8h-0.7v-3.8c0-1.5-0.9-2.3-2.3-2.3
			s-2.3,1-2.3,2.4v3.7h-0.7v-6.6L114.2,127.7L114.2,127.7z"/>
		<path class="st5" d="M128.9,127.7c0,2.2,0,4.4,0,6.6h-0.7v-1.4c-0.6,1-1.6,1.5-2.7,1.5c-1.8,0-3.3-1.4-3.3-3.4s1.5-3.4,3.3-3.4
			c1.1,0,2.1,0.5,2.7,1.5v-1.4L128.9,127.7L128.9,127.7z M122.9,131c0,1.7,1.2,2.8,2.7,2.8c3.7,0,3.7-5.5,0-5.5
			C124.1,128.2,122.9,129.3,122.9,131z"/>
		<path class="st5" d="M132.7,127.7v1.2c0.5-0.9,1.4-1.3,2.3-1.3c1.8,0,3,1.1,3,2.9v3.8h-0.7v-3.8c0-1.5-0.9-2.3-2.3-2.3
			c-1.4,0-2.3,1-2.3,2.4v3.7H132v-6.6L132.7,127.7L132.7,127.7z"/>
		<path class="st5" d="M140.7,131c0-2.1,1.5-3.4,3.3-3.4c1.9,0,3.3,1.3,3.3,3.4s-1.5,3.4-3.3,3.4S140.7,133.1,140.7,131z M146.8,131
			c0-1.7-1.2-2.8-2.7-2.8s-2.7,1.1-2.7,2.8s1.2,2.7,2.7,2.7C145.5,133.7,146.8,132.7,146.8,131z"/>
		<path class="st5" d="M160,134.3v-3.9c0-1.3-0.9-2.2-2.1-2.2c-1.3,0-2.1,0.9-2.1,2.2v3.9h-0.7v-3.9c0-1.3-0.9-2.2-2.1-2.2
			c-1.3,0-2.1,0.9-2.1,2.2v3.9h-0.7v-6.6h0.6v1.1c0.5-0.9,1.3-1.2,2.1-1.2c1,0,2.1,0.5,2.4,1.6c0.4-1.1,1.4-1.6,2.4-1.6
			c1.6,0,2.8,1.1,2.8,2.8v3.9H160L160,134.3z"/>
		<path class="st5" d="M163.4,131c0-2,1.5-3.4,3.3-3.4s3.5,1.1,3.3,3.7h-5.9c0.1,1.5,1.3,2.4,2.7,2.4c0.9,0,1.9-0.3,2.4-1l0.5,0.4
			c-0.6,0.8-1.8,1.3-2.8,1.3C164.9,134.4,163.4,133.1,163.4,131z M169.5,130.7c0-1.6-1.1-2.5-2.7-2.5c-1.4,0-2.5,0.9-2.7,2.5H169.5z
			"/>
		<path class="st5" d="M174.3,125.7v2h2.2v0.5h-2.2v4c0,0.9,0.2,1.5,1.2,1.5c0.3,0,0.7-0.1,1-0.3l0.2,0.5c-0.4,0.2-0.8,0.3-1.2,0.3
			c-1.4,0-1.9-0.8-1.9-2.1v-4h-1.4v-0.5h1.4v-1.9L174.3,125.7L174.3,125.7z"/>
		<path class="st5" d="M179,131c0-2,1.5-3.4,3.3-3.4s3.5,1.1,3.3,3.7h-5.9c0.1,1.5,1.3,2.4,2.7,2.4c0.9,0,1.9-0.3,2.4-1l0.5,0.4
			c-0.6,0.8-1.8,1.3-2.8,1.3C180.5,134.4,179,133.1,179,131z M185,130.7c0-1.6-1.1-2.5-2.7-2.5c-1.4,0-2.5,0.9-2.7,2.5H185z"/>
		<path class="st5" d="M189.2,127.7v1.2c0.4-0.9,1.3-1.2,2.2-1.2c0.5,0,1,0.1,1.4,0.4l-0.3,0.5c-0.3-0.2-0.7-0.3-1.1-0.3
			c-1.2,0-2.2,1-2.2,2.2v3.8h-0.7v-6.6C188.5,127.7,189.2,127.7,189.2,127.7z"/>
		<path class="st5" d="M199.7,128.9c-0.7-0.6-1.3-0.7-2.1-0.7c-1,0-2,0.4-2,1.2c0,0.9,1.2,1.1,2,1.2c1.2,0.2,2.8,0.4,2.7,1.9
			c0,1.5-1.5,1.8-2.7,1.8s-2.3-0.4-2.9-1.3l0.5-0.4c0.5,0.8,1.5,1.1,2.4,1.1c0.8,0,2-0.2,2.1-1.3c0-0.9-1.1-1.1-2.1-1.3
			c-1.3-0.2-2.5-0.5-2.6-1.8c0-1.3,1.3-1.9,2.6-1.8c1,0,1.8,0.3,2.5,0.9L199.7,128.9z"/>
		<path class="st5" d="M209,125.5c0,0.7-1.1,0.7-1.1,0C208,124.8,209,124.8,209,125.5z M208.1,127.7v6.6h0.7v-6.6
			C208.8,127.7,208.1,127.7,208.1,127.7z"/>
		<path class="st5" d="M212.6,127.7v1.2c0.5-0.9,1.4-1.3,2.3-1.3c1.8,0,3,1.1,3,2.9v3.8h-0.7v-3.8c0-1.5-0.9-2.3-2.3-2.3
			s-2.3,1-2.3,2.4v3.7H212v-6.6L212.6,127.7L212.6,127.7z"/>
		<path class="st5" d="M232.3,124.9v9.3h-0.6v-1.5c-0.5,1-1.6,1.6-2.7,1.6c-1.8,0-3.3-1.2-3.3-3.4s1.5-3.4,3.3-3.4
			c1.1,0,2.2,0.5,2.7,1.5v-4.2L232.3,124.9L232.3,124.9z M226.3,131c0,1.8,1.2,2.8,2.7,2.8s2.7-1.1,2.7-2.8c0-1.6-1.2-2.8-2.7-2.8
			S226.3,129.1,226.3,131z"/>
		<path class="st5" d="M236.4,125.5c0,0.7-1.1,0.7-1.1,0S236.4,124.8,236.4,125.5z M235.5,127.7v6.6h0.7v-6.6
			C236.2,127.7,235.5,127.7,235.5,127.7z"/>
		<path class="st5" d="M245.7,127.7c0,2.2,0,4.4,0,6.6H245v-1.4c-0.6,1-1.6,1.5-2.7,1.5c-1.8,0-3.3-1.4-3.3-3.4s1.5-3.4,3.3-3.4
			c1.1,0,2.1,0.5,2.7,1.5v-1.4L245.7,127.7L245.7,127.7z M239.7,131c0,1.7,1.2,2.8,2.7,2.8c3.7,0,3.7-5.5,0-5.5
			C240.9,128.2,239.7,129.3,239.7,131z"/>
		<path class="st5" d="M258.6,134.3v-3.9c0-1.3-0.9-2.2-2.1-2.2c-1.3,0-2.1,0.9-2.1,2.2v3.9h-0.7v-3.9c0-1.3-0.9-2.2-2.1-2.2
			c-1.3,0-2.1,0.9-2.1,2.2v3.9h-0.7v-6.6h0.6v1.1c0.5-0.9,1.3-1.2,2.1-1.2c1,0,2.1,0.5,2.4,1.6c0.4-1.1,1.4-1.6,2.4-1.6
			c1.6,0,2.8,1.1,2.8,2.8v3.9H258.6L258.6,134.3z"/>
		<path class="st5" d="M262,131c0-2,1.5-3.4,3.3-3.4c1.8,0,3.5,1.1,3.3,3.7h-5.9c0.1,1.5,1.3,2.4,2.7,2.4c0.9,0,1.9-0.3,2.4-1
			l0.5,0.4c-0.6,0.8-1.8,1.3-2.8,1.3C263.5,134.4,262,133.1,262,131z M268,130.7c0-1.6-1.1-2.5-2.7-2.5c-1.4,0-2.5,0.9-2.7,2.5H268z
			"/>
		<path class="st5" d="M272.9,125.7v2h2.2v0.5h-2.2v4c0,0.9,0.2,1.5,1.2,1.5c0.3,0,0.7-0.1,1-0.3l0.2,0.5c-0.4,0.2-0.8,0.3-1.2,0.3
			c-1.4,0-1.9-0.8-1.9-2.1v-4h-1.4v-0.5h1.4v-1.9L272.9,125.7L272.9,125.7z"/>
		<path class="st5" d="M277.6,131c0-2,1.5-3.4,3.3-3.4c1.8,0,3.5,1.1,3.3,3.7h-5.9c0.1,1.5,1.3,2.4,2.7,2.4c0.9,0,1.9-0.3,2.4-1
			l0.5,0.4c-0.6,0.8-1.8,1.3-2.8,1.3C279.1,134.4,277.6,133.1,277.6,131z M283.6,130.7c0-1.6-1.1-2.5-2.7-2.5
			c-1.4,0-2.5,0.9-2.7,2.5H283.6z"/>
		<path class="st5" d="M287.8,127.7v1.2c0.4-0.9,1.3-1.2,2.2-1.2c0.5,0,1,0.1,1.4,0.4l-0.3,0.5c-0.3-0.2-0.7-0.3-1.1-0.3
			c-1.2,0-2.2,1-2.2,2.2v3.8h-0.7v-6.6C287.1,127.7,287.8,127.7,287.8,127.7z"/>
	</g>
	<line class="st6" x1="200.2" y1="230.7" x2="200.2" y2="246.5"/>
	<g>
		<path class="st5" d="M308.5,472.2V468h-5.9v4.2h-0.7v-9.3h0.7v4.4h5.9v-4.4h0.7v9.3H308.5z"/>
		<path class="st5" d="M317.8,472.2V471c-0.5,0.9-1.4,1.3-2.3,1.3c-1.8,0-3-1.1-3-2.9v-3.8h0.7v3.8c0,1.5,0.9,2.3,2.3,2.3
			s2.3-1,2.3-2.4v-3.7h0.7v6.6L317.8,472.2L317.8,472.2z"/>
		<path class="st5" d="M331.2,472.2v-3.9c0-1.3-0.9-2.2-2.1-2.2c-1.3,0-2.1,0.9-2.1,2.2v3.9h-0.7v-3.9c0-1.3-0.9-2.2-2.1-2.2
			c-1.3,0-2.1,0.9-2.1,2.2v3.9h-0.7v-6.6h0.6v1.1c0.5-0.9,1.3-1.2,2.1-1.2c1,0,2.1,0.5,2.4,1.6c0.4-1.1,1.4-1.6,2.4-1.6
			c1.6,0,2.8,1.1,2.8,2.8v3.9L331.2,472.2L331.2,472.2z"/>
		<path class="st5" d="M341.4,465.6c0,2.2,0,4.4,0,6.6h-0.7v-1.4c-0.6,1-1.6,1.5-2.7,1.5c-1.8,0-3.3-1.4-3.3-3.4s1.5-3.4,3.3-3.4
			c1.1,0,2.1,0.5,2.7,1.5v-1.4L341.4,465.6L341.4,465.6z M335.4,468.9c0,1.7,1.2,2.8,2.7,2.8c3.7,0,3.7-5.5,0-5.5
			C336.6,466.2,335.4,467.3,335.4,468.9z"/>
		<path class="st5" d="M345.1,465.6v1.2c0.5-0.9,1.4-1.3,2.3-1.3c1.8,0,3,1.1,3,2.9v3.8h-0.7v-3.8c0-1.5-0.9-2.3-2.3-2.3
			s-2.3,1-2.3,2.4v3.7h-0.7v-6.6L345.1,465.6L345.1,465.6z"/>
		<path class="st5" d="M359.1,462.9v4c0.5-0.9,1.5-1.3,2.4-1.3c1.8,0,2.8,1.2,2.8,2.9v3.8h-0.6v-3.8c0-1.4-0.6-2.3-2.1-2.3
			c-1.4,0-2.3,1.1-2.3,2.4v3.6h-0.7v-9.3L359.1,462.9L359.1,462.9z"/>
		<path class="st5" d="M373.6,465.6c0,2.2,0,4.4,0,6.6H373v-1.4c-0.6,1-1.6,1.5-2.7,1.5c-1.8,0-3.3-1.4-3.3-3.4s1.5-3.4,3.3-3.4
			c1.1,0,2.1,0.5,2.7,1.5v-1.4L373.6,465.6L373.6,465.6z M367.6,468.9c0,1.7,1.2,2.8,2.7,2.8c3.7,0,3.7-5.5,0-5.5
			C368.8,466.2,367.6,467.3,367.6,468.9z"/>
		<path class="st5" d="M377.6,463.5c0,0.7-1.1,0.7-1.1,0S377.6,462.8,377.6,463.5z M376.7,465.6v6.6h0.7v-6.6H376.7z"/>
		<path class="st5" d="M381.2,465.6v1.2c0.4-0.9,1.3-1.2,2.2-1.2c0.5,0,1,0.1,1.4,0.4l-0.3,0.5c-0.3-0.2-0.7-0.3-1.1-0.3
			c-1.2,0-2.2,1-2.2,2.2v3.8h-0.7v-6.6H381.2L381.2,465.6z"/>
		<path class="st5" d="M393,463.5c0,0.7-1.1,0.7-1.1,0S393,462.8,393,463.5z M392.1,465.6v6.6h0.7v-6.6H392.1z"/>
		<path class="st5" d="M400.5,466.8c-0.7-0.6-1.3-0.7-2.1-0.7c-1,0-2,0.4-2,1.2c0,0.9,1.2,1.1,2,1.2c1.2,0.2,2.8,0.4,2.7,1.9
			c0,1.5-1.5,1.8-2.7,1.8s-2.3-0.4-2.9-1.3l0.5-0.4c0.5,0.8,1.5,1.1,2.4,1.1c0.8,0,2-0.2,2.1-1.3c0-0.9-1.1-1.1-2.1-1.3
			c-1.3-0.2-2.5-0.5-2.6-1.8c0-1.3,1.3-1.9,2.6-1.8c1,0,1.8,0.3,2.5,0.9L400.5,466.8z"/>
		<path class="st5" d="M415.3,465.6c0,2.2,0,4.4,0,6.6h-0.7v-1.4c-0.6,1-1.6,1.5-2.7,1.5c-1.8,0-3.3-1.4-3.3-3.4s1.5-3.4,3.3-3.4
			c1.1,0,2.1,0.5,2.7,1.5v-1.4L415.3,465.6L415.3,465.6z M409.2,468.9c0,1.7,1.2,2.8,2.7,2.8c3.7,0,3.7-5.5,0-5.5
			C410.4,466.2,409.2,467.3,409.2,468.9z"/>
		<path class="st5" d="M418.4,475v-9.3h0.6v1.6c0.5-1,1.6-1.7,2.9-1.7c1.8,0.1,3.2,1.3,3.2,3.4c0,2.2-1.5,3.4-3.3,3.4
			c-1.1,0-2.2-0.5-2.7-1.6v4.3L418.4,475L418.4,475z M424.4,468.9c0-1.9-1.2-2.8-2.7-2.8s-2.7,1.2-2.7,2.8s1.2,2.8,2.7,2.8
			S424.4,470.8,424.4,468.9z"/>
		<path class="st5" d="M428,475v-9.3h0.6v1.6c0.5-1,1.6-1.7,2.9-1.7c1.8,0.1,3.2,1.3,3.2,3.4c0,2.2-1.5,3.4-3.3,3.4
			c-1.1,0-2.2-0.5-2.7-1.6v4.3L428,475L428,475z M434,468.9c0-1.9-1.2-2.8-2.7-2.8s-2.7,1.2-2.7,2.8s1.2,2.8,2.7,2.8
			S434,470.8,434,468.9z"/>
		<path class="st5" d="M438.2,465.6v1.2c0.4-0.9,1.3-1.2,2.2-1.2c0.5,0,1,0.1,1.4,0.4l-0.3,0.5c-0.3-0.2-0.7-0.3-1.1-0.3
			c-1.2,0-2.2,1-2.2,2.2v3.8h-0.7v-6.6H438.2L438.2,465.6z"/>
		<path class="st5" d="M443.9,468.9c0-2.1,1.5-3.4,3.3-3.4s3.3,1.3,3.3,3.4s-1.5,3.4-3.3,3.4S443.9,471,443.9,468.9z M449.9,468.9
			c0-1.7-1.2-2.8-2.7-2.8s-2.7,1.1-2.7,2.8s1.2,2.7,2.7,2.7C448.7,471.7,449.9,470.7,449.9,468.9z"/>
		<path class="st5" d="M455.6,468.3l2-2.7h0.8l0,0l-2.4,3.1l2.5,3.4l0,0h-0.8l-2.2-2.9l-2.2,2.9h-0.8l0,0l2.5-3.4l-2.4-3.1l0,0h0.8
			L455.6,468.3z"/>
		<path class="st5" d="M461.9,463.5c0,0.7-1.1,0.7-1.1,0C460.9,462.8,461.9,462.8,461.9,463.5z M461.1,465.6v6.6h0.7v-6.6H461.1z"/>
		<path class="st5" d="M474.7,472.2v-3.9c0-1.3-0.9-2.2-2.1-2.2c-1.3,0-2.1,0.9-2.1,2.2v3.9h-0.7v-3.9c0-1.3-0.9-2.2-2.1-2.2
			c-1.3,0-2.1,0.9-2.1,2.2v3.9h-0.7v-6.6h0.6v1.1c0.5-0.9,1.3-1.2,2.1-1.2c1,0,2.1,0.5,2.4,1.6c0.4-1.1,1.4-1.6,2.4-1.6
			c1.6,0,2.8,1.1,2.8,2.8v3.9L474.7,472.2L474.7,472.2z"/>
		<path class="st5" d="M484.8,465.6c0,2.2,0,4.4,0,6.6h-0.7v-1.4c-0.6,1-1.6,1.5-2.7,1.5c-1.8,0-3.3-1.4-3.3-3.4s1.5-3.4,3.3-3.4
			c1.1,0,2.1,0.5,2.7,1.5v-1.4L484.8,465.6L484.8,465.6z M478.8,468.9c0,1.7,1.2,2.8,2.7,2.8c3.7,0,3.7-5.5,0-5.5
			C480,466.2,478.8,467.3,478.8,468.9z"/>
		<path class="st5" d="M489.2,463.7v2h2.2v0.5h-2.2v4c0,0.9,0.2,1.5,1.2,1.5c0.3,0,0.7-0.1,1-0.3l0.2,0.5c-0.4,0.2-0.8,0.3-1.2,0.3
			c-1.4,0-1.9-0.8-1.9-2.1v-4h-1.4v-0.5h1.4v-1.9H489.2z"/>
		<path class="st5" d="M493.9,468.9c0-2,1.5-3.4,3.3-3.4s3.5,1.1,3.3,3.7h-5.9c0.1,1.5,1.3,2.4,2.7,2.4c0.9,0,1.9-0.3,2.4-1l0.5,0.4
			c-0.6,0.8-1.8,1.3-2.8,1.3C495.4,472.3,493.9,471,493.9,468.9z M499.9,468.7c0-1.6-1.1-2.5-2.7-2.5c-1.4,0-2.5,0.9-2.7,2.5H499.9z
			"/>
		<path class="st5" d="M504.1,462.9v9.3h-0.7v-9.3H504.1z"/>
		<path class="st5" d="M513.1,465.6l-4,9.3h-0.7l1.2-2.8l-2.6-6.5h0.7l1.5,3.9l0.8,1.9l0.8-1.9l1.7-3.9H513.1z"/>
		<path class="st5" d="M321.5,481.3c-0.7,1.1-1.8,1.3-3,1.3c-1.8,0-3.6-0.8-3.6-2.9s1.9-2.9,3.6-2.9c1.8,0,3.7,0.8,3.7,2.9v4.1
			c0,1.8-1.8,2.6-3.5,2.6c-1.9,0-3.4-0.8-3.6-2.4h0.7c0.1,1.1,1.3,1.7,2.8,1.7c1.4,0,2.9-0.7,2.9-1.9V481.3L321.5,481.3z
			 M315.5,479.8c0,1.7,1.6,2.2,2.9,2.2s3-0.7,3-2.2c0-1.7-1.6-2.2-3-2.2S315.5,478,315.5,479.8z"/>
		<path class="st5" d="M325.1,480.6c0-4.9,7.1-4.9,7.1,0v2.2c0,4.9-7.1,4.9-7.1,0V480.6z M325.8,482.8c0,4,5.7,4,5.7,0v-2.2
			c0-4-5.7-4-5.7,0V482.8z"/>
		<path class="st5" d="M336,485.9c0,0.1,0,0.1,0,0.2l-0.5,1.4h-0.6l0.4-1.1c-0.2-0.1-0.3-0.2-0.3-0.5C335,485.2,336,485.2,336,485.9
			z"/>
		<path class="st5" d="M338.8,480.6c0-4.9,7.1-4.9,7.1,0v2.2c0,4.9-7.1,4.9-7.1,0V480.6z M339.5,482.8c0,4,5.7,4,5.7,0v-2.2
			c0-4-5.7-4-5.7,0V482.8z"/>
		<path class="st5" d="M348.6,480.6c0-4.9,7.1-4.9,7.1,0v2.2c0,4.9-7.1,4.9-7.1,0V480.6z M349.3,482.8c0,4,5.7,4,5.7,0v-2.2
			c0-4-5.7-4-5.7,0V482.8z"/>
		<path class="st5" d="M358.4,480.6c0-4.9,7.1-4.9,7.1,0v2.2c0,4.9-7.1,4.9-7.1,0V480.6z M359.1,482.8c0,4,5.7,4,5.7,0v-2.2
			c0-4-5.7-4-5.7,0V482.8z"/>
		<path class="st5" d="M374.1,479.8v1.2c0.5-0.9,1.4-1.3,2.3-1.3c1.8,0,3,1.1,3,2.9v3.8h-0.7v-3.8c0-1.5-0.9-2.3-2.3-2.3
			s-2.3,1-2.3,2.4v3.7h-0.7v-6.6L374.1,479.8L374.1,479.8z"/>
		<path class="st5" d="M388.8,479.8c0,2.2,0,4.4,0,6.6h-0.7V485c-0.6,1-1.6,1.5-2.7,1.5c-1.8,0-3.3-1.4-3.3-3.4s1.5-3.4,3.3-3.4
			c1.1,0,2.1,0.5,2.7,1.5v-1.4L388.8,479.8L388.8,479.8z M382.8,483c0,1.7,1.2,2.8,2.7,2.8c3.7,0,3.7-5.5,0-5.5
			C384,480.3,382.8,481.4,382.8,483z"/>
		<path class="st5" d="M392.5,479.8v1.2c0.5-0.9,1.4-1.3,2.3-1.3c1.8,0,3,1.1,3,2.9v3.8h-0.7v-3.8c0-1.5-0.9-2.3-2.3-2.3
			s-2.3,1-2.3,2.4v3.7h-0.7v-6.6L392.5,479.8L392.5,479.8z"/>
		<path class="st5" d="M400.6,483.1c0-2.1,1.5-3.4,3.3-3.4c1.9,0,3.3,1.3,3.3,3.4s-1.5,3.4-3.3,3.4
			C402.1,486.4,400.6,485.1,400.6,483.1z M406.6,483.1c0-1.7-1.2-2.8-2.7-2.8s-2.7,1.1-2.7,2.8s1.2,2.7,2.7,2.7
			S406.6,484.8,406.6,483.1z"/>
		<path class="st5" d="M419.9,486.3v-3.9c0-1.3-0.9-2.2-2.1-2.2c-1.3,0-2.1,0.9-2.1,2.2v3.9H415v-3.9c0-1.3-0.9-2.2-2.1-2.2
			c-1.3,0-2.1,0.9-2.1,2.2v3.9h-0.7v-6.6h0.6v1.1c0.5-0.9,1.3-1.2,2.1-1.2c1,0,2.1,0.5,2.4,1.6c0.4-1.1,1.4-1.6,2.4-1.6
			c1.6,0,2.8,1.1,2.8,2.8v3.9L419.9,486.3L419.9,486.3z"/>
		<path class="st5" d="M423.3,483c0-2,1.5-3.4,3.3-3.4s3.5,1.1,3.3,3.7H424c0.1,1.5,1.3,2.4,2.7,2.4c0.9,0,1.9-0.3,2.4-1l0.5,0.4
			c-0.6,0.8-1.8,1.3-2.8,1.3C424.8,486.4,423.3,485.1,423.3,483z M429.3,482.8c0-1.6-1.1-2.5-2.7-2.5c-1.4,0-2.5,0.9-2.7,2.5H429.3z
			"/>
		<path class="st5" d="M434.2,477.8v2h2.2v0.5h-2.2v4c0,0.9,0.2,1.5,1.2,1.5c0.3,0,0.7-0.1,1-0.3l0.2,0.5c-0.4,0.2-0.8,0.3-1.2,0.3
			c-1.4,0-1.9-0.8-1.9-2.1v-4h-1.4v-0.5h1.4v-1.9H434.2z"/>
		<path class="st5" d="M438.9,483c0-2,1.5-3.4,3.3-3.4s3.5,1.1,3.3,3.7h-5.9c0.1,1.5,1.3,2.4,2.7,2.4c0.9,0,1.9-0.3,2.4-1l0.5,0.4
			c-0.6,0.8-1.8,1.3-2.8,1.3C440.4,486.4,438.9,485.1,438.9,483z M444.9,482.8c0-1.6-1.1-2.5-2.7-2.5c-1.4,0-2.5,0.9-2.7,2.5H444.9z
			"/>
		<path class="st5" d="M449.1,479.8v1.2c0.4-0.9,1.3-1.2,2.2-1.2c0.5,0,1,0.1,1.4,0.4l-0.3,0.5c-0.3-0.2-0.7-0.3-1.1-0.3
			c-1.2,0-2.2,1-2.2,2.2v3.8h-0.7v-6.6H449.1L449.1,479.8z"/>
		<path class="st5" d="M459.6,481c-0.7-0.6-1.3-0.7-2.1-0.7c-1,0-2,0.4-2,1.2c0,0.9,1.2,1.1,2,1.2c1.2,0.2,2.8,0.4,2.7,1.9
			c0,1.5-1.5,1.8-2.7,1.8s-2.3-0.4-2.9-1.3l0.5-0.4c0.5,0.8,1.5,1.1,2.4,1.1c0.8,0,2-0.2,2.1-1.3c0-0.9-1.1-1.1-2.1-1.3
			c-1.3-0.2-2.5-0.5-2.6-1.8c0-1.3,1.3-1.9,2.6-1.8c1,0,1.8,0.3,2.5,0.9L459.6,481z"/>
		<path class="st5" d="M474.8,486.3h-0.7l-1.1-2.9l-0.8-2.6l-0.8,2.6l-1.1,2.9h-0.7l-2.3-6.6h0.7l2,5.8l2-5.8h0.5l2,5.8l2-5.8h0.7
			L474.8,486.3z"/>
		<path class="st5" d="M480.4,477.6c0,0.7-1.1,0.7-1.1,0C479.4,476.9,480.4,476.9,480.4,477.6z M479.6,479.7v6.6h0.7v-6.6H479.6z"/>
		<path class="st5" d="M489.7,477v9.3h-0.6v-1.5c-0.5,1-1.6,1.6-2.7,1.6c-1.8,0-3.3-1.2-3.3-3.4s1.5-3.4,3.3-3.4
			c1.1,0,2.2,0.5,2.7,1.5V477H489.7z M483.7,483c0,1.8,1.2,2.8,2.7,2.8s2.7-1.1,2.7-2.8s-1.2-2.8-2.7-2.8
			C484.9,480.3,483.7,481.2,483.7,483z"/>
		<path class="st5" d="M492.7,483c0-2,1.5-3.4,3.3-3.4s3.5,1.1,3.3,3.7h-5.9c0.1,1.5,1.3,2.4,2.7,2.4c0.9,0,1.9-0.3,2.4-1l0.5,0.4
			c-0.6,0.8-1.8,1.3-2.8,1.3C494.2,486.4,492.7,485.1,492.7,483z M498.7,482.8c0-1.6-1.1-2.5-2.7-2.5c-1.4,0-2.5,0.9-2.7,2.5H498.7z
			"/>
	</g>
	<line class="st6" x1="405.3" y1="565.3" x2="405.3" y2="581.1"/>
	<polygon class="st3" points="405.3,628.6 354.6,599.3 354.6,540.8 405.3,511.5 456,540.8 456,599.3 	"/>
	<path class="st7" d="M426.3,546c0,0-32.5,11.2-36.5,39.9c2.5,6.7,6.3,5.2,8,3.6c1.6-1.6-3.7-27.5,30.2-42.7
		C430.8,545.1,428.7,545,426.3,546z"/>
	<polygon class="st3" points="405.3,160.8 354.6,131.6 354.6,73 405.3,43.8 456,73 456,131.6 	"/>
	<g>
		<line class="st7" x1="381.3" y1="112.9" x2="381.3" y2="102"/>
		<line class="st7" x1="384.7" y1="112.9" x2="384.7" y2="102"/>
		<line class="st7" x1="391.3" y1="112.9" x2="391.3" y2="102"/>
		<line class="st7" x1="388" y1="112.9" x2="388" y2="102"/>
		<line class="st7" x1="394.7" y1="112.9" x2="394.7" y2="102"/>
		<line class="st7" x1="398" y1="112.9" x2="398" y2="102"/>
		<line class="st7" x1="401.3" y1="112.9" x2="401.3" y2="102"/>
		<line class="st7" x1="408" y1="112.9" x2="408" y2="102"/>
		<line class="st7" x1="404.8" y1="112.9" x2="404.8" y2="102"/>
		<line class="st7" x1="411.4" y1="112.9" x2="411.4" y2="102"/>
		<line class="st7" x1="414.7" y1="112.9" x2="414.7" y2="102"/>
		<line class="st7" x1="418" y1="112.9" x2="418" y2="102"/>
		<line class="st7" x1="424.8" y1="112.9" x2="424.8" y2="102"/>
		<line class="st7" x1="428.2" y1="112.9" x2="428.2" y2="102"/>
		<line class="st7" x1="421.4" y1="112.9" x2="421.4" y2="94.3"/>
		<rect x="378" y="86.7" class="st7" width="54.3" height="28.8"/>
		<g>
			<path class="st8" d="M416.6,98.3h-1.7v-6.5c-0.6,0.6-1.4,1-2.2,1.3v-1.6c0.4-0.1,0.9-0.4,1.5-0.8c0.5-0.4,0.9-0.9,1.1-1.4h1.4
				L416.6,98.3L416.6,98.3z"/>
		</g>
	</g>
	<g>
		<path class="st5" d="M537,120.2l-1-2.3h-5.6l-1,2.3h-0.8l4.2-9.3h0.8l4.2,9.3H537z M535.7,117.2l-2.5-5.7l-2.5,5.7H535.7z"/>
		<path class="st5" d="M550.4,113.3l0.4,0.4l-0.6,0.7c0.5,0.5,0.8,1.2,0.8,2.2c0,1.1-0.7,2.3-1.8,2.8c1.2,0.4,1.8,1.2,1.8,2.4
			c0,1.8-1.4,2.6-3.1,2.6s-3.1-1-3.1-2.6h0.7c0,1.3,1.1,2,2.5,2s2.5-0.6,2.5-2s-1.3-2-2.5-2c-1.9,0-3.1-1.4-3.1-3.2
			c0-2.1,1.4-3.2,3.1-3.2c0.7,0,1.4,0.2,1.9,0.6L550.4,113.3z M545.4,116.7c0,1.4,0.9,2.5,2.4,2.5c1.4,0,2.5-1.2,2.5-2.5
			c0-1.7-1.1-2.6-2.5-2.6C546.5,114.1,545.4,114.9,545.4,116.7z"/>
		<path class="st5" d="M554.2,113.6v1.2c0.4-0.9,1.3-1.2,2.2-1.2c0.5,0,1,0.1,1.4,0.4l-0.3,0.5c-0.3-0.2-0.7-0.3-1.1-0.3
			c-1.2,0-2.2,1-2.2,2.2v3.8h-0.7v-6.6H554.2L554.2,113.6z"/>
		<path class="st5" d="M566.5,113.6c0,2.2,0,4.4,0,6.6h-0.7v-1.4c-0.6,1-1.6,1.5-2.7,1.5c-1.8,0-3.3-1.4-3.3-3.4s1.5-3.4,3.3-3.4
			c1.1,0,2.1,0.5,2.7,1.5v-1.4L566.5,113.6L566.5,113.6z M560.5,116.9c0,1.7,1.2,2.8,2.7,2.8c3.7,0,3.7-5.5,0-5.5
			C561.7,114.1,560.5,115.2,560.5,116.9z"/>
		<path class="st5" d="M570.5,111.4c0,0.7-1.1,0.7-1.1,0S570.5,110.7,570.5,111.4z M569.6,113.5v6.6h0.7v-6.6H569.6z"/>
		<path class="st5" d="M574.1,113.6v1.2c0.5-0.9,1.4-1.3,2.3-1.3c1.8,0,3,1.1,3,2.9v3.8h-0.7v-3.8c0-1.5-0.9-2.3-2.3-2.3
			c-1.4,0-2.3,1-2.3,2.4v3.7h-0.7v-6.6L574.1,113.6L574.1,113.6z"/>
		<path class="st5" d="M587.2,116.9c0-2.1,1.5-3.4,3.3-3.4s3.3,1.3,3.3,3.4s-1.5,3.4-3.3,3.4S587.2,119,587.2,116.9z M593.2,116.9
			c0-1.7-1.2-2.8-2.7-2.8s-2.7,1.1-2.7,2.8s1.2,2.7,2.7,2.7S593.2,118.6,593.2,116.9z"/>
		<path class="st5" d="M597.4,120.2v-6H596v-0.6h1.3V113c0-1.3,0.5-2.3,2-2.3c0.5,0,0.9,0.2,1.3,0.5l-0.3,0.5
			c-0.4-0.2-0.6-0.3-1-0.3c-0.8,0-1.3,0.5-1.3,1.7v0.6h2.2v0.6H598v6L597.4,120.2L597.4,120.2z"/>
		<path class="st5" d="M612.6,114.8c-0.7-0.6-1.3-0.7-2.1-0.7c-1,0-2,0.4-2,1.2c0,0.9,1.2,1.1,2,1.2c1.2,0.2,2.8,0.4,2.7,1.9
			c0,1.5-1.5,1.8-2.7,1.8s-2.3-0.4-2.9-1.3l0.5-0.4c0.5,0.8,1.5,1.1,2.4,1.1c0.8,0,2-0.2,2.1-1.3c0-0.9-1.1-1.1-2.1-1.3
			c-1.3-0.2-2.5-0.5-2.6-1.8c0-1.3,1.3-1.9,2.6-1.8c1,0,1.8,0.3,2.5,0.9L612.6,114.8z"/>
		<path class="st5" d="M622.3,113.6c0,2.2,0,4.4,0,6.6h-0.7v-1.4c-0.6,1-1.6,1.5-2.7,1.5c-1.8,0-3.3-1.4-3.3-3.4s1.5-3.4,3.3-3.4
			c1.1,0,2.1,0.5,2.7,1.5v-1.4L622.3,113.6L622.3,113.6z M616.3,116.9c0,1.7,1.2,2.8,2.7,2.8c3.7,0,3.7-5.5,0-5.5
			C617.5,114.1,616.3,115.2,616.3,116.9z"/>
		<path class="st5" d="M626.1,113.6v1.2c0.5-0.9,1.4-1.3,2.3-1.3c1.8,0,3,1.1,3,2.9v3.8h-0.7v-3.8c0-1.5-0.9-2.3-2.3-2.3
			c-1.4,0-2.3,1-2.3,2.4v3.7h-0.7v-6.6L626.1,113.6L626.1,113.6z"/>
		<path class="st5" d="M640.8,110.8v9.3h-0.6v-1.5c-0.5,1-1.6,1.6-2.7,1.6c-1.8,0-3.3-1.2-3.3-3.4s1.5-3.4,3.3-3.4
			c1.1,0,2.2,0.5,2.7,1.5v-4.2L640.8,110.8L640.8,110.8z M634.7,116.9c0,1.8,1.2,2.8,2.7,2.8s2.7-1.1,2.7-2.8c0-1.6-1.2-2.8-2.7-2.8
			S634.7,115,634.7,116.9z"/>
		<path class="st5" d="M649.8,111.4c0,0.7-1.1,0.7-1.1,0C648.8,110.7,649.8,110.7,649.8,111.4z M649,113.5v6.6h0.7v-6.6H649z"/>
		<path class="st5" d="M657.3,114.8c-0.7-0.6-1.3-0.7-2.1-0.7c-1,0-2,0.4-2,1.2c0,0.9,1.2,1.1,2,1.2c1.2,0.2,2.8,0.4,2.7,1.9
			c0,1.5-1.5,1.8-2.7,1.8s-2.3-0.4-2.9-1.3l0.5-0.4c0.5,0.8,1.5,1.1,2.4,1.1c0.8,0,2-0.2,2.1-1.3c0-0.9-1.1-1.1-2.1-1.3
			c-1.3-0.2-2.5-0.5-2.6-1.8c0-1.3,1.3-1.9,2.6-1.8c1,0,1.8,0.3,2.5,0.9L657.3,114.8z"/>
		<path class="st5" d="M665.8,115.1v-4.3h6.5v0.6h-5.8v3h3c2.5,0,3.3,1.4,3.3,2.9s-1.1,2.9-3.6,2.9c-1.7,0-3.6-0.6-3.6-2.6h0.7
			c0,1.6,1.6,1.9,2.9,1.9c2,0,2.9-0.9,2.9-2.2c0-1.1-0.6-2.2-2.6-2.2L665.8,115.1L665.8,115.1z"/>
		<path class="st5" d="M675.4,114.4c0-4.9,7.1-4.9,7.1,0v2.2c0,4.9-7.1,4.9-7.1,0V114.4z M676.1,116.6c0,4,5.7,4,5.7,0v-2.2
			c0-4-5.7-4-5.7,0V116.6z"/>
		<path class="st5" d="M685.2,114.4c0-4.9,7.1-4.9,7.1,0v2.2c0,4.9-7.1,4.9-7.1,0V114.4z M685.9,116.6c0,4,5.7,4,5.7,0v-2.2
			c0-4-5.7-4-5.7,0V116.6z"/>
		<path class="st5" d="M696.1,119.8c0,0.1,0,0.1,0,0.2l-0.5,1.4H695l0.4-1.1c-0.2-0.1-0.3-0.2-0.3-0.5
			C695.1,119.1,696.1,119.1,696.1,119.8z"/>
		<path class="st5" d="M698.9,114.4c0-4.9,7.1-4.9,7.1,0v2.2c0,4.9-7.1,4.9-7.1,0V114.4z M699.6,116.6c0,4,5.7,4,5.7,0v-2.2
			c0-4-5.7-4-5.7,0V116.6z"/>
		<path class="st5" d="M708.7,114.4c0-4.9,7.1-4.9,7.1,0v2.2c0,4.9-7.1,4.9-7.1,0V114.4z M709.4,116.6c0,4,5.7,4,5.7,0v-2.2
			c0-4-5.7-4-5.7,0V116.6z"/>
		<path class="st5" d="M718.5,114.4c0-4.9,7.1-4.9,7.1,0v2.2c0,4.9-7.1,4.9-7.1,0V114.4z M719.2,116.6c0,4,5.7,4,5.7,0v-2.2
			c0-4-5.7-4-5.7,0V116.6z"/>
		<path class="st5" d="M539.6,127.7v1.2c0.5-0.9,1.4-1.3,2.3-1.3c1.8,0,3,1.1,3,2.9v3.8h-0.7v-3.8c0-1.5-0.9-2.3-2.3-2.3
			c-1.4,0-2.3,1-2.3,2.4v3.7H539v-6.6L539.6,127.7L539.6,127.7z"/>
		<path class="st5" d="M554.3,127.7c0,2.2,0,4.4,0,6.6h-0.7v-1.4c-0.6,1-1.6,1.5-2.7,1.5c-1.8,0-3.3-1.4-3.3-3.4s1.5-3.4,3.3-3.4
			c1.1,0,2.1,0.5,2.7,1.5v-1.4L554.3,127.7L554.3,127.7z M548.2,131c0,1.7,1.2,2.8,2.7,2.8c3.7,0,3.7-5.5,0-5.5
			C549.4,128.2,548.2,129.3,548.2,131z"/>
		<path class="st5" d="M558,127.7v1.2c0.5-0.9,1.4-1.3,2.3-1.3c1.8,0,3,1.1,3,2.9v3.8h-0.7v-3.8c0-1.5-0.9-2.3-2.3-2.3
			c-1.4,0-2.3,1-2.3,2.4v3.7h-0.7v-6.6L558,127.7L558,127.7z"/>
		<path class="st5" d="M566.1,131c0-2.1,1.5-3.4,3.3-3.4c1.9,0,3.3,1.3,3.3,3.4s-1.5,3.4-3.3,3.4S566.1,133.1,566.1,131z M572.1,131
			c0-1.7-1.2-2.8-2.7-2.8s-2.7,1.1-2.7,2.8s1.2,2.7,2.7,2.7S572.1,132.7,572.1,131z"/>
		<path class="st5" d="M585.4,134.3v-3.9c0-1.3-0.9-2.2-2.1-2.2c-1.3,0-2.1,0.9-2.1,2.2v3.9h-0.7v-3.9c0-1.3-0.9-2.2-2.1-2.2
			c-1.3,0-2.1,0.9-2.1,2.2v3.9h-0.7v-6.6h0.6v1.1c0.5-0.9,1.3-1.2,2.1-1.2c1,0,2.1,0.5,2.4,1.6c0.4-1.1,1.4-1.6,2.4-1.6
			c1.6,0,2.8,1.1,2.8,2.8v3.9H585.4L585.4,134.3z"/>
		<path class="st5" d="M588.8,131c0-2,1.5-3.4,3.3-3.4s3.5,1.1,3.3,3.7h-5.9c0.1,1.5,1.3,2.4,2.7,2.4c0.9,0,1.9-0.3,2.4-1l0.5,0.4
			c-0.6,0.8-1.8,1.3-2.8,1.3C590.3,134.4,588.8,133.1,588.8,131z M594.8,130.7c0-1.6-1.1-2.5-2.7-2.5c-1.4,0-2.5,0.9-2.7,2.5H594.8z
			"/>
		<path class="st5" d="M599.7,125.7v2h2.2v0.5h-2.2v4c0,0.9,0.2,1.5,1.2,1.5c0.3,0,0.7-0.1,1-0.3l0.2,0.5c-0.4,0.2-0.8,0.3-1.2,0.3
			c-1.4,0-1.9-0.8-1.9-2.1v-4h-1.4v-0.5h1.4v-1.9L599.7,125.7L599.7,125.7z"/>
		<path class="st5" d="M604.4,131c0-2,1.5-3.4,3.3-3.4s3.5,1.1,3.3,3.7h-6c0.1,1.5,1.3,2.4,2.7,2.4c0.9,0,1.9-0.3,2.4-1l0.5,0.4
			c-0.6,0.8-1.8,1.3-2.8,1.3C605.8,134.4,604.4,133.1,604.4,131z M610.4,130.7c0-1.6-1.1-2.5-2.7-2.5c-1.4,0-2.5,0.9-2.7,2.5H610.4z
			"/>
		<path class="st5" d="M614.6,127.7v1.2c0.4-0.9,1.3-1.2,2.2-1.2c0.5,0,1,0.1,1.4,0.4l-0.3,0.5c-0.3-0.2-0.7-0.3-1.1-0.3
			c-1.2,0-2.2,1-2.2,2.2v3.8H614v-6.6C614,127.7,614.6,127.7,614.6,127.7z"/>
		<path class="st5" d="M625,128.9c-0.7-0.6-1.3-0.7-2.1-0.7c-1,0-2,0.4-2,1.2c0,0.9,1.2,1.1,2,1.2c1.2,0.2,2.8,0.4,2.7,1.9
			c0,1.5-1.5,1.8-2.7,1.8s-2.3-0.4-2.9-1.3l0.5-0.4c0.5,0.8,1.5,1.1,2.4,1.1c0.8,0,2-0.2,2.1-1.3c0-0.9-1.1-1.1-2.1-1.3
			c-1.3-0.2-2.5-0.5-2.6-1.8c0-1.3,1.3-1.9,2.6-1.8c1,0,1.8,0.3,2.5,0.9L625,128.9z"/>
		<path class="st5" d="M634.4,125.5c0,0.7-1.1,0.7-1.1,0S634.4,124.8,634.4,125.5z M633.5,127.7v6.6h0.7v-6.6
			C634.2,127.7,633.5,127.7,633.5,127.7z"/>
		<path class="st5" d="M638,127.7v1.2c0.5-0.9,1.4-1.3,2.3-1.3c1.8,0,3,1.1,3,2.9v3.8h-0.7v-3.8c0-1.5-0.9-2.3-2.3-2.3
			c-1.4,0-2.3,1-2.3,2.4v3.7h-0.7v-6.6L638,127.7L638,127.7z"/>
		<path class="st5" d="M657.7,124.9v9.3H657v-1.5c-0.5,1-1.6,1.6-2.7,1.6c-1.8,0-3.3-1.2-3.3-3.4s1.5-3.4,3.3-3.4
			c1.1,0,2.2,0.5,2.7,1.5v-4.2L657.7,124.9L657.7,124.9z M651.6,131c0,1.8,1.2,2.8,2.7,2.8s2.7-1.1,2.7-2.8c0-1.6-1.2-2.8-2.7-2.8
			S651.6,129.1,651.6,131z"/>
		<path class="st5" d="M661.7,125.5c0,0.7-1.1,0.7-1.1,0C660.7,124.8,661.7,124.8,661.7,125.5z M660.9,127.7v6.6h0.7v-6.6
			C661.6,127.7,660.9,127.7,660.9,127.7z"/>
		<path class="st5" d="M671.1,127.7c0,2.2,0,4.4,0,6.6h-0.7v-1.4c-0.6,1-1.6,1.5-2.7,1.5c-1.8,0-3.3-1.4-3.3-3.4s1.5-3.4,3.3-3.4
			c1.1,0,2.1,0.5,2.7,1.5v-1.4L671.1,127.7L671.1,127.7z M665,131c0,1.7,1.2,2.8,2.7,2.8c3.7,0,3.7-5.5,0-5.5
			C666.2,128.2,665,129.3,665,131z"/>
		<path class="st5" d="M683.9,134.3v-3.9c0-1.3-0.9-2.2-2.1-2.2c-1.3,0-2.1,0.9-2.1,2.2v3.9H679v-3.9c0-1.3-0.9-2.2-2.1-2.2
			c-1.3,0-2.1,0.9-2.1,2.2v3.9h-0.7v-6.6h0.6v1.1c0.5-0.9,1.3-1.2,2.1-1.2c1,0,2.1,0.5,2.4,1.6c0.4-1.1,1.4-1.6,2.4-1.6
			c1.6,0,2.8,1.1,2.8,2.8v3.9H683.9L683.9,134.3z"/>
		<path class="st5" d="M687.4,131c0-2,1.5-3.4,3.3-3.4s3.5,1.1,3.3,3.7h-6c0.1,1.5,1.3,2.4,2.7,2.4c0.9,0,1.9-0.3,2.4-1l0.5,0.4
			c-0.6,0.8-1.8,1.3-2.8,1.3C688.9,134.4,687.4,133.1,687.4,131z M693.4,130.7c0-1.6-1.1-2.5-2.7-2.5c-1.4,0-2.5,0.9-2.7,2.5H693.4z
			"/>
		<path class="st5" d="M698.2,125.7v2h2.2v0.5h-2.2v4c0,0.9,0.2,1.5,1.2,1.5c0.3,0,0.7-0.1,1-0.3l0.2,0.5c-0.4,0.2-0.8,0.3-1.2,0.3
			c-1.4,0-1.9-0.8-1.9-2.1v-4h-1.4v-0.5h1.4v-1.9L698.2,125.7L698.2,125.7z"/>
		<path class="st5" d="M702.9,131c0-2,1.5-3.4,3.3-3.4s3.5,1.1,3.3,3.7h-5.9c0.1,1.5,1.3,2.4,2.7,2.4c0.9,0,1.9-0.3,2.4-1l0.5,0.4
			c-0.6,0.8-1.8,1.3-2.8,1.3C704.4,134.4,702.9,133.1,702.9,131z M708.9,130.7c0-1.6-1.1-2.5-2.7-2.5c-1.4,0-2.5,0.9-2.7,2.5H708.9z
			"/>
		<path class="st5" d="M713.2,127.7v1.2c0.4-0.9,1.3-1.2,2.2-1.2c0.5,0,1,0.1,1.4,0.4l-0.3,0.5c-0.3-0.2-0.7-0.3-1.1-0.3
			c-1.2,0-2.2,1-2.2,2.2v3.8h-0.7v-6.6C712.5,127.7,713.2,127.7,713.2,127.7z"/>
	</g>
	<line class="st6" x1="609.9" y1="230" x2="609.9" y2="245.8"/>
	<polygon class="st3" points="187.3,276.4 136.6,247.1 136.6,188.6 187.3,159.3 238,188.6 238,247.1 	"/>
	<g>
		<path class="st9" d="M209.2,202.8c-1.7,1.8-4,3.4-6.5,3.4c-1.4,0-3.1-0.3-4.9-0.6c-0.2-1.2-0.3-2.5-0.4-3.6l2.1,2.1l1.1-1.1
			l-3.2-3.2c0.1-1,0.2-1.9,0.5-2.8l4.4,4.4l1.1-1.1l-4.9-4.9c0.4-0.6,0.8-1.2,1.4-1.8l-1.7-1.7c-4,4-3.7,8.5-3,13.2
			c-5.3-0.8-11.5-1-17,4.5c-5.1,5.1-5.3,10.9-4.6,16c-1.6-0.3-3.1-0.5-4.6-0.5c-3.4,0-6.4,2.2-8.5,4.4l1.7,1.7
			c0.6-0.7,1.3-1.3,2.1-1.9l3.8,3.8l1.1-1.1l-3.6-3.6c0.8-0.4,1.6-0.8,2.4-0.9l2.9,2.9l1.2-1.1l-1.9-1.9c1.1,0.1,2.4,0.3,3.7,0.5
			c0.4,2.2,0.7,4.2,0.7,5.9c0,2.6-1.6,4.8-3.3,6.4l1.7,1.7c2-1.9,4-4.6,4-8c0-1.7-0.3-3.5-0.6-5.5c5.3,0.8,11.5,1,17-4.5
			c5.3-5.3,5.2-10.9,4.6-16c1.6,0.3,3.2,0.5,4.6,0.5c3.3,0,6.1-2,8.2-4.2L209.2,202.8z M191.8,222.4c-4.9,4.9-10.6,4.5-15.7,3.7
			c-0.2-1.3-0.3-2.6-0.4-4l2.1,2.1l1.1-1.1l-3.2-3.2c0.1-0.9,0.3-1.9,0.5-2.8l4.3,4.3l1.1-1.1l-4.9-4.9c0.3-0.7,0.7-1.4,1.2-2.1
			l5.4,5.4l1.1-1.1l-5.6-5.6c0.3-0.3,0.5-0.6,0.8-0.9s0.6-0.5,0.9-0.8l5.6,5.6l1.1-1.1l-5.5-5.5c0.7-0.5,1.4-0.9,2.1-1.2l5.1,5.1
			l1.2-1.1l-4.7-4.7c0.9-0.3,1.9-0.4,2.8-0.5l3.6,3.6l1.1-1.1l-2.6-2.6c1.7,0,3.3,0.2,4.9,0.5C196.3,212.6,196.6,217.6,191.8,222.4z
			"/>
	</g>
	<polygon class="st3" points="627.1,276.4 576.4,247.1 576.4,188.6 627.1,159.3 677.7,188.6 677.7,247.1 	"/>
	<polyline class="st10" points="638.8,200.6 640.8,207.5 633.3,218.7 629.2,218.7 	"/>
	<polyline class="st10" points="613,222.2 618.6,223.6 620.7,228.1 	"/>
	<polyline class="st10" points="644.4,222.2 641.2,226.9 635,231.6 	"/>
	<polyline class="st10" points="623,203 619.4,207 615.2,207 	"/>
	<circle class="st10" cx="627.1" cy="216.8" r="23.7"/>
	<g>
		<path class="st5" d="M526.2,549.3l-1-2.3h-5.6l-1,2.3h-0.8l4.2-9.3h0.8l4.2,9.3H526.2z M524.9,546.3l-2.5-5.7l-2.5,5.7H524.9z"/>
		<path class="st5" d="M534.9,540v4c0.5-0.9,1.5-1.3,2.4-1.3c1.8,0,2.8,1.2,2.8,2.9v3.8h-0.6v-3.8c0-1.4-0.6-2.3-2.1-2.3
			c-1.4,0-2.3,1.1-2.3,2.4v3.6h-0.7V540H534.9z"/>
		<path class="st5" d="M548.2,549.3v-1.2c-0.5,0.9-1.4,1.3-2.3,1.3c-1.8,0-3-1.1-3-2.9v-3.8h0.7v3.8c0,1.5,0.9,2.3,2.3,2.3
			c1.4,0,2.3-1,2.3-2.4v-3.7h0.7v6.6L548.2,549.3L548.2,549.3z"/>
		<path class="st5" d="M561.7,549.3v-3.9c0-1.3-0.9-2.2-2.1-2.2c-1.3,0-2.1,0.9-2.1,2.2v3.9h-0.7v-3.9c0-1.3-0.9-2.2-2.1-2.2
			c-1.3,0-2.1,0.9-2.1,2.2v3.9h-0.7v-6.6h0.6v1.1c0.5-0.9,1.3-1.2,2.1-1.2c1,0,2.1,0.5,2.4,1.6c0.4-1.1,1.4-1.6,2.4-1.6
			c1.6,0,2.8,1.1,2.8,2.8v3.9H561.7z"/>
		<path class="st5" d="M571.8,542.7c0,2.2,0,4.4,0,6.6h-0.7v-1.4c-0.6,1-1.6,1.5-2.7,1.5c-1.8,0-3.3-1.4-3.3-3.4s1.5-3.4,3.3-3.4
			c1.1,0,2.1,0.5,2.7,1.5v-1.4L571.8,542.7L571.8,542.7z M565.8,546c0,1.7,1.2,2.8,2.7,2.8c3.7,0,3.7-5.5,0-5.5
			C567,543.3,565.8,544.4,565.8,546z"/>
		<path class="st5" d="M575.6,542.7v1.2c0.5-0.9,1.4-1.3,2.3-1.3c1.8,0,3,1.1,3,2.9v3.8h-0.7v-3.8c0-1.5-0.9-2.3-2.3-2.3
			c-1.4,0-2.3,1-2.3,2.4v3.7H575v-6.6L575.6,542.7L575.6,542.7z"/>
		<path class="st5" d="M589.6,549.3v-6h-1.3v-0.6h1.3v-0.6c0-1.3,0.5-2.3,2-2.3c0.5,0,0.9,0.2,1.3,0.5l-0.3,0.5
			c-0.4-0.2-0.6-0.3-1-0.3c-0.8,0-1.3,0.5-1.3,1.7v0.6h2.2v0.6h-2.2v6h-0.7V549.3z"/>
		<path class="st5" d="M596,540.6c0,0.7-1.1,0.7-1.1,0C595,539.9,596,539.9,596,540.6z M595.2,542.7v6.6h0.7v-6.6H595.2z"/>
		<path class="st5" d="M599.7,542.7v1.2c0.5-0.9,1.4-1.3,2.3-1.3c1.8,0,3,1.1,3,2.9v3.8h-0.7v-3.8c0-1.5-0.9-2.3-2.3-2.3
			c-1.4,0-2.3,1-2.3,2.4v3.7H599v-6.6L599.7,542.7L599.7,542.7z"/>
		<path class="st5" d="M613.3,542.5l0.4,0.4l-0.6,0.7c0.5,0.5,0.8,1.2,0.8,2.2c0,1.1-0.7,2.3-1.8,2.8c1.2,0.4,1.8,1.2,1.8,2.4
			c0,1.8-1.4,2.6-3.1,2.6s-3.1-1-3.1-2.6h0.7c0,1.3,1.1,2,2.5,2s2.5-0.6,2.5-2s-1.3-2-2.5-2c-1.9,0-3.1-1.4-3.1-3.2
			c0-2.1,1.4-3.2,3.1-3.2c0.7,0,1.4,0.2,1.9,0.6L613.3,542.5z M608.4,545.8c0,1.4,0.9,2.5,2.4,2.5c1.4,0,2.5-1.2,2.5-2.5
			c0-1.7-1.1-2.6-2.5-2.6C609.5,543.3,608.4,544.1,608.4,545.8z"/>
		<path class="st5" d="M616.2,546c0-2,1.5-3.4,3.3-3.4s3.5,1.1,3.3,3.7h-5.9c0.1,1.5,1.3,2.4,2.7,2.4c0.9,0,1.9-0.3,2.4-1l0.5,0.4
			c-0.6,0.8-1.8,1.3-2.8,1.3C617.7,549.4,616.2,548.1,616.2,546z M622.2,545.7c0-1.6-1.1-2.5-2.7-2.5c-1.4,0-2.5,0.9-2.7,2.5H622.2z
			"/>
		<path class="st5" d="M626.4,542.7v1.2c0.4-0.9,1.3-1.2,2.2-1.2c0.5,0,1,0.1,1.4,0.4l-0.3,0.5c-0.3-0.2-0.7-0.3-1.1-0.3
			c-1.2,0-2.2,1-2.2,2.2v3.8h-0.7v-6.6L626.4,542.7L626.4,542.7z"/>
		<path class="st5" d="M633,542.7v1.2c0.5-0.9,1.4-1.3,2.3-1.3c1.8,0,3,1.1,3,2.9v3.8h-0.7v-3.8c0-1.5-0.9-2.3-2.3-2.3
			c-1.4,0-2.3,1-2.3,2.4v3.7h-0.7v-6.6L633,542.7L633,542.7z"/>
		<path class="st5" d="M647.7,542.7c0,2.2,0,4.4,0,6.6H647v-1.4c-0.6,1-1.6,1.5-2.7,1.5c-1.8,0-3.3-1.4-3.3-3.4s1.5-3.4,3.3-3.4
			c1.1,0,2.1,0.5,2.7,1.5v-1.4L647.7,542.7L647.7,542.7z M641.7,546c0,1.7,1.2,2.8,2.7,2.8c3.7,0,3.7-5.5,0-5.5
			C642.9,543.3,641.7,544.4,641.7,546z"/>
		<path class="st5" d="M651.7,540.6c0,0.7-1.1,0.7-1.1,0C650.6,539.9,651.7,539.9,651.7,540.6z M650.8,542.7v6.6h0.7v-6.6H650.8z"/>
		<path class="st5" d="M655.3,540v9.3h-0.7V540H655.3z"/>
		<path class="st5" d="M668.8,542.5l0.4,0.4l-0.6,0.7c0.5,0.5,0.8,1.2,0.8,2.2c0,1.1-0.7,2.3-1.8,2.8c1.2,0.4,1.8,1.2,1.8,2.4
			c0,1.8-1.4,2.6-3.1,2.6s-3.1-1-3.1-2.6h0.7c0,1.3,1.1,2,2.5,2s2.5-0.6,2.5-2s-1.3-2-2.5-2c-1.9,0-3.1-1.4-3.1-3.2
			c0-2.1,1.4-3.2,3.1-3.2c0.7,0,1.4,0.2,1.9,0.6L668.8,542.5z M663.8,545.8c0,1.4,0.9,2.5,2.4,2.5c1.4,0,2.5-1.2,2.5-2.5
			c0-1.7-1.1-2.6-2.5-2.6C664.9,543.3,663.8,544.1,663.8,545.8z"/>
		<path class="st5" d="M672.7,542.7v1.2c0.4-0.9,1.3-1.2,2.2-1.2c0.5,0,1,0.1,1.4,0.4l-0.3,0.5c-0.3-0.2-0.7-0.3-1.1-0.3
			c-1.2,0-2.2,1-2.2,2.2v3.8H672v-6.6L672.7,542.7L672.7,542.7z"/>
		<path class="st5" d="M678.3,546c0-2.1,1.5-3.4,3.3-3.4s3.3,1.3,3.3,3.4c0,2.1-1.5,3.4-3.3,3.4S678.3,548.1,678.3,546z M684.3,546
			c0-1.7-1.2-2.8-2.7-2.8s-2.7,1.1-2.7,2.8s1.2,2.7,2.7,2.7C683.1,548.8,684.3,547.7,684.3,546z"/>
		<path class="st5" d="M694.3,549.3h-0.7l-1.1-2.9l-0.8-2.6l-0.8,2.6l-1.1,2.9h-0.7l-2.3-6.6h0.7l2,5.8l2-5.8h0.5l2,5.8l2-5.8h0.7
			L694.3,549.3z"/>
		<path class="st5" d="M703.6,543.9c-0.7-0.6-1.3-0.7-2.1-0.7c-1,0-2,0.4-2,1.2c0,0.9,1.2,1.1,2,1.2c1.2,0.2,2.8,0.4,2.7,1.9
			c0,1.5-1.5,1.8-2.7,1.8s-2.3-0.4-2.9-1.3l0.5-0.4c0.5,0.8,1.5,1.1,2.4,1.1c0.8,0,2-0.2,2.1-1.3c0-0.9-1.1-1.1-2.1-1.3
			c-1.3-0.2-2.5-0.5-2.6-1.8c0-1.3,1.3-1.9,2.6-1.8c1,0,1.8,0.3,2.5,0.9L703.6,543.9z"/>
		<path class="st5" d="M711.7,546c0-2.1,1.5-3.4,3.3-3.4s3.3,1.3,3.3,3.4c0,2.1-1.5,3.4-3.3,3.4S711.7,548.1,711.7,546z M717.8,546
			c0-1.7-1.2-2.8-2.7-2.8s-2.7,1.1-2.7,2.8s1.2,2.7,2.7,2.7C716.6,548.8,717.8,547.7,717.8,546z"/>
		<path class="st5" d="M721.9,542.7v1.2c0.5-0.9,1.4-1.3,2.3-1.3c1.8,0,3,1.1,3,2.9v3.8h-0.7v-3.8c0-1.5-0.9-2.3-2.3-2.3
			c-1.4,0-2.3,1-2.3,2.4v3.7h-0.7v-6.6L721.9,542.7L721.9,542.7z"/>
		<path class="st5" d="M729.9,546c0-2,1.5-3.4,3.3-3.4s3.5,1.1,3.3,3.7h-5.9c0.1,1.5,1.3,2.4,2.7,2.4c0.9,0,1.9-0.3,2.4-1l0.5,0.4
			c-0.6,0.8-1.8,1.3-2.8,1.3C731.4,549.4,729.9,548.1,729.9,546z M735.9,545.7c0-1.6-1.1-2.5-2.7-2.5c-1.4,0-2.5,0.9-2.7,2.5H735.9z
			"/>
		<path class="st5" d="M539.5,556.8v1.2c0.5-0.9,1.4-1.3,2.3-1.3c1.8,0,3,1.1,3,2.9v3.8h-0.7v-3.8c0-1.5-0.9-2.3-2.3-2.3
			c-1.4,0-2.3,1-2.3,2.4v3.7h-0.7v-6.6L539.5,556.8L539.5,556.8z"/>
		<path class="st5" d="M554.2,556.8c0,2.2,0,4.4,0,6.6h-0.7V562c-0.6,1-1.6,1.5-2.7,1.5c-1.8,0-3.3-1.4-3.3-3.4s1.5-3.4,3.3-3.4
			c1.1,0,2.1,0.5,2.7,1.5v-1.4L554.2,556.8L554.2,556.8z M548.2,560.1c0,1.7,1.2,2.8,2.7,2.8c3.7,0,3.7-5.5,0-5.5
			C549.4,557.4,548.2,558.5,548.2,560.1z"/>
		<path class="st5" d="M558,556.8v1.2c0.5-0.9,1.4-1.3,2.3-1.3c1.8,0,3,1.1,3,2.9v3.8h-0.7v-3.8c0-1.5-0.9-2.3-2.3-2.3
			c-1.4,0-2.3,1-2.3,2.4v3.7h-0.7v-6.6L558,556.8L558,556.8z"/>
		<path class="st5" d="M566,560.1c0-2.1,1.5-3.4,3.3-3.4c1.9,0,3.3,1.3,3.3,3.4c0,2.1-1.5,3.4-3.3,3.4S566,562.2,566,560.1z
			 M572.1,560.1c0-1.7-1.2-2.8-2.7-2.8s-2.7,1.1-2.7,2.8s1.2,2.7,2.7,2.7C570.8,562.9,572.1,561.8,572.1,560.1z"/>
		<path class="st5" d="M585.3,563.4v-3.9c0-1.3-0.9-2.2-2.1-2.2c-1.3,0-2.1,0.9-2.1,2.2v3.9h-0.7v-3.9c0-1.3-0.9-2.2-2.1-2.2
			c-1.3,0-2.1,0.9-2.1,2.2v3.9h-0.7v-6.6h0.6v1.1c0.5-0.9,1.3-1.2,2.1-1.2c1,0,2.1,0.5,2.4,1.6c0.4-1.1,1.4-1.6,2.4-1.6
			c1.6,0,2.8,1.1,2.8,2.8v3.9H585.3z"/>
		<path class="st5" d="M588.7,560.1c0-2,1.5-3.4,3.3-3.4s3.5,1.1,3.3,3.7h-5.9c0.1,1.5,1.3,2.4,2.7,2.4c0.9,0,1.9-0.3,2.4-1l0.5,0.4
			c-0.6,0.8-1.8,1.3-2.8,1.3C590.2,563.5,588.7,562.2,588.7,560.1z M594.8,559.9c0-1.6-1.1-2.5-2.7-2.5c-1.4,0-2.5,0.9-2.7,2.5
			H594.8z"/>
		<path class="st5" d="M599.6,554.8v2h2.2v0.5h-2.2v4c0,0.9,0.2,1.5,1.2,1.5c0.3,0,0.7-0.1,1-0.3l0.2,0.5c-0.4,0.2-0.8,0.3-1.2,0.3
			c-1.4,0-1.9-0.8-1.9-2.1v-4h-1.4v-0.5h1.4v-1.9H599.6z"/>
		<path class="st5" d="M604.3,560.1c0-2,1.5-3.4,3.3-3.4s3.5,1.1,3.3,3.7H605c0.1,1.5,1.3,2.4,2.7,2.4c0.9,0,1.9-0.3,2.4-1l0.5,0.4
			c-0.6,0.8-1.8,1.3-2.8,1.3C605.8,563.5,604.3,562.2,604.3,560.1z M610.3,559.9c0-1.6-1.1-2.5-2.7-2.5c-1.4,0-2.5,0.9-2.7,2.5
			H610.3z"/>
		<path class="st5" d="M614.5,556.8v1.2c0.4-0.9,1.3-1.2,2.2-1.2c0.5,0,1,0.1,1.4,0.4l-0.3,0.5c-0.3-0.2-0.7-0.3-1.1-0.3
			c-1.2,0-2.2,1-2.2,2.2v3.8h-0.7v-6.6L614.5,556.8L614.5,556.8z"/>
		<path class="st5" d="M625.1,560.1c0-2,1.5-3.4,3.3-3.4s3.5,1.1,3.3,3.7h-5.9c0.1,1.5,1.3,2.4,2.7,2.4c0.9,0,1.9-0.3,2.4-1l0.5,0.4
			c-0.6,0.8-1.8,1.3-2.8,1.3C626.6,563.5,625.1,562.2,625.1,560.1z M631.1,559.9c0-1.6-1.1-2.5-2.7-2.5c-1.4,0-2.5,0.9-2.7,2.5
			H631.1z"/>
		<path class="st5" d="M641,556.8c0,2.2,0,4.4,0,6.6h-0.7V562c-0.6,1-1.6,1.5-2.7,1.5c-1.8,0-3.3-1.4-3.3-3.4s1.5-3.4,3.3-3.4
			c1.1,0,2.1,0.5,2.7,1.5v-1.4L641,556.8L641,556.8z M635,560.1c0,1.7,1.2,2.8,2.7,2.8c3.7,0,3.7-5.5,0-5.5
			C636.2,557.4,635,558.5,635,560.1z"/>
		<path class="st5" d="M649.7,562.5c-0.7,0.7-1.5,1-2.4,1c-1.9,0-3.4-1.3-3.4-3.4s1.5-3.4,3.4-3.4c0.9,0,1.7,0.3,2.4,1l-0.4,0.4
			c-0.5-0.5-1.3-0.8-2-0.8c-1.5,0-2.7,1-2.7,2.7s1.3,2.7,2.7,2.7c0.7,0,1.4-0.3,2-0.8L649.7,562.5z"/>
		<path class="st5" d="M653,554.1v4c0.5-0.9,1.5-1.3,2.4-1.3c1.8,0,2.8,1.2,2.8,2.9v3.8h-0.6v-3.8c0-1.4-0.6-2.3-2.1-2.3
			c-1.4,0-2.3,1.1-2.3,2.4v3.6h-0.7v-9.3L653,554.1L653,554.1z"/>
		<path class="st5" d="M670.7,558c-0.7-0.6-1.3-0.7-2.1-0.7c-1,0-2,0.4-2,1.2c0,0.9,1.2,1.1,2,1.2c1.2,0.2,2.8,0.4,2.7,1.9
			c0,1.5-1.5,1.8-2.7,1.8s-2.3-0.4-2.9-1.3l0.5-0.4c0.5,0.8,1.5,1.1,2.4,1.1c0.8,0,2-0.2,2.1-1.3c0-0.9-1.1-1.1-2.1-1.3
			c-1.3-0.2-2.5-0.5-2.6-1.8c0-1.3,1.3-1.9,2.6-1.8c1,0,1.8,0.3,2.5,0.9L670.7,558z"/>
		<path class="st5" d="M673.8,560.1c0-2,1.5-3.4,3.3-3.4s3.5,1.1,3.3,3.7h-5.9c0.1,1.5,1.3,2.4,2.7,2.4c0.9,0,1.9-0.3,2.4-1l0.5,0.4
			c-0.6,0.8-1.8,1.3-2.8,1.3C675.2,563.5,673.8,562.2,673.8,560.1z M679.8,559.9c0-1.6-1.1-2.5-2.7-2.5c-1.4,0-2.5,0.9-2.7,2.5
			H679.8z"/>
		<path class="st5" d="M688.8,562.5c-0.7,0.7-1.5,1-2.4,1c-1.9,0-3.4-1.3-3.4-3.4s1.5-3.4,3.4-3.4c0.9,0,1.7,0.3,2.4,1l-0.4,0.4
			c-0.5-0.5-1.3-0.8-2-0.8c-1.5,0-2.7,1-2.7,2.7s1.3,2.7,2.7,2.7c0.7,0,1.4-0.3,2-0.8L688.8,562.5z"/>
		<path class="st5" d="M691.3,560.1c0-2.1,1.5-3.4,3.3-3.4c1.9,0,3.3,1.3,3.3,3.4c0,2.1-1.5,3.4-3.3,3.4S691.3,562.2,691.3,560.1z
			 M697.3,560.1c0-1.7-1.2-2.8-2.7-2.8s-2.7,1.1-2.7,2.8s1.2,2.7,2.7,2.7C696.1,562.9,697.3,561.8,697.3,560.1z"/>
		<path class="st5" d="M701.4,556.8v1.2c0.5-0.9,1.4-1.3,2.3-1.3c1.8,0,3,1.1,3,2.9v3.8H706v-3.8c0-1.5-0.9-2.3-2.3-2.3
			c-1.4,0-2.3,1-2.3,2.4v3.7h-0.7v-6.6L701.4,556.8L701.4,556.8z"/>
		<path class="st5" d="M716.1,554.1v9.3h-0.6V562c-0.5,1-1.6,1.6-2.7,1.6c-1.8,0-3.3-1.2-3.3-3.4s1.5-3.4,3.3-3.4
			c1.1,0,2.2,0.5,2.7,1.5v-4.2L716.1,554.1L716.1,554.1z M710.1,560.1c0,1.8,1.2,2.8,2.7,2.8s2.7-1.1,2.7-2.8s-1.2-2.8-2.7-2.8
			C711.3,557.4,710.1,558.3,710.1,560.1z"/>
	</g>
	<g>
		<path class="st5" d="M280.6,326.7v-9.3h-13v9.3H266v-20.5h1.6v9.7h13v-9.7h1.6v20.5H280.6z"/>
		<path class="st5" d="M312.3,316.5c0,5.4-3.5,10.6-10.3,10.6c-6.9,0-10.3-5.2-10.3-10.6c0-5.5,3.4-10.5,10.3-10.5
			C308.9,305.9,312.3,310.9,312.3,316.5z M293.2,316.4c0,4.6,3,9.1,8.8,9.1s8.8-4.5,8.8-9.1c0-4.7-2.9-9.1-8.8-9.1
			C296.1,307.3,293.2,311.6,293.2,316.4z"/>
		<path class="st5" d="M333.6,306.2h0.9l6.3,18.7l6.3-18.7h1.7l-7.2,20.5h-1.7l-3.2-9.6L334,309l-2.6,8l-3.3,9.6h-1.7l-7.2-20.5h1.7
			l6.3,18.7L333.6,306.2z"/>
		<path class="st5" d="M384.5,310.1c-1.5-2.4-3.9-2.7-6.2-2.8c-2.4,0-6.2,0.9-6.2,4.2c0,2.6,2.8,3.2,6.3,3.9c3.9,0.8,8,1.5,8,5.9
			c0,4.6-4.7,5.7-8.1,5.7c-3.2,0-6.8-1.3-8.4-4.4l1.4-0.7c1.3,2.5,4.5,3.7,7,3.7s6.5-0.7,6.5-4.3c0-3.1-3.4-3.7-6.7-4.4
			c-3.7-0.7-7.6-1.5-7.6-5.3c-0.1-4.3,4.4-5.7,7.8-5.7c2.9,0,5.5,0.5,7.5,3.5L384.5,310.1z"/>
		<path class="st5" d="M413.5,308.5l-7.8,12h-0.5l-7.9-12v18.2h-1.6v-20.5c0.8,0,1.1,0,1.9,0l7.8,11.9l7.7-11.9h1.9v20.5h-1.5V308.5
			L413.5,308.5z"/>
		<path class="st5" d="M441.7,326.7l-2.3-5h-12.2l-2.2,5h-1.7l9.2-20.5h1.7l9.2,20.5H441.7z M438.8,320.2l-5.5-12.5l-5.5,12.5H438.8
			z"/>
		<path class="st5" d="M453.7,306.2v19h11.5v1.5h-13.1v-20.5H453.7z"/>
		<path class="st5" d="M475.6,306.2v19h11.5v1.5H474v-20.5H475.6z"/>
		<path class="st5" d="M509.9,326.7v-20.5h1.5v20.5H509.9z"/>
		<path class="st5" d="M535.7,310.1c-1.5-2.4-3.9-2.7-6.2-2.8c-2.4,0-6.2,0.9-6.2,4.2c0,2.6,2.8,3.2,6.3,3.9c3.9,0.8,8,1.5,8,5.9
			c0,4.6-4.7,5.7-8.1,5.7c-3.2,0-6.8-1.3-8.4-4.4l1.4-0.7c1.3,2.5,4.5,3.7,7,3.7s6.5-0.7,6.5-4.3c0-3.1-3.4-3.7-6.7-4.4
			c-3.7-0.7-7.6-1.5-7.6-5.3c-0.1-4.3,4.4-5.7,7.8-5.7c2.9,0,5.5,0.5,7.5,3.5L535.7,310.1z"/>
		<path class="st5" d="M282.2,361.7l-2.3-5h-12.2l-2.2,5h-1.7l9.2-20.5h1.7l9.2,20.5H282.2z M279.4,355.2l-5.5-12.5l-5.5,12.5H279.4
			z"/>
		<path class="st5" d="M306.7,341.3l13.8,16.9v-16.9h1.5v20.5h-0.6l-13.8-16.9v16.9H306v-20.5H306.7z"/>
		<path class="st5" d="M348.7,361.7l-2.3-5h-12.2l-2.2,5h-1.7l9.2-20.5h1.7l9.2,20.5H348.7z M345.8,355.2l-5.5-12.5l-5.5,12.5H345.8
			z"/>
		<path class="st5" d="M359.6,341.3l13.8,16.9v-16.9h1.5v20.5h-0.6l-13.8-16.9v16.9h-1.6v-20.5H359.6z"/>
		<path class="st5" d="M405.4,351.5c0,5.4-3.5,10.6-10.3,10.6c-6.9,0-10.3-5.2-10.3-10.6c0-5.5,3.4-10.5,10.3-10.5
			C401.9,341,405.4,346,405.4,351.5z M386.3,351.5c0,4.6,3,9.1,8.8,9.1s8.8-4.5,8.8-9.1c0-4.7-2.9-9.1-8.8-9.1
			S386.2,346.7,386.3,351.5z"/>
		<path class="st5" d="M432.8,343.6l-7.8,12h-0.5l-7.9-12v18.2H415v-20.5c0.8,0,1.1,0,1.9,0l7.8,11.9l7.7-11.9h1.9v20.5h-1.5V343.6
			L432.8,343.6z"/>
		<path class="st5" d="M446.3,350.7h12v1.4h-12v8.1h12.9v1.5h-14.5v-20.5h14.1v1.5h-12.6L446.3,350.7L446.3,350.7z"/>
		<path class="st5" d="M475.5,342.7h-7.4v-1.4h16.4v1.4h-7.4v19h-1.6V342.7z"/>
		<path class="st5" d="M494.9,350.7h12v1.4h-12v8.1h12.9v1.5h-14.5v-20.5h14.1v1.5h-12.6L494.9,350.7L494.9,350.7z"/>
		<path class="st5" d="M533.5,361.7h-2.1l-7.1-7.7h-5.6v7.7h-1.6v-20.5c3,0,6,0,9,0c4.4,0,6.7,3.2,6.7,6.4c0,3.3-2.2,6.3-6.6,6.3
			L533.5,361.7z M518.7,352.5h7.3c3.6,0,5.1-2,5.2-4.9c0-2.4-1.6-4.9-5-4.9h-7.4L518.7,352.5L518.7,352.5z"/>
		<path class="st5" d="M541.1,346.9c0-4.4,4.2-6,7.8-6c3.8,0,7.9,1.3,7.9,6c0,4-2.4,4.9-4.2,5.5c-3,0.9-3.5,1.5-3.5,5.2h-1.5
			c0-4,1-5.5,4.6-6.5c1.7-0.5,3.1-1.2,3.1-4.2c0-3.8-3.6-4.6-6.4-4.6c-2.7,0-6.3,0.9-6.3,4.6H541.1z M549.6,360.7
			c0,1.5-2.3,1.5-2.3,0S549.6,359.2,549.6,360.7z"/>
	</g>
	<polygon class="st3" points="627.2,514 576.5,484.7 576.5,426.2 627.2,396.9 677.9,426.2 677.9,484.7 	"/>
	<path class="st7" d="M647.6,480.7v-35.9c0-11.2-9.1-20.3-20.3-20.3s-20.3,9.1-20.3,20.3v35.9"/>
	<path class="st7" d="M610.1,452v-6.9c0-9.8,7.6-17.7,17.1-17.7c9.4,0,17.1,7.9,17.1,17.7v6.9C644.3,452,631.7,460.8,610.1,452z"/>
	<path class="st8" d="M610.1,452c0,0,18.3-7.4,34.1,0C644.3,452,629,460.4,610.1,452z"/>
	<path class="st7" d="M616,476.7c0,0,12-7.4,22.4,0"/>
	<g>
		<path class="st5" d="M327.4,186.8H324v-0.6h7.5v0.6h-3.4v8.7h-0.7V186.8L327.4,186.8z"/>
		<path class="st5" d="M334.7,186.2v4c0.5-0.9,1.5-1.3,2.4-1.3c1.8,0,2.8,1.2,2.8,2.9v3.8h-0.6v-3.8c0-1.4-0.6-2.3-2.1-2.3
			c-1.4,0-2.3,1.1-2.3,2.4v3.6h-0.7v-9.3L334.7,186.2L334.7,186.2z"/>
		<path class="st5" d="M342.5,192.2c0-2,1.5-3.4,3.3-3.4s3.5,1.1,3.3,3.7h-5.9c0.1,1.5,1.3,2.4,2.7,2.4c0.9,0,1.9-0.3,2.4-1l0.5,0.4
			c-0.6,0.8-1.8,1.3-2.8,1.3C344,195.6,342.5,194.3,342.5,192.2z M348.5,192c0-1.6-1.1-2.5-2.7-2.5c-1.4,0-2.5,0.9-2.7,2.5H348.5z"
			/>
		<path class="st5" d="M352.7,188.9v1.2c0.4-0.9,1.3-1.2,2.2-1.2c0.5,0,1,0.1,1.4,0.4l-0.3,0.5c-0.3-0.2-0.7-0.3-1.1-0.3
			c-1.2,0-2.2,1-2.2,2.2v3.8H352v-6.6L352.7,188.9L352.7,188.9z"/>
		<path class="st5" d="M358.3,192.2c0-2,1.5-3.4,3.3-3.4s3.5,1.1,3.3,3.7H359c0.1,1.5,1.3,2.4,2.7,2.4c0.9,0,1.9-0.3,2.4-1l0.5,0.4
			c-0.6,0.8-1.8,1.3-2.8,1.3C359.8,195.6,358.3,194.3,358.3,192.2z M364.3,192c0-1.6-1.1-2.5-2.7-2.5c-1.4,0-2.5,0.9-2.7,2.5H364.3z
			"/>
		<path class="st5" d="M379.2,188.9c0,2.2,0,4.4,0,6.6h-0.7v-1.4c-0.6,1-1.6,1.5-2.7,1.5c-1.8,0-3.3-1.4-3.3-3.4s1.5-3.4,3.3-3.4
			c1.1,0,2.1,0.5,2.7,1.5v-1.4L379.2,188.9L379.2,188.9z M373.2,192.2c0,1.7,1.2,2.8,2.7,2.8c3.7,0,3.7-5.5,0-5.5
			C374.4,189.5,373.2,190.6,373.2,192.2z"/>
		<path class="st5" d="M383,188.9v1.2c0.4-0.9,1.3-1.2,2.2-1.2c0.5,0,1,0.1,1.4,0.4l-0.3,0.5c-0.3-0.2-0.7-0.3-1.1-0.3
			c-1.2,0-2.2,1-2.2,2.2v3.8h-0.7v-6.6L383,188.9L383,188.9z"/>
		<path class="st5" d="M388.5,192.2c0-2,1.5-3.4,3.3-3.4s3.5,1.1,3.3,3.7h-5.9c0.1,1.5,1.3,2.4,2.7,2.4c0.9,0,1.9-0.3,2.4-1l0.5,0.4
			c-0.6,0.8-1.8,1.3-2.8,1.3C390,195.6,388.5,194.3,388.5,192.2z M394.5,192c0-1.6-1.1-2.5-2.7-2.5c-1.4,0-2.5,0.9-2.7,2.5H394.5z"
			/>
		<path class="st5" d="M403,188.7c0-2,1.9-2.6,3.6-2.6s3.6,0.7,3.6,2.7c0,1.9-1.9,2.7-3.6,2.7c-1.4,0-2.9,0.3-2.9,1.9v1.4h6.4v0.7
			H403v-2.1c0-2.1,1.9-2.6,3.6-2.6c1.2,0,2.9-0.5,2.9-2c0-1.6-1.7-2.1-2.9-2.1s-2.9,0.4-2.9,2L403,188.7L403,188.7z"/>
		<path class="st5" d="M413.1,190.5v-4.3h6.5v0.6h-5.8v3h3c2.5,0,3.3,1.4,3.3,2.9s-1.1,2.9-3.6,2.9c-1.7,0-3.6-0.6-3.6-2.6h0.7
			c0,1.6,1.6,1.9,2.9,1.9c2,0,2.9-0.9,2.9-2.2c0-1.1-0.6-2.2-2.6-2.2L413.1,190.5L413.1,190.5z"/>
		<path class="st5" d="M423.9,195.1c0,0.1,0,0.1,0,0.2l-0.5,1.4h-0.6l0.4-1.1c-0.2-0.1-0.3-0.2-0.3-0.5
			C422.8,194.4,423.9,194.4,423.9,195.1z"/>
		<path class="st5" d="M433,186.2v6.5h1.2v0.7H433v2.1h-0.7v-2.1h-5.7l-0.1-0.9l5.4-6.4L433,186.2L433,186.2z M432.2,186.7l-5.1,6
			h5.1V186.7z"/>
		<path class="st5" d="M436.5,189.7c0-4.9,7.1-4.9,7.1,0v2.2c0,4.9-7.1,4.9-7.1,0V189.7z M437.2,192c0,4,5.7,4,5.7,0v-2.2
			c0-4-5.7-4-5.7,0V192z"/>
		<path class="st5" d="M446.3,189.7c0-4.9,7.1-4.9,7.1,0v2.2c0,4.9-7.1,4.9-7.1,0V189.7z M447,192c0,4,5.7,4,5.7,0v-2.2
			c0-4-5.7-4-5.7,0V192z"/>
		<path class="st5" d="M457.3,195.1c0,0.1,0,0.1,0,0.2l-0.5,1.4h-0.6l0.4-1.1c-0.2-0.1-0.3-0.2-0.3-0.5
			C456.2,194.4,457.3,194.4,457.3,195.1z"/>
		<path class="st5" d="M460.1,189.7c0-4.9,7.1-4.9,7.1,0v2.2c0,4.9-7.1,4.9-7.1,0V189.7z M460.8,192c0,4,5.7,4,5.7,0v-2.2
			c0-4-5.7-4-5.7,0V192z"/>
		<path class="st5" d="M469.9,189.7c0-4.9,7.1-4.9,7.1,0v2.2c0,4.9-7.1,4.9-7.1,0V189.7z M470.6,192c0,4,5.7,4,5.7,0v-2.2
			c0-4-5.7-4-5.7,0V192z"/>
		<path class="st5" d="M479.7,189.7c0-4.9,7.1-4.9,7.1,0v2.2c0,4.9-7.1,4.9-7.1,0V189.7z M480.4,192c0,4,5.7,4,5.7,0v-2.2
			c0-4-5.7-4-5.7,0V192z"/>
		<path class="st5" d="M320.5,203v1.2c0.5-0.9,1.4-1.3,2.3-1.3c1.8,0,3,1.1,3,2.9v3.8h-0.7v-3.8c0-1.5-0.9-2.3-2.3-2.3
			s-2.3,1-2.3,2.4v3.7h-0.7V203H320.5z"/>
		<path class="st5" d="M335.2,203c0,2.2,0,4.4,0,6.6h-0.7v-1.4c-0.6,1-1.6,1.5-2.7,1.5c-1.8,0-3.3-1.4-3.3-3.4s1.5-3.4,3.3-3.4
			c1.1,0,2.1,0.5,2.7,1.5V203H335.2z M329.2,206.3c0,1.7,1.2,2.8,2.7,2.8c3.7,0,3.7-5.5,0-5.5C330.4,203.6,329.2,204.7,329.2,206.3z
			"/>
		<path class="st5" d="M339,203v1.2c0.5-0.9,1.4-1.3,2.3-1.3c1.8,0,3,1.1,3,2.9v3.8h-0.7v-3.8c0-1.5-0.9-2.3-2.3-2.3s-2.3,1-2.3,2.4
			v3.7h-0.7V203H339z"/>
		<path class="st5" d="M347,206.4c0-2.1,1.5-3.4,3.3-3.4c1.9,0,3.3,1.3,3.3,3.4s-1.5,3.4-3.3,3.4C348.5,209.7,347,208.4,347,206.4z
			 M353.1,206.4c0-1.7-1.2-2.8-2.7-2.8s-2.7,1.1-2.7,2.8s1.2,2.7,2.7,2.7S353.1,208.1,353.1,206.4z"/>
		<path class="st5" d="M366.3,209.6v-3.9c0-1.3-0.9-2.2-2.1-2.2c-1.3,0-2.1,0.9-2.1,2.2v3.9h-0.7v-3.9c0-1.3-0.9-2.2-2.1-2.2
			c-1.3,0-2.1,0.9-2.1,2.2v3.9h-0.7V203h0.6v1.1c0.5-0.9,1.3-1.2,2.1-1.2c1,0,2.1,0.5,2.4,1.6c0.4-1.1,1.4-1.6,2.4-1.6
			c1.6,0,2.8,1.1,2.8,2.8v3.9H366.3L366.3,209.6z"/>
		<path class="st5" d="M369.8,206.3c0-2,1.5-3.4,3.3-3.4s3.5,1.1,3.3,3.7h-5.9c0.1,1.5,1.3,2.4,2.7,2.4c0.9,0,1.9-0.3,2.4-1l0.5,0.4
			c-0.6,0.8-1.8,1.3-2.8,1.3C371.2,209.7,369.8,208.4,369.8,206.3z M375.8,206.1c0-1.6-1.1-2.5-2.7-2.5c-1.4,0-2.5,0.9-2.7,2.5
			H375.8z"/>
		<path class="st5" d="M380.6,201.1v2h2.2v0.5h-2.2v4c0,0.9,0.2,1.5,1.2,1.5c0.3,0,0.7-0.1,1-0.3l0.2,0.5c-0.4,0.2-0.8,0.3-1.2,0.3
			c-1.4,0-1.9-0.8-1.9-2.1v-4h-1.4V203h1.4v-1.9H380.6z"/>
		<path class="st5" d="M385.3,206.3c0-2,1.5-3.4,3.3-3.4s3.5,1.1,3.3,3.7H386c0.1,1.5,1.3,2.4,2.7,2.4c0.9,0,1.9-0.3,2.4-1l0.5,0.4
			c-0.6,0.8-1.8,1.3-2.8,1.3C386.8,209.7,385.3,208.4,385.3,206.3z M391.3,206.1c0-1.6-1.1-2.5-2.7-2.5c-1.4,0-2.5,0.9-2.7,2.5
			H391.3z"/>
		<path class="st5" d="M395.5,203v1.2c0.4-0.9,1.3-1.2,2.2-1.2c0.5,0,1,0.1,1.4,0.4l-0.3,0.5c-0.3-0.2-0.7-0.3-1.1-0.3
			c-1.2,0-2.2,1-2.2,2.2v3.8h-0.7V203H395.5z"/>
		<path class="st5" d="M406,204.2c-0.7-0.6-1.3-0.7-2.1-0.7c-1,0-2,0.4-2,1.2c0,0.9,1.2,1.1,2,1.2c1.2,0.2,2.8,0.4,2.7,1.9
			c0,1.5-1.5,1.8-2.7,1.8s-2.3-0.4-2.9-1.3l0.5-0.4c0.5,0.8,1.5,1.1,2.4,1.1c0.8,0,2-0.2,2.1-1.3c0-0.9-1.1-1.1-2.1-1.3
			c-1.3-0.2-2.5-0.5-2.6-1.8c0-1.3,1.3-1.9,2.6-1.8c1,0,1.8,0.3,2.5,0.9L406,204.2z"/>
		<path class="st5" d="M415.3,200.9c0,0.7-1.1,0.7-1.1,0C414.3,200.2,415.3,200.2,415.3,200.9z M414.5,203v6.6h0.7V203H414.5z"/>
		<path class="st5" d="M419,203v1.2c0.5-0.9,1.4-1.3,2.3-1.3c1.8,0,3,1.1,3,2.9v3.8h-0.7v-3.8c0-1.5-0.9-2.3-2.3-2.3s-2.3,1-2.3,2.4
			v3.7h-0.7V203H419z"/>
		<path class="st5" d="M432,206.4c0-2.1,1.5-3.4,3.3-3.4s3.3,1.3,3.3,3.4s-1.5,3.4-3.3,3.4S432,208.4,432,206.4z M438,206.4
			c0-1.7-1.2-2.8-2.7-2.8s-2.7,1.1-2.7,2.8s1.2,2.7,2.7,2.7S438,208.1,438,206.4z"/>
		<path class="st5" d="M442.2,203v1.2c0.5-0.9,1.4-1.3,2.3-1.3c1.8,0,3,1.1,3,2.9v3.8h-0.7v-3.8c0-1.5-0.9-2.3-2.3-2.3
			s-2.3,1-2.3,2.4v3.7h-0.7V203H442.2z"/>
		<path class="st5" d="M450.1,206.3c0-2,1.5-3.4,3.3-3.4s3.5,1.1,3.3,3.7h-5.9c0.1,1.5,1.3,2.4,2.7,2.4c0.9,0,1.9-0.3,2.4-1l0.5,0.4
			c-0.6,0.8-1.8,1.3-2.8,1.3C451.6,209.7,450.1,208.4,450.1,206.3z M456.2,206.1c0-1.6-1.1-2.5-2.7-2.5c-1.4,0-2.5,0.9-2.7,2.5
			H456.2z"/>
		<path class="st5" d="M465.6,200.9c0,0.7-1.1,0.7-1.1,0C464.6,200.2,465.6,200.2,465.6,200.9z M464.8,203v6.6h0.7V203H464.8z"/>
		<path class="st5" d="M469.3,203v1.2c0.5-0.9,1.4-1.3,2.3-1.3c1.8,0,3,1.1,3,2.9v3.8h-0.7v-3.8c0-1.5-0.9-2.3-2.3-2.3
			s-2.3,1-2.3,2.4v3.7h-0.7V203H469.3z"/>
		<path class="st5" d="M483,208.7c-0.7,0.7-1.5,1-2.4,1c-1.9,0-3.4-1.3-3.4-3.4s1.5-3.4,3.4-3.4c0.9,0,1.7,0.3,2.4,1l-0.4,0.4
			c-0.5-0.5-1.3-0.8-2-0.8c-1.5,0-2.7,1-2.7,2.7c0,1.8,1.3,2.7,2.7,2.7c0.7,0,1.4-0.3,2-0.8L483,208.7z"/>
		<path class="st5" d="M486.3,200.3v4c0.5-0.9,1.5-1.3,2.4-1.3c1.8,0,2.8,1.2,2.8,2.9v3.8h-0.6v-3.8c0-1.4-0.6-2.3-2.1-2.3
			c-1.4,0-2.3,1.1-2.3,2.4v3.6h-0.7v-9.3L486.3,200.3L486.3,200.3z"/>
	</g>
</g>
<g>
	<polygon class="st3" points="1093.6,261.1 1002.3,208.4 1002.3,103 1093.6,50.3 1185,103 1185,208.4 	"/>
	<g>
		<g>
			<path class="st8" d="M1081.1,218.6c-6.5,0-12.7-1.6-18.2-4.9c-22.9-13.4-27.9-50.5-11.3-82.7c9.6-18.6,25.1-32.6,41.5-37.3
				c10.9-3.2,21.4-2.1,30.3,3.1c22.9,13.4,27.9,50.5,11.3,82.7c-9.6,18.6-25.1,32.6-41.5,37.3C1089,218,1085,218.6,1081.1,218.6z
				 M1105.1,93.5c-3.8,0-7.7,0.6-11.6,1.7c-15.9,4.6-31.1,18.3-40.5,36.5c-16.3,31.5-11.5,67.6,10.6,80.6c8.5,5,18.5,6,29,2.9
				c15.9-4.6,31.1-18.3,40.5-36.5c16.3-31.5,11.5-67.6-10.6-80.6C1117.3,95.1,1111.4,93.5,1105.1,93.5z"/>
		</g>
		<g>
			<g>
				<path class="st8" d="M1110.8,208.7c-15.9,0-32.6-5.6-47.1-15.8c-17.2-12.1-29-29.5-31.4-46.5c-1.7-11.4,0.9-21.7,7.3-29.9
					c8-10.1,21.1-15.7,36.9-15.7c15.9,0,32.6,5.6,47.1,15.8c17.2,12.1,29,29.5,31.4,46.5c1.7,11.4-0.9,21.7-7.3,29.9
					C1139.7,203.1,1126.6,208.7,1110.8,208.7z M1076.5,103.2c-15.1,0-27.5,5.3-35,14.8c-6,7.6-8.4,17.3-6.8,28
					c2.4,16.3,13.8,33.1,30.5,44.9c14.1,9.9,30.3,15.4,45.7,15.4c15.1,0,27.5-5.3,35-14.8c6-7.6,8.4-17.3,6.8-28
					c-2.4-16.3-13.8-33.1-30.5-44.9C1108.1,108.7,1091.9,103.2,1076.5,103.2z"/>
				<path class="st3" d="M1076.5,101.2c15.2,0,32,5.2,46.8,15.7c17.1,12.1,28.8,29.3,31.3,46.2c1.6,11.3-0.8,21.5-7.2,29.6
					c-8.2,10.4-21.6,15.5-36.6,15.5c-15.2,0-32-5.2-46.8-15.7c-17.1-12.1-28.8-29.3-31.3-46.2c-1.6-11.3,0.8-21.5,7.2-29.6
					C1048,106.4,1061.4,101.2,1076.5,101.2 M1110.8,206.7c14.6,0,27.5-5,35.3-15c6.1-7.7,8.5-17.5,6.9-28.3
					c-2.4-16.4-13.8-33.3-30.6-45.1c-14.6-10.3-31.1-15.5-46-15.5c-14.6,0-27.5,5-35.3,15c-6.1,7.7-8.5,17.5-6.9,28.3
					c2.4,16.4,13.8,33.3,30.6,45.1C1079.5,201.5,1096,206.7,1110.8,206.7 M1076.5,100.4v0.8V100.4c-16,0-29.2,5.6-37.2,15.9
					c-6.5,8.3-9,18.7-7.4,30.2c2.5,17.1,14.3,34.5,31.6,46.7c14.5,10.2,31.3,15.9,47.3,15.9s29.2-5.6,37.2-15.9
					c6.5-8.3,9-18.7,7.4-30.2c-2.5-17.1-14.3-34.5-31.6-46.7C1109.3,106.1,1092.5,100.4,1076.5,100.4L1076.5,100.4z M1110.8,205.9
					c-15.3,0-31.5-5.4-45.5-15.3c-16.6-11.7-27.9-28.4-30.3-44.6c-1.5-10.6,0.8-20.2,6.7-27.7c7.4-9.5,19.8-14.7,34.7-14.7
					c15.3,0,31.5,5.4,45.5,15.3c16.6,11.7,27.9,28.4,30.3,44.6c1.5,10.6-0.8,20.2-6.7,27.7C1138.1,200.7,1125.8,205.9,1110.8,205.9
					L1110.8,205.9z"/>
			</g>
		</g>
		<g>
			<path class="st8" d="M1044.7,120.1c-5.2,0-9.4-4.2-9.4-9.4s4.2-9.4,9.4-9.4s9.4,4.2,9.4,9.4S1049.9,120.1,1044.7,120.1z"/>
			<path class="st3" d="M1044.7,104.1c3.7,0,6.7,3,6.7,6.7s-3,6.7-6.7,6.7s-6.7-3-6.7-6.7C1038.1,107,1041.1,104.1,1044.7,104.1
				 M1044.7,98.6c-6.7,0-12.1,5.4-12.1,12.1s5.4,12.1,12.1,12.1s12.1-5.4,12.1-12.1S1051.4,98.6,1044.7,98.6L1044.7,98.6z"/>
		</g>
		<circle class="st11" cx="1101.4" cy="163.6" r="15.5"/>
		<circle class="st11" cx="1100.8" cy="142.2" r="15.5"/>
		<circle class="st11" cx="1075.7" cy="153.9" r="15.5"/>
		<circle class="st11" cx="1084.9" cy="167.8" r="15.5"/>
		<circle class="st11" cx="1084.9" cy="138.4" r="15.5"/>
		<circle class="st11" cx="1106.1" cy="150.3" r="15.5"/>
		<g>
			<g>
				<path class="st8" d="M1081.1,219c-6.6,0-12.8-1.7-18.4-4.9l-0.3-0.2l1.2-2.1l0.3,0.2c5.2,3.1,11,4.6,17.2,4.6
					c3.7,0,7.6-0.6,11.5-1.7c15.8-4.6,30.9-18.2,40.3-36.3c16.2-31.3,11.5-67.2-10.5-80.1l-0.3-0.2l1.2-2.1l0.3,0.2
					c23,13.5,28.1,50.8,11.4,83.2c-9.7,18.7-25.3,32.7-41.7,37.5C1089.1,218.4,1085,219,1081.1,219z"/>
				<path class="st3" d="M1123.4,96.8c22.9,13.4,27.9,50.5,11.3,82.7c-9.6,18.6-25.1,32.6-41.5,37.3c-4.1,1.2-8.2,1.8-12.1,1.8
					c-6.5,0-12.7-1.6-18.9-5.3l0.8-1.4c6,3.5,11.8,5.1,18.1,5.1c3.8,0,7.7-0.6,11.6-1.7c15.9-4.6,31.1-18.3,40.5-36.5
					c16.3-31.5,11.5-67.6-11.4-81l0.8-1.4 M1123.1,95.7l-0.4,0.7l-0.8,1.4l-0.4,0.7l0.7,0.4c21.8,12.7,26.4,48.4,10.3,79.5
					c-9.3,18.1-24.3,31.6-40,36.1c-3.9,1.1-7.7,1.7-11.4,1.7c-6.1,0-11.8-1.5-17-4.5l-0.7-0.4l-0.4,0.7l-0.8,1.4l-0.4,0.7l0.7,0.4
					c5.6,3.3,11.9,5,18.6,5c4,0,8.1-0.6,12.3-1.8c16.6-4.8,32.2-18.9,42-37.7c16.8-32.6,11.7-70.2-11.6-83.8L1123.1,95.7
					L1123.1,95.7z"/>
			</g>
		</g>
		<g>
			<path class="st8" d="M1130,195.6c-5.4,0-9.8-4.4-9.8-9.8s4.4-9.8,9.8-9.8s9.8,4.4,9.8,9.8S1135.4,195.6,1130,195.6z"/>
			<path class="st3" d="M1130,178.8c3.9,0,7,3.1,7,7s-3.1,7-7,7s-7-3.1-7-7S1126.1,178.8,1130,178.8 M1130,173
				c-7,0-12.7,5.7-12.7,12.7s5.7,12.7,12.7,12.7s12.7-5.7,12.7-12.7C1142.6,178.7,1137,173,1130,173L1130,173z"/>
		</g>
	</g>
</g>
<g>
	<g>
		<path class="st5" d="M876.5,437.9h-5.4v-1H883v1h-5.4v13.9h-1.2L876.5,437.9L876.5,437.9z"/>
		<path class="st5" d="M890.3,436.9v6.4c0.9-1.5,2.3-2.1,3.8-2.1c2.9,0,4.4,1.9,4.4,4.7v6h-1v-6c0-2.2-1-3.6-3.4-3.6
			c-2.2,0-3.8,1.7-3.8,3.9v5.8h-1v-14.9h1V436.9z"/>
		<path class="st5" d="M904.9,446.5c0-3.2,2.4-5.4,5.4-5.4s5.6,1.8,5.2,5.9H906c0.2,2.5,2.1,3.9,4.3,3.9c1.4,0,3-0.6,3.8-1.6
			l0.7,0.6c-1,1.3-2.9,2-4.5,2C907.3,452,904.9,449.9,904.9,446.5z M914.5,446.1c0-2.6-1.7-4.1-4.3-4.1c-2.2,0-4.1,1.5-4.3,4.1
			H914.5z"/>
		<path class="st5" d="M942.7,441.3c0,3.5,0,7,0,10.5h-1v-2.2c-1,1.6-2.6,2.4-4.3,2.4c-2.9,0-5.4-2.2-5.4-5.4s2.4-5.4,5.4-5.4
			c1.7,0,3.4,0.8,4.3,2.4v-2.3H942.7z M933,446.5c0,2.6,1.9,4.4,4.3,4.4c5.9,0,5.9-8.8,0-8.8C935,442.1,933,443.9,933,446.5z"/>
		<path class="st5" d="M958.7,450.3c-1.1,1.1-2.5,1.6-3.8,1.6c-3,0-5.4-2-5.4-5.4c0-3.3,2.4-5.4,5.4-5.4c1.4,0,2.8,0.5,3.8,1.6
			l-0.7,0.7c-0.9-0.9-2-1.3-3.2-1.3c-2.4,0-4.4,1.6-4.4,4.4s2,4.4,4.4,4.4c1.1,0,2.3-0.4,3.1-1.3L958.7,450.3z"/>
		<path class="st5" d="M967.5,438.1v3.2h3.6v0.9h-3.6v6.4c0,1.4,0.3,2.4,1.9,2.4c0.5,0,1.1-0.2,1.6-0.4l0.4,0.9
			c-0.7,0.3-1.3,0.5-2,0.5c-2.2,0-3-1.3-3-3.4v-6.4h-2.2v-0.9h2.2v-3.1L967.5,438.1z"/>
		<path class="st5" d="M979.1,437.8c0,1.1-1.7,1.1-1.7,0S979.1,436.7,979.1,437.8z M977.8,441.2v10.6h1v-10.6H977.8z"/>
		<path class="st5" d="M985.1,441.3h1.2l3.8,9.3l3.8-9.3h1.2l-4.4,10.5h-1.2L985.1,441.3z"/>
		<path class="st5" d="M1000.4,446.5c0-3.2,2.4-5.4,5.4-5.4s5.6,1.8,5.2,5.9h-9.5c0.2,2.5,2.1,3.9,4.3,3.9c1.4,0,3-0.6,3.8-1.6
			l0.7,0.6c-1,1.3-2.9,2-4.5,2C1002.8,452,1000.4,449.9,1000.4,446.5z M1010.1,446.1c0-2.6-1.7-4.1-4.3-4.1c-2.2,0-4.1,1.5-4.3,4.1
			H1010.1z"/>
		<path class="st5" d="M1028.1,456.2v-14.9h1v2.5c0.8-1.6,2.5-2.6,4.6-2.6c2.9,0.1,5.1,2,5.1,5.4c0,3.5-2.4,5.5-5.4,5.5
			c-1.8,0-3.5-0.9-4.4-2.6v6.8L1028.1,456.2L1028.1,456.2L1028.1,456.2z M1037.8,446.5c0-3-1.9-4.4-4.3-4.4c-2.5,0-4.3,1.9-4.3,4.4
			c0,2.6,1.9,4.4,4.3,4.4C1035.8,451,1037.8,449.5,1037.8,446.5z"/>
		<path class="st5" d="M1055.8,441.3c0,3.5,0,7,0,10.5h-1v-2.2c-1,1.6-2.6,2.4-4.3,2.4c-2.9,0-5.4-2.2-5.4-5.4s2.4-5.4,5.4-5.4
			c1.7,0,3.4,0.8,4.3,2.4v-2.3H1055.8z M1046.1,446.5c0,2.6,1.9,4.4,4.3,4.4c5.9,0,5.9-8.8,0-8.8
			C1048,442.1,1046.1,443.9,1046.1,446.5z"/>
		<path class="st5" d="M1063.9,441.3v1.9c0.7-1.4,2.2-2,3.5-2c0.8,0,1.6,0.2,2.3,0.6l-0.5,0.9c-0.6-0.3-1.2-0.5-1.8-0.5
			c-2,0-3.5,1.6-3.5,3.5v6.1h-1v-10.5H1063.9z"/>
		<path class="st5" d="M1078.6,438.1v3.2h3.6v0.9h-3.6v6.4c0,1.4,0.3,2.4,1.9,2.4c0.5,0,1.1-0.2,1.6-0.4l0.4,0.9
			c-0.7,0.3-1.3,0.5-2,0.5c-2.2,0-3-1.3-3-3.4v-6.4h-2.2v-0.9h2.2v-3.1L1078.6,438.1z"/>
		<path class="st5" d="M1090.2,437.8c0,1.1-1.7,1.1-1.7,0S1090.2,436.7,1090.2,437.8z M1088.8,441.2v10.6h1v-10.6H1088.8z"/>
		<path class="st5" d="M1105.8,450.3c-1.1,1.1-2.5,1.6-3.8,1.6c-3,0-5.4-2-5.4-5.4c0-3.3,2.4-5.4,5.4-5.4c1.4,0,2.8,0.5,3.8,1.6
			l-0.7,0.7c-0.9-0.9-2-1.3-3.2-1.3c-2.4,0-4.4,1.6-4.4,4.4s2,4.4,4.4,4.4c1.1,0,2.3-0.4,3.1-1.3L1105.8,450.3z"/>
		<path class="st5" d="M1113.2,436.9v14.9h-1v-14.9H1113.2z"/>
		<path class="st5" d="M1119.8,446.5c0-3.2,2.4-5.4,5.4-5.4s5.6,1.8,5.2,5.9h-9.5c0.2,2.5,2.1,3.9,4.3,3.9c1.4,0,3-0.6,3.8-1.6
			l0.7,0.6c-1,1.3-2.9,2-4.5,2C1122.2,452,1119.8,449.9,1119.8,446.5z M1129.4,446.1c0-2.6-1.7-4.1-4.3-4.1c-2.2,0-4.1,1.5-4.3,4.1
			H1129.4z"/>
		<path class="st5" d="M1154.7,443.2c-1.1-0.9-2.1-1.1-3.3-1.1c-1.6,0-3.2,0.6-3.2,1.9c0,1.4,1.9,1.7,3.2,1.9
			c1.9,0.3,4.5,0.6,4.4,3.1c-0.1,2.3-2.5,2.9-4.3,2.9c-1.9,0-3.7-0.7-4.6-2.1l0.8-0.7c0.9,1.3,2.5,1.8,3.9,1.8c1.3,0,3.2-0.3,3.3-2
			c0-1.5-1.7-1.8-3.4-2.1c-2-0.3-4.1-0.7-4.1-2.8s2-3,4.2-2.9c1.5,0,2.9,0.4,3.9,1.4L1154.7,443.2z"/>
		<path class="st5" d="M1163.8,437.8c0,1.1-1.7,1.1-1.7,0S1163.8,436.7,1163.8,437.8z M1162.4,441.2v10.6h1v-10.6H1162.4z"/>
		<path class="st5" d="M1170.4,441.3h7.9v0.4l-6.7,9.2h6.7v1h-8.3v-0.4l6.7-9.2h-6.4v-1H1170.4z"/>
		<path class="st5" d="M1184.2,446.5c0-3.2,2.4-5.4,5.4-5.4s5.6,1.8,5.2,5.9h-9.5c0.2,2.5,2.1,3.9,4.3,3.9c1.4,0,3-0.6,3.8-1.6
			l0.7,0.6c-1,1.3-2.9,2-4.5,2C1186.6,452,1184.2,449.9,1184.2,446.5z M1193.8,446.1c0-2.6-1.7-4.1-4.3-4.1c-2.2,0-4.1,1.5-4.3,4.1
			H1193.8z"/>
		<path class="st5" d="M1213.2,437.8c0,1.1-1.7,1.1-1.7,0S1213.2,436.7,1213.2,437.8z M1211.8,441.2v10.6h1v-10.6H1211.8z"/>
		<path class="st5" d="M1221.2,441.3v1.9c0.8-1.5,2.3-2,3.8-2.1c2.8,0,4.8,1.7,4.8,4.7v6.1h-1v-6.1c0-2.4-1.5-3.7-3.8-3.6
			c-2.2,0-3.7,1.7-3.7,3.8v5.9h-1v-10.5L1221.2,441.3L1221.2,441.3L1221.2,441.3z"/>
		<path class="st5" d="M1249.2,438.1v3.2h3.6v0.9h-3.6v6.4c0,1.4,0.3,2.4,1.9,2.4c0.5,0,1.1-0.2,1.6-0.4l0.4,0.9
			c-0.7,0.3-1.3,0.5-2,0.5c-2.2,0-3-1.3-3-3.4v-6.4h-2.2v-0.9h2.2v-3.1L1249.2,438.1z"/>
		<path class="st5" d="M1260.5,436.9v6.4c0.9-1.5,2.3-2.1,3.8-2.1c2.9,0,4.4,1.9,4.4,4.7v6h-1v-6c0-2.2-1-3.6-3.4-3.6
			c-2.2,0-3.8,1.7-3.8,3.9v5.8h-1v-14.9h1V436.9z"/>
		<path class="st5" d="M1275.1,446.5c0-3.2,2.4-5.4,5.4-5.4s5.6,1.8,5.2,5.9h-9.5c0.2,2.5,2.1,3.9,4.3,3.9c1.4,0,3-0.6,3.8-1.6
			l0.7,0.6c-1,1.3-2.9,2-4.5,2C1277.5,452,1275.1,449.9,1275.1,446.5z M1284.7,446.1c0-2.6-1.7-4.1-4.3-4.1c-2.2,0-4.1,1.5-4.3,4.1
			H1284.7z"/>
		<path class="st5" d="M880.5,466.4l0.7,0.6l-1,1.2c0.7,0.8,1.3,1.9,1.3,3.6c0,1.8-1.1,3.7-2.8,4.5c1.9,0.7,2.9,2,2.9,3.8
			c0,2.8-2.2,4.2-5,4.2s-5-1.5-5-4.2h1c0,2.2,1.8,3.2,3.9,3.2s4-0.9,4-3.2s-2-3.2-4-3.2c-3.1,0-4.9-2.3-4.9-5.1
			c0-3.3,2.2-5.1,4.9-5.1c1.1,0,2.2,0.4,3,1L880.5,466.4z M872.6,471.8c0,2.2,1.5,4.1,3.9,4.1c2.2,0,3.9-1.9,3.9-4.1
			c0-2.7-1.8-4.1-3.9-4.1C874.3,467.7,872.6,469.1,872.6,471.8z"/>
		<path class="st5" d="M889.1,462.5v6.4c0.9-1.5,2.3-2.1,3.8-2.1c2.9,0,4.4,1.9,4.4,4.7v6h-1v-6c0-2.2-1-3.6-3.4-3.6
			c-2.2,0-3.8,1.7-3.8,3.9v5.8h-1v-14.9h1V462.5z"/>
		<path class="st5" d="M903.8,472.2c0-3.3,2.4-5.5,5.4-5.5s5.4,2.1,5.4,5.5c0,3.3-2.4,5.4-5.4,5.4S903.8,475.5,903.8,472.2z
			 M913.5,472.2c0-2.7-1.9-4.5-4.3-4.5s-4.3,1.8-4.3,4.5s1.9,4.4,4.3,4.4S913.5,474.9,913.5,472.2z"/>
		<path class="st5" d="M928.4,468.8c-1.1-0.9-2.1-1.1-3.3-1.1c-1.6,0-3.2,0.6-3.2,1.9c0,1.4,1.9,1.7,3.2,1.9
			c1.9,0.3,4.5,0.6,4.4,3.1c-0.1,2.3-2.5,2.9-4.3,2.9c-1.9,0-3.7-0.7-4.6-2.1l0.8-0.7c0.9,1.3,2.5,1.8,3.9,1.8c1.3,0,3.2-0.3,3.3-2
			c0-1.5-1.7-1.8-3.4-2.1c-2-0.3-4.1-0.7-4.1-2.8s2-3,4.2-2.9c1.5,0,2.9,0.4,3.9,1.4L928.4,468.8z"/>
		<path class="st5" d="M938.5,463.7v3.2h3.6v0.9h-3.6v6.4c0,1.4,0.3,2.4,1.9,2.4c0.5,0,1.1-0.2,1.6-0.4l0.4,0.9
			c-0.7,0.3-1.3,0.5-2,0.5c-2.2,0-3-1.3-3-3.4v-6.4h-2.2v-0.9h2.2v-3.1L938.5,463.7z"/>
		<path class="st5" d="M956,468.8c-1.1-0.9-2.1-1.1-3.3-1.1c-1.6,0-3.2,0.6-3.2,1.9c0,1.4,1.9,1.7,3.2,1.9c1.9,0.3,4.5,0.6,4.4,3.1
			c-0.1,2.3-2.5,2.9-4.3,2.9c-1.9,0-3.7-0.7-4.6-2.1l0.8-0.7c0.9,1.3,2.5,1.8,3.9,1.8c1.3,0,3.2-0.3,3.3-2c0-1.5-1.7-1.8-3.4-2.1
			c-2-0.3-4.1-0.7-4.1-2.8s2-3,4.2-2.9c1.5,0,2.9,0.4,3.9,1.4L956,468.8z"/>
		<path class="st5" d="M964.7,462.5v6.4c0.9-1.5,2.3-2.1,3.8-2.1c2.9,0,4.4,1.9,4.4,4.7v6h-1v-6c0-2.2-1-3.6-3.4-3.6
			c-2.2,0-3.8,1.7-3.8,3.9v5.8h-1v-14.9h1V462.5z"/>
		<path class="st5" d="M981.3,463.4c0,1.1-1.7,1.1-1.7,0S981.3,462.3,981.3,463.4z M979.9,466.8v10.6h1v-10.6H979.9z"/>
		<path class="st5" d="M987.6,472.1c0-3.2,2.4-5.4,5.4-5.4s5.6,1.8,5.2,5.9h-9.5c0.2,2.5,2.1,3.9,4.3,3.9c1.4,0,3-0.6,3.8-1.6
			l0.7,0.6c-1,1.3-2.9,2-4.5,2C990,477.6,987.6,475.5,987.6,472.1z M997.3,471.7c0-2.6-1.7-4.1-4.3-4.1c-2.2,0-4.1,1.5-4.3,4.1
			H997.3z"/>
		<path class="st5" d="M1006.2,462.5v14.9h-1v-14.9H1006.2z"/>
		<path class="st5" d="M1023.5,462.5v14.9h-1v-2.3c-0.9,1.6-2.6,2.5-4.4,2.5c-2.9,0-5.3-1.9-5.3-5.4s2.3-5.4,5.3-5.4
			c1.8,0,3.5,0.8,4.4,2.5v-6.7L1023.5,462.5L1023.5,462.5z M1013.9,472.1c0,2.9,1.9,4.4,4.3,4.4c2.5,0,4.3-1.8,4.3-4.4
			s-1.9-4.4-4.3-4.4C1015.8,467.7,1013.9,469.2,1013.9,472.1z"/>
		<path class="st5" d="M1042,477.4v-9.5h-2.2V467h2.2v-1c0-2.1,0.8-3.6,3.2-3.6c0.8,0,1.5,0.3,2.1,0.7l-0.5,0.8
			c-0.6-0.3-1-0.5-1.6-0.5c-1.3,0-2.1,0.8-2.1,2.6v0.9h3.5v0.9h-3.5v9.5L1042,477.4L1042,477.4z"/>
		<path class="st5" d="M1051.9,472.2c0-3.3,2.4-5.5,5.4-5.5s5.4,2.1,5.4,5.5c0,3.3-2.4,5.4-5.4,5.4S1051.9,475.5,1051.9,472.2z
			 M1061.6,472.2c0-2.7-1.9-4.5-4.3-4.5s-4.3,1.8-4.3,4.5s1.9,4.4,4.3,4.4C1059.6,476.5,1061.6,474.9,1061.6,472.2z"/>
		<path class="st5" d="M1084.9,477.4v-6.3c0-2-1.4-3.5-3.4-3.5s-3.4,1.5-3.4,3.5v6.2h-1v-6.2c0-2-1.4-3.5-3.4-3.5s-3.4,1.5-3.4,3.5
			v6.2h-1v-10.5h1v1.7c0.7-1.4,2.1-2,3.4-2c1.6,0,3.3,0.7,3.9,2.6c0.6-1.7,2.3-2.6,3.9-2.6c2.6,0,4.4,1.8,4.4,4.4v6.3h-1V477.4z"/>
		<path class="st5" d="M1101.2,477.4v-1.9c-0.8,1.5-2.3,2-3.8,2.1c-2.8,0-4.8-1.7-4.8-4.7v-6.1h1v6.1c0,2.4,1.5,3.7,3.8,3.6
			c2.2,0,3.7-1.7,3.7-3.8v-5.9h1v10.6L1101.2,477.4L1101.2,477.4z"/>
		<path class="st5" d="M1110.3,462.5v14.9h-1v-14.9H1110.3z"/>
		<path class="st5" d="M1127.6,466.9c0,3.5,0,7,0,10.5h-1v-2.2c-1,1.6-2.6,2.4-4.3,2.4c-2.9,0-5.4-2.2-5.4-5.4s2.4-5.4,5.4-5.4
			c1.7,0,3.4,0.8,4.3,2.4v-2.3H1127.6z M1117.9,472.1c0,2.6,1.9,4.4,4.3,4.4c5.9,0,5.9-8.8,0-8.8
			C1119.8,467.8,1117.9,469.5,1117.9,472.1z"/>
		<path class="st5" d="M1141.9,468.8c-1.1-0.9-2.1-1.1-3.3-1.1c-1.6,0-3.2,0.6-3.2,1.9c0,1.4,1.9,1.7,3.2,1.9
			c1.9,0.3,4.5,0.6,4.4,3.1c-0.1,2.3-2.5,2.9-4.3,2.9c-1.9,0-3.7-0.7-4.6-2.1l0.8-0.7c0.9,1.3,2.5,1.8,3.9,1.8c1.3,0,3.2-0.3,3.3-2
			c0-1.5-1.7-1.8-3.4-2.1c-2-0.3-4.1-0.7-4.1-2.8s2-3,4.2-2.9c1.5,0,2.9,0.4,3.9,1.4L1141.9,468.8z"/>
		<path class="st5" d="M1169.9,466.9c0,3.5,0,7,0,10.5h-1v-2.2c-1,1.6-2.6,2.4-4.3,2.4c-2.9,0-5.4-2.2-5.4-5.4s2.4-5.4,5.4-5.4
			c1.7,0,3.4,0.8,4.3,2.4v-2.3H1169.9z M1160.2,472.1c0,2.6,1.9,4.4,4.3,4.4c5.9,0,5.9-8.8,0-8.8
			C1162.1,467.8,1160.2,469.5,1160.2,472.1z"/>
		<path class="st5" d="M1178,466.9v1.9c0.7-1.4,2.2-2,3.5-2c0.8,0,1.6,0.2,2.3,0.6l-0.5,0.9c-0.6-0.3-1.2-0.5-1.8-0.5
			c-2,0-3.5,1.6-3.5,3.5v6.1h-1v-10.5H1178z"/>
		<path class="st5" d="M1189,472.1c0-3.2,2.4-5.4,5.4-5.4s5.6,1.8,5.2,5.9h-9.5c0.2,2.5,2.1,3.9,4.3,3.9c1.4,0,3-0.6,3.8-1.6
			l0.7,0.6c-1,1.3-2.9,2-4.5,2C1191.4,477.6,1189,475.5,1189,472.1z M1198.6,471.7c0-2.6-1.7-4.1-4.3-4.1c-2.2,0-4.1,1.5-4.3,4.1
			H1198.6z"/>
		<path class="st5" d="M1216.3,468.2c0-7.8,11.4-7.8,11.4,0v3.6c0,7.8-11.4,7.8-11.4,0V468.2z M1217.4,471.7c0,6.4,9.2,6.4,9.2,0
			v-3.6c0-6.4-9.2-6.4-9.2,0V471.7z"/>
		<path class="st5" d="M1235.8,476.8c0,1.1-1.7,1.1-1.7,0S1235.8,475.7,1235.8,476.8z"/>
		<path class="st5" d="M1242.6,466.1c0-3.1,3.1-3.8,5.6-3.8c3.5,0,5.5,1.7,5.5,3.9c0,1.7-1.4,3.2-3.2,3.5c1.8,0.3,3.4,1.8,3.4,3.7
			c0,2.3-2,4.2-5.7,4.2c-2.6,0-5.8-0.7-5.8-4h1.1c0,2.7,2.9,2.9,4.8,2.9c3.1,0,4.6-1.4,4.6-3.1c0-1.6-1.6-3.2-4.7-3.2h-2.5v-1h2.4
			c3,0,4.5-1.6,4.5-3c0-1.6-1.5-3-4.4-3c-1.8,0-4.5,0.3-4.5,2.9H1242.6L1242.6,466.1z"/>
		<path class="st5" d="M1273.3,463.7v3.2h3.6v0.9h-3.6v6.4c0,1.4,0.3,2.4,1.9,2.4c0.5,0,1.1-0.2,1.6-0.4l0.4,0.9
			c-0.7,0.3-1.3,0.5-2,0.5c-2.2,0-3-1.3-3-3.4v-6.4h-2.2v-0.9h2.2v-3.1L1273.3,463.7z"/>
		<path class="st5" d="M1283.1,472.2c0-3.3,2.4-5.5,5.4-5.5s5.4,2.1,5.4,5.5c0,3.3-2.4,5.4-5.4,5.4S1283.1,475.5,1283.1,472.2z
			 M1292.8,472.2c0-2.7-1.9-4.5-4.3-4.5s-4.3,1.8-4.3,4.5s1.9,4.4,4.3,4.4C1290.8,476.5,1292.8,474.9,1292.8,472.2z"/>
		<path class="st5" d="M1309.5,476.4h2.5v-12.9h-2.5v-1h3.7v13.9h2.5v1h-6.2V476.4z"/>
		<path class="st5" d="M1323.1,476.8c0,1.1-1.7,1.1-1.7,0S1323.1,475.7,1323.1,476.8z"/>
		<path class="st5" d="M1330.2,469.3v-6.8h10.4v1h-9.3v4.8h4.8c4.1,0,5.4,2.3,5.4,4.6c0,2.5-1.8,4.7-5.8,4.7c-2.7,0-5.8-0.9-5.8-4.2
			h1.2c0,2.6,2.6,3.1,4.6,3.1c3.2,0,4.7-1.5,4.7-3.5c0-1.8-0.9-3.6-4.2-3.6L1330.2,469.3L1330.2,469.3z"/>
		<path class="st5" d="M873.1,492.5v1.9c0.8-1.5,2.3-2,3.8-2.1c2.8,0,4.8,1.7,4.8,4.7v6.1h-1V497c0-2.4-1.5-3.7-3.8-3.6
			c-2.2,0-3.7,1.7-3.7,3.8v5.9h-1v-10.5L873.1,492.5L873.1,492.5z"/>
		<path class="st5" d="M898.7,492.5c0,3.5,0,7,0,10.5h-1v-2.2c-1,1.6-2.6,2.4-4.3,2.4c-2.9,0-5.4-2.2-5.4-5.4s2.4-5.4,5.4-5.4
			c1.7,0,3.4,0.8,4.3,2.4v-2.3H898.7z M889,497.7c0,2.6,1.9,4.4,4.3,4.4c5.9,0,5.9-8.8,0-8.8C891,493.4,889,495.1,889,497.7z"/>
		<path class="st5" d="M906.8,492.5v1.9c0.8-1.5,2.3-2,3.8-2.1c2.8,0,4.8,1.7,4.8,4.7v6.1h-1V497c0-2.4-1.5-3.7-3.8-3.6
			c-2.2,0-3.7,1.7-3.7,3.8v5.9h-1v-10.5L906.8,492.5L906.8,492.5z"/>
		<path class="st5" d="M921.9,497.8c0-3.3,2.4-5.5,5.4-5.5s5.4,2.1,5.4,5.5c0,3.3-2.4,5.4-5.4,5.4
			C924.2,503.2,921.9,501.1,921.9,497.8z M931.5,497.8c0-2.7-1.9-4.5-4.3-4.5s-4.3,1.8-4.3,4.5s1.9,4.4,4.3,4.4
			S931.5,500.5,931.5,497.8z"/>
		<path class="st5" d="M954.9,503v-6.3c0-2-1.4-3.5-3.4-3.5s-3.4,1.5-3.4,3.5v6.2h-1v-6.2c0-2-1.4-3.5-3.4-3.5s-3.4,1.5-3.4,3.5v6.2
			h-1v-10.5h1v1.7c0.7-1.4,2.1-2,3.4-2c1.6,0,3.3,0.7,3.9,2.6c0.6-1.7,2.3-2.6,3.9-2.6c2.6,0,4.4,1.8,4.4,4.4v6.3h-1V503z"/>
		<path class="st5" d="M962.5,497.7c0-3.2,2.4-5.4,5.4-5.4s5.6,1.8,5.2,5.9h-9.5c0.2,2.5,2.1,3.9,4.3,3.9c1.4,0,3-0.6,3.8-1.6
			l0.7,0.6c-1,1.3-2.9,2-4.5,2C964.9,503.2,962.5,501.1,962.5,497.7z M972.1,497.3c0-2.6-1.7-4.1-4.3-4.1c-2.2,0-4.1,1.5-4.3,4.1
			H972.1z"/>
		<path class="st5" d="M982,489.3v3.2h3.6v0.9H982v6.4c0,1.4,0.3,2.4,1.9,2.4c0.5,0,1.1-0.2,1.6-0.4l0.4,0.9c-0.7,0.3-1.3,0.5-2,0.5
			c-2.2,0-3-1.3-3-3.4v-6.4h-2.2v-0.9h2.2v-3.1L982,489.3z"/>
		<path class="st5" d="M991.7,497.7c0-3.2,2.4-5.4,5.4-5.4s5.6,1.8,5.2,5.9h-9.5c0.2,2.5,2.1,3.9,4.3,3.9c1.4,0,3-0.6,3.8-1.6
			l0.7,0.6c-1,1.3-2.9,2-4.5,2C994.1,503.2,991.7,501.1,991.7,497.7z M1001.3,497.3c0-2.6-1.7-4.1-4.3-4.1c-2.2,0-4.1,1.5-4.3,4.1
			H1001.3z"/>
		<path class="st5" d="M1010.2,492.5v1.9c0.7-1.4,2.2-2,3.5-2c0.8,0,1.6,0.2,2.3,0.6l-0.5,0.9c-0.6-0.3-1.2-0.5-1.8-0.5
			c-2,0-3.5,1.6-3.5,3.5v6.1h-1v-10.5H1010.2z"/>
		<path class="st5" d="M1029.1,494.4c-1.1-0.9-2.1-1.1-3.3-1.1c-1.6,0-3.2,0.6-3.2,1.9c0,1.4,1.9,1.7,3.2,1.9
			c1.9,0.3,4.5,0.6,4.4,3.1c-0.1,2.3-2.5,2.9-4.3,2.9c-1.9,0-3.7-0.7-4.6-2.1l0.8-0.7c0.9,1.3,2.5,1.8,3.9,1.8c1.3,0,3.2-0.3,3.3-2
			c0-1.5-1.7-1.8-3.4-2.1c-2-0.3-4.1-0.7-4.1-2.8s2-3,4.2-2.9c1.5,0,2.9,0.4,3.9,1.4L1029.1,494.4z"/>
		<path class="st5" d="M1048.3,489c0,1.1-1.7,1.1-1.7,0S1048.3,487.9,1048.3,489z M1046.9,492.4V503h1v-10.6H1046.9z"/>
		<path class="st5" d="M1056.2,492.5v1.9c0.8-1.5,2.3-2,3.8-2.1c2.8,0,4.8,1.7,4.8,4.7v6.1h-1V497c0-2.4-1.5-3.7-3.8-3.6
			c-2.2,0-3.7,1.7-3.7,3.8v5.9h-1v-10.5L1056.2,492.5L1056.2,492.5L1056.2,492.5z"/>
		<path class="st5" d="M1092,488.1V503h-1v-2.3c-0.9,1.6-2.6,2.5-4.4,2.5c-2.9,0-5.3-1.9-5.3-5.4s2.3-5.4,5.3-5.4
			c1.8,0,3.5,0.8,4.4,2.5v-6.7L1092,488.1L1092,488.1z M1082.3,497.7c0,2.9,1.9,4.4,4.3,4.4c2.5,0,4.3-1.8,4.3-4.4s-1.9-4.4-4.3-4.4
			C1084.3,493.3,1082.3,494.8,1082.3,497.7z"/>
		<path class="st5" d="M1100.6,489c0,1.1-1.7,1.1-1.7,0S1100.6,487.9,1100.6,489z M1099.3,492.4V503h1v-10.6H1099.3z"/>
		<path class="st5" d="M1117.7,492.5c0,3.5,0,7,0,10.5h-1v-2.2c-1,1.6-2.6,2.4-4.3,2.4c-2.9,0-5.4-2.2-5.4-5.4s2.4-5.4,5.4-5.4
			c1.7,0,3.4,0.8,4.3,2.4v-2.3H1117.7z M1108,497.7c0,2.6,1.9,4.4,4.3,4.4c5.9,0,5.9-8.8,0-8.8C1109.9,493.4,1108,495.1,1108,497.7z
			"/>
		<path class="st5" d="M1140.4,503v-6.3c0-2-1.4-3.5-3.4-3.5s-3.4,1.5-3.4,3.5v6.2h-1v-6.2c0-2-1.4-3.5-3.4-3.5s-3.4,1.5-3.4,3.5
			v6.2h-1v-10.5h1v1.7c0.7-1.4,2.1-2,3.4-2c1.6,0,3.3,0.7,3.9,2.6c0.6-1.7,2.3-2.6,3.9-2.6c2.6,0,4.4,1.8,4.4,4.4v6.3h-1V503z"/>
		<path class="st5" d="M1148.1,497.7c0-3.2,2.4-5.4,5.4-5.4s5.6,1.8,5.2,5.9h-9.5c0.2,2.5,2.1,3.9,4.3,3.9c1.4,0,3-0.6,3.8-1.6
			l0.7,0.6c-1,1.3-2.9,2-4.5,2C1150.5,503.2,1148.1,501.1,1148.1,497.7z M1157.7,497.3c0-2.6-1.7-4.1-4.3-4.1
			c-2.2,0-4.1,1.5-4.3,4.1H1157.7z"/>
		<path class="st5" d="M1167.6,489.3v3.2h3.6v0.9h-3.6v6.4c0,1.4,0.3,2.4,1.9,2.4c0.5,0,1.1-0.2,1.6-0.4l0.4,0.9
			c-0.7,0.3-1.3,0.5-2,0.5c-2.2,0-3-1.3-3-3.4v-6.4h-2.2v-0.9h2.2v-3.1L1167.6,489.3z"/>
		<path class="st5" d="M1177.2,497.7c0-3.2,2.4-5.4,5.4-5.4s5.6,1.8,5.2,5.9h-9.5c0.2,2.5,2.1,3.9,4.3,3.9c1.4,0,3-0.6,3.8-1.6
			l0.7,0.6c-1,1.3-2.9,2-4.5,2C1179.6,503.2,1177.2,501.1,1177.2,497.7z M1186.9,497.3c0-2.6-1.7-4.1-4.3-4.1
			c-2.2,0-4.1,1.5-4.3,4.1H1186.9z"/>
		<path class="st5" d="M1195.8,492.5v1.9c0.7-1.4,2.2-2,3.5-2c0.8,0,1.6,0.2,2.3,0.6l-0.5,0.9c-0.6-0.3-1.2-0.5-1.8-0.5
			c-2,0-3.5,1.6-3.5,3.5v6.1h-1v-10.5H1195.8z"/>
		<path class="st5" d="M1208.7,502.4c0,1.1-1.7,1.1-1.7,0S1208.7,501.3,1208.7,502.4z"/>
		<path class="st5" d="M1235.8,491c-1.1-1.7-2.8-2-4.5-2s-4.5,0.6-4.5,3c0,1.9,2,2.3,4.6,2.8c2.9,0.6,5.9,1.1,5.9,4.3
			c0,3.4-3.4,4.2-5.9,4.2c-2.3,0-5-1-6.1-3.2l1-0.5c0.9,1.8,3.3,2.7,5.1,2.7c1.8,0,4.8-0.5,4.8-3.2c0-2.2-2.5-2.7-4.9-3.2
			c-2.7-0.5-5.5-1.1-5.5-3.8c-0.1-3.2,3.2-4.1,5.7-4.1c2.1,0,4,0.3,5.5,2.5L1235.8,491z"/>
		<path class="st5" d="M1259.5,503v-6.3c0-2-1.4-3.5-3.4-3.5s-3.4,1.5-3.4,3.5v6.2h-1v-6.2c0-2-1.4-3.5-3.4-3.5s-3.4,1.5-3.4,3.5
			v6.2h-1v-10.5h1v1.7c0.7-1.4,2.1-2,3.4-2c1.6,0,3.3,0.7,3.9,2.6c0.6-1.7,2.3-2.6,3.9-2.6c2.6,0,4.4,1.8,4.4,4.4v6.3h-1V503z"/>
		<path class="st5" d="M1277.9,492.5c0,3.5,0,7,0,10.5h-1v-2.2c-1,1.6-2.6,2.4-4.3,2.4c-2.9,0-5.4-2.2-5.4-5.4s2.4-5.4,5.4-5.4
			c1.7,0,3.4,0.8,4.3,2.4v-2.3H1277.9z M1268.2,497.7c0,2.6,1.9,4.4,4.3,4.4c5.9,0,5.9-8.8,0-8.8
			C1270.1,493.4,1268.2,495.1,1268.2,497.7z"/>
		<path class="st5" d="M1286,488.1V503h-1v-14.9H1286z"/>
		<path class="st5" d="M1294.3,488.1V503h-1v-14.9H1294.3z"/>
		<path class="st5" d="M871.4,523.4c0-3.2,2.4-5.4,5.4-5.4s5.6,1.8,5.2,5.9h-9.5c0.2,2.5,2.1,3.9,4.3,3.9c1.4,0,3-0.6,3.8-1.6
			l0.7,0.6c-1,1.3-2.9,2-4.5,2C873.8,528.8,871.4,526.7,871.4,523.4z M881.1,522.9c0-2.6-1.7-4.1-4.3-4.1c-2.2,0-4.1,1.5-4.3,4.1
			H881.1z"/>
		<path class="st5" d="M890,518.1v1.9c0.8-1.5,2.3-2,3.8-2.1c2.8,0,4.8,1.7,4.8,4.7v6.1h-1v-6.1c0-2.4-1.5-3.7-3.8-3.6
			c-2.2,0-3.7,1.7-3.7,3.8v5.9h-1v-10.5h0.9V518.1z"/>
		<path class="st5" d="M905,523.4c0-3.3,2.4-5.5,5.4-5.5s5.4,2.1,5.4,5.5c0,3.3-2.4,5.4-5.4,5.4C907.4,528.8,905,526.7,905,523.4z
			 M914.7,523.4c0-2.7-1.9-4.5-4.3-4.5s-4.3,1.8-4.3,4.5s1.9,4.4,4.3,4.4S914.7,526.1,914.7,523.4z"/>
		<path class="st5" d="M930.9,528.6v-1.9c-0.8,1.5-2.3,2-3.8,2.1c-2.8,0-4.8-1.7-4.8-4.7V518h1v6.1c0,2.4,1.5,3.7,3.8,3.6
			c2.2,0,3.7-1.7,3.7-3.8V518h1v10.6H930.9L930.9,528.6z"/>
		<path class="st5" d="M947.4,517.7l0.7,0.6l-1,1.2c0.7,0.8,1.3,1.9,1.3,3.6c0,1.8-1.1,3.7-2.8,4.5c1.9,0.7,2.9,2,2.9,3.8
			c0,2.8-2.2,4.2-5,4.2s-5-1.5-5-4.2h1c0,2.2,1.8,3.2,3.9,3.2s4-0.9,4-3.2s-2-3.2-4-3.2c-3.1,0-4.9-2.3-4.9-5.1
			c0-3.3,2.2-5.1,4.9-5.1c1.1,0,2.2,0.4,3,1L947.4,517.7z M939.5,523c0,2.2,1.5,4.1,3.9,4.1c2.2,0,3.9-1.9,3.9-4.1
			c0-2.7-1.8-4.1-3.9-4.1C941.2,518.9,939.5,520.3,939.5,523z"/>
		<path class="st5" d="M956,513.7v6.4c0.9-1.5,2.3-2.1,3.8-2.1c2.9,0,4.4,1.9,4.4,4.7v6h-1v-6c0-2.2-1-3.6-3.4-3.6
			c-2.2,0-3.8,1.7-3.8,3.9v5.8h-1v-14.9h1V513.7z"/>
		<path class="st5" d="M983.8,514.9v3.2h3.6v0.9h-3.6v6.4c0,1.4,0.3,2.4,1.9,2.4c0.5,0,1.1-0.2,1.6-0.4l0.4,0.9
			c-0.7,0.3-1.3,0.5-2,0.5c-2.2,0-3-1.3-3-3.4V519h-2.2v-0.9h2.2V515L983.8,514.9z"/>
		<path class="st5" d="M993.5,523.4c0-3.3,2.4-5.5,5.4-5.5s5.4,2.1,5.4,5.5c0,3.3-2.4,5.4-5.4,5.4
			C995.9,528.8,993.5,526.7,993.5,523.4z M1003.2,523.4c0-2.7-1.9-4.5-4.3-4.5s-4.3,1.8-4.3,4.5s1.9,4.4,4.3,4.4
			C1001.3,527.7,1003.2,526.1,1003.2,523.4z"/>
		<path class="st5" d="M1023.5,514.9v3.2h3.6v0.9h-3.6v6.4c0,1.4,0.3,2.4,1.9,2.4c0.5,0,1.1-0.2,1.6-0.4l0.4,0.9
			c-0.7,0.3-1.3,0.5-2,0.5c-2.2,0-3-1.3-3-3.4V519h-2.2v-0.9h2.2V515L1023.5,514.9z"/>
		<path class="st5" d="M1034.7,518.1v1.9c0.7-1.4,2.2-2,3.5-2c0.8,0,1.6,0.2,2.3,0.6l-0.5,0.9c-0.6-0.3-1.2-0.5-1.8-0.5
			c-2,0-3.5,1.6-3.5,3.5v6.1h-1v-10.5H1034.7z"/>
		<path class="st5" d="M1056.5,518.1c0,3.5,0,7,0,10.5h-1v-2.2c-1,1.6-2.6,2.4-4.3,2.4c-2.9,0-5.4-2.2-5.4-5.4s2.4-5.4,5.4-5.4
			c1.7,0,3.4,0.8,4.3,2.4v-2.3H1056.5z M1046.8,523.4c0,2.6,1.9,4.4,4.3,4.4c5.9,0,5.9-8.8,0-8.8
			C1048.8,519,1046.8,520.7,1046.8,523.4z"/>
		<path class="st5" d="M1061.9,518.1h1.2l3.8,9.3l3.8-9.3h1.2l-4.4,10.5h-1.2L1061.9,518.1z"/>
		<path class="st5" d="M1077.3,523.4c0-3.2,2.4-5.4,5.4-5.4s5.6,1.8,5.2,5.9h-9.5c0.2,2.5,2.1,3.9,4.3,3.9c1.4,0,3-0.6,3.8-1.6
			l0.7,0.6c-1,1.3-2.9,2-4.5,2C1079.7,528.8,1077.3,526.7,1077.3,523.4z M1086.9,522.9c0-2.6-1.7-4.1-4.3-4.1
			c-2.2,0-4.1,1.5-4.3,4.1H1086.9z"/>
		<path class="st5" d="M1095.9,513.7v14.9h-1v-14.9H1095.9z"/>
		<path class="st5" d="M1115.6,514.9v3.2h3.6v0.9h-3.6v6.4c0,1.4,0.3,2.4,1.9,2.4c0.5,0,1.1-0.2,1.6-0.4l0.4,0.9
			c-0.7,0.3-1.3,0.5-2,0.5c-2.2,0-3-1.3-3-3.4V519h-2.2v-0.9h2.2V515L1115.6,514.9z"/>
		<path class="st5" d="M1126.9,513.7v6.4c0.9-1.5,2.3-2.1,3.8-2.1c2.9,0,4.4,1.9,4.4,4.7v6h-1v-6c0-2.2-1-3.6-3.4-3.6
			c-2.2,0-3.8,1.7-3.8,3.9v5.8h-1v-14.9h1V513.7z"/>
		<path class="st5" d="M1143.1,518.1v1.9c0.7-1.4,2.2-2,3.5-2c0.8,0,1.6,0.2,2.3,0.6l-0.5,0.9c-0.6-0.3-1.2-0.5-1.8-0.5
			c-2,0-3.5,1.6-3.5,3.5v6.1h-1v-10.5H1143.1z"/>
		<path class="st5" d="M1154.3,523.4c0-3.3,2.4-5.5,5.4-5.5s5.4,2.1,5.4,5.5c0,3.3-2.4,5.4-5.4,5.4S1154.3,526.7,1154.3,523.4z
			 M1163.9,523.4c0-2.7-1.9-4.5-4.3-4.5s-4.3,1.8-4.3,4.5s1.9,4.4,4.3,4.4C1162,527.7,1163.9,526.1,1163.9,523.4z"/>
		<path class="st5" d="M1180.1,528.6v-1.9c-0.8,1.5-2.3,2-3.8,2.1c-2.8,0-4.8-1.7-4.8-4.7V518h1v6.1c0,2.4,1.5,3.7,3.8,3.6
			c2.2,0,3.7-1.7,3.7-3.8V518h1v10.6H1180.1L1180.1,528.6z"/>
		<path class="st5" d="M1196.7,517.7l0.7,0.6l-1,1.2c0.7,0.8,1.3,1.9,1.3,3.6c0,1.8-1.1,3.7-2.8,4.5c1.9,0.7,2.9,2,2.9,3.8
			c0,2.8-2.2,4.2-5,4.2s-5-1.5-5-4.2h1c0,2.2,1.8,3.2,3.9,3.2s4-0.9,4-3.2s-2-3.2-4-3.2c-3.1,0-4.9-2.3-4.9-5.1
			c0-3.3,2.2-5.1,4.9-5.1c1.1,0,2.2,0.4,3,1L1196.7,517.7z M1188.7,523c0,2.2,1.5,4.1,3.9,4.1c2.2,0,3.9-1.9,3.9-4.1
			c0-2.7-1.8-4.1-3.9-4.1S1188.7,520.3,1188.7,523z"/>
		<path class="st5" d="M1205.3,513.7v6.4c0.9-1.5,2.3-2.1,3.8-2.1c2.9,0,4.4,1.9,4.4,4.7v6h-1v-6c0-2.2-1-3.6-3.4-3.6
			c-2.2,0-3.8,1.7-3.8,3.9v5.8h-1v-14.9h1V513.7z"/>
		<path class="st5" d="M1240.7,518.1c0,3.5,0,7,0,10.5h-1v-2.2c-1,1.6-2.6,2.4-4.3,2.4c-2.9,0-5.4-2.2-5.4-5.4s2.4-5.4,5.4-5.4
			c1.7,0,3.4,0.8,4.3,2.4v-2.3H1240.7z M1231.1,523.4c0,2.6,1.9,4.4,4.3,4.4c5.9,0,5.9-8.8,0-8.8
			C1233,519,1231.1,520.7,1231.1,523.4z"/>
		<path class="st5" d="M1266.4,517.7l0.7,0.6l-1,1.2c0.7,0.8,1.3,1.9,1.3,3.6c0,1.8-1.1,3.7-2.8,4.5c1.9,0.7,2.9,2,2.9,3.8
			c0,2.8-2.2,4.2-5,4.2s-5-1.5-5-4.2h1c0,2.2,1.8,3.2,3.9,3.2s4-0.9,4-3.2s-2-3.2-4-3.2c-3.1,0-4.9-2.3-4.9-5.1
			c0-3.3,2.2-5.1,4.9-5.1c1.1,0,2.2,0.4,3,1L1266.4,517.7z M1258.5,523c0,2.2,1.5,4.1,3.9,4.1c2.2,0,3.9-1.9,3.9-4.1
			c0-2.7-1.8-4.1-3.9-4.1S1258.5,520.3,1258.5,523z"/>
		<path class="st5" d="M1274.8,518.1v1.9c0.7-1.4,2.2-2,3.5-2c0.8,0,1.6,0.2,2.3,0.6l-0.5,0.9c-0.6-0.3-1.2-0.5-1.8-0.5
			c-2,0-3.5,1.6-3.5,3.5v6.1h-1v-10.5H1274.8z"/>
		<path class="st5" d="M1296.6,518.1c0,3.5,0,7,0,10.5h-1v-2.2c-1,1.6-2.6,2.4-4.3,2.4c-2.9,0-5.4-2.2-5.4-5.4s2.4-5.4,5.4-5.4
			c1.7,0,3.4,0.8,4.3,2.4v-2.3H1296.6z M1286.9,523.4c0,2.6,1.9,4.4,4.3,4.4c5.9,0,5.9-8.8,0-8.8
			C1288.8,519,1286.9,520.7,1286.9,523.4z"/>
		<path class="st5" d="M1305.1,514.6c0,1.1-1.7,1.1-1.7,0S1305.1,513.5,1305.1,514.6z M1303.7,518v10.6h1V518H1303.7z"/>
		<path class="st5" d="M1313,518.1v1.9c0.8-1.5,2.3-2,3.8-2.1c2.8,0,4.8,1.7,4.8,4.7v6.1h-1v-6.1c0-2.4-1.5-3.7-3.8-3.6
			c-2.2,0-3.7,1.7-3.7,3.8v5.9h-1v-10.5h0.9L1313,518.1L1313,518.1z"/>
		<path class="st5" d="M871.5,549c0-3.3,2.4-5.5,5.4-5.5s5.4,2.1,5.4,5.5c0,3.3-2.4,5.4-5.4,5.4S871.5,552.3,871.5,549z M881.2,549
			c0-2.7-1.9-4.5-4.3-4.5s-4.3,1.8-4.3,4.5s1.9,4.4,4.3,4.4S881.2,551.7,881.2,549z"/>
		<path class="st5" d="M890,554.2v-9.5h-2.2v-0.9h2.2v-0.9c0-2.1,0.8-3.6,3.2-3.6c0.8,0,1.5,0.3,2.1,0.7l-0.5,0.8
			c-0.6-0.3-1-0.5-1.6-0.5c-1.3,0-2.1,0.8-2.1,2.6v0.9h3.5v0.9h-3.5v9.5H890z"/>
		<path class="st5" d="M918.6,545.6c-1.1-0.9-2.1-1.1-3.3-1.1c-1.6,0-3.2,0.6-3.2,1.9c0,1.4,1.9,1.7,3.2,1.9
			c1.9,0.3,4.5,0.6,4.4,3.1c-0.1,2.3-2.5,2.9-4.3,2.9c-1.9,0-3.7-0.7-4.6-2.1l0.8-0.7c0.9,1.3,2.5,1.8,3.9,1.8c1.3,0,3.2-0.3,3.3-2
			c0-1.5-1.7-1.8-3.4-2.1c-2-0.3-4.1-0.7-4.1-2.8s2-3,4.2-2.9c1.5,0,2.9,0.4,3.9,1.4L918.6,545.6z"/>
		<path class="st5" d="M936.4,543.7c0,3.5,0,7,0,10.5h-1V552c-1,1.6-2.6,2.4-4.3,2.4c-2.9,0-5.4-2.2-5.4-5.4s2.4-5.4,5.4-5.4
			c1.7,0,3.4,0.8,4.3,2.4v-2.3H936.4z M926.8,549c0,2.6,1.9,4.4,4.3,4.4c5.9,0,5.9-8.8,0-8.8C928.7,544.6,926.8,546.3,926.8,549z"/>
		<path class="st5" d="M944.6,543.7v1.9c0.8-1.5,2.3-2,3.8-2.1c2.8,0,4.8,1.7,4.8,4.7v6.1h-1v-6.1c0-2.4-1.5-3.7-3.8-3.6
			c-2.2,0-3.7,1.7-3.7,3.8v5.9h-1v-10.5h0.9V543.7z"/>
		<path class="st5" d="M970.2,539.3v14.9h-1v-2.3c-0.9,1.6-2.6,2.5-4.4,2.5c-2.9,0-5.3-1.9-5.3-5.4s2.3-5.4,5.3-5.4
			c1.8,0,3.5,0.8,4.4,2.5v-6.7L970.2,539.3L970.2,539.3z M960.5,549c0,2.9,1.9,4.4,4.3,4.4c2.5,0,4.3-1.8,4.3-4.4s-1.9-4.4-4.3-4.4
			C962.5,544.5,960.5,546,960.5,549z"/>
	</g>
</g>
<line class="st12" x1="1255.2" y1="377.3" x2="1143.9" y2="243.2"/>
<line class="st12" x1="1188.4" y1="217.6" x2="1099.4" y2="268.8"/>
<g>
	<line class="st13" x1="1899.7" y1="378.9" x2="1844.6" y2="378.9"/>
	<line class="st13" x1="1899.7" y1="367.9" x2="1844.6" y2="367.9"/>
	<line class="st13" x1="1899.7" y1="356.9" x2="1844.6" y2="356.9"/>
	<line class="st13" x1="1899.7" y1="335" x2="1844.6" y2="335"/>
	<line class="st13" x1="1899.7" y1="324" x2="1844.6" y2="324"/>
	<line class="st13" x1="1899.7" y1="313.1" x2="1844.6" y2="313.1"/>
	<line class="st13" x1="1899.7" y1="302.1" x2="1844.6" y2="302.1"/>
	<line class="st13" x1="1899.7" y1="280.1" x2="1844.6" y2="280.1"/>
	<line class="st13" x1="1899.7" y1="269.2" x2="1844.6" y2="269.2"/>
	<line class="st13" x1="1899.7" y1="258.2" x2="1844.6" y2="258.2"/>
	<line class="st13" x1="1899.7" y1="247.2" x2="1844.6" y2="247.2"/>
	<line class="st13" x1="1899.7" y1="225.3" x2="1844.6" y2="225.3"/>
	<line class="st13" x1="1899.7" y1="214.3" x2="1844.6" y2="214.3"/>
	<line class="st13" x1="1899.7" y1="203.3" x2="1844.6" y2="203.3"/>
	<line class="st13" x1="1899.7" y1="192.4" x2="1844.6" y2="192.4"/>
	<line class="st13" x1="1899.7" y1="170.4" x2="1844.6" y2="170.4"/>
	<line class="st13" x1="1899.7" y1="159.4" x2="1844.6" y2="159.4"/>
	<line class="st13" x1="1899.7" y1="148.5" x2="1844.6" y2="148.5"/>
	<line class="st13" x1="1899.7" y1="137.5" x2="1844.6" y2="137.5"/>
	<line class="st13" x1="1899.7" y1="115.6" x2="1844.6" y2="115.6"/>
	<line class="st13" x1="1899.7" y1="126.5" x2="1828" y2="126.5"/>
	<line class="st13" x1="1899.7" y1="181.4" x2="1828" y2="181.4"/>
	<line class="st13" x1="1899.7" y1="236.3" x2="1828" y2="236.3"/>
	<line class="st13" x1="1899.7" y1="291.1" x2="1828" y2="291.1"/>
	<line class="st13" x1="1899.7" y1="346" x2="1828" y2="346"/>
</g>
<g>
	<line class="st13" x1="1899.7" y1="598.6" x2="1844.6" y2="598.6"/>
	<line class="st13" x1="1899.7" y1="587.7" x2="1844.6" y2="587.7"/>
	<line class="st13" x1="1899.7" y1="576.7" x2="1844.6" y2="576.7"/>
	<line class="st13" x1="1899.7" y1="554.7" x2="1844.6" y2="554.7"/>
	<line class="st13" x1="1899.7" y1="608.6" x2="1844.6" y2="608.6"/>
	<line class="st13" x1="1899.7" y1="543.8" x2="1844.6" y2="543.8"/>
	<line class="st13" x1="1899.7" y1="532.8" x2="1844.6" y2="532.8"/>
	<line class="st13" x1="1899.7" y1="521.8" x2="1844.6" y2="521.8"/>
	<line class="st13" x1="1899.7" y1="499.9" x2="1844.6" y2="499.9"/>
	<line class="st13" x1="1899.7" y1="488.9" x2="1844.6" y2="488.9"/>
	<line class="st13" x1="1899.7" y1="477.9" x2="1844.6" y2="477.9"/>
	<line class="st13" x1="1899.7" y1="467" x2="1844.6" y2="467"/>
	<line class="st13" x1="1899.7" y1="445" x2="1844.6" y2="445"/>
	<line class="st13" x1="1899.7" y1="434" x2="1844.6" y2="434"/>
	<line class="st13" x1="1899.7" y1="423.1" x2="1844.6" y2="423.1"/>
	<line class="st13" x1="1899.7" y1="412.1" x2="1844.6" y2="412.1"/>
	<line class="st13" x1="1899.7" y1="401.1" x2="1828" y2="401.1"/>
	<line class="st13" x1="1899.7" y1="456" x2="1828" y2="456"/>
	<line class="st13" x1="1899.7" y1="510.8" x2="1828" y2="510.8"/>
	<line class="st13" x1="1899.7" y1="565.7" x2="1828" y2="565.7"/>
	<line class="st13" x1="1899.7" y1="619.1" x2="1828" y2="619.1"/>
	<line class="st13" x1="1899.7" y1="390.2" x2="1844.6" y2="390.2"/>
</g>
</svg>
