<?xml version="1.0" encoding="utf-8"?>
<!-- Generator: Adobe Illustrator 19.2.1, SVG Export Plug-In . SVG Version: 6.00 Build 0)  -->
<svg version="1.1" id="Layer_1" xmlns="http://www.w3.org/2000/svg" xmlns:xlink="http://www.w3.org/1999/xlink" x="0px" y="0px"
	 viewBox="0 0 1899.7 673" style="enable-background:new 0 0 1899.7 673;" xml:space="preserve">
<style type="text/css">
	.st0{fill:none;stroke:#E6EEF8;stroke-width:0.8405;stroke-miterlimit:10;}
	.st1{fill:none;stroke:#E6EEF8;stroke-width:0.5879;stroke-miterlimit:10;}
	.st2{fill:none;stroke:#E6EEF8;stroke-width:0.4101;stroke-miterlimit:10;}
	.st3{fill:none;stroke:#E6EEF8;stroke-width:0.4527;stroke-miterlimit:10;}
	.st4{fill:none;stroke:#E6EEF8;stroke-width:0.4307;stroke-miterlimit:10;}
	.st5{fill:none;stroke:#E6EEF8;stroke-width:0.4291;stroke-miterlimit:10;}
	.st6{fill:none;stroke:#E6EEF8;stroke-width:0.4165;stroke-miterlimit:10;}
	.st7{fill:none;stroke:#E6EEF8;stroke-width:0.4474;stroke-miterlimit:10;}
	.st8{fill:none;stroke:#D2D3D4;stroke-width:0.5224;stroke-miterlimit:10;}
	.st9{fill:none;stroke:#E6EEF8;stroke-miterlimit:10;}
	.st10{fill:#E6EEF8;}
	.st11{fill:none;stroke:#E6EEF8;stroke-width:1.5677;stroke-miterlimit:10;}
	.st12{fill:none;stroke:#E6EEF8;stroke-width:2.3515;stroke-miterlimit:10;}
	.st13{fill:none;stroke:#E6EEF8;stroke-width:0.7;stroke-miterlimit:10;}
	.st14{fill:none;stroke:#E6EEF8;stroke-width:0.5;stroke-miterlimit:10;}
</style>
<line class="st0" x1="1581.8" y1="377.4" x2="1219" y2="377.3"/>
<g>
	<line class="st1" x1="220.6" y1="147.1" x2="278.2" y2="147.1"/>
	<line class="st1" x1="220.6" y1="527.7" x2="278.2" y2="527.7"/>
	<line class="st1" x1="660.7" y1="527.7" x2="718.3" y2="527.7"/>
	<line class="st1" x1="660.7" y1="146.5" x2="718.3" y2="146.5"/>
	<line class="st2" x1="249.5" y1="147" x2="249.5" y2="159.6"/>
	<line class="st1" x1="438.5" y1="173.9" x2="496.1" y2="173.9"/>
	<line class="st3" x1="467.4" y1="158.8" x2="467.4" y2="174.1"/>
	<line class="st4" x1="689.6" y1="514.1" x2="689.6" y2="528"/>
	<line class="st5" x1="689.2" y1="147" x2="689.2" y2="160.8"/>
	<line class="st1" x1="438.9" y1="500.5" x2="496.5" y2="500.5"/>
	<line class="st6" x1="467.4" y1="501" x2="467.4" y2="514"/>
	<line class="st7" x1="249.5" y1="513" x2="249.5" y2="528"/>
</g>
<path class="st8" d="M263.3,495.2"/>
<polygon class="st9" points="249.3,514 198.6,484.7 198.6,426.2 249.3,396.9 300,426.2 300,484.7 "/>
<g>
	<path class="st10" d="M265.7,478.9L265.7,478.9h-34.6l0,0c-2.8,0-5.1-2.3-5.1-5.1v-40.7c0-0.6,0.5-1,1-1l0,0h34.6l0,0
		c0.4,0,0.8,0.3,0.9,0.6c0.1,0.1,0.1,0.3,0.1,0.4l0,0v14.3h7.1c0.6,0,1,0.5,1,1v25.5C270.8,476.6,268.5,478.9,265.7,478.9z
		 M260.6,473.8v-39.7H228v39.7l0,0l0,0c0,1.7,1.4,3.1,3.1,3.1h30.6C261,476,260.6,475,260.6,473.8z M268.8,449.4h-6.1v24.4
		c0,1.7,1.4,3.1,3.1,3.1s3.1-1.4,3.1-3.1v-24.4H268.8z M231.1,471.1c0-0.6,0.5-1,1-1h9.2c0.6,0,1,0.5,1,1c0,0.6-0.5,1-1,1h-9.2
		C231.5,472.1,231.1,471.7,231.1,471.1z M247.4,456.5h9.2c0.6,0,1,0.5,1,1c0,0.6-0.5,1-1,1h-9.2c-0.6,0-1-0.5-1-1
		S246.8,456.5,247.4,456.5z M247.4,465h9.2c0.6,0,1,0.5,1,1c0,0.6-0.5,1-1,1h-9.2c-0.6,0-1-0.5-1-1C246.4,465.4,246.8,465,247.4,465
		z M247.4,470.1h9.2c0.6,0,1,0.5,1,1c0,0.6-0.5,1-1,1h-9.2c-0.6,0-1-0.5-1-1C246.4,470.5,246.8,470.1,247.4,470.1z M246.4,449h-14.3
		c-0.6,0-1-0.5-1-1c0-0.6,0.5-1,1-1h14.3c0.6,0,1,0.5,1,1C247.4,448.6,246.9,449,246.4,449z M232.1,465h9.2c0.6,0,1,0.5,1,1
		c0,0.6-0.5,1-1,1h-9.2c-0.6,0-1-0.5-1-1C231.1,465.4,231.5,465,232.1,465z M242.3,457.5c0,0.6-0.5,1-1,1h-9.2c-0.6,0-1-0.5-1-1
		c0-0.6,0.5-1,1-1h9.2C241.8,456.5,242.3,457,242.3,457.5z"/>
</g>
<g>
	<path class="st10" d="M161.8,549.3l-1-2.3h-5.6l-1,2.3h-0.8l4.2-9.3h0.8l4.2,9.3H161.8z M160.5,546.3l-2.5-5.7l-2.5,5.7H160.5z"/>
	<path class="st10" d="M174.3,543.9c-0.7-0.6-1.3-0.7-2.1-0.7c-1,0-2,0.4-2,1.2c0,0.9,1.2,1.1,2,1.2c1.2,0.2,2.8,0.4,2.7,1.9
		c0,1.5-1.5,1.8-2.7,1.8s-2.3-0.4-2.9-1.3l0.5-0.4c0.5,0.8,1.5,1.1,2.4,1.1c0.8,0,2-0.2,2.1-1.3c0-0.9-1.1-1.1-2.1-1.3
		c-1.3-0.2-2.5-0.5-2.6-1.8c0-1.3,1.3-1.9,2.6-1.8c1,0,1.8,0.3,2.5,0.9L174.3,543.9z"/>
	<path class="st10" d="M178.4,540v4c0.5-0.9,1.5-1.3,2.4-1.3c1.8,0,2.8,1.2,2.8,2.9v3.8H183v-3.8c0-1.4-0.6-2.3-2.1-2.3
		c-1.4,0-2.3,1.1-2.3,2.4v3.6h-0.7V540H178.4z"/>
	<path class="st10" d="M186.2,546c0-2,1.5-3.4,3.3-3.4s3.5,1.1,3.3,3.7h-5.9c0.1,1.5,1.3,2.4,2.7,2.4c0.9,0,1.9-0.3,2.4-1l0.5,0.4
		c-0.6,0.8-1.8,1.3-2.8,1.3C187.7,549.4,186.2,548.1,186.2,546z M192.2,545.7c0-1.6-1.1-2.5-2.7-2.5c-1.4,0-2.5,0.9-2.7,2.5H192.2z"
		/>
	<path class="st10" d="M195.5,546c0-2,1.5-3.4,3.3-3.4s3.5,1.1,3.3,3.7h-5.9c0.1,1.5,1.3,2.4,2.7,2.4c0.9,0,1.9-0.3,2.4-1l0.5,0.4
		c-0.6,0.8-1.8,1.3-2.8,1.3C197,549.4,195.5,548.1,195.5,546z M201.5,545.7c0-1.6-1.1-2.5-2.7-2.5c-1.4,0-2.5,0.9-2.7,2.5H201.5z"/>
	<path class="st10" d="M206.3,540.7v2h2.2v0.5h-2.2v4c0,0.9,0.2,1.5,1.2,1.5c0.3,0,0.7-0.1,1-0.3l0.2,0.5c-0.4,0.2-0.8,0.3-1.2,0.3
		c-1.4,0-1.9-0.8-1.9-2.1v-4h-1.4v-0.5h1.4v-1.9H206.3z"/>
	<path class="st10" d="M216.1,546c0-2.1,1.5-3.4,3.3-3.4c1.9,0,3.3,1.3,3.3,3.4c0,2.1-1.5,3.4-3.3,3.4S216.1,548.1,216.1,546z
		 M222.1,546c0-1.7-1.2-2.8-2.7-2.8s-2.7,1.1-2.7,2.8s1.2,2.7,2.7,2.7C220.9,548.8,222.1,547.7,222.1,546z"/>
	<path class="st10" d="M226.3,549.3v-6H225v-0.6h1.3v-0.6c0-1.3,0.5-2.3,2-2.3c0.5,0,0.9,0.2,1.3,0.5l-0.3,0.5
		c-0.4-0.2-0.6-0.3-1-0.3c-0.8,0-1.3,0.5-1.3,1.7v0.6h2.2v0.6H227v6h-0.7V549.3z"/>
	<path class="st10" d="M237,552v-9.3h0.6v1.6c0.5-1,1.6-1.7,2.9-1.7c1.8,0.1,3.2,1.3,3.2,3.4c0,2.2-1.5,3.4-3.3,3.4
		c-1.1,0-2.2-0.5-2.7-1.6v4.3H237V552z M243,546c0-1.9-1.2-2.8-2.7-2.8s-2.7,1.2-2.7,2.8s1.2,2.8,2.7,2.8S243,547.9,243,546z"/>
	<path class="st10" d="M252.9,542.7c0,2.2,0,4.4,0,6.6h-0.7v-1.4c-0.6,1-1.6,1.5-2.7,1.5c-1.8,0-3.3-1.4-3.3-3.4s1.5-3.4,3.3-3.4
		c1.1,0,2.1,0.5,2.7,1.5v-1.4L252.9,542.7L252.9,542.7z M246.9,546c0,1.7,1.2,2.8,2.7,2.8c3.7,0,3.7-5.5,0-5.5
		C248.1,543.3,246.9,544.4,246.9,546z"/>
	<path class="st10" d="M256,552v-9.3h0.6v1.6c0.5-1,1.6-1.7,2.9-1.7c1.8,0.1,3.2,1.3,3.2,3.4c0,2.2-1.5,3.4-3.3,3.4
		c-1.1,0-2.2-0.5-2.7-1.6v4.3H256V552z M262.1,546c0-1.9-1.2-2.8-2.7-2.8s-2.7,1.2-2.7,2.8s1.2,2.8,2.7,2.8S262.1,547.9,262.1,546z"
		/>
	<path class="st10" d="M265.3,546c0-2,1.5-3.4,3.3-3.4c1.8,0,3.5,1.1,3.3,3.7H266c0.1,1.5,1.3,2.4,2.7,2.4c0.9,0,1.9-0.3,2.4-1
		l0.5,0.4c-0.6,0.8-1.8,1.3-2.8,1.3C266.8,549.4,265.3,548.1,265.3,546z M271.3,545.7c0-1.6-1.1-2.5-2.7-2.5c-1.4,0-2.5,0.9-2.7,2.5
		H271.3z"/>
	<path class="st10" d="M275.5,542.7v1.2c0.4-0.9,1.3-1.2,2.2-1.2c0.5,0,1,0.1,1.4,0.4l-0.3,0.5c-0.3-0.2-0.7-0.3-1.1-0.3
		c-1.2,0-2.2,1-2.2,2.2v3.8h-0.7v-6.6L275.5,542.7L275.5,542.7z"/>
	<path class="st10" d="M287.3,540.6c0,0.7-1.1,0.7-1.1,0C286.3,539.9,287.3,539.9,287.3,540.6z M286.4,542.7v6.6h0.7v-6.6H286.4z"/>
	<path class="st10" d="M294.8,543.9c-0.7-0.6-1.3-0.7-2.1-0.7c-1,0-2,0.4-2,1.2c0,0.9,1.2,1.1,2,1.2c1.2,0.2,2.8,0.4,2.7,1.9
		c0,1.5-1.5,1.8-2.7,1.8c-1.2,0-2.3-0.4-2.9-1.3l0.5-0.4c0.5,0.8,1.5,1.1,2.4,1.1c0.8,0,2-0.2,2.1-1.3c0-0.9-1.1-1.1-2.1-1.3
		c-1.3-0.2-2.5-0.5-2.6-1.8c0-1.3,1.3-1.9,2.6-1.8c1,0,1.8,0.3,2.5,0.9L294.8,543.9z"/>
	<path class="st10" d="M309.6,542.7c0,2.2,0,4.4,0,6.6H309v-1.4c-0.6,1-1.6,1.5-2.7,1.5c-1.8,0-3.3-1.4-3.3-3.4s1.5-3.4,3.3-3.4
		c1.1,0,2.1,0.5,2.7,1.5v-1.4L309.6,542.7L309.6,542.7z M303.6,546c0,1.7,1.2,2.8,2.7,2.8c3.7,0,3.7-5.5,0-5.5
		C304.8,543.3,303.6,544.4,303.6,546z"/>
	<path class="st10" d="M313.2,540v4.2c0.5-1.1,1.6-1.5,2.7-1.5c1.8,0,3.3,1.2,3.3,3.4s-1.5,3.4-3.3,3.4c-1.1,0-2.2-0.6-2.7-1.6v1.5
		h-0.6V540H313.2z M313.2,546c0,1.6,1.1,2.8,2.7,2.8c1.5,0,2.7-0.9,2.7-2.8c0-1.9-1.2-2.8-2.7-2.8S313.2,544.4,313.2,546z"/>
	<path class="st10" d="M321.9,546c0-2.1,1.5-3.4,3.3-3.4s3.3,1.3,3.3,3.4c0,2.1-1.5,3.4-3.3,3.4S321.9,548.1,321.9,546z M327.9,546
		c0-1.7-1.2-2.8-2.7-2.8s-2.7,1.1-2.7,2.8s1.2,2.7,2.7,2.7C326.7,548.8,327.9,547.7,327.9,546z"/>
	<path class="st10" d="M336.7,549.3v-1.2c-0.5,0.9-1.4,1.3-2.3,1.3c-1.8,0-3-1.1-3-2.9v-3.8h0.7v3.8c0,1.5,0.9,2.3,2.3,2.3
		s2.3-1,2.3-2.4v-3.7h0.7v6.6L336.7,549.3L336.7,549.3z"/>
	<path class="st10" d="M341.9,540.7v2h2.2v0.5h-2.2v4c0,0.9,0.2,1.5,1.2,1.5c0.3,0,0.7-0.1,1-0.3l0.2,0.5c-0.4,0.2-0.8,0.3-1.2,0.3
		c-1.4,0-1.9-0.8-1.9-2.1v-4h-1.4v-0.5h1.4v-1.9H341.9z"/>
	<path class="st10" d="M153.6,562.8h1.6v-8.1h-1.6v-0.6h2.3v8.7h1.6v0.6h-3.9V562.8z"/>
	<path class="st10" d="M159.7,557.6c0-4.9,7.1-4.9,7.1,0v2.2c0,4.9-7.1,4.9-7.1,0V557.6z M160.4,559.9c0,4,5.7,4,5.7,0v-2.2
		c0-4-5.7-4-5.7,0V559.9z"/>
	<path class="st10" d="M169.5,557.6c0-4.9,7.1-4.9,7.1,0v2.2c0,4.9-7.1,4.9-7.1,0V557.6z M170.2,559.9c0,4,5.7,4,5.7,0v-2.2
		c0-4-5.7-4-5.7,0V559.9z"/>
	<path class="st10" d="M180.5,563c0,0.1,0,0.1,0,0.2l-0.5,1.4h-0.6l0.4-1.1c-0.2-0.1-0.3-0.2-0.3-0.5
		C179.4,562.3,180.5,562.3,180.5,563z"/>
	<path class="st10" d="M183.3,557.6c0-4.9,7.1-4.9,7.1,0v2.2c0,4.9-7.1,4.9-7.1,0C183.3,559.8,183.3,557.6,183.3,557.6z M184,559.9
		c0,4,5.7,4,5.7,0v-2.2c0-4-5.7-4-5.7,0V559.9z"/>
	<path class="st10" d="M193.1,557.6c0-4.9,7.1-4.9,7.1,0v2.2c0,4.9-7.1,4.9-7.1,0V557.6z M193.8,559.9c0,4,5.7,4,5.7,0v-2.2
		c0-4-5.7-4-5.7,0V559.9z"/>
	<path class="st10" d="M202.9,557.6c0-4.9,7.1-4.9,7.1,0v2.2c0,4.9-7.1,4.9-7.1,0V557.6z M203.6,559.9c0,4,5.7,4,5.7,0v-2.2
		c0-4-5.7-4-5.7,0V559.9z"/>
	<path class="st10" d="M218.6,556.8v1.2c0.5-0.9,1.4-1.3,2.3-1.3c1.8,0,3,1.1,3,2.9v3.8h-0.7v-3.8c0-1.5-0.9-2.3-2.3-2.3
		s-2.3,1-2.3,2.4v3.7h-0.7v-6.6L218.6,556.8L218.6,556.8z"/>
	<path class="st10" d="M233.3,556.8c0,2.2,0,4.4,0,6.6h-0.7V562c-0.6,1-1.6,1.5-2.7,1.5c-1.8,0-3.3-1.4-3.3-3.4s1.5-3.4,3.3-3.4
		c1.1,0,2.1,0.5,2.7,1.5v-1.4L233.3,556.8L233.3,556.8z M227.2,560.1c0,1.7,1.2,2.8,2.7,2.8c3.7,0,3.7-5.5,0-5.5
		C228.4,557.4,227.2,558.5,227.2,560.1z"/>
	<path class="st10" d="M237,556.8v1.2c0.5-0.9,1.4-1.3,2.3-1.3c1.8,0,3,1.1,3,2.9v3.8h-0.7v-3.8c0-1.5-0.9-2.3-2.3-2.3
		s-2.3,1-2.3,2.4v3.7h-0.7v-6.6L237,556.8L237,556.8z"/>
	<path class="st10" d="M245,560.1c0-2.1,1.5-3.4,3.3-3.4s3.3,1.3,3.3,3.4c0,2.1-1.5,3.4-3.3,3.4S245,562.2,245,560.1z M251.1,560.1
		c0-1.7-1.2-2.8-2.7-2.8s-2.7,1.1-2.7,2.8s1.2,2.7,2.7,2.7C249.9,562.9,251.1,561.8,251.1,560.1z"/>
	<path class="st10" d="M264.3,563.4v-3.9c0-1.3-0.9-2.2-2.1-2.2c-1.3,0-2.1,0.9-2.1,2.2v3.9h-0.7v-3.9c0-1.3-0.9-2.2-2.1-2.2
		c-1.3,0-2.1,0.9-2.1,2.2v3.9h-0.7v-6.6h0.6v1.1c0.5-0.9,1.3-1.2,2.1-1.2c1,0,2.1,0.5,2.4,1.6c0.4-1.1,1.4-1.6,2.4-1.6
		c1.6,0,2.8,1.1,2.8,2.8v3.9H264.3z"/>
	<path class="st10" d="M267.8,560.1c0-2,1.5-3.4,3.3-3.4c1.8,0,3.5,1.1,3.3,3.7h-5.9c0.1,1.5,1.3,2.4,2.7,2.4c0.9,0,1.9-0.3,2.4-1
		l0.5,0.4c-0.6,0.8-1.8,1.3-2.8,1.3C269.3,563.5,267.8,562.2,267.8,560.1z M273.8,559.9c0-1.6-1.1-2.5-2.7-2.5
		c-1.4,0-2.5,0.9-2.7,2.5H273.8z"/>
	<path class="st10" d="M278.6,554.8v2h2.2v0.5h-2.2v4c0,0.9,0.2,1.5,1.2,1.5c0.3,0,0.7-0.1,1-0.3l0.2,0.5c-0.4,0.2-0.8,0.3-1.2,0.3
		c-1.4,0-1.9-0.8-1.9-2.1v-4h-1.4v-0.5h1.4v-1.9H278.6z"/>
	<path class="st10" d="M283.3,560.1c0-2,1.5-3.4,3.3-3.4c1.8,0,3.5,1.1,3.3,3.7H284c0.1,1.5,1.3,2.4,2.7,2.4c0.9,0,1.9-0.3,2.4-1
		l0.5,0.4c-0.6,0.8-1.8,1.3-2.8,1.3C284.8,563.5,283.3,562.2,283.3,560.1z M289.3,559.9c0-1.6-1.1-2.5-2.7-2.5
		c-1.4,0-2.5,0.9-2.7,2.5H289.3z"/>
	<path class="st10" d="M293.6,556.8v1.2c0.4-0.9,1.3-1.2,2.2-1.2c0.5,0,1,0.1,1.4,0.4l-0.3,0.5c-0.3-0.2-0.7-0.3-1.1-0.3
		c-1.2,0-2.2,1-2.2,2.2v3.8H293v-6.6L293.6,556.8L293.6,556.8z"/>
	<path class="st10" d="M304,558c-0.7-0.6-1.3-0.7-2.1-0.7c-1,0-2,0.4-2,1.2c0,0.9,1.2,1.1,2,1.2c1.2,0.2,2.8,0.4,2.7,1.9
		c0,1.5-1.5,1.8-2.7,1.8c-1.2,0-2.3-0.4-2.9-1.3l0.5-0.4c0.5,0.8,1.5,1.1,2.4,1.1c0.8,0,2-0.2,2.1-1.3c0-0.9-1.1-1.1-2.1-1.3
		c-1.3-0.2-2.5-0.5-2.6-1.8c0-1.3,1.3-1.9,2.6-1.8c1,0,1.8,0.3,2.5,0.9L304,558z"/>
	<path class="st10" d="M314,554.8v2h2.2v0.5H314v4c0,0.9,0.2,1.5,1.2,1.5c0.3,0,0.7-0.1,1-0.3l0.2,0.5c-0.4,0.2-0.8,0.3-1.2,0.3
		c-1.4,0-1.9-0.8-1.9-2.1v-4H312v-0.5h1.4v-1.9H314z"/>
	<path class="st10" d="M319.7,554.1v4c0.5-0.9,1.5-1.3,2.4-1.3c1.8,0,2.8,1.2,2.8,2.9v3.8h-0.6v-3.8c0-1.4-0.6-2.3-2.1-2.3
		c-1.4,0-2.3,1.1-2.3,2.4v3.6h-0.7v-9.3L319.7,554.1L319.7,554.1z"/>
	<path class="st10" d="M328.7,554.7c0,0.7-1.1,0.7-1.1,0C327.7,554,328.7,554,328.7,554.7z M327.9,556.8v6.6h0.7v-6.6H327.9z"/>
	<path class="st10" d="M337.1,562.5c-0.7,0.7-1.5,1-2.4,1c-1.9,0-3.4-1.3-3.4-3.4s1.5-3.4,3.4-3.4c0.9,0,1.7,0.3,2.4,1l-0.4,0.4
		c-0.5-0.5-1.3-0.8-2-0.8c-1.5,0-2.7,1-2.7,2.7s1.3,2.7,2.7,2.7c0.7,0,1.4-0.3,2-0.8L337.1,562.5z"/>
	<path class="st10" d="M340.4,554.1v5.6l3.1-2.9h0.9l0,0l-3.3,3.1l3.7,3.4l0,0H344l-3.5-3.2v3.2h-0.6V554L340.4,554.1L340.4,554.1z"
		/>
</g>
<g>
	<path class="st10" d="M161.9,120.2l-1-2.3h-5.6l-1,2.3h-0.8l4.2-9.3h0.8l4.2,9.3H161.9z M160.6,117.2l-2.5-5.7l-2.5,5.7H160.6z"/>
	<path class="st10" d="M174.4,114.8c-0.7-0.6-1.3-0.7-2.1-0.7c-1,0-2,0.4-2,1.2c0,0.9,1.2,1.1,2,1.2c1.2,0.2,2.8,0.4,2.7,1.9
		c0,1.5-1.5,1.8-2.7,1.8s-2.3-0.4-2.9-1.3l0.5-0.4c0.5,0.8,1.5,1.1,2.4,1.1c0.8,0,2-0.2,2.1-1.3c0-0.9-1.1-1.1-2.1-1.3
		c-1.3-0.2-2.5-0.5-2.6-1.8c0-1.3,1.3-1.9,2.6-1.8c1,0,1.8,0.3,2.5,0.9L174.4,114.8z"/>
	<path class="st10" d="M179.4,111.6v2h2.2v0.5h-2.2v4c0,0.9,0.2,1.5,1.2,1.5c0.3,0,0.7-0.1,1-0.3l0.2,0.5c-0.4,0.2-0.8,0.3-1.2,0.3
		c-1.4,0-1.9-0.8-1.9-2.1v-4h-1.4v-0.5h1.4v-1.9H179.4z"/>
	<path class="st10" d="M185.1,113.6v1.2c0.4-0.9,1.3-1.2,2.2-1.2c0.5,0,1,0.1,1.4,0.4l-0.3,0.5c-0.3-0.2-0.7-0.3-1.1-0.3
		c-1.2,0-2.2,1-2.2,2.2v3.8h-0.7v-6.6H185.1L185.1,113.6z"/>
	<path class="st10" d="M197.4,113.6c0,2.2,0,4.4,0,6.6h-0.7v-1.4c-0.6,1-1.6,1.5-2.7,1.5c-1.8,0-3.3-1.4-3.3-3.4s1.5-3.4,3.3-3.4
		c1.1,0,2.1,0.5,2.7,1.5v-1.4L197.4,113.6L197.4,113.6z M191.3,116.9c0,1.7,1.2,2.8,2.7,2.8c3.7,0,3.7-5.5,0-5.5
		C192.5,114.1,191.3,115.2,191.3,116.9z"/>
	<path class="st10" d="M201.1,113.6v1.2c0.5-0.9,1.4-1.3,2.3-1.3c1.8,0,3,1.1,3,2.9v3.8h-0.7v-3.8c0-1.5-0.9-2.3-2.3-2.3
		c-1.4,0-2.3,1-2.3,2.4v3.7h-0.7v-6.6L201.1,113.6L201.1,113.6z"/>
	<path class="st10" d="M215.8,110.8v9.3h-0.6v-1.5c-0.5,1-1.6,1.6-2.7,1.6c-1.8,0-3.3-1.2-3.3-3.4s1.5-3.4,3.3-3.4
		c1.1,0,2.2,0.5,2.7,1.5v-4.2L215.8,110.8L215.8,110.8z M209.8,116.9c0,1.8,1.2,2.8,2.7,2.8s2.7-1.1,2.7-2.8c0-1.6-1.2-2.8-2.7-2.8
		S209.8,115,209.8,116.9z"/>
	<path class="st10" d="M223.7,116.9c0-2.1,1.5-3.4,3.3-3.4c1.9,0,3.3,1.3,3.3,3.4s-1.5,3.4-3.3,3.4
		C225.2,120.2,223.7,119,223.7,116.9z M229.7,116.9c0-1.7-1.2-2.8-2.7-2.8s-2.7,1.1-2.7,2.8s1.2,2.7,2.7,2.7
		S229.7,118.6,229.7,116.9z"/>
	<path class="st10" d="M233.9,120.2v-6h-1.3v-0.6h1.3V113c0-1.3,0.5-2.3,2-2.3c0.5,0,0.9,0.2,1.3,0.5l-0.3,0.5
		c-0.4-0.2-0.6-0.3-1-0.3c-0.8,0-1.3,0.5-1.3,1.7v0.6h2.2v0.6h-2.2v6L233.9,120.2L233.9,120.2z"/>
	<path class="st10" d="M245.2,110.8v4c0.5-0.9,1.5-1.3,2.4-1.3c1.8,0,2.8,1.2,2.8,2.9v3.8h-0.6v-3.8c0-1.4-0.6-2.3-2.1-2.3
		c-1.4,0-2.3,1.1-2.3,2.4v3.6h-0.7v-9.3L245.2,110.8L245.2,110.8z"/>
	<path class="st10" d="M258.5,120.2V119c-0.5,0.9-1.4,1.3-2.3,1.3c-1.8,0-3-1.1-3-2.9v-3.8h0.7v3.8c0,1.5,0.9,2.3,2.3,2.3
		c1.4,0,2.3-1,2.3-2.4v-3.7h0.7v6.6L258.5,120.2L258.5,120.2z"/>
	<path class="st10" d="M272,120.2v-3.9c0-1.3-0.9-2.2-2.1-2.2c-1.3,0-2.1,0.9-2.1,2.2v3.9h-0.7v-3.9c0-1.3-0.9-2.2-2.1-2.2
		c-1.3,0-2.1,0.9-2.1,2.2v3.9h-0.7v-6.6h0.6v1.1c0.5-0.9,1.3-1.2,2.1-1.2c1,0,2.1,0.5,2.4,1.6c0.4-1.1,1.4-1.6,2.4-1.6
		c1.6,0,2.8,1.1,2.8,2.8v3.9C272.5,120.2,272,120.2,272,120.2z"/>
	<path class="st10" d="M282.1,113.6c0,2.2,0,4.4,0,6.6h-0.7v-1.4c-0.6,1-1.6,1.5-2.7,1.5c-1.8,0-3.3-1.4-3.3-3.4s1.5-3.4,3.3-3.4
		c1.1,0,2.1,0.5,2.7,1.5v-1.4L282.1,113.6L282.1,113.6z M276.1,116.9c0,1.7,1.2,2.8,2.7,2.8c3.7,0,3.7-5.5,0-5.5
		C277.3,114.1,276.1,115.2,276.1,116.9z"/>
	<path class="st10" d="M285.9,113.6v1.2c0.5-0.9,1.4-1.3,2.3-1.3c1.8,0,3,1.1,3,2.9v3.8h-0.7v-3.8c0-1.5-0.9-2.3-2.3-2.3
		c-1.4,0-2.3,1-2.3,2.4v3.7h-0.7v-6.6L285.9,113.6L285.9,113.6z"/>
	<path class="st10" d="M307.2,115.4c0.1,2.4-1.5,4.8-4.7,4.8c-1.1,0-2.1,0-3.2,0v-9.3c1.1,0,2.1,0,3.2,0
		C305.6,110.8,307.1,113.1,307.2,115.4z M300,111.5v8h2.4c2.8,0,4-2.1,4-4.1c0-1.9-1.3-3.9-4-3.9H300z"/>
	<path class="st10" d="M310.5,110.8l6.3,7.7v-7.7h0.7v9.3h-0.3l-6.3-7.7v7.7h-0.7v-9.3H310.5z"/>
	<path class="st10" d="M328.3,120.2l-1-2.3h-5.6l-1,2.3h-0.8l4.2-9.3h0.8l4.2,9.3H328.3z M327,117.2l-2.5-5.7l-2.5,5.7H327z"/>
	<path class="st10" d="M337.2,111.4c0,0.7-1.1,0.7-1.1,0S337.2,110.7,337.2,111.4z M336.3,113.5v6.6h0.7v-6.6H336.3z"/>
	<path class="st10" d="M344.7,114.8c-0.7-0.6-1.3-0.7-2.1-0.7c-1,0-2,0.4-2,1.2c0,0.9,1.2,1.1,2,1.2c1.2,0.2,2.8,0.4,2.7,1.9
		c0,1.5-1.5,1.8-2.7,1.8s-2.3-0.4-2.9-1.3l0.5-0.4c0.5,0.8,1.5,1.1,2.4,1.1c0.8,0,2-0.2,2.1-1.3c0-0.9-1.1-1.1-2.1-1.3
		c-1.3-0.2-2.5-0.5-2.6-1.8c0-1.3,1.3-1.9,2.6-1.8c1,0,1.8,0.3,2.5,0.9L344.7,114.8z"/>
	<path class="st10" d="M146.6,127.4c0-2,1.9-2.6,3.6-2.6s3.6,0.7,3.6,2.7c0,1.9-1.9,2.7-3.6,2.7c-1.4,0-2.9,0.3-2.9,1.9v1.4h6.4v0.7
		h-7.1v-2.1c0-2.1,1.9-2.6,3.6-2.6c1.2,0,2.9-0.5,2.9-2c0-1.6-1.7-2.1-2.9-2.1s-2.9,0.4-2.9,2L146.6,127.4L146.6,127.4z"/>
	<path class="st10" d="M157.7,133.9c0,0.7-1.1,0.7-1.1,0S157.7,133.2,157.7,133.9z"/>
	<path class="st10" d="M160.8,129.2v-4.3h6.5v0.6h-5.8v3h3c2.5,0,3.3,1.4,3.3,2.9s-1.1,2.9-3.6,2.9c-1.7,0-3.6-0.6-3.6-2.6h0.7
		c0,1.6,1.6,1.9,2.9,1.9c2,0,2.9-0.9,2.9-2.2c0-1.1-0.6-2.2-2.6-2.2L160.8,129.2L160.8,129.2z"/>
	<path class="st10" d="M176.2,127.7v1.2c0.5-0.9,1.4-1.3,2.3-1.3c1.8,0,3,1.1,3,2.9v3.8h-0.7v-3.8c0-1.5-0.9-2.3-2.3-2.3
		c-1.4,0-2.3,1-2.3,2.4v3.7h-0.7v-6.6L176.2,127.7L176.2,127.7z"/>
	<path class="st10" d="M190.9,127.7c0,2.2,0,4.4,0,6.6h-0.7v-1.4c-0.6,1-1.6,1.5-2.7,1.5c-1.8,0-3.3-1.4-3.3-3.4s1.5-3.4,3.3-3.4
		c1.1,0,2.1,0.5,2.7,1.5v-1.4L190.9,127.7L190.9,127.7z M184.9,131c0,1.7,1.2,2.8,2.7,2.8c3.7,0,3.7-5.5,0-5.5
		C186.1,128.2,184.9,129.3,184.9,131z"/>
	<path class="st10" d="M194.7,127.7v1.2c0.5-0.9,1.4-1.3,2.3-1.3c1.8,0,3,1.1,3,2.9v3.8h-0.7v-3.8c0-1.5-0.9-2.3-2.3-2.3
		c-1.4,0-2.3,1-2.3,2.4v3.7H194v-6.6L194.7,127.7L194.7,127.7z"/>
	<path class="st10" d="M202.7,131c0-2.1,1.5-3.4,3.3-3.4c1.9,0,3.3,1.3,3.3,3.4s-1.5,3.4-3.3,3.4S202.7,133.1,202.7,131z M208.8,131
		c0-1.7-1.2-2.8-2.7-2.8s-2.7,1.1-2.7,2.8s1.2,2.7,2.7,2.7C207.5,133.7,208.8,132.7,208.8,131z"/>
	<path class="st10" d="M222,134.3v-3.9c0-1.3-0.9-2.2-2.1-2.2c-1.3,0-2.1,0.9-2.1,2.2v3.9h-0.7v-3.9c0-1.3-0.9-2.2-2.1-2.2
		c-1.3,0-2.1,0.9-2.1,2.2v3.9h-0.7v-6.6h0.6v1.1c0.5-0.9,1.3-1.2,2.1-1.2c1,0,2.1,0.5,2.4,1.6c0.4-1.1,1.4-1.6,2.4-1.6
		c1.6,0,2.8,1.1,2.8,2.8v3.9H222L222,134.3z"/>
	<path class="st10" d="M225.4,131c0-2,1.5-3.4,3.3-3.4s3.5,1.1,3.3,3.7h-5.9c0.1,1.5,1.3,2.4,2.7,2.4c0.9,0,1.9-0.3,2.4-1l0.5,0.4
		c-0.6,0.8-1.8,1.3-2.8,1.3C226.9,134.4,225.4,133.1,225.4,131z M231.5,130.7c0-1.6-1.1-2.5-2.7-2.5c-1.4,0-2.5,0.9-2.7,2.5H231.5z"
		/>
	<path class="st10" d="M236.3,125.7v2h2.2v0.5h-2.2v4c0,0.9,0.2,1.5,1.2,1.5c0.3,0,0.7-0.1,1-0.3l0.2,0.5c-0.4,0.2-0.8,0.3-1.2,0.3
		c-1.4,0-1.9-0.8-1.9-2.1v-4h-1.4v-0.5h1.4v-1.9L236.3,125.7L236.3,125.7z"/>
	<path class="st10" d="M241,131c0-2,1.5-3.4,3.3-3.4s3.5,1.1,3.3,3.7h-5.9c0.1,1.5,1.3,2.4,2.7,2.4c0.9,0,1.9-0.3,2.4-1l0.5,0.4
		c-0.6,0.8-1.8,1.3-2.8,1.3C242.5,134.4,241,133.1,241,131z M247,130.7c0-1.6-1.1-2.5-2.7-2.5c-1.4,0-2.5,0.9-2.7,2.5H247z"/>
	<path class="st10" d="M251.2,127.7v1.2c0.4-0.9,1.3-1.2,2.2-1.2c0.5,0,1,0.1,1.4,0.4l-0.3,0.5c-0.3-0.2-0.7-0.3-1.1-0.3
		c-1.2,0-2.2,1-2.2,2.2v3.8h-0.7v-6.6C250.5,127.7,251.2,127.7,251.2,127.7z"/>
	<path class="st10" d="M261.7,128.9c-0.7-0.6-1.3-0.7-2.1-0.7c-1,0-2,0.4-2,1.2c0,0.9,1.2,1.1,2,1.2c1.2,0.2,2.8,0.4,2.7,1.9
		c0,1.5-1.5,1.8-2.7,1.8c-1.2,0-2.3-0.4-2.9-1.3l0.5-0.4c0.5,0.8,1.5,1.1,2.4,1.1c0.8,0,2-0.2,2.1-1.3c0-0.9-1.1-1.1-2.1-1.3
		c-1.3-0.2-2.5-0.5-2.6-1.8c0-1.3,1.3-1.9,2.6-1.8c1,0,1.8,0.3,2.5,0.9L261.7,128.9z"/>
	<path class="st10" d="M271,125.5c0,0.7-1.1,0.7-1.1,0C270,124.8,271,124.8,271,125.5z M270.1,127.7v6.6h0.7v-6.6
		C270.8,127.7,270.1,127.7,270.1,127.7z"/>
	<path class="st10" d="M274.6,127.7v1.2c0.5-0.9,1.4-1.3,2.3-1.3c1.8,0,3,1.1,3,2.9v3.8h-0.7v-3.8c0-1.5-0.9-2.3-2.3-2.3
		c-1.4,0-2.3,1-2.3,2.4v3.7H274v-6.6L274.6,127.7L274.6,127.7z"/>
	<path class="st10" d="M294.3,124.9v9.3h-0.6v-1.5c-0.5,1-1.6,1.6-2.7,1.6c-1.8,0-3.3-1.2-3.3-3.4s1.5-3.4,3.3-3.4
		c1.1,0,2.2,0.5,2.7,1.5v-4.2L294.3,124.9L294.3,124.9z M288.3,131c0,1.8,1.2,2.8,2.7,2.8s2.7-1.1,2.7-2.8c0-1.6-1.2-2.8-2.7-2.8
		S288.3,129.1,288.3,131z"/>
	<path class="st10" d="M298.4,125.5c0,0.7-1.1,0.7-1.1,0S298.4,124.8,298.4,125.5z M297.5,127.7v6.6h0.7v-6.6
		C298.2,127.7,297.5,127.7,297.5,127.7z"/>
	<path class="st10" d="M307.7,127.7c0,2.2,0,4.4,0,6.6H307v-1.4c-0.6,1-1.6,1.5-2.7,1.5c-1.8,0-3.3-1.4-3.3-3.4s1.5-3.4,3.3-3.4
		c1.1,0,2.1,0.5,2.7,1.5v-1.4L307.7,127.7L307.7,127.7z M301.7,131c0,1.7,1.2,2.8,2.7,2.8c3.7,0,3.7-5.5,0-5.5
		C302.9,128.2,301.7,129.3,301.7,131z"/>
	<path class="st10" d="M320.6,134.3v-3.9c0-1.3-0.9-2.2-2.1-2.2c-1.3,0-2.1,0.9-2.1,2.2v3.9h-0.7v-3.9c0-1.3-0.9-2.2-2.1-2.2
		c-1.3,0-2.1,0.9-2.1,2.2v3.9h-0.7v-6.6h0.6v1.1c0.5-0.9,1.3-1.2,2.1-1.2c1,0,2.1,0.5,2.4,1.6c0.4-1.1,1.4-1.6,2.4-1.6
		c1.6,0,2.8,1.1,2.8,2.8v3.9H320.6L320.6,134.3z"/>
	<path class="st10" d="M324,131c0-2,1.5-3.4,3.3-3.4s3.5,1.1,3.3,3.7h-5.9c0.1,1.5,1.3,2.4,2.7,2.4c0.9,0,1.9-0.3,2.4-1l0.5,0.4
		c-0.6,0.8-1.8,1.3-2.8,1.3C325.5,134.4,324,133.1,324,131z M330,130.7c0-1.6-1.1-2.5-2.7-2.5c-1.4,0-2.5,0.9-2.7,2.5H330z"/>
	<path class="st10" d="M334.9,125.7v2h2.2v0.5h-2.2v4c0,0.9,0.2,1.5,1.2,1.5c0.3,0,0.7-0.1,1-0.3l0.2,0.5c-0.4,0.2-0.8,0.3-1.2,0.3
		c-1.4,0-1.9-0.8-1.9-2.1v-4h-1.4v-0.5h1.4v-1.9L334.9,125.7L334.9,125.7z"/>
	<path class="st10" d="M339.6,131c0-2,1.5-3.4,3.3-3.4s3.5,1.1,3.3,3.7h-5.9c0.1,1.5,1.3,2.4,2.7,2.4c0.9,0,1.9-0.3,2.4-1l0.5,0.4
		c-0.6,0.8-1.8,1.3-2.8,1.3C341.1,134.4,339.6,133.1,339.6,131z M345.6,130.7c0-1.6-1.1-2.5-2.7-2.5c-1.4,0-2.5,0.9-2.7,2.5H345.6z"
		/>
	<path class="st10" d="M349.8,127.7v1.2c0.4-0.9,1.3-1.2,2.2-1.2c0.5,0,1,0.1,1.4,0.4l-0.3,0.5c-0.3-0.2-0.7-0.3-1.1-0.3
		c-1.2,0-2.2,1-2.2,2.2v3.8h-0.7v-6.6C349.1,127.7,349.8,127.7,349.8,127.7z"/>
</g>
<g>
	<path class="st10" d="M370.5,472.2V468h-5.9v4.2h-0.7v-9.3h0.7v4.4h5.9v-4.4h0.7v9.3H370.5z"/>
	<path class="st10" d="M379.8,472.2V471c-0.5,0.9-1.4,1.3-2.3,1.3c-1.8,0-3-1.1-3-2.9v-3.8h0.7v3.8c0,1.5,0.9,2.3,2.3,2.3
		s2.3-1,2.3-2.4v-3.7h0.7v6.6L379.8,472.2L379.8,472.2z"/>
	<path class="st10" d="M393.2,472.2v-3.9c0-1.3-0.9-2.2-2.1-2.2c-1.3,0-2.1,0.9-2.1,2.2v3.9h-0.7v-3.9c0-1.3-0.9-2.2-2.1-2.2
		c-1.3,0-2.1,0.9-2.1,2.2v3.9h-0.7v-6.6h0.6v1.1c0.5-0.9,1.3-1.2,2.1-1.2c1,0,2.1,0.5,2.4,1.6c0.4-1.1,1.4-1.6,2.4-1.6
		c1.6,0,2.8,1.1,2.8,2.8v3.9L393.2,472.2L393.2,472.2z"/>
	<path class="st10" d="M403.4,465.6c0,2.2,0,4.4,0,6.6h-0.7v-1.4c-0.6,1-1.6,1.5-2.7,1.5c-1.8,0-3.3-1.4-3.3-3.4s1.5-3.4,3.3-3.4
		c1.1,0,2.1,0.5,2.7,1.5v-1.4L403.4,465.6L403.4,465.6z M397.4,468.9c0,1.7,1.2,2.8,2.7,2.8c3.7,0,3.7-5.5,0-5.5
		C398.6,466.2,397.4,467.3,397.4,468.9z"/>
	<path class="st10" d="M407.1,465.6v1.2c0.5-0.9,1.4-1.3,2.3-1.3c1.8,0,3,1.1,3,2.9v3.8h-0.7v-3.8c0-1.5-0.9-2.3-2.3-2.3
		s-2.3,1-2.3,2.4v3.7h-0.7v-6.6L407.1,465.6L407.1,465.6z"/>
	<path class="st10" d="M421.1,462.9v4c0.5-0.9,1.5-1.3,2.4-1.3c1.8,0,2.8,1.2,2.8,2.9v3.8h-0.6v-3.8c0-1.4-0.6-2.3-2.1-2.3
		c-1.4,0-2.3,1.1-2.3,2.4v3.6h-0.7v-9.3L421.1,462.9L421.1,462.9z"/>
	<path class="st10" d="M435.6,465.6c0,2.2,0,4.4,0,6.6H435v-1.4c-0.6,1-1.6,1.5-2.7,1.5c-1.8,0-3.3-1.4-3.3-3.4s1.5-3.4,3.3-3.4
		c1.1,0,2.1,0.5,2.7,1.5v-1.4L435.6,465.6L435.6,465.6z M429.6,468.9c0,1.7,1.2,2.8,2.7,2.8c3.7,0,3.7-5.5,0-5.5
		C430.8,466.2,429.6,467.3,429.6,468.9z"/>
	<path class="st10" d="M439.6,463.5c0,0.7-1.1,0.7-1.1,0S439.6,462.8,439.6,463.5z M438.7,465.6v6.6h0.7v-6.6H438.7z"/>
	<path class="st10" d="M443.2,465.6v1.2c0.4-0.9,1.3-1.2,2.2-1.2c0.5,0,1,0.1,1.4,0.4l-0.3,0.5c-0.3-0.2-0.7-0.3-1.1-0.3
		c-1.2,0-2.2,1-2.2,2.2v3.8h-0.7v-6.6H443.2L443.2,465.6z"/>
	<path class="st10" d="M455,463.5c0,0.7-1.1,0.7-1.1,0S455,462.8,455,463.5z M454.1,465.6v6.6h0.7v-6.6H454.1z"/>
	<path class="st10" d="M462.5,466.8c-0.7-0.6-1.3-0.7-2.1-0.7c-1,0-2,0.4-2,1.2c0,0.9,1.2,1.1,2,1.2c1.2,0.2,2.8,0.4,2.7,1.9
		c0,1.5-1.5,1.8-2.7,1.8s-2.3-0.4-2.9-1.3l0.5-0.4c0.5,0.8,1.5,1.1,2.4,1.1c0.8,0,2-0.2,2.1-1.3c0-0.9-1.1-1.1-2.1-1.3
		c-1.3-0.2-2.5-0.5-2.6-1.8c0-1.3,1.3-1.9,2.6-1.8c1,0,1.8,0.3,2.5,0.9L462.5,466.8z"/>
	<path class="st10" d="M477.3,465.6c0,2.2,0,4.4,0,6.6h-0.7v-1.4c-0.6,1-1.6,1.5-2.7,1.5c-1.8,0-3.3-1.4-3.3-3.4s1.5-3.4,3.3-3.4
		c1.1,0,2.1,0.5,2.7,1.5v-1.4L477.3,465.6L477.3,465.6z M471.2,468.9c0,1.7,1.2,2.8,2.7,2.8c3.7,0,3.7-5.5,0-5.5
		C472.4,466.2,471.2,467.3,471.2,468.9z"/>
	<path class="st10" d="M480.4,475v-9.3h0.6v1.6c0.5-1,1.6-1.7,2.9-1.7c1.8,0.1,3.2,1.3,3.2,3.4c0,2.2-1.5,3.4-3.3,3.4
		c-1.1,0-2.2-0.5-2.7-1.6v4.3L480.4,475L480.4,475z M486.4,468.9c0-1.9-1.2-2.8-2.7-2.8s-2.7,1.2-2.7,2.8s1.2,2.8,2.7,2.8
		S486.4,470.8,486.4,468.9z"/>
	<path class="st10" d="M490,475v-9.3h0.6v1.6c0.5-1,1.6-1.7,2.9-1.7c1.8,0.1,3.2,1.3,3.2,3.4c0,2.2-1.5,3.4-3.3,3.4
		c-1.1,0-2.2-0.5-2.7-1.6v4.3L490,475L490,475z M496,468.9c0-1.9-1.2-2.8-2.7-2.8s-2.7,1.2-2.7,2.8s1.2,2.8,2.7,2.8
		S496,470.8,496,468.9z"/>
	<path class="st10" d="M500.2,465.6v1.2c0.4-0.9,1.3-1.2,2.2-1.2c0.5,0,1,0.1,1.4,0.4l-0.3,0.5c-0.3-0.2-0.7-0.3-1.1-0.3
		c-1.2,0-2.2,1-2.2,2.2v3.8h-0.7v-6.6H500.2L500.2,465.6z"/>
	<path class="st10" d="M505.9,468.9c0-2.1,1.5-3.4,3.3-3.4s3.3,1.3,3.3,3.4s-1.5,3.4-3.3,3.4S505.9,471,505.9,468.9z M511.9,468.9
		c0-1.7-1.2-2.8-2.7-2.8s-2.7,1.1-2.7,2.8s1.2,2.7,2.7,2.7C510.7,471.7,511.9,470.7,511.9,468.9z"/>
	<path class="st10" d="M517.6,468.3l2-2.7h0.8l0,0l-2.4,3.1l2.5,3.4l0,0h-0.8l-2.2-2.9l-2.2,2.9h-0.8l0,0l2.5-3.4l-2.4-3.1l0,0h0.8
		L517.6,468.3z"/>
	<path class="st10" d="M523.9,463.5c0,0.7-1.1,0.7-1.1,0C522.9,462.8,523.9,462.8,523.9,463.5z M523.1,465.6v6.6h0.7v-6.6H523.1z"/>
	<path class="st10" d="M536.7,472.2v-3.9c0-1.3-0.9-2.2-2.1-2.2c-1.3,0-2.1,0.9-2.1,2.2v3.9h-0.7v-3.9c0-1.3-0.9-2.2-2.1-2.2
		c-1.3,0-2.1,0.9-2.1,2.2v3.9h-0.7v-6.6h0.6v1.1c0.5-0.9,1.3-1.2,2.1-1.2c1,0,2.1,0.5,2.4,1.6c0.4-1.1,1.4-1.6,2.4-1.6
		c1.6,0,2.8,1.1,2.8,2.8v3.9L536.7,472.2L536.7,472.2z"/>
	<path class="st10" d="M546.8,465.6c0,2.2,0,4.4,0,6.6h-0.7v-1.4c-0.6,1-1.6,1.5-2.7,1.5c-1.8,0-3.3-1.4-3.3-3.4s1.5-3.4,3.3-3.4
		c1.1,0,2.1,0.5,2.7,1.5v-1.4L546.8,465.6L546.8,465.6z M540.8,468.9c0,1.7,1.2,2.8,2.7,2.8c3.7,0,3.7-5.5,0-5.5
		C542,466.2,540.8,467.3,540.8,468.9z"/>
	<path class="st10" d="M551.2,463.7v2h2.2v0.5h-2.2v4c0,0.9,0.2,1.5,1.2,1.5c0.3,0,0.7-0.1,1-0.3l0.2,0.5c-0.4,0.2-0.8,0.3-1.2,0.3
		c-1.4,0-1.9-0.8-1.9-2.1v-4h-1.4v-0.5h1.4v-1.9H551.2z"/>
	<path class="st10" d="M555.9,468.9c0-2,1.5-3.4,3.3-3.4s3.5,1.1,3.3,3.7h-5.9c0.1,1.5,1.3,2.4,2.7,2.4c0.9,0,1.9-0.3,2.4-1l0.5,0.4
		c-0.6,0.8-1.8,1.3-2.8,1.3C557.4,472.3,555.9,471,555.9,468.9z M561.9,468.7c0-1.6-1.1-2.5-2.7-2.5c-1.4,0-2.5,0.9-2.7,2.5H561.9z"
		/>
	<path class="st10" d="M566.1,462.9v9.3h-0.7v-9.3H566.1z"/>
	<path class="st10" d="M575.1,465.6l-4,9.3h-0.7l1.2-2.8l-2.6-6.5h0.7l1.5,3.9l0.8,1.9l0.8-1.9l1.7-3.9H575.1z"/>
	<path class="st10" d="M383.5,481.3c-0.7,1.1-1.8,1.3-3,1.3c-1.8,0-3.6-0.8-3.6-2.9s1.9-2.9,3.6-2.9c1.8,0,3.7,0.8,3.7,2.9v4.1
		c0,1.8-1.8,2.6-3.5,2.6c-1.9,0-3.4-0.8-3.6-2.4h0.7c0.1,1.1,1.3,1.7,2.8,1.7c1.4,0,2.9-0.7,2.9-1.9V481.3L383.5,481.3z
		 M377.5,479.8c0,1.7,1.6,2.2,2.9,2.2s3-0.7,3-2.2c0-1.7-1.6-2.2-3-2.2S377.5,478,377.5,479.8z"/>
	<path class="st10" d="M387.1,480.6c0-4.9,7.1-4.9,7.1,0v2.2c0,4.9-7.1,4.9-7.1,0V480.6z M387.8,482.8c0,4,5.7,4,5.7,0v-2.2
		c0-4-5.7-4-5.7,0V482.8z"/>
	<path class="st10" d="M398,485.9c0,0.1,0,0.1,0,0.2l-0.5,1.4h-0.6l0.4-1.1c-0.2-0.1-0.3-0.2-0.3-0.5C397,485.2,398,485.2,398,485.9
		z"/>
	<path class="st10" d="M400.8,480.6c0-4.9,7.1-4.9,7.1,0v2.2c0,4.9-7.1,4.9-7.1,0V480.6z M401.5,482.8c0,4,5.7,4,5.7,0v-2.2
		c0-4-5.7-4-5.7,0V482.8z"/>
	<path class="st10" d="M410.6,480.6c0-4.9,7.1-4.9,7.1,0v2.2c0,4.9-7.1,4.9-7.1,0V480.6z M411.3,482.8c0,4,5.7,4,5.7,0v-2.2
		c0-4-5.7-4-5.7,0V482.8z"/>
	<path class="st10" d="M420.4,480.6c0-4.9,7.1-4.9,7.1,0v2.2c0,4.9-7.1,4.9-7.1,0V480.6z M421.1,482.8c0,4,5.7,4,5.7,0v-2.2
		c0-4-5.7-4-5.7,0V482.8z"/>
	<path class="st10" d="M436.1,479.8v1.2c0.5-0.9,1.4-1.3,2.3-1.3c1.8,0,3,1.1,3,2.9v3.8h-0.7v-3.8c0-1.5-0.9-2.3-2.3-2.3
		s-2.3,1-2.3,2.4v3.7h-0.7v-6.6L436.1,479.8L436.1,479.8z"/>
	<path class="st10" d="M450.8,479.8c0,2.2,0,4.4,0,6.6h-0.7V485c-0.6,1-1.6,1.5-2.7,1.5c-1.8,0-3.3-1.4-3.3-3.4s1.5-3.4,3.3-3.4
		c1.1,0,2.1,0.5,2.7,1.5v-1.4L450.8,479.8L450.8,479.8z M444.8,483c0,1.7,1.2,2.8,2.7,2.8c3.7,0,3.7-5.5,0-5.5
		C446,480.3,444.8,481.4,444.8,483z"/>
	<path class="st10" d="M454.5,479.8v1.2c0.5-0.9,1.4-1.3,2.3-1.3c1.8,0,3,1.1,3,2.9v3.8h-0.7v-3.8c0-1.5-0.9-2.3-2.3-2.3
		s-2.3,1-2.3,2.4v3.7h-0.7v-6.6L454.5,479.8L454.5,479.8z"/>
	<path class="st10" d="M462.6,483.1c0-2.1,1.5-3.4,3.3-3.4c1.9,0,3.3,1.3,3.3,3.4s-1.5,3.4-3.3,3.4
		C464.1,486.4,462.6,485.1,462.6,483.1z M468.6,483.1c0-1.7-1.2-2.8-2.7-2.8s-2.7,1.1-2.7,2.8s1.2,2.7,2.7,2.7
		S468.6,484.8,468.6,483.1z"/>
	<path class="st10" d="M481.9,486.3v-3.9c0-1.3-0.9-2.2-2.1-2.2c-1.3,0-2.1,0.9-2.1,2.2v3.9H477v-3.9c0-1.3-0.9-2.2-2.1-2.2
		c-1.3,0-2.1,0.9-2.1,2.2v3.9h-0.7v-6.6h0.6v1.1c0.5-0.9,1.3-1.2,2.1-1.2c1,0,2.1,0.5,2.4,1.6c0.4-1.1,1.4-1.6,2.4-1.6
		c1.6,0,2.8,1.1,2.8,2.8v3.9L481.9,486.3L481.9,486.3z"/>
	<path class="st10" d="M485.3,483c0-2,1.5-3.4,3.3-3.4s3.5,1.1,3.3,3.7H486c0.1,1.5,1.3,2.4,2.7,2.4c0.9,0,1.9-0.3,2.4-1l0.5,0.4
		c-0.6,0.8-1.8,1.3-2.8,1.3C486.8,486.4,485.3,485.1,485.3,483z M491.3,482.8c0-1.6-1.1-2.5-2.7-2.5c-1.4,0-2.5,0.9-2.7,2.5H491.3z"
		/>
	<path class="st10" d="M496.2,477.8v2h2.2v0.5h-2.2v4c0,0.9,0.2,1.5,1.2,1.5c0.3,0,0.7-0.1,1-0.3l0.2,0.5c-0.4,0.2-0.8,0.3-1.2,0.3
		c-1.4,0-1.9-0.8-1.9-2.1v-4h-1.4v-0.5h1.4v-1.9H496.2z"/>
	<path class="st10" d="M500.9,483c0-2,1.5-3.4,3.3-3.4s3.5,1.1,3.3,3.7h-5.9c0.1,1.5,1.3,2.4,2.7,2.4c0.9,0,1.9-0.3,2.4-1l0.5,0.4
		c-0.6,0.8-1.8,1.3-2.8,1.3C502.4,486.4,500.9,485.1,500.9,483z M506.9,482.8c0-1.6-1.1-2.5-2.7-2.5c-1.4,0-2.5,0.9-2.7,2.5H506.9z"
		/>
	<path class="st10" d="M511.1,479.8v1.2c0.4-0.9,1.3-1.2,2.2-1.2c0.5,0,1,0.1,1.4,0.4l-0.3,0.5c-0.3-0.2-0.7-0.3-1.1-0.3
		c-1.2,0-2.2,1-2.2,2.2v3.8h-0.7v-6.6H511.1L511.1,479.8z"/>
	<path class="st10" d="M521.6,481c-0.7-0.6-1.3-0.7-2.1-0.7c-1,0-2,0.4-2,1.2c0,0.9,1.2,1.1,2,1.2c1.2,0.2,2.8,0.4,2.7,1.9
		c0,1.5-1.5,1.8-2.7,1.8s-2.3-0.4-2.9-1.3l0.5-0.4c0.5,0.8,1.5,1.1,2.4,1.1c0.8,0,2-0.2,2.1-1.3c0-0.9-1.1-1.1-2.1-1.3
		c-1.3-0.2-2.5-0.5-2.6-1.8c0-1.3,1.3-1.9,2.6-1.8c1,0,1.8,0.3,2.5,0.9L521.6,481z"/>
	<path class="st10" d="M536.8,486.3h-0.7l-1.1-2.9l-0.8-2.6l-0.8,2.6l-1.1,2.9h-0.7l-2.3-6.6h0.7l2,5.8l2-5.8h0.5l2,5.8l2-5.8h0.7
		L536.8,486.3z"/>
	<path class="st10" d="M542.4,477.6c0,0.7-1.1,0.7-1.1,0C541.4,476.9,542.4,476.9,542.4,477.6z M541.6,479.7v6.6h0.7v-6.6H541.6z"/>
	<path class="st10" d="M551.7,477v9.3h-0.6v-1.5c-0.5,1-1.6,1.6-2.7,1.6c-1.8,0-3.3-1.2-3.3-3.4s1.5-3.4,3.3-3.4
		c1.1,0,2.2,0.5,2.7,1.5V477H551.7z M545.7,483c0,1.8,1.2,2.8,2.7,2.8s2.7-1.1,2.7-2.8s-1.2-2.8-2.7-2.8
		C546.9,480.3,545.7,481.2,545.7,483z"/>
	<path class="st10" d="M554.7,483c0-2,1.5-3.4,3.3-3.4s3.5,1.1,3.3,3.7h-5.9c0.1,1.5,1.3,2.4,2.7,2.4c0.9,0,1.9-0.3,2.4-1l0.5,0.4
		c-0.6,0.8-1.8,1.3-2.8,1.3C556.2,486.4,554.7,485.1,554.7,483z M560.7,482.8c0-1.6-1.1-2.5-2.7-2.5c-1.4,0-2.5,0.9-2.7,2.5H560.7z"
		/>
</g>
<polygon class="st9" points="467.3,628.6 416.6,599.3 416.6,540.8 467.3,511.5 518,540.8 518,599.3 "/>
<path class="st11" d="M488.3,546c0,0-32.5,11.2-36.5,39.9c2.5,6.7,6.3,5.2,8,3.6c1.6-1.6-3.7-27.5,30.2-42.7
	C492.8,545.1,490.7,545,488.3,546z"/>
<polygon class="st9" points="467.3,160.8 416.6,131.6 416.6,73 467.3,43.8 518,73 518,131.6 "/>
<g>
	<line class="st11" x1="443.3" y1="112.9" x2="443.3" y2="102"/>
	<line class="st11" x1="446.7" y1="112.9" x2="446.7" y2="102"/>
	<line class="st11" x1="453.3" y1="112.9" x2="453.3" y2="102"/>
	<line class="st11" x1="450" y1="112.9" x2="450" y2="102"/>
	<line class="st11" x1="456.7" y1="112.9" x2="456.7" y2="102"/>
	<line class="st11" x1="460" y1="112.9" x2="460" y2="102"/>
	<line class="st11" x1="463.3" y1="112.9" x2="463.3" y2="102"/>
	<line class="st11" x1="470" y1="112.9" x2="470" y2="102"/>
	<line class="st11" x1="466.8" y1="112.9" x2="466.8" y2="102"/>
	<line class="st11" x1="473.4" y1="112.9" x2="473.4" y2="102"/>
	<line class="st11" x1="476.7" y1="112.9" x2="476.7" y2="102"/>
	<line class="st11" x1="480" y1="112.9" x2="480" y2="102"/>
	<line class="st11" x1="486.8" y1="112.9" x2="486.8" y2="102"/>
	<line class="st11" x1="490.2" y1="112.9" x2="490.2" y2="102"/>
	<line class="st11" x1="483.4" y1="112.9" x2="483.4" y2="94.3"/>
	<rect x="440" y="86.7" class="st11" width="54.3" height="28.8"/>
	<g>
		<path class="st10" d="M478.6,98.3h-1.7v-6.5c-0.6,0.6-1.4,1-2.2,1.3v-1.6c0.4-0.1,0.9-0.4,1.5-0.8c0.5-0.4,0.9-0.9,1.1-1.4h1.4
			L478.6,98.3L478.6,98.3z"/>
	</g>
</g>
<g>
	<path class="st10" d="M599,120.2l-1-2.3h-5.6l-1,2.3h-0.8l4.2-9.3h0.8l4.2,9.3H599z M597.7,117.2l-2.5-5.7l-2.5,5.7H597.7z"/>
	<path class="st10" d="M612.4,113.3l0.4,0.4l-0.6,0.7c0.5,0.5,0.8,1.2,0.8,2.2c0,1.1-0.7,2.3-1.8,2.8c1.2,0.4,1.8,1.2,1.8,2.4
		c0,1.8-1.4,2.6-3.1,2.6s-3.1-1-3.1-2.6h0.7c0,1.3,1.1,2,2.5,2s2.5-0.6,2.5-2s-1.3-2-2.5-2c-1.9,0-3.1-1.4-3.1-3.2
		c0-2.1,1.4-3.2,3.1-3.2c0.7,0,1.4,0.2,1.9,0.6L612.4,113.3z M607.4,116.7c0,1.4,0.9,2.5,2.4,2.5c1.4,0,2.5-1.2,2.5-2.5
		c0-1.7-1.1-2.6-2.5-2.6C608.5,114.1,607.4,114.9,607.4,116.7z"/>
	<path class="st10" d="M616.2,113.6v1.2c0.4-0.9,1.3-1.2,2.2-1.2c0.5,0,1,0.1,1.4,0.4l-0.3,0.5c-0.3-0.2-0.7-0.3-1.1-0.3
		c-1.2,0-2.2,1-2.2,2.2v3.8h-0.7v-6.6H616.2L616.2,113.6z"/>
	<path class="st10" d="M628.5,113.6c0,2.2,0,4.4,0,6.6h-0.7v-1.4c-0.6,1-1.6,1.5-2.7,1.5c-1.8,0-3.3-1.4-3.3-3.4s1.5-3.4,3.3-3.4
		c1.1,0,2.1,0.5,2.7,1.5v-1.4L628.5,113.6L628.5,113.6z M622.5,116.9c0,1.7,1.2,2.8,2.7,2.8c3.7,0,3.7-5.5,0-5.5
		C623.7,114.1,622.5,115.2,622.5,116.9z"/>
	<path class="st10" d="M632.5,111.4c0,0.7-1.1,0.7-1.1,0S632.5,110.7,632.5,111.4z M631.6,113.5v6.6h0.7v-6.6H631.6z"/>
	<path class="st10" d="M636.1,113.6v1.2c0.5-0.9,1.4-1.3,2.3-1.3c1.8,0,3,1.1,3,2.9v3.8h-0.7v-3.8c0-1.5-0.9-2.3-2.3-2.3
		c-1.4,0-2.3,1-2.3,2.4v3.7h-0.7v-6.6L636.1,113.6L636.1,113.6z"/>
	<path class="st10" d="M649.2,116.9c0-2.1,1.5-3.4,3.3-3.4s3.3,1.3,3.3,3.4s-1.5,3.4-3.3,3.4S649.2,119,649.2,116.9z M655.2,116.9
		c0-1.7-1.2-2.8-2.7-2.8s-2.7,1.1-2.7,2.8s1.2,2.7,2.7,2.7S655.2,118.6,655.2,116.9z"/>
	<path class="st10" d="M659.4,120.2v-6H658v-0.6h1.3V113c0-1.3,0.5-2.3,2-2.3c0.5,0,0.9,0.2,1.3,0.5l-0.3,0.5
		c-0.4-0.2-0.6-0.3-1-0.3c-0.8,0-1.3,0.5-1.3,1.7v0.6h2.2v0.6H660v6L659.4,120.2L659.4,120.2z"/>
	<path class="st10" d="M674.6,114.8c-0.7-0.6-1.3-0.7-2.1-0.7c-1,0-2,0.4-2,1.2c0,0.9,1.2,1.1,2,1.2c1.2,0.2,2.8,0.4,2.7,1.9
		c0,1.5-1.5,1.8-2.7,1.8s-2.3-0.4-2.9-1.3l0.5-0.4c0.5,0.8,1.5,1.1,2.4,1.1c0.8,0,2-0.2,2.1-1.3c0-0.9-1.1-1.1-2.1-1.3
		c-1.3-0.2-2.5-0.5-2.6-1.8c0-1.3,1.3-1.9,2.6-1.8c1,0,1.8,0.3,2.5,0.9L674.6,114.8z"/>
	<path class="st10" d="M684.3,113.6c0,2.2,0,4.4,0,6.6h-0.7v-1.4c-0.6,1-1.6,1.5-2.7,1.5c-1.8,0-3.3-1.4-3.3-3.4s1.5-3.4,3.3-3.4
		c1.1,0,2.1,0.5,2.7,1.5v-1.4L684.3,113.6L684.3,113.6z M678.3,116.9c0,1.7,1.2,2.8,2.7,2.8c3.7,0,3.7-5.5,0-5.5
		C679.5,114.1,678.3,115.2,678.3,116.9z"/>
	<path class="st10" d="M688.1,113.6v1.2c0.5-0.9,1.4-1.3,2.3-1.3c1.8,0,3,1.1,3,2.9v3.8h-0.7v-3.8c0-1.5-0.9-2.3-2.3-2.3
		c-1.4,0-2.3,1-2.3,2.4v3.7h-0.7v-6.6L688.1,113.6L688.1,113.6z"/>
	<path class="st10" d="M702.8,110.8v9.3h-0.6v-1.5c-0.5,1-1.6,1.6-2.7,1.6c-1.8,0-3.3-1.2-3.3-3.4s1.5-3.4,3.3-3.4
		c1.1,0,2.2,0.5,2.7,1.5v-4.2L702.8,110.8L702.8,110.8z M696.7,116.9c0,1.8,1.2,2.8,2.7,2.8s2.7-1.1,2.7-2.8c0-1.6-1.2-2.8-2.7-2.8
		S696.7,115,696.7,116.9z"/>
	<path class="st10" d="M711.8,111.4c0,0.7-1.1,0.7-1.1,0C710.8,110.7,711.8,110.7,711.8,111.4z M711,113.5v6.6h0.7v-6.6H711z"/>
	<path class="st10" d="M719.3,114.8c-0.7-0.6-1.3-0.7-2.1-0.7c-1,0-2,0.4-2,1.2c0,0.9,1.2,1.1,2,1.2c1.2,0.2,2.8,0.4,2.7,1.9
		c0,1.5-1.5,1.8-2.7,1.8s-2.3-0.4-2.9-1.3l0.5-0.4c0.5,0.8,1.5,1.1,2.4,1.1c0.8,0,2-0.2,2.1-1.3c0-0.9-1.1-1.1-2.1-1.3
		c-1.3-0.2-2.5-0.5-2.6-1.8c0-1.3,1.3-1.9,2.6-1.8c1,0,1.8,0.3,2.5,0.9L719.3,114.8z"/>
	<path class="st10" d="M727.8,115.1v-4.3h6.5v0.6h-5.8v3h3c2.5,0,3.3,1.4,3.3,2.9s-1.1,2.9-3.6,2.9c-1.7,0-3.6-0.6-3.6-2.6h0.7
		c0,1.6,1.6,1.9,2.9,1.9c2,0,2.9-0.9,2.9-2.2c0-1.1-0.6-2.2-2.6-2.2L727.8,115.1L727.8,115.1z"/>
	<path class="st10" d="M737.4,114.4c0-4.9,7.1-4.9,7.1,0v2.2c0,4.9-7.1,4.9-7.1,0V114.4z M738.1,116.6c0,4,5.7,4,5.7,0v-2.2
		c0-4-5.7-4-5.7,0V116.6z"/>
	<path class="st10" d="M747.2,114.4c0-4.9,7.1-4.9,7.1,0v2.2c0,4.9-7.1,4.9-7.1,0V114.4z M747.9,116.6c0,4,5.7,4,5.7,0v-2.2
		c0-4-5.7-4-5.7,0V116.6z"/>
	<path class="st10" d="M758.1,119.8c0,0.1,0,0.1,0,0.2l-0.5,1.4H757l0.4-1.1c-0.2-0.1-0.3-0.2-0.3-0.5
		C757.1,119.1,758.1,119.1,758.1,119.8z"/>
	<path class="st10" d="M760.9,114.4c0-4.9,7.1-4.9,7.1,0v2.2c0,4.9-7.1,4.9-7.1,0V114.4z M761.6,116.6c0,4,5.7,4,5.7,0v-2.2
		c0-4-5.7-4-5.7,0V116.6z"/>
	<path class="st10" d="M770.7,114.4c0-4.9,7.1-4.9,7.1,0v2.2c0,4.9-7.1,4.9-7.1,0V114.4z M771.4,116.6c0,4,5.7,4,5.7,0v-2.2
		c0-4-5.7-4-5.7,0V116.6z"/>
	<path class="st10" d="M780.5,114.4c0-4.9,7.1-4.9,7.1,0v2.2c0,4.9-7.1,4.9-7.1,0V114.4z M781.2,116.6c0,4,5.7,4,5.7,0v-2.2
		c0-4-5.7-4-5.7,0V116.6z"/>
	<path class="st10" d="M601.6,127.7v1.2c0.5-0.9,1.4-1.3,2.3-1.3c1.8,0,3,1.1,3,2.9v3.8h-0.7v-3.8c0-1.5-0.9-2.3-2.3-2.3
		c-1.4,0-2.3,1-2.3,2.4v3.7H601v-6.6L601.6,127.7L601.6,127.7z"/>
	<path class="st10" d="M616.3,127.7c0,2.2,0,4.4,0,6.6h-0.7v-1.4c-0.6,1-1.6,1.5-2.7,1.5c-1.8,0-3.3-1.4-3.3-3.4s1.5-3.4,3.3-3.4
		c1.1,0,2.1,0.5,2.7,1.5v-1.4L616.3,127.7L616.3,127.7z M610.2,131c0,1.7,1.2,2.8,2.7,2.8c3.7,0,3.7-5.5,0-5.5
		C611.4,128.2,610.2,129.3,610.2,131z"/>
	<path class="st10" d="M620,127.7v1.2c0.5-0.9,1.4-1.3,2.3-1.3c1.8,0,3,1.1,3,2.9v3.8h-0.7v-3.8c0-1.5-0.9-2.3-2.3-2.3
		c-1.4,0-2.3,1-2.3,2.4v3.7h-0.7v-6.6L620,127.7L620,127.7z"/>
	<path class="st10" d="M628.1,131c0-2.1,1.5-3.4,3.3-3.4c1.9,0,3.3,1.3,3.3,3.4s-1.5,3.4-3.3,3.4S628.1,133.1,628.1,131z M634.1,131
		c0-1.7-1.2-2.8-2.7-2.8s-2.7,1.1-2.7,2.8s1.2,2.7,2.7,2.7S634.1,132.7,634.1,131z"/>
	<path class="st10" d="M647.4,134.3v-3.9c0-1.3-0.9-2.2-2.1-2.2c-1.3,0-2.1,0.9-2.1,2.2v3.9h-0.7v-3.9c0-1.3-0.9-2.2-2.1-2.2
		c-1.3,0-2.1,0.9-2.1,2.2v3.9h-0.7v-6.6h0.6v1.1c0.5-0.9,1.3-1.2,2.1-1.2c1,0,2.1,0.5,2.4,1.6c0.4-1.1,1.4-1.6,2.4-1.6
		c1.6,0,2.8,1.1,2.8,2.8v3.9H647.4L647.4,134.3z"/>
	<path class="st10" d="M650.8,131c0-2,1.5-3.4,3.3-3.4s3.5,1.1,3.3,3.7h-5.9c0.1,1.5,1.3,2.4,2.7,2.4c0.9,0,1.9-0.3,2.4-1l0.5,0.4
		c-0.6,0.8-1.8,1.3-2.8,1.3C652.3,134.4,650.8,133.1,650.8,131z M656.8,130.7c0-1.6-1.1-2.5-2.7-2.5c-1.4,0-2.5,0.9-2.7,2.5H656.8z"
		/>
	<path class="st10" d="M661.7,125.7v2h2.2v0.5h-2.2v4c0,0.9,0.2,1.5,1.2,1.5c0.3,0,0.7-0.1,1-0.3l0.2,0.5c-0.4,0.2-0.8,0.3-1.2,0.3
		c-1.4,0-1.9-0.8-1.9-2.1v-4h-1.4v-0.5h1.4v-1.9L661.7,125.7L661.7,125.7z"/>
	<path class="st10" d="M666.4,131c0-2,1.5-3.4,3.3-3.4s3.5,1.1,3.3,3.7h-6c0.1,1.5,1.3,2.4,2.7,2.4c0.9,0,1.9-0.3,2.4-1l0.5,0.4
		c-0.6,0.8-1.8,1.3-2.8,1.3C667.8,134.4,666.4,133.1,666.4,131z M672.4,130.7c0-1.6-1.1-2.5-2.7-2.5c-1.4,0-2.5,0.9-2.7,2.5H672.4z"
		/>
	<path class="st10" d="M676.6,127.7v1.2c0.4-0.9,1.3-1.2,2.2-1.2c0.5,0,1,0.1,1.4,0.4l-0.3,0.5c-0.3-0.2-0.7-0.3-1.1-0.3
		c-1.2,0-2.2,1-2.2,2.2v3.8H676v-6.6C676,127.7,676.6,127.7,676.6,127.7z"/>
	<path class="st10" d="M687,128.9c-0.7-0.6-1.3-0.7-2.1-0.7c-1,0-2,0.4-2,1.2c0,0.9,1.2,1.1,2,1.2c1.2,0.2,2.8,0.4,2.7,1.9
		c0,1.5-1.5,1.8-2.7,1.8s-2.3-0.4-2.9-1.3l0.5-0.4c0.5,0.8,1.5,1.1,2.4,1.1c0.8,0,2-0.2,2.1-1.3c0-0.9-1.1-1.1-2.1-1.3
		c-1.3-0.2-2.5-0.5-2.6-1.8c0-1.3,1.3-1.9,2.6-1.8c1,0,1.8,0.3,2.5,0.9L687,128.9z"/>
	<path class="st10" d="M696.4,125.5c0,0.7-1.1,0.7-1.1,0S696.4,124.8,696.4,125.5z M695.5,127.7v6.6h0.7v-6.6
		C696.2,127.7,695.5,127.7,695.5,127.7z"/>
	<path class="st10" d="M700,127.7v1.2c0.5-0.9,1.4-1.3,2.3-1.3c1.8,0,3,1.1,3,2.9v3.8h-0.7v-3.8c0-1.5-0.9-2.3-2.3-2.3
		c-1.4,0-2.3,1-2.3,2.4v3.7h-0.7v-6.6L700,127.7L700,127.7z"/>
	<path class="st10" d="M719.7,124.9v9.3H719v-1.5c-0.5,1-1.6,1.6-2.7,1.6c-1.8,0-3.3-1.2-3.3-3.4s1.5-3.4,3.3-3.4
		c1.1,0,2.2,0.5,2.7,1.5v-4.2L719.7,124.9L719.7,124.9z M713.6,131c0,1.8,1.2,2.8,2.7,2.8s2.7-1.1,2.7-2.8c0-1.6-1.2-2.8-2.7-2.8
		S713.6,129.1,713.6,131z"/>
	<path class="st10" d="M723.7,125.5c0,0.7-1.1,0.7-1.1,0C722.7,124.8,723.7,124.8,723.7,125.5z M722.9,127.7v6.6h0.7v-6.6
		C723.6,127.7,722.9,127.7,722.9,127.7z"/>
	<path class="st10" d="M733.1,127.7c0,2.2,0,4.4,0,6.6h-0.7v-1.4c-0.6,1-1.6,1.5-2.7,1.5c-1.8,0-3.3-1.4-3.3-3.4s1.5-3.4,3.3-3.4
		c1.1,0,2.1,0.5,2.7,1.5v-1.4L733.1,127.7L733.1,127.7z M727,131c0,1.7,1.2,2.8,2.7,2.8c3.7,0,3.7-5.5,0-5.5
		C728.2,128.2,727,129.3,727,131z"/>
	<path class="st10" d="M745.9,134.3v-3.9c0-1.3-0.9-2.2-2.1-2.2c-1.3,0-2.1,0.9-2.1,2.2v3.9H741v-3.9c0-1.3-0.9-2.2-2.1-2.2
		c-1.3,0-2.1,0.9-2.1,2.2v3.9h-0.7v-6.6h0.6v1.1c0.5-0.9,1.3-1.2,2.1-1.2c1,0,2.1,0.5,2.4,1.6c0.4-1.1,1.4-1.6,2.4-1.6
		c1.6,0,2.8,1.1,2.8,2.8v3.9H745.9L745.9,134.3z"/>
	<path class="st10" d="M749.4,131c0-2,1.5-3.4,3.3-3.4s3.5,1.1,3.3,3.7h-6c0.1,1.5,1.3,2.4,2.7,2.4c0.9,0,1.9-0.3,2.4-1l0.5,0.4
		c-0.6,0.8-1.8,1.3-2.8,1.3C750.9,134.4,749.4,133.1,749.4,131z M755.4,130.7c0-1.6-1.1-2.5-2.7-2.5c-1.4,0-2.5,0.9-2.7,2.5H755.4z"
		/>
	<path class="st10" d="M760.2,125.7v2h2.2v0.5h-2.2v4c0,0.9,0.2,1.5,1.2,1.5c0.3,0,0.7-0.1,1-0.3l0.2,0.5c-0.4,0.2-0.8,0.3-1.2,0.3
		c-1.4,0-1.9-0.8-1.9-2.1v-4h-1.4v-0.5h1.4v-1.9L760.2,125.7L760.2,125.7z"/>
	<path class="st10" d="M764.9,131c0-2,1.5-3.4,3.3-3.4s3.5,1.1,3.3,3.7h-5.9c0.1,1.5,1.3,2.4,2.7,2.4c0.9,0,1.9-0.3,2.4-1l0.5,0.4
		c-0.6,0.8-1.8,1.3-2.8,1.3C766.4,134.4,764.9,133.1,764.9,131z M770.9,130.7c0-1.6-1.1-2.5-2.7-2.5c-1.4,0-2.5,0.9-2.7,2.5H770.9z"
		/>
	<path class="st10" d="M775.2,127.7v1.2c0.4-0.9,1.3-1.2,2.2-1.2c0.5,0,1,0.1,1.4,0.4l-0.3,0.5c-0.3-0.2-0.7-0.3-1.1-0.3
		c-1.2,0-2.2,1-2.2,2.2v3.8h-0.7v-6.6C774.5,127.7,775.2,127.7,775.2,127.7z"/>
</g>
<polygon class="st9" points="249.3,276.4 198.6,247.1 198.6,188.6 249.3,159.3 300,188.6 300,247.1 "/>
<g>
	<path class="st10" d="M271.2,202.8c-1.7,1.8-4,3.4-6.5,3.4c-1.4,0-3.1-0.3-4.9-0.6c-0.2-1.2-0.3-2.5-0.4-3.6l2.1,2.1l1.1-1.1
		l-3.2-3.2c0.1-1,0.2-1.9,0.5-2.8l4.4,4.4l1.1-1.1l-4.9-4.9c0.4-0.6,0.8-1.2,1.4-1.8l-1.7-1.7c-4,4-3.7,8.5-3,13.2
		c-5.3-0.8-11.5-1-17,4.5c-5.1,5.1-5.3,10.9-4.6,16c-1.6-0.3-3.1-0.5-4.6-0.5c-3.4,0-6.4,2.2-8.5,4.4l1.7,1.7
		c0.6-0.7,1.3-1.3,2.1-1.9l3.8,3.8l1.1-1.1l-3.6-3.6c0.8-0.4,1.6-0.8,2.4-0.9l2.9,2.9l1.2-1.1l-1.9-1.9c1.1,0.1,2.4,0.3,3.7,0.5
		c0.4,2.2,0.7,4.2,0.7,5.9c0,2.6-1.6,4.8-3.3,6.4l1.7,1.7c2-1.9,4-4.6,4-8c0-1.7-0.3-3.5-0.6-5.5c5.3,0.8,11.5,1,17-4.5
		c5.3-5.3,5.2-10.9,4.6-16c1.6,0.3,3.2,0.5,4.6,0.5c3.3,0,6.1-2,8.2-4.2L271.2,202.8z M253.8,222.4c-4.9,4.9-10.6,4.5-15.7,3.7
		c-0.2-1.3-0.3-2.6-0.4-4l2.1,2.1l1.1-1.1l-3.2-3.2c0.1-0.9,0.3-1.9,0.5-2.8l4.3,4.3l1.1-1.1l-4.9-4.9c0.3-0.7,0.7-1.4,1.2-2.1
		l5.4,5.4l1.1-1.1l-5.6-5.6c0.3-0.3,0.5-0.6,0.8-0.9s0.6-0.5,0.9-0.8l5.6,5.6l1.1-1.1l-5.5-5.5c0.7-0.5,1.4-0.9,2.1-1.2l5.1,5.1
		l1.2-1.1l-4.7-4.7c0.9-0.3,1.9-0.4,2.8-0.5l3.6,3.6l1.1-1.1l-2.6-2.6c1.7,0,3.3,0.2,4.9,0.5C258.3,212.6,258.6,217.6,253.8,222.4z"
		/>
</g>
<polygon class="st9" points="689.1,276.4 638.4,247.1 638.4,188.6 689.1,159.3 739.7,188.6 739.7,247.1 "/>
<polyline class="st12" points="700.8,200.6 702.8,207.5 695.3,218.7 691.2,218.7 "/>
<polyline class="st12" points="675,222.2 680.6,223.6 682.7,228.1 "/>
<polyline class="st12" points="706.4,222.2 703.2,226.9 697,231.6 "/>
<polyline class="st12" points="685,203 681.4,207 677.2,207 "/>
<circle class="st12" cx="689.1" cy="216.8" r="23.7"/>
<g>
	<path class="st10" d="M588.2,549.3l-1-2.3h-5.6l-1,2.3h-0.8l4.2-9.3h0.8l4.2,9.3H588.2z M586.9,546.3l-2.5-5.7l-2.5,5.7H586.9z"/>
	<path class="st10" d="M596.9,540v4c0.5-0.9,1.5-1.3,2.4-1.3c1.8,0,2.8,1.2,2.8,2.9v3.8h-0.6v-3.8c0-1.4-0.6-2.3-2.1-2.3
		c-1.4,0-2.3,1.1-2.3,2.4v3.6h-0.7V540H596.9z"/>
	<path class="st10" d="M610.2,549.3v-1.2c-0.5,0.9-1.4,1.3-2.3,1.3c-1.8,0-3-1.1-3-2.9v-3.8h0.7v3.8c0,1.5,0.9,2.3,2.3,2.3
		c1.4,0,2.3-1,2.3-2.4v-3.7h0.7v6.6L610.2,549.3L610.2,549.3z"/>
	<path class="st10" d="M623.7,549.3v-3.9c0-1.3-0.9-2.2-2.1-2.2c-1.3,0-2.1,0.9-2.1,2.2v3.9h-0.7v-3.9c0-1.3-0.9-2.2-2.1-2.2
		c-1.3,0-2.1,0.9-2.1,2.2v3.9h-0.7v-6.6h0.6v1.1c0.5-0.9,1.3-1.2,2.1-1.2c1,0,2.1,0.5,2.4,1.6c0.4-1.1,1.4-1.6,2.4-1.6
		c1.6,0,2.8,1.1,2.8,2.8v3.9H623.7z"/>
	<path class="st10" d="M633.8,542.7c0,2.2,0,4.4,0,6.6h-0.7v-1.4c-0.6,1-1.6,1.5-2.7,1.5c-1.8,0-3.3-1.4-3.3-3.4s1.5-3.4,3.3-3.4
		c1.1,0,2.1,0.5,2.7,1.5v-1.4L633.8,542.7L633.8,542.7z M627.8,546c0,1.7,1.2,2.8,2.7,2.8c3.7,0,3.7-5.5,0-5.5
		C629,543.3,627.8,544.4,627.8,546z"/>
	<path class="st10" d="M637.6,542.7v1.2c0.5-0.9,1.4-1.3,2.3-1.3c1.8,0,3,1.1,3,2.9v3.8h-0.7v-3.8c0-1.5-0.9-2.3-2.3-2.3
		c-1.4,0-2.3,1-2.3,2.4v3.7H637v-6.6L637.6,542.7L637.6,542.7z"/>
	<path class="st10" d="M651.6,549.3v-6h-1.3v-0.6h1.3v-0.6c0-1.3,0.5-2.3,2-2.3c0.5,0,0.9,0.2,1.3,0.5l-0.3,0.5
		c-0.4-0.2-0.6-0.3-1-0.3c-0.8,0-1.3,0.5-1.3,1.7v0.6h2.2v0.6h-2.2v6h-0.7V549.3z"/>
	<path class="st10" d="M658,540.6c0,0.7-1.1,0.7-1.1,0C657,539.9,658,539.9,658,540.6z M657.2,542.7v6.6h0.7v-6.6H657.2z"/>
	<path class="st10" d="M661.7,542.7v1.2c0.5-0.9,1.4-1.3,2.3-1.3c1.8,0,3,1.1,3,2.9v3.8h-0.7v-3.8c0-1.5-0.9-2.3-2.3-2.3
		c-1.4,0-2.3,1-2.3,2.4v3.7H661v-6.6L661.7,542.7L661.7,542.7z"/>
	<path class="st10" d="M675.3,542.5l0.4,0.4l-0.6,0.7c0.5,0.5,0.8,1.2,0.8,2.2c0,1.1-0.7,2.3-1.8,2.8c1.2,0.4,1.8,1.2,1.8,2.4
		c0,1.8-1.4,2.6-3.1,2.6s-3.1-1-3.1-2.6h0.7c0,1.3,1.1,2,2.5,2s2.5-0.6,2.5-2s-1.3-2-2.5-2c-1.9,0-3.1-1.4-3.1-3.2
		c0-2.1,1.4-3.2,3.1-3.2c0.7,0,1.4,0.2,1.9,0.6L675.3,542.5z M670.4,545.8c0,1.4,0.9,2.5,2.4,2.5c1.4,0,2.5-1.2,2.5-2.5
		c0-1.7-1.1-2.6-2.5-2.6C671.5,543.3,670.4,544.1,670.4,545.8z"/>
	<path class="st10" d="M678.2,546c0-2,1.5-3.4,3.3-3.4s3.5,1.1,3.3,3.7h-5.9c0.1,1.5,1.3,2.4,2.7,2.4c0.9,0,1.9-0.3,2.4-1l0.5,0.4
		c-0.6,0.8-1.8,1.3-2.8,1.3C679.7,549.4,678.2,548.1,678.2,546z M684.2,545.7c0-1.6-1.1-2.5-2.7-2.5c-1.4,0-2.5,0.9-2.7,2.5H684.2z"
		/>
	<path class="st10" d="M688.4,542.7v1.2c0.4-0.9,1.3-1.2,2.2-1.2c0.5,0,1,0.1,1.4,0.4l-0.3,0.5c-0.3-0.2-0.7-0.3-1.1-0.3
		c-1.2,0-2.2,1-2.2,2.2v3.8h-0.7v-6.6L688.4,542.7L688.4,542.7z"/>
	<path class="st10" d="M695,542.7v1.2c0.5-0.9,1.4-1.3,2.3-1.3c1.8,0,3,1.1,3,2.9v3.8h-0.7v-3.8c0-1.5-0.9-2.3-2.3-2.3
		c-1.4,0-2.3,1-2.3,2.4v3.7h-0.7v-6.6L695,542.7L695,542.7z"/>
	<path class="st10" d="M709.7,542.7c0,2.2,0,4.4,0,6.6H709v-1.4c-0.6,1-1.6,1.5-2.7,1.5c-1.8,0-3.3-1.4-3.3-3.4s1.5-3.4,3.3-3.4
		c1.1,0,2.1,0.5,2.7,1.5v-1.4L709.7,542.7L709.7,542.7z M703.7,546c0,1.7,1.2,2.8,2.7,2.8c3.7,0,3.7-5.5,0-5.5
		C704.9,543.3,703.7,544.4,703.7,546z"/>
	<path class="st10" d="M713.7,540.6c0,0.7-1.1,0.7-1.1,0C712.6,539.9,713.7,539.9,713.7,540.6z M712.8,542.7v6.6h0.7v-6.6H712.8z"/>
	<path class="st10" d="M717.3,540v9.3h-0.7V540H717.3z"/>
	<path class="st10" d="M730.8,542.5l0.4,0.4l-0.6,0.7c0.5,0.5,0.8,1.2,0.8,2.2c0,1.1-0.7,2.3-1.8,2.8c1.2,0.4,1.8,1.2,1.8,2.4
		c0,1.8-1.4,2.6-3.1,2.6s-3.1-1-3.1-2.6h0.7c0,1.3,1.1,2,2.5,2s2.5-0.6,2.5-2s-1.3-2-2.5-2c-1.9,0-3.1-1.4-3.1-3.2
		c0-2.1,1.4-3.2,3.1-3.2c0.7,0,1.4,0.2,1.9,0.6L730.8,542.5z M725.8,545.8c0,1.4,0.9,2.5,2.4,2.5c1.4,0,2.5-1.2,2.5-2.5
		c0-1.7-1.1-2.6-2.5-2.6C726.9,543.3,725.8,544.1,725.8,545.8z"/>
	<path class="st10" d="M734.7,542.7v1.2c0.4-0.9,1.3-1.2,2.2-1.2c0.5,0,1,0.1,1.4,0.4l-0.3,0.5c-0.3-0.2-0.7-0.3-1.1-0.3
		c-1.2,0-2.2,1-2.2,2.2v3.8H734v-6.6L734.7,542.7L734.7,542.7z"/>
	<path class="st10" d="M740.3,546c0-2.1,1.5-3.4,3.3-3.4s3.3,1.3,3.3,3.4c0,2.1-1.5,3.4-3.3,3.4S740.3,548.1,740.3,546z M746.3,546
		c0-1.7-1.2-2.8-2.7-2.8s-2.7,1.1-2.7,2.8s1.2,2.7,2.7,2.7C745.1,548.8,746.3,547.7,746.3,546z"/>
	<path class="st10" d="M756.3,549.3h-0.7l-1.1-2.9l-0.8-2.6l-0.8,2.6l-1.1,2.9h-0.7l-2.3-6.6h0.7l2,5.8l2-5.8h0.5l2,5.8l2-5.8h0.7
		L756.3,549.3z"/>
	<path class="st10" d="M765.6,543.9c-0.7-0.6-1.3-0.7-2.1-0.7c-1,0-2,0.4-2,1.2c0,0.9,1.2,1.1,2,1.2c1.2,0.2,2.8,0.4,2.7,1.9
		c0,1.5-1.5,1.8-2.7,1.8s-2.3-0.4-2.9-1.3l0.5-0.4c0.5,0.8,1.5,1.1,2.4,1.1c0.8,0,2-0.2,2.1-1.3c0-0.9-1.1-1.1-2.1-1.3
		c-1.3-0.2-2.5-0.5-2.6-1.8c0-1.3,1.3-1.9,2.6-1.8c1,0,1.8,0.3,2.5,0.9L765.6,543.9z"/>
	<path class="st10" d="M773.7,546c0-2.1,1.5-3.4,3.3-3.4s3.3,1.3,3.3,3.4c0,2.1-1.5,3.4-3.3,3.4S773.7,548.1,773.7,546z M779.8,546
		c0-1.7-1.2-2.8-2.7-2.8s-2.7,1.1-2.7,2.8s1.2,2.7,2.7,2.7C778.6,548.8,779.8,547.7,779.8,546z"/>
	<path class="st10" d="M783.9,542.7v1.2c0.5-0.9,1.4-1.3,2.3-1.3c1.8,0,3,1.1,3,2.9v3.8h-0.7v-3.8c0-1.5-0.9-2.3-2.3-2.3
		c-1.4,0-2.3,1-2.3,2.4v3.7h-0.7v-6.6L783.9,542.7L783.9,542.7z"/>
	<path class="st10" d="M791.9,546c0-2,1.5-3.4,3.3-3.4s3.5,1.1,3.3,3.7h-5.9c0.1,1.5,1.3,2.4,2.7,2.4c0.9,0,1.9-0.3,2.4-1l0.5,0.4
		c-0.6,0.8-1.8,1.3-2.8,1.3C793.4,549.4,791.9,548.1,791.9,546z M797.9,545.7c0-1.6-1.1-2.5-2.7-2.5c-1.4,0-2.5,0.9-2.7,2.5H797.9z"
		/>
	<path class="st10" d="M601.5,556.8v1.2c0.5-0.9,1.4-1.3,2.3-1.3c1.8,0,3,1.1,3,2.9v3.8h-0.7v-3.8c0-1.5-0.9-2.3-2.3-2.3
		c-1.4,0-2.3,1-2.3,2.4v3.7h-0.7v-6.6L601.5,556.8L601.5,556.8z"/>
	<path class="st10" d="M616.2,556.8c0,2.2,0,4.4,0,6.6h-0.7V562c-0.6,1-1.6,1.5-2.7,1.5c-1.8,0-3.3-1.4-3.3-3.4s1.5-3.4,3.3-3.4
		c1.1,0,2.1,0.5,2.7,1.5v-1.4L616.2,556.8L616.2,556.8z M610.2,560.1c0,1.7,1.2,2.8,2.7,2.8c3.7,0,3.7-5.5,0-5.5
		C611.4,557.4,610.2,558.5,610.2,560.1z"/>
	<path class="st10" d="M620,556.8v1.2c0.5-0.9,1.4-1.3,2.3-1.3c1.8,0,3,1.1,3,2.9v3.8h-0.7v-3.8c0-1.5-0.9-2.3-2.3-2.3
		c-1.4,0-2.3,1-2.3,2.4v3.7h-0.7v-6.6L620,556.8L620,556.8z"/>
	<path class="st10" d="M628,560.1c0-2.1,1.5-3.4,3.3-3.4c1.9,0,3.3,1.3,3.3,3.4c0,2.1-1.5,3.4-3.3,3.4S628,562.2,628,560.1z
		 M634.1,560.1c0-1.7-1.2-2.8-2.7-2.8s-2.7,1.1-2.7,2.8s1.2,2.7,2.7,2.7C632.8,562.9,634.1,561.8,634.1,560.1z"/>
	<path class="st10" d="M647.3,563.4v-3.9c0-1.3-0.9-2.2-2.1-2.2c-1.3,0-2.1,0.9-2.1,2.2v3.9h-0.7v-3.9c0-1.3-0.9-2.2-2.1-2.2
		c-1.3,0-2.1,0.9-2.1,2.2v3.9h-0.7v-6.6h0.6v1.1c0.5-0.9,1.3-1.2,2.1-1.2c1,0,2.1,0.5,2.4,1.6c0.4-1.1,1.4-1.6,2.4-1.6
		c1.6,0,2.8,1.1,2.8,2.8v3.9H647.3z"/>
	<path class="st10" d="M650.7,560.1c0-2,1.5-3.4,3.3-3.4s3.5,1.1,3.3,3.7h-5.9c0.1,1.5,1.3,2.4,2.7,2.4c0.9,0,1.9-0.3,2.4-1l0.5,0.4
		c-0.6,0.8-1.8,1.3-2.8,1.3C652.2,563.5,650.7,562.2,650.7,560.1z M656.8,559.9c0-1.6-1.1-2.5-2.7-2.5c-1.4,0-2.5,0.9-2.7,2.5H656.8
		z"/>
	<path class="st10" d="M661.6,554.8v2h2.2v0.5h-2.2v4c0,0.9,0.2,1.5,1.2,1.5c0.3,0,0.7-0.1,1-0.3l0.2,0.5c-0.4,0.2-0.8,0.3-1.2,0.3
		c-1.4,0-1.9-0.8-1.9-2.1v-4h-1.4v-0.5h1.4v-1.9H661.6z"/>
	<path class="st10" d="M666.3,560.1c0-2,1.5-3.4,3.3-3.4s3.5,1.1,3.3,3.7H667c0.1,1.5,1.3,2.4,2.7,2.4c0.9,0,1.9-0.3,2.4-1l0.5,0.4
		c-0.6,0.8-1.8,1.3-2.8,1.3C667.8,563.5,666.3,562.2,666.3,560.1z M672.3,559.9c0-1.6-1.1-2.5-2.7-2.5c-1.4,0-2.5,0.9-2.7,2.5H672.3
		z"/>
	<path class="st10" d="M676.5,556.8v1.2c0.4-0.9,1.3-1.2,2.2-1.2c0.5,0,1,0.1,1.4,0.4l-0.3,0.5c-0.3-0.2-0.7-0.3-1.1-0.3
		c-1.2,0-2.2,1-2.2,2.2v3.8h-0.7v-6.6L676.5,556.8L676.5,556.8z"/>
	<path class="st10" d="M687.1,560.1c0-2,1.5-3.4,3.3-3.4s3.5,1.1,3.3,3.7h-5.9c0.1,1.5,1.3,2.4,2.7,2.4c0.9,0,1.9-0.3,2.4-1l0.5,0.4
		c-0.6,0.8-1.8,1.3-2.8,1.3C688.6,563.5,687.1,562.2,687.1,560.1z M693.1,559.9c0-1.6-1.1-2.5-2.7-2.5c-1.4,0-2.5,0.9-2.7,2.5H693.1
		z"/>
	<path class="st10" d="M703,556.8c0,2.2,0,4.4,0,6.6h-0.7V562c-0.6,1-1.6,1.5-2.7,1.5c-1.8,0-3.3-1.4-3.3-3.4s1.5-3.4,3.3-3.4
		c1.1,0,2.1,0.5,2.7,1.5v-1.4L703,556.8L703,556.8z M697,560.1c0,1.7,1.2,2.8,2.7,2.8c3.7,0,3.7-5.5,0-5.5
		C698.2,557.4,697,558.5,697,560.1z"/>
	<path class="st10" d="M711.7,562.5c-0.7,0.7-1.5,1-2.4,1c-1.9,0-3.4-1.3-3.4-3.4s1.5-3.4,3.4-3.4c0.9,0,1.7,0.3,2.4,1l-0.4,0.4
		c-0.5-0.5-1.3-0.8-2-0.8c-1.5,0-2.7,1-2.7,2.7s1.3,2.7,2.7,2.7c0.7,0,1.4-0.3,2-0.8L711.7,562.5z"/>
	<path class="st10" d="M715,554.1v4c0.5-0.9,1.5-1.3,2.4-1.3c1.8,0,2.8,1.2,2.8,2.9v3.8h-0.6v-3.8c0-1.4-0.6-2.3-2.1-2.3
		c-1.4,0-2.3,1.1-2.3,2.4v3.6h-0.7v-9.3L715,554.1L715,554.1z"/>
	<path class="st10" d="M732.7,558c-0.7-0.6-1.3-0.7-2.1-0.7c-1,0-2,0.4-2,1.2c0,0.9,1.2,1.1,2,1.2c1.2,0.2,2.8,0.4,2.7,1.9
		c0,1.5-1.5,1.8-2.7,1.8s-2.3-0.4-2.9-1.3l0.5-0.4c0.5,0.8,1.5,1.1,2.4,1.1c0.8,0,2-0.2,2.1-1.3c0-0.9-1.1-1.1-2.1-1.3
		c-1.3-0.2-2.5-0.5-2.6-1.8c0-1.3,1.3-1.9,2.6-1.8c1,0,1.8,0.3,2.5,0.9L732.7,558z"/>
	<path class="st10" d="M735.8,560.1c0-2,1.5-3.4,3.3-3.4s3.5,1.1,3.3,3.7h-5.9c0.1,1.5,1.3,2.4,2.7,2.4c0.9,0,1.9-0.3,2.4-1l0.5,0.4
		c-0.6,0.8-1.8,1.3-2.8,1.3C737.2,563.5,735.8,562.2,735.8,560.1z M741.8,559.9c0-1.6-1.1-2.5-2.7-2.5c-1.4,0-2.5,0.9-2.7,2.5H741.8
		z"/>
	<path class="st10" d="M750.8,562.5c-0.7,0.7-1.5,1-2.4,1c-1.9,0-3.4-1.3-3.4-3.4s1.5-3.4,3.4-3.4c0.9,0,1.7,0.3,2.4,1l-0.4,0.4
		c-0.5-0.5-1.3-0.8-2-0.8c-1.5,0-2.7,1-2.7,2.7s1.3,2.7,2.7,2.7c0.7,0,1.4-0.3,2-0.8L750.8,562.5z"/>
	<path class="st10" d="M753.3,560.1c0-2.1,1.5-3.4,3.3-3.4c1.9,0,3.3,1.3,3.3,3.4c0,2.1-1.5,3.4-3.3,3.4S753.3,562.2,753.3,560.1z
		 M759.3,560.1c0-1.7-1.2-2.8-2.7-2.8s-2.7,1.1-2.7,2.8s1.2,2.7,2.7,2.7C758.1,562.9,759.3,561.8,759.3,560.1z"/>
	<path class="st10" d="M763.4,556.8v1.2c0.5-0.9,1.4-1.3,2.3-1.3c1.8,0,3,1.1,3,2.9v3.8H768v-3.8c0-1.5-0.9-2.3-2.3-2.3
		c-1.4,0-2.3,1-2.3,2.4v3.7h-0.7v-6.6L763.4,556.8L763.4,556.8z"/>
	<path class="st10" d="M778.1,554.1v9.3h-0.6V562c-0.5,1-1.6,1.6-2.7,1.6c-1.8,0-3.3-1.2-3.3-3.4s1.5-3.4,3.3-3.4
		c1.1,0,2.2,0.5,2.7,1.5v-4.2L778.1,554.1L778.1,554.1z M772.1,560.1c0,1.8,1.2,2.8,2.7,2.8s2.7-1.1,2.7-2.8s-1.2-2.8-2.7-2.8
		C773.3,557.4,772.1,558.3,772.1,560.1z"/>
</g>
<g>
	<path class="st10" d="M342.6,326.7v-9.3h-13v9.3H328v-20.5h1.6v9.7h13v-9.7h1.6v20.5H342.6z"/>
	<path class="st10" d="M374.3,316.5c0,5.4-3.5,10.6-10.3,10.6c-6.9,0-10.3-5.2-10.3-10.6c0-5.5,3.4-10.5,10.3-10.5
		C370.9,305.9,374.3,310.9,374.3,316.5z M355.2,316.4c0,4.6,3,9.1,8.8,9.1s8.8-4.5,8.8-9.1c0-4.7-2.9-9.1-8.8-9.1
		S355.2,311.6,355.2,316.4z"/>
	<path class="st10" d="M395.6,306.2h0.9l6.3,18.7l6.3-18.7h1.7l-7.2,20.5h-1.7l-3.2-9.6L396,309l-2.6,8l-3.3,9.6h-1.7l-7.2-20.5h1.7
		l6.3,18.7L395.6,306.2z"/>
	<path class="st10" d="M446.5,310.1c-1.5-2.4-3.9-2.7-6.2-2.8c-2.4,0-6.2,0.9-6.2,4.2c0,2.6,2.8,3.2,6.3,3.9c3.9,0.8,8,1.5,8,5.9
		c0,4.6-4.7,5.7-8.1,5.7c-3.2,0-6.8-1.3-8.4-4.4l1.4-0.7c1.3,2.5,4.5,3.7,7,3.7s6.5-0.7,6.5-4.3c0-3.1-3.4-3.7-6.7-4.4
		c-3.7-0.7-7.6-1.5-7.6-5.3c-0.1-4.3,4.4-5.7,7.8-5.7c2.9,0,5.5,0.5,7.5,3.5L446.5,310.1z"/>
	<path class="st10" d="M475.5,308.5l-7.8,12h-0.5l-7.9-12v18.2h-1.6v-20.5c0.8,0,1.1,0,1.9,0l7.8,11.9l7.7-11.9h1.9v20.5h-1.5V308.5
		L475.5,308.5z"/>
	<path class="st10" d="M503.7,326.7l-2.3-5h-12.2l-2.2,5h-1.7l9.2-20.5h1.7l9.2,20.5H503.7z M500.8,320.2l-5.5-12.5l-5.5,12.5H500.8
		z"/>
	<path class="st10" d="M515.7,306.2v19h11.5v1.5h-13.1v-20.5H515.7z"/>
	<path class="st10" d="M537.6,306.2v19h11.5v1.5H536v-20.5H537.6z"/>
	<path class="st10" d="M571.9,326.7v-20.5h1.5v20.5H571.9z"/>
	<path class="st10" d="M597.7,310.1c-1.5-2.4-3.9-2.7-6.2-2.8c-2.4,0-6.2,0.9-6.2,4.2c0,2.6,2.8,3.2,6.3,3.9c3.9,0.8,8,1.5,8,5.9
		c0,4.6-4.7,5.7-8.1,5.7c-3.2,0-6.8-1.3-8.4-4.4l1.4-0.7c1.3,2.5,4.5,3.7,7,3.7s6.5-0.7,6.5-4.3c0-3.1-3.4-3.7-6.7-4.4
		c-3.7-0.7-7.6-1.5-7.6-5.3c-0.1-4.3,4.4-5.7,7.8-5.7c2.9,0,5.5,0.5,7.5,3.5L597.7,310.1z"/>
	<path class="st10" d="M344.2,361.7l-2.3-5h-12.2l-2.2,5h-1.7l9.2-20.5h1.7l9.2,20.5H344.2z M341.4,355.2l-5.5-12.5l-5.5,12.5H341.4
		z"/>
	<path class="st10" d="M368.7,341.3l13.8,16.9v-16.9h1.5v20.5h-0.6l-13.8-16.9v16.9H368v-20.5H368.7z"/>
	<path class="st10" d="M410.7,361.7l-2.3-5h-12.2l-2.2,5h-1.7l9.2-20.5h1.7l9.2,20.5H410.7z M407.8,355.2l-5.5-12.5l-5.5,12.5H407.8
		z"/>
	<path class="st10" d="M421.6,341.3l13.8,16.9v-16.9h1.5v20.5h-0.6l-13.8-16.9v16.9h-1.6v-20.5H421.6z"/>
	<path class="st10" d="M467.4,351.5c0,5.4-3.5,10.6-10.3,10.6c-6.9,0-10.3-5.2-10.3-10.6c0-5.5,3.4-10.5,10.3-10.5
		C463.9,341,467.4,346,467.4,351.5z M448.3,351.5c0,4.6,3,9.1,8.8,9.1s8.8-4.5,8.8-9.1c0-4.7-2.9-9.1-8.8-9.1
		S448.2,346.7,448.3,351.5z"/>
	<path class="st10" d="M494.8,343.6l-7.8,12h-0.5l-7.9-12v18.2H477v-20.5c0.8,0,1.1,0,1.9,0l7.8,11.9l7.7-11.9h1.9v20.5h-1.5V343.6
		L494.8,343.6z"/>
	<path class="st10" d="M508.3,350.7h12v1.4h-12v8.1h12.9v1.5h-14.5v-20.5h14.1v1.5h-12.6L508.3,350.7L508.3,350.7z"/>
	<path class="st10" d="M537.5,342.7h-7.4v-1.4h16.4v1.4h-7.4v19h-1.6V342.7z"/>
	<path class="st10" d="M556.9,350.7h12v1.4h-12v8.1h12.9v1.5h-14.5v-20.5h14.1v1.5h-12.6L556.9,350.7L556.9,350.7z"/>
	<path class="st10" d="M595.5,361.7h-2.1l-7.1-7.7h-5.6v7.7h-1.6v-20.5c3,0,6,0,9,0c4.4,0,6.7,3.2,6.7,6.4c0,3.3-2.2,6.3-6.6,6.3
		L595.5,361.7z M580.7,352.5h7.3c3.6,0,5.1-2,5.2-4.9c0-2.4-1.6-4.9-5-4.9h-7.4L580.7,352.5L580.7,352.5z"/>
	<path class="st10" d="M603.1,346.9c0-4.4,4.2-6,7.8-6c3.8,0,7.9,1.3,7.9,6c0,4-2.4,4.9-4.2,5.5c-3,0.9-3.5,1.5-3.5,5.2h-1.5
		c0-4,1-5.5,4.6-6.5c1.7-0.5,3.1-1.2,3.1-4.2c0-3.8-3.6-4.6-6.4-4.6c-2.7,0-6.3,0.9-6.3,4.6H603.1z M611.6,360.7
		c0,1.5-2.3,1.5-2.3,0S611.6,359.2,611.6,360.7z"/>
</g>
<polygon class="st9" points="689.2,514 638.5,484.7 638.5,426.2 689.2,396.9 739.9,426.2 739.9,484.7 "/>
<path class="st11" d="M709.6,480.7v-35.9c0-11.2-9.1-20.3-20.3-20.3s-20.3,9.1-20.3,20.3v35.9"/>
<path class="st11" d="M672.1,452v-6.9c0-9.8,7.6-17.7,17.1-17.7c9.4,0,17.1,7.9,17.1,17.7v6.9C706.3,452,693.7,460.8,672.1,452z"/>
<path class="st10" d="M672.1,452c0,0,18.3-7.4,34.1,0C706.3,452,691,460.4,672.1,452z"/>
<path class="st11" d="M678,476.7c0,0,12-7.4,22.4,0"/>
<g>
	<path class="st10" d="M389.4,186.8H386v-0.6h7.5v0.6h-3.4v8.7h-0.7V186.8L389.4,186.8z"/>
	<path class="st10" d="M396.7,186.2v4c0.5-0.9,1.5-1.3,2.4-1.3c1.8,0,2.8,1.2,2.8,2.9v3.8h-0.6v-3.8c0-1.4-0.6-2.3-2.1-2.3
		c-1.4,0-2.3,1.1-2.3,2.4v3.6h-0.7v-9.3L396.7,186.2L396.7,186.2z"/>
	<path class="st10" d="M404.5,192.2c0-2,1.5-3.4,3.3-3.4s3.5,1.1,3.3,3.7h-5.9c0.1,1.5,1.3,2.4,2.7,2.4c0.9,0,1.9-0.3,2.4-1l0.5,0.4
		c-0.6,0.8-1.8,1.3-2.8,1.3C406,195.6,404.5,194.3,404.5,192.2z M410.5,192c0-1.6-1.1-2.5-2.7-2.5c-1.4,0-2.5,0.9-2.7,2.5H410.5z"/>
	<path class="st10" d="M414.7,188.9v1.2c0.4-0.9,1.3-1.2,2.2-1.2c0.5,0,1,0.1,1.4,0.4l-0.3,0.5c-0.3-0.2-0.7-0.3-1.1-0.3
		c-1.2,0-2.2,1-2.2,2.2v3.8H414v-6.6L414.7,188.9L414.7,188.9z"/>
	<path class="st10" d="M420.3,192.2c0-2,1.5-3.4,3.3-3.4s3.5,1.1,3.3,3.7H421c0.1,1.5,1.3,2.4,2.7,2.4c0.9,0,1.9-0.3,2.4-1l0.5,0.4
		c-0.6,0.8-1.8,1.3-2.8,1.3C421.8,195.6,420.3,194.3,420.3,192.2z M426.3,192c0-1.6-1.1-2.5-2.7-2.5c-1.4,0-2.5,0.9-2.7,2.5H426.3z"
		/>
	<path class="st10" d="M441.2,188.9c0,2.2,0,4.4,0,6.6h-0.7v-1.4c-0.6,1-1.6,1.5-2.7,1.5c-1.8,0-3.3-1.4-3.3-3.4s1.5-3.4,3.3-3.4
		c1.1,0,2.1,0.5,2.7,1.5v-1.4L441.2,188.9L441.2,188.9z M435.2,192.2c0,1.7,1.2,2.8,2.7,2.8c3.7,0,3.7-5.5,0-5.5
		C436.4,189.5,435.2,190.6,435.2,192.2z"/>
	<path class="st10" d="M445,188.9v1.2c0.4-0.9,1.3-1.2,2.2-1.2c0.5,0,1,0.1,1.4,0.4l-0.3,0.5c-0.3-0.2-0.7-0.3-1.1-0.3
		c-1.2,0-2.2,1-2.2,2.2v3.8h-0.7v-6.6L445,188.9L445,188.9z"/>
	<path class="st10" d="M450.5,192.2c0-2,1.5-3.4,3.3-3.4s3.5,1.1,3.3,3.7h-5.9c0.1,1.5,1.3,2.4,2.7,2.4c0.9,0,1.9-0.3,2.4-1l0.5,0.4
		c-0.6,0.8-1.8,1.3-2.8,1.3C452,195.6,450.5,194.3,450.5,192.2z M456.5,192c0-1.6-1.1-2.5-2.7-2.5c-1.4,0-2.5,0.9-2.7,2.5H456.5z"/>
	<path class="st10" d="M465,188.7c0-2,1.9-2.6,3.6-2.6s3.6,0.7,3.6,2.7c0,1.9-1.9,2.7-3.6,2.7c-1.4,0-2.9,0.3-2.9,1.9v1.4h6.4v0.7
		H465v-2.1c0-2.1,1.9-2.6,3.6-2.6c1.2,0,2.9-0.5,2.9-2c0-1.6-1.7-2.1-2.9-2.1s-2.9,0.4-2.9,2L465,188.7L465,188.7z"/>
	<path class="st10" d="M475.1,190.5v-4.3h6.5v0.6h-5.8v3h3c2.5,0,3.3,1.4,3.3,2.9s-1.1,2.9-3.6,2.9c-1.7,0-3.6-0.6-3.6-2.6h0.7
		c0,1.6,1.6,1.9,2.9,1.9c2,0,2.9-0.9,2.9-2.2c0-1.1-0.6-2.2-2.6-2.2L475.1,190.5L475.1,190.5z"/>
	<path class="st10" d="M485.9,195.1c0,0.1,0,0.1,0,0.2l-0.5,1.4h-0.6l0.4-1.1c-0.2-0.1-0.3-0.2-0.3-0.5
		C484.8,194.4,485.9,194.4,485.9,195.1z"/>
	<path class="st10" d="M495,186.2v6.5h1.2v0.7H495v2.1h-0.7v-2.1h-5.7l-0.1-0.9l5.4-6.4L495,186.2L495,186.2z M494.2,186.7l-5.1,6
		h5.1V186.7z"/>
	<path class="st10" d="M498.5,189.7c0-4.9,7.1-4.9,7.1,0v2.2c0,4.9-7.1,4.9-7.1,0V189.7z M499.2,192c0,4,5.7,4,5.7,0v-2.2
		c0-4-5.7-4-5.7,0V192z"/>
	<path class="st10" d="M508.3,189.7c0-4.9,7.1-4.9,7.1,0v2.2c0,4.9-7.1,4.9-7.1,0V189.7z M509,192c0,4,5.7,4,5.7,0v-2.2
		c0-4-5.7-4-5.7,0V192z"/>
	<path class="st10" d="M519.3,195.1c0,0.1,0,0.1,0,0.2l-0.5,1.4h-0.6l0.4-1.1c-0.2-0.1-0.3-0.2-0.3-0.5
		C518.2,194.4,519.3,194.4,519.3,195.1z"/>
	<path class="st10" d="M522.1,189.7c0-4.9,7.1-4.9,7.1,0v2.2c0,4.9-7.1,4.9-7.1,0V189.7z M522.8,192c0,4,5.7,4,5.7,0v-2.2
		c0-4-5.7-4-5.7,0V192z"/>
	<path class="st10" d="M531.9,189.7c0-4.9,7.1-4.9,7.1,0v2.2c0,4.9-7.1,4.9-7.1,0V189.7z M532.6,192c0,4,5.7,4,5.7,0v-2.2
		c0-4-5.7-4-5.7,0V192z"/>
	<path class="st10" d="M541.7,189.7c0-4.9,7.1-4.9,7.1,0v2.2c0,4.9-7.1,4.9-7.1,0V189.7z M542.4,192c0,4,5.7,4,5.7,0v-2.2
		c0-4-5.7-4-5.7,0V192z"/>
	<path class="st10" d="M382.5,203v1.2c0.5-0.9,1.4-1.3,2.3-1.3c1.8,0,3,1.1,3,2.9v3.8h-0.7v-3.8c0-1.5-0.9-2.3-2.3-2.3
		s-2.3,1-2.3,2.4v3.7h-0.7V203H382.5z"/>
	<path class="st10" d="M397.2,203c0,2.2,0,4.4,0,6.6h-0.7v-1.4c-0.6,1-1.6,1.5-2.7,1.5c-1.8,0-3.3-1.4-3.3-3.4s1.5-3.4,3.3-3.4
		c1.1,0,2.1,0.5,2.7,1.5V203H397.2z M391.2,206.3c0,1.7,1.2,2.8,2.7,2.8c3.7,0,3.7-5.5,0-5.5C392.4,203.6,391.2,204.7,391.2,206.3z"
		/>
	<path class="st10" d="M401,203v1.2c0.5-0.9,1.4-1.3,2.3-1.3c1.8,0,3,1.1,3,2.9v3.8h-0.7v-3.8c0-1.5-0.9-2.3-2.3-2.3s-2.3,1-2.3,2.4
		v3.7h-0.7V203H401z"/>
	<path class="st10" d="M409,206.4c0-2.1,1.5-3.4,3.3-3.4c1.9,0,3.3,1.3,3.3,3.4s-1.5,3.4-3.3,3.4C410.5,209.7,409,208.4,409,206.4z
		 M415.1,206.4c0-1.7-1.2-2.8-2.7-2.8s-2.7,1.1-2.7,2.8s1.2,2.7,2.7,2.7S415.1,208.1,415.1,206.4z"/>
	<path class="st10" d="M428.3,209.6v-3.9c0-1.3-0.9-2.2-2.1-2.2c-1.3,0-2.1,0.9-2.1,2.2v3.9h-0.7v-3.9c0-1.3-0.9-2.2-2.1-2.2
		c-1.3,0-2.1,0.9-2.1,2.2v3.9h-0.7V203h0.6v1.1c0.5-0.9,1.3-1.2,2.1-1.2c1,0,2.1,0.5,2.4,1.6c0.4-1.1,1.4-1.6,2.4-1.6
		c1.6,0,2.8,1.1,2.8,2.8v3.9H428.3L428.3,209.6z"/>
	<path class="st10" d="M431.8,206.3c0-2,1.5-3.4,3.3-3.4s3.5,1.1,3.3,3.7h-5.9c0.1,1.5,1.3,2.4,2.7,2.4c0.9,0,1.9-0.3,2.4-1l0.5,0.4
		c-0.6,0.8-1.8,1.3-2.8,1.3C433.2,209.7,431.8,208.4,431.8,206.3z M437.8,206.1c0-1.6-1.1-2.5-2.7-2.5c-1.4,0-2.5,0.9-2.7,2.5H437.8
		z"/>
	<path class="st10" d="M442.6,201.1v2h2.2v0.5h-2.2v4c0,0.9,0.2,1.5,1.2,1.5c0.3,0,0.7-0.1,1-0.3l0.2,0.5c-0.4,0.2-0.8,0.3-1.2,0.3
		c-1.4,0-1.9-0.8-1.9-2.1v-4h-1.4V203h1.4v-1.9H442.6z"/>
	<path class="st10" d="M447.3,206.3c0-2,1.5-3.4,3.3-3.4s3.5,1.1,3.3,3.7H448c0.1,1.5,1.3,2.4,2.7,2.4c0.9,0,1.9-0.3,2.4-1l0.5,0.4
		c-0.6,0.8-1.8,1.3-2.8,1.3C448.8,209.7,447.3,208.4,447.3,206.3z M453.3,206.1c0-1.6-1.1-2.5-2.7-2.5c-1.4,0-2.5,0.9-2.7,2.5H453.3
		z"/>
	<path class="st10" d="M457.5,203v1.2c0.4-0.9,1.3-1.2,2.2-1.2c0.5,0,1,0.1,1.4,0.4l-0.3,0.5c-0.3-0.2-0.7-0.3-1.1-0.3
		c-1.2,0-2.2,1-2.2,2.2v3.8h-0.7V203H457.5z"/>
	<path class="st10" d="M468,204.2c-0.7-0.6-1.3-0.7-2.1-0.7c-1,0-2,0.4-2,1.2c0,0.9,1.2,1.1,2,1.2c1.2,0.2,2.8,0.4,2.7,1.9
		c0,1.5-1.5,1.8-2.7,1.8s-2.3-0.4-2.9-1.3l0.5-0.4c0.5,0.8,1.5,1.1,2.4,1.1c0.8,0,2-0.2,2.1-1.3c0-0.9-1.1-1.1-2.1-1.3
		c-1.3-0.2-2.5-0.5-2.6-1.8c0-1.3,1.3-1.9,2.6-1.8c1,0,1.8,0.3,2.5,0.9L468,204.2z"/>
	<path class="st10" d="M477.3,200.9c0,0.7-1.1,0.7-1.1,0C476.3,200.2,477.3,200.2,477.3,200.9z M476.5,203v6.6h0.7V203H476.5z"/>
	<path class="st10" d="M481,203v1.2c0.5-0.9,1.4-1.3,2.3-1.3c1.8,0,3,1.1,3,2.9v3.8h-0.7v-3.8c0-1.5-0.9-2.3-2.3-2.3s-2.3,1-2.3,2.4
		v3.7h-0.7V203H481z"/>
	<path class="st10" d="M494,206.4c0-2.1,1.5-3.4,3.3-3.4s3.3,1.3,3.3,3.4s-1.5,3.4-3.3,3.4S494,208.4,494,206.4z M500,206.4
		c0-1.7-1.2-2.8-2.7-2.8s-2.7,1.1-2.7,2.8s1.2,2.7,2.7,2.7S500,208.1,500,206.4z"/>
	<path class="st10" d="M504.2,203v1.2c0.5-0.9,1.4-1.3,2.3-1.3c1.8,0,3,1.1,3,2.9v3.8h-0.7v-3.8c0-1.5-0.9-2.3-2.3-2.3
		s-2.3,1-2.3,2.4v3.7h-0.7V203H504.2z"/>
	<path class="st10" d="M512.1,206.3c0-2,1.5-3.4,3.3-3.4s3.5,1.1,3.3,3.7h-5.9c0.1,1.5,1.3,2.4,2.7,2.4c0.9,0,1.9-0.3,2.4-1l0.5,0.4
		c-0.6,0.8-1.8,1.3-2.8,1.3C513.6,209.7,512.1,208.4,512.1,206.3z M518.2,206.1c0-1.6-1.1-2.5-2.7-2.5c-1.4,0-2.5,0.9-2.7,2.5H518.2
		z"/>
	<path class="st10" d="M527.6,200.9c0,0.7-1.1,0.7-1.1,0C526.6,200.2,527.6,200.2,527.6,200.9z M526.8,203v6.6h0.7V203H526.8z"/>
	<path class="st10" d="M531.3,203v1.2c0.5-0.9,1.4-1.3,2.3-1.3c1.8,0,3,1.1,3,2.9v3.8h-0.7v-3.8c0-1.5-0.9-2.3-2.3-2.3
		c-1.4,0-2.3,1-2.3,2.4v3.7h-0.7V203H531.3z"/>
	<path class="st10" d="M545,208.7c-0.7,0.7-1.5,1-2.4,1c-1.9,0-3.4-1.3-3.4-3.4s1.5-3.4,3.4-3.4c0.9,0,1.7,0.3,2.4,1l-0.4,0.4
		c-0.5-0.5-1.3-0.8-2-0.8c-1.5,0-2.7,1-2.7,2.7c0,1.8,1.3,2.7,2.7,2.7c0.7,0,1.4-0.3,2-0.8L545,208.7z"/>
	<path class="st10" d="M548.3,200.3v4c0.5-0.9,1.5-1.3,2.4-1.3c1.8,0,2.8,1.2,2.8,2.9v3.8h-0.6v-3.8c0-1.4-0.6-2.3-2.1-2.3
		c-1.4,0-2.3,1.1-2.3,2.4v3.6h-0.7v-9.3L548.3,200.3L548.3,200.3z"/>
</g>
<polygon class="st9" points="1057.4,261.1 966.2,208.4 966.2,103 1057.4,50.3 1148.8,103 1148.8,208.4 "/>
<line class="st13" x1="1219" y1="377.3" x2="1107.8" y2="243.2"/>
<line class="st13" x1="1152.2" y1="217.6" x2="1063.2" y2="268.8"/>
<g>
	<line class="st14" x1="1806" y1="378.9" x2="1767.4" y2="378.9"/>
	<line class="st14" x1="1806" y1="367.9" x2="1767.4" y2="367.9"/>
	<line class="st14" x1="1806" y1="356.9" x2="1767.4" y2="356.9"/>
	<line class="st14" x1="1806" y1="335" x2="1767.4" y2="335"/>
	<line class="st14" x1="1806" y1="324" x2="1767.4" y2="324"/>
	<line class="st14" x1="1806" y1="313.1" x2="1767.4" y2="313.1"/>
	<line class="st14" x1="1806" y1="302.1" x2="1767.4" y2="302.1"/>
	<line class="st14" x1="1806" y1="280.1" x2="1767.4" y2="280.1"/>
	<line class="st14" x1="1806" y1="269.2" x2="1767.4" y2="269.2"/>
	<line class="st14" x1="1806" y1="258.2" x2="1767.4" y2="258.2"/>
	<line class="st14" x1="1806" y1="247.2" x2="1767.4" y2="247.2"/>
	<line class="st14" x1="1806" y1="225.3" x2="1767.4" y2="225.3"/>
	<line class="st14" x1="1806" y1="214.3" x2="1767.4" y2="214.3"/>
	<line class="st14" x1="1806" y1="203.3" x2="1767.4" y2="203.3"/>
	<line class="st14" x1="1806" y1="192.4" x2="1767.4" y2="192.4"/>
	<line class="st14" x1="1806" y1="170.4" x2="1767.4" y2="170.4"/>
	<line class="st14" x1="1806" y1="159.4" x2="1767.4" y2="159.4"/>
	<line class="st14" x1="1806" y1="148.5" x2="1767.4" y2="148.5"/>
	<line class="st14" x1="1806" y1="137.5" x2="1767.4" y2="137.5"/>
	<line class="st14" x1="1806" y1="115.6" x2="1767.4" y2="115.6"/>
	<line class="st14" x1="1806" y1="126.5" x2="1750.8" y2="126.5"/>
	<line class="st14" x1="1806" y1="181.4" x2="1750.8" y2="181.4"/>
	<line class="st14" x1="1806" y1="236.3" x2="1750.8" y2="236.3"/>
	<line class="st14" x1="1806" y1="291.1" x2="1750.8" y2="291.1"/>
	<line class="st14" x1="1806" y1="346" x2="1750.8" y2="346"/>
</g>
<g>
	<line class="st14" x1="1806" y1="598.6" x2="1767.4" y2="598.6"/>
	<line class="st14" x1="1806" y1="587.7" x2="1767.4" y2="587.7"/>
	<line class="st14" x1="1806" y1="576.7" x2="1767.4" y2="576.7"/>
	<line class="st14" x1="1806" y1="554.7" x2="1767.4" y2="554.7"/>
	<line class="st14" x1="1806" y1="608.6" x2="1767.4" y2="608.6"/>
	<line class="st14" x1="1806" y1="543.8" x2="1767.4" y2="543.8"/>
	<line class="st14" x1="1806" y1="532.8" x2="1767.4" y2="532.8"/>
	<line class="st14" x1="1806" y1="521.8" x2="1767.4" y2="521.8"/>
	<line class="st14" x1="1806" y1="499.9" x2="1767.4" y2="499.9"/>
	<line class="st14" x1="1806" y1="488.9" x2="1767.4" y2="488.9"/>
	<line class="st14" x1="1806" y1="477.9" x2="1767.4" y2="477.9"/>
	<line class="st14" x1="1806" y1="467" x2="1767.4" y2="467"/>
	<line class="st14" x1="1806" y1="445" x2="1767.4" y2="445"/>
	<line class="st14" x1="1806" y1="434" x2="1767.4" y2="434"/>
	<line class="st14" x1="1806" y1="423.1" x2="1767.4" y2="423.1"/>
	<line class="st14" x1="1806" y1="412.1" x2="1767.4" y2="412.1"/>
	<line class="st14" x1="1806" y1="401.1" x2="1750.8" y2="401.1"/>
	<line class="st14" x1="1806" y1="456" x2="1750.8" y2="456"/>
	<line class="st14" x1="1806" y1="510.8" x2="1750.8" y2="510.8"/>
	<line class="st14" x1="1806" y1="565.7" x2="1750.8" y2="565.7"/>
	<line class="st14" x1="1806" y1="619.1" x2="1750.8" y2="619.1"/>
	<line class="st14" x1="1806" y1="390.2" x2="1767.4" y2="390.2"/>
</g>
<path class="st10" d="M1059.2,97.2c10.9-3.2,21.4-2.1,30.3,3.1c22.7,13.3,27.8,49.8,11.7,81.8c-0.5-0.4-1-0.7-1.5-0.9
	c15.7-31.3,10.8-66.8-11.1-79.6c-5.2-3-11.1-4.6-17.4-4.6c-3.8,0-7.7,0.6-11.6,1.7c-4.1,1.2-8.2,3-12.2,5.4
	c-0.9-0.1-1.8-0.1-2.8-0.1C1049.3,101,1054.2,98.7,1059.2,97.2z"/>
<path class="st10" d="M1089.1,189.3c0-3.8,3.1-7,7-7c1,0,1.9,0.2,2.7,0.6c0,0,0,0,0,0c0.6,0.2,1.1,0.5,1.5,0.9c0,0,0,0,0,0
	c1.6,1.3,2.7,3.3,2.7,5.5c0,3.8-3.1,7-7,7c-1.1,0-2.2-0.3-3.2-0.8c0,0,0,0,0,0c-0.5-0.3-1-0.6-1.5-1c0,0,0,0,0,0
	C1090,193.3,1089.1,191.4,1089.1,189.3z"/>
<path class="st10" d="M1042.6,104.7c15.2,0,32,5.2,46.8,15.7c7.2,5.1,13.5,11.1,18.5,17.7c0.1,1,0.1,2,0.2,3
	c-5.1-7.1-11.7-13.7-19.6-19.2c-14.6-10.3-31.1-15.5-46-15.5c-8.7,0-16.7,1.8-23.5,5.3c-0.2-0.5-0.4-1-0.6-1.5
	C1025.4,106.6,1033.7,104.7,1042.6,104.7z"/>
<path class="st10" d="M1065.8,139.3c-5.6,2.5-9.5,8.1-9.5,14.6c0,0.7,0.1,1.5,0.2,2.2c-1.7,0.7-3.5,1-5.5,1
	c-8.3,0-15.1-6.8-15.1-15.1s6.8-15.1,15.1-15.1C1058.4,126.8,1064.6,132.2,1065.8,139.3z"/>
<path class="st10" d="M1063,131.6c1.2-0.3,2.5-0.5,3.9-0.5c6.2,0,11.5,3.9,13.6,9.3c-2.4-1.5-5.3-2.4-8.3-2.4c-2,0-3.9,0.4-5.6,1
	C1066.1,136.2,1064.8,133.7,1063,131.6z"/>
<path class="st10" d="M1045,156.7c-5.5,2.2-9.4,7.4-9.8,13.6c-4.6-2.4-7.8-7.2-7.8-12.8c0-5.7,3.3-10.5,8-12.9
	C1036.2,150,1040,154.6,1045,156.7z"/>
<path class="st10" d="M1046.1,157.1c1.5,0.5,3.2,0.8,4.9,0.8c1.7,0,3.3-0.3,4.9-0.8c0.3,0.1,0.6,0.2,0.9,0.3c1.1,4.9,4.5,9,9.1,11
	c0.2,1,0.3,1.9,0.3,3c0,8.3-6.8,15.1-15.1,15.1s-15.1-6.8-15.1-15.1C1035.9,164.7,1040.2,159.1,1046.1,157.1z"/>
<path class="st10" d="M1066.9,171.3c0-0.9-0.1-1.8-0.2-2.6c1.7,0.6,3.6,1,5.5,1c3.9,0,7.5-1.4,10.2-3.7c0,0.4,0.1,0.8,0.1,1.1
	c0,8.3-6.7,15-15,15c-1.5,0-2.9-0.2-4.3-0.6C1065.5,178.8,1066.9,175.2,1066.9,171.3z"/>
<path class="st10" d="M1072.2,168.9c-8.3,0-15.1-6.8-15.1-15.1s6.8-15.1,15.1-15.1s15.1,6.8,15.1,15.1S1080.5,168.9,1072.2,168.9z"
	/>
<path class="st10" d="M1040.1,107.2c0.8,0,1.6-0.1,2.4-0.1c0.1,0,0.2,0,0.3,0c-9.4,6.8-17.7,16.5-23.7,28.1
	c-6.1,11.8-9.3,24.3-9.6,36c-0.5-0.8-1-1.6-1.4-2.4c0.7-11.2,3.8-23.1,9.6-34.4C1023.4,123.5,1031.3,114,1040.1,107.2z"/>
<path class="st10" d="M1010.8,107.6c3.7,0,6.7,3,6.7,6.7s-3,6.7-6.7,6.7s-6.7-3-6.7-6.7C1004.2,110.5,1007.2,107.6,1010.8,107.6z"/>
<path class="st10" d="M1005.5,121c0.4,0.3,0.9,0.6,1.4,0.9c-5.8,7.6-8.1,17.2-6.5,27.8c2.4,16.4,13.8,33.3,30.6,45.1
	c13.9,9.7,29.3,14.9,43.5,15.4c-0.7,0.5-1.4,0.9-2.1,1.4c-13.9-0.9-28.9-6.1-42.2-15.5c-17.1-12.1-28.8-29.3-31.3-46.2
	C997.2,138.9,999.5,129,1005.5,121z"/>
<path class="st10" d="M1059.3,220.3c-4.2,1.2-8.2,1.8-12.1,1.8c-6.5,0-12.7-1.6-18.2-4.9c-13.5-7.9-20.8-24-21.1-42.5
	c0.5,0.8,1,1.5,1.6,2.3c0.8,17,7.8,31.5,20.2,38.8c8.5,5,18.5,6,29,2.9c11.6-3.4,22.8-11.6,31.7-22.9c0.5,0.4,0.9,0.7,1.5,1
	C1082.8,208.5,1071.3,216.9,1059.3,220.3z"/>
<path class="st10" d="M1113.5,196.2c-8,10.2-21,15.3-35.6,15.5c0.7-0.5,1.3-1,2-1.6c13.4-0.6,25-5.6,32.3-14.9
	c6.1-7.7,8.5-17.5,6.9-28.3c-1-7-3.7-14.1-7.7-20.8c0-1,0-2,0-3c4.9,7.5,8.1,15.6,9.3,23.5C1122.3,177.9,1119.9,188.1,1113.5,196.2z
	"/>
</svg>
