<?xml version="1.0" encoding="utf-8"?>
<!-- Generator: Adobe Illustrator 19.1.0, SVG Export Plug-In . SVG Version: 6.00 Build 0)  -->
<svg version="1.1" id="Layer_1" xmlns="http://www.w3.org/2000/svg" xmlns:xlink="http://www.w3.org/1999/xlink" x="0px" y="0px"
	 viewBox="0 0 64 64" enable-background="new 0 0 64 64" xml:space="preserve">
<g id="Light-bulb">
	<path d="M31.5625019,7.8154001c-8.2930012,0-14.5459003,6.2529001-14.5459003,14.5458994
		c0,5.9941998,1.875,9.1044998,4.044899,12.7050991c1.830101,3.0351028,3.9033012,6.4746017,5.3604012,12.5371017
		c0.1084003,0.4501991,0.5107002,0.7665977,0.972599,0.7665977h10.419899c0.4776001,0,0.8887024-0.3378983,0.9815025-0.8075981
		c1.205101-6.1348,3.0858994-9.5996017,4.7450981-12.6562996c1.9364967-3.5683002,3.6093979-6.6494007,3.6093979-12.5449009
		C47.1503983,14.3408003,40.1571999,7.8154001,31.5625019,7.8154001z M41.7832031,33.9520988
		c-1.6543007,3.0469017-3.5186005,6.4834023-4.7842026,12.4179993h-8.8231983
		c-1.5146999-5.8876991-3.575201-9.3065987-5.4014015-12.3358994c-2.0995998-3.4833984-3.7577991-6.2353992-3.7577991-11.6728992
		c0-7.1522999,5.3936005-12.5458994,12.5459003-12.5458994c7.4922009,0,13.5878963,5.6279001,13.5878963,12.5458994
		C45.1503983,27.7490005,43.6641006,30.4862995,41.7832031,33.9520988z"/>
	<path d="M37.7313995,49.4961014h-10.419899c-0.5527,0-1,0.447197-1,1c0,0.5527,0.4473,1,1,1h10.419899c0.552803,0,1-0.4473,1-1
		C38.7313995,49.9432983,38.2842026,49.4961014,37.7313995,49.4961014z"/>
	<path d="M37.5214996,54.6221008c0.5527,0,1-0.4473,1-1c0-0.5527992-0.4473-1-1-1h-9.9999981c-0.5527992,0-1,0.4472008-1,1
		c0,0.5527,0.4472008,1,1,1H37.5214996z"/>
	<path d="M32.0839996,5.1259999c0.5527,0,1-0.4473,1-1V1c0-0.5527-0.4473-1-1-1c-0.5527973,0-0.9999981,0.4473-0.9999981,1
		v3.1259999C31.0840015,4.6787,31.5312023,5.1259999,32.0839996,5.1259999z"/>
	<path d="M17.6875019,9.2391996L15.4248018,6.9765c-0.3906002-0.3906002-1.0234003-0.3906002-1.4141006,0
		c-0.3906002,0.3906999-0.3906002,1.0235,0,1.4141002l2.2627001,2.2627001
		c0.1953011,0.1953001,0.4512005,0.2929993,0.7070999,0.2929993c0.2558002,0,0.5116997-0.0976992,0.7070007-0.2929993
		C18.0781021,10.2627001,18.0781021,9.6299,17.6875019,9.2391996z"/>
	<path d="M49.9892998,6.9765c-0.3907013-0.3906002-1.0235023-0.3906002-1.4141006,0l-2.2616997,2.2626996
		c-0.3907013,0.3907003-0.3907013,1.0235004,0,1.4141006c0.1953011,0.1953001,0.4510994,0.2929993,0.7070007,0.2929993
		c0.2558975,0,0.5116997-0.0976992,0.7069969-0.2929993l2.2618027-2.2627001C50.3798981,8,50.3798981,7.3671999,49.9892998,6.9765z"
		/>
	<path d="M13.2812014,22.4032993h-3.2000999c-0.5528002,0-1,0.4473-1,1s0.4471998,1,1,1h3.2000999c0.5528002,0,1-0.4473,1-1
		S13.8340015,22.4032993,13.2812014,22.4032993z"/>
	<path d="M53.9188995,22.4032993h-3.1991997c-0.5527,0-1,0.4473-1,1s0.4473,1,1,1h3.1991997c0.5527992,0,1-0.4473,1-1
		S54.4716988,22.4032993,53.9188995,22.4032993z"/>
	<path d="M38.5820007,55.7480011L26.460001,55.7528992l-0.1026001,0.8848
		c-0.0312004,0.2646027-0.0459003,0.5321999-0.0459003,0.8047028C26.3115005,61.0586014,29.097702,64,32.5214996,64
		c3.4238014,0,6.2098999-2.9413986,6.2098999-6.5575981c0-0.2744026-0.0155983-0.5440025-0.0467987-0.8096008L38.5820007,55.7480011
		z M32.5214996,62c-2.2255974,0-4.0527973-1.8778992-4.2001991-4.2471008l8.4004021-0.0048981
		C36.5762024,60.1190987,34.7480011,62,32.5214996,62z"/>
</g>
<g>
</g>
<g>
</g>
<g>
</g>
<g>
</g>
<g>
</g>
<g>
</g>
<g>
</g>
<g>
</g>
<g>
</g>
<g>
</g>
<g>
</g>
<g>
</g>
<g>
</g>
<g>
</g>
<g>
</g>
</svg>
