<?xml version="1.0" encoding="utf-8"?>
<!-- Generator: Adobe Illustrator 22.1.0, SVG Export Plug-In . SVG Version: 6.00 Build 0)  -->
<svg version="1.1" id="Layer_1" xmlns="http://www.w3.org/2000/svg" xmlns:xlink="http://www.w3.org/1999/xlink" x="0px" y="0px"
	 viewBox="0 0 64 64" style="enable-background:new 0 0 64 64;" xml:space="preserve">
<g id="Light-bulb">
	<path d="M31.6,10.6c-8.3,0-14.5,6.3-14.5,14.5c0,6,1.9,9.1,4,12.7c1.8,3,3.9,6.5,5.4,12.5c0.1,0.5,0.5,0.8,1,0.8h10.4
		c0.5,0,0.9-0.3,1-0.8c1.2-6.1,3.1-9.6,4.7-12.7c1.9-3.6,3.6-6.6,3.6-12.5C47.2,17.1,40.2,10.6,31.6,10.6z M42.2,36.9
		c-1.7,3.2-3.7,6.8-5,12.9H28c-1.6-6.1-3.7-9.7-5.6-12.8c-2.2-3.6-3.9-6.5-3.9-12.2c0-7.4,5.6-13.1,13.1-13.1
		c7.8,0,14.1,5.9,14.1,13.1C45.7,30.5,44.1,33.3,42.2,36.9z"/>
	<path d="M37.5,54.1c0.6,0,1-0.3,1-0.7c0-0.4-0.4-0.7-1-0.7h-10c-0.6,0-1,0.3-1,0.7c0,0.4,0.4,0.7,1,0.7H37.5z"/>
	<path d="M38.6,55.6l-12.1,0l0,0c0,0.3-0.1,1.4-0.1,1.7c0,3.6,2.8,6.6,6.2,6.6c3.4,0,6.2-2.9,6.2-6.6C38.7,57,38.6,55.8,38.6,55.6
		L38.6,55.6z M32.5,62.6c-2.5,0-4.5-2.2-4.9-5.1c0-0.3,0.1-0.6,0.4-0.6l8.9,0c0.3,0,0.5,0.3,0.4,0.6C37,60.3,35,62.6,32.5,62.6z"/>
	<g>
		<path d="M17.7,15c-0.1,0-0.2,0-0.3-0.1l-5.4-5.2c-0.2-0.2-0.2-0.5,0-0.7c0.2-0.2,0.5-0.2,0.7,0l5.4,5.2c0.2,0.2,0.2,0.5,0,0.7
			C18,15,17.8,15,17.7,15z"/>
	</g>
	<g>
		<path d="M46.3,15.1c-0.1,0-0.2,0-0.3-0.1c-0.2-0.2-0.2-0.5,0-0.7l5.2-5.4c0.2-0.2,0.5-0.2,0.7,0c0.2,0.2,0.2,0.5,0,0.7L46.7,15
			C46.6,15.1,46.4,15.1,46.3,15.1z"/>
	</g>
	<g>
		<path d="M57.1,27.3h-7.5c-0.3,0-0.5-0.2-0.5-0.5s0.2-0.5,0.5-0.5h7.5c0.3,0,0.5,0.2,0.5,0.5S57.4,27.3,57.1,27.3z"/>
	</g>
	<g>
		<path d="M14.2,27.3H6.6c-0.3,0-0.5-0.2-0.5-0.5s0.2-0.5,0.5-0.5h7.5c0.3,0,0.5,0.2,0.5,0.5S14.4,27.3,14.2,27.3z"/>
	</g>
	<g>
		<path d="M32.1,8.5c-0.3,0-0.5-0.2-0.5-0.5V0.4c0-0.3,0.2-0.5,0.5-0.5s0.5,0.2,0.5,0.5V8C32.6,8.2,32.4,8.5,32.1,8.5z"/>
	</g>
</g>
</svg>
