<?xml version="1.0" encoding="utf-8"?>
<!-- Generator: Adobe Illustrator 19.2.1, SVG Export Plug-In . SVG Version: 6.00 Build 0)  -->
<svg version="1.1" id="Layer_1" xmlns="http://www.w3.org/2000/svg" xmlns:xlink="http://www.w3.org/1999/xlink" x="0px" y="0px"
	 viewBox="0 0 24 24" style="enable-background:new 0 0 24 24;" xml:space="preserve">
<style type="text/css">
	.st0{fill:#F15A29;}
	.st1{fill:#FFFFFF;}
</style>
<g>
	<path class="st0" d="M7.7,12C7.2,11.2,7,10.4,7,9.6c0-2.7,2.2-5,5-5s5,2.2,5,5c0,0.8-0.2,1.6-0.6,2.4L12,19.4L7.7,12z"/>
	<path class="st1" d="M12,5.6c2.2,0,3.9,1.8,3.9,3.9c0,0.7-0.2,1.3-0.5,1.9L12,17.3l-3.4-5.9c-0.3-0.6-0.5-1.2-0.5-1.9
		C8.1,7.4,9.8,5.6,12,5.6 M12,3.5c-3.3,0-6,2.7-6,6c0,1,0.3,2,0.7,2.9l3.5,5.9l1.8,3l1.8-3l3.4-5.9c0.5-1,0.8-1.9,0.8-2.9
		C18,6.2,15.3,3.5,12,3.5L12,3.5z"/>
</g>
</svg>
