<?xml version="1.0" encoding="utf-8"?>
<!-- Generator: Adobe Illustrator 19.2.1, SVG Export Plug-In . SVG Version: 6.00 Build 0)  -->
<svg version="1.1" id="Layer_1" xmlns="http://www.w3.org/2000/svg" xmlns:xlink="http://www.w3.org/1999/xlink" x="0px" y="0px"
	 viewBox="0 0 733 673" style="enable-background:new 0 0 733 673;" xml:space="preserve">
<style type="text/css">
	.st0{fill:none;stroke:#E6EEF8;stroke-width:0.5879;stroke-miterlimit:10;}
	.st1{fill:none;stroke:#E6EEF8;stroke-width:0.4101;stroke-miterlimit:10;}
	.st2{fill:none;stroke:#E6EEF8;stroke-width:0.4527;stroke-miterlimit:10;}
	.st3{fill:none;stroke:#E6EEF8;stroke-width:0.4307;stroke-miterlimit:10;}
	.st4{fill:none;stroke:#E6EEF8;stroke-width:0.4291;stroke-miterlimit:10;}
	.st5{fill:none;stroke:#E6EEF8;stroke-width:0.4165;stroke-miterlimit:10;}
	.st6{fill:none;stroke:#E6EEF8;stroke-width:0.4474;stroke-miterlimit:10;}
	.st7{fill:none;stroke:#D2D3D4;stroke-width:0.5224;stroke-miterlimit:10;}
	.st8{fill:#E6EEF8;}
	.st9{fill:none;stroke:#E6EEF8;stroke-width:1.5677;stroke-miterlimit:10;}
	.st10{fill:none;stroke:#E6EEF8;stroke-width:2.3515;stroke-miterlimit:10;}
</style>
<g>
	<line class="st0" x1="119.2" y1="147.1" x2="176.8" y2="147.1"/>
	<line class="st0" x1="119.2" y1="527.7" x2="176.8" y2="527.7"/>
	<line class="st0" x1="559.3" y1="527.7" x2="616.9" y2="527.7"/>
	<line class="st0" x1="559.3" y1="146.5" x2="616.9" y2="146.5"/>
	<line class="st1" x1="148.1" y1="147" x2="148.1" y2="159.6"/>
	<line class="st0" x1="337.1" y1="173.9" x2="394.7" y2="173.9"/>
	<line class="st2" x1="366" y1="158.8" x2="366" y2="174.1"/>
	<line class="st3" x1="588.2" y1="514.1" x2="588.2" y2="528"/>
	<line class="st4" x1="587.8" y1="147" x2="587.8" y2="160.8"/>
	<line class="st0" x1="337.5" y1="500.5" x2="395.1" y2="500.5"/>
	<line class="st5" x1="366" y1="501" x2="366" y2="514"/>
	<line class="st6" x1="148.1" y1="513" x2="148.1" y2="528"/>
</g>
<path class="st7" d="M161.9,495.2"/>
<path class="st8" d="M147.9,401.5l46.7,27v53.9l-46.7,27l-46.7-27v-53.9L147.9,401.5 M147.9,396.9l-50.7,29.3v58.5l50.7,29.3
	l50.7-29.3v-58.5L147.9,396.9L147.9,396.9z"/>
<g>
	<path class="st8" d="M164.3,478.9L164.3,478.9h-34.6l0,0c-2.8,0-5.1-2.3-5.1-5.1v-40.7c0-0.6,0.5-1,1-1l0,0h34.6l0,0
		c0.4,0,0.8,0.3,0.9,0.6c0.1,0.1,0.1,0.3,0.1,0.4l0,0v14.3h7.1c0.6,0,1,0.5,1,1v25.5C169.4,476.6,167.1,478.9,164.3,478.9z
		 M159.2,473.8v-39.7h-32.6v39.7l0,0l0,0c0,1.7,1.4,3.1,3.1,3.1h30.6C159.6,476,159.2,475,159.2,473.8z M167.4,449.4h-6.1v24.4
		c0,1.7,1.4,3.1,3.1,3.1s3.1-1.4,3.1-3.1v-24.4H167.4z M129.7,471.1c0-0.6,0.5-1,1-1h9.2c0.6,0,1,0.5,1,1c0,0.6-0.5,1-1,1h-9.2
		C130.1,472.1,129.7,471.7,129.7,471.1z M146,456.5h9.2c0.6,0,1,0.5,1,1c0,0.6-0.5,1-1,1H146c-0.6,0-1-0.5-1-1
		S145.4,456.5,146,456.5z M146,465h9.2c0.6,0,1,0.5,1,1c0,0.6-0.5,1-1,1H146c-0.6,0-1-0.5-1-1C145,465.4,145.4,465,146,465z
		 M146,470.1h9.2c0.6,0,1,0.5,1,1c0,0.6-0.5,1-1,1H146c-0.6,0-1-0.5-1-1C145,470.5,145.4,470.1,146,470.1z M145,449h-14.3
		c-0.6,0-1-0.5-1-1c0-0.6,0.5-1,1-1H145c0.6,0,1,0.5,1,1C146,448.6,145.5,449,145,449z M130.7,465h9.2c0.6,0,1,0.5,1,1
		c0,0.6-0.5,1-1,1h-9.2c-0.6,0-1-0.5-1-1C129.7,465.4,130.1,465,130.7,465z M140.9,457.5c0,0.6-0.5,1-1,1h-9.2c-0.6,0-1-0.5-1-1
		c0-0.6,0.5-1,1-1h9.2C140.4,456.5,140.9,457,140.9,457.5z"/>
</g>
<g>
	<path class="st8" d="M60.4,549.3l-1-2.3h-5.6l-1,2.3H52l4.2-9.3H57l4.2,9.3H60.4z M59.1,546.3l-2.5-5.7l-2.5,5.7H59.1z"/>
	<path class="st8" d="M72.9,543.9c-0.7-0.6-1.3-0.7-2.1-0.7c-1,0-2,0.4-2,1.2c0,0.9,1.2,1.1,2,1.2c1.2,0.2,2.8,0.4,2.7,1.9
		c0,1.5-1.5,1.8-2.7,1.8s-2.3-0.4-2.9-1.3l0.5-0.4c0.5,0.8,1.5,1.1,2.4,1.1c0.8,0,2-0.2,2.1-1.3c0-0.9-1.1-1.1-2.1-1.3
		c-1.3-0.2-2.5-0.5-2.6-1.8c0-1.3,1.3-1.9,2.6-1.8c1,0,1.8,0.3,2.5,0.9L72.9,543.9z"/>
	<path class="st8" d="M77,540v4c0.5-0.9,1.5-1.3,2.4-1.3c1.8,0,2.8,1.2,2.8,2.9v3.8h-0.6v-3.8c0-1.4-0.6-2.3-2.1-2.3
		c-1.4,0-2.3,1.1-2.3,2.4v3.6h-0.7V540H77z"/>
	<path class="st8" d="M84.8,546c0-2,1.5-3.4,3.3-3.4s3.5,1.1,3.3,3.7h-5.9c0.1,1.5,1.3,2.4,2.7,2.4c0.9,0,1.9-0.3,2.4-1l0.5,0.4
		c-0.6,0.8-1.8,1.3-2.8,1.3C86.3,549.4,84.8,548.1,84.8,546z M90.8,545.7c0-1.6-1.1-2.5-2.7-2.5c-1.4,0-2.5,0.9-2.7,2.5H90.8z"/>
	<path class="st8" d="M94.1,546c0-2,1.5-3.4,3.3-3.4s3.5,1.1,3.3,3.7h-5.9c0.1,1.5,1.3,2.4,2.7,2.4c0.9,0,1.9-0.3,2.4-1l0.5,0.4
		c-0.6,0.8-1.8,1.3-2.8,1.3C95.6,549.4,94.1,548.1,94.1,546z M100.1,545.7c0-1.6-1.1-2.5-2.7-2.5c-1.4,0-2.5,0.9-2.7,2.5H100.1z"/>
	<path class="st8" d="M104.9,540.7v2h2.2v0.5h-2.2v4c0,0.9,0.2,1.5,1.2,1.5c0.3,0,0.7-0.1,1-0.3l0.2,0.5c-0.4,0.2-0.8,0.3-1.2,0.3
		c-1.4,0-1.9-0.8-1.9-2.1v-4h-1.4v-0.5h1.4v-1.9H104.9z"/>
	<path class="st8" d="M114.7,546c0-2.1,1.5-3.4,3.3-3.4c1.9,0,3.3,1.3,3.3,3.4c0,2.1-1.5,3.4-3.3,3.4S114.7,548.1,114.7,546z
		 M120.7,546c0-1.7-1.2-2.8-2.7-2.8s-2.7,1.1-2.7,2.8s1.2,2.7,2.7,2.7C119.5,548.8,120.7,547.7,120.7,546z"/>
	<path class="st8" d="M124.9,549.3v-6h-1.3v-0.6h1.3v-0.6c0-1.3,0.5-2.3,2-2.3c0.5,0,0.9,0.2,1.3,0.5l-0.3,0.5
		c-0.4-0.2-0.6-0.3-1-0.3c-0.8,0-1.3,0.5-1.3,1.7v0.6h2.2v0.6h-2.2v6h-0.7C124.9,549.4,124.9,549.3,124.9,549.3z"/>
	<path class="st8" d="M135.6,552v-9.3h0.6v1.6c0.5-1,1.6-1.7,2.9-1.7c1.8,0.1,3.2,1.3,3.2,3.4c0,2.2-1.5,3.4-3.3,3.4
		c-1.1,0-2.2-0.5-2.7-1.6v4.3h-0.7V552z M141.6,546c0-1.9-1.2-2.8-2.7-2.8s-2.7,1.2-2.7,2.8s1.2,2.8,2.7,2.8S141.6,547.9,141.6,546z
		"/>
	<path class="st8" d="M151.5,542.7c0,2.2,0,4.4,0,6.6h-0.7v-1.4c-0.6,1-1.6,1.5-2.7,1.5c-1.8,0-3.3-1.4-3.3-3.4s1.5-3.4,3.3-3.4
		c1.1,0,2.1,0.5,2.7,1.5v-1.4L151.5,542.7L151.5,542.7z M145.5,546c0,1.7,1.2,2.8,2.7,2.8c3.7,0,3.7-5.5,0-5.5
		C146.7,543.3,145.5,544.4,145.5,546z"/>
	<path class="st8" d="M154.6,552v-9.3h0.6v1.6c0.5-1,1.6-1.7,2.9-1.7c1.8,0.1,3.2,1.3,3.2,3.4c0,2.2-1.5,3.4-3.3,3.4
		c-1.1,0-2.2-0.5-2.7-1.6v4.3h-0.7V552z M160.7,546c0-1.9-1.2-2.8-2.7-2.8s-2.7,1.2-2.7,2.8s1.2,2.8,2.7,2.8S160.7,547.9,160.7,546z
		"/>
	<path class="st8" d="M163.9,546c0-2,1.5-3.4,3.3-3.4s3.5,1.1,3.3,3.7h-5.9c0.1,1.5,1.3,2.4,2.7,2.4c0.9,0,1.9-0.3,2.4-1l0.5,0.4
		c-0.6,0.8-1.8,1.3-2.8,1.3C165.4,549.4,163.9,548.1,163.9,546z M169.9,545.7c0-1.6-1.1-2.5-2.7-2.5c-1.4,0-2.5,0.9-2.7,2.5H169.9z"
		/>
	<path class="st8" d="M174.1,542.7v1.2c0.4-0.9,1.3-1.2,2.2-1.2c0.5,0,1,0.1,1.4,0.4l-0.3,0.5c-0.3-0.2-0.7-0.3-1.1-0.3
		c-1.2,0-2.2,1-2.2,2.2v3.8h-0.7v-6.6L174.1,542.7L174.1,542.7z"/>
	<path class="st8" d="M185.9,540.6c0,0.7-1.1,0.7-1.1,0C184.9,539.9,185.9,539.9,185.9,540.6z M185,542.7v6.6h0.7v-6.6H185z"/>
	<path class="st8" d="M193.4,543.9c-0.7-0.6-1.3-0.7-2.1-0.7c-1,0-2,0.4-2,1.2c0,0.9,1.2,1.1,2,1.2c1.2,0.2,2.8,0.4,2.7,1.9
		c0,1.5-1.5,1.8-2.7,1.8s-2.3-0.4-2.9-1.3l0.5-0.4c0.5,0.8,1.5,1.1,2.4,1.1c0.8,0,2-0.2,2.1-1.3c0-0.9-1.1-1.1-2.1-1.3
		c-1.3-0.2-2.5-0.5-2.6-1.8c0-1.3,1.3-1.9,2.6-1.8c1,0,1.8,0.3,2.5,0.9L193.4,543.9z"/>
	<path class="st8" d="M208.2,542.7c0,2.2,0,4.4,0,6.6h-0.6v-1.4c-0.6,1-1.6,1.5-2.7,1.5c-1.8,0-3.3-1.4-3.3-3.4s1.5-3.4,3.3-3.4
		c1.1,0,2.1,0.5,2.7,1.5v-1.4L208.2,542.7L208.2,542.7z M202.2,546c0,1.7,1.2,2.8,2.7,2.8c3.7,0,3.7-5.5,0-5.5
		C203.4,543.3,202.2,544.4,202.2,546z"/>
	<path class="st8" d="M211.8,540v4.2c0.5-1.1,1.6-1.5,2.7-1.5c1.8,0,3.3,1.2,3.3,3.4s-1.5,3.4-3.3,3.4c-1.1,0-2.2-0.6-2.7-1.6v1.5
		h-0.6V540H211.8z M211.8,546c0,1.6,1.1,2.8,2.7,2.8c1.5,0,2.7-0.9,2.7-2.8c0-1.9-1.2-2.8-2.7-2.8S211.8,544.4,211.8,546z"/>
	<path class="st8" d="M220.5,546c0-2.1,1.5-3.4,3.3-3.4s3.3,1.3,3.3,3.4c0,2.1-1.5,3.4-3.3,3.4S220.5,548.1,220.5,546z M226.5,546
		c0-1.7-1.2-2.8-2.7-2.8s-2.7,1.1-2.7,2.8s1.2,2.7,2.7,2.7C225.3,548.8,226.5,547.7,226.5,546z"/>
	<path class="st8" d="M235.3,549.3v-1.2c-0.5,0.9-1.4,1.3-2.3,1.3c-1.8,0-3-1.1-3-2.9v-3.8h0.7v3.8c0,1.5,0.9,2.3,2.3,2.3
		s2.3-1,2.3-2.4v-3.7h0.7v6.6L235.3,549.3L235.3,549.3z"/>
	<path class="st8" d="M240.5,540.7v2h2.2v0.5h-2.2v4c0,0.9,0.2,1.5,1.2,1.5c0.3,0,0.7-0.1,1-0.3l0.2,0.5c-0.4,0.2-0.8,0.3-1.2,0.3
		c-1.4,0-1.9-0.8-1.9-2.1v-4h-1.4v-0.5h1.4v-1.9H240.5z"/>
	<path class="st8" d="M52.2,562.8h1.6v-8.1h-1.6v-0.6h2.3v8.7h1.6v0.6h-3.9L52.2,562.8L52.2,562.8z"/>
	<path class="st8" d="M58.3,557.6c0-4.9,7.1-4.9,7.1,0v2.2c0,4.9-7.1,4.9-7.1,0C58.3,559.8,58.3,557.6,58.3,557.6z M59,559.9
		c0,4,5.7,4,5.7,0v-2.2c0-4-5.7-4-5.7,0C59,557.7,59,559.9,59,559.9z"/>
	<path class="st8" d="M68.1,557.6c0-4.9,7.1-4.9,7.1,0v2.2c0,4.9-7.1,4.9-7.1,0V557.6z M68.8,559.9c0,4,5.7,4,5.7,0v-2.2
		c0-4-5.7-4-5.7,0V559.9z"/>
	<path class="st8" d="M79.1,563c0,0.1,0,0.1,0,0.2l-0.5,1.4H78l0.4-1.1c-0.2-0.1-0.3-0.2-0.3-0.5C78,562.3,79.1,562.3,79.1,563z"/>
	<path class="st8" d="M81.9,557.6c0-4.9,7.1-4.9,7.1,0v2.2c0,4.9-7.1,4.9-7.1,0V557.6z M82.6,559.9c0,4,5.7,4,5.7,0v-2.2
		c0-4-5.7-4-5.7,0V559.9z"/>
	<path class="st8" d="M91.7,557.6c0-4.9,7.1-4.9,7.1,0v2.2c0,4.9-7.1,4.9-7.1,0V557.6z M92.4,559.9c0,4,5.7,4,5.7,0v-2.2
		c0-4-5.7-4-5.7,0V559.9z"/>
	<path class="st8" d="M101.5,557.6c0-4.9,7.1-4.9,7.1,0v2.2c0,4.9-7.1,4.9-7.1,0V557.6z M102.2,559.9c0,4,5.7,4,5.7,0v-2.2
		c0-4-5.7-4-5.7,0V559.9z"/>
	<path class="st8" d="M117.2,556.8v1.2c0.5-0.9,1.4-1.3,2.3-1.3c1.8,0,3,1.1,3,2.9v3.8h-0.7v-3.8c0-1.5-0.9-2.3-2.3-2.3
		s-2.3,1-2.3,2.4v3.7h-0.7v-6.6L117.2,556.8L117.2,556.8z"/>
	<path class="st8" d="M131.9,556.8c0,2.2,0,4.4,0,6.6h-0.7V562c-0.6,1-1.6,1.5-2.7,1.5c-1.8,0-3.3-1.4-3.3-3.4s1.5-3.4,3.3-3.4
		c1.1,0,2.1,0.5,2.7,1.5v-1.4L131.9,556.8L131.9,556.8z M125.8,560.1c0,1.7,1.2,2.8,2.7,2.8c3.7,0,3.7-5.5,0-5.5
		C127,557.4,125.8,558.5,125.8,560.1z"/>
	<path class="st8" d="M135.6,556.8v1.2c0.5-0.9,1.4-1.3,2.3-1.3c1.8,0,3,1.1,3,2.9v3.8h-0.7v-3.8c0-1.5-0.9-2.3-2.3-2.3
		s-2.3,1-2.3,2.4v3.7h-0.7v-6.6L135.6,556.8L135.6,556.8z"/>
	<path class="st8" d="M143.6,560.1c0-2.1,1.5-3.4,3.3-3.4s3.3,1.3,3.3,3.4c0,2.1-1.5,3.4-3.3,3.4S143.6,562.2,143.6,560.1z
		 M149.7,560.1c0-1.7-1.2-2.8-2.7-2.8s-2.7,1.1-2.7,2.8s1.2,2.7,2.7,2.7C148.5,562.9,149.7,561.8,149.7,560.1z"/>
	<path class="st8" d="M162.9,563.4v-3.9c0-1.3-0.9-2.2-2.1-2.2c-1.3,0-2.1,0.9-2.1,2.2v3.9H158v-3.9c0-1.3-0.9-2.2-2.1-2.2
		c-1.3,0-2.1,0.9-2.1,2.2v3.9h-0.7v-6.6h0.6v1.1c0.5-0.9,1.3-1.2,2.1-1.2c1,0,2.1,0.5,2.4,1.6c0.4-1.1,1.4-1.6,2.4-1.6
		c1.6,0,2.8,1.1,2.8,2.8v3.9H162.9z"/>
	<path class="st8" d="M166.4,560.1c0-2,1.5-3.4,3.3-3.4s3.5,1.1,3.3,3.7h-5.9c0.1,1.5,1.3,2.4,2.7,2.4c0.9,0,1.9-0.3,2.4-1l0.5,0.4
		c-0.6,0.8-1.8,1.3-2.8,1.3C167.9,563.5,166.4,562.2,166.4,560.1z M172.4,559.9c0-1.6-1.1-2.5-2.7-2.5c-1.4,0-2.5,0.9-2.7,2.5H172.4
		z"/>
	<path class="st8" d="M177.2,554.8v2h2.2v0.5h-2.2v4c0,0.9,0.2,1.5,1.2,1.5c0.3,0,0.7-0.1,1-0.3l0.2,0.5c-0.4,0.2-0.8,0.3-1.2,0.3
		c-1.4,0-1.9-0.8-1.9-2.1v-4h-1.4v-0.5h1.4v-1.9H177.2z"/>
	<path class="st8" d="M181.9,560.1c0-2,1.5-3.4,3.3-3.4s3.5,1.1,3.3,3.7h-5.9c0.1,1.5,1.3,2.4,2.7,2.4c0.9,0,1.9-0.3,2.4-1l0.5,0.4
		c-0.6,0.8-1.8,1.3-2.8,1.3C183.4,563.5,181.9,562.2,181.9,560.1z M187.9,559.9c0-1.6-1.1-2.5-2.7-2.5c-1.4,0-2.5,0.9-2.7,2.5H187.9
		z"/>
	<path class="st8" d="M192.2,556.8v1.2c0.4-0.9,1.3-1.2,2.2-1.2c0.5,0,1,0.1,1.4,0.4l-0.3,0.5c-0.3-0.2-0.7-0.3-1.1-0.3
		c-1.2,0-2.2,1-2.2,2.2v3.8h-0.6v-6.6L192.2,556.8L192.2,556.8z"/>
	<path class="st8" d="M202.6,558c-0.7-0.6-1.3-0.7-2.1-0.7c-1,0-2,0.4-2,1.2c0,0.9,1.2,1.1,2,1.2c1.2,0.2,2.8,0.4,2.7,1.9
		c0,1.5-1.5,1.8-2.7,1.8s-2.3-0.4-2.9-1.3l0.5-0.4c0.5,0.8,1.5,1.1,2.4,1.1c0.8,0,2-0.2,2.1-1.3c0-0.9-1.1-1.1-2.1-1.3
		c-1.3-0.2-2.5-0.5-2.6-1.8c0-1.3,1.3-1.9,2.6-1.8c1,0,1.8,0.3,2.5,0.9L202.6,558z"/>
	<path class="st8" d="M212.6,554.8v2h2.2v0.5h-2.2v4c0,0.9,0.2,1.5,1.2,1.5c0.3,0,0.7-0.1,1-0.3l0.2,0.5c-0.4,0.2-0.8,0.3-1.2,0.3
		c-1.4,0-1.9-0.8-1.9-2.1v-4h-1.3v-0.5h1.4v-1.9H212.6z"/>
	<path class="st8" d="M218.3,554.1v4c0.5-0.9,1.5-1.3,2.4-1.3c1.8,0,2.8,1.2,2.8,2.9v3.8h-0.6v-3.8c0-1.4-0.6-2.3-2.1-2.3
		c-1.4,0-2.3,1.1-2.3,2.4v3.6h-0.7v-9.3L218.3,554.1L218.3,554.1z"/>
	<path class="st8" d="M227.3,554.7c0,0.7-1.1,0.7-1.1,0C226.3,554,227.3,554,227.3,554.7z M226.5,556.8v6.6h0.7v-6.6H226.5z"/>
	<path class="st8" d="M235.7,562.5c-0.7,0.7-1.5,1-2.4,1c-1.9,0-3.4-1.3-3.4-3.4s1.5-3.4,3.4-3.4c0.9,0,1.7,0.3,2.4,1l-0.4,0.4
		c-0.5-0.5-1.3-0.8-2-0.8c-1.5,0-2.7,1-2.7,2.7s1.3,2.7,2.7,2.7c0.7,0,1.4-0.3,2-0.8L235.7,562.5z"/>
	<path class="st8" d="M239,554.1v5.6l3.1-2.9h0.9l0,0l-3.3,3.1l3.7,3.4l0,0h-0.8l-3.5-3.2v3.2h-0.6V554L239,554.1L239,554.1z"/>
</g>
<g>
	<path class="st8" d="M60.5,120.2l-1-2.3h-5.6l-1,2.3h-0.8l4.2-9.3h0.8l4.2,9.3H60.5z M59.2,117.2l-2.5-5.7l-2.5,5.7H59.2z"/>
	<path class="st8" d="M73,114.8c-0.7-0.6-1.3-0.7-2.1-0.7c-1,0-2,0.4-2,1.2c0,0.9,1.2,1.1,2,1.2c1.2,0.2,2.8,0.4,2.7,1.9
		c0,1.5-1.5,1.8-2.7,1.8s-2.3-0.4-2.9-1.3l0.5-0.4c0.5,0.8,1.5,1.1,2.4,1.1c0.8,0,2-0.2,2.1-1.3c0-0.9-1.1-1.1-2.1-1.3
		c-1.3-0.2-2.5-0.5-2.6-1.8c0-1.3,1.3-1.9,2.6-1.8c1,0,1.8,0.3,2.5,0.9L73,114.8z"/>
	<path class="st8" d="M78,111.6v2h2.2v0.5H78v4c0,0.9,0.2,1.5,1.2,1.5c0.3,0,0.7-0.1,1-0.3l0.2,0.5c-0.4,0.2-0.8,0.3-1.2,0.3
		c-1.4,0-1.9-0.8-1.9-2.1v-4h-1.4v-0.5h1.4v-1.9H78z"/>
	<path class="st8" d="M83.7,113.6v1.2c0.4-0.9,1.3-1.2,2.2-1.2c0.5,0,1,0.1,1.4,0.4l-0.3,0.5c-0.3-0.2-0.7-0.3-1.1-0.3
		c-1.2,0-2.2,1-2.2,2.2v3.8H83v-6.6H83.7L83.7,113.6z"/>
	<path class="st8" d="M96,113.6c0,2.2,0,4.4,0,6.6h-0.7v-1.4c-0.6,1-1.6,1.5-2.7,1.5c-1.8,0-3.3-1.4-3.3-3.4s1.5-3.4,3.3-3.4
		c1.1,0,2.1,0.5,2.7,1.5v-1.4L96,113.6L96,113.6z M89.9,116.9c0,1.7,1.2,2.8,2.7,2.8c3.7,0,3.7-5.5,0-5.5
		C91.1,114.1,89.9,115.2,89.9,116.9z"/>
	<path class="st8" d="M99.7,113.6v1.2c0.5-0.9,1.4-1.3,2.3-1.3c1.8,0,3,1.1,3,2.9v3.8h-0.7v-3.8c0-1.5-0.9-2.3-2.3-2.3
		s-2.3,1-2.3,2.4v3.7H99v-6.6L99.7,113.6L99.7,113.6z"/>
	<path class="st8" d="M114.4,110.8v9.3h-0.6v-1.5c-0.5,1-1.6,1.6-2.7,1.6c-1.8,0-3.3-1.2-3.3-3.4s1.5-3.4,3.3-3.4
		c1.1,0,2.2,0.5,2.7,1.5v-4.2L114.4,110.8L114.4,110.8z M108.4,116.9c0,1.8,1.2,2.8,2.7,2.8s2.7-1.1,2.7-2.8c0-1.6-1.2-2.8-2.7-2.8
		S108.4,115,108.4,116.9z"/>
	<path class="st8" d="M122.3,116.9c0-2.1,1.5-3.4,3.3-3.4c1.9,0,3.3,1.3,3.3,3.4s-1.5,3.4-3.3,3.4
		C123.8,120.2,122.3,119,122.3,116.9z M128.3,116.9c0-1.7-1.2-2.8-2.7-2.8s-2.7,1.1-2.7,2.8s1.2,2.7,2.7,2.7
		S128.3,118.6,128.3,116.9z"/>
	<path class="st8" d="M132.5,120.2v-6h-1.3v-0.6h1.3V113c0-1.3,0.5-2.3,2-2.3c0.5,0,0.9,0.2,1.3,0.5l-0.3,0.5
		c-0.4-0.2-0.6-0.3-1-0.3c-0.8,0-1.3,0.5-1.3,1.7v0.6h2.2v0.6h-2.2v6L132.5,120.2L132.5,120.2z"/>
	<path class="st8" d="M143.8,110.8v4c0.5-0.9,1.5-1.3,2.4-1.3c1.8,0,2.8,1.2,2.8,2.9v3.8h-0.6v-3.8c0-1.4-0.6-2.3-2.1-2.3
		c-1.4,0-2.3,1.1-2.3,2.4v3.6h-0.7v-9.3L143.8,110.8L143.8,110.8z"/>
	<path class="st8" d="M157.1,120.2V119c-0.5,0.9-1.4,1.3-2.3,1.3c-1.8,0-3-1.1-3-2.9v-3.8h0.7v3.8c0,1.5,0.9,2.3,2.3,2.3
		c1.4,0,2.3-1,2.3-2.4v-3.7h0.7v6.6L157.1,120.2L157.1,120.2z"/>
	<path class="st8" d="M170.6,120.2v-3.9c0-1.3-0.9-2.2-2.1-2.2c-1.3,0-2.1,0.9-2.1,2.2v3.9h-0.7v-3.9c0-1.3-0.9-2.2-2.1-2.2
		c-1.3,0-2.1,0.9-2.1,2.2v3.9h-0.7v-6.6h0.6v1.1c0.5-0.9,1.3-1.2,2.1-1.2c1,0,2.1,0.5,2.4,1.6c0.4-1.1,1.4-1.6,2.4-1.6
		c1.6,0,2.8,1.1,2.8,2.8v3.9C171.1,120.2,170.6,120.2,170.6,120.2z"/>
	<path class="st8" d="M180.7,113.6c0,2.2,0,4.4,0,6.6H180v-1.4c-0.6,1-1.6,1.5-2.7,1.5c-1.8,0-3.3-1.4-3.3-3.4s1.5-3.4,3.3-3.4
		c1.1,0,2.1,0.5,2.7,1.5v-1.4L180.7,113.6L180.7,113.6z M174.7,116.9c0,1.7,1.2,2.8,2.7,2.8c3.7,0,3.7-5.5,0-5.5
		C175.9,114.1,174.7,115.2,174.7,116.9z"/>
	<path class="st8" d="M184.5,113.6v1.2c0.5-0.9,1.4-1.3,2.3-1.3c1.8,0,3,1.1,3,2.9v3.8h-0.7v-3.8c0-1.5-0.9-2.3-2.3-2.3
		s-2.3,1-2.3,2.4v3.7h-0.7v-6.6L184.5,113.6L184.5,113.6z"/>
	<path class="st8" d="M205.8,115.4c0.1,2.4-1.5,4.8-4.7,4.8c-1.1,0-2.1,0-3.2,0v-9.3c1.1,0,2.1,0,3.2,0
		C204.2,110.8,205.7,113.1,205.8,115.4z M198.6,111.5v8h2.4c2.8,0,4-2.1,4-4.1c0-1.9-1.3-3.9-4-3.9H198.6z"/>
	<path class="st8" d="M209.1,110.8l6.3,7.7v-7.7h0.7v9.3h-0.3l-6.3-7.7v7.7h-0.7v-9.3H209.1z"/>
	<path class="st8" d="M226.9,120.2l-1-2.3h-5.6l-1,2.3h-0.8l4.2-9.3h0.8l4.2,9.3H226.9z M225.6,117.2l-2.5-5.7l-2.5,5.7H225.6z"/>
	<path class="st8" d="M235.8,111.4c0,0.7-1.1,0.7-1.1,0S235.8,110.7,235.8,111.4z M234.9,113.5v6.6h0.7v-6.6H234.9z"/>
	<path class="st8" d="M243.3,114.8c-0.7-0.6-1.3-0.7-2.1-0.7c-1,0-2,0.4-2,1.2c0,0.9,1.2,1.1,2,1.2c1.2,0.2,2.8,0.4,2.7,1.9
		c0,1.5-1.5,1.8-2.7,1.8s-2.3-0.4-2.9-1.3l0.5-0.4c0.5,0.8,1.5,1.1,2.4,1.1c0.8,0,2-0.2,2.1-1.3c0-0.9-1.1-1.1-2.1-1.3
		c-1.3-0.2-2.5-0.5-2.6-1.8c0-1.3,1.3-1.9,2.6-1.8c1,0,1.8,0.3,2.5,0.9L243.3,114.8z"/>
	<path class="st8" d="M45.2,127.4c0-2,1.9-2.6,3.6-2.6s3.6,0.7,3.6,2.7c0,1.9-1.9,2.7-3.6,2.7c-1.4,0-2.9,0.3-2.9,1.9v1.4h6.4v0.7
		h-7.1v-2.1c0-2.1,1.9-2.6,3.6-2.6c1.2,0,2.9-0.5,2.9-2c0-1.6-1.7-2.1-2.9-2.1s-2.9,0.4-2.9,2L45.2,127.4L45.2,127.4z"/>
	<path class="st8" d="M56.3,133.9c0,0.7-1.1,0.7-1.1,0S56.3,133.2,56.3,133.9z"/>
	<path class="st8" d="M59.4,129.2v-4.3h6.5v0.6h-5.8v3h3c2.5,0,3.3,1.4,3.3,2.9s-1.1,2.9-3.6,2.9c-1.7,0-3.6-0.6-3.6-2.6h0.7
		c0,1.6,1.6,1.9,2.9,1.9c2,0,2.9-0.9,2.9-2.2c0-1.1-0.6-2.2-2.6-2.2L59.4,129.2L59.4,129.2z"/>
	<path class="st8" d="M74.8,127.7v1.2c0.5-0.9,1.4-1.3,2.3-1.3c1.8,0,3,1.1,3,2.9v3.8h-0.7v-3.8c0-1.5-0.9-2.3-2.3-2.3
		s-2.3,1-2.3,2.4v3.7h-0.7v-6.6L74.8,127.7L74.8,127.7z"/>
	<path class="st8" d="M89.5,127.7c0,2.2,0,4.4,0,6.6h-0.7v-1.4c-0.6,1-1.6,1.5-2.7,1.5c-1.8,0-3.3-1.4-3.3-3.4s1.5-3.4,3.3-3.4
		c1.1,0,2.1,0.5,2.7,1.5v-1.4L89.5,127.7L89.5,127.7z M83.5,131c0,1.7,1.2,2.8,2.7,2.8c3.7,0,3.7-5.5,0-5.5
		C84.7,128.2,83.5,129.3,83.5,131z"/>
	<path class="st8" d="M93.3,127.7v1.2c0.5-0.9,1.4-1.3,2.3-1.3c1.8,0,3,1.1,3,2.9v3.8h-0.7v-3.8c0-1.5-0.9-2.3-2.3-2.3
		s-2.3,1-2.3,2.4v3.7h-0.7v-6.6L93.3,127.7L93.3,127.7z"/>
	<path class="st8" d="M101.3,131c0-2.1,1.5-3.4,3.3-3.4c1.9,0,3.3,1.3,3.3,3.4s-1.5,3.4-3.3,3.4S101.3,133.1,101.3,131z M107.4,131
		c0-1.7-1.2-2.8-2.7-2.8s-2.7,1.1-2.7,2.8s1.2,2.7,2.7,2.7C106.1,133.7,107.4,132.7,107.4,131z"/>
	<path class="st8" d="M120.6,134.3v-3.9c0-1.3-0.9-2.2-2.1-2.2c-1.3,0-2.1,0.9-2.1,2.2v3.9h-0.7v-3.9c0-1.3-0.9-2.2-2.1-2.2
		c-1.3,0-2.1,0.9-2.1,2.2v3.9h-0.7v-6.6h0.6v1.1c0.5-0.9,1.3-1.2,2.1-1.2c1,0,2.1,0.5,2.4,1.6c0.4-1.1,1.4-1.6,2.4-1.6
		c1.6,0,2.8,1.1,2.8,2.8v3.9H120.6L120.6,134.3z"/>
	<path class="st8" d="M124,131c0-2,1.5-3.4,3.3-3.4s3.5,1.1,3.3,3.7h-5.9c0.1,1.5,1.3,2.4,2.7,2.4c0.9,0,1.9-0.3,2.4-1l0.5,0.4
		c-0.6,0.8-1.8,1.3-2.8,1.3C125.5,134.4,124,133.1,124,131z M130.1,130.7c0-1.6-1.1-2.5-2.7-2.5c-1.4,0-2.5,0.9-2.7,2.5H130.1z"/>
	<path class="st8" d="M134.9,125.7v2h2.2v0.5h-2.2v4c0,0.9,0.2,1.5,1.2,1.5c0.3,0,0.7-0.1,1-0.3l0.2,0.5c-0.4,0.2-0.8,0.3-1.2,0.3
		c-1.4,0-1.9-0.8-1.9-2.1v-4h-1.4v-0.5h1.4v-1.9L134.9,125.7L134.9,125.7z"/>
	<path class="st8" d="M139.6,131c0-2,1.5-3.4,3.3-3.4s3.5,1.1,3.3,3.7h-5.9c0.1,1.5,1.3,2.4,2.7,2.4c0.9,0,1.9-0.3,2.4-1l0.5,0.4
		c-0.6,0.8-1.8,1.3-2.8,1.3C141.1,134.4,139.6,133.1,139.6,131z M145.6,130.7c0-1.6-1.1-2.5-2.7-2.5c-1.4,0-2.5,0.9-2.7,2.5H145.6z"
		/>
	<path class="st8" d="M149.8,127.7v1.2c0.4-0.9,1.3-1.2,2.2-1.2c0.5,0,1,0.1,1.4,0.4l-0.3,0.5c-0.3-0.2-0.7-0.3-1.1-0.3
		c-1.2,0-2.2,1-2.2,2.2v3.8h-0.7v-6.6C149.1,127.7,149.8,127.7,149.8,127.7z"/>
	<path class="st8" d="M160.3,128.9c-0.7-0.6-1.3-0.7-2.1-0.7c-1,0-2,0.4-2,1.2c0,0.9,1.2,1.1,2,1.2c1.2,0.2,2.8,0.4,2.7,1.9
		c0,1.5-1.5,1.8-2.7,1.8s-2.3-0.4-2.9-1.3l0.5-0.4c0.5,0.8,1.5,1.1,2.4,1.1c0.8,0,2-0.2,2.1-1.3c0-0.9-1.1-1.1-2.1-1.3
		c-1.3-0.2-2.5-0.5-2.6-1.8c0-1.3,1.3-1.9,2.6-1.8c1,0,1.8,0.3,2.5,0.9L160.3,128.9z"/>
	<path class="st8" d="M169.6,125.5c0,0.7-1.1,0.7-1.1,0C168.6,124.8,169.6,124.8,169.6,125.5z M168.7,127.7v6.6h0.7v-6.6
		C169.4,127.7,168.7,127.7,168.7,127.7z"/>
	<path class="st8" d="M173.2,127.7v1.2c0.5-0.9,1.4-1.3,2.3-1.3c1.8,0,3,1.1,3,2.9v3.8h-0.7v-3.8c0-1.5-0.9-2.3-2.3-2.3
		s-2.3,1-2.3,2.4v3.7h-0.6v-6.6L173.2,127.7L173.2,127.7z"/>
	<path class="st8" d="M192.9,124.9v9.3h-0.6v-1.5c-0.5,1-1.6,1.6-2.7,1.6c-1.8,0-3.3-1.2-3.3-3.4s1.5-3.4,3.3-3.4
		c1.1,0,2.2,0.5,2.7,1.5v-4.2L192.9,124.9L192.9,124.9z M186.9,131c0,1.8,1.2,2.8,2.7,2.8s2.7-1.1,2.7-2.8c0-1.6-1.2-2.8-2.7-2.8
		S186.9,129.1,186.9,131z"/>
	<path class="st8" d="M197,125.5c0,0.7-1.1,0.7-1.1,0S197,124.8,197,125.5z M196.1,127.7v6.6h0.7v-6.6
		C196.8,127.7,196.1,127.7,196.1,127.7z"/>
	<path class="st8" d="M206.3,127.7c0,2.2,0,4.4,0,6.6h-0.7v-1.4c-0.6,1-1.6,1.5-2.7,1.5c-1.8,0-3.3-1.4-3.3-3.4s1.5-3.4,3.3-3.4
		c1.1,0,2.1,0.5,2.7,1.5v-1.4L206.3,127.7L206.3,127.7z M200.3,131c0,1.7,1.2,2.8,2.7,2.8c3.7,0,3.7-5.5,0-5.5
		C201.5,128.2,200.3,129.3,200.3,131z"/>
	<path class="st8" d="M219.2,134.3v-3.9c0-1.3-0.9-2.2-2.1-2.2c-1.3,0-2.1,0.9-2.1,2.2v3.9h-0.7v-3.9c0-1.3-0.9-2.2-2.1-2.2
		c-1.3,0-2.1,0.9-2.1,2.2v3.9h-0.7v-6.6h0.6v1.1c0.5-0.9,1.3-1.2,2.1-1.2c1,0,2.1,0.5,2.4,1.6c0.4-1.1,1.4-1.6,2.4-1.6
		c1.6,0,2.8,1.1,2.8,2.8v3.9H219.2L219.2,134.3z"/>
	<path class="st8" d="M222.6,131c0-2,1.5-3.4,3.3-3.4s3.5,1.1,3.3,3.7h-5.9c0.1,1.5,1.3,2.4,2.7,2.4c0.9,0,1.9-0.3,2.4-1l0.5,0.4
		c-0.6,0.8-1.8,1.3-2.8,1.3C224.1,134.4,222.6,133.1,222.6,131z M228.6,130.7c0-1.6-1.1-2.5-2.7-2.5c-1.4,0-2.5,0.9-2.7,2.5H228.6z"
		/>
	<path class="st8" d="M233.5,125.7v2h2.2v0.5h-2.2v4c0,0.9,0.2,1.5,1.2,1.5c0.3,0,0.7-0.1,1-0.3l0.2,0.5c-0.4,0.2-0.8,0.3-1.2,0.3
		c-1.4,0-1.9-0.8-1.9-2.1v-4h-1.4v-0.5h1.4v-1.9L233.5,125.7L233.5,125.7z"/>
	<path class="st8" d="M238.2,131c0-2,1.5-3.4,3.3-3.4s3.5,1.1,3.3,3.7h-5.9c0.1,1.5,1.3,2.4,2.7,2.4c0.9,0,1.9-0.3,2.4-1l0.5,0.4
		c-0.6,0.8-1.8,1.3-2.8,1.3C239.7,134.4,238.2,133.1,238.2,131z M244.2,130.7c0-1.6-1.1-2.5-2.7-2.5c-1.4,0-2.5,0.9-2.7,2.5H244.2z"
		/>
	<path class="st8" d="M248.4,127.7v1.2c0.4-0.9,1.3-1.2,2.2-1.2c0.5,0,1,0.1,1.4,0.4l-0.3,0.5c-0.3-0.2-0.7-0.3-1.1-0.3
		c-1.2,0-2.2,1-2.2,2.2v3.8h-0.7v-6.6C247.7,127.7,248.4,127.7,248.4,127.7z"/>
</g>
<g>
	<path class="st8" d="M269.1,472.2V468h-5.9v4.2h-0.7v-9.3h0.7v4.4h5.9v-4.4h0.7v9.3H269.1z"/>
	<path class="st8" d="M278.4,472.2V471c-0.5,0.9-1.4,1.3-2.3,1.3c-1.8,0-3-1.1-3-2.9v-3.8h0.7v3.8c0,1.5,0.9,2.3,2.3,2.3
		s2.3-1,2.3-2.4v-3.7h0.7v6.6L278.4,472.2L278.4,472.2z"/>
	<path class="st8" d="M291.8,472.2v-3.9c0-1.3-0.9-2.2-2.1-2.2c-1.3,0-2.1,0.9-2.1,2.2v3.9h-0.7v-3.9c0-1.3-0.9-2.2-2.1-2.2
		c-1.3,0-2.1,0.9-2.1,2.2v3.9H282v-6.6h0.6v1.1c0.5-0.9,1.3-1.2,2.1-1.2c1,0,2.1,0.5,2.4,1.6c0.4-1.1,1.4-1.6,2.4-1.6
		c1.6,0,2.8,1.1,2.8,2.8v3.9L291.8,472.2L291.8,472.2z"/>
	<path class="st8" d="M302,465.6c0,2.2,0,4.4,0,6.6h-0.7v-1.4c-0.6,1-1.6,1.5-2.7,1.5c-1.8,0-3.3-1.4-3.3-3.4s1.5-3.4,3.3-3.4
		c1.1,0,2.1,0.5,2.7,1.5v-1.4L302,465.6L302,465.6z M296,468.9c0,1.7,1.2,2.8,2.7,2.8c3.7,0,3.7-5.5,0-5.5
		C297.2,466.2,296,467.3,296,468.9z"/>
	<path class="st8" d="M305.7,465.6v1.2c0.5-0.9,1.4-1.3,2.3-1.3c1.8,0,3,1.1,3,2.9v3.8h-0.7v-3.8c0-1.5-0.9-2.3-2.3-2.3
		s-2.3,1-2.3,2.4v3.7H305v-6.6L305.7,465.6L305.7,465.6z"/>
	<path class="st8" d="M319.7,462.9v4c0.5-0.9,1.5-1.3,2.4-1.3c1.8,0,2.8,1.2,2.8,2.9v3.8h-0.6v-3.8c0-1.4-0.6-2.3-2.1-2.3
		c-1.4,0-2.3,1.1-2.3,2.4v3.6h-0.7v-9.3L319.7,462.9L319.7,462.9z"/>
	<path class="st8" d="M334.2,465.6c0,2.2,0,4.4,0,6.6h-0.6v-1.4c-0.6,1-1.6,1.5-2.7,1.5c-1.8,0-3.3-1.4-3.3-3.4s1.5-3.4,3.3-3.4
		c1.1,0,2.1,0.5,2.7,1.5v-1.4L334.2,465.6L334.2,465.6z M328.2,468.9c0,1.7,1.2,2.8,2.7,2.8c3.7,0,3.7-5.5,0-5.5
		C329.4,466.2,328.2,467.3,328.2,468.9z"/>
	<path class="st8" d="M338.2,463.5c0,0.7-1.1,0.7-1.1,0S338.2,462.8,338.2,463.5z M337.3,465.6v6.6h0.7v-6.6H337.3z"/>
	<path class="st8" d="M341.8,465.6v1.2c0.4-0.9,1.3-1.2,2.2-1.2c0.5,0,1,0.1,1.4,0.4l-0.3,0.5c-0.3-0.2-0.7-0.3-1.1-0.3
		c-1.2,0-2.2,1-2.2,2.2v3.8h-0.7v-6.6H341.8L341.8,465.6z"/>
	<path class="st8" d="M353.6,463.5c0,0.7-1.1,0.7-1.1,0S353.6,462.8,353.6,463.5z M352.7,465.6v6.6h0.7v-6.6H352.7z"/>
	<path class="st8" d="M361.1,466.8c-0.7-0.6-1.3-0.7-2.1-0.7c-1,0-2,0.4-2,1.2c0,0.9,1.2,1.1,2,1.2c1.2,0.2,2.8,0.4,2.7,1.9
		c0,1.5-1.5,1.8-2.7,1.8s-2.3-0.4-2.9-1.3l0.5-0.4c0.5,0.8,1.5,1.1,2.4,1.1c0.8,0,2-0.2,2.1-1.3c0-0.9-1.1-1.1-2.1-1.3
		c-1.3-0.2-2.5-0.5-2.6-1.8c0-1.3,1.3-1.9,2.6-1.8c1,0,1.8,0.3,2.5,0.9L361.1,466.8z"/>
	<path class="st8" d="M375.9,465.6c0,2.2,0,4.4,0,6.6h-0.7v-1.4c-0.6,1-1.6,1.5-2.7,1.5c-1.8,0-3.3-1.4-3.3-3.4s1.5-3.4,3.3-3.4
		c1.1,0,2.1,0.5,2.7,1.5v-1.4L375.9,465.6L375.9,465.6z M369.8,468.9c0,1.7,1.2,2.8,2.7,2.8c3.7,0,3.7-5.5,0-5.5
		C371,466.2,369.8,467.3,369.8,468.9z"/>
	<path class="st8" d="M379,475v-9.3h0.6v1.6c0.5-1,1.6-1.7,2.9-1.7c1.8,0.1,3.2,1.3,3.2,3.4c0,2.2-1.5,3.4-3.3,3.4
		c-1.1,0-2.2-0.5-2.7-1.6v4.3L379,475L379,475z M385,468.9c0-1.9-1.2-2.8-2.7-2.8s-2.7,1.2-2.7,2.8s1.2,2.8,2.7,2.8
		S385,470.8,385,468.9z"/>
	<path class="st8" d="M388.6,475v-9.3h0.6v1.6c0.5-1,1.6-1.7,2.9-1.7c1.8,0.1,3.2,1.3,3.2,3.4c0,2.2-1.5,3.4-3.3,3.4
		c-1.1,0-2.2-0.5-2.7-1.6v4.3L388.6,475L388.6,475z M394.6,468.9c0-1.9-1.2-2.8-2.7-2.8s-2.7,1.2-2.7,2.8s1.2,2.8,2.7,2.8
		S394.6,470.8,394.6,468.9z"/>
	<path class="st8" d="M398.8,465.6v1.2c0.4-0.9,1.3-1.2,2.2-1.2c0.5,0,1,0.1,1.4,0.4l-0.3,0.5c-0.3-0.2-0.7-0.3-1.1-0.3
		c-1.2,0-2.2,1-2.2,2.2v3.8h-0.7v-6.6H398.8L398.8,465.6z"/>
	<path class="st8" d="M404.5,468.9c0-2.1,1.5-3.4,3.3-3.4s3.3,1.3,3.3,3.4s-1.5,3.4-3.3,3.4S404.5,471,404.5,468.9z M410.5,468.9
		c0-1.7-1.2-2.8-2.7-2.8s-2.7,1.1-2.7,2.8s1.2,2.7,2.7,2.7C409.3,471.7,410.5,470.7,410.5,468.9z"/>
	<path class="st8" d="M416.2,468.3l2-2.7h0.8l0,0l-2.4,3.1l2.5,3.4l0,0h-0.8l-2.2-2.9l-2.2,2.9h-0.8l0,0l2.5-3.4l-2.4-3.1l0,0h0.8
		L416.2,468.3z"/>
	<path class="st8" d="M422.5,463.5c0,0.7-1.1,0.7-1.1,0C421.5,462.8,422.5,462.8,422.5,463.5z M421.7,465.6v6.6h0.7v-6.6H421.7z"/>
	<path class="st8" d="M435.3,472.2v-3.9c0-1.3-0.9-2.2-2.1-2.2c-1.3,0-2.1,0.9-2.1,2.2v3.9h-0.7v-3.9c0-1.3-0.9-2.2-2.1-2.2
		c-1.3,0-2.1,0.9-2.1,2.2v3.9h-0.7v-6.6h0.6v1.1c0.5-0.9,1.3-1.2,2.1-1.2c1,0,2.1,0.5,2.4,1.6c0.4-1.1,1.4-1.6,2.4-1.6
		c1.6,0,2.8,1.1,2.8,2.8v3.9L435.3,472.2L435.3,472.2z"/>
	<path class="st8" d="M445.4,465.6c0,2.2,0,4.4,0,6.6h-0.7v-1.4c-0.6,1-1.6,1.5-2.7,1.5c-1.8,0-3.3-1.4-3.3-3.4s1.5-3.4,3.3-3.4
		c1.1,0,2.1,0.5,2.7,1.5v-1.4L445.4,465.6L445.4,465.6z M439.4,468.9c0,1.7,1.2,2.8,2.7,2.8c3.7,0,3.7-5.5,0-5.5
		C440.6,466.2,439.4,467.3,439.4,468.9z"/>
	<path class="st8" d="M449.8,463.7v2h2.2v0.5h-2.2v4c0,0.9,0.2,1.5,1.2,1.5c0.3,0,0.7-0.1,1-0.3l0.2,0.5c-0.4,0.2-0.8,0.3-1.2,0.3
		c-1.4,0-1.9-0.8-1.9-2.1v-4h-1.4v-0.5h1.4v-1.9H449.8z"/>
	<path class="st8" d="M454.5,468.9c0-2,1.5-3.4,3.3-3.4s3.5,1.1,3.3,3.7h-5.9c0.1,1.5,1.3,2.4,2.7,2.4c0.9,0,1.9-0.3,2.4-1l0.5,0.4
		c-0.6,0.8-1.8,1.3-2.8,1.3C456,472.3,454.5,471,454.5,468.9z M460.5,468.7c0-1.6-1.1-2.5-2.7-2.5c-1.4,0-2.5,0.9-2.7,2.5H460.5z"/>
	<path class="st8" d="M464.7,462.9v9.3H464v-9.3H464.7z"/>
	<path class="st8" d="M473.7,465.6l-4,9.3H469l1.2-2.8l-2.6-6.5h0.7l1.5,3.9l0.8,1.9l0.8-1.9l1.7-3.9H473.7z"/>
	<path class="st8" d="M282.1,481.3c-0.7,1.1-1.8,1.3-3,1.3c-1.8,0-3.6-0.8-3.6-2.9s1.9-2.9,3.6-2.9c1.8,0,3.7,0.8,3.7,2.9v4.1
		c0,1.8-1.8,2.6-3.5,2.6c-1.9,0-3.4-0.8-3.6-2.4h0.7c0.1,1.1,1.3,1.7,2.8,1.7c1.4,0,2.9-0.7,2.9-1.9V481.3L282.1,481.3z
		 M276.1,479.8c0,1.7,1.6,2.2,2.9,2.2s3-0.7,3-2.2c0-1.7-1.6-2.2-3-2.2S276.1,478,276.1,479.8z"/>
	<path class="st8" d="M285.7,480.6c0-4.9,7.1-4.9,7.1,0v2.2c0,4.9-7.1,4.9-7.1,0V480.6z M286.4,482.8c0,4,5.7,4,5.7,0v-2.2
		c0-4-5.7-4-5.7,0V482.8z"/>
	<path class="st8" d="M296.6,485.9c0,0.1,0,0.1,0,0.2l-0.5,1.4h-0.6l0.4-1.1c-0.2-0.1-0.3-0.2-0.3-0.5
		C295.6,485.2,296.6,485.2,296.6,485.9z"/>
	<path class="st8" d="M299.4,480.6c0-4.9,7.1-4.9,7.1,0v2.2c0,4.9-7.1,4.9-7.1,0V480.6z M300.1,482.8c0,4,5.7,4,5.7,0v-2.2
		c0-4-5.7-4-5.7,0V482.8z"/>
	<path class="st8" d="M309.2,480.6c0-4.9,7.1-4.9,7.1,0v2.2c0,4.9-7.1,4.9-7.1,0V480.6z M309.9,482.8c0,4,5.7,4,5.7,0v-2.2
		c0-4-5.7-4-5.7,0V482.8z"/>
	<path class="st8" d="M319,480.6c0-4.9,7.1-4.9,7.1,0v2.2c0,4.9-7.1,4.9-7.1,0V480.6z M319.7,482.8c0,4,5.7,4,5.7,0v-2.2
		c0-4-5.7-4-5.7,0V482.8z"/>
	<path class="st8" d="M334.7,479.8v1.2c0.5-0.9,1.4-1.3,2.3-1.3c1.8,0,3,1.1,3,2.9v3.8h-0.7v-3.8c0-1.5-0.9-2.3-2.3-2.3
		s-2.3,1-2.3,2.4v3.7H334v-6.6L334.7,479.8L334.7,479.8z"/>
	<path class="st8" d="M349.4,479.8c0,2.2,0,4.4,0,6.6h-0.7V485c-0.6,1-1.6,1.5-2.7,1.5c-1.8,0-3.3-1.4-3.3-3.4s1.5-3.4,3.3-3.4
		c1.1,0,2.1,0.5,2.7,1.5v-1.4L349.4,479.8L349.4,479.8z M343.4,483c0,1.7,1.2,2.8,2.7,2.8c3.7,0,3.7-5.5,0-5.5
		C344.6,480.3,343.4,481.4,343.4,483z"/>
	<path class="st8" d="M353.1,479.8v1.2c0.5-0.9,1.4-1.3,2.3-1.3c1.8,0,3,1.1,3,2.9v3.8h-0.7v-3.8c0-1.5-0.9-2.3-2.3-2.3
		s-2.3,1-2.3,2.4v3.7h-0.7v-6.6L353.1,479.8L353.1,479.8z"/>
	<path class="st8" d="M361.2,483.1c0-2.1,1.5-3.4,3.3-3.4c1.9,0,3.3,1.3,3.3,3.4s-1.5,3.4-3.3,3.4
		C362.7,486.4,361.2,485.1,361.2,483.1z M367.2,483.1c0-1.7-1.2-2.8-2.7-2.8s-2.7,1.1-2.7,2.8s1.2,2.7,2.7,2.7
		S367.2,484.8,367.2,483.1z"/>
	<path class="st8" d="M380.5,486.3v-3.9c0-1.3-0.9-2.2-2.1-2.2c-1.3,0-2.1,0.9-2.1,2.2v3.9h-0.7v-3.9c0-1.3-0.9-2.2-2.1-2.2
		c-1.3,0-2.1,0.9-2.1,2.2v3.9h-0.7v-6.6h0.6v1.1c0.5-0.9,1.3-1.2,2.1-1.2c1,0,2.1,0.5,2.4,1.6c0.4-1.1,1.4-1.6,2.4-1.6
		c1.6,0,2.8,1.1,2.8,2.8v3.9L380.5,486.3L380.5,486.3z"/>
	<path class="st8" d="M383.9,483c0-2,1.5-3.4,3.3-3.4s3.5,1.1,3.3,3.7h-5.9c0.1,1.5,1.3,2.4,2.7,2.4c0.9,0,1.9-0.3,2.4-1l0.5,0.4
		c-0.6,0.8-1.8,1.3-2.8,1.3C385.4,486.4,383.9,485.1,383.9,483z M389.9,482.8c0-1.6-1.1-2.5-2.7-2.5c-1.4,0-2.5,0.9-2.7,2.5H389.9z"
		/>
	<path class="st8" d="M394.8,477.8v2h2.2v0.5h-2.2v4c0,0.9,0.2,1.5,1.2,1.5c0.3,0,0.7-0.1,1-0.3l0.2,0.5c-0.4,0.2-0.8,0.3-1.2,0.3
		c-1.4,0-1.9-0.8-1.9-2.1v-4h-1.4v-0.5h1.4v-1.9H394.8z"/>
	<path class="st8" d="M399.5,483c0-2,1.5-3.4,3.3-3.4s3.5,1.1,3.3,3.7h-5.9c0.1,1.5,1.3,2.4,2.7,2.4c0.9,0,1.9-0.3,2.4-1l0.5,0.4
		c-0.6,0.8-1.8,1.3-2.8,1.3C401,486.4,399.5,485.1,399.5,483z M405.5,482.8c0-1.6-1.1-2.5-2.7-2.5c-1.4,0-2.5,0.9-2.7,2.5H405.5z"/>
	<path class="st8" d="M409.7,479.8v1.2c0.4-0.9,1.3-1.2,2.2-1.2c0.5,0,1,0.1,1.4,0.4l-0.3,0.5c-0.3-0.2-0.7-0.3-1.1-0.3
		c-1.2,0-2.2,1-2.2,2.2v3.8H409v-6.6H409.7L409.7,479.8z"/>
	<path class="st8" d="M420.2,481c-0.7-0.6-1.3-0.7-2.1-0.7c-1,0-2,0.4-2,1.2c0,0.9,1.2,1.1,2,1.2c1.2,0.2,2.8,0.4,2.7,1.9
		c0,1.5-1.5,1.8-2.7,1.8s-2.3-0.4-2.9-1.3l0.5-0.4c0.5,0.8,1.5,1.1,2.4,1.1c0.8,0,2-0.2,2.1-1.3c0-0.9-1.1-1.1-2.1-1.3
		c-1.3-0.2-2.5-0.5-2.6-1.8c0-1.3,1.3-1.9,2.6-1.8c1,0,1.8,0.3,2.5,0.9L420.2,481z"/>
	<path class="st8" d="M435.4,486.3h-0.7l-1.1-2.9l-0.8-2.6l-0.8,2.6l-1.1,2.9h-0.7l-2.3-6.6h0.7l2,5.8l2-5.8h0.5l2,5.8l2-5.8h0.7
		L435.4,486.3z"/>
	<path class="st8" d="M441,477.6c0,0.7-1.1,0.7-1.1,0C440,476.9,441,476.9,441,477.6z M440.2,479.7v6.6h0.7v-6.6H440.2z"/>
	<path class="st8" d="M450.3,477v9.3h-0.6v-1.5c-0.5,1-1.6,1.6-2.7,1.6c-1.8,0-3.3-1.2-3.3-3.4s1.5-3.4,3.3-3.4
		c1.1,0,2.2,0.5,2.7,1.5V477H450.3z M444.3,483c0,1.8,1.2,2.8,2.7,2.8s2.7-1.1,2.7-2.8s-1.2-2.8-2.7-2.8
		C445.5,480.3,444.3,481.2,444.3,483z"/>
	<path class="st8" d="M453.3,483c0-2,1.5-3.4,3.3-3.4s3.5,1.1,3.3,3.7H454c0.1,1.5,1.3,2.4,2.7,2.4c0.9,0,1.9-0.3,2.4-1l0.5,0.4
		c-0.6,0.8-1.8,1.3-2.8,1.3C454.8,486.4,453.3,485.1,453.3,483z M459.3,482.8c0-1.6-1.1-2.5-2.7-2.5c-1.4,0-2.5,0.9-2.7,2.5H459.3z"
		/>
</g>
<path class="st8" d="M365.9,516.1l46.7,27V597l-46.7,27l-46.7-27v-53.9L365.9,516.1 M365.9,511.5l-50.7,29.3v58.5l50.7,29.3
	l50.7-29.3v-58.5L365.9,511.5L365.9,511.5z"/>
<path class="st9" d="M386.9,546c0,0-32.5,11.2-36.5,39.9c2.5,6.7,6.3,5.2,8,3.6c1.6-1.6-3.7-27.5,30.2-42.7
	C391.4,545.1,389.3,545,386.9,546z"/>
<path class="st8" d="M365.9,48.4l46.7,26.9v54l-46.7,26.9l-46.7-26.9v-54L365.9,48.4 M365.9,43.8L315.2,73v58.6l50.7,29.2l50.7-29.2
	V73L365.9,43.8L365.9,43.8z"/>
<g>
	<line class="st9" x1="341.9" y1="112.9" x2="341.9" y2="102"/>
	<line class="st9" x1="345.3" y1="112.9" x2="345.3" y2="102"/>
	<line class="st9" x1="351.9" y1="112.9" x2="351.9" y2="102"/>
	<line class="st9" x1="348.6" y1="112.9" x2="348.6" y2="102"/>
	<line class="st9" x1="355.3" y1="112.9" x2="355.3" y2="102"/>
	<line class="st9" x1="358.6" y1="112.9" x2="358.6" y2="102"/>
	<line class="st9" x1="361.9" y1="112.9" x2="361.9" y2="102"/>
	<line class="st9" x1="368.6" y1="112.9" x2="368.6" y2="102"/>
	<line class="st9" x1="365.4" y1="112.9" x2="365.4" y2="102"/>
	<line class="st9" x1="372" y1="112.9" x2="372" y2="102"/>
	<line class="st9" x1="375.3" y1="112.9" x2="375.3" y2="102"/>
	<line class="st9" x1="378.6" y1="112.9" x2="378.6" y2="102"/>
	<line class="st9" x1="385.4" y1="112.9" x2="385.4" y2="102"/>
	<line class="st9" x1="388.8" y1="112.9" x2="388.8" y2="102"/>
	<line class="st9" x1="382" y1="112.9" x2="382" y2="94.3"/>
	<rect x="338.6" y="86.7" class="st9" width="54.3" height="28.8"/>
	<g>
		<path class="st8" d="M377.2,98.3h-1.7v-6.5c-0.6,0.6-1.4,1-2.2,1.3v-1.6c0.4-0.1,0.9-0.4,1.5-0.8c0.5-0.4,0.9-0.9,1.1-1.4h1.4
			L377.2,98.3L377.2,98.3z"/>
	</g>
</g>
<g>
	<path class="st8" d="M497.6,120.2l-1-2.3H491l-1,2.3h-0.8l4.2-9.3h0.8l4.2,9.3H497.6z M496.3,117.2l-2.5-5.7l-2.5,5.7H496.3z"/>
	<path class="st8" d="M511,113.3l0.4,0.4l-0.6,0.7c0.5,0.5,0.8,1.2,0.8,2.2c0,1.1-0.7,2.3-1.8,2.8c1.2,0.4,1.8,1.2,1.8,2.4
		c0,1.8-1.4,2.6-3.1,2.6s-3.1-1-3.1-2.6h0.7c0,1.3,1.1,2,2.5,2s2.5-0.6,2.5-2s-1.3-2-2.5-2c-1.9,0-3.1-1.4-3.1-3.2
		c0-2.1,1.4-3.2,3.1-3.2c0.7,0,1.4,0.2,1.9,0.6L511,113.3z M506,116.7c0,1.4,0.9,2.5,2.4,2.5c1.4,0,2.5-1.2,2.5-2.5
		c0-1.7-1.1-2.6-2.5-2.6C507.1,114.1,506,114.9,506,116.7z"/>
	<path class="st8" d="M514.8,113.6v1.2c0.4-0.9,1.3-1.2,2.2-1.2c0.5,0,1,0.1,1.4,0.4l-0.3,0.5c-0.3-0.2-0.7-0.3-1.1-0.3
		c-1.2,0-2.2,1-2.2,2.2v3.8h-0.7v-6.6H514.8L514.8,113.6z"/>
	<path class="st8" d="M527.1,113.6c0,2.2,0,4.4,0,6.6h-0.7v-1.4c-0.6,1-1.6,1.5-2.7,1.5c-1.8,0-3.3-1.4-3.3-3.4s1.5-3.4,3.3-3.4
		c1.1,0,2.1,0.5,2.7,1.5v-1.4L527.1,113.6L527.1,113.6z M521.1,116.9c0,1.7,1.2,2.8,2.7,2.8c3.7,0,3.7-5.5,0-5.5
		C522.3,114.1,521.1,115.2,521.1,116.9z"/>
	<path class="st8" d="M531.1,111.4c0,0.7-1.1,0.7-1.1,0S531.1,110.7,531.1,111.4z M530.2,113.5v6.6h0.7v-6.6H530.2z"/>
	<path class="st8" d="M534.7,113.6v1.2c0.5-0.9,1.4-1.3,2.3-1.3c1.8,0,3,1.1,3,2.9v3.8h-0.7v-3.8c0-1.5-0.9-2.3-2.3-2.3
		c-1.4,0-2.3,1-2.3,2.4v3.7H534v-6.6L534.7,113.6L534.7,113.6z"/>
	<path class="st8" d="M547.8,116.9c0-2.1,1.5-3.4,3.3-3.4s3.3,1.3,3.3,3.4s-1.5,3.4-3.3,3.4S547.8,119,547.8,116.9z M553.8,116.9
		c0-1.7-1.2-2.8-2.7-2.8s-2.7,1.1-2.7,2.8s1.2,2.7,2.7,2.7S553.8,118.6,553.8,116.9z"/>
	<path class="st8" d="M558,120.2v-6h-1.4v-0.6h1.3V113c0-1.3,0.5-2.3,2-2.3c0.5,0,0.9,0.2,1.3,0.5l-0.3,0.5c-0.4-0.2-0.6-0.3-1-0.3
		c-0.8,0-1.3,0.5-1.3,1.7v0.6h2.2v0.6h-2.2v6L558,120.2L558,120.2z"/>
	<path class="st8" d="M573.2,114.8c-0.7-0.6-1.3-0.7-2.1-0.7c-1,0-2,0.4-2,1.2c0,0.9,1.2,1.1,2,1.2c1.2,0.2,2.8,0.4,2.7,1.9
		c0,1.5-1.5,1.8-2.7,1.8s-2.3-0.4-2.9-1.3l0.5-0.4c0.5,0.8,1.5,1.1,2.4,1.1c0.8,0,2-0.2,2.1-1.3c0-0.9-1.1-1.1-2.1-1.3
		c-1.3-0.2-2.5-0.5-2.6-1.8c0-1.3,1.3-1.9,2.6-1.8c1,0,1.8,0.3,2.5,0.9L573.2,114.8z"/>
	<path class="st8" d="M582.9,113.6c0,2.2,0,4.4,0,6.6h-0.7v-1.4c-0.6,1-1.6,1.5-2.7,1.5c-1.8,0-3.3-1.4-3.3-3.4s1.5-3.4,3.3-3.4
		c1.1,0,2.1,0.5,2.7,1.5v-1.4L582.9,113.6L582.9,113.6z M576.9,116.9c0,1.7,1.2,2.8,2.7,2.8c3.7,0,3.7-5.5,0-5.5
		C578.1,114.1,576.9,115.2,576.9,116.9z"/>
	<path class="st8" d="M586.7,113.6v1.2c0.5-0.9,1.4-1.3,2.3-1.3c1.8,0,3,1.1,3,2.9v3.8h-0.7v-3.8c0-1.5-0.9-2.3-2.3-2.3
		c-1.4,0-2.3,1-2.3,2.4v3.7H586v-6.6L586.7,113.6L586.7,113.6z"/>
	<path class="st8" d="M601.4,110.8v9.3h-0.6v-1.5c-0.5,1-1.6,1.6-2.7,1.6c-1.8,0-3.3-1.2-3.3-3.4s1.5-3.4,3.3-3.4
		c1.1,0,2.2,0.5,2.7,1.5v-4.2L601.4,110.8L601.4,110.8z M595.3,116.9c0,1.8,1.2,2.8,2.7,2.8s2.7-1.1,2.7-2.8c0-1.6-1.2-2.8-2.7-2.8
		S595.3,115,595.3,116.9z"/>
	<path class="st8" d="M610.4,111.4c0,0.7-1.1,0.7-1.1,0C609.4,110.7,610.4,110.7,610.4,111.4z M609.6,113.5v6.6h0.7v-6.6H609.6z"/>
	<path class="st8" d="M617.9,114.8c-0.7-0.6-1.3-0.7-2.1-0.7c-1,0-2,0.4-2,1.2c0,0.9,1.2,1.1,2,1.2c1.2,0.2,2.8,0.4,2.7,1.9
		c0,1.5-1.5,1.8-2.7,1.8s-2.3-0.4-2.9-1.3l0.5-0.4c0.5,0.8,1.5,1.1,2.4,1.1c0.8,0,2-0.2,2.1-1.3c0-0.9-1.1-1.1-2.1-1.3
		c-1.3-0.2-2.5-0.5-2.6-1.8c0-1.3,1.3-1.9,2.6-1.8c1,0,1.8,0.3,2.5,0.9L617.9,114.8z"/>
	<path class="st8" d="M626.4,115.1v-4.3h6.5v0.6h-5.8v3h3c2.5,0,3.3,1.4,3.3,2.9s-1.1,2.9-3.6,2.9c-1.7,0-3.6-0.6-3.6-2.6h0.7
		c0,1.6,1.6,1.9,2.9,1.9c2,0,2.9-0.9,2.9-2.2c0-1.1-0.6-2.2-2.6-2.2L626.4,115.1L626.4,115.1z"/>
	<path class="st8" d="M636,114.4c0-4.9,7.1-4.9,7.1,0v2.2c0,4.9-7.1,4.9-7.1,0V114.4z M636.7,116.6c0,4,5.7,4,5.7,0v-2.2
		c0-4-5.7-4-5.7,0V116.6z"/>
	<path class="st8" d="M645.8,114.4c0-4.9,7.1-4.9,7.1,0v2.2c0,4.9-7.1,4.9-7.1,0V114.4z M646.5,116.6c0,4,5.7,4,5.7,0v-2.2
		c0-4-5.7-4-5.7,0V116.6z"/>
	<path class="st8" d="M656.7,119.8c0,0.1,0,0.1,0,0.2l-0.5,1.4h-0.6l0.4-1.1c-0.2-0.1-0.3-0.2-0.3-0.5
		C655.7,119.1,656.7,119.1,656.7,119.8z"/>
	<path class="st8" d="M659.5,114.4c0-4.9,7.1-4.9,7.1,0v2.2c0,4.9-7.1,4.9-7.1,0V114.4z M660.2,116.6c0,4,5.7,4,5.7,0v-2.2
		c0-4-5.7-4-5.7,0V116.6z"/>
	<path class="st8" d="M669.3,114.4c0-4.9,7.1-4.9,7.1,0v2.2c0,4.9-7.1,4.9-7.1,0V114.4z M670,116.6c0,4,5.7,4,5.7,0v-2.2
		c0-4-5.7-4-5.7,0V116.6z"/>
	<path class="st8" d="M679.1,114.4c0-4.9,7.1-4.9,7.1,0v2.2c0,4.9-7.1,4.9-7.1,0V114.4z M679.8,116.6c0,4,5.7,4,5.7,0v-2.2
		c0-4-5.7-4-5.7,0V116.6z"/>
	<path class="st8" d="M500.2,127.7v1.2c0.5-0.9,1.4-1.3,2.3-1.3c1.8,0,3,1.1,3,2.9v3.8h-0.7v-3.8c0-1.5-0.9-2.3-2.3-2.3
		s-2.3,1-2.3,2.4v3.7h-0.6v-6.6L500.2,127.7L500.2,127.7z"/>
	<path class="st8" d="M514.9,127.7c0,2.2,0,4.4,0,6.6h-0.7v-1.4c-0.6,1-1.6,1.5-2.7,1.5c-1.8,0-3.3-1.4-3.3-3.4s1.5-3.4,3.3-3.4
		c1.1,0,2.1,0.5,2.7,1.5v-1.4L514.9,127.7L514.9,127.7z M508.8,131c0,1.7,1.2,2.8,2.7,2.8c3.7,0,3.7-5.5,0-5.5
		C510,128.2,508.8,129.3,508.8,131z"/>
	<path class="st8" d="M518.6,127.7v1.2c0.5-0.9,1.4-1.3,2.3-1.3c1.8,0,3,1.1,3,2.9v3.8h-0.7v-3.8c0-1.5-0.9-2.3-2.3-2.3
		c-1.4,0-2.3,1-2.3,2.4v3.7h-0.7v-6.6L518.6,127.7L518.6,127.7z"/>
	<path class="st8" d="M526.7,131c0-2.1,1.5-3.4,3.3-3.4c1.9,0,3.3,1.3,3.3,3.4s-1.5,3.4-3.3,3.4S526.7,133.1,526.7,131z M532.7,131
		c0-1.7-1.2-2.8-2.7-2.8s-2.7,1.1-2.7,2.8s1.2,2.7,2.7,2.7S532.7,132.7,532.7,131z"/>
	<path class="st8" d="M546,134.3v-3.9c0-1.3-0.9-2.2-2.1-2.2c-1.3,0-2.1,0.9-2.1,2.2v3.9h-0.7v-3.9c0-1.3-0.9-2.2-2.1-2.2
		c-1.3,0-2.1,0.9-2.1,2.2v3.9h-0.7v-6.6h0.6v1.1c0.5-0.9,1.3-1.2,2.1-1.2c1,0,2.1,0.5,2.4,1.6c0.4-1.1,1.4-1.6,2.4-1.6
		c1.6,0,2.8,1.1,2.8,2.8v3.9H546L546,134.3z"/>
	<path class="st8" d="M549.4,131c0-2,1.5-3.4,3.3-3.4s3.5,1.1,3.3,3.7h-5.9c0.1,1.5,1.3,2.4,2.7,2.4c0.9,0,1.9-0.3,2.4-1l0.5,0.4
		c-0.6,0.8-1.8,1.3-2.8,1.3C550.9,134.4,549.4,133.1,549.4,131z M555.4,130.7c0-1.6-1.1-2.5-2.7-2.5c-1.4,0-2.5,0.9-2.7,2.5H555.4z"
		/>
	<path class="st8" d="M560.3,125.7v2h2.2v0.5h-2.2v4c0,0.9,0.2,1.5,1.2,1.5c0.3,0,0.7-0.1,1-0.3l0.2,0.5c-0.4,0.2-0.8,0.3-1.2,0.3
		c-1.4,0-1.9-0.8-1.9-2.1v-4h-1.4v-0.5h1.4v-1.9L560.3,125.7L560.3,125.7z"/>
	<path class="st8" d="M565,131c0-2,1.5-3.4,3.3-3.4s3.5,1.1,3.3,3.7h-6c0.1,1.5,1.3,2.4,2.7,2.4c0.9,0,1.9-0.3,2.4-1l0.5,0.4
		c-0.6,0.8-1.8,1.3-2.8,1.3C566.4,134.4,565,133.1,565,131z M571,130.7c0-1.6-1.1-2.5-2.7-2.5c-1.4,0-2.5,0.9-2.7,2.5H571z"/>
	<path class="st8" d="M575.2,127.7v1.2c0.4-0.9,1.3-1.2,2.2-1.2c0.5,0,1,0.1,1.4,0.4l-0.3,0.5c-0.3-0.2-0.7-0.3-1.1-0.3
		c-1.2,0-2.2,1-2.2,2.2v3.8h-0.6v-6.6C574.6,127.7,575.2,127.7,575.2,127.7z"/>
	<path class="st8" d="M585.6,128.9c-0.7-0.6-1.3-0.7-2.1-0.7c-1,0-2,0.4-2,1.2c0,0.9,1.2,1.1,2,1.2c1.2,0.2,2.8,0.4,2.7,1.9
		c0,1.5-1.5,1.8-2.7,1.8s-2.3-0.4-2.9-1.3l0.5-0.4c0.5,0.8,1.5,1.1,2.4,1.1c0.8,0,2-0.2,2.1-1.3c0-0.9-1.1-1.1-2.1-1.3
		c-1.3-0.2-2.5-0.5-2.6-1.8c0-1.3,1.3-1.9,2.6-1.8c1,0,1.8,0.3,2.5,0.9L585.6,128.9z"/>
	<path class="st8" d="M595,125.5c0,0.7-1.1,0.7-1.1,0S595,124.8,595,125.5z M594.1,127.7v6.6h0.7v-6.6
		C594.8,127.7,594.1,127.7,594.1,127.7z"/>
	<path class="st8" d="M598.6,127.7v1.2c0.5-0.9,1.4-1.3,2.3-1.3c1.8,0,3,1.1,3,2.9v3.8h-0.7v-3.8c0-1.5-0.9-2.3-2.3-2.3
		c-1.4,0-2.3,1-2.3,2.4v3.7h-0.7v-6.6L598.6,127.7L598.6,127.7z"/>
	<path class="st8" d="M618.3,124.9v9.3h-0.7v-1.5c-0.5,1-1.6,1.6-2.7,1.6c-1.8,0-3.3-1.2-3.3-3.4s1.5-3.4,3.3-3.4
		c1.1,0,2.2,0.5,2.7,1.5v-4.2L618.3,124.9L618.3,124.9z M612.2,131c0,1.8,1.2,2.8,2.7,2.8s2.7-1.1,2.7-2.8c0-1.6-1.2-2.8-2.7-2.8
		S612.2,129.1,612.2,131z"/>
	<path class="st8" d="M622.3,125.5c0,0.7-1.1,0.7-1.1,0C621.3,124.8,622.3,124.8,622.3,125.5z M621.5,127.7v6.6h0.7v-6.6
		C622.2,127.7,621.5,127.7,621.5,127.7z"/>
	<path class="st8" d="M631.7,127.7c0,2.2,0,4.4,0,6.6H631v-1.4c-0.6,1-1.6,1.5-2.7,1.5c-1.8,0-3.3-1.4-3.3-3.4s1.5-3.4,3.3-3.4
		c1.1,0,2.1,0.5,2.7,1.5v-1.4L631.7,127.7L631.7,127.7z M625.6,131c0,1.7,1.2,2.8,2.7,2.8c3.7,0,3.7-5.5,0-5.5
		C626.8,128.2,625.6,129.3,625.6,131z"/>
	<path class="st8" d="M644.5,134.3v-3.9c0-1.3-0.9-2.2-2.1-2.2c-1.3,0-2.1,0.9-2.1,2.2v3.9h-0.7v-3.9c0-1.3-0.9-2.2-2.1-2.2
		c-1.3,0-2.1,0.9-2.1,2.2v3.9h-0.7v-6.6h0.6v1.1c0.5-0.9,1.3-1.2,2.1-1.2c1,0,2.1,0.5,2.4,1.6c0.4-1.1,1.4-1.6,2.4-1.6
		c1.6,0,2.8,1.1,2.8,2.8v3.9H644.5L644.5,134.3z"/>
	<path class="st8" d="M648,131c0-2,1.5-3.4,3.3-3.4s3.5,1.1,3.3,3.7h-6c0.1,1.5,1.3,2.4,2.7,2.4c0.9,0,1.9-0.3,2.4-1l0.5,0.4
		c-0.6,0.8-1.8,1.3-2.8,1.3C649.5,134.4,648,133.1,648,131z M654,130.7c0-1.6-1.1-2.5-2.7-2.5c-1.4,0-2.5,0.9-2.7,2.5H654z"/>
	<path class="st8" d="M658.8,125.7v2h2.2v0.5h-2.2v4c0,0.9,0.2,1.5,1.2,1.5c0.3,0,0.7-0.1,1-0.3l0.2,0.5c-0.4,0.2-0.8,0.3-1.2,0.3
		c-1.4,0-1.9-0.8-1.9-2.1v-4h-1.4v-0.5h1.4v-1.9L658.8,125.7L658.8,125.7z"/>
	<path class="st8" d="M663.5,131c0-2,1.5-3.4,3.3-3.4s3.5,1.1,3.3,3.7h-5.9c0.1,1.5,1.3,2.4,2.7,2.4c0.9,0,1.9-0.3,2.4-1l0.5,0.4
		c-0.6,0.8-1.8,1.3-2.8,1.3C665,134.4,663.5,133.1,663.5,131z M669.5,130.7c0-1.6-1.1-2.5-2.7-2.5c-1.4,0-2.5,0.9-2.7,2.5H669.5z"/>
	<path class="st8" d="M673.8,127.7v1.2c0.4-0.9,1.3-1.2,2.2-1.2c0.5,0,1,0.1,1.4,0.4l-0.3,0.5c-0.3-0.2-0.7-0.3-1.1-0.3
		c-1.2,0-2.2,1-2.2,2.2v3.8h-0.7v-6.6C673.1,127.7,673.8,127.7,673.8,127.7z"/>
</g>
<path class="st8" d="M147.9,163.9l46.7,27v53.9l-46.7,27l-46.7-27v-53.9L147.9,163.9 M147.9,159.3l-50.7,29.3v58.5l50.7,29.3
	l50.7-29.3v-58.5L147.9,159.3L147.9,159.3z"/>
<g>
	<path class="st8" d="M169.8,202.8c-1.7,1.8-4,3.4-6.5,3.4c-1.4,0-3.1-0.3-4.9-0.6c-0.2-1.2-0.3-2.5-0.4-3.6l2.1,2.1l1.1-1.1
		l-3.2-3.2c0.1-1,0.2-1.9,0.5-2.8l4.4,4.4l1.1-1.1l-4.9-4.9c0.4-0.6,0.8-1.2,1.4-1.8l-1.7-1.7c-4,4-3.7,8.5-3,13.2
		c-5.3-0.8-11.5-1-17,4.5c-5.1,5.1-5.3,10.9-4.6,16c-1.6-0.3-3.1-0.5-4.6-0.5c-3.4,0-6.4,2.2-8.5,4.4l1.7,1.7
		c0.6-0.7,1.3-1.3,2.1-1.9l3.8,3.8l1.1-1.1l-3.6-3.6c0.8-0.4,1.6-0.8,2.4-0.9l2.9,2.9l1.2-1.1l-1.9-1.9c1.1,0.1,2.4,0.3,3.7,0.5
		c0.4,2.2,0.7,4.2,0.7,5.9c0,2.6-1.6,4.8-3.3,6.4l1.7,1.7c2-1.9,4-4.6,4-8c0-1.7-0.3-3.5-0.6-5.5c5.3,0.8,11.5,1,17-4.5
		c5.3-5.3,5.2-10.9,4.6-16c1.6,0.3,3.2,0.5,4.6,0.5c3.3,0,6.1-2,8.2-4.2L169.8,202.8z M152.4,222.4c-4.9,4.9-10.6,4.5-15.7,3.7
		c-0.2-1.3-0.3-2.6-0.4-4l2.1,2.1l1.1-1.1l-3.2-3.2c0.1-0.9,0.3-1.9,0.5-2.8l4.3,4.3l1.1-1.1l-4.9-4.9c0.3-0.7,0.7-1.4,1.2-2.1
		l5.4,5.4l1.1-1.1l-5.6-5.6c0.3-0.3,0.5-0.6,0.8-0.9s0.6-0.5,0.9-0.8l5.6,5.6l1.1-1.1l-5.5-5.5c0.7-0.5,1.4-0.9,2.1-1.2l5.1,5.1
		l1.2-1.1l-4.7-4.7c0.9-0.3,1.9-0.4,2.8-0.5l3.6,3.6l1.1-1.1l-2.6-2.6c1.7,0,3.3,0.2,4.9,0.5C156.9,212.6,157.2,217.6,152.4,222.4z"
		/>
</g>
<path class="st8" d="M587.7,163.9l46.6,27v53.9l-46.6,27l-46.7-27v-53.9L587.7,163.9 M587.7,159.3L537,188.6v58.5l50.7,29.3
	l50.6-29.3v-58.5L587.7,159.3L587.7,159.3z"/>
<polyline class="st10" points="599.4,200.6 601.4,207.5 593.9,218.7 589.8,218.7 "/>
<polyline class="st10" points="573.6,222.2 579.2,223.6 581.3,228.1 "/>
<polyline class="st10" points="605,222.2 601.8,226.9 595.6,231.6 "/>
<polyline class="st10" points="583.6,203 580,207 575.8,207 "/>
<circle class="st10" cx="587.7" cy="216.8" r="23.7"/>
<g>
	<path class="st8" d="M486.8,549.3l-1-2.3h-5.6l-1,2.3h-0.8l4.2-9.3h0.8l4.2,9.3H486.8z M485.5,546.3l-2.5-5.7l-2.5,5.7H485.5z"/>
	<path class="st8" d="M495.5,540v4c0.5-0.9,1.5-1.3,2.4-1.3c1.8,0,2.8,1.2,2.8,2.9v3.8h-0.6v-3.8c0-1.4-0.6-2.3-2.1-2.3
		c-1.4,0-2.3,1.1-2.3,2.4v3.6H495V540H495.5z"/>
	<path class="st8" d="M508.8,549.3v-1.2c-0.5,0.9-1.4,1.3-2.3,1.3c-1.8,0-3-1.1-3-2.9v-3.8h0.7v3.8c0,1.5,0.9,2.3,2.3,2.3
		s2.3-1,2.3-2.4v-3.7h0.7v6.6L508.8,549.3L508.8,549.3z"/>
	<path class="st8" d="M522.3,549.3v-3.9c0-1.3-0.9-2.2-2.1-2.2c-1.3,0-2.1,0.9-2.1,2.2v3.9h-0.7v-3.9c0-1.3-0.9-2.2-2.1-2.2
		c-1.3,0-2.1,0.9-2.1,2.2v3.9h-0.7v-6.6h0.6v1.1c0.5-0.9,1.3-1.2,2.1-1.2c1,0,2.1,0.5,2.4,1.6c0.4-1.1,1.4-1.6,2.4-1.6
		c1.6,0,2.8,1.1,2.8,2.8v3.9H522.3z"/>
	<path class="st8" d="M532.4,542.7c0,2.2,0,4.4,0,6.6h-0.7v-1.4c-0.6,1-1.6,1.5-2.7,1.5c-1.8,0-3.3-1.4-3.3-3.4s1.5-3.4,3.3-3.4
		c1.1,0,2.1,0.5,2.7,1.5v-1.4L532.4,542.7L532.4,542.7z M526.4,546c0,1.7,1.2,2.8,2.7,2.8c3.7,0,3.7-5.5,0-5.5
		C527.6,543.3,526.4,544.4,526.4,546z"/>
	<path class="st8" d="M536.2,542.7v1.2c0.5-0.9,1.4-1.3,2.3-1.3c1.8,0,3,1.1,3,2.9v3.8h-0.7v-3.8c0-1.5-0.9-2.3-2.3-2.3
		c-1.4,0-2.3,1-2.3,2.4v3.7h-0.6v-6.6L536.2,542.7L536.2,542.7z"/>
	<path class="st8" d="M550.2,549.3v-6h-1.3v-0.6h1.3v-0.6c0-1.3,0.5-2.3,2-2.3c0.5,0,0.9,0.2,1.3,0.5l-0.3,0.5
		c-0.4-0.2-0.6-0.3-1-0.3c-0.8,0-1.3,0.5-1.3,1.7v0.6h2.2v0.6h-2.2v6h-0.7V549.3z"/>
	<path class="st8" d="M556.6,540.6c0,0.7-1.1,0.7-1.1,0C555.6,539.9,556.6,539.9,556.6,540.6z M555.8,542.7v6.6h0.7v-6.6H555.8z"/>
	<path class="st8" d="M560.3,542.7v1.2c0.5-0.9,1.4-1.3,2.3-1.3c1.8,0,3,1.1,3,2.9v3.8h-0.7v-3.8c0-1.5-0.9-2.3-2.3-2.3
		c-1.4,0-2.3,1-2.3,2.4v3.7h-0.7v-6.6L560.3,542.7L560.3,542.7z"/>
	<path class="st8" d="M573.9,542.5l0.4,0.4l-0.6,0.7c0.5,0.5,0.8,1.2,0.8,2.2c0,1.1-0.7,2.3-1.8,2.8c1.2,0.4,1.8,1.2,1.8,2.4
		c0,1.8-1.4,2.6-3.1,2.6s-3.1-1-3.1-2.6h0.7c0,1.3,1.1,2,2.5,2s2.5-0.6,2.5-2s-1.3-2-2.5-2c-1.9,0-3.1-1.4-3.1-3.2
		c0-2.1,1.4-3.2,3.1-3.2c0.7,0,1.4,0.2,1.9,0.6L573.9,542.5z M569,545.8c0,1.4,0.9,2.5,2.4,2.5c1.4,0,2.5-1.2,2.5-2.5
		c0-1.7-1.1-2.6-2.5-2.6C570.1,543.3,569,544.1,569,545.8z"/>
	<path class="st8" d="M576.8,546c0-2,1.5-3.4,3.3-3.4s3.5,1.1,3.3,3.7h-5.9c0.1,1.5,1.3,2.4,2.7,2.4c0.9,0,1.9-0.3,2.4-1l0.5,0.4
		c-0.6,0.8-1.8,1.3-2.8,1.3C578.3,549.4,576.8,548.1,576.8,546z M582.8,545.7c0-1.6-1.1-2.5-2.7-2.5c-1.4,0-2.5,0.9-2.7,2.5H582.8z"
		/>
	<path class="st8" d="M587,542.7v1.2c0.4-0.9,1.3-1.2,2.2-1.2c0.5,0,1,0.1,1.4,0.4l-0.3,0.5c-0.3-0.2-0.7-0.3-1.1-0.3
		c-1.2,0-2.2,1-2.2,2.2v3.8h-0.7v-6.6L587,542.7L587,542.7z"/>
	<path class="st8" d="M593.6,542.7v1.2c0.5-0.9,1.4-1.3,2.3-1.3c1.8,0,3,1.1,3,2.9v3.8h-0.7v-3.8c0-1.5-0.9-2.3-2.3-2.3
		c-1.4,0-2.3,1-2.3,2.4v3.7h-0.7v-6.6L593.6,542.7L593.6,542.7z"/>
	<path class="st8" d="M608.3,542.7c0,2.2,0,4.4,0,6.6h-0.7v-1.4c-0.6,1-1.6,1.5-2.7,1.5c-1.8,0-3.3-1.4-3.3-3.4s1.5-3.4,3.3-3.4
		c1.1,0,2.1,0.5,2.7,1.5v-1.4L608.3,542.7L608.3,542.7z M602.3,546c0,1.7,1.2,2.8,2.7,2.8c3.7,0,3.7-5.5,0-5.5
		C603.5,543.3,602.3,544.4,602.3,546z"/>
	<path class="st8" d="M612.3,540.6c0,0.7-1.1,0.7-1.1,0C611.2,539.9,612.3,539.9,612.3,540.6z M611.4,542.7v6.6h0.7v-6.6H611.4z"/>
	<path class="st8" d="M615.9,540v9.3h-0.7V540H615.9z"/>
	<path class="st8" d="M629.4,542.5l0.4,0.4l-0.6,0.7c0.5,0.5,0.8,1.2,0.8,2.2c0,1.1-0.7,2.3-1.8,2.8c1.2,0.4,1.8,1.2,1.8,2.4
		c0,1.8-1.4,2.6-3.1,2.6s-3.1-1-3.1-2.6h0.7c0,1.3,1.1,2,2.5,2s2.5-0.6,2.5-2s-1.3-2-2.5-2c-1.9,0-3.1-1.4-3.1-3.2
		c0-2.1,1.4-3.2,3.1-3.2c0.7,0,1.4,0.2,1.9,0.6L629.4,542.5z M624.4,545.8c0,1.4,0.9,2.5,2.4,2.5c1.4,0,2.5-1.2,2.5-2.5
		c0-1.7-1.1-2.6-2.5-2.6C625.5,543.3,624.4,544.1,624.4,545.8z"/>
	<path class="st8" d="M633.3,542.7v1.2c0.4-0.9,1.3-1.2,2.2-1.2c0.5,0,1,0.1,1.4,0.4l-0.3,0.5c-0.3-0.2-0.7-0.3-1.1-0.3
		c-1.2,0-2.2,1-2.2,2.2v3.8h-0.7v-6.6L633.3,542.7L633.3,542.7z"/>
	<path class="st8" d="M638.9,546c0-2.1,1.5-3.4,3.3-3.4s3.3,1.3,3.3,3.4c0,2.1-1.5,3.4-3.3,3.4S638.9,548.1,638.9,546z M644.9,546
		c0-1.7-1.2-2.8-2.7-2.8s-2.7,1.1-2.7,2.8s1.2,2.7,2.7,2.7C643.7,548.8,644.9,547.7,644.9,546z"/>
	<path class="st8" d="M654.9,549.3h-0.7l-1.1-2.9l-0.8-2.6l-0.8,2.6l-1.1,2.9h-0.7l-2.3-6.6h0.7l2,5.8l2-5.8h0.5l2,5.8l2-5.8h0.7
		L654.9,549.3z"/>
	<path class="st8" d="M664.2,543.9c-0.7-0.6-1.3-0.7-2.1-0.7c-1,0-2,0.4-2,1.2c0,0.9,1.2,1.1,2,1.2c1.2,0.2,2.8,0.4,2.7,1.9
		c0,1.5-1.5,1.8-2.7,1.8s-2.3-0.4-2.9-1.3l0.5-0.4c0.5,0.8,1.5,1.1,2.4,1.1c0.8,0,2-0.2,2.1-1.3c0-0.9-1.1-1.1-2.1-1.3
		c-1.3-0.2-2.5-0.5-2.6-1.8c0-1.3,1.3-1.9,2.6-1.8c1,0,1.8,0.3,2.5,0.9L664.2,543.9z"/>
	<path class="st8" d="M672.3,546c0-2.1,1.5-3.4,3.3-3.4s3.3,1.3,3.3,3.4c0,2.1-1.5,3.4-3.3,3.4S672.3,548.1,672.3,546z M678.4,546
		c0-1.7-1.2-2.8-2.7-2.8s-2.7,1.1-2.7,2.8s1.2,2.7,2.7,2.7C677.2,548.8,678.4,547.7,678.4,546z"/>
	<path class="st8" d="M682.5,542.7v1.2c0.5-0.9,1.4-1.3,2.3-1.3c1.8,0,3,1.1,3,2.9v3.8h-0.7v-3.8c0-1.5-0.9-2.3-2.3-2.3
		c-1.4,0-2.3,1-2.3,2.4v3.7h-0.7v-6.6L682.5,542.7L682.5,542.7z"/>
	<path class="st8" d="M690.5,546c0-2,1.5-3.4,3.3-3.4s3.5,1.1,3.3,3.7h-5.9c0.1,1.5,1.3,2.4,2.7,2.4c0.9,0,1.9-0.3,2.4-1l0.5,0.4
		c-0.6,0.8-1.8,1.3-2.8,1.3C692,549.4,690.5,548.1,690.5,546z M696.5,545.7c0-1.6-1.1-2.5-2.7-2.5c-1.4,0-2.5,0.9-2.7,2.5H696.5z"/>
	<path class="st8" d="M500.1,556.8v1.2c0.5-0.9,1.4-1.3,2.3-1.3c1.8,0,3,1.1,3,2.9v3.8h-0.7v-3.8c0-1.5-0.9-2.3-2.3-2.3
		s-2.3,1-2.3,2.4v3.7h-0.7v-6.6L500.1,556.8L500.1,556.8z"/>
	<path class="st8" d="M514.8,556.8c0,2.2,0,4.4,0,6.6h-0.7V562c-0.6,1-1.6,1.5-2.7,1.5c-1.8,0-3.3-1.4-3.3-3.4s1.5-3.4,3.3-3.4
		c1.1,0,2.1,0.5,2.7,1.5v-1.4L514.8,556.8L514.8,556.8z M508.8,560.1c0,1.7,1.2,2.8,2.7,2.8c3.7,0,3.7-5.5,0-5.5
		C510,557.4,508.8,558.5,508.8,560.1z"/>
	<path class="st8" d="M518.6,556.8v1.2c0.5-0.9,1.4-1.3,2.3-1.3c1.8,0,3,1.1,3,2.9v3.8h-0.7v-3.8c0-1.5-0.9-2.3-2.3-2.3
		c-1.4,0-2.3,1-2.3,2.4v3.7h-0.7v-6.6L518.6,556.8L518.6,556.8z"/>
	<path class="st8" d="M526.6,560.1c0-2.1,1.5-3.4,3.3-3.4c1.9,0,3.3,1.3,3.3,3.4c0,2.1-1.5,3.4-3.3,3.4S526.6,562.2,526.6,560.1z
		 M532.7,560.1c0-1.7-1.2-2.8-2.7-2.8s-2.7,1.1-2.7,2.8s1.2,2.7,2.7,2.7C531.4,562.9,532.7,561.8,532.7,560.1z"/>
	<path class="st8" d="M545.9,563.4v-3.9c0-1.3-0.9-2.2-2.1-2.2c-1.3,0-2.1,0.9-2.1,2.2v3.9H541v-3.9c0-1.3-0.9-2.2-2.1-2.2
		c-1.3,0-2.1,0.9-2.1,2.2v3.9h-0.7v-6.6h0.6v1.1c0.5-0.9,1.3-1.2,2.1-1.2c1,0,2.1,0.5,2.4,1.6c0.4-1.1,1.4-1.6,2.4-1.6
		c1.6,0,2.8,1.1,2.8,2.8v3.9H545.9z"/>
	<path class="st8" d="M549.3,560.1c0-2,1.5-3.4,3.3-3.4s3.5,1.1,3.3,3.7H550c0.1,1.5,1.3,2.4,2.7,2.4c0.9,0,1.9-0.3,2.4-1l0.5,0.4
		c-0.6,0.8-1.8,1.3-2.8,1.3C550.8,563.5,549.3,562.2,549.3,560.1z M555.4,559.9c0-1.6-1.1-2.5-2.7-2.5c-1.4,0-2.5,0.9-2.7,2.5H555.4
		z"/>
	<path class="st8" d="M560.2,554.8v2h2.2v0.5h-2.2v4c0,0.9,0.2,1.5,1.2,1.5c0.3,0,0.7-0.1,1-0.3l0.2,0.5c-0.4,0.2-0.8,0.3-1.2,0.3
		c-1.4,0-1.9-0.8-1.9-2.1v-4h-1.4v-0.5h1.4v-1.9H560.2z"/>
	<path class="st8" d="M564.9,560.1c0-2,1.5-3.4,3.3-3.4s3.5,1.1,3.3,3.7h-5.9c0.1,1.5,1.3,2.4,2.7,2.4c0.9,0,1.9-0.3,2.4-1l0.5,0.4
		c-0.6,0.8-1.8,1.3-2.8,1.3C566.4,563.5,564.9,562.2,564.9,560.1z M570.9,559.9c0-1.6-1.1-2.5-2.7-2.5c-1.4,0-2.5,0.9-2.7,2.5H570.9
		z"/>
	<path class="st8" d="M575.1,556.8v1.2c0.4-0.9,1.3-1.2,2.2-1.2c0.5,0,1,0.1,1.4,0.4l-0.3,0.5c-0.3-0.2-0.7-0.3-1.1-0.3
		c-1.2,0-2.2,1-2.2,2.2v3.8h-0.7v-6.6L575.1,556.8L575.1,556.8z"/>
	<path class="st8" d="M585.7,560.1c0-2,1.5-3.4,3.3-3.4s3.5,1.1,3.3,3.7h-5.9c0.1,1.5,1.3,2.4,2.7,2.4c0.9,0,1.9-0.3,2.4-1l0.5,0.4
		c-0.6,0.8-1.8,1.3-2.8,1.3C587.2,563.5,585.7,562.2,585.7,560.1z M591.7,559.9c0-1.6-1.1-2.5-2.7-2.5c-1.4,0-2.5,0.9-2.7,2.5H591.7
		z"/>
	<path class="st8" d="M601.6,556.8c0,2.2,0,4.4,0,6.6h-0.7V562c-0.6,1-1.6,1.5-2.7,1.5c-1.8,0-3.3-1.4-3.3-3.4s1.5-3.4,3.3-3.4
		c1.1,0,2.1,0.5,2.7,1.5v-1.4L601.6,556.8L601.6,556.8z M595.6,560.1c0,1.7,1.2,2.8,2.7,2.8c3.7,0,3.7-5.5,0-5.5
		C596.8,557.4,595.6,558.5,595.6,560.1z"/>
	<path class="st8" d="M610.3,562.5c-0.7,0.7-1.5,1-2.4,1c-1.9,0-3.4-1.3-3.4-3.4s1.5-3.4,3.4-3.4c0.9,0,1.7,0.3,2.4,1l-0.4,0.4
		c-0.5-0.5-1.3-0.8-2-0.8c-1.5,0-2.7,1-2.7,2.7s1.3,2.7,2.7,2.7c0.7,0,1.4-0.3,2-0.8L610.3,562.5z"/>
	<path class="st8" d="M613.6,554.1v4c0.5-0.9,1.5-1.3,2.4-1.3c1.8,0,2.8,1.2,2.8,2.9v3.8h-0.6v-3.8c0-1.4-0.6-2.3-2.1-2.3
		c-1.4,0-2.3,1.1-2.3,2.4v3.6h-0.7v-9.3L613.6,554.1L613.6,554.1z"/>
	<path class="st8" d="M631.3,558c-0.7-0.6-1.3-0.7-2.1-0.7c-1,0-2,0.4-2,1.2c0,0.9,1.2,1.1,2,1.2c1.2,0.2,2.8,0.4,2.7,1.9
		c0,1.5-1.5,1.8-2.7,1.8s-2.3-0.4-2.9-1.3l0.5-0.4c0.5,0.8,1.5,1.1,2.4,1.1c0.8,0,2-0.2,2.1-1.3c0-0.9-1.1-1.1-2.1-1.3
		c-1.3-0.2-2.5-0.5-2.6-1.8c0-1.3,1.3-1.9,2.6-1.8c1,0,1.8,0.3,2.5,0.9L631.3,558z"/>
	<path class="st8" d="M634.4,560.1c0-2,1.5-3.4,3.3-3.4s3.5,1.1,3.3,3.7h-5.9c0.1,1.5,1.3,2.4,2.7,2.4c0.9,0,1.9-0.3,2.4-1l0.5,0.4
		c-0.6,0.8-1.8,1.3-2.8,1.3C635.8,563.5,634.4,562.2,634.4,560.1z M640.4,559.9c0-1.6-1.1-2.5-2.7-2.5c-1.4,0-2.5,0.9-2.7,2.5H640.4
		z"/>
	<path class="st8" d="M649.4,562.5c-0.7,0.7-1.5,1-2.4,1c-1.9,0-3.4-1.3-3.4-3.4s1.5-3.4,3.4-3.4c0.9,0,1.7,0.3,2.4,1l-0.4,0.4
		c-0.5-0.5-1.3-0.8-2-0.8c-1.5,0-2.7,1-2.7,2.7s1.3,2.7,2.7,2.7c0.7,0,1.4-0.3,2-0.8L649.4,562.5z"/>
	<path class="st8" d="M651.9,560.1c0-2.1,1.5-3.4,3.3-3.4c1.9,0,3.3,1.3,3.3,3.4c0,2.1-1.5,3.4-3.3,3.4S651.9,562.2,651.9,560.1z
		 M657.9,560.1c0-1.7-1.2-2.8-2.7-2.8s-2.7,1.1-2.7,2.8s1.2,2.7,2.7,2.7C656.7,562.9,657.9,561.8,657.9,560.1z"/>
	<path class="st8" d="M662,556.8v1.2c0.5-0.9,1.4-1.3,2.3-1.3c1.8,0,3,1.1,3,2.9v3.8h-0.7v-3.8c0-1.5-0.9-2.3-2.3-2.3
		c-1.4,0-2.3,1-2.3,2.4v3.7h-0.7v-6.6L662,556.8L662,556.8z"/>
	<path class="st8" d="M676.7,554.1v9.3h-0.6V562c-0.5,1-1.6,1.6-2.7,1.6c-1.8,0-3.3-1.2-3.3-3.4s1.5-3.4,3.3-3.4
		c1.1,0,2.2,0.5,2.7,1.5v-4.2L676.7,554.1L676.7,554.1z M670.7,560.1c0,1.8,1.2,2.8,2.7,2.8s2.7-1.1,2.7-2.8s-1.2-2.8-2.7-2.8
		C671.9,557.4,670.7,558.3,670.7,560.1z"/>
</g>
<g>
	<path class="st8" d="M241.2,326.7v-9.3h-13v9.3h-1.6v-20.5h1.6v9.7h13v-9.7h1.6v20.5H241.2z"/>
	<path class="st8" d="M272.9,316.5c0,5.4-3.5,10.6-10.3,10.6c-6.9,0-10.3-5.2-10.3-10.6c0-5.5,3.4-10.5,10.3-10.5
		C269.5,305.9,272.9,310.9,272.9,316.5z M253.8,316.4c0,4.6,3,9.1,8.8,9.1s8.8-4.5,8.8-9.1c0-4.7-2.9-9.1-8.8-9.1
		S253.8,311.6,253.8,316.4z"/>
	<path class="st8" d="M294.2,306.2h0.9l6.3,18.7l6.3-18.7h1.7l-7.2,20.5h-1.7l-3.2-9.6l-2.7-8.1l-2.6,8l-3.3,9.6H287l-7.2-20.5h1.7
		l6.3,18.7L294.2,306.2z"/>
	<path class="st8" d="M345.1,310.1c-1.5-2.4-3.9-2.7-6.2-2.8c-2.4,0-6.2,0.9-6.2,4.2c0,2.6,2.8,3.2,6.3,3.9c3.9,0.8,8,1.5,8,5.9
		c0,4.6-4.7,5.7-8.1,5.7c-3.2,0-6.8-1.3-8.4-4.4l1.4-0.7c1.3,2.5,4.5,3.7,7,3.7s6.5-0.7,6.5-4.3c0-3.1-3.4-3.7-6.7-4.4
		c-3.7-0.7-7.6-1.5-7.6-5.3c-0.1-4.3,4.4-5.7,7.8-5.7c2.9,0,5.5,0.5,7.5,3.5L345.1,310.1z"/>
	<path class="st8" d="M374.1,308.5l-7.8,12h-0.5l-7.9-12v18.2h-1.6v-20.5c0.8,0,1.1,0,1.9,0l7.8,11.9l7.7-11.9h1.9v20.5h-1.5V308.5
		L374.1,308.5z"/>
	<path class="st8" d="M402.3,326.7l-2.3-5h-12.2l-2.2,5h-1.7l9.2-20.5h1.7l9.2,20.5H402.3z M399.4,320.2l-5.5-12.5l-5.5,12.5H399.4z
		"/>
	<path class="st8" d="M414.3,306.2v19h11.5v1.5h-13.1v-20.5H414.3z"/>
	<path class="st8" d="M436.2,306.2v19h11.5v1.5h-13.1v-20.5H436.2z"/>
	<path class="st8" d="M470.5,326.7v-20.5h1.5v20.5H470.5z"/>
	<path class="st8" d="M496.3,310.1c-1.5-2.4-3.9-2.7-6.2-2.8c-2.4,0-6.2,0.9-6.2,4.2c0,2.6,2.8,3.2,6.3,3.9c3.9,0.8,8,1.5,8,5.9
		c0,4.6-4.7,5.7-8.1,5.7c-3.2,0-6.8-1.3-8.4-4.4l1.4-0.7c1.3,2.5,4.5,3.7,7,3.7s6.5-0.7,6.5-4.3c0-3.1-3.4-3.7-6.7-4.4
		c-3.7-0.7-7.6-1.5-7.6-5.3c-0.1-4.3,4.4-5.7,7.8-5.7c2.9,0,5.5,0.5,7.5,3.5L496.3,310.1z"/>
	<path class="st8" d="M242.8,361.7l-2.3-5h-12.2l-2.2,5h-1.7l9.2-20.5h1.7l9.2,20.5H242.8z M240,355.2l-5.5-12.5l-5.5,12.5H240z"/>
	<path class="st8" d="M267.3,341.3l13.8,16.9v-16.9h1.5v20.5H282l-13.8-16.9v16.9h-1.6v-20.5H267.3z"/>
	<path class="st8" d="M309.3,361.7l-2.3-5h-12.2l-2.2,5h-1.7l9.2-20.5h1.7l9.2,20.5H309.3z M306.4,355.2l-5.5-12.5l-5.5,12.5H306.4z
		"/>
	<path class="st8" d="M320.2,341.3l13.8,16.9v-16.9h1.5v20.5h-0.6l-13.8-16.9v16.9h-1.6v-20.5H320.2z"/>
	<path class="st8" d="M366,351.5c0,5.4-3.5,10.6-10.3,10.6c-6.9,0-10.3-5.2-10.3-10.6c0-5.5,3.4-10.5,10.3-10.5
		C362.5,341,366,346,366,351.5z M346.9,351.5c0,4.6,3,9.1,8.8,9.1s8.8-4.5,8.8-9.1c0-4.7-2.9-9.1-8.8-9.1S346.8,346.7,346.9,351.5z"
		/>
	<path class="st8" d="M393.4,343.6l-7.8,12h-0.5l-7.9-12v18.2h-1.6v-20.5c0.8,0,1.1,0,1.9,0l7.8,11.9l7.7-11.9h1.9v20.5h-1.5V343.6
		L393.4,343.6z"/>
	<path class="st8" d="M406.9,350.7h12v1.4h-12v8.1h12.9v1.5h-14.5v-20.5h14.1v1.5h-12.6L406.9,350.7L406.9,350.7z"/>
	<path class="st8" d="M436.1,342.7h-7.4v-1.4h16.4v1.4h-7.4v19h-1.6V342.7z"/>
	<path class="st8" d="M455.5,350.7h12v1.4h-12v8.1h12.9v1.5h-14.5v-20.5H468v1.5h-12.6L455.5,350.7L455.5,350.7z"/>
	<path class="st8" d="M494.1,361.7H492l-7.1-7.7h-5.6v7.7h-1.6v-20.5c3,0,6,0,9,0c4.4,0,6.7,3.2,6.7,6.4c0,3.3-2.2,6.3-6.6,6.3
		L494.1,361.7z M479.3,352.5h7.3c3.6,0,5.1-2,5.2-4.9c0-2.4-1.6-4.9-5-4.9h-7.4L479.3,352.5L479.3,352.5z"/>
	<path class="st8" d="M501.7,346.9c0-4.4,4.2-6,7.8-6c3.8,0,7.9,1.3,7.9,6c0,4-2.4,4.9-4.2,5.5c-3,0.9-3.5,1.5-3.5,5.2h-1.5
		c0-4,1-5.5,4.6-6.5c1.7-0.5,3.1-1.2,3.1-4.2c0-3.8-3.6-4.6-6.4-4.6c-2.7,0-6.3,0.9-6.3,4.6H501.7z M510.2,360.7
		c0,1.5-2.3,1.5-2.3,0S510.2,359.2,510.2,360.7z"/>
</g>
<path class="st8" d="M587.8,401.5l46.7,27v53.9l-46.7,27l-46.7-27v-53.9L587.8,401.5 M587.8,396.9l-50.7,29.3v58.5l50.7,29.3
	l50.7-29.3v-58.5L587.8,396.9L587.8,396.9z"/>
<path class="st9" d="M608.2,480.7v-35.9c0-11.2-9.1-20.3-20.3-20.3s-20.3,9.1-20.3,20.3v35.9"/>
<path class="st9" d="M570.7,452v-6.9c0-9.8,7.6-17.7,17.1-17.7c9.4,0,17.1,7.9,17.1,17.7v6.9C604.9,452,592.3,460.8,570.7,452z"/>
<path class="st8" d="M570.7,452c0,0,18.3-7.4,34.1,0C604.9,452,589.6,460.4,570.7,452z"/>
<path class="st9" d="M576.6,476.7c0,0,12-7.4,22.4,0"/>
<g>
	<path class="st8" d="M288,186.8h-3.4v-0.6h7.5v0.6h-3.4v8.7H288V186.8L288,186.8z"/>
	<path class="st8" d="M295.3,186.2v4c0.5-0.9,1.5-1.3,2.4-1.3c1.8,0,2.8,1.2,2.8,2.9v3.8h-0.6v-3.8c0-1.4-0.6-2.3-2.1-2.3
		c-1.4,0-2.3,1.1-2.3,2.4v3.6h-0.7v-9.3L295.3,186.2L295.3,186.2z"/>
	<path class="st8" d="M303.1,192.2c0-2,1.5-3.4,3.3-3.4s3.5,1.1,3.3,3.7h-5.9c0.1,1.5,1.3,2.4,2.7,2.4c0.9,0,1.9-0.3,2.4-1l0.5,0.4
		c-0.6,0.8-1.8,1.3-2.8,1.3C304.6,195.6,303.1,194.3,303.1,192.2z M309.1,192c0-1.6-1.1-2.5-2.7-2.5c-1.4,0-2.5,0.9-2.7,2.5H309.1z"
		/>
	<path class="st8" d="M313.3,188.9v1.2c0.4-0.9,1.3-1.2,2.2-1.2c0.5,0,1,0.1,1.4,0.4l-0.3,0.5c-0.3-0.2-0.7-0.3-1.1-0.3
		c-1.2,0-2.2,1-2.2,2.2v3.8h-0.7v-6.6L313.3,188.9L313.3,188.9z"/>
	<path class="st8" d="M318.9,192.2c0-2,1.5-3.4,3.3-3.4s3.5,1.1,3.3,3.7h-5.9c0.1,1.5,1.3,2.4,2.7,2.4c0.9,0,1.9-0.3,2.4-1l0.5,0.4
		c-0.6,0.8-1.8,1.3-2.8,1.3C320.4,195.6,318.9,194.3,318.9,192.2z M324.9,192c0-1.6-1.1-2.5-2.7-2.5c-1.4,0-2.5,0.9-2.7,2.5H324.9z"
		/>
	<path class="st8" d="M339.8,188.9c0,2.2,0,4.4,0,6.6h-0.7v-1.4c-0.6,1-1.6,1.5-2.7,1.5c-1.8,0-3.3-1.4-3.3-3.4s1.5-3.4,3.3-3.4
		c1.1,0,2.1,0.5,2.7,1.5v-1.4L339.8,188.9L339.8,188.9z M333.8,192.2c0,1.7,1.2,2.8,2.7,2.8c3.7,0,3.7-5.5,0-5.5
		C335,189.5,333.8,190.6,333.8,192.2z"/>
	<path class="st8" d="M343.6,188.9v1.2c0.4-0.9,1.3-1.2,2.2-1.2c0.5,0,1,0.1,1.4,0.4l-0.3,0.5c-0.3-0.2-0.7-0.3-1.1-0.3
		c-1.2,0-2.2,1-2.2,2.2v3.8h-0.7v-6.6L343.6,188.9L343.6,188.9z"/>
	<path class="st8" d="M349.1,192.2c0-2,1.5-3.4,3.3-3.4s3.5,1.1,3.3,3.7h-5.9c0.1,1.5,1.3,2.4,2.7,2.4c0.9,0,1.9-0.3,2.4-1l0.5,0.4
		c-0.6,0.8-1.8,1.3-2.8,1.3C350.6,195.6,349.1,194.3,349.1,192.2z M355.1,192c0-1.6-1.1-2.5-2.7-2.5c-1.4,0-2.5,0.9-2.7,2.5H355.1z"
		/>
	<path class="st8" d="M363.6,188.7c0-2,1.9-2.6,3.6-2.6s3.6,0.7,3.6,2.7c0,1.9-1.9,2.7-3.6,2.7c-1.4,0-2.9,0.3-2.9,1.9v1.4h6.4v0.7
		h-7.1v-2.1c0-2.1,1.9-2.6,3.6-2.6c1.2,0,2.9-0.5,2.9-2c0-1.6-1.7-2.1-2.9-2.1s-2.9,0.4-2.9,2L363.6,188.7L363.6,188.7z"/>
	<path class="st8" d="M373.7,190.5v-4.3h6.5v0.6h-5.8v3h3c2.5,0,3.3,1.4,3.3,2.9s-1.1,2.9-3.6,2.9c-1.7,0-3.6-0.6-3.6-2.6h0.7
		c0,1.6,1.6,1.9,2.9,1.9c2,0,2.9-0.9,2.9-2.2c0-1.1-0.6-2.2-2.6-2.2L373.7,190.5L373.7,190.5z"/>
	<path class="st8" d="M384.5,195.1c0,0.1,0,0.1,0,0.2l-0.5,1.4h-0.6l0.4-1.1c-0.2-0.1-0.3-0.2-0.3-0.5
		C383.4,194.4,384.5,194.4,384.5,195.1z"/>
	<path class="st8" d="M393.6,186.2v6.5h1.2v0.7h-1.2v2.1h-0.7v-2.1h-5.7l-0.1-0.9l5.4-6.4L393.6,186.2L393.6,186.2z M392.8,186.7
		l-5.1,6h5.1V186.7z"/>
	<path class="st8" d="M397.1,189.7c0-4.9,7.1-4.9,7.1,0v2.2c0,4.9-7.1,4.9-7.1,0V189.7z M397.8,192c0,4,5.7,4,5.7,0v-2.2
		c0-4-5.7-4-5.7,0V192z"/>
	<path class="st8" d="M406.9,189.7c0-4.9,7.1-4.9,7.1,0v2.2c0,4.9-7.1,4.9-7.1,0V189.7L406.9,189.7z M407.6,192c0,4,5.7,4,5.7,0
		v-2.2c0-4-5.7-4-5.7,0V192z"/>
	<path class="st8" d="M417.9,195.1c0,0.1,0,0.1,0,0.2l-0.5,1.4h-0.6l0.4-1.1c-0.2-0.1-0.3-0.2-0.3-0.5
		C416.8,194.4,417.9,194.4,417.9,195.1z"/>
	<path class="st8" d="M420.7,189.7c0-4.9,7.1-4.9,7.1,0v2.2c0,4.9-7.1,4.9-7.1,0V189.7z M421.4,192c0,4,5.7,4,5.7,0v-2.2
		c0-4-5.7-4-5.7,0V192z"/>
	<path class="st8" d="M430.5,189.7c0-4.9,7.1-4.9,7.1,0v2.2c0,4.9-7.1,4.9-7.1,0V189.7z M431.2,192c0,4,5.7,4,5.7,0v-2.2
		c0-4-5.7-4-5.7,0V192z"/>
	<path class="st8" d="M440.3,189.7c0-4.9,7.1-4.9,7.1,0v2.2c0,4.9-7.1,4.9-7.1,0V189.7z M441,192c0,4,5.7,4,5.7,0v-2.2
		c0-4-5.7-4-5.7,0V192z"/>
	<path class="st8" d="M281.1,203v1.2c0.5-0.9,1.4-1.3,2.3-1.3c1.8,0,3,1.1,3,2.9v3.8h-0.7v-3.8c0-1.5-0.9-2.3-2.3-2.3
		s-2.3,1-2.3,2.4v3.7h-0.7V203H281.1z"/>
	<path class="st8" d="M295.8,203c0,2.2,0,4.4,0,6.6h-0.7v-1.4c-0.6,1-1.6,1.5-2.7,1.5c-1.8,0-3.3-1.4-3.3-3.4s1.5-3.4,3.3-3.4
		c1.1,0,2.1,0.5,2.7,1.5V203H295.8z M289.8,206.3c0,1.7,1.2,2.8,2.7,2.8c3.7,0,3.7-5.5,0-5.5C291,203.6,289.8,204.7,289.8,206.3z"/>
	<path class="st8" d="M299.6,203v1.2c0.5-0.9,1.4-1.3,2.3-1.3c1.8,0,3,1.1,3,2.9v3.8h-0.7v-3.8c0-1.5-0.9-2.3-2.3-2.3
		s-2.3,1-2.3,2.4v3.7h-0.7V203H299.6z"/>
	<path class="st8" d="M307.6,206.4c0-2.1,1.5-3.4,3.3-3.4c1.9,0,3.3,1.3,3.3,3.4s-1.5,3.4-3.3,3.4
		C309.1,209.7,307.6,208.4,307.6,206.4z M313.7,206.4c0-1.7-1.2-2.8-2.7-2.8s-2.7,1.1-2.7,2.8s1.2,2.7,2.7,2.7
		S313.7,208.1,313.7,206.4z"/>
	<path class="st8" d="M326.9,209.6v-3.9c0-1.3-0.9-2.2-2.1-2.2c-1.3,0-2.1,0.9-2.1,2.2v3.9H322v-3.9c0-1.3-0.9-2.2-2.1-2.2
		c-1.3,0-2.1,0.9-2.1,2.2v3.9h-0.7V203h0.6v1.1c0.5-0.9,1.3-1.2,2.1-1.2c1,0,2.1,0.5,2.4,1.6c0.4-1.1,1.4-1.6,2.4-1.6
		c1.6,0,2.8,1.1,2.8,2.8v3.9H326.9L326.9,209.6z"/>
	<path class="st8" d="M330.4,206.3c0-2,1.5-3.4,3.3-3.4s3.5,1.1,3.3,3.7h-5.9c0.1,1.5,1.3,2.4,2.7,2.4c0.9,0,1.9-0.3,2.4-1l0.5,0.4
		c-0.6,0.8-1.8,1.3-2.8,1.3C331.8,209.7,330.4,208.4,330.4,206.3z M336.4,206.1c0-1.6-1.1-2.5-2.7-2.5c-1.4,0-2.5,0.9-2.7,2.5H336.4
		z"/>
	<path class="st8" d="M341.2,201.1v2h2.2v0.5h-2.2v4c0,0.9,0.2,1.5,1.2,1.5c0.3,0,0.7-0.1,1-0.3l0.2,0.5c-0.4,0.2-0.8,0.3-1.2,0.3
		c-1.4,0-1.9-0.8-1.9-2.1v-4h-1.4V203h1.4v-1.9H341.2z"/>
	<path class="st8" d="M345.9,206.3c0-2,1.5-3.4,3.3-3.4s3.5,1.1,3.3,3.7h-5.9c0.1,1.5,1.3,2.4,2.7,2.4c0.9,0,1.9-0.3,2.4-1l0.5,0.4
		c-0.6,0.8-1.8,1.3-2.8,1.3C347.4,209.7,345.9,208.4,345.9,206.3z M351.9,206.1c0-1.6-1.1-2.5-2.7-2.5c-1.4,0-2.5,0.9-2.7,2.5H351.9
		z"/>
	<path class="st8" d="M356.1,203v1.2c0.4-0.9,1.3-1.2,2.2-1.2c0.5,0,1,0.1,1.4,0.4l-0.3,0.5c-0.3-0.2-0.7-0.3-1.1-0.3
		c-1.2,0-2.2,1-2.2,2.2v3.8h-0.7V203H356.1z"/>
	<path class="st8" d="M366.6,204.2c-0.7-0.6-1.3-0.7-2.1-0.7c-1,0-2,0.4-2,1.2c0,0.9,1.2,1.1,2,1.2c1.2,0.2,2.8,0.4,2.7,1.9
		c0,1.5-1.5,1.8-2.7,1.8s-2.3-0.4-2.9-1.3l0.5-0.4c0.5,0.8,1.5,1.1,2.4,1.1c0.8,0,2-0.2,2.1-1.3c0-0.9-1.1-1.1-2.1-1.3
		c-1.3-0.2-2.5-0.5-2.6-1.8c0-1.3,1.3-1.9,2.6-1.8c1,0,1.8,0.3,2.5,0.9L366.6,204.2z"/>
	<path class="st8" d="M375.9,200.9c0,0.7-1.1,0.7-1.1,0C374.9,200.2,375.9,200.2,375.9,200.9z M375.1,203v6.6h0.7V203H375.1z"/>
	<path class="st8" d="M379.6,203v1.2c0.5-0.9,1.4-1.3,2.3-1.3c1.8,0,3,1.1,3,2.9v3.8h-0.7v-3.8c0-1.5-0.9-2.3-2.3-2.3
		s-2.3,1-2.3,2.4v3.7h-0.7V203H379.6z"/>
	<path class="st8" d="M392.6,206.4c0-2.1,1.5-3.4,3.3-3.4s3.3,1.3,3.3,3.4s-1.5,3.4-3.3,3.4S392.6,208.4,392.6,206.4z M398.6,206.4
		c0-1.7-1.2-2.8-2.7-2.8s-2.7,1.1-2.7,2.8s1.2,2.7,2.7,2.7S398.6,208.1,398.6,206.4z"/>
	<path class="st8" d="M402.8,203v1.2c0.5-0.9,1.4-1.3,2.3-1.3c1.8,0,3,1.1,3,2.9v3.8h-0.7v-3.8c0-1.5-0.9-2.3-2.3-2.3
		s-2.3,1-2.3,2.4v3.7h-0.7V203H402.8z"/>
	<path class="st8" d="M410.7,206.3c0-2,1.5-3.4,3.3-3.4s3.5,1.1,3.3,3.7h-5.9c0.1,1.5,1.3,2.4,2.7,2.4c0.9,0,1.9-0.3,2.4-1l0.5,0.4
		c-0.6,0.8-1.8,1.3-2.8,1.3C412.2,209.7,410.7,208.4,410.7,206.3z M416.8,206.1c0-1.6-1.1-2.5-2.7-2.5c-1.4,0-2.5,0.9-2.7,2.5H416.8
		z"/>
	<path class="st8" d="M426.2,200.9c0,0.7-1.1,0.7-1.1,0C425.2,200.2,426.2,200.2,426.2,200.9z M425.4,203v6.6h0.7V203H425.4z"/>
	<path class="st8" d="M429.9,203v1.2c0.5-0.9,1.4-1.3,2.3-1.3c1.8,0,3,1.1,3,2.9v3.8h-0.7v-3.8c0-1.5-0.9-2.3-2.3-2.3
		s-2.3,1-2.3,2.4v3.7h-0.7V203H429.9z"/>
	<path class="st8" d="M443.6,208.7c-0.7,0.7-1.5,1-2.4,1c-1.9,0-3.4-1.3-3.4-3.4s1.5-3.4,3.4-3.4c0.9,0,1.7,0.3,2.4,1l-0.4,0.4
		c-0.5-0.5-1.3-0.8-2-0.8c-1.5,0-2.7,1-2.7,2.7c0,1.8,1.3,2.7,2.7,2.7c0.7,0,1.4-0.3,2-0.8L443.6,208.7z"/>
	<path class="st8" d="M446.9,200.3v4c0.5-0.9,1.5-1.3,2.4-1.3c1.8,0,2.8,1.2,2.8,2.9v3.8h-0.6v-3.8c0-1.4-0.6-2.3-2.1-2.3
		c-1.4,0-2.3,1.1-2.3,2.4v3.6h-0.7v-9.3L446.9,200.3L446.9,200.3z"/>
</g>
</svg>
