<?xml version="1.0" encoding="utf-8"?>
<!-- Generator: Adobe Illustrator 19.2.1, SVG Export Plug-In . SVG Version: 6.00 Build 0)  -->
<svg version="1.1" id="Layer_1" xmlns="http://www.w3.org/2000/svg" xmlns:xlink="http://www.w3.org/1999/xlink" x="0px" y="0px"
	 viewBox="0 0 124.2 107.6" style="enable-background:new 0 0 124.2 107.6;" xml:space="preserve">
<style type="text/css">
	.st0{fill:none;stroke:#E6EEF9;stroke-width:0.8619;stroke-miterlimit:10;}
	.st1{fill:#E6EEF9;}
	.st2{fill:none;}
	.st3{fill:none;stroke:#E6EEF9;stroke-width:0.5;stroke-miterlimit:10;}
	.st4{fill:none;stroke:#E6EEF9;stroke-width:0.25;stroke-miterlimit:10;}
	.st5{fill:none;stroke:#E6EEF9;stroke-width:0.6804;stroke-miterlimit:10;}
</style>
<polygon class="st0" points="62.1,104.1 18.4,79 18.4,28.4 62.1,3.3 105.8,28.4 105.8,79 "/>
<polygon class="st1" points="59.6,66.1 59.6,65.9 59.6,65.9 59.6,65.9 60,65.3 59.9,65 59.5,64.8 59,64.8 58.9,64.8 58.4,65.1 
	58.1,65 57.9,65.2 58.2,65.6 58.4,65.5 58.7,65.8 58.6,66.3 58.7,66.7 58.9,66.5 "/>
<line class="st2" x1="57.9" y1="65" x2="57.5" y2="64.9"/>
<polygon class="st1" points="71.2,75 70.8,74.8 70.2,75.6 69.6,75.6 68.4,75.5 70.2,74.5 71.2,73.2 71.3,73.5 71.1,73.8 71.2,73.9 
	71.2,74 71.2,74 71.6,75.1 "/>
<path class="st3" d="M41.6,60.2c0.8-3.4,2.9-6.8,5.7-9.4"/>
<path class="st3" d="M44.4,56.8c3.6-7,8.6-10,15.5-3.9"/>
<path class="st3" d="M67.3,46l-0.8-0.5c7.3,0.1,11,5.5,12.1,13"/>
<path class="st3" d="M57,44c0.5,1,5.6,1,6.5,1"/>
<path class="st3" d="M66.4,37c3.2,3.3,6.8,5.6,11.3,7.2"/>
<polyline class="st4" points="41.8,44.5 43.6,45.5 44.9,45.2 45,44.8 44.5,44.6 43.7,44.3 42.3,42.6 "/>
<path class="st1" d="M49.2,62.8L48.4,63c0,0,0,0.2-0.1,0.2s-0.5,0.2-0.5,0.2l0.6-0.1l0.2,0.2l0.1-0.4L49.2,62.8z"/>
<polygon class="st1" points="53.1,63.8 53.3,63.5 53.8,63.4 54.1,63.7 54.2,63.9 53.8,63.9 53.6,63.8 "/>
<polygon class="st1" points="53.7,65.1 54.3,65 54.3,65.2 54.5,65.3 54.6,65.6 54.6,66 54.4,65.7 54.1,65.4 "/>
<polygon class="st1" points="51.2,64.1 51.4,63.9 51.5,63.9 51.6,64.2 51.8,64.6 51.6,64.7 51.5,64.4 "/>
<path class="st1" d="M49.8,63.6c0,0-0.1,0.4,0,0.4s0.1,0,0.2,0c0.1,0,0.2-0.1,0.2-0.1L50,63.8L49.8,63.6z"/>
<path class="st4" d="M73,64.8c0.5,0.9,0.7,1.8,0.6,2.7"/>
<path class="st4" d="M60.6,64.2c2.5-1.6,5.5-2.3,8.5-1.9"/>
<path class="st4" d="M57.5,68.2c-0.3,1-0.3,2.2,0,3.2"/>
<path class="st5" d="M43.2,65.3c0,0-3.4-4-3.9-10.1c-0.6-7-0.5-17.5,10.7-20.6C63.4,31,72.7,37.1,74.8,39s12.3,11.4,9.5,24.1
	c-2.8,12.7-13.2,12.7-16.3,12.8C65,76,50.8,74.8,43.2,65.3z"/>
</svg>
