<?xml version="1.0" encoding="utf-8"?>
<!-- Generator: Adobe Illustrator 19.2.1, SVG Export Plug-In . SVG Version: 6.00 Build 0)  -->
<svg version="1.1" id="Layer_1" xmlns="http://www.w3.org/2000/svg" xmlns:xlink="http://www.w3.org/1999/xlink" x="0px" y="0px"
	 viewBox="0 0 942 673" style="enable-background:new 0 0 942 673;" xml:space="preserve">
<style type="text/css">
	.st0{fill:none;stroke:#E6EEF8;stroke-width:0.8405;stroke-miterlimit:10;}
	.st1{fill:none;stroke:#E6EEF8;stroke-miterlimit:10;}
	.st2{fill:none;stroke:#E6EEF8;stroke-width:0.7;stroke-miterlimit:10;}
	.st3{fill:none;stroke:#E6EEF8;stroke-width:0.5;stroke-miterlimit:10;}
	.st4{fill:#E6EEF8;}
</style>
<line class="st0" x1="662.8" y1="377.4" x2="300" y2="377.3"/>
<polygon class="st1" points="138.4,261.1 47.2,208.4 47.2,103 138.4,50.3 229.8,103 229.8,208.4 "/>
<line class="st2" x1="300" y1="377.3" x2="188.8" y2="243.2"/>
<line class="st2" x1="233.2" y1="217.6" x2="144.2" y2="268.8"/>
<g>
	<line class="st3" x1="887" y1="378.9" x2="848.4" y2="378.9"/>
	<line class="st3" x1="887" y1="367.9" x2="848.4" y2="367.9"/>
	<line class="st3" x1="887" y1="356.9" x2="848.4" y2="356.9"/>
	<line class="st3" x1="887" y1="335" x2="848.4" y2="335"/>
	<line class="st3" x1="887" y1="324" x2="848.4" y2="324"/>
	<line class="st3" x1="887" y1="313.1" x2="848.4" y2="313.1"/>
	<line class="st3" x1="887" y1="302.1" x2="848.4" y2="302.1"/>
	<line class="st3" x1="887" y1="280.1" x2="848.4" y2="280.1"/>
	<line class="st3" x1="887" y1="269.2" x2="848.4" y2="269.2"/>
	<line class="st3" x1="887" y1="258.2" x2="848.4" y2="258.2"/>
	<line class="st3" x1="887" y1="247.2" x2="848.4" y2="247.2"/>
	<line class="st3" x1="887" y1="225.3" x2="848.4" y2="225.3"/>
	<line class="st3" x1="887" y1="214.3" x2="848.4" y2="214.3"/>
	<line class="st3" x1="887" y1="203.3" x2="848.4" y2="203.3"/>
	<line class="st3" x1="887" y1="192.4" x2="848.4" y2="192.4"/>
	<line class="st3" x1="887" y1="170.4" x2="848.4" y2="170.4"/>
	<line class="st3" x1="887" y1="159.4" x2="848.4" y2="159.4"/>
	<line class="st3" x1="887" y1="148.5" x2="848.4" y2="148.5"/>
	<line class="st3" x1="887" y1="137.5" x2="848.4" y2="137.5"/>
	<line class="st3" x1="887" y1="115.6" x2="848.4" y2="115.6"/>
	<line class="st3" x1="887" y1="126.5" x2="831.8" y2="126.5"/>
	<line class="st3" x1="887" y1="181.4" x2="831.8" y2="181.4"/>
	<line class="st3" x1="887" y1="236.3" x2="831.8" y2="236.3"/>
	<line class="st3" x1="887" y1="291.1" x2="831.8" y2="291.1"/>
	<line class="st3" x1="887" y1="346" x2="831.8" y2="346"/>
</g>
<g>
	<line class="st3" x1="887" y1="598.6" x2="848.4" y2="598.6"/>
	<line class="st3" x1="887" y1="587.7" x2="848.4" y2="587.7"/>
	<line class="st3" x1="887" y1="576.7" x2="848.4" y2="576.7"/>
	<line class="st3" x1="887" y1="554.7" x2="848.4" y2="554.7"/>
	<line class="st3" x1="887" y1="608.6" x2="848.4" y2="608.6"/>
	<line class="st3" x1="887" y1="543.8" x2="848.4" y2="543.8"/>
	<line class="st3" x1="887" y1="532.8" x2="848.4" y2="532.8"/>
	<line class="st3" x1="887" y1="521.8" x2="848.4" y2="521.8"/>
	<line class="st3" x1="887" y1="499.9" x2="848.4" y2="499.9"/>
	<line class="st3" x1="887" y1="488.9" x2="848.4" y2="488.9"/>
	<line class="st3" x1="887" y1="477.9" x2="848.4" y2="477.9"/>
	<line class="st3" x1="887" y1="467" x2="848.4" y2="467"/>
	<line class="st3" x1="887" y1="445" x2="848.4" y2="445"/>
	<line class="st3" x1="887" y1="434" x2="848.4" y2="434"/>
	<line class="st3" x1="887" y1="423.1" x2="848.4" y2="423.1"/>
	<line class="st3" x1="887" y1="412.1" x2="848.4" y2="412.1"/>
	<line class="st3" x1="887" y1="401.1" x2="831.8" y2="401.1"/>
	<line class="st3" x1="887" y1="456" x2="831.8" y2="456"/>
	<line class="st3" x1="887" y1="510.8" x2="831.8" y2="510.8"/>
	<line class="st3" x1="887" y1="565.7" x2="831.8" y2="565.7"/>
	<line class="st3" x1="887" y1="619.1" x2="831.8" y2="619.1"/>
	<line class="st3" x1="887" y1="390.2" x2="848.4" y2="390.2"/>
</g>
<path class="st4" d="M140.2,97.2c10.9-3.2,21.4-2.1,30.3,3.1c22.7,13.3,27.8,49.8,11.7,81.8c-0.5-0.4-1-0.7-1.5-0.9
	c15.7-31.3,10.8-66.8-11.1-79.6c-5.2-3-11.1-4.6-17.4-4.6c-3.8,0-7.7,0.6-11.6,1.7c-4.1,1.2-8.2,3-12.2,5.4
	c-0.9-0.1-1.8-0.1-2.8-0.1C130.3,101,135.2,98.7,140.2,97.2z"/>
<path class="st4" d="M170.1,189.3c0-3.8,3.1-7,7-7c1,0,1.9,0.2,2.7,0.6l0,0c0.6,0.2,1.1,0.5,1.5,0.9l0,0c1.6,1.3,2.7,3.3,2.7,5.5
	c0,3.8-3.1,7-7,7c-1.1,0-2.2-0.3-3.2-0.8l0,0c-0.5-0.3-1-0.6-1.5-1l0,0C171,193.3,170.1,191.4,170.1,189.3z"/>
<path class="st4" d="M123.6,104.7c15.2,0,32,5.2,46.8,15.7c7.2,5.1,13.5,11.1,18.5,17.7c0.1,1,0.1,2,0.2,3
	c-5.1-7.1-11.7-13.7-19.6-19.2c-14.6-10.3-31.1-15.5-46-15.5c-8.7,0-16.7,1.8-23.5,5.3c-0.2-0.5-0.4-1-0.6-1.5
	C106.4,106.6,114.7,104.7,123.6,104.7z"/>
<path class="st4" d="M146.8,139.3c-5.6,2.5-9.5,8.1-9.5,14.6c0,0.7,0.1,1.5,0.2,2.2c-1.7,0.7-3.5,1-5.5,1c-8.3,0-15.1-6.8-15.1-15.1
	s6.8-15.1,15.1-15.1C139.4,126.8,145.6,132.2,146.8,139.3z"/>
<path class="st4" d="M144,131.6c1.2-0.3,2.5-0.5,3.9-0.5c6.2,0,11.5,3.9,13.6,9.3c-2.4-1.5-5.3-2.4-8.3-2.4c-2,0-3.9,0.4-5.6,1
	C147.1,136.2,145.8,133.7,144,131.6z"/>
<path class="st4" d="M126,156.7c-5.5,2.2-9.4,7.4-9.8,13.6c-4.6-2.4-7.8-7.2-7.8-12.8c0-5.7,3.3-10.5,8-12.9
	C117.2,150,121,154.6,126,156.7z"/>
<path class="st4" d="M127.1,157.1c1.5,0.5,3.2,0.8,4.9,0.8c1.7,0,3.3-0.3,4.9-0.8c0.3,0.1,0.6,0.2,0.9,0.3c1.1,4.9,4.5,9,9.1,11
	c0.2,1,0.3,1.9,0.3,3c0,8.3-6.8,15.1-15.1,15.1s-15.1-6.8-15.1-15.1C116.9,164.7,121.2,159.1,127.1,157.1z"/>
<path class="st4" d="M147.9,171.3c0-0.9-0.1-1.8-0.2-2.6c1.7,0.6,3.6,1,5.5,1c3.9,0,7.5-1.4,10.2-3.7c0,0.4,0.1,0.8,0.1,1.1
	c0,8.3-6.7,15-15,15c-1.5,0-2.9-0.2-4.3-0.6C146.5,178.8,147.9,175.2,147.9,171.3z"/>
<path class="st4" d="M153.2,168.9c-8.3,0-15.1-6.8-15.1-15.1s6.8-15.1,15.1-15.1s15.1,6.8,15.1,15.1S161.5,168.9,153.2,168.9z"/>
<path class="st4" d="M121.1,107.2c0.8,0,1.6-0.1,2.4-0.1c0.1,0,0.2,0,0.3,0c-9.4,6.8-17.7,16.5-23.7,28.1c-6.1,11.8-9.3,24.3-9.6,36
	c-0.5-0.8-1-1.6-1.4-2.4c0.7-11.2,3.8-23.1,9.6-34.4C104.4,123.5,112.3,114,121.1,107.2z"/>
<path class="st4" d="M91.8,107.6c3.7,0,6.7,3,6.7,6.7s-3,6.7-6.7,6.7s-6.7-3-6.7-6.7C85.2,110.5,88.2,107.6,91.8,107.6z"/>
<path class="st4" d="M86.5,121c0.4,0.3,0.9,0.6,1.4,0.9c-5.8,7.6-8.1,17.2-6.5,27.8c2.4,16.4,13.8,33.3,30.6,45.1
	c13.9,9.7,29.3,14.9,43.5,15.4c-0.7,0.5-1.4,0.9-2.1,1.4c-13.9-0.9-28.9-6.1-42.2-15.5c-17.1-12.1-28.8-29.3-31.3-46.2
	C78.2,138.9,80.5,129,86.5,121z"/>
<path class="st4" d="M140.3,220.3c-4.2,1.2-8.2,1.8-12.1,1.8c-6.5,0-12.7-1.6-18.2-4.9c-13.5-7.9-20.8-24-21.1-42.5
	c0.5,0.8,1,1.5,1.6,2.3c0.8,17,7.8,31.5,20.2,38.8c8.5,5,18.5,6,29,2.9c11.6-3.4,22.8-11.6,31.7-22.9c0.5,0.4,0.9,0.7,1.5,1
	C163.8,208.5,152.3,216.9,140.3,220.3z"/>
<path class="st4" d="M194.5,196.2c-8,10.2-21,15.3-35.6,15.5c0.7-0.5,1.3-1,2-1.6c13.4-0.6,25-5.6,32.3-14.9
	c6.1-7.7,8.5-17.5,6.9-28.3c-1-7-3.7-14.1-7.7-20.8c0-1,0-2,0-3c4.9,7.5,8.1,15.6,9.3,23.5C203.3,177.9,200.9,188.1,194.5,196.2z"/>
</svg>
