<?xml version="1.0" encoding="utf-8"?>
<!-- Generator: Adobe Illustrator 19.2.1, SVG Export Plug-In . SVG Version: 6.00 Build 0)  -->
<svg version="1.1" id="Layer_1" xmlns="http://www.w3.org/2000/svg" xmlns:xlink="http://www.w3.org/1999/xlink" x="0px" y="0px"
	 viewBox="0 0 124.2 107.6" style="enable-background:new 0 0 124.2 107.6;" xml:space="preserve">
<style type="text/css">
	.st0{fill:none;stroke:#E6EEF9;stroke-width:0.8619;stroke-miterlimit:10;}
	.st1{fill:none;stroke:#E6EEF9;stroke-miterlimit:10;}
	.st2{fill:#E6EEF9;}
	.st3{fill:none;stroke:#E6EEF9;stroke-width:0.6804;stroke-miterlimit:10;}
</style>
<polygon class="st0" points="62.1,104.1 18.4,79 18.4,28.4 62.1,3.3 105.8,28.4 105.8,79 "/>
<g>
	<path class="st1" d="M45.3,35.8L45,35.2l0.2-0.7l0.6-0.1l0.4-0.8l1.5-0.2l0.4,0.1l0.5-0.4l0.7-0.6l1,0l0.6-0.5l0.4,0.1l0.8,0.8
		l0.2,0.7l1.8-0.6l2.9-0.3l5.3,1.2l4.3,0.6c0,0,1.6,0.2,1.7,0.7l2.2,0.5c0,0,0.8,0.1,1.2,0.5c0.4,0.4,1.8,1.8,1.8,1.8
		s0.8,0.8,1.2,0.9s1.2,0.5,1.2,0.5s0.9,1.2,1.2,2.3l0.9,0.7l0.3,1.1l1.4,1.8l1.3,1.9l1.8,1.3l0.1,0.5l1.3,0.5l0.4,0.8l1.2,0.4
		l1.4,0.8l0.4,2.2l0,2.7l0.2,0.7l-0.4,1.4l-0.8,1.2l-0.8,0.5L85,60.5l0,1.2l-0.1,1.1L84.6,63L84,64l-0.9,0.9l-1,0.6l-0.8,0.9
		l-0.6,0.1l-0.8,0.8l-1,0.3l-0.5,0.4l-1.1,0.9l-2.2,1.6l0,0.9l1.4,0.8l-0.1,1.1l0.5,0.6l0.1,1.3l0.3,0.8l-1.1,1.3L75.4,77l-0.8,0.1
		L74,77.5l-1.5-0.4l-0.7,0.3L71.3,78L70.2,78l-0.9-0.4L69.1,78l-1,0.2l-0.6-0.4l0.1-0.4l-0.3-0.5l0.1-0.6L66,75.5l-0.6,0.6l-0.7,0.3
		l-0.6-0.7l-1.8-0.5l-1.1,0.3l-1.9-1.2l-1.2-0.3l-1.6-0.7L55.9,74l-0.6,0l-0.7,0.6l-1.6-1.8L50.2,72l0-1.2l-0.6-0.3l-1.5-1l0.1-0.8
		l-1.9-0.6l-2.5-1.3l0.4-0.5l-0.7-0.7l-1.3,0.2l-0.2-1l-0.3-2.3L41,62.1l-0.1-0.5L40,60.2L39.7,59l0.4-0.5l-0.6-1.2l0.4-0.9
		l-0.6-2.2c0,0,0.5-1.5,0.1-2.9l0.7-0.6l0-1.5l-0.4-1.8l1.3-1l0.1-0.7l-0.2-0.8l0.3-0.6l-0.5,0l-1.1-3.8l0.5-1.1l0.5-0.2l0.7-1
		l0-0.4l2.4-1.6l1.2,0.1L45.3,35.8z"/>
	<polygon class="st2" points="51.9,66.2 50.2,68.4 51.3,69.2 51.4,68.6 51.9,68.9 53.1,68 55.2,68.8 55.5,68.2 54.9,68.3 54.9,67.7 
		54.5,68.3 54.9,67.1 53.9,68 53.5,67.3 52.7,67.6 51.9,66.2 	"/>
	<polygon class="st2" points="54.9,64.9 55.3,65.2 55.4,65.4 55.3,65.7 55.6,65.6 55.6,65.3 55.2,64.9 55.5,64.5 55.9,64.8 
		56.6,64.5 56.9,65 56.9,64.4 57.3,64.6 57.3,64.2 56.3,63.8 55.5,64.1 55.3,64 55,64.3 53.8,64.5 53.7,64.9 53.3,64.9 53.4,65.1 
		53,65.3 54.3,66.8 54.9,66.7 54.6,66.5 54.4,66.6 54.1,65.6 54.5,65.3 54.3,65 54.4,64.7 54.7,64.7 54.9,64.9 	"/>
	<polygon class="st2" points="57.1,65.3 57.2,66 57.1,66.2 57.4,66.4 57.2,67.6 56.7,67.6 56.5,67.8 56.7,68.1 56.4,68.4 57,68.5 
		57.2,68.7 57.2,68.4 57.5,68.3 57.5,68.1 57.8,67.7 58.2,67.7 58.1,67.2 57.9,67.1 57.9,66.8 57.7,66.6 57.7,66.3 57.4,66.1 
		57.1,65.3 	"/>
	<polygon class="st2" points="58.3,69.8 58.4,70.3 58.1,70.5 58.3,71 58.1,71.2 58.1,71.5 57.9,71.7 58,72.1 57.7,72.3 57.5,71.9 
		57.2,71.8 57.3,71.5 57.6,71.6 58,71.1 57.8,71 56.7,71.3 56.6,71.2 57.2,70.6 57.4,70.7 57.6,70.5 58,70.7 57.9,70.3 57.5,70.3 
		57.4,70 57.6,70 57.6,70.1 58.1,70.1 58.3,69.8 	"/>
	<polygon class="st2" points="59.2,66.7 58.9,66.2 58.7,66.7 58.6,66.3 58.9,66.1 58.4,65.5 58.2,65.6 57.9,65.2 58.1,65 58.4,65.1 
		58.9,65.8 59,65.6 59.4,65.4 58.3,64.6 58,64.7 57.9,65 57.5,64.9 57.5,64.6 58.6,63.8 58.7,63.6 59.6,63.2 59.9,63.4 60.2,63 
		60.7,63.4 62.5,62.9 62.8,62.5 62.7,62.1 62.3,62.1 62.3,61.8 62.6,62 62.9,61.9 63,62.2 63.7,62.1 63.2,61.8 63.6,61.8 64,62 
		64.3,61.8 64.7,61.9 65.1,61.6 65.6,61.8 65.9,61.6 65.9,62 66.2,62.1 66.5,61.9 66.6,62.2 67.1,61.9 67.2,62.2 66.9,62.5 
		66.1,62.7 65.8,62.5 64.2,62.9 64,62.7 63.2,62.9 62.7,63.5 62,63.6 61.6,64.2 61,64.4 60.8,63.6 59.6,63.7 59.6,63.9 59.4,63.6 
		58.9,63.7 58.8,63.9 58.5,64 58.6,64.7 58.9,65 59.6,65.1 59.7,65 59.7,65.2 60,65.3 59.7,65.5 59.6,65.9 59.8,66.1 59.6,66.1 
		59.2,66.7 	"/>
	<polygon class="st2" points="68,62.1 68,62.6 68.2,62.5 69.6,63.4 69.7,63.3 69.9,63.6 70.1,63.4 70.3,63.7 70.5,63.7 71,64.2 
		71.3,64.1 71.5,64.3 71.7,64.3 71.8,64.4 72.1,64.4 71.2,63.9 70.9,63 70.9,63.6 70.3,63.4 70.1,63.2 69.9,63.3 69.8,63.1 
		68.9,62.6 68.7,62.6 68,62.1 	"/>
	<polygon class="st2" points="73.4,68.1 71.7,71.6 71.8,71.8 72,71.7 72.3,71.9 72.3,71.6 72,71.5 72,71.4 72.2,71.1 72.4,71.4 
		72.6,71.4 72.7,71.8 72.5,72 72.7,72.1 73,71.9 73.3,72.2 73.3,71.9 73,71.8 72.9,71.4 73.1,71.2 73.3,71.4 73.3,70.2 73,70.7 
		73,71.1 72.6,71.2 72.4,71 72.7,70.3 73.2,70.1 73.5,70.2 73.6,70.3 73.8,70.3 73.9,70.1 74.2,69.9 74.2,69.8 73.9,69.9 73.8,69.7 
		73.9,69.5 74.2,69.5 74.4,69.7 74.9,69.5 75,69.4 75.3,69.3 75.3,69 75.1,69 74.8,69.4 74.6,69.2 74.6,69 74.7,68.9 74.7,68.7 
		74.1,68.7 73.6,69.1 73.5,68.8 73.4,68.8 73.4,68.1 	"/>
	<polygon class="st2" points="71.5,72.1 71.7,72.3 71.4,72.5 71.3,72.8 71.6,72.9 71.9,72.8 71.9,72.6 72,72.6 72.1,72.8 72.4,73 
		72.2,73.2 72.2,73 71.9,72.9 71.5,73.1 71.2,72.9 70.9,73 71,73.3 71.3,73.4 71.4,73.6 71.7,73.7 72,74.3 72.2,74.3 71.9,74.4 
		71.9,74.6 71.8,74.7 71.8,74.9 71.7,75 71.4,75 71.4,74.8 71.8,74.5 71.7,74.3 71.3,74.1 71.3,74.5 71.1,74.7 71,75 70.7,75.3 
		70.3,74.5 70.1,74.6 70.1,75 69.1,75.5 69.1,75.4 68.9,75.3 69,75.1 69.3,74.9 69.3,74.8 70,74.3 70.1,74 70.3,74 70.3,73.8 
		70.8,73.3 70.8,72.9 71.5,72.1 	"/>
	<polyline class="st3" points="41.6,60.2 41.5,58.7 42,58.4 42.5,57.7 42.9,57.4 42.8,56.9 43.1,56.3 43.4,55.3 44.3,54.2 
		44.7,53.9 	"/>
	<polyline class="st3" points="43.4,56.4 44,56 44.4,55.3 45.3,55.1 45.8,54.5 46.2,53.8 46.8,53.7 47.2,53.1 47.6,52.5 47.7,51.5 
		48,50.6 48.7,50.1 49.3,49.6 49.3,48.8 49.5,48.2 50.2,48.2 51,48.9 52.2,49.7 52.8,49.2 54.2,49.8 55.6,50.4 57,51 58,51.8 
		58.9,52.5 	"/>
	<line class="st3" x1="59.3" y1="51.9" x2="59.5" y2="50.9"/>
	<polyline class="st3" points="59.6,50.2 60.3,49.2 60.5,48.5 62.2,47.9 62.9,48.1 63.3,47.7 63.7,47.9 63.8,47.6 64.5,47.4 65,47 
		65.6,46.5 65.9,45.7 66.5,46 	"/>
	<polyline class="st3" points="67.3,46 66.5,45.5 68.4,45.4 70,45.9 71.4,45.7 72.8,46.2 74.4,47.4 74.9,49.7 75.6,51.5 76.5,53 
		77.2,54.9 78,57.1 78.6,58.5 	"/>
	<polyline class="st3" points="44,50.9 44.2,50 44.1,49.6 44.3,48.7 44.3,47.9 44.3,46.2 45.1,45.5 46.1,45.7 46.3,46.4 46.7,45.8 
		48.1,45.5 49,46 50.5,45.9 51,46 52.8,45.5 58.2,44.4 	"/>
	<path class="st3" d="M59,44.2c0.1,0.2,4.1,0.9,4.1,0.9l0.8-0.1l0.3,0.4l0.7-0.4l0.6,0.2"/>
	<polyline class="st3" points="53,33.6 55,34 55.5,34.3 56.7,34.2 57.1,34.6 58.4,35 59.1,34.8 60.5,35.2 61.1,35.3 62.3,35.6 
		63.6,35.6 64.1,35.9 64.4,36.4 	"/>
	<polyline class="st3" points="66.4,37 66.9,37.1 67.4,38 68.1,38.5 68.6,39.2 69.3,39.6 69.6,40.3 70.2,40.6 70.7,41.2 71.6,41.4 
		73.2,41.6 73.7,42.2 74.8,42.3 76,43.1 77.1,44 77.7,44.2 	"/>
	<line class="st3" x1="71.4" y1="42.1" x2="73.7" y2="42.2"/>
	<polyline class="st3" points="41.8,44.5 43.6,45.5 44.9,45.2 45,44.8 44.5,44.6 43.7,44.3 42.3,42.6 	"/>
	<path class="st2" d="M47.5,58.8c0.2-0.1,0.7-1.1,0.7-1.1l0.9-0.2l0.5,0.3l0.3-0.3l0.9,0.1L50.2,58l-0.2-0.2l-0.5,0.3l-0.1,0.3
		l-0.2,0.1L49,58.2l-0.3,0l-0.4,0.2l-0.2,0l-0.2,0.2l0,0.2L47.5,58.8z"/>
	<path class="st2" d="M49.5,58.8L48.7,59c0,0,0,0.2-0.1,0.2c-0.1,0-0.5,0.2-0.5,0.2l0.6-0.1l0.2,0.2l0.1-0.4L49.5,58.8z"/>
	<polygon class="st2" points="53.4,59.8 53.6,59.5 54.1,59.4 54.4,59.7 54.5,59.9 54.1,59.9 53.9,59.8 	"/>
	<polygon class="st2" points="54,61.1 54.6,61 54.6,61.2 54.8,61.3 54.9,61.6 54.9,62 54.7,61.7 54.4,61.4 	"/>
	<polygon class="st2" points="51.5,60.1 51.7,59.9 51.8,59.9 51.9,60.2 52.1,60.6 51.9,60.7 51.8,60.4 	"/>
	<path class="st2" d="M50.1,59.6c0,0-0.1,0.4,0,0.4c0.1,0,0.1,0,0.2,0c0.1,0,0.2-0.1,0.2-0.1l-0.2-0.1L50.1,59.6z"/>
	<polyline class="st3" points="44.4,38 45.1,37.2 46,36.9 	"/>
	<polyline class="st3" points="48.4,36 49.1,35.8 49.9,35 49.7,34.1 49.9,33.4 48.8,33.7 48,34.1 47.5,34.1 	"/>
	<polyline class="st3" points="56.6,42.8 57.9,42.7 58.2,42 	"/>
	<polyline class="st3" points="59.3,41.1 58.9,41.7 58.5,41.5 	"/>
	<polyline class="st3" points="54.7,41.3 55.1,41.7 55.6,41.6 56.3,41.2 57.4,41 	"/>
	<polyline class="st3" points="75.7,45.7 75.2,46.4 74.6,45.9 75.2,47 75.7,48.5 75.8,50.2 76.9,51.3 77.6,52.3 78.9,52.7 
		79.4,53.1 79.9,55.2 81.7,56.1 83,56.4 	"/>
	<polyline class="st3" points="78.6,50.4 79.1,51.9 80.1,53 81.5,53.2 83.8,52.9 	"/>
	<path class="st3" d="M60.2,52.7c0.2,0,1.4,0.6,1.4,0.6l1.8,0.1l1.3,0.5l0.7,0.8"/>
	<polyline class="st3" points="59.2,66.7 59,67.6 58.7,68.4 58.9,69.2 58.1,70.1 	"/>
	<line class="st3" x1="58.6" y1="73.3" x2="59.2" y2="74.4"/>
	<path class="st3" d="M73,64.8c0.4,0.2,0.6,1.9,0.6,1.9l0,0.8"/>
	<path class="st3" d="M74,59.8c0.3,0.1,1.9,0.8,1.9,0.8l0.8,0.6l1.1,0.4l1.4,0.7"/>
	<line class="st3" x1="43" y1="64.4" x2="43.4" y2="65.5"/>
	<polyline class="st3" points="59.4,43.8 60.4,43.2 61.1,42.3 61.2,43.3 	"/>
</g>
</svg>
