<?xml version="1.0" encoding="utf-8"?>
<!-- Generator: Adobe Illustrator 21.0.2, SVG Export Plug-In . SVG Version: 6.00 Build 0)  -->
<svg version="1.1" id="Layer_1" xmlns="http://www.w3.org/2000/svg" xmlns:xlink="http://www.w3.org/1999/xlink" x="0px" y="0px"
	 viewBox="0 0 124.2 107.6" style="enable-background:new 0 0 124.2 107.6;" xml:space="preserve">
<style type="text/css">
	.st0{fill:none;stroke:#E6EEF9;stroke-miterlimit:10;}
	.st1{fill:none;stroke:#E6EEF9;stroke-width:0.68;stroke-miterlimit:10;}
	.st2{fill:none;stroke:#E6EEF9;stroke-width:0.5;stroke-miterlimit:10;}
	.st3{fill:#E6EEF9;}
</style>
<path class="st0" d="M58.4,103L22.1,82.1c-2.3-1.3-3.7-3.8-3.7-6.4v-42c0-2.6,1.4-5.1,3.7-6.4L58.4,6.4c2.3-1.3,5.1-1.3,7.4,0
	l36.3,20.9c2.3,1.3,3.7,3.8,3.7,6.4v42c0,2.6-1.4,5.1-3.7,6.4L65.8,103C63.5,104.3,60.7,104.3,58.4,103z"/>
<rect x="35" y="39.9" class="st1" width="54.6" height="31.2"/>
<g>
	<line class="st2" x1="38.6" y1="69" x2="38.6" y2="58.1"/>
	<line class="st2" x1="42" y1="69" x2="42" y2="58.1"/>
	<line class="st2" x1="48.6" y1="69" x2="48.6" y2="58.1"/>
	<line class="st2" x1="45.3" y1="69" x2="45.3" y2="58.1"/>
	<line class="st2" x1="52" y1="69" x2="52" y2="58.1"/>
	<line class="st2" x1="55.3" y1="69" x2="55.3" y2="58.1"/>
	<line class="st2" x1="58.6" y1="69" x2="58.6" y2="58.1"/>
	<line class="st2" x1="65.4" y1="69" x2="65.4" y2="58.1"/>
	<line class="st2" x1="62.1" y1="69" x2="62.1" y2="58.1"/>
	<line class="st2" x1="68.8" y1="69" x2="68.8" y2="58.1"/>
	<line class="st2" x1="72.1" y1="69" x2="72.1" y2="58.1"/>
	<line class="st2" x1="75.4" y1="69" x2="75.4" y2="58.1"/>
	<line class="st2" x1="82.1" y1="69" x2="82.1" y2="58.1"/>
	<line class="st2" x1="85.6" y1="69" x2="85.6" y2="58.1"/>
	<line class="st2" x1="78.8" y1="69" x2="78.8" y2="50.4"/>
</g>
<g>
	<path class="st3" d="M73.9,54.4h-1.7v-6.5c-0.6,0.6-1.4,1-2.2,1.3v-1.6c0.4-0.1,0.9-0.4,1.5-0.8c0.5-0.4,0.9-0.9,1.1-1.4H74
		L73.9,54.4L73.9,54.4z"/>
</g>
</svg>
