<?xml version="1.0" encoding="utf-8"?>
<!-- Generator: Adobe Illustrator 19.2.1, SVG Export Plug-In . SVG Version: 6.00 Build 0)  -->
<svg version="1.1" id="Layer_1" xmlns="http://www.w3.org/2000/svg" xmlns:xlink="http://www.w3.org/1999/xlink" x="0px" y="0px"
	 viewBox="0 0 124.2 107.6" style="enable-background:new 0 0 124.2 107.6;" xml:space="preserve">
<style type="text/css">
	.st0{fill:none;stroke:#E6EEF9;stroke-width:1.5677;stroke-miterlimit:10;}
	.st1{fill:#E6EEF9;}
	.st2{fill:none;stroke:#E6EEF9;stroke-width:0.8619;stroke-miterlimit:10;}
</style>
<g>
	<line class="st0" x1="38.1" y1="64.3" x2="38.1" y2="53.4"/>
	<line class="st0" x1="41.5" y1="64.3" x2="41.5" y2="53.4"/>
	<line class="st0" x1="48.1" y1="64.3" x2="48.1" y2="53.4"/>
	<line class="st0" x1="44.8" y1="64.3" x2="44.8" y2="53.4"/>
	<line class="st0" x1="51.5" y1="64.3" x2="51.5" y2="53.4"/>
	<line class="st0" x1="54.8" y1="64.3" x2="54.8" y2="53.4"/>
	<line class="st0" x1="58.1" y1="64.3" x2="58.1" y2="53.4"/>
	<line class="st0" x1="64.8" y1="64.3" x2="64.8" y2="53.4"/>
	<line class="st0" x1="61.6" y1="64.3" x2="61.6" y2="53.4"/>
	<line class="st0" x1="68.2" y1="64.3" x2="68.2" y2="53.4"/>
	<line class="st0" x1="71.5" y1="64.3" x2="71.5" y2="53.4"/>
	<line class="st0" x1="74.8" y1="64.3" x2="74.8" y2="53.4"/>
	<line class="st0" x1="81.6" y1="64.3" x2="81.6" y2="53.4"/>
	<line class="st0" x1="85" y1="64.3" x2="85" y2="53.4"/>
	<line class="st0" x1="78.2" y1="64.3" x2="78.2" y2="45.7"/>
	<rect x="34.8" y="38.1" class="st0" width="54.3" height="28.8"/>
	<g>
		<path class="st1" d="M73.4,49.7h-1.7v-6.5c-0.6,0.6-1.4,1-2.2,1.3v-1.6c0.4-0.1,0.9-0.4,1.5-0.8c0.5-0.4,0.9-0.9,1.1-1.4h1.4
			L73.4,49.7L73.4,49.7z"/>
	</g>
</g>
<polygon class="st2" points="62.1,105.1 18.4,80 18.4,29.4 62.1,4.3 105.8,29.4 105.8,80 "/>
</svg>
