<?xml version="1.0" encoding="utf-8"?>
<!-- Generator: Adobe Illustrator 19.2.1, SVG Export Plug-In . SVG Version: 6.00 Build 0)  -->
<svg version="1.1" id="Layer_1" xmlns="http://www.w3.org/2000/svg" xmlns:xlink="http://www.w3.org/1999/xlink" x="0px" y="0px"
	 viewBox="0 0 124.2 107.6" style="enable-background:new 0 0 124.2 107.6;" xml:space="preserve">
<style type="text/css">
	.st0{fill:none;stroke:#E6EEF9;stroke-width:0.8619;stroke-miterlimit:10;}
	.st1{fill:none;stroke:#E6EEF9;stroke-width:0.6804;stroke-miterlimit:10;}
	.st2{fill:#E6EEF9;}
	.st3{fill:none;stroke:#E6EEF9;stroke-width:0.5;stroke-miterlimit:10;}
	.st4{fill:none;stroke:#E6EEF9;stroke-width:0.25;stroke-miterlimit:10;}
</style>
<polygon class="st0" points="62.1,104.1 18.4,79 18.4,28.4 62.1,3.3 105.8,28.4 105.8,79 "/>
<path class="st1" d="M43.4,65.5l0.7,0.7l0.4,0.9l1.7,0.9l1.3,0.7l0.5,0.8l1.5,1l0.6,0.3l0.2,1l2.7,1l2.1,1l2.9,0.3l1.2,0.3l1.9,1.2
	l1.1-0.3l1,0.7l1.1,0.2l0.9,0l0.6-0.6l1.4,0.6l1.2-0.4l2.4,0.2l2.2-0.5l0.3-1l2.9-0.5l1.3,0l0.8-0.9l1.4-1.7l1.1-0.9l0.5-0.4l1-0.3
	l0.8-0.8l0.1-1.4l0.6-0.9l0-0.7l0.9-4.1l0.8-6.3L85,53.2l-0.8-0.7l-1.4-3.4l-0.1-0.5l-1.8-1.3l-1.3-1.9l-1.4-1.8L78,42.5l-0.9-0.7
	c-0.3-1.1-1.2-2.3-1.2-2.3s-0.8-0.4-1.2-0.5s-1.2-0.9-1.2-0.9s-1.4-1.4-1.8-1.8c-0.4-0.4-1.2-0.5-1.2-0.5l-2.2-0.5
	c-0.1-0.5-1.7-0.7-1.7-0.7L62.3,34L57,32.8l-2.9,0.3l-1.4,0.4l-1.3,1.1l-3.6,0.6L46,36.7l0,0.6l-0.6,0.1l-0.9,0.4l-2.1,2.9l-2.2,2.1
	l-0.1,1.2l-0.3,0.6l0.2,0.8L40,45.9l-0.4,1.4l0.4,1.8l0,1.5l-0.7,0.6c0.4,1.4-0.1,2.9-0.1,2.9l0.6,2.2l-0.4,0.9l0.6,1.2L39.7,59
	l0.3,1.2l0.9,1.4l0.1,0.5l0.6,0.4l0.3,2.3L43.4,65.5l-0.3-1.6"/>
<polygon class="st2" points="54.5,68.1 54.9,67.7 55.5,67.7 55.5,68.2 55.2,68.8 53.2,69.2 51.9,68.9 51.4,68.6 51.3,69.2 
	50.2,68.4 51.2,67.1 52.2,66.7 52.7,67.6 53.5,67.3 53.9,68 "/>
<polygon class="st2" points="59.6,66.1 59.6,65.9 59.6,65.9 59.6,65.9 60,65.3 59.9,65 59.5,64.8 59,64.8 58.9,64.8 58.4,65.1 
	58.1,65 57.9,65.2 58.2,65.6 58.4,65.5 58.7,65.8 58.6,66.3 58.7,66.7 58.9,66.5 "/>
<line class="st2" x1="57.9" y1="65" x2="57.5" y2="64.9"/>
<polygon class="st2" points="71.9,74.4 71.6,74.2 71,75 70.3,75 69.2,74.9 71,73.9 72,72.6 72.1,72.9 71.8,73.2 72,73.3 71.9,73.4 
	71.9,73.4 72.3,74.5 "/>
<polyline class="st3" points="41.6,60.2 41.5,58.7 42,58.4 42.5,57.7 42.9,57.4 42.8,56.9 43.1,56.3 43.4,55.3 44.3,54.2 44.7,53.9 
	45.1,53 45.9,52.6 46.4,51.4 47.3,50.8 "/>
<polyline class="st3" points="43.4,56.4 44,56 44.4,55.3 45.3,55.1 45.8,54.5 46.2,53.8 46.8,53.7 47.2,53.1 47.6,52.5 47.7,51.5 
	48,50.6 48.7,50.1 49.3,49.6 49.3,48.8 49.5,48.2 50.2,48.2 51,48.9 52.2,49.7 52.8,49.2 54.2,49.8 55.6,50.4 57,51 58,51.8 
	58.9,52.5 "/>
<line class="st4" x1="59.3" y1="51.9" x2="59.5" y2="50.9"/>
<polyline class="st3" points="67.3,46 66.5,45.5 68.4,45.4 70,45.9 71.4,45.7 72.8,46.2 74.4,47.4 74.9,49.7 75.6,51.5 76.5,53 
	77.2,54.9 78,57.1 78.6,58.5 "/>
<path class="st3" d="M59,44.2c0.1,0.2,4.1,0.9,4.1,0.9l0.8-0.1l0.3,0.4l0.7-0.4l0.6,0.2"/>
<polyline class="st4" points="54.2,33.9 56.2,34.3 56.6,34.5 57.8,34.5 58.2,34.8 59.6,35.2 60.3,35.1 61.6,35.5 62.2,35.6 
	63.5,35.8 64.7,35.8 65.3,36.2 65.6,36.7 "/>
<polyline class="st3" points="66.4,37 66.9,37.1 67.4,38 68.1,38.5 68.6,39.2 69.3,39.6 69.6,40.3 70.2,40.6 70.7,41.2 71.6,41.4 
	73.2,41.6 73.7,42.2 74.8,42.3 76,43.1 77.1,44 77.7,44.2 "/>
<line class="st4" x1="71.4" y1="42.3" x2="73.7" y2="42.3"/>
<polyline class="st4" points="41.8,44.5 43.6,45.5 44.9,45.2 45,44.8 44.5,44.6 43.7,44.3 42.3,42.6 "/>
<path class="st2" d="M47.5,58.8c0.2-0.1,0.7-1.1,0.7-1.1l0.9-0.2l0.5,0.3l0.3-0.3l0.9,0.1L50.2,58l-0.2-0.2l-0.5,0.3l-0.1,0.3
	l-0.2,0.1L49,58.2l-0.3,0l-0.4,0.2l-0.2,0l-0.2,0.2l0,0.2L47.5,58.8z"/>
<path class="st2" d="M49.5,58.8L48.7,59c0,0,0,0.2-0.1,0.2c-0.1,0-0.5,0.2-0.5,0.2l0.6-0.1l0.2,0.2l0.1-0.4L49.5,58.8z"/>
<polygon class="st2" points="53.4,59.8 53.6,59.5 54.1,59.4 54.4,59.7 54.5,59.9 54.1,59.9 53.9,59.8 "/>
<polygon class="st2" points="54,61.1 54.6,61 54.6,61.2 54.8,61.3 54.9,61.6 54.9,62 54.7,61.7 54.4,61.4 "/>
<polygon class="st2" points="51.5,60.1 51.7,59.9 51.8,59.9 51.9,60.2 52.1,60.6 51.9,60.7 51.8,60.4 "/>
<path class="st2" d="M50.1,59.6c0,0-0.1,0.4,0,0.4c0.1,0,0.1,0,0.2,0c0.1,0,0.2-0.1,0.2-0.1l-0.2-0.1L50.1,59.6z"/>
<polyline class="st4" points="45.4,39.4 46.1,38.7 47,38.4 "/>
<polyline class="st4" points="56.6,42.8 57.9,42.7 58.2,42 "/>
<polyline class="st4" points="59.3,41.1 58.9,41.7 58.5,41.5 "/>
<polyline class="st4" points="54.7,41.3 55.1,41.7 55.6,41.6 56.3,41.2 57.4,41 "/>
<polyline class="st4" points="76.1,50 76.6,51.5 77.6,52.6 79,52.8 "/>
<path class="st3" d="M60.2,52.7c0.2,0,1.4,0.6,1.4,0.6l1.8,0.1l1.3,0.5l0.7,0.8"/>
<line class="st3" x1="58.6" y1="73.3" x2="59.2" y2="74.4"/>
<path class="st4" d="M73,64.8c0.4,0.2,0.6,1.9,0.6,1.9l0,0.8"/>
<path class="st4" d="M74,59.8c0.3,0.1,1.9,0.8,1.9,0.8l0.8,0.6l1.1,0.4l1.4,0.7"/>
<path class="st3" d="M60.6,64.2c0,0,0.6-0.7,1.5-0.5c0.9,0.1,0.5-0.7,0.5-0.7l1.5-0.3l1-0.4l2.8-0.3l1.2,0.3"/>
<polyline class="st3" points="58,69 57.7,69.8 57.9,70.7 57.7,71.3 58,72.2 "/>
</svg>
