<?xml version="1.0" encoding="utf-8"?>
<!-- Generator: Adobe Illustrator 19.2.1, SVG Export Plug-In . SVG Version: 6.00 Build 0)  -->
<svg version="1.1" id="Layer_1" xmlns="http://www.w3.org/2000/svg" xmlns:xlink="http://www.w3.org/1999/xlink" x="0px" y="0px"
	 viewBox="0 0 124.2 107.6" style="enable-background:new 0 0 124.2 107.6;" xml:space="preserve">
<style type="text/css">
	.st0{fill:#F7B430;}
	.st1{fill:none;stroke:#F7B430;stroke-width:0.8619;stroke-miterlimit:10;}
</style>
<path class="st0" d="M61.9,28.7c4.6-1.4,9.1-0.9,12.9,1.3c9.7,5.7,11.8,21.2,5,34.8c-0.2-0.2-0.4-0.3-0.6-0.4
	c6.7-13.3,4.6-28.4-4.7-33.9c-2.2-1.3-4.7-2-7.4-2c-1.6,0-3.3,0.3-4.9,0.7c-1.7,0.5-3.5,1.3-5.2,2.3c-0.4,0-0.8,0-1.2,0
	C57.6,30.3,59.7,29.4,61.9,28.7z"/>
<path class="st0" d="M74.6,67.9c0-1.6,1.3-3,3-3c0.4,0,0.8,0.1,1.1,0.3l0,0c0.3,0.1,0.5,0.2,0.6,0.4l0,0c0.7,0.6,1.1,1.4,1.1,2.3
	c0,1.6-1.3,3-3,3c-0.5,0-0.9-0.1-1.4-0.3l0,0c-0.2-0.1-0.4-0.3-0.6-0.4l0,0C75,69.6,74.6,68.8,74.6,67.9z"/>
<path class="st0" d="M54.8,31.9c6.5,0,13.6,2.2,19.9,6.7c3.1,2.2,5.7,4.7,7.9,7.5c0,0.4,0,0.9,0.1,1.3c-2.2-3-5-5.8-8.3-8.2
	c-6.2-4.4-13.2-6.6-19.6-6.6c-3.7,0-7.1,0.8-10,2.3c-0.1-0.2-0.2-0.4-0.3-0.6C47.5,32.7,51,31.9,54.8,31.9z"/>
<path class="st0" d="M64.2,46.7c-2.2,1-3.8,3.2-3.8,5.8c0,0.3,0,0.6,0.1,0.9c-0.7,0.3-1.4,0.4-2.2,0.4c-3.3,0-6-2.7-6-6
	c0-3.3,2.7-6,6-6C61.3,41.8,63.8,43.9,64.2,46.7z"/>
<path class="st0" d="M63.7,43.5c0.5-0.1,1-0.2,1.6-0.2c2.5,0,4.6,1.6,5.4,3.7c-1-0.6-2.1-1-3.3-1c-0.8,0-1.6,0.2-2.2,0.4
	C65,45.3,64.4,44.3,63.7,43.5z"/>
<path class="st0" d="M55.3,54.1c-2,0.8-3.4,2.7-3.6,5c-1.7-0.9-2.9-2.6-2.9-4.7c0-2.1,1.2-3.9,2.9-4.7
	C52.1,51.6,53.5,53.3,55.3,54.1z"/>
<path class="st0" d="M56.5,54.6c0.6,0.2,1.3,0.3,1.9,0.3c0.7,0,1.3-0.1,1.9-0.3c0.1,0,0.2,0.1,0.4,0.1c0.4,1.9,1.8,3.6,3.6,4.4
	c0.1,0.4,0.1,0.8,0.1,1.2c0,3.3-2.7,6-6,6s-6-2.7-6-6C52.5,57.6,54.2,55.4,56.5,54.6z"/>
<path class="st0" d="M65.5,60.4c0-0.3,0-0.7-0.1-0.9c0.6,0.2,1.3,0.4,2,0.4c1.4,0,2.7-0.5,3.7-1.3c0,0.1,0,0.3,0,0.4
	c0,3-2.4,5.4-5.4,5.4c-0.5,0-1.1-0.1-1.6-0.2C65,63.2,65.5,61.8,65.5,60.4z"/>
<path class="st0" d="M67.4,58.6c-3.2,0-5.8-2.6-5.8-5.8c0-3.2,2.6-5.8,5.8-5.8s5.8,2.6,5.8,5.8C73.2,56,70.6,58.6,67.4,58.6z"/>
<path class="st0" d="M53.7,33c0.3,0,0.7,0,1,0c0,0,0.1,0,0.1,0c-4,2.9-7.5,7-10.1,12c-2.6,5-4,10.3-4.1,15.3c-0.2-0.3-0.4-0.7-0.6-1
	c0.3-4.8,1.6-9.8,4.1-14.6C46.6,39.9,50,35.9,53.7,33z"/>
<path class="st0" d="M41.3,33.2c1.6,0,2.9,1.3,2.9,2.9s-1.3,2.9-2.9,2.9s-2.9-1.3-2.9-2.9C38.5,34.4,39.7,33.2,41.3,33.2z"/>
<path class="st0" d="M39,38.9c0.2,0.1,0.4,0.3,0.6,0.4c-2.5,3.2-3.4,7.3-2.8,11.8c1,7,5.9,14.2,13,19.2c5.9,4.1,12.5,6.3,18.5,6.6
	c-0.3,0.2-0.6,0.4-0.9,0.6c-5.9-0.4-12.3-2.6-18-6.6c-7.3-5.1-12.3-12.5-13.3-19.7C35.5,46.5,36.5,42.3,39,38.9z"/>
<path class="st0" d="M61.9,81.1c-1.8,0.5-3.5,0.8-5.1,0.8c-2.8,0-5.4-0.7-7.7-2.1c-5.7-3.4-8.9-10.2-9-18.1c0.2,0.3,0.4,0.6,0.7,1
	c0.3,7.2,3.3,13.4,8.6,16.5c3.6,2.1,7.9,2.6,12.3,1.2c4.9-1.4,9.7-4.9,13.5-9.7c0.2,0.2,0.4,0.3,0.6,0.4
	C71.9,76.1,67,79.7,61.9,81.1z"/>
<path class="st0" d="M85,70.9c-3.4,4.3-8.9,6.5-15.1,6.6c0.3-0.2,0.6-0.4,0.9-0.7c5.7-0.3,10.6-2.4,13.7-6.3c2.6-3.3,3.6-7.4,2.9-12
	c-0.4-3-1.6-6-3.3-8.9c0-0.4,0-0.9,0-1.3c2.1,3.2,3.4,6.6,4,10C88.7,63.1,87.7,67.4,85,70.9z"/>
<polygon class="st1" points="62.1,104.2 18.4,79 18.4,28.5 62.1,3.3 105.8,28.5 105.8,79 "/>
</svg>
