<?xml version="1.0" encoding="utf-8"?>
<!-- Generator: Adobe Illustrator 19.2.1, SVG Export Plug-In . SVG Version: 6.00 Build 0)  -->
<svg version="1.1" id="Layer_1" xmlns="http://www.w3.org/2000/svg" xmlns:xlink="http://www.w3.org/1999/xlink" x="0px" y="0px"
	 viewBox="0 0 406 100" style="enable-background:new 0 0 406 100;" xml:space="preserve">
<style type="text/css">
	.st0{fill:#FFFFFF;}
</style>
<polygon class="st0" points="268.5,66 279.1,66 289.8,34.8 279.2,34.8 "/>
<polygon class="st0" points="332.3,60.5 341.1,34.8 330.5,34.8 321.7,60.5 319.8,66 330.4,66 347,66 348.9,60.5 "/>
<polygon class="st0" points="91.8,34.8 87.3,47.8 77.2,47.8 81.7,34.8 71.1,34.8 60.3,66 70.9,66 75.3,53.3 85.4,53.3 81,66 
	91.6,66 102.4,34.8 "/>
<polygon class="st0" points="263.5,34.8 259,47.8 248.9,47.8 253.4,34.8 242.8,34.8 232,66 242.6,66 247,53.3 257.1,53.3 252.7,66 
	263.3,66 274.1,34.8 "/>
<path class="st0" d="M133.1,34.7h-20.7c-2.9,0-6.1,2.4-7.1,5.3l-7.1,20.7c-1,2.9,0.6,5.3,3.5,5.3h20.7c2.9,0,6.1-2.4,7.1-5.3
	l7.1-20.7C137.6,37.1,136,34.7,133.1,34.7z M119.3,59.1c-0.3,1-1.4,1.7-2.3,1.7h-6.5c-1,0-1.5-0.8-1.1-1.7l6-17.5
	c0.3-1,1.4-1.7,2.3-1.7h6.5c1,0,1.5,0.8,1.1,1.7L119.3,59.1z"/>
<g>
	<path class="st0" d="M163.2,47.8l-13.6,0c-1,0-1.5-0.8-1.1-1.7l1-2.9h-10.6l-1.6,4.5c-1,2.9,0.6,5.3,3.5,5.3l13.6,0
		c1,0,1.5,0.8,1.1,1.7l-1.5,4.4c-0.3,1-1.4,1.7-2.3,1.7H145l-12.4,0l-1.8,5.2h26c2.9,0,6.1-2.4,7.1-5.3l2.6-7.7
		C167.6,50.2,166.1,47.8,163.2,47.8z"/>
	<path class="st0" d="M139.9,39.9c1-2.9,4.2-5.2,7.1-5.2l59.6,0l-5.1,5.2h-9.9l-9,26.2h-10.6l9-26.2L139.9,39.9z"/>
</g>
<g>
	<polygon class="st0" points="315.9,53.2 317.8,47.6 300.7,47.6 302.1,43.5 291.5,43.5 290.1,47.6 288.2,53.2 285.7,60.5 283.8,66 
		294.4,66 315.3,66 317.2,60.5 296.3,60.5 298.8,53.2 	"/>
	<polygon class="st0" points="330.5,34.8 294.6,34.8 292.6,40.3 292.6,40.3 303.2,40.3 303.2,40.3 328.7,40.3 330.6,34.8 	"/>
</g>
<g>
	<path class="st0" d="M36,41.4l-6,17.5c-0.3,1,0.2,1.7,1.1,1.7h6.5c1,0,2-0.8,2.3-1.7l2.1-6h-3.6l1.9-5.5h14.2l-6.3,18.4H10.2
		c-0.2,0-0.4,0.2-0.4,0.4s0.2,0.4,0.4,0.4L23,69.2c3.7,6.1,8.3,11,14.1,14.9c0,0,19.8-7.3,27-44.4H38.3C37.3,39.7,36.3,40.4,36,41.4
		z"/>
	<path class="st0" d="M15.2,28.3c0,0-2.2,16.3,2.1,28.6c0.4,1.3,0.9,2.5,1.4,3.7l0-0.1l7.1-20.7c1-2.9,4.2-5.3,7.1-5.3h32.1
		c0.6-3.5,1.2-8.8,1.5-15.1C66.6,19.3,44.4,12.6,15.2,28.3z"/>
</g>
<path class="st0" d="M227.8,47.8l-13.6,0c-1,0-1.5-0.8-1.1-1.7l1.5-4.4c0.3-1,1.4-1.7,2.3-1.7l15.5,0l5.1-5.2h-25.9
	c-2.9,0-6.1,2.4-7.1,5.3l-2.6,7.7c-1,2.9,0.6,5.3,3.5,5.3l13.6,0c1,0,1.5,0.8,1.1,1.7l-1.5,4.4c-0.3,1-1.4,1.7-2.3,1.7l-18.9,0
	l-1.8,5.2h26c2.9,0,6.1-2.4,7.1-5.3l2.6-7.7C232.3,50.2,230.8,47.8,227.8,47.8z"/>
<path class="st0" d="M387,34.7h-0.2H361h-5.7l-1.9,5.2h5.8c0,0,0,0,0,0h10.6l0,0h8.4c0.9,0,1.4,0.8,1.1,1.7l-6,17.5
	c-0.3,1-1.4,1.7-2.3,1.7h-8.3l6.1-17.7h-10.6c-3.2,9.3-7.8,22.8-7.9,22.9h26c2.9,0,6.1-2.4,7.1-5.3l7.1-20.7
	C391.5,37,389.9,34.7,387,34.7z"/>
<g>
	<path class="st0" d="M394,38.4c0-2.5,1.6-3.9,3.9-3.9h1.5c2.4,0,4,1.4,4,3.9v1.7c0,2.5-1.6,3.8-4,3.8h-1.5c-2.3,0-3.9-1.4-3.9-3.8
		V38.4z M394.9,40.1c0,2,1,3,3,3h1.5c2,0,3-1,3-3v-1.7c0-2-1-3-3-3h-1.5c-2,0-3,1-3,3V40.1z M399.2,36.5c1.1,0,1.8,0.5,1.8,1.6v0.2
		c0,0.8-0.4,1.2-1.1,1.5l1.3,2.1h-1.3l-1.1-1.9H398V42h-1.2v-5.4H399.2z M398,37.6V39h1.2c0.4,0,0.6-0.2,0.6-0.6v-0.2
		c0-0.4-0.2-0.6-0.6-0.6H398z"/>
</g>
<g>
	<path class="st0" d="M75.8,72.2h1.1v7.2h-1l-3-4.6l-0.4-0.9l0.1,0.9v4.6h-1.1v-7.2h1.1l2.9,4.5l0.4,0.8l0-0.8V72.2z"/>
	<path class="st0" d="M78.7,74.5c0-0.4,0.1-0.8,0.5-1.1l0.9-0.9c0.2-0.2,0.6-0.4,1.1-0.4h0.7c1.3,0,2.1,0.9,2.1,2.1v5.1h-1.1v-2.6
		h-3.3v2.6h-1.1V74.5z M81.3,73.2c-0.3,0-0.4,0.1-0.5,0.2L80,74.2c-0.1,0.1-0.2,0.2-0.2,0.5v1.1h3.3v-1.5c0-0.6-0.4-1-1-1H81.3z"/>
	<path class="st0" d="M90.4,72.2h1.1v7.2h-1l-3-4.6l-0.4-0.9l0.1,0.9v4.6H86v-7.2h1.1l2.9,4.5l0.4,0.8l0-0.8V72.2z"/>
	<path class="st0" d="M98.9,77.1c0,1.6-0.9,2.4-2.4,2.4h-0.9c-1.5,0-2.4-0.8-2.4-2.4v-2.5c0-1.6,0.9-2.4,2.4-2.4h0.9
		c1.5,0,2.4,0.8,2.4,2.4V77.1z M97.8,74.5c0-0.9-0.4-1.3-1.3-1.3h-0.9c-0.8,0-1.3,0.4-1.3,1.3v2.5c0,0.9,0.4,1.3,1.3,1.3h0.9
		c0.8,0,1.3-0.4,1.3-1.3V74.5z"/>
	<path class="st0" d="M105.1,73.2h-2.3v6.2h-1.1v-6.2h-2.3v-1h5.7V73.2z"/>
	<path class="st0" d="M111.1,79.4h-4.8v-7.2h4.8v1h-3.7v2h3.1v1h-3.1v2.1h3.7V79.4z"/>
	<path class="st0" d="M114.9,79.4c-1.6,0-2.5-0.9-2.5-2.5v-2.4c0-1.5,0.8-2.3,2.3-2.3h1c1.1,0,2,0.7,2,1.8v0.3h-1.1V74
		c0-0.5-0.3-0.8-0.8-0.8h-1c-0.9,0-1.2,0.5-1.2,1.3v2.4c0,1,0.5,1.5,1.4,1.5h0.6c0.7,0,1.1-0.4,1.1-1v-0.3h1.1v0.3
		c0,1.1-0.9,2-2.2,2H114.9z"/>
	<path class="st0" d="M124.5,79.4h-1.1v-3.2h-3.2v3.2h-1.1v-7.2h1.1v3h3.2v-3h1.1V79.4z"/>
	<path class="st0" d="M130.7,72.2h1.1v7.2h-1l-3-4.6l-0.4-0.9l0.1,0.9v4.6h-1.1v-7.2h1.1l2.9,4.5l0.4,0.8l0-0.8V72.2z"/>
	<path class="st0" d="M139.1,77.1c0,1.6-0.9,2.4-2.4,2.4h-0.9c-1.5,0-2.4-0.8-2.4-2.4v-2.5c0-1.6,0.9-2.4,2.4-2.4h0.9
		c1.5,0,2.4,0.8,2.4,2.4V77.1z M138,74.5c0-0.9-0.4-1.3-1.3-1.3h-0.9c-0.8,0-1.3,0.4-1.3,1.3v2.5c0,0.9,0.4,1.3,1.3,1.3h0.9
		c0.8,0,1.3-0.4,1.3-1.3V74.5z"/>
	<path class="st0" d="M140.8,79.4v-7.2h1.1v6.2h3.4v1H140.8z"/>
	<path class="st0" d="M151.6,77.1c0,1.6-0.9,2.4-2.4,2.4h-0.9c-1.5,0-2.4-0.8-2.4-2.4v-2.5c0-1.6,0.9-2.4,2.4-2.4h0.9
		c1.5,0,2.4,0.8,2.4,2.4V77.1z M150.5,74.5c0-0.9-0.4-1.3-1.3-1.3h-0.9c-0.8,0-1.3,0.4-1.3,1.3v2.5c0,0.9,0.4,1.3,1.3,1.3h0.9
		c0.8,0,1.3-0.4,1.3-1.3V74.5z"/>
	<path class="st0" d="M158.7,77.4c0,1.2-0.8,2-2,2h-0.9c-1.6,0-2.5-0.9-2.5-2.5v-2.5c0-1.5,0.8-2.3,2.3-2.3h1.1c1.1,0,2,0.7,2,1.8
		v0.3h-1.1V74c0-0.5-0.4-0.7-0.9-0.7h-1.1c-0.9,0-1.2,0.4-1.2,1.2v2.5c0,0.9,0.4,1.4,1.4,1.4h0.9c0.6,0,0.9-0.4,0.9-1v-1.1h-1.3v-1
		h2.4V77.4z"/>
	<path class="st0" d="M162.8,76.2v3.2h-1.1v-3.2l-2.5-4h1.2l1.8,2.9l1.8-2.9h1.2L162.8,76.2z"/>
	<path class="st0" d="M169.7,74.5c0-0.4,0.1-0.8,0.5-1.1l0.9-0.9c0.2-0.2,0.6-0.4,1.1-0.4h0.7c1.3,0,2.1,0.9,2.1,2.1v5.1H174v-2.6
		h-3.3v2.6h-1.1V74.5z M172.3,73.2c-0.3,0-0.4,0.1-0.5,0.2l-0.8,0.7c-0.1,0.1-0.2,0.2-0.2,0.5v1.1h3.3v-1.5c0-0.6-0.4-1-1-1H172.3z"
		/>
	<path class="st0" d="M182.4,76.6c0,2-0.8,2.8-2.9,2.8h-2.5v-7.2h2.7c2,0,2.7,0.9,2.7,2.7V76.6z M181.2,74.9c0-1.3-0.5-1.7-1.6-1.7
		H178v5.2h1.4c1.2,0,1.8-0.4,1.8-1.8V74.9z"/>
	<path class="st0" d="M185.7,79.4l-2.5-7.2h1.2l1.6,4.7l0.4,1.6l0.4-1.6l1.6-4.7h1.2l-2.5,7.2H185.7z"/>
	<path class="st0" d="M190.5,74.5c0-0.4,0.1-0.8,0.5-1.1l0.9-0.9c0.2-0.2,0.6-0.4,1.1-0.4h0.7c1.3,0,2.1,0.9,2.1,2.1v5.1h-1.1v-2.6
		h-3.3v2.6h-1.1V74.5z M193.1,73.2c-0.3,0-0.4,0.1-0.5,0.2l-0.8,0.7c-0.1,0.1-0.2,0.2-0.2,0.5v1.1h3.3v-1.5c0-0.6-0.4-1-1-1H193.1z"
		/>
	<path class="st0" d="M202.2,72.2h1.1v7.2h-1l-3-4.6l-0.4-0.9l0.1,0.9v4.6h-1.1v-7.2h1.1l2.9,4.5l0.4,0.8l0-0.8V72.2z"/>
	<path class="st0" d="M207.5,79.4c-1.6,0-2.5-0.9-2.5-2.5v-2.4c0-1.5,0.8-2.3,2.3-2.3h1c1.1,0,2,0.7,2,1.8v0.3h-1.1V74
		c0-0.5-0.3-0.8-0.8-0.8h-1c-0.9,0-1.2,0.5-1.2,1.3v2.4c0,1,0.5,1.5,1.4,1.5h0.6c0.7,0,1.1-0.4,1.1-1v-0.3h1.1v0.3
		c0,1.1-0.9,2-2.2,2H207.5z"/>
	<path class="st0" d="M216.6,79.4h-4.8v-7.2h4.8v1h-3.7v2h3.1v1h-3.1v2.1h3.7V79.4z"/>
	<path class="st0" d="M221.2,75.5c0.9,0.3,1.5,0.9,1.5,1.9v0.1c0,1.1-0.8,1.8-2,1.8h-3v-1h3c0.5,0,0.9-0.2,0.9-0.8v-0.1
		c0-0.4-0.3-0.7-0.7-0.9l-1.9-0.7c-0.7-0.3-1.3-0.9-1.3-1.8v-0.2c0-0.9,0.7-1.7,1.9-1.7h3v1h-3c-0.5,0-0.7,0.3-0.7,0.6V74
		c0,0.3,0.2,0.7,0.6,0.8L221.2,75.5z"/>
	<path class="st0" d="M227.6,79.4v-7.2h1.1v7.2H227.6z"/>
	<path class="st0" d="M235.1,72.2h1.1v7.2h-1l-3-4.6l-0.4-0.9l0.1,0.9v4.6h-1.1v-7.2h1.1l2.9,4.5l0.4,0.8l0-0.8V72.2z"/>
	<path class="st0" d="M243.7,79.4c-1.6,0-2.5-0.9-2.5-2.5v-2.4c0-1.5,0.8-2.3,2.3-2.3h1c1.1,0,2,0.7,2,1.8v0.3h-1.1V74
		c0-0.5-0.3-0.8-0.8-0.8h-1c-0.9,0-1.2,0.5-1.2,1.3v2.4c0,1,0.5,1.5,1.4,1.5h0.6c0.7,0,1.1-0.4,1.1-1v-0.3h1.1v0.3
		c0,1.1-0.9,2-2.2,2H243.7z"/>
	<path class="st0" d="M253.5,77.1c0,1.6-0.9,2.4-2.4,2.4h-0.9c-1.5,0-2.4-0.8-2.4-2.4v-2.5c0-1.6,0.9-2.4,2.4-2.4h0.9
		c1.5,0,2.4,0.8,2.4,2.4V77.1z M252.4,74.5c0-0.9-0.4-1.3-1.3-1.3h-0.9c-0.8,0-1.3,0.4-1.3,1.3v2.5c0,0.9,0.4,1.3,1.3,1.3h0.9
		c0.8,0,1.3-0.4,1.3-1.3V74.5z"/>
	<path class="st0" d="M259.6,72.2h1.1v7.2h-1l-3-4.6l-0.4-0.9l0.1,0.9v4.6h-1.1v-7.2h1.1l2.9,4.5l0.4,0.8l0-0.8V72.2z"/>
	<path class="st0" d="M264.9,79.4c-1.6,0-2.5-0.9-2.5-2.5v-2.4c0-1.5,0.8-2.3,2.3-2.3h1c1.1,0,2,0.7,2,1.8v0.3h-1.1V74
		c0-0.5-0.3-0.8-0.8-0.8h-1c-0.9,0-1.2,0.5-1.2,1.3v2.4c0,1,0.5,1.5,1.4,1.5h0.6c0.7,0,1.1-0.4,1.1-1v-0.3h1.1v0.3
		c0,1.1-0.9,2-2.2,2H264.9z"/>
	<path class="st0" d="M272.4,72.2c1.1,0,1.9,0.7,1.9,1.9v0.5c0,0.9-0.7,1.4-1.2,1.7l1.4,3.1h-1.2l-1.3-2.9h-1.7v2.9h-1.1v-7.2H272.4
		z M270.3,73.2v2.2h2.1c0.5,0,0.8-0.3,0.8-0.8v-0.5c0-0.6-0.3-0.9-0.8-0.9H270.3z"/>
	<path class="st0" d="M280.7,79.4h-4.8v-7.2h4.8v1h-3.7v2h3.1v1h-3.1v2.1h3.7V79.4z"/>
	<path class="st0" d="M287,73.2h-2.3v6.2h-1.1v-6.2h-2.3v-1h5.7V73.2z"/>
	<path class="st0" d="M292.9,79.4h-4.8v-7.2h4.8v1h-3.7v2h3.1v1h-3.1v2.1h3.7V79.4z"/>
	<path class="st0" d="M300.8,72.2c1.1,0,1.9,0.7,1.9,1.9v0.6c0,1.4-0.9,1.9-2.1,1.9h-1.9v2.7h-1.1v-7.2H300.8z M298.8,73.2v2.4h1.9
		c0.6,0,1-0.3,1-0.9v-0.6c0-0.6-0.3-0.9-0.8-0.9H298.8z"/>
	<path class="st0" d="M307.3,72.2c1.1,0,1.9,0.7,1.9,1.9v0.5c0,0.9-0.7,1.4-1.2,1.7l1.4,3.1h-1.2l-1.3-2.9h-1.7v2.9h-1.1v-7.2H307.3
		z M305.2,73.2v2.2h2.1c0.5,0,0.8-0.3,0.8-0.8v-0.5c0-0.6-0.3-0.9-0.8-0.9H305.2z"/>
	<path class="st0" d="M316.2,77.1c0,1.6-0.9,2.4-2.4,2.4H313c-1.5,0-2.4-0.8-2.4-2.4v-2.5c0-1.6,0.9-2.4,2.4-2.4h0.9
		c1.5,0,2.4,0.8,2.4,2.4V77.1z M315.1,74.5c0-0.9-0.4-1.3-1.3-1.3H313c-0.8,0-1.3,0.4-1.3,1.3v2.5c0,0.9,0.4,1.3,1.3,1.3h0.9
		c0.8,0,1.3-0.4,1.3-1.3V74.5z"/>
	<path class="st0" d="M322.5,73.2h-2.3v6.2h-1.1v-6.2h-2.3v-1h5.7V73.2z"/>
	<path class="st0" d="M328.4,79.4h-4.8v-7.2h4.8v1h-3.7v2h3.1v1h-3.1v2.1h3.7V79.4z"/>
	<path class="st0" d="M332.3,79.4c-1.6,0-2.5-0.9-2.5-2.5v-2.4c0-1.5,0.8-2.3,2.3-2.3h1c1.1,0,2,0.7,2,1.8v0.3h-1.1V74
		c0-0.5-0.3-0.8-0.8-0.8h-1c-0.9,0-1.2,0.5-1.2,1.3v2.4c0,1,0.5,1.5,1.4,1.5h0.6c0.7,0,1.1-0.4,1.1-1v-0.3h1.1v0.3
		c0,1.1-0.9,2-2.2,2H332.3z"/>
	<path class="st0" d="M341.4,73.2h-2.3v6.2H338v-6.2h-2.3v-1h5.7V73.2z"/>
	<path class="st0" d="M342.6,79.4v-7.2h1.1v7.2H342.6z"/>
	<path class="st0" d="M351.1,77.1c0,1.6-0.9,2.4-2.4,2.4h-0.9c-1.5,0-2.4-0.8-2.4-2.4v-2.5c0-1.6,0.9-2.4,2.4-2.4h0.9
		c1.5,0,2.4,0.8,2.4,2.4V77.1z M350,74.5c0-0.9-0.4-1.3-1.3-1.3h-0.9c-0.8,0-1.3,0.4-1.3,1.3v2.5c0,0.9,0.4,1.3,1.3,1.3h0.9
		c0.8,0,1.3-0.4,1.3-1.3V74.5z"/>
	<path class="st0" d="M357.2,72.2h1.1v7.2h-1l-3-4.6l-0.4-0.9l0.1,0.9v4.6h-1.1v-7.2h1.1l2.9,4.5l0.4,0.8l0-0.8V72.2z"/>
	<path class="st0" d="M362.5,72.8h-0.9v2.3h-0.7v-2.3H360v-0.6h2.5V72.8z M365.9,75.1h-0.7v-1.9l-0.6,0.6h-0.3l-0.5-0.6v1.9H363
		v-2.9h0.6l0.8,0.9l0.9-0.9h0.6V75.1z"/>
</g>
</svg>
