<?xml version="1.0" encoding="utf-8"?>
<!-- Generator: Adobe Illustrator 19.2.1, SVG Export Plug-In . SVG Version: 6.00 Build 0)  -->
<svg version="1.1" id="Layer_1" xmlns="http://www.w3.org/2000/svg" xmlns:xlink="http://www.w3.org/1999/xlink" x="0px" y="0px"
	 viewBox="0 0 15.8 15.8" style="enable-background:new 0 0 15.8 15.8;" xml:space="preserve">
<style type="text/css">
	.st0{fill:#EF4136;}
</style>
<path class="st0" d="M7.9,1.1c-3.8,0-6.8,3.1-6.8,6.8s3.1,6.8,6.8,6.8s6.8-3.1,6.8-6.8S11.7,1.1,7.9,1.1z M2.8,7.9
	c0-2.8,2.3-5.1,5.1-5.1c1,0,2,0.3,2.8,0.8l-7.1,7.1C3.1,9.9,2.8,8.9,2.8,7.9z M7.9,13c-1,0-2-0.3-2.8-0.8l7.1-7.1
	C12.7,5.9,13,6.8,13,7.9C13,10.7,10.7,13,7.9,13z"/>
</svg>
