<?xml version="1.0" encoding="utf-8"?>
<!-- Generator: Adobe Illustrator 23.0.3, SVG Export Plug-In . SVG Version: 6.00 Build 0)  -->
<svg version="1.1" id="Layer_1" xmlns="http://www.w3.org/2000/svg" xmlns:xlink="http://www.w3.org/1999/xlink" x="0px" y="0px"
	 viewBox="0 0 221.6 249.6" style="enable-background:new 0 0 221.6 249.6;" xml:space="preserve">
<style type="text/css">
	.st0{fill:#FFFFFF;}
</style>
<g>
	<g>
		<g>
			<path class="st0" d="M212.7,56l-93-53.7c-5.8-3.1-12.4-3.1-18.2,0L8.9,55.5C3.1,58.6,0,64.8,0,71v106.8c0,6.6,3.5,12.4,8.9,15.5
				l93.1,53.6c5.3,3.5,12.4,3.5,17.7,0l93.1-53.2c5.8-3.1,8.9-9.3,8.9-15.5V71.5C221.6,64.8,218.1,59.1,212.7,56z M208.3,173.3
				c0,5.3-2.7,9.8-7.1,12.4l-83.3,47.9c-4.4,2.2-9.8,2.2-14.2,0l-83.3-47.9c-4.4-2.7-7.1-7.1-7.1-12.4V77.1c0-5.3,2.7-9.8,7.1-12.4
				l83.3-48.3c4.4-2.7,9.8-2.7,14.2,0l83.3,48.3c4.4,2.7,7.1,7.1,7.1,12.4V173.3z"/>
		</g>
	</g>
</g>
<polygon class="st0" points="84,162.7 84,86.9 159.7,124.8 "/>
</svg>
