<?xml version="1.0" encoding="utf-8"?>
<!-- Generator: Adobe Illustrator 19.2.1, SVG Export Plug-In . SVG Version: 6.00 Build 0)  -->
<svg version="1.1" id="Layer_1" xmlns="http://www.w3.org/2000/svg" xmlns:xlink="http://www.w3.org/1999/xlink" x="0px" y="0px"
	 viewBox="0 0 1777.3 492" style="enable-background:new 0 0 1777.3 492;" xml:space="preserve">
<style type="text/css">
	.st0{fill:#FFFFFF;}
</style>
<g>
	<g>
		<rect x="126.8" y="486.8" class="st0" width="82.2" height="1"/>
	</g>
	<g>
		
			<rect x="126.7" y="482.8" transform="matrix(0.9997 -2.635553e-02 2.635553e-02 0.9997 -12.6839 4.294)" class="st0" width="59.7" height="1"/>
	</g>
	<g>
		
			<rect x="126.6" y="478.7" transform="matrix(0.9986 -5.276471e-02 5.276471e-02 0.9986 -25.0667 8.9225)" class="st0" width="59.7" height="1"/>
	</g>
	<g>
		
			<rect x="126.3" y="474.7" transform="matrix(0.9968 -7.965175e-02 7.965175e-02 0.9968 -37.3535 13.9472)" class="st0" width="59.7" height="1"/>
	</g>
	<g>
		
			<rect x="125.9" y="470.7" transform="matrix(0.9943 -0.1065 0.1065 0.9943 -49.2972 19.2673)" class="st0" width="59.7" height="1"/>
	</g>
	<g>
		
			<rect x="125.5" y="466.7" transform="matrix(0.9913 -0.1318 0.1318 0.9913 -60.2213 24.5506)" class="st0" width="59.7" height="1"/>
	</g>
	<g>
		
			<rect x="124.9" y="462.8" transform="matrix(0.9874 -0.1581 0.1581 0.9874 -71.3017 30.2934)" class="st0" width="59.7" height="1"/>
	</g>
	<g>
		
			<rect x="124.2" y="458.9" transform="matrix(0.9828 -0.1846 0.1846 0.9828 -82.1571 36.3327)" class="st0" width="59.7" height="1"/>
	</g>
	<g>
		
			<rect x="123.4" y="455" transform="matrix(0.9777 -0.2098 0.2098 0.9777 -92.1528 42.2896)" class="st0" width="59.7" height="1"/>
	</g>
	<g>
		
			<rect x="122.6" y="451.2" transform="matrix(0.9719 -0.2352 0.2352 0.9719 -101.9625 48.5293)" class="st0" width="59.7" height="1"/>
	</g>
	<g>
		
			<rect x="121.6" y="447.4" transform="matrix(0.9654 -0.2609 0.2609 0.9654 -111.6116 55.0261)" class="st0" width="59.7" height="1"/>
	</g>
	<g>
		
			<rect x="120.5" y="443.7" transform="matrix(0.9583 -0.2859 0.2859 0.9583 -120.7214 61.5251)" class="st0" width="59.7" height="1"/>
	</g>
	<g>
		<rect x="119.4" y="440" transform="matrix(0.9506 -0.3104 0.3104 0.9506 -129.36 68.0888)" class="st0" width="59.7" height="1"/>
	</g>
	<g>
		
			<rect x="118.1" y="436.3" transform="matrix(0.942 -0.3357 0.3357 0.942 -138.0493 75.0165)" class="st0" width="59.7" height="1"/>
	</g>
	<g>
		
			<rect x="116.8" y="432.7" transform="matrix(0.9333 -0.3592 0.3592 0.9333 -145.8174 81.5883)" class="st0" width="59.7" height="1"/>
	</g>
	<g>
		
			<rect x="115.3" y="429.1" transform="matrix(0.9235 -0.3836 0.3836 0.9235 -153.6893 88.5406)" class="st0" width="59.7" height="1"/>
	</g>
	<g>
		
			<rect x="113.3" y="423.1" transform="matrix(0.9138 -0.4061 0.4061 0.9138 -159.1494 97.1756)" class="st0" width="72.2" height="1"/>
	</g>
	<g>
		
			<rect x="112.2" y="422.1" transform="matrix(0.9025 -0.4307 0.4307 0.9025 -168.1625 102.3858)" class="st0" width="59.7" height="1"/>
	</g>
	<g>
		
			<rect x="110.5" y="418.6" transform="matrix(0.8913 -0.4535 0.4535 0.8913 -174.7978 109.2234)" class="st0" width="59.7" height="1"/>
	</g>
	<g>
		
			<rect x="108.7" y="415.3" transform="matrix(0.8795 -0.4759 0.4759 0.8795 -181.1882 116.0421)" class="st0" width="59.7" height="1"/>
	</g>
	<g>
		
			<rect x="106.9" y="411.9" transform="matrix(0.8672 -0.498 0.498 0.8672 -187.2045 122.8753)" class="st0" width="59.7" height="1"/>
	</g>
	<g>
		
			<rect x="104.9" y="408.6" transform="matrix(0.8542 -0.5199 0.5199 0.8542 -193.0429 129.6824)" class="st0" width="59.7" height="1"/>
	</g>
	<g>
		
			<rect x="102.9" y="405.4" transform="matrix(0.8407 -0.5415 0.5415 0.8407 -198.6439 136.5368)" class="st0" width="59.7" height="1"/>
	</g>
	<g>
		
			<rect x="100.8" y="402.2" transform="matrix(0.8266 -0.5628 0.5628 0.8266 -203.9774 143.3585)" class="st0" width="59.7" height="1"/>
	</g>
	<g>
		
			<rect x="98.6" y="399.1" transform="matrix(0.8125 -0.583 0.583 0.8125 -208.8789 149.8175)" class="st0" width="59.7" height="1"/>
	</g>
	<g>
		
			<rect x="96.4" y="396.1" transform="matrix(0.7972 -0.6037 0.6037 0.7972 -213.8208 156.6507)" class="st0" width="59.7" height="1"/>
	</g>
	<g>
		
			<rect x="94" y="393.1" transform="matrix(0.7818 -0.6235 0.6235 0.7818 -218.399 163.1033)" class="st0" width="59.7" height="1"/>
	</g>
	<g>
		
			<rect x="91.6" y="390.1" transform="matrix(0.766 -0.6429 0.6429 0.766 -222.6963 169.4924)" class="st0" width="59.7" height="1"/>
	</g>
	<g>
		
			<rect x="89.2" y="387.2" transform="matrix(0.7502 -0.6613 0.6613 0.7502 -226.6183 175.5997)" class="st0" width="59.7" height="1"/>
	</g>
	<g>
		
			<rect x="86.6" y="384.4" transform="matrix(0.733 -0.6802 0.6802 0.733 -230.7151 181.9515)" class="st0" width="59.7" height="1"/>
	</g>
	<g>
		
			<rect x="84" y="381.7" transform="matrix(0.7163 -0.6978 0.6978 0.7163 -234.3963 187.8919)" class="st0" width="59.7" height="1"/>
	</g>
	<g>
		
			<rect x="40.4" y="385.3" transform="matrix(0.7027 -0.7115 0.7115 0.7027 -243.2631 189.435)" class="st0" width="129.2" height="1"/>
	</g>
	<g>
		
			<rect x="78.6" y="376.3" transform="matrix(0.6797 -0.7335 0.7335 0.6797 -241.6703 200.2231)" class="st0" width="59.7" height="1"/>
	</g>
	<g>
		
			<rect x="75.8" y="373.8" transform="matrix(0.6618 -0.7497 0.7497 0.6618 -244.8424 205.7949)" class="st0" width="59.7" height="1"/>
	</g>
	<g>
		
			<rect x="72.9" y="371.4" transform="matrix(0.6424 -0.7664 0.7664 0.6424 -248.2659 211.7752)" class="st0" width="59.7" height="1"/>
	</g>
	<g>
		<rect x="70" y="368.9" transform="matrix(0.623 -0.7822 0.7822 0.623 -251.3217 217.3422)" class="st0" width="59.7" height="1"/>
	</g>
	<g>
		
			<rect x="66.9" y="366.6" transform="matrix(0.6033 -0.7975 0.7975 0.6033 -254.3865 222.8115)" class="st0" width="59.7" height="1"/>
	</g>
	<g>
		
			<rect x="63.9" y="364.4" transform="matrix(0.5836 -0.812 0.812 0.5836 -257.2457 228.0648)" class="st0" width="59.7" height="1"/>
	</g>
	<g>
		
			<rect x="60.8" y="362.2" transform="matrix(0.5623 -0.8269 0.8269 0.5623 -260.2039 233.6967)" class="st0" width="59.7" height="1"/>
	</g>
	<g>
		
			<rect x="57.6" y="360.1" transform="matrix(0.5411 -0.841 0.841 0.5411 -263.1101 239.049)" class="st0" width="59.7" height="1"/>
	</g>
	<g>
		<rect x="54.4" y="358" transform="matrix(0.5195 -0.8545 0.8545 0.5195 -265.8866 244.24)" class="st0" width="59.7" height="1"/>
	</g>
	<g>
		
			<rect x="51.1" y="356.1" transform="matrix(0.498 -0.8672 0.8672 0.498 -268.5645 249.1945)" class="st0" width="59.7" height="1"/>
	</g>
	<g>
		
			<rect x="47.8" y="354.3" transform="matrix(0.4763 -0.8793 0.8793 0.4763 -271.2517 254.0986)" class="st0" width="59.7" height="1"/>
	</g>
	<g>
		
			<rect x="44.4" y="352.5" transform="matrix(0.4531 -0.8915 0.8915 0.4531 -274.0349 259.2578)" class="st0" width="59.7" height="1"/>
	</g>
	<g>
		
			<rect x="40.9" y="350.8" transform="matrix(0.4299 -0.9029 0.9029 0.4299 -276.8508 264.1714)" class="st0" width="59.7" height="1"/>
	</g>
	<g>
		
			<rect x="37.4" y="349.2" transform="matrix(0.4065 -0.9137 0.9137 0.4065 -279.6245 269.0332)" class="st0" width="59.7" height="1"/>
	</g>
	<g>
		
			<rect x="30.5" y="342.5" transform="matrix(0.3868 -0.9222 0.9222 0.3868 -275.8781 271.2203)" class="st0" width="70.9" height="1"/>
	</g>
	<g>
		
			<rect x="30.4" y="346.2" transform="matrix(0.3596 -0.9331 0.9331 0.3596 -284.9861 278.2508)" class="st0" width="59.7" height="1"/>
	</g>
	<g>
		
			<rect x="26.7" y="344.9" transform="matrix(0.3358 -0.9419 0.9419 0.3358 -287.7808 282.6313)" class="st0" width="59.7" height="1"/>
	</g>
	<g>
		
			<rect x="23.1" y="343.7" transform="matrix(0.3107 -0.9505 0.9505 0.3107 -290.6566 287.5188)" class="st0" width="59.7" height="1"/>
	</g>
	<g>
		
			<rect x="19.3" y="342.5" transform="matrix(0.2853 -0.9584 0.9584 0.2853 -293.6458 292.2278)" class="st0" width="59.7" height="1"/>
	</g>
	<g>
		
			<rect x="15.6" y="341.4" transform="matrix(0.2617 -0.9652 0.9652 0.2617 -296.3964 296.2627)" class="st0" width="59.7" height="1"/>
	</g>
	<g>
		
			<rect x="11.8" y="340.5" transform="matrix(0.2363 -0.9717 0.9717 0.2363 -299.4949 300.8598)" class="st0" width="59.7" height="1"/>
	</g>
	<g>
		
			<rect x="8" y="339.5" transform="matrix(0.2109 -0.9775 0.9775 0.2109 -302.5208 305.2454)" class="st0" width="59.7" height="1"/>
	</g>
	<g>
		
			<rect x="4.1" y="338.8" transform="matrix(0.1837 -0.983 0.983 0.1837 -305.7933 310.3392)" class="st0" width="59.7" height="1"/>
	</g>
	<g>
		
			<rect x="0.2" y="338.1" transform="matrix(0.1582 -0.9874 0.9874 0.1582 -309.0441 314.6398)" class="st0" width="59.7" height="1"/>
	</g>
	<g>
		
			<rect x="-3.8" y="337.5" transform="matrix(0.1328 -0.9911 0.9911 0.1328 -312.4333 318.9188)" class="st0" width="59.7" height="1"/>
	</g>
	<g>
		
			<rect x="-7.7" y="337.1" transform="matrix(0.1055 -0.9944 0.9944 0.1055 -315.8666 324.0374)" class="st0" width="59.7" height="1"/>
	</g>
	<g>
		
			<rect x="-11.7" y="336.7" transform="matrix(8.005412e-02 -0.9968 0.9968 8.005412e-02 -319.4264 328.308)" class="st0" width="59.7" height="1"/>
	</g>
	<g>
		
			<rect x="-15.8" y="336.5" transform="matrix(5.271356e-02 -0.9986 0.9986 5.271356e-02 -323.1526 333.2491)" class="st0" width="59.7" height="1"/>
	</g>
	<g>
		
			<rect x="-19.8" y="336.3" transform="matrix(2.733497e-02 -0.9996 0.9996 2.733497e-02 -326.8134 337.6285)" class="st0" width="59.7" height="1"/>
	</g>
	<g>
		<rect x="5.5" y="285" class="st0" width="1" height="81.5"/>
	</g>
</g>
</svg>
