<?xml version="1.0" encoding="utf-8"?>
<!-- Generator: Adobe Illustrator 19.2.1, SVG Export Plug-In . SVG Version: 6.00 Build 0)  -->
<svg version="1.1" id="Layer_1" xmlns="http://www.w3.org/2000/svg" xmlns:xlink="http://www.w3.org/1999/xlink" x="0px" y="0px"
	 viewBox="0 0 1777.3 492" style="enable-background:new 0 0 1777.3 492;" xml:space="preserve">
<style type="text/css">
	.st0{fill:#FFFFFF;}
	.st1{fill:#FFFFFF;stroke:#FFFFFF;stroke-miterlimit:10;}
</style>
<g>
	<g>
		<polygon class="st0" points="733.4,122.2 732.4,122.2 732.4,71.9 776.2,46.6 819.7,71.8 819.2,72.6 776.2,47.8 733.4,72.5 		"/>
	</g>
	<g>
		<path class="st1" d="M819.2,72.2"/>
	</g>
	<g>
		<rect x="775.4" y="0.6" class="st0" width="1" height="46.6"/>
	</g>
	<g>
		<path class="st1" d="M776.5,1.4"/>
	</g>
	<g>
		<rect x="799.2" y="33.5" transform="matrix(0.5 -0.866 0.866 0.5 351.3013 720.5438)" class="st0" width="1" height="45"/>
	</g>
	<g>
		<polygon class="st0" points="689.3,147.9 645.5,122.6 645.5,72 689.3,46.7 732.8,71.9 732.3,72.7 689.3,47.9 646.5,72.6 
			646.5,122 689.3,146.7 732.3,121.9 732.8,122.7 		"/>
	</g>
	<g>
		<rect x="647.2" y="63.2" transform="matrix(0.8661 -0.4999 0.4999 0.8661 57.8393 343.3131)" class="st0" width="45" height="1"/>
	</g>
</g>
<g>
	<g>
		<g>
			<polygon class="st0" points="644.8,488.8 601.3,463.7 601.3,413.1 601.5,413 644.8,388 645.3,388.8 602.3,413.7 602.3,463.1 
				645.3,488 			"/>
		</g>
		<g>
			<rect x="578.8" y="376" transform="matrix(0.5 -0.866 0.866 0.5 -57.6118 702.1576)" class="st0" width="1" height="50"/>
		</g>
		<g>
			<rect x="643.9" y="338.4" class="st0" width="1" height="50"/>
		</g>
		<g>
			<path class="st1" d="M601.4,413.4"/>
		</g>
		<g>
			<polygon class="st0" points="558.1,489 514.3,463.7 514.3,413.1 514.5,413 557.8,388 558.3,388.8 515.3,413.7 515.3,463.1 
				558.1,487.8 601.1,463 601.6,463.8 			"/>
		</g>
		<g>
			
				<rect x="468.2" y="475.4" transform="matrix(0.8658 -0.5003 0.5003 0.8658 -171.9243 310.6258)" class="st0" width="50" height="1"/>
		</g>
		<g>
			<rect x="491.8" y="376" transform="matrix(0.5 -0.866 0.866 0.5 -101.1108 626.8182)" class="st0" width="1" height="50"/>
		</g>
		<g>
			<rect x="519.8" y="416" class="st0" width="1" height="45"/>
		</g>
		<g>
			
				<rect x="640.9" y="325.4" transform="matrix(0.8658 -0.5003 0.5003 0.8658 -73.7102 376.904)" class="st0" width="50" height="1"/>
		</g>
	</g>
	<g>
		<path class="st0" d="M699.5,311.3c0,2.2-1.4,4.3-4.2,4.3s-4.2-2.1-4.2-4.4s1.4-4.3,4.2-4.3C698.1,307,699.5,309,699.5,311.3z
			 M691.7,311.3c0,1.9,1.2,3.7,3.6,3.7s3.6-1.8,3.6-3.7c0-1.9-1.2-3.7-3.6-3.7S691.7,309.3,691.7,311.3z"/>
	</g>
</g>
<g>
	<path class="st0" d="M828.6,69.1c-0.6-1-1.6-1.1-2.5-1.1c-1,0-2.5,0.4-2.5,1.7c0,1.1,1.2,1.3,2.6,1.6c1.6,0.3,3.3,0.6,3.3,2.4
		c0,1.9-1.9,2.4-3.3,2.4c-1.3,0-2.8-0.5-3.4-1.8l0.6-0.3c0.5,1,1.8,1.5,2.9,1.5s2.7-0.3,2.7-1.8c0-1.3-1.4-1.5-2.8-1.8
		c-1.5-0.3-3.1-0.6-3.1-2.2c0-1.8,1.8-2.3,3.2-2.3c1.2,0,2.2,0.2,3.1,1.4L828.6,69.1z"/>
</g>
<g>
	<path class="st0" d="M832.8,68.2c0,0.6-0.9,0.6-0.9,0C831.8,67.6,832.8,67.6,832.8,68.2z M832,70.1v5.8h0.6v-5.8H832z"/>
</g>
</svg>
