<?xml version="1.0" encoding="utf-8"?>
<!-- Generator: Adobe Illustrator 19.2.1, SVG Export Plug-In . SVG Version: 6.00 Build 0)  -->
<svg version="1.1" id="Layer_1" xmlns="http://www.w3.org/2000/svg" xmlns:xlink="http://www.w3.org/1999/xlink" x="0px" y="0px"
	 viewBox="0 0 1777.3 492" style="enable-background:new 0 0 1777.3 492;" xml:space="preserve">
<style type="text/css">
	.st0{fill:#FFFFFF;}
</style>
<g>
	<g>
		<rect x="926.5" y="0.3" class="st0" width="1" height="27.7"/>
	</g>
	<g>
		<rect x="932.1" y="0.3" class="st0" width="1" height="21"/>
	</g>
	<g>
		<rect x="937.7" y="0.3" class="st0" width="1" height="21"/>
	</g>
	<g>
		<rect x="943.3" y="0.3" class="st0" width="1" height="21"/>
	</g>
	<g>
		<rect x="949" y="0.3" class="st0" width="1" height="21"/>
	</g>
	<g>
		<rect x="954.6" y="0.3" class="st0" width="1" height="21"/>
	</g>
	<g>
		<rect x="960.2" y="0.3" class="st0" width="1" height="21"/>
	</g>
	<g>
		<rect x="965.8" y="0.3" class="st0" width="1" height="21"/>
	</g>
	<g>
		<rect x="971.4" y="0.3" class="st0" width="1" height="21"/>
	</g>
	<g>
		<rect x="977" y="0.3" class="st0" width="1" height="21"/>
	</g>
	<g>
		<rect x="982.6" y="0.3" class="st0" width="1" height="27.7"/>
	</g>
	<g>
		<rect x="988.2" y="0.3" class="st0" width="1" height="21"/>
	</g>
	<g>
		<rect x="993.9" y="0.3" class="st0" width="1" height="21"/>
	</g>
	<g>
		<rect x="999.5" y="0.3" class="st0" width="1" height="21"/>
	</g>
	<g>
		<rect x="1005.1" y="0.3" class="st0" width="1" height="21"/>
	</g>
	<g>
		<rect x="1010.7" y="0.3" class="st0" width="1" height="21"/>
	</g>
	<g>
		<rect x="1016.3" y="0.3" class="st0" width="1" height="21"/>
	</g>
	<g>
		<rect x="1021.9" y="0.3" class="st0" width="1" height="21"/>
	</g>
	<g>
		<rect x="1027.5" y="0.3" class="st0" width="1" height="21"/>
	</g>
	<g>
		<rect x="1033.1" y="0.3" class="st0" width="1" height="21"/>
	</g>
	<g>
		<rect x="1038.8" y="0.3" class="st0" width="1" height="27.7"/>
	</g>
	<g>
		<rect x="1044.4" y="0.3" class="st0" width="1" height="21"/>
	</g>
	<g>
		<rect x="1050" y="0.3" class="st0" width="1" height="21"/>
	</g>
	<g>
		<rect x="1055.6" y="0.3" class="st0" width="1" height="21"/>
	</g>
	<g>
		<rect x="1061.2" y="0.3" class="st0" width="1" height="21"/>
	</g>
	<g>
		<rect x="1066.8" y="0.3" class="st0" width="1" height="21"/>
	</g>
	<g>
		<rect x="1072.4" y="0.3" class="st0" width="1" height="21"/>
	</g>
	<g>
		<rect x="1078.1" y="0.3" class="st0" width="1" height="21"/>
	</g>
	<g>
		<rect x="1083.7" y="0.3" class="st0" width="1" height="21"/>
	</g>
	<g>
		<rect x="1089.3" y="0.3" class="st0" width="1" height="21"/>
	</g>
	<g>
		<rect x="1094.9" y="0.3" class="st0" width="1" height="27.7"/>
	</g>
	<g>
		<rect x="1100.5" y="0.3" class="st0" width="1" height="21"/>
	</g>
	<g>
		<rect x="1106.1" y="0.3" class="st0" width="1" height="21"/>
	</g>
	<g>
		<rect x="1111.7" y="0.3" class="st0" width="1" height="21"/>
	</g>
	<g>
		<rect x="1117.3" y="0.3" class="st0" width="1" height="21"/>
	</g>
	<g>
		<rect x="1123" y="0.3" class="st0" width="1" height="21"/>
	</g>
	<g>
		<rect x="1128.6" y="0.3" class="st0" width="1" height="21"/>
	</g>
	<g>
		<rect x="1134.2" y="0.3" class="st0" width="1" height="21"/>
	</g>
	<g>
		<rect x="1139.8" y="0.3" class="st0" width="1" height="21"/>
	</g>
	<g>
		<rect x="1145.4" y="0.3" class="st0" width="1" height="21"/>
	</g>
	<g>
		<rect x="1151" y="0.3" class="st0" width="1" height="27.7"/>
	</g>
	<g>
		<rect x="1156.6" y="0.3" class="st0" width="1" height="21"/>
	</g>
	<g>
		<rect x="1162.2" y="0.3" class="st0" width="1" height="21"/>
	</g>
	<g>
		<rect x="1167.9" y="0.3" class="st0" width="1" height="21"/>
	</g>
	<g>
		<rect x="1173.5" y="0.3" class="st0" width="1" height="21"/>
	</g>
	<g>
		<rect x="1179.1" y="0.3" class="st0" width="1" height="21"/>
	</g>
	<g>
		<rect x="1184.7" y="0.3" class="st0" width="1" height="21"/>
	</g>
	<g>
		<rect x="1190.3" y="0.3" class="st0" width="1" height="21"/>
	</g>
	<g>
		<rect x="1195.9" y="0.3" class="st0" width="1" height="21"/>
	</g>
	<g>
		<rect x="1201.5" y="0.3" class="st0" width="1" height="21"/>
	</g>
	<g>
		<rect x="1207.2" y="0.3" class="st0" width="1" height="27.7"/>
	</g>
	<g>
		<rect x="1212.8" y="0.3" class="st0" width="1" height="21"/>
	</g>
	<g>
		<rect x="1218.4" y="0.3" class="st0" width="1" height="21"/>
	</g>
	<g>
		<rect x="1224" y="0.3" class="st0" width="1" height="21"/>
	</g>
	<g>
		<rect x="1229.6" y="0.3" class="st0" width="1" height="21"/>
	</g>
	<g>
		<rect x="1235.2" y="0.3" class="st0" width="1" height="21"/>
	</g>
	<g>
		<rect x="1240.8" y="0.3" class="st0" width="1" height="21"/>
	</g>
	<g>
		<rect x="1246.4" y="0.3" class="st0" width="1" height="21"/>
	</g>
	<g>
		<rect x="1252.1" y="0.3" class="st0" width="1" height="21"/>
	</g>
	<g>
		<rect x="1257.7" y="0.3" class="st0" width="1" height="21"/>
	</g>
	<g>
		<rect x="1263.3" y="0.3" class="st0" width="1" height="27.7"/>
	</g>
	<g>
		<rect x="1268.9" y="0.3" class="st0" width="1" height="21"/>
	</g>
	<g>
		<rect x="1274.5" y="0.3" class="st0" width="1" height="21"/>
	</g>
	<g>
		<rect x="1280.1" y="0.3" class="st0" width="1" height="21"/>
	</g>
	<g>
		<rect x="1285.7" y="0.3" class="st0" width="1" height="21"/>
	</g>
	<g>
		<rect x="1291.3" y="0.3" class="st0" width="1" height="21"/>
	</g>
	<g>
		<rect x="1297" y="0.3" class="st0" width="1" height="21"/>
	</g>
	<g>
		<rect x="1302.6" y="0.3" class="st0" width="1" height="21"/>
	</g>
	<g>
		<rect x="1308.2" y="0.3" class="st0" width="1" height="21"/>
	</g>
	<g>
		<rect x="1313.8" y="0.3" class="st0" width="1" height="21"/>
	</g>
	<g>
		<rect x="1319.4" y="0.3" class="st0" width="1" height="27.7"/>
	</g>
	<g>
		<rect x="1325" y="0.3" class="st0" width="1" height="21"/>
	</g>
	<g>
		<rect x="1330.6" y="0.3" class="st0" width="1" height="21"/>
	</g>
	<g>
		<rect x="1336.3" y="0.3" class="st0" width="1" height="21"/>
	</g>
	<g>
		<rect x="1341.9" y="0.3" class="st0" width="1" height="21"/>
	</g>
	<g>
		<rect x="1347.5" y="0.3" class="st0" width="1" height="21"/>
	</g>
	<g>
		<rect x="1353.1" y="0.3" class="st0" width="1" height="21"/>
	</g>
	<g>
		<rect x="1358.7" y="0.3" class="st0" width="1" height="21"/>
	</g>
	<g>
		<rect x="1364.3" y="0.3" class="st0" width="1" height="21"/>
	</g>
	<g>
		<rect x="1369.9" y="0.3" class="st0" width="1" height="21"/>
	</g>
	<g>
		<rect x="1375.5" y="0.3" class="st0" width="1" height="27.7"/>
	</g>
	<g>
		<rect x="1381.2" y="0.3" class="st0" width="1" height="21"/>
	</g>
	<g>
		<rect x="1386.8" y="0.3" class="st0" width="1" height="21"/>
	</g>
	<g>
		<rect x="1392.4" y="0.3" class="st0" width="1" height="21"/>
	</g>
	<g>
		<rect x="1398" y="0.3" class="st0" width="1" height="21"/>
	</g>
	<g>
		<rect x="1403.6" y="0.3" class="st0" width="1" height="21"/>
	</g>
	<g>
		<rect x="1409.2" y="0.3" class="st0" width="1" height="21"/>
	</g>
	<g>
		<rect x="1414.8" y="0.3" class="st0" width="1" height="21"/>
	</g>
	<g>
		<rect x="1420.4" y="0.3" class="st0" width="1" height="21"/>
	</g>
	<g>
		<rect x="1426.1" y="0.3" class="st0" width="1" height="21"/>
	</g>
	<g>
		<rect x="1431.7" y="0.3" class="st0" width="1" height="27.7"/>
	</g>
	<g>
		<rect x="1437.3" y="0.3" class="st0" width="1" height="21"/>
	</g>
	<g>
		<rect x="1442.9" y="0.3" class="st0" width="1" height="21"/>
	</g>
	<g>
		<rect x="1448.5" y="0.3" class="st0" width="1" height="21"/>
	</g>
	<g>
		<rect x="1454.1" y="0.3" class="st0" width="1" height="21"/>
	</g>
	<g>
		<rect x="1459.7" y="0.3" class="st0" width="1" height="21"/>
	</g>
	<g>
		<rect x="1465.4" y="0.3" class="st0" width="1" height="21"/>
	</g>
	<g>
		<rect x="1471" y="0.3" class="st0" width="1" height="21"/>
	</g>
	<g>
		<rect x="1476.6" y="0.3" class="st0" width="1" height="21"/>
	</g>
	<g>
		<rect x="1482.2" y="0.3" class="st0" width="1" height="21"/>
	</g>
	<g>
		<rect x="1487.8" y="0.3" class="st0" width="1" height="27.7"/>
	</g>
	<g>
		<rect x="1493.4" y="0.3" class="st0" width="1" height="21"/>
	</g>
	<g>
		<rect x="1499" y="0.3" class="st0" width="1" height="21"/>
	</g>
	<g>
		<rect x="1504.6" y="0.3" class="st0" width="1" height="21"/>
	</g>
	<g>
		<rect x="1510.3" y="0.3" class="st0" width="1" height="21"/>
	</g>
	<g>
		<rect x="1515.9" y="0.3" class="st0" width="1" height="21"/>
	</g>
	<g>
		<rect x="1521.5" y="0.3" class="st0" width="1" height="21"/>
	</g>
	<g>
		<rect x="1527.1" y="0.3" class="st0" width="1" height="21"/>
	</g>
	<g>
		<rect x="1532.7" y="0.3" class="st0" width="1" height="21"/>
	</g>
	<g>
		<rect x="1538.3" y="0.3" class="st0" width="1" height="21"/>
	</g>
	<g>
		<rect x="1543.9" y="0.3" class="st0" width="1" height="27.7"/>
	</g>
	<g>
		<rect x="1549.5" y="0.3" class="st0" width="1" height="21"/>
	</g>
	<g>
		<rect x="1555.2" y="0.3" class="st0" width="1" height="21"/>
	</g>
	<g>
		<rect x="1560.8" y="0.3" class="st0" width="1" height="21"/>
	</g>
	<g>
		<rect x="1566.4" y="0.3" class="st0" width="1" height="21"/>
	</g>
	<g>
		<rect x="1572" y="0.3" class="st0" width="1" height="21"/>
	</g>
	<g>
		<rect x="1577.6" y="0.3" class="st0" width="1" height="21"/>
	</g>
	<g>
		<rect x="1583.2" y="0.3" class="st0" width="1" height="21"/>
	</g>
	<g>
		<rect x="1588.8" y="0.3" class="st0" width="1" height="21"/>
	</g>
	<g>
		<rect x="1594.5" y="0.3" class="st0" width="1" height="21"/>
	</g>
	<g>
		<rect x="1600.1" y="0.3" class="st0" width="1" height="27.7"/>
	</g>
	<g>
		<rect x="1605.7" y="0.3" class="st0" width="1" height="21"/>
	</g>
	<g>
		<rect x="1611.3" y="0.3" class="st0" width="1" height="21"/>
	</g>
	<g>
		<rect x="1616.9" y="0.3" class="st0" width="1" height="21"/>
	</g>
	<g>
		<rect x="1622.5" y="0.3" class="st0" width="1" height="21"/>
	</g>
	<g>
		<rect x="1628.1" y="0.3" class="st0" width="1" height="21"/>
	</g>
	<g>
		<rect x="1633.7" y="0.3" class="st0" width="1" height="21"/>
	</g>
	<g>
		<rect x="1639.4" y="0.3" class="st0" width="1" height="21"/>
	</g>
	<g>
		<rect x="1645" y="0.3" class="st0" width="1" height="21"/>
	</g>
	<g>
		<rect x="1650.6" y="0.3" class="st0" width="1" height="21"/>
	</g>
	<g>
		<rect x="1656.2" y="0.3" class="st0" width="1" height="27.7"/>
	</g>
	<g>
		<rect x="1661.8" y="0.3" class="st0" width="1" height="21"/>
	</g>
	<g>
		<rect x="1667.4" y="0.3" class="st0" width="1" height="21"/>
	</g>
	<g>
		<rect x="1673" y="0.3" class="st0" width="1" height="21"/>
	</g>
	<g>
		<rect x="1678.6" y="0.3" class="st0" width="1" height="21"/>
	</g>
	<g>
		<rect x="1684.3" y="0.3" class="st0" width="1" height="21"/>
	</g>
	<g>
		<rect x="1689.9" y="0.3" class="st0" width="1" height="21"/>
	</g>
	<g>
		<rect x="1695.5" y="0.3" class="st0" width="1" height="21"/>
	</g>
	<g>
		<rect x="1701.1" y="0.3" class="st0" width="1" height="21"/>
	</g>
	<g>
		<rect x="1706.7" y="0.3" class="st0" width="1" height="21"/>
	</g>
	<g>
		<rect x="1712.3" y="0.3" class="st0" width="1" height="27.7"/>
	</g>
	<g>
		<rect x="1717.9" y="0.3" class="st0" width="1" height="21"/>
	</g>
	<g>
		<rect x="1723.6" y="0.3" class="st0" width="1" height="21"/>
	</g>
	<g>
		<rect x="1729.2" y="0.3" class="st0" width="1" height="21"/>
	</g>
	<g>
		<rect x="1734.8" y="0.3" class="st0" width="1" height="21"/>
	</g>
	<g>
		<rect x="1740.4" y="0.3" class="st0" width="1" height="21"/>
	</g>
	<g>
		<rect x="1746" y="0.3" class="st0" width="1" height="21"/>
	</g>
	<g>
		<rect x="1751.6" y="0.3" class="st0" width="1" height="21"/>
	</g>
	<g>
		<rect x="1757.2" y="0.3" class="st0" width="1" height="21"/>
	</g>
	<g>
		<rect x="1762.8" y="0.3" class="st0" width="1" height="21"/>
	</g>
	<g>
		<rect x="1768.5" y="0.3" class="st0" width="1" height="27.7"/>
	</g>
	<g>
		<rect x="1774.1" y="0.3" class="st0" width="1" height="21"/>
	</g>
</g>
</svg>
