<?xml version="1.0" encoding="utf-8"?>
<!-- Generator: Adobe Illustrator 19.2.1, SVG Export Plug-In . SVG Version: 6.00 Build 0)  -->
<svg version="1.1" id="Layer_1" xmlns="http://www.w3.org/2000/svg" xmlns:xlink="http://www.w3.org/1999/xlink" x="0px" y="0px"
	 viewBox="0 0 847.3 286" style="enable-background:new 0 0 847.3 286;" xml:space="preserve">
<style type="text/css">
	.st0{fill:#FFFFFF;}
</style>
<g>
	<rect x="825.8" y="23.1" class="st0" width="21" height="1"/>
	<rect x="825.8" y="28.6" class="st0" width="21" height="1"/>
	<rect x="825.8" y="34.3" class="st0" width="21" height="1"/>
	<rect x="825.8" y="39.9" class="st0" width="21" height="1"/>
	<rect x="825.8" y="45.5" class="st0" width="21" height="1"/>
	<rect x="825.8" y="51.1" class="st0" width="21" height="1"/>
	<rect x="819.1" y="56.6" class="st0" width="27.7" height="1"/>
	<rect x="825.8" y="62.3" class="st0" width="21" height="1"/>
	<rect x="825.8" y="68" class="st0" width="21" height="1"/>
	<rect x="825.8" y="73.6" class="st0" width="21" height="1"/>
	<rect x="825.8" y="79.2" class="st0" width="21" height="1"/>
	<rect x="825.8" y="84.8" class="st0" width="21" height="1"/>
	<rect x="825.8" y="90.4" class="st0" width="21" height="1"/>
	<rect x="825.8" y="96" class="st0" width="21" height="1"/>
	<rect x="825.8" y="101.6" class="st0" width="21" height="1"/>
	<rect x="825.8" y="107.2" class="st0" width="21" height="1"/>
	<rect x="819.1" y="112.9" class="st0" width="27.7" height="1"/>
	<rect x="825.8" y="118.5" class="st0" width="21" height="1"/>
	<rect x="825.8" y="124.1" class="st0" width="21" height="1"/>
	<rect x="825.8" y="129.6" class="st0" width="21" height="1"/>
	<rect x="825.8" y="135.2" class="st0" width="21" height="1"/>
	<rect x="825.8" y="140.9" class="st0" width="21" height="1"/>
	<rect x="825.8" y="146.5" class="st0" width="21" height="1"/>
	<rect x="825.8" y="152.2" class="st0" width="21" height="1"/>
	<rect x="825.8" y="157.7" class="st0" width="21" height="1"/>
	<rect x="825.8" y="163.4" class="st0" width="21" height="1"/>
	<rect x="819.1" y="169" class="st0" width="27.7" height="1"/>
	<rect x="825.8" y="174.6" class="st0" width="21" height="1"/>
	<rect x="825.8" y="180.2" class="st0" width="21" height="1"/>
	<rect x="825.8" y="185.7" class="st0" width="21" height="1"/>
	<rect x="825.8" y="191.4" class="st0" width="21" height="1"/>
	<rect x="825.8" y="197.1" class="st0" width="21" height="1"/>
	<rect x="825.8" y="202.6" class="st0" width="21" height="1"/>
	<rect x="825.8" y="208.2" class="st0" width="21" height="1"/>
	<rect x="825.8" y="213.9" class="st0" width="21" height="1"/>
	<rect x="825.8" y="219.5" class="st0" width="21" height="1"/>
	<rect x="819.1" y="225.1" class="st0" width="27.7" height="1"/>
	<rect x="825.8" y="230.6" class="st0" width="21" height="1"/>
	<rect x="825.8" y="236.2" class="st0" width="21" height="1"/>
	<rect x="825.8" y="242" class="st0" width="21" height="1"/>
	<rect x="825.8" y="247.6" class="st0" width="21" height="1"/>
	<rect x="825.8" y="253.2" class="st0" width="21" height="1"/>
	<rect x="825.8" y="258.7" class="st0" width="21" height="1"/>
	<rect x="825.8" y="264.4" class="st0" width="21" height="1"/>
	<rect x="825.8" y="270" class="st0" width="21" height="1"/>
	<rect x="825.8" y="275.6" class="st0" width="21" height="1"/>
	<rect x="819.1" y="281.2" class="st0" width="27.7" height="1"/>
	<rect x="3.8" y="0.6" class="st0" width="1" height="27.7"/>
	<rect x="9.4" y="0.6" class="st0" width="1" height="21"/>
	<rect x="15" y="0.6" class="st0" width="1" height="21"/>
	<rect x="20.6" y="0.6" class="st0" width="1" height="21"/>
	<rect x="26.2" y="0.6" class="st0" width="1" height="21"/>
	<rect x="31.9" y="0.6" class="st0" width="1" height="21"/>
	<rect x="37.5" y="0.6" class="st0" width="1" height="21"/>
	<rect x="43.1" y="0.6" class="st0" width="1" height="21"/>
	<rect x="48.7" y="0.6" class="st0" width="1" height="21"/>
	<rect x="54.2" y="0.6" class="st0" width="1" height="21"/>
	<rect x="59.9" y="0.6" class="st0" width="1" height="27.7"/>
	<rect x="65.5" y="0.6" class="st0" width="1" height="21"/>
	<rect x="71.2" y="0.6" class="st0" width="1" height="21"/>
	<rect x="76.8" y="0.6" class="st0" width="1" height="21"/>
	<rect x="82.4" y="0.6" class="st0" width="1" height="21"/>
	<rect x="88" y="0.6" class="st0" width="1" height="21"/>
	<rect x="93.6" y="0.6" class="st0" width="1" height="21"/>
	<rect x="99.2" y="0.6" class="st0" width="1" height="21"/>
	<rect x="104.8" y="0.6" class="st0" width="1" height="21"/>
	<rect x="110.4" y="0.6" class="st0" width="1" height="21"/>
	<rect x="116.1" y="0.6" class="st0" width="1" height="27.7"/>
	<rect x="121.7" y="0.6" class="st0" width="1" height="21"/>
	<rect x="127.2" y="0.6" class="st0" width="1" height="21"/>
	<rect x="132.8" y="0.6" class="st0" width="1" height="21"/>
	<rect x="138.5" y="0.6" class="st0" width="1" height="21"/>
	<rect x="144.1" y="0.6" class="st0" width="1" height="21"/>
	<rect x="149.7" y="0.6" class="st0" width="1" height="21"/>
	<rect x="155.3" y="0.6" class="st0" width="1" height="21"/>
	<rect x="161" y="0.6" class="st0" width="1" height="21"/>
	<rect x="166.6" y="0.6" class="st0" width="1" height="21"/>
	<rect x="172.2" y="0.6" class="st0" width="1" height="27.7"/>
	<rect x="177.8" y="0.6" class="st0" width="1" height="21"/>
	<rect x="183.3" y="0.6" class="st0" width="1" height="21"/>
	<rect x="189" y="0.6" class="st0" width="1" height="21"/>
	<rect x="194.6" y="0.6" class="st0" width="1" height="21"/>
	<rect x="200.2" y="0.6" class="st0" width="1" height="21"/>
	<rect x="205.8" y="0.6" class="st0" width="1" height="21"/>
	<rect x="211.5" y="0.6" class="st0" width="1" height="21"/>
	<rect x="217.1" y="0.6" class="st0" width="1" height="21"/>
	<rect x="222.7" y="0.6" class="st0" width="1" height="21"/>
	<rect x="228.2" y="0.6" class="st0" width="1" height="27.7"/>
	<rect x="233.8" y="0.6" class="st0" width="1" height="21"/>
	<rect x="239.5" y="0.6" class="st0" width="1" height="21"/>
	<rect x="245.2" y="0.6" class="st0" width="1" height="21"/>
	<rect x="250.8" y="0.6" class="st0" width="1" height="21"/>
	<rect x="256.3" y="0.6" class="st0" width="1" height="21"/>
	<rect x="262" y="0.6" class="st0" width="1" height="21"/>
	<rect x="267.6" y="0.6" class="st0" width="1" height="21"/>
	<rect x="273.2" y="0.6" class="st0" width="1" height="21"/>
	<rect x="278.8" y="0.6" class="st0" width="1" height="21"/>
	<rect x="284.5" y="0.6" class="st0" width="1" height="27.7"/>
	<rect x="290.1" y="0.6" class="st0" width="1" height="21"/>
	<rect x="295.7" y="0.6" class="st0" width="1" height="21"/>
	<rect x="301.2" y="0.6" class="st0" width="1" height="21"/>
	<rect x="306.8" y="0.6" class="st0" width="1" height="21"/>
	<rect x="312.5" y="0.6" class="st0" width="1" height="21"/>
	<rect x="318.1" y="0.6" class="st0" width="1" height="21"/>
	<rect x="323.7" y="0.6" class="st0" width="1" height="21"/>
	<rect x="329.3" y="0.6" class="st0" width="1" height="21"/>
	<rect x="335" y="0.6" class="st0" width="1" height="21"/>
	<rect x="340.6" y="0.6" class="st0" width="1" height="27.7"/>
	<rect x="346.2" y="0.6" class="st0" width="1" height="21"/>
	<rect x="351.8" y="0.6" class="st0" width="1" height="21"/>
	<rect x="357.3" y="0.6" class="st0" width="1" height="21"/>
	<rect x="363" y="0.6" class="st0" width="1" height="21"/>
	<rect x="368.6" y="0.6" class="st0" width="1" height="21"/>
	<rect x="374.2" y="0.6" class="st0" width="1" height="21"/>
	<rect x="379.8" y="0.6" class="st0" width="1" height="21"/>
	<rect x="385.5" y="0.6" class="st0" width="1" height="21"/>
	<rect x="391.1" y="0.6" class="st0" width="1" height="21"/>
	<rect x="396.7" y="0.6" class="st0" width="1" height="27.7"/>
	<rect x="402.2" y="0.6" class="st0" width="1" height="21"/>
	<rect x="407.8" y="0.6" class="st0" width="1" height="21"/>
	<rect x="413.6" y="0.6" class="st0" width="1" height="21"/>
	<rect x="419.2" y="0.6" class="st0" width="1" height="21"/>
	<rect x="424.8" y="0.6" class="st0" width="1" height="21"/>
	<rect x="430.3" y="0.6" class="st0" width="1" height="21"/>
	<rect x="436" y="0.6" class="st0" width="1" height="21"/>
	<rect x="441.6" y="0.6" class="st0" width="1" height="21"/>
	<rect x="447.2" y="0.6" class="st0" width="1" height="21"/>
	<rect x="452.8" y="0.6" class="st0" width="1" height="27.7"/>
	<rect x="458.5" y="0.6" class="st0" width="1" height="21"/>
	<rect x="464.1" y="0.6" class="st0" width="1" height="21"/>
	<rect x="469.7" y="0.6" class="st0" width="1" height="21"/>
	<rect x="475.2" y="0.6" class="st0" width="1" height="21"/>
	<rect x="480.8" y="0.6" class="st0" width="1" height="21"/>
	<rect x="486.5" y="0.6" class="st0" width="1" height="21"/>
	<rect x="492.1" y="0.6" class="st0" width="1" height="21"/>
	<rect x="497.7" y="0.6" class="st0" width="1" height="21"/>
	<rect x="503.3" y="0.6" class="st0" width="1" height="21"/>
	<rect x="509" y="0.6" class="st0" width="1" height="27.7"/>
	<rect x="514.6" y="0.6" class="st0" width="1" height="21"/>
	<rect x="520.2" y="0.6" class="st0" width="1" height="21"/>
	<rect x="525.8" y="0.6" class="st0" width="1" height="21"/>
	<rect x="531.3" y="0.6" class="st0" width="1" height="21"/>
	<rect x="537" y="0.6" class="st0" width="1" height="21"/>
	<rect x="542.7" y="0.6" class="st0" width="1" height="21"/>
	<rect x="548.2" y="0.6" class="st0" width="1" height="21"/>
	<rect x="553.8" y="0.6" class="st0" width="1" height="21"/>
	<rect x="559.5" y="0.6" class="st0" width="1" height="21"/>
	<rect x="565.1" y="0.6" class="st0" width="1" height="27.7"/>
	<rect x="570.7" y="0.6" class="st0" width="1" height="21"/>
	<rect x="576.2" y="0.6" class="st0" width="1" height="21"/>
	<rect x="581.8" y="0.6" class="st0" width="1" height="21"/>
	<rect x="587.6" y="0.6" class="st0" width="1" height="21"/>
	<rect x="593.2" y="0.6" class="st0" width="1" height="21"/>
	<rect x="598.8" y="0.6" class="st0" width="1" height="21"/>
	<rect x="604.3" y="0.6" class="st0" width="1" height="21"/>
	<rect x="610" y="0.6" class="st0" width="1" height="21"/>
	<rect x="615.6" y="0.6" class="st0" width="1" height="21"/>
	<rect x="621.2" y="0.6" class="st0" width="1" height="27.7"/>
	<rect x="626.8" y="0.6" class="st0" width="1" height="21"/>
	<rect x="632.5" y="0.6" class="st0" width="1" height="21"/>
	<rect x="638.1" y="0.6" class="st0" width="1" height="21"/>
	<rect x="643.7" y="0.6" class="st0" width="1" height="21"/>
	<rect x="649.2" y="0.6" class="st0" width="1" height="21"/>
	<rect x="654.8" y="0.6" class="st0" width="1" height="21"/>
	<rect x="660.5" y="0.6" class="st0" width="1" height="21"/>
	<rect x="666.1" y="0.6" class="st0" width="1" height="21"/>
	<rect x="671.8" y="0.6" class="st0" width="1" height="21"/>
	<rect x="677.3" y="0.6" class="st0" width="1" height="27.7"/>
	<rect x="683" y="0.6" class="st0" width="1" height="21"/>
	<rect x="688.6" y="0.6" class="st0" width="1" height="21"/>
	<rect x="694.2" y="0.6" class="st0" width="1" height="21"/>
	<rect x="699.8" y="0.6" class="st0" width="1" height="21"/>
	<rect x="705.3" y="0.6" class="st0" width="1" height="21"/>
	<rect x="711" y="0.6" class="st0" width="1" height="21"/>
	<rect x="716.7" y="0.6" class="st0" width="1" height="21"/>
	<rect x="722.2" y="0.6" class="st0" width="1" height="21"/>
	<rect x="727.8" y="0.6" class="st0" width="1" height="21"/>
	<rect x="733.5" y="0.6" class="st0" width="1" height="27.7"/>
	<rect x="739.1" y="0.6" class="st0" width="1" height="21"/>
	<rect x="744.7" y="0.6" class="st0" width="1" height="21"/>
	<rect x="750.2" y="0.6" class="st0" width="1" height="21"/>
	<rect x="755.8" y="0.6" class="st0" width="1" height="21"/>
	<rect x="761.6" y="0.6" class="st0" width="1" height="21"/>
	<rect x="767.2" y="0.6" class="st0" width="1" height="21"/>
	<rect x="772.8" y="0.6" class="st0" width="1" height="21"/>
	<rect x="778.3" y="0.6" class="st0" width="1" height="21"/>
	<rect x="784" y="0.6" class="st0" width="1" height="21"/>
	<rect x="789.6" y="0.6" class="st0" width="1" height="27.7"/>
	<rect x="795.2" y="0.6" class="st0" width="1" height="21"/>
	<rect x="800.8" y="0.6" class="st0" width="1" height="21"/>
	<rect x="806.5" y="0.6" class="st0" width="1" height="21"/>
	<rect x="812.1" y="0.6" class="st0" width="1" height="21"/>
	<rect x="817.7" y="0.6" class="st0" width="1" height="21"/>
	<rect x="823.2" y="0.6" class="st0" width="1" height="21"/>
	<rect x="845.8" y="0.6" class="st0" width="1" height="1"/>
	<g>
		<polygon class="st0" points="841.1,5.5 841.1,0.6 840.1,0.6 840.1,6.5 		"/>
		<polygon class="st0" points="841.8,6.1 840.8,7.2 841.1,7.2 841.1,7.1 846.8,7.1 846.8,6.1 		"/>
	</g>
	<g>
		<polygon class="st0" points="835.5,11.1 835.5,0.6 834.5,0.6 834.5,12.1 		"/>
		<polygon class="st0" points="836.2,11.7 835.2,12.8 835.5,12.8 835.5,12.7 846.8,12.7 846.8,11.7 		"/>
	</g>
	<g>
		<polygon class="st0" points="829.8,16.7 829.8,0.6 828.8,0.6 828.8,17.7 		"/>
		<polygon class="st0" points="830.7,17.3 829.7,18.4 829.8,18.4 829.8,18.3 846.8,18.3 846.8,17.3 		"/>
	</g>
</g>
</svg>
