<?xml version="1.0" encoding="utf-8"?>
<svg version="1.1" id="Layer_1" xmlns="http://www.w3.org/2000/svg" xmlns:xlink="http://www.w3.org/1999/xlink" x="0px" y="0px"
	 viewBox="0 0 1777.3 492" style="enable-background:new 0 0 1777.3 492;" xml:space="preserve" preserveAspectRatio="xMaxYMin">
<style type="text/css">
	.st0{fill:#FFFFFF;}
</style>
<g>
	<rect x="1755.8" y="23.1" class="st0" width="21" height="1"/>
	<rect x="1755.8" y="28.6" class="st0" width="21" height="1"/>
	<rect x="1755.8" y="34.3" class="st0" width="21" height="1"/>
	<rect x="1755.8" y="39.9" class="st0" width="21" height="1"/>
	<rect x="1755.8" y="45.5" class="st0" width="21" height="1"/>
	<rect x="1755.8" y="51.1" class="st0" width="21" height="1"/>
	<rect x="1749.1" y="56.6" class="st0" width="27.7" height="1"/>
	<rect x="1755.8" y="62.3" class="st0" width="21" height="1"/>
	<rect x="1755.8" y="68" class="st0" width="21" height="1"/>
	<rect x="1755.8" y="73.6" class="st0" width="21" height="1"/>
	<rect x="1755.8" y="79.2" class="st0" width="21" height="1"/>
	<rect x="1755.8" y="84.8" class="st0" width="21" height="1"/>
	<rect x="1755.8" y="90.4" class="st0" width="21" height="1"/>
	<rect x="1755.8" y="96" class="st0" width="21" height="1"/>
	<rect x="1755.8" y="101.6" class="st0" width="21" height="1"/>
	<rect x="1755.8" y="107.2" class="st0" width="21" height="1"/>
	<rect x="1749.1" y="112.9" class="st0" width="27.7" height="1"/>
	<rect x="1755.8" y="118.5" class="st0" width="21" height="1"/>
	<rect x="1755.8" y="124.1" class="st0" width="21" height="1"/>
	<rect x="1755.8" y="129.6" class="st0" width="21" height="1"/>
	<rect x="1755.8" y="135.2" class="st0" width="21" height="1"/>
	<rect x="1755.8" y="140.9" class="st0" width="21" height="1"/>
	<rect x="1755.8" y="146.5" class="st0" width="21" height="1"/>
	<rect x="1755.8" y="152.2" class="st0" width="21" height="1"/>
	<rect x="1755.8" y="157.7" class="st0" width="21" height="1"/>
	<rect x="1755.8" y="163.4" class="st0" width="21" height="1"/>
	<rect x="1749.1" y="169" class="st0" width="27.7" height="1"/>
	<rect x="1755.8" y="174.6" class="st0" width="21" height="1"/>
	<rect x="1755.8" y="180.2" class="st0" width="21" height="1"/>
	<rect x="1755.8" y="185.7" class="st0" width="21" height="1"/>
	<rect x="1755.8" y="191.4" class="st0" width="21" height="1"/>
	<rect x="1755.8" y="197.1" class="st0" width="21" height="1"/>
	<rect x="1755.8" y="202.6" class="st0" width="21" height="1"/>
	<rect x="1755.8" y="208.2" class="st0" width="21" height="1"/>
	<rect x="1755.8" y="213.9" class="st0" width="21" height="1"/>
	<rect x="1755.8" y="219.5" class="st0" width="21" height="1"/>
	<rect x="1749.1" y="225.1" class="st0" width="27.7" height="1"/>
	<rect x="1755.8" y="230.6" class="st0" width="21" height="1"/>
	<rect x="1755.8" y="236.2" class="st0" width="21" height="1"/>
	<rect x="1755.8" y="242" class="st0" width="21" height="1"/>
	<rect x="1755.8" y="247.6" class="st0" width="21" height="1"/>
	<rect x="1755.8" y="253.2" class="st0" width="21" height="1"/>
	<rect x="1755.8" y="258.7" class="st0" width="21" height="1"/>
	<rect x="1755.8" y="264.4" class="st0" width="21" height="1"/>
	<rect x="1755.8" y="270" class="st0" width="21" height="1"/>
	<rect x="1755.8" y="275.6" class="st0" width="21" height="1"/>
	<rect x="1749.1" y="281.2" class="st0" width="27.7" height="1"/>
	<rect x="933.8" y="0.6" class="st0" width="1" height="27.7"/>
	<rect x="939.4" y="0.6" class="st0" width="1" height="21"/>
	<rect x="945" y="0.6" class="st0" width="1" height="21"/>
	<rect x="950.6" y="0.6" class="st0" width="1" height="21"/>
	<rect x="956.2" y="0.6" class="st0" width="1" height="21"/>
	<rect x="961.9" y="0.6" class="st0" width="1" height="21"/>
	<rect x="967.5" y="0.6" class="st0" width="1" height="21"/>
	<rect x="973.1" y="0.6" class="st0" width="1" height="21"/>
	<rect x="978.7" y="0.6" class="st0" width="1" height="21"/>
	<rect x="984.2" y="0.6" class="st0" width="1" height="21"/>
	<rect x="989.9" y="0.6" class="st0" width="1" height="27.7"/>
	<rect x="995.5" y="0.6" class="st0" width="1" height="21"/>
	<rect x="1001.2" y="0.6" class="st0" width="1" height="21"/>
	<rect x="1006.8" y="0.6" class="st0" width="1" height="21"/>
	<rect x="1012.4" y="0.6" class="st0" width="1" height="21"/>
	<rect x="1018" y="0.6" class="st0" width="1" height="21"/>
	<rect x="1023.6" y="0.6" class="st0" width="1" height="21"/>
	<rect x="1029.2" y="0.6" class="st0" width="1" height="21"/>
	<rect x="1034.8" y="0.6" class="st0" width="1" height="21"/>
	<rect x="1040.4" y="0.6" class="st0" width="1" height="21"/>
	<rect x="1046.1" y="0.6" class="st0" width="1" height="27.7"/>
	<rect x="1051.7" y="0.6" class="st0" width="1" height="21"/>
	<rect x="1057.2" y="0.6" class="st0" width="1" height="21"/>
	<rect x="1062.8" y="0.6" class="st0" width="1" height="21"/>
	<rect x="1068.5" y="0.6" class="st0" width="1" height="21"/>
	<rect x="1074.1" y="0.6" class="st0" width="1" height="21"/>
	<rect x="1079.7" y="0.6" class="st0" width="1" height="21"/>
	<rect x="1085.3" y="0.6" class="st0" width="1" height="21"/>
	<rect x="1091" y="0.6" class="st0" width="1" height="21"/>
	<rect x="1096.6" y="0.6" class="st0" width="1" height="21"/>
	<rect x="1102.2" y="0.6" class="st0" width="1" height="27.7"/>
	<rect x="1107.8" y="0.6" class="st0" width="1" height="21"/>
	<rect x="1113.3" y="0.6" class="st0" width="1" height="21"/>
	<rect x="1119" y="0.6" class="st0" width="1" height="21"/>
	<rect x="1124.6" y="0.6" class="st0" width="1" height="21"/>
	<rect x="1130.2" y="0.6" class="st0" width="1" height="21"/>
	<rect x="1135.8" y="0.6" class="st0" width="1" height="21"/>
	<rect x="1141.5" y="0.6" class="st0" width="1" height="21"/>
	<rect x="1147.1" y="0.6" class="st0" width="1" height="21"/>
	<rect x="1152.7" y="0.6" class="st0" width="1" height="21"/>
	<rect x="1158.2" y="0.6" class="st0" width="1" height="27.7"/>
	<rect x="1163.8" y="0.6" class="st0" width="1" height="21"/>
	<rect x="1169.5" y="0.6" class="st0" width="1" height="21"/>
	<rect x="1175.2" y="0.6" class="st0" width="1" height="21"/>
	<rect x="1180.8" y="0.6" class="st0" width="1" height="21"/>
	<rect x="1186.3" y="0.6" class="st0" width="1" height="21"/>
	<rect x="1192" y="0.6" class="st0" width="1" height="21"/>
	<rect x="1197.6" y="0.6" class="st0" width="1" height="21"/>
	<rect x="1203.2" y="0.6" class="st0" width="1" height="21"/>
	<rect x="1208.8" y="0.6" class="st0" width="1" height="21"/>
	<rect x="1214.5" y="0.6" class="st0" width="1" height="27.7"/>
	<rect x="1220.1" y="0.6" class="st0" width="1" height="21"/>
	<rect x="1225.7" y="0.6" class="st0" width="1" height="21"/>
	<rect x="1231.2" y="0.6" class="st0" width="1" height="21"/>
	<rect x="1236.8" y="0.6" class="st0" width="1" height="21"/>
	<rect x="1242.5" y="0.6" class="st0" width="1" height="21"/>
	<rect x="1248.1" y="0.6" class="st0" width="1" height="21"/>
	<rect x="1253.7" y="0.6" class="st0" width="1" height="21"/>
	<rect x="1259.3" y="0.6" class="st0" width="1" height="21"/>
	<rect x="1265" y="0.6" class="st0" width="1" height="21"/>
	<rect x="1270.6" y="0.6" class="st0" width="1" height="27.7"/>
	<rect x="1276.2" y="0.6" class="st0" width="1" height="21"/>
	<rect x="1281.8" y="0.6" class="st0" width="1" height="21"/>
	<rect x="1287.3" y="0.6" class="st0" width="1" height="21"/>
	<rect x="1293" y="0.6" class="st0" width="1" height="21"/>
	<rect x="1298.6" y="0.6" class="st0" width="1" height="21"/>
	<rect x="1304.2" y="0.6" class="st0" width="1" height="21"/>
	<rect x="1309.8" y="0.6" class="st0" width="1" height="21"/>
	<rect x="1315.5" y="0.6" class="st0" width="1" height="21"/>
	<rect x="1321.1" y="0.6" class="st0" width="1" height="21"/>
	<rect x="1326.7" y="0.6" class="st0" width="1" height="27.7"/>
	<rect x="1332.2" y="0.6" class="st0" width="1" height="21"/>
	<rect x="1337.8" y="0.6" class="st0" width="1" height="21"/>
	<rect x="1343.6" y="0.6" class="st0" width="1" height="21"/>
	<rect x="1349.2" y="0.6" class="st0" width="1" height="21"/>
	<rect x="1354.8" y="0.6" class="st0" width="1" height="21"/>
	<rect x="1360.3" y="0.6" class="st0" width="1" height="21"/>
	<rect x="1366" y="0.6" class="st0" width="1" height="21"/>
	<rect x="1371.6" y="0.6" class="st0" width="1" height="21"/>
	<rect x="1377.2" y="0.6" class="st0" width="1" height="21"/>
	<rect x="1382.8" y="0.6" class="st0" width="1" height="27.7"/>
	<rect x="1388.5" y="0.6" class="st0" width="1" height="21"/>
	<rect x="1394.1" y="0.6" class="st0" width="1" height="21"/>
	<rect x="1399.7" y="0.6" class="st0" width="1" height="21"/>
	<rect x="1405.2" y="0.6" class="st0" width="1" height="21"/>
	<rect x="1410.8" y="0.6" class="st0" width="1" height="21"/>
	<rect x="1416.5" y="0.6" class="st0" width="1" height="21"/>
	<rect x="1422.1" y="0.6" class="st0" width="1" height="21"/>
	<rect x="1427.7" y="0.6" class="st0" width="1" height="21"/>
	<rect x="1433.3" y="0.6" class="st0" width="1" height="21"/>
	<rect x="1439" y="0.6" class="st0" width="1" height="27.7"/>
	<rect x="1444.6" y="0.6" class="st0" width="1" height="21"/>
	<rect x="1450.2" y="0.6" class="st0" width="1" height="21"/>
	<rect x="1455.8" y="0.6" class="st0" width="1" height="21"/>
	<rect x="1461.3" y="0.6" class="st0" width="1" height="21"/>
	<rect x="1467" y="0.6" class="st0" width="1" height="21"/>
	<rect x="1472.7" y="0.6" class="st0" width="1" height="21"/>
	<rect x="1478.2" y="0.6" class="st0" width="1" height="21"/>
	<rect x="1483.8" y="0.6" class="st0" width="1" height="21"/>
	<rect x="1489.5" y="0.6" class="st0" width="1" height="21"/>
	<rect x="1495.1" y="0.6" class="st0" width="1" height="27.7"/>
	<rect x="1500.7" y="0.6" class="st0" width="1" height="21"/>
	<rect x="1506.2" y="0.6" class="st0" width="1" height="21"/>
	<rect x="1511.8" y="0.6" class="st0" width="1" height="21"/>
	<rect x="1517.6" y="0.6" class="st0" width="1" height="21"/>
	<rect x="1523.2" y="0.6" class="st0" width="1" height="21"/>
	<rect x="1528.8" y="0.6" class="st0" width="1" height="21"/>
	<rect x="1534.3" y="0.6" class="st0" width="1" height="21"/>
	<rect x="1540" y="0.6" class="st0" width="1" height="21"/>
	<rect x="1545.6" y="0.6" class="st0" width="1" height="21"/>
	<rect x="1551.2" y="0.6" class="st0" width="1" height="27.7"/>
	<rect x="1556.8" y="0.6" class="st0" width="1" height="21"/>
	<rect x="1562.5" y="0.6" class="st0" width="1" height="21"/>
	<rect x="1568.1" y="0.6" class="st0" width="1" height="21"/>
	<rect x="1573.7" y="0.6" class="st0" width="1" height="21"/>
	<rect x="1579.2" y="0.6" class="st0" width="1" height="21"/>
	<rect x="1584.8" y="0.6" class="st0" width="1" height="21"/>
	<rect x="1590.5" y="0.6" class="st0" width="1" height="21"/>
	<rect x="1596.1" y="0.6" class="st0" width="1" height="21"/>
	<rect x="1601.8" y="0.6" class="st0" width="1" height="21"/>
	<rect x="1607.3" y="0.6" class="st0" width="1" height="27.7"/>
	<rect x="1613" y="0.6" class="st0" width="1" height="21"/>
	<rect x="1618.6" y="0.6" class="st0" width="1" height="21"/>
	<rect x="1624.2" y="0.6" class="st0" width="1" height="21"/>
	<rect x="1629.8" y="0.6" class="st0" width="1" height="21"/>
	<rect x="1635.3" y="0.6" class="st0" width="1" height="21"/>
	<rect x="1641" y="0.6" class="st0" width="1" height="21"/>
	<rect x="1646.7" y="0.6" class="st0" width="1" height="21"/>
	<rect x="1652.2" y="0.6" class="st0" width="1" height="21"/>
	<rect x="1657.8" y="0.6" class="st0" width="1" height="21"/>
	<rect x="1663.5" y="0.6" class="st0" width="1" height="27.7"/>
	<rect x="1669.1" y="0.6" class="st0" width="1" height="21"/>
	<rect x="1674.7" y="0.6" class="st0" width="1" height="21"/>
	<rect x="1680.2" y="0.6" class="st0" width="1" height="21"/>
	<rect x="1685.8" y="0.6" class="st0" width="1" height="21"/>
	<rect x="1691.6" y="0.6" class="st0" width="1" height="21"/>
	<rect x="1697.2" y="0.6" class="st0" width="1" height="21"/>
	<rect x="1702.8" y="0.6" class="st0" width="1" height="21"/>
	<rect x="1708.3" y="0.6" class="st0" width="1" height="21"/>
	<rect x="1714" y="0.6" class="st0" width="1" height="21"/>
	<rect x="1719.6" y="0.6" class="st0" width="1" height="27.7"/>
	<rect x="1725.2" y="0.6" class="st0" width="1" height="21"/>
	<rect x="1730.8" y="0.6" class="st0" width="1" height="21"/>
	<rect x="1736.5" y="0.6" class="st0" width="1" height="21"/>
	<rect x="1742.1" y="0.6" class="st0" width="1" height="21"/>
	<rect x="1747.7" y="0.6" class="st0" width="1" height="21"/>
	<rect x="1753.2" y="0.6" class="st0" width="1" height="21"/>
	<rect x="1775.8" y="0.6" class="st0" width="1" height="1"/>
	<g>
		<polygon class="st0" points="1771.1,5.5 1771.1,0.6 1770.1,0.6 1770.1,6.5 		"/>
		<polygon class="st0" points="1771.8,6.1 1770.8,7.2 1771.1,7.2 1771.1,7.1 1776.8,7.1 1776.8,6.1 		"/>
	</g>
	<g>
		<polygon class="st0" points="1765.5,11.1 1765.5,0.6 1764.5,0.6 1764.5,12.1 		"/>
		<polygon class="st0" points="1766.2,11.7 1765.2,12.8 1765.5,12.8 1765.5,12.7 1776.8,12.7 1776.8,11.7 		"/>
	</g>
	<g>
		<polygon class="st0" points="1759.8,16.7 1759.8,0.6 1758.8,0.6 1758.8,17.7 		"/>
		<polygon class="st0" points="1760.7,17.3 1759.7,18.4 1759.8,18.4 1759.8,18.3 1776.8,18.3 1776.8,17.3 		"/>
	</g>
</g>
</svg>
