<?xml version="1.0" encoding="utf-8"?>
<!-- Generator: Adobe Illustrator 19.2.1, SVG Export Plug-In . SVG Version: 6.00 Build 0)  -->
<svg version="1.1" id="Layer_1" xmlns="http://www.w3.org/2000/svg" xmlns:xlink="http://www.w3.org/1999/xlink" x="0px" y="0px"
	 viewBox="0 0 1777.3 492" style="enable-background:new 0 0 1777.3 492;" xml:space="preserve">
<style type="text/css">
	.st0{fill:#FFFFFF;}
</style>
<path class="st0" d="M204.5,491.5v-1h-81.8c0-0.7,0-1.4,0-2.1l59.3-1.6l0-1l-59.3,1.6c0-0.8-0.1-1.6-0.1-2.4l59.3-3.1l-0.1-1
	l-59.3,3.1c0-0.7-0.1-1.5-0.1-2.2l59.2-4.7l-0.1-1l-59.2,4.7c-0.1-0.7-0.1-1.5-0.2-2.2l59-6.3l-0.1-1l-59,6.3
	c-0.1-0.7-0.2-1.5-0.3-2.2l58.9-7.8l-0.1-1l-58.9,7.8c-0.1-0.7-0.2-1.4-0.3-2.2l58.6-9.4l-0.2-1l-58.6,9.4c-0.1-0.7-0.2-1.4-0.4-2.1
	l58.3-11l-0.2-1l-58.3,11c-0.1-0.7-0.3-1.5-0.4-2.2l58-12.5l-0.2-1l-58,12.5c-0.2-0.7-0.3-1.4-0.5-2.1l57.7-14l-0.2-1l-57.8,14
	c-0.2-0.7-0.3-1.4-0.5-2l57.3-15.5l-0.3-1l-57.3,15.5c-0.2-0.7-0.4-1.3-0.6-2l56.9-17l-0.3-1l-56.9,17c-0.2-0.7-0.4-1.4-0.6-2
	l56.5-18.4l-0.3-1l-56.5,18.4c-0.2-0.7-0.5-1.3-0.7-2l55.9-19.9l-0.3-0.9l-55.9,19.9c-0.2-0.7-0.5-1.3-0.7-2l55.4-21.3l-0.4-0.9
	L114.5,447c-0.3-0.7-0.5-1.3-0.8-2l54.8-22.8l-0.4-0.9l-54.8,22.8c-0.3-0.6-0.5-1.3-0.8-1.9l65.7-29.2l-0.4-0.9l-65.7,29.2
	c-0.3-0.6-0.6-1.3-0.9-1.9l53.6-25.6l-0.4-0.9l-53.6,25.6c-0.3-0.6-0.6-1.3-0.9-1.9l52.9-26.9l-0.5-0.9l-52.9,26.9
	c-0.3-0.6-0.6-1.2-0.9-1.8l52.2-28.2l-0.5-0.9L108,433.1c-0.3-0.6-0.7-1.2-1-1.8l51.5-29.6l-0.5-0.9l-51.5,29.6
	c-0.4-0.6-0.7-1.2-1.1-1.8l50.7-30.9l-0.5-0.9l-50.7,30.9c-0.4-0.6-0.7-1.1-1.1-1.7l49.9-32.2l-0.5-0.8l-49.9,32.2
	c-0.4-0.6-0.8-1.2-1.1-1.7l49.1-33.4l-0.6-0.8l-49.1,33.4c-0.4-0.6-0.8-1.1-1.2-1.7l48.2-34.6l-0.6-0.8l-48.2,34.6
	c-0.4-0.5-0.8-1.1-1.2-1.6l47.3-35.8l-0.6-0.8L98,417.7c-0.4-0.6-0.9-1.1-1.3-1.7l46.4-37l-0.6-0.8l-46.4,37
	c-0.4-0.5-0.9-1.1-1.3-1.6l45.5-38.2l-0.6-0.8l-45.5,38.2c-0.4-0.5-0.8-1-1.3-1.5l44.6-39.3l-0.7-0.8l-44.6,39.3
	c-0.5-0.5-1-1.1-1.5-1.6l43.5-40.4l-0.7-0.7L90,408.3c-0.5-0.5-0.9-1-1.4-1.5l42.5-41.4l-0.7-0.7l-42.5,41.4c-0.5-0.5-1-1-1.5-1.5
	l59.7-61.1l-0.7-0.7l-59.7,61.1c-0.5-0.5-1-0.9-1.5-1.4l40.4-43.6l-0.7-0.7l-40.4,43.6c-0.5-0.4-1-0.9-1.5-1.3l39.3-44.6l-0.7-0.7
	l-39.3,44.6c-0.5-0.4-1-0.8-1.5-1.3l38.1-45.5l-0.8-0.6l-38.1,45.5c-0.6-0.5-1.1-0.9-1.7-1.4l37.1-46.5l-0.8-0.6l-37.1,46.5
	c-0.5-0.4-1.1-0.8-1.6-1.2l35.8-47.3l-0.8-0.6l-35.8,47.3c-0.6-0.4-1.1-0.8-1.7-1.2l34.7-48.2l-0.8-0.6l-34.6,48.2
	c-0.5-0.4-1.1-0.8-1.7-1.1l33.4-49.1l-0.8-0.6l-33.4,49.1c-0.5-0.4-1.1-0.7-1.7-1.1l32.1-49.9l-0.8-0.5l-32.1,49.9
	c-0.6-0.4-1.2-0.8-1.9-1.2L95.7,337l-0.9-0.5L64,387.2c-0.6-0.3-1.1-0.7-1.7-1l29.6-51.5l-0.9-0.5l-29.6,51.5
	c-0.6-0.3-1.2-0.7-1.8-1l28.3-52.2L87,332l-28.3,52.2c-0.6-0.3-1.2-0.6-1.8-1l26.9-52.9l-0.9-0.5L56,382.8c-0.7-0.3-1.3-0.7-2-1
	l25.5-53.6l-0.9-0.4l-25.5,53.6c-0.6-0.3-1.2-0.6-1.8-0.9l24.1-54.2l-0.9-0.4l-24.1,54.2c-0.7-0.3-1.3-0.6-2-0.9l27.3-65l-0.9-0.4
	l-27.3,65c-0.6-0.3-1.3-0.5-1.9-0.8l21.4-55.4l-0.9-0.4l-21.4,55.4c-0.7-0.2-1.3-0.5-2-0.7l20-56l-0.9-0.3l-20,56
	c-0.6-0.2-1.2-0.4-1.9-0.6l18.5-56.5l-1-0.3l-18.5,56.5c-0.7-0.2-1.5-0.5-2.2-0.7l16.9-56.8l-1-0.3l-16.9,56.8
	c-0.6-0.2-1.3-0.4-1.9-0.6l15.5-57.3l-1-0.3L32.9,374c-0.7-0.2-1.4-0.4-2.1-0.5l14-57.6l-1-0.2l-14,57.6c-0.7-0.2-1.5-0.3-2.2-0.5
	l12.5-58.1l-1-0.2l-12.5,58.1c-0.7-0.1-1.4-0.3-2.1-0.4l10.9-58.3l-1-0.2l-10.9,58.3c-0.7-0.1-1.4-0.3-2.2-0.4l9.4-58.7l-1-0.2
	l-9.4,58.7c-0.8-0.1-1.6-0.2-2.3-0.3l7.9-58.8l-1-0.1l-7.9,58.8c-0.7-0.1-1.3-0.2-2-0.2l6.3-58.9l-1-0.1l-6.3,58.9
	c-0.8-0.1-1.6-0.1-2.4-0.2l4.8-59.1l-1-0.1l-4.7,59.1c-0.7-0.1-1.5-0.1-2.2-0.1l3.1-59.1l-1-0.1L7.6,370c-0.8,0-1.5-0.1-2.3-0.1
	L7,310.7l-1,0l-1.6,59.2c-0.7,0-1.5,0-2.2,0v-81.2h-1L0.5,491.5L204.5,491.5z M111.2,441.8L3.8,489l81.8-83.8
	C96.3,415.6,105,428,111.2,441.8z M3.1,488.3l44.9-108.1c13.8,5.8,26.3,14.1,37,24.3L3.1,488.3z M47,379.8L1.6,489.3l0.6-118.4
	C18,371,33.1,374.1,47,379.8z M1.5,490.5L1.5,490.5L1.5,490.5L1.5,490.5L1.5,490.5z M2.8,490.5l108.8-47.8
	c6.5,14.6,10.1,30.8,10.2,47.8H2.8z"/>
</svg>
