<?xml version="1.0" encoding="utf-8"?>
<!-- Generator: Adobe Illustrator 19.2.1, SVG Export Plug-In . SVG Version: 6.00 Build 0)  -->
<svg version="1.1" id="Layer_1" xmlns="http://www.w3.org/2000/svg" xmlns:xlink="http://www.w3.org/1999/xlink" x="0px" y="0px"
	 viewBox="0 0 167 167" style="enable-background:new 0 0 167 167;" xml:space="preserve">
<style type="text/css">
	.st0{fill:url(#SVGID_1_);}
	.st1{fill:url(#SVGID_2_);}
	.st2{fill:url(#SVGID_3_);stroke:#000000;stroke-miterlimit:10;}
	.st3{fill:url(#SVGID_4_);}
	.st4{fill:url(#SVGID_5_);}
	.st5{fill:url(#SVGID_6_);}
	.st6{fill:url(#SVGID_7_);}
	.st7{fill:#FAA41A;}
	.st8{fill:url(#SVGID_8_);}
	.st9{fill:url(#SVGID_9_);}
	.st10{fill:url(#SVGID_10_);}
	.st11{fill:url(#SVGID_11_);}
	.st12{fill:url(#SVGID_12_);}
</style>
<linearGradient id="SVGID_1_" gradientUnits="userSpaceOnUse" x1="121.7514" y1="149.4975" x2="45.9136" y2="18.1426">
	<stop  offset="0" style="stop-color:#F7941E"/>
	<stop  offset="1" style="stop-color:#FFC621"/>
</linearGradient>
<polygon class="st0" points="83.8,15.6 91.8,8.4 98,17.1 107.3,11.7 111.6,21.5 121.8,18.1 124,28.6 134.6,27.5 134.6,38.1 
	145.2,39.2 142.9,49.7 153.1,53 148.7,62.7 158,68.1 151.7,76.7 159.7,83.8 151.7,91 158,99.6 148.7,104.9 153.1,114.7 142.9,117.9 
	145.2,128.4 134.6,129.5 134.6,140.2 124,139 121.8,149.5 111.6,146.2 107.3,155.9 98,150.6 91.8,159.2 83.8,152.1 75.9,159.2 
	69.6,150.6 60.4,155.9 56.1,146.2 45.9,149.5 43.7,139 33.1,140.2 33.1,129.5 22.5,128.4 24.7,117.9 14.6,114.7 18.9,104.9 
	9.7,99.6 16,91 8,83.8 16,76.7 9.7,68.1 18.9,62.7 14.6,53 24.7,49.7 22.5,39.2 33.1,38.1 33.1,27.5 43.7,28.6 45.9,18.1 56.1,21.5 
	60.4,11.7 69.6,17.1 75.9,8.4 "/>
<linearGradient id="SVGID_2_" gradientUnits="userSpaceOnUse" x1="11.2967" y1="83.8201" x2="156.3682" y2="83.8201">
	<stop  offset="0" style="stop-color:#FAA41A"/>
	<stop  offset="0.3286" style="stop-color:#FCB125"/>
	<stop  offset="0.639" style="stop-color:#FBAC21"/>
	<stop  offset="1" style="stop-color:#FCB125"/>
</linearGradient>
<polygon class="st1" points="83.8,18.5 91.4,11.7 97.4,20 106.2,14.8 110.4,24.2 120.1,21 122.2,31 132.4,29.9 132.3,40.1 
	142.5,41.2 140.4,51.2 150.1,54.3 145.9,63.6 154.8,68.7 148.8,77 156.4,83.8 148.8,90.6 154.8,98.9 145.9,104 150.1,113.3 
	140.4,116.5 142.5,126.5 132.3,127.5 132.4,137.7 122.2,136.6 120.1,146.6 110.4,143.5 106.2,152.8 97.4,147.7 91.4,156 83.8,149.1 
	76.3,156 70.3,147.7 61.4,152.8 57.3,143.5 47.6,146.6 45.5,136.6 35.3,137.7 35.3,127.5 25.1,126.5 27.3,116.5 17.6,113.3 
	21.7,104 12.9,98.9 18.9,90.6 11.3,83.8 18.9,77 12.9,68.7 21.7,63.6 17.6,54.3 27.3,51.2 25.1,41.2 35.3,40.1 35.3,29.9 45.5,31 
	47.6,21 57.3,24.2 61.4,14.8 70.3,20 76.3,11.7 "/>
<linearGradient id="SVGID_3_" gradientUnits="userSpaceOnUse" x1="83.8325" y1="145.3201" x2="83.8325" y2="22.3201">
	<stop  offset="0" style="stop-color:#F7941E"/>
	<stop  offset="1" style="stop-color:#FFC621"/>
</linearGradient>
<circle class="st2" cx="83.8" cy="83.8" r="61.5"/>
<linearGradient id="SVGID_4_" gradientUnits="userSpaceOnUse" x1="-1947.1963" y1="412.4185" x2="-1829.0826" y2="412.4185" gradientTransform="matrix(0.7071 0.7071 -0.7071 0.7071 1710.5726 1127.3123)">
	<stop  offset="0" style="stop-color:#F7941E"/>
	<stop  offset="1" style="stop-color:#FFC621"/>
</linearGradient>
<circle class="st3" cx="83.8" cy="83.8" r="59.1"/>
<circle cx="83.8" cy="83.8" r="55.5"/>
<linearGradient id="SVGID_5_" gradientUnits="userSpaceOnUse" x1="111.2254" y1="111.183" x2="56.4396" y2="56.3971">
	<stop  offset="0" style="stop-color:#F7941E"/>
	<stop  offset="1" style="stop-color:#FFC621"/>
</linearGradient>
<circle class="st4" cx="83.8" cy="83.8" r="38.7"/>
<linearGradient id="SVGID_6_" gradientUnits="userSpaceOnUse" x1="110.2753" y1="110.2328" x2="57.3897" y2="57.3473">
	<stop  offset="0" style="stop-color:#F7941E"/>
	<stop  offset="1" style="stop-color:#FFC621"/>
</linearGradient>
<circle class="st5" cx="83.8" cy="83.8" r="37.4"/>
<linearGradient id="SVGID_7_" gradientUnits="userSpaceOnUse" x1="77.2884" y1="78.7574" x2="109.4137" y2="110.8827">
	<stop  offset="0" style="stop-color:#FAA41A"/>
	<stop  offset="1" style="stop-color:#FCB125"/>
</linearGradient>
<path class="st6" d="M67.6,101.9c0,6.7,2,12.9,5.5,18.1c3.3,0.9,6.7,1.4,10.2,1.4c20.7,0,37.4-16.7,37.4-37.4c0-2.8-0.3-5.5-0.9-8.2
	c-5.5-4.1-12.3-6.6-19.6-6.6C82.2,69.3,67.6,83.9,67.6,101.9z"/>
<g>
	<path class="st7" d="M57.1,50.7l-1,0.9l-2.6-1.2L51,49.1l1.2,2.6l1,2.6l-1,0.9l-8-4l1.3-1.2l5.6,3.1l-2.7-5.8l0.8-0.7l5.7,3
		l-2.7-5.7l1.3-1.2L57.1,50.7z"/>
	<path class="st7" d="M64.5,44l-3.9,2l0.1,1.7l-1.5,0.8l-0.5-9.2l1.5-0.8l7.2,5.7l-1.5,0.8L64.5,44z M60.3,40.5l0.3,3.9l2.8-1.4
		L60.3,40.5z"/>
	<path class="st7" d="M76.2,41.7l-1.8,0.5l-3.1-2.1l-1.5,0.4l0.7,2.7L69,43.6l-2.2-8.1c1.3-0.3,2.6-0.7,3.9-1
		c1.9-0.5,3.3,0.5,3.6,1.9c0.3,1.1,0.1,2.4-1.4,3.1l3.2,2.1L76.2,41.7z M68.7,36.5l0.7,2.6l2.3-0.6c1-0.3,1.2-1,1-1.7
		c-0.2-0.6-0.8-1.2-1.7-0.9L68.7,36.5z"/>
	<path class="st7" d="M85.5,41.1l-1.9,0.1L81,38.5l-1.5,0.1l0.2,2.8l-1.6,0.1l-0.5-8.4c1.3-0.1,2.7-0.1,4-0.2c2-0.1,3.1,1.2,3.2,2.6
		c0.1,1.2-0.4,2.3-2,2.8l2.7,2.7L85.5,41.1z M79.3,34.5l0.1,2.7l2.4-0.1c1-0.1,1.4-0.8,1.4-1.4c0-0.7-0.5-1.3-1.5-1.3L79.3,34.5z"/>
	<path class="st7" d="M93.4,40.6L89,39.9l-1,1.4L86.4,41l5.1-7.7l1.7,0.3l2.4,8.9l-1.7-0.3L93.4,40.6z M92,35.2l-2.1,3.3L93,39
		L92,35.2z"/>
	<path class="st7" d="M105.3,37.3l1.5,0.6l-3.2,7.8l-0.9-0.4l0,0l-1.9-6.9l-2.1,5.2l-1.5-0.6l3.2-7.8l1.2,0.5l1.8,6.4L105.3,37.3z"
		/>
	<path class="st7" d="M111.2,42.2l-2.2-1.5l0.8-1.2c2,1.3,3.7,2.5,5.7,3.8l-0.8,1.2l-2.2-1.5l-3.9,5.8l-1.3-0.9L111.2,42.2z"/>
	<path class="st7" d="M118.6,50.9l4-0.8l1.3,1.4l-0.1,0.1l-5.8,1l-2.5,2.4l-1.1-1.1l2.5-2.4l1.3-5.7l0.1-0.1l1.3,1.4L118.6,50.9z"/>
</g>
<g>
	<path d="M60.8,99.3l-5.3-8.1v0h1.2l4.6,7.1l4.6-7.1h1.2v0l-5.3,8.1v5.4h-1V99.3z"/>
	<path d="M72,97.4h8v1h-8v5.4h8.6v1H71V91.2h9.4v1H72V97.4z"/>
	<path d="M95.6,104.8l-1.5-3.3H86l-1.5,3.3h-1.1l6.1-13.6h1.1l6.1,13.6H95.6z M93.7,100.4l-3.6-8.3l-3.6,8.3H93.7z"/>
	<path d="M111.3,104.8h-1.4l-4.7-5.1h-3.7v5.1h-1V91.2c2,0,4,0,6,0c3,0,4.4,2.1,4.5,4.2c0,2.2-1.4,4.2-4.4,4.2L111.3,104.8z
		 M101.5,98.6h4.8c2.4,0,3.4-1.3,3.4-3.2c0-1.6-1.1-3.2-3.3-3.2h-4.9V98.6z"/>
</g>
<g>
	<linearGradient id="SVGID_8_" gradientUnits="userSpaceOnUse" x1="52.5149" y1="68.2046" x2="68.9666" y2="84.6562">
		<stop  offset="0" style="stop-color:#F7941E"/>
		<stop  offset="1" style="stop-color:#FFC621"/>
	</linearGradient>
	<path class="st8" d="M67,86.7H56v-4.3h3.1V69.4h-3.2v-4.6h8.2v17.5H67V86.7z M57,85.7H66v-2.3h-2.9V65.8h-6.2v2.6h3.2v14.9H57V85.7
		z"/>
	<path d="M56.5,82.8h3.1V68.9h-3.2v-3.6h7.2v17.5h2.9v3.3h-9.9V82.8z"/>
</g>
<g>
	<linearGradient id="SVGID_9_" gradientUnits="userSpaceOnUse" x1="72.2268" y1="67.9571" x2="87.7575" y2="83.4878">
		<stop  offset="0" style="stop-color:#F7941E"/>
		<stop  offset="1" style="stop-color:#FFC621"/>
	</linearGradient>
	<path class="st9" d="M80,87.1c-2.5,0-4.9-0.9-6.6-2.5c-2-1.8-3-4.3-3-7.4v-3c0-3,1-5.6,3-7.4c1.7-1.6,4.1-2.5,6.6-2.5
		c4.7,0,9.7,3.1,9.7,9.8v3C89.6,84,84.6,87.1,80,87.1z M80,65.4c-2.3,0-4.4,0.8-5.9,2.2c-1.8,1.6-2.7,3.9-2.7,6.6v3
		c0,2.7,0.9,5,2.7,6.6c1.6,1.4,3.7,2.2,5.9,2.2c4.2,0,8.7-2.8,8.7-8.8v-3C88.6,68.2,84.1,65.4,80,65.4z"/>
	<linearGradient id="SVGID_10_" gradientUnits="userSpaceOnUse" x1="84.9931" y1="80.7683" x2="74.9393" y2="70.7146">
		<stop  offset="0" style="stop-color:#F7941E"/>
		<stop  offset="1" style="stop-color:#FFC621"/>
	</linearGradient>
	<path class="st10" d="M80,68.1c-1.5,0-2.9,0.5-3.9,1.5c-1.2,1.1-1.8,2.7-1.8,4.6v3c0,1.9,0.6,3.5,1.8,4.6c1,1,2.4,1.6,4,1.6
		c2.9,0,5.7-2.1,5.7-6.2v-3C85.7,70.2,82.8,68.1,80,68.1z M84.7,77.2c0,3.6-2.5,5.2-4.7,5.2c-2.3,0-4.7-1.6-4.7-5.2v-3
		c0-3.5,2.4-5.1,4.7-5.1c2.3,0,4.8,1.6,4.8,5.1V77.2z"/>
	<path d="M70.8,74.2c0-12.5,18.3-12.4,18.3,0v3c0,12.4-18.3,12.5-18.3,0V74.2z M74.7,77.2c0,7.6,10.5,7.6,10.5,0v-3
		c0-7.5-10.5-7.5-10.5,0V77.2z"/>
</g>
<g>
	<linearGradient id="SVGID_11_" gradientUnits="userSpaceOnUse" x1="94.8443" y1="67.9571" x2="110.375" y2="83.4878">
		<stop  offset="0" style="stop-color:#F7941E"/>
		<stop  offset="1" style="stop-color:#FFC621"/>
	</linearGradient>
	<path class="st11" d="M102.6,87.1c-2.5,0-4.9-0.9-6.6-2.5c-2-1.8-3-4.3-3-7.4v-3c0-3,1-5.6,3-7.4c1.7-1.6,4.1-2.5,6.6-2.5
		c4.7,0,9.7,3.1,9.7,9.8v3C112.2,84,107.2,87.1,102.6,87.1z M102.6,65.4c-2.3,0-4.4,0.8-5.9,2.2c-1.8,1.6-2.7,3.9-2.7,6.6v3
		c0,2.7,0.9,5,2.7,6.6c1.6,1.4,3.7,2.2,5.9,2.2c4.2,0,8.7-2.8,8.7-8.8v-3C111.2,68.2,106.8,65.4,102.6,65.4z"/>
	<linearGradient id="SVGID_12_" gradientUnits="userSpaceOnUse" x1="107.6106" y1="80.7683" x2="97.5568" y2="70.7146">
		<stop  offset="0" style="stop-color:#F7941E"/>
		<stop  offset="1" style="stop-color:#FFC621"/>
	</linearGradient>
	<path class="st12" d="M102.6,68.1c-1.5,0-2.9,0.5-3.9,1.5c-1.2,1.1-1.8,2.7-1.8,4.6v3c0,1.9,0.6,3.5,1.8,4.6c1,1,2.4,1.6,4,1.6
		c2.9,0,5.7-2.1,5.7-6.2v-3C108.3,70.2,105.4,68.1,102.6,68.1z M107.3,77.2c0,3.6-2.5,5.2-4.7,5.2c-2.3,0-4.7-1.6-4.7-5.2v-3
		c0-3.5,2.4-5.1,4.7-5.1c2.3,0,4.8,1.6,4.8,5.1V77.2z"/>
	<path d="M93.4,74.2c0-12.5,18.3-12.4,18.3,0v3c0,12.4-18.3,12.5-18.3,0V74.2z M97.4,77.2c0,7.6,10.5,7.6,10.5,0v-3
		c0-7.5-10.5-7.5-10.5,0V77.2z"/>
</g>
<g>
	<g>
		<path class="st7" d="M124.3,59.4c0.6,0,1.4,0.6,1.9,1.6c0.5,1,0.4,2,0.1,2.4c-0.6-0.1-1.3-0.7-1.8-1.7
			C124,60.8,124,59.8,124.3,59.4z"/>
	</g>
	<g>
		<path class="st7" d="M128.9,69.9c0,0-0.5-1.7-1.1-3.3c-0.6-1.7-1.3-3.3-1.3-3.3l-0.3,0.1c0,0,0.7,1.6,1.3,3.3
			c0.6,1.6,1.1,3.3,1.1,3.3L128.9,69.9z"/>
		<g>
			<path class="st7" d="M129.7,62.3c-0.6,0.1-1.4,0.8-1.9,1.8c-0.5,1-0.5,2-0.2,2.4c0.6-0.1,1.4-0.7,1.9-1.7
				C130.1,63.8,130,62.7,129.7,62.3z"/>
			<path class="st7" d="M123.1,64.9c0.5-0.3,1.5-0.4,2.6,0c1.1,0.4,1.8,1.1,1.8,1.7c-0.5,0.3-1.6,0.3-2.6-0.1
				C123.8,66,123.2,65.3,123.1,64.9z"/>
		</g>
		<g>
			<path class="st7" d="M124.3,67.9c0.5-0.3,1.6-0.3,2.6,0.1c1.1,0.5,1.7,1.2,1.7,1.8l0,0c-0.5,0.3-1.6,0.2-2.6-0.3
				C125,69.1,124.4,68.4,124.3,67.9z"/>
			<path class="st7" d="M131,65.7c-0.6,0.1-1.4,0.7-2,1.7c-0.6,1-0.6,2-0.3,2.4l0,0c0.6,0,1.5-0.6,2-1.6
				C131.3,67.2,131.3,66.1,131,65.7z"/>
		</g>
	</g>
	<g>
		<path class="st7" d="M130.5,76.6c0,0-0.1-0.4-0.2-1.1c-0.1-0.6-0.3-1.5-0.5-2.4c-0.4-1.7-0.9-3.4-0.9-3.4l-0.3,0.1
			c0,0,0.5,1.7,0.9,3.4c0.2,0.8,0.4,1.7,0.5,2.4c0.1,0.6,0.2,1.1,0.2,1.1L130.5,76.6z"/>
		<g>
			<path class="st7" d="M132.2,69.1c-0.6,0-1.4,0.6-2.1,1.6c-0.6,1-0.8,1.9-0.5,2.4c0.6,0,1.5-0.5,2.1-1.5
				C132.4,70.6,132.5,69.6,132.2,69.1z"/>
			<path class="st7" d="M125.3,71c0.5-0.2,1.6-0.2,2.6,0.3c1.1,0.5,1.6,1.3,1.6,1.8c-0.5,0.2-1.6,0.1-2.6-0.4
				C125.9,72.2,125.4,71.5,125.3,71z"/>
		</g>
		<g>
			<path class="st7" d="M126.2,74.1c0.5-0.2,1.6-0.1,2.6,0.4c1,0.6,1.6,1.4,1.5,1.9l0,0c-0.5,0.2-1.6,0-2.6-0.5
				C126.7,75.4,126.2,74.6,126.2,74.1z"/>
			<path class="st7" d="M133.2,72.7c-0.6,0-1.5,0.5-2.2,1.5c-0.7,0.9-0.9,1.9-0.7,2.3l0,0c0.6,0,1.5-0.4,2.2-1.4
				C133.3,74.2,133.4,73.1,133.2,72.7z"/>
		</g>
	</g>
	<g>
		<path class="st7" d="M131.2,83.5c0,0,0-1.8-0.2-3.5c-0.1-0.9-0.2-1.7-0.3-2.4c-0.1-0.7-0.2-1.1-0.2-1.1l-0.3,0
			c0,0,0.1,0.4,0.2,1.1c0.1,0.6,0.2,1.5,0.3,2.4c0.2,1.7,0.2,3.5,0.2,3.5L131.2,83.5z"/>
		<g>
			<path class="st7" d="M133.9,76.2c-0.6,0-1.5,0.4-2.2,1.3c-0.8,0.9-1,1.8-0.8,2.3c0.6,0.1,1.6-0.3,2.3-1.2
				C133.9,77.7,134.1,76.7,133.9,76.2z"/>
			<path class="st7" d="M126.8,77.3c0.5-0.2,1.6-0.1,2.6,0.6c1,0.6,1.4,1.5,1.3,2c-0.5,0.2-1.6-0.1-2.5-0.7
				C127.3,78.5,126.8,77.7,126.8,77.3z"/>
		</g>
		<g>
			<path class="st7" d="M127.3,80.5c0.6-0.1,1.6,0,2.5,0.7c0.9,0.7,1.3,1.6,1.2,2.1l0,0c-0.5,0.1-1.6-0.2-2.5-0.9
				C127.6,81.7,127.2,80.9,127.3,80.5z"/>
			<path class="st7" d="M134.4,79.9c-0.6-0.1-1.6,0.4-2.4,1.2c-0.8,0.8-1.1,1.8-1,2.2l0,0c0.6,0.1,1.6-0.2,2.4-1.1
				C134.3,81.4,134.5,80.4,134.4,79.9z"/>
		</g>
	</g>
	<g>
		<path class="st7" d="M130.8,90.3c0,0,0-0.4,0.1-1.1c0.1-0.7,0.1-1.5,0.2-2.4c0.1-1.8,0-3.5,0-3.5l-0.3,0c0,0,0.1,1.7,0,3.5
			c0,0.9-0.1,1.7-0.2,2.4c-0.1,0.7-0.1,1.1-0.1,1.1L130.8,90.3z"/>
		<g>
			<path class="st7" d="M134.6,83.5c-0.6-0.1-1.6,0.3-2.4,1c-0.9,0.8-1.2,1.7-1.1,2.2c0.5,0.1,1.6-0.1,2.5-0.9
				C134.4,85,134.7,84,134.6,83.5z"/>
			<path class="st7" d="M127.5,83.6c0.6-0.1,1.6,0.1,2.5,0.9c0.9,0.8,1.2,1.7,1,2.2c-0.6,0.1-1.5-0.3-2.4-1
				C127.7,84.9,127.4,84.1,127.5,83.6z"/>
		</g>
		<g>
			<path class="st7" d="M127.4,86.8c0.6-0.1,1.6,0.3,2.4,1.1c0.8,0.8,1.1,1.8,0.9,2.2l0,0c-0.6,0.1-1.5-0.4-2.3-1.2
				C127.6,88.1,127.3,87.3,127.4,86.8z"/>
			<path class="st7" d="M134.5,87.2c-0.6-0.1-1.6,0.1-2.5,0.9c-0.9,0.7-1.4,1.6-1.3,2.1l0,0c0.5,0.2,1.6,0,2.5-0.7
				C134.2,88.7,134.6,87.7,134.5,87.2z"/>
		</g>
	</g>
	<g>
		<path class="st7" d="M129.3,97.1c0,0,0.1-0.4,0.3-1.1c0.2-0.6,0.4-1.5,0.6-2.4c0.2-0.9,0.3-1.7,0.4-2.4c0.1-0.7,0.2-1.1,0.2-1.1
			l-0.3,0c0,0,0,0.4-0.2,1.1c-0.1,0.6-0.2,1.5-0.4,2.4c-0.2,0.9-0.4,1.7-0.6,2.3c-0.2,0.6-0.3,1.1-0.3,1.1L129.3,97.1z"/>
		<g>
			<path class="st7" d="M134.2,90.8c-0.5-0.2-1.6,0-2.6,0.7c-1,0.7-1.5,1.5-1.5,2c0.5,0.2,1.6,0.1,2.6-0.6
				C133.7,92.3,134.2,91.4,134.2,90.8z"/>
			<path class="st7" d="M127.1,90c0.6,0,1.6,0.4,2.3,1.2c0.7,0.9,1,1.8,0.7,2.3c-0.6,0-1.5-0.5-2.2-1.3
				C127.1,91.3,126.9,90.4,127.1,90z"/>
		</g>
		<g>
			<path class="st7" d="M126.5,93.1c0.6,0,1.5,0.5,2.2,1.4c0.7,0.9,0.7,1.9,0.5,2.3l0,0c-0.6,0-1.5-0.6-2.1-1.5
				C126.5,94.4,126.3,93.5,126.5,93.1z"/>
			<path class="st7" d="M133.5,94.5c-0.5-0.2-1.6-0.1-2.6,0.5c-1,0.6-1.7,1.4-1.6,1.9l0,0c0.5,0.3,1.6,0.2,2.6-0.4
				C133,95.9,133.5,95,133.5,94.5z"/>
		</g>
	</g>
	<g>
		<path class="st7" d="M126.8,103.5c0,0,0.2-0.4,0.5-1c0.3-0.6,0.6-1.4,1-2.2c0.3-0.8,0.6-1.7,0.8-2.3c0.1-0.3,0.2-0.6,0.2-0.8
			c0.1-0.2,0.1-0.3,0.1-0.3l-0.3-0.1c0,0,0,0.1-0.1,0.3c0,0.2-0.1,0.4-0.2,0.8c-0.2,0.6-0.5,1.5-0.8,2.3c-0.4,0.8-0.7,1.6-1,2.2
			c-0.3,0.6-0.5,1-0.5,1L126.8,103.5z"/>
		<g>
			<path class="st7" d="M132.6,98.1c-0.5-0.3-1.6-0.2-2.7,0.3c-1.1,0.5-1.7,1.2-1.8,1.8c0.5,0.3,1.6,0.3,2.7-0.2
				C131.9,99.4,132.6,98.6,132.6,98.1z"/>
			<path class="st7" d="M125.7,96.2c0.6,0.1,1.5,0.6,2.1,1.5c0.6,1,0.6,2,0.3,2.4c-0.6-0.1-1.4-0.7-2-1.7
				C125.5,97.5,125.5,96.6,125.7,96.2z"/>
		</g>
		<g>
			<path class="st7" d="M124.7,99.2c0.6,0.1,1.4,0.7,1.9,1.7c0.5,1,0.4,2,0.1,2.4l0,0c-0.6-0.1-1.3-0.8-1.8-1.8
				C124.4,100.5,124.4,99.6,124.7,99.2z"/>
			<path class="st7" d="M131.3,101.6c-0.5-0.3-1.6-0.3-2.7,0.1c-1.1,0.4-1.8,1.1-1.9,1.6l0,0c0.4,0.3,1.5,0.5,2.7,0
				C130.5,102.9,131.2,102.1,131.3,101.6z"/>
		</g>
	</g>
	<g>
		<path class="st7" d="M123.2,109.5c0,0,0.2-0.4,0.6-0.9c0.4-0.6,0.9-1.3,1.3-2.1c0.4-0.8,0.9-1.5,1.2-2.1c0.3-0.6,0.5-1,0.5-1
			l-0.3-0.1c0,0-0.2,0.4-0.5,1c-0.3,0.6-0.8,1.3-1.2,2.1c-0.4,0.8-1,1.5-1.3,2.1c-0.4,0.6-0.6,0.9-0.6,0.9L123.2,109.5z"/>
		<g>
			<path class="st7" d="M129.8,104.9c-0.5-0.3-1.5-0.4-2.7-0.1c-1.2,0.3-1.9,1-2.1,1.5c0.4,0.4,1.5,0.6,2.7,0.2
				C128.9,106.2,129.7,105.5,129.8,104.9z"/>
			<path class="st7" d="M123.3,102.1c0.6,0.1,1.3,0.8,1.8,1.8c0.4,1,0.3,2-0.1,2.4c-0.5-0.1-1.3-0.9-1.7-1.9
				C123,103.3,123,102.5,123.3,102.1z"/>
		</g>
		<g>
			<path class="st7" d="M121.8,104.9c0.5,0.2,1.3,0.9,1.6,2c0.3,1.1,0.1,2-0.3,2.4l0,0c-0.5-0.2-1.2-1-1.5-2
				C121.3,106.1,121.5,105.3,121.8,104.9z"/>
			<path class="st7" d="M128,108.2c-0.4-0.4-1.5-0.5-2.7-0.3c-1.2,0.3-2,0.8-2.2,1.3l0,0c0.4,0.4,1.4,0.7,2.6,0.4
				C127,109.4,127.8,108.8,128,108.2z"/>
		</g>
	</g>
</g>
<g>
	<g>
		<path class="st7" d="M43.6,60c-0.6,0-1.4,0.6-1.9,1.6c-0.5,1-0.4,2-0.1,2.4c0.6-0.1,1.3-0.7,1.8-1.7C43.9,61.4,43.8,60.4,43.6,60z
			"/>
	</g>
	<g>
		<path class="st7" d="M39,70.5c0,0,0.5-1.7,1.1-3.3c0.6-1.7,1.3-3.3,1.3-3.3l0.3,0.1c0,0-0.7,1.6-1.3,3.3c-0.6,1.6-1.1,3.3-1.1,3.3
			L39,70.5z"/>
		<g>
			<path class="st7" d="M38.2,62.9c0.6,0.1,1.4,0.8,1.9,1.8c0.5,1,0.5,2,0.2,2.4c-0.6-0.1-1.4-0.7-1.9-1.7
				C37.8,64.4,37.9,63.3,38.2,62.9z"/>
			<path class="st7" d="M44.8,65.5c-0.5-0.3-1.5-0.4-2.6,0c-1.1,0.4-1.8,1.1-1.8,1.7c0.5,0.3,1.6,0.3,2.6-0.1
				C44.1,66.6,44.7,65.9,44.8,65.5z"/>
		</g>
		<g>
			<path class="st7" d="M43.6,68.5c-0.5-0.3-1.6-0.3-2.6,0.1c-1.1,0.5-1.7,1.2-1.7,1.8l0,0c0.5,0.3,1.6,0.2,2.6-0.3
				C42.9,69.7,43.5,69,43.6,68.5z"/>
			<path class="st7" d="M36.8,66.3c0.6,0.1,1.4,0.7,2,1.7c0.6,1,0.6,2,0.3,2.4l0,0c-0.6,0-1.5-0.6-2-1.6
				C36.5,67.8,36.5,66.7,36.8,66.3z"/>
		</g>
	</g>
	<g>
		<path class="st7" d="M37.4,77.2c0,0,0.1-0.4,0.2-1.1c0.1-0.6,0.3-1.5,0.5-2.4c0.4-1.7,0.9-3.4,0.9-3.4l0.3,0.1
			c0,0-0.5,1.7-0.9,3.4c-0.2,0.8-0.4,1.7-0.5,2.4c-0.1,0.6-0.2,1.1-0.2,1.1L37.4,77.2z"/>
		<g>
			<path class="st7" d="M35.7,69.7c0.6,0,1.4,0.6,2.1,1.6c0.6,1,0.8,1.9,0.5,2.4c-0.6,0-1.5-0.5-2.1-1.5
				C35.5,71.2,35.4,70.2,35.7,69.7z"/>
			<path class="st7" d="M42.5,71.6c-0.5-0.2-1.6-0.2-2.6,0.3c-1.1,0.5-1.6,1.3-1.6,1.8c0.5,0.2,1.6,0.1,2.6-0.4
				C41.9,72.8,42.5,72,42.5,71.6z"/>
		</g>
		<g>
			<path class="st7" d="M41.7,74.7c-0.5-0.2-1.6-0.1-2.6,0.4c-1,0.6-1.6,1.4-1.5,1.9l0,0c0.5,0.2,1.6,0,2.6-0.5
				C41.2,76,41.7,75.2,41.7,74.7z"/>
			<path class="st7" d="M34.7,73.3c0.6,0,1.5,0.5,2.2,1.5c0.7,0.9,0.9,1.9,0.7,2.3l0,0c-0.6,0-1.5-0.4-2.2-1.4
				C34.6,74.8,34.5,73.7,34.7,73.3z"/>
		</g>
	</g>
	<g>
		<path class="st7" d="M36.7,84.1c0,0,0-1.8,0.2-3.5c0.1-0.9,0.2-1.7,0.3-2.4c0.1-0.7,0.2-1.1,0.2-1.1l0.3,0c0,0-0.1,0.4-0.2,1.1
			c-0.1,0.6-0.2,1.5-0.3,2.4c-0.2,1.7-0.2,3.5-0.2,3.5L36.7,84.1z"/>
		<g>
			<path class="st7" d="M34,76.8c0.6,0,1.5,0.4,2.2,1.3c0.8,0.9,1,1.8,0.8,2.3c-0.6,0.1-1.6-0.3-2.3-1.2C34,78.3,33.8,77.3,34,76.8z
				"/>
			<path class="st7" d="M41,77.9c-0.5-0.2-1.6-0.1-2.6,0.6c-1,0.6-1.4,1.5-1.3,2c0.5,0.2,1.6-0.1,2.5-0.7
				C40.6,79.1,41.1,78.3,41,77.9z"/>
		</g>
		<g>
			<path class="st7" d="M40.6,81.1c-0.6-0.1-1.6,0-2.5,0.7c-0.9,0.7-1.3,1.6-1.2,2.1l0,0c0.5,0.1,1.6-0.2,2.5-0.9
				C40.3,82.3,40.7,81.5,40.6,81.1z"/>
			<path class="st7" d="M33.5,80.4c0.6-0.1,1.6,0.4,2.4,1.2c0.8,0.8,1.1,1.8,1,2.2l0,0c-0.6,0.1-1.6-0.2-2.4-1.1
				C33.6,82,33.4,81,33.5,80.4z"/>
		</g>
	</g>
	<g>
		<path class="st7" d="M37.1,90.9c0,0,0-0.4-0.1-1.1c-0.1-0.7-0.1-1.5-0.2-2.4c-0.1-1.8,0-3.5,0-3.5l0.3,0c0,0-0.1,1.7,0,3.5
			c0,0.9,0.1,1.7,0.2,2.4c0.1,0.7,0.1,1.1,0.1,1.1L37.1,90.9z"/>
		<g>
			<path class="st7" d="M33.3,84.1c0.6-0.1,1.6,0.3,2.4,1c0.9,0.8,1.2,1.7,1.1,2.2c-0.5,0.1-1.6-0.1-2.5-0.9
				C33.5,85.6,33.1,84.6,33.3,84.1z"/>
			<path class="st7" d="M40.4,84.2c-0.6-0.1-1.6,0.1-2.5,0.9c-0.9,0.8-1.2,1.7-1,2.2c0.6,0.1,1.5-0.3,2.4-1
				C40.2,85.5,40.5,84.7,40.4,84.2z"/>
		</g>
		<g>
			<path class="st7" d="M40.5,87.4c-0.6-0.1-1.6,0.3-2.4,1.1c-0.8,0.8-1.1,1.8-0.9,2.2l0,0c0.6,0.1,1.5-0.4,2.3-1.2
				C40.3,88.7,40.6,87.9,40.5,87.4z"/>
			<path class="st7" d="M33.3,87.8c0.6-0.1,1.6,0.1,2.5,0.9c0.9,0.7,1.4,1.6,1.3,2.1l0,0c-0.5,0.2-1.6,0-2.5-0.7
				C33.6,89.3,33.3,88.3,33.3,87.8z"/>
		</g>
	</g>
	<g>
		<path class="st7" d="M38.5,97.7c0,0-0.1-0.4-0.3-1.1c-0.2-0.6-0.4-1.5-0.6-2.4c-0.2-0.9-0.3-1.7-0.4-2.4c-0.1-0.7-0.2-1.1-0.2-1.1
			l0.3,0c0,0,0,0.4,0.2,1.1c0.1,0.6,0.2,1.5,0.4,2.4c0.2,0.9,0.4,1.7,0.6,2.3c0.2,0.6,0.3,1.1,0.3,1.1L38.5,97.7z"/>
		<g>
			<path class="st7" d="M33.7,91.4c0.5-0.2,1.6,0,2.6,0.7c1,0.7,1.5,1.5,1.5,2c-0.5,0.2-1.6,0.1-2.6-0.6
				C34.1,92.9,33.6,92,33.7,91.4z"/>
			<path class="st7" d="M40.8,90.6c-0.6,0-1.6,0.4-2.3,1.2c-0.7,0.9-1,1.8-0.7,2.3c0.6,0,1.5-0.5,2.2-1.3
				C40.7,91.9,40.9,91,40.8,90.6z"/>
		</g>
		<g>
			<path class="st7" d="M41.3,93.7c-0.6,0-1.5,0.5-2.2,1.4c-0.7,0.9-0.7,1.9-0.5,2.3l0,0c0.6,0,1.5-0.6,2.1-1.5
				C41.4,95,41.5,94.1,41.3,93.7z"/>
			<path class="st7" d="M34.3,95.1c0.5-0.2,1.6-0.1,2.6,0.5c1,0.6,1.7,1.4,1.6,1.9l0,0c-0.5,0.3-1.6,0.2-2.6-0.4
				C34.9,96.5,34.3,95.6,34.3,95.1z"/>
		</g>
	</g>
	<g>
		<path class="st7" d="M41.1,104.1c0,0-0.2-0.4-0.5-1c-0.3-0.6-0.6-1.4-1-2.2c-0.3-0.8-0.6-1.7-0.8-2.3c-0.1-0.3-0.2-0.6-0.2-0.8
			c-0.1-0.2-0.1-0.3-0.1-0.3l0.3-0.1c0,0,0,0.1,0.1,0.3c0,0.2,0.1,0.4,0.2,0.8c0.2,0.6,0.5,1.5,0.8,2.3c0.4,0.8,0.7,1.6,1,2.2
			c0.3,0.6,0.5,1,0.5,1L41.1,104.1z"/>
		<g>
			<path class="st7" d="M35.3,98.6c0.5-0.3,1.6-0.2,2.7,0.3c1.1,0.5,1.7,1.2,1.8,1.8c-0.5,0.3-1.6,0.3-2.7-0.2
				C36,100,35.3,99.2,35.3,98.6z"/>
			<path class="st7" d="M42.1,96.8c-0.6,0.1-1.5,0.6-2.1,1.5c-0.6,1-0.6,2-0.3,2.4c0.6-0.1,1.4-0.7,2-1.7
				C42.3,98.1,42.3,97.2,42.1,96.8z"/>
		</g>
		<g>
			<path class="st7" d="M43.2,99.8c-0.6,0.1-1.4,0.7-1.9,1.7c-0.5,1-0.4,2-0.1,2.4l0,0c0.6-0.1,1.3-0.8,1.8-1.8
				C43.5,101.1,43.5,100.2,43.2,99.8z"/>
			<path class="st7" d="M36.5,102.2c0.5-0.3,1.6-0.3,2.7,0.1c1.1,0.4,1.8,1.1,1.9,1.6l0,0c-0.4,0.3-1.5,0.5-2.7,0
				C37.3,103.5,36.6,102.7,36.5,102.2z"/>
		</g>
	</g>
	<g>
		<path class="st7" d="M44.7,110.1c0,0-0.2-0.4-0.6-0.9c-0.4-0.6-0.9-1.3-1.3-2.1c-0.4-0.8-0.9-1.5-1.2-2.1c-0.3-0.6-0.5-1-0.5-1
			l0.3-0.1c0,0,0.2,0.4,0.5,1c0.3,0.6,0.8,1.3,1.2,2.1c0.4,0.8,1,1.5,1.3,2.1c0.4,0.6,0.6,0.9,0.6,0.9L44.7,110.1z"/>
		<g>
			<path class="st7" d="M38.1,105.5c0.5-0.3,1.5-0.4,2.7-0.1c1.2,0.3,1.9,1,2.1,1.5c-0.4,0.4-1.5,0.6-2.7,0.2
				C39,106.8,38.2,106.1,38.1,105.5z"/>
			<path class="st7" d="M44.5,102.7c-0.6,0.1-1.3,0.8-1.8,1.8c-0.4,1-0.3,2,0.1,2.4c0.5-0.1,1.3-0.9,1.7-1.9
				C44.9,103.9,44.8,103,44.5,102.7z"/>
		</g>
		<g>
			<path class="st7" d="M46.1,105.5c-0.5,0.2-1.3,0.9-1.6,2c-0.3,1.1-0.1,2,0.3,2.4l0,0c0.5-0.2,1.2-1,1.5-2
				C46.6,106.7,46.4,105.9,46.1,105.5z"/>
			<path class="st7" d="M39.9,108.8c0.4-0.4,1.5-0.5,2.7-0.3c1.2,0.3,2,0.8,2.2,1.3l0,0c-0.4,0.4-1.4,0.7-2.6,0.4
				C40.9,110,40,109.3,39.9,108.8z"/>
		</g>
	</g>
</g>
<g>
	<path class="st7" d="M53.3,125.2l-1-0.9l0.9-2.7l1-2.6l-2.4,1.5l-2.5,1.3l-1-0.9l3.1-8.4l1.4,1.1l-2.4,5.9l5.5-3.3l0.8,0.7l-2.3,6
		l5.4-3.4l1.4,1.1L53.3,125.2z"/>
	<path class="st7" d="M63.9,129.5l-3.9-1.9l-1.3,1.1l-1.5-0.8l7.1-5.9l1.5,0.8l-0.3,9.2l-1.5-0.8L63.9,129.5z M64.2,124l-3,2.5
		l2.8,1.4L64.2,124z"/>
	<path class="st7" d="M75.5,134.7l-1.8-0.5L72,131l-1.5-0.4l-0.7,2.7l-1.5-0.4l2-8.2c1.3,0.3,2.6,0.7,3.9,1c1.9,0.5,2.6,2,2.3,3.4
		c-0.3,1.1-1.1,2.1-2.7,2l1.8,3.4L75.5,134.7z M71.5,126.6l-0.7,2.6l2.3,0.6c1,0.2,1.6-0.3,1.7-1c0.2-0.7-0.1-1.4-1.1-1.7
		L71.5,126.6z"/>
	<path class="st7" d="M86.4,135.4l-1.9-0.1l-2.4-2.9l-1.5-0.1l-0.1,2.8l-1.6-0.1l0.3-8.4c1.3,0,2.7,0.1,4,0.1c2,0.1,3,1.4,2.9,2.9
		c0,1.2-0.6,2.3-2.2,2.6l2.4,3L86.4,135.4z M80.7,128.3l-0.1,2.7l2.4,0.1c1,0,1.5-0.6,1.5-1.3c0-0.7-0.4-1.4-1.4-1.4L80.7,128.3z"/>
	<path class="st7" d="M94.9,132.6l-4.3,0.8l-0.4,1.7l-1.7,0.3l2.3-8.9l1.7-0.3l5.2,7.6l-1.7,0.3L94.9,132.6z M91.8,128l-0.9,3.8
		l3.1-0.5L91.8,128z"/>
	<path class="st7" d="M102.1,123.1l1.5-0.6l3.2,7.8l-0.9,0.4l0,0l-6.2-3.6l2.1,5.3l-1.5,0.6l-3.2-7.8l1.2-0.5l5.8,3.3L102.1,123.1z"
		/>
	<path class="st7" d="M108.2,121.4l-2.2,1.5l-0.8-1.2c2-1.3,3.7-2.5,5.8-3.8l0.8,1.2l-2.2,1.5l3.9,5.8l-1.3,0.9L108.2,121.4z"/>
	<path class="st7" d="M117.4,116.5l-0.9-4l1.3-1.4l0.1,0l1.1,5.8l2.5,2.4l-1.1,1.1l-2.5-2.4l-5.7-1.1l-0.1-0.1l1.3-1.3L117.4,116.5z
		"/>
</g>
</svg>
