<?xml version="1.0" encoding="utf-8"?>
<!-- Generator: Adobe Illustrator 19.2.1, SVG Export Plug-In . SVG Version: 6.00 Build 0)  -->
<svg version="1.1" id="Layer_1" xmlns="http://www.w3.org/2000/svg" xmlns:xlink="http://www.w3.org/1999/xlink" x="0px" y="0px"
	 viewBox="0 0 974 262" style="enable-background:new 0 0 974 262;" xml:space="preserve">
<style type="text/css">
	.st0{clip-path:url(#SVGID_2_);}
	.st1{fill:#0D0D0D;}
</style>
<polygon points="0,5.1 639,80.9 974,20.9 974,261.9 0,261.9 "/>
<g>
	<g>
		<g>
			<defs>
				<polygon id="SVGID_1_" points="0,5 639,80.9 974,20.9 974,261.9 0,261.9 				"/>
			</defs>
			<clipPath id="SVGID_2_">
				<use xlink:href="#SVGID_1_"  style="overflow:visible;"/>
			</clipPath>
			<g class="st0">
				
					<rect x="27.7" y="194.2" transform="matrix(0.3682 -0.9298 0.9298 0.3682 -191.7949 168.4677)" class="st1" width="0.8" height="62.3"/>
				
					<rect x="346.6" y="212.8" transform="matrix(0.8998 -0.4362 0.4362 0.8998 -48.5717 214.8436)" class="st1" width="194" height="0.8"/>
				
					<rect x="417.9" y="56.9" transform="matrix(1.181919e-02 -0.9999 0.9999 1.181919e-02 243.847 585.8514)" class="st1" width="0.8" height="225.3"/>
				
					<rect x="159.6" y="38.9" transform="matrix(0.963 -0.2694 0.2694 0.963 -2.4266 60.9103)" class="st1" width="122.2" height="0.8"/>
				<rect x="80" y="-35.1" transform="matrix(0.11 -0.9939 0.9939 0.11 25.113 121.5712)" class="st1" width="0.8" height="163.7"/>
				
					<rect x="3.6" y="94.1" transform="matrix(0.483 -0.8756 0.8756 0.483 -85.2482 55.1116)" class="st1" width="0.8" height="11.3"/>
				
					<rect x="3.7" y="81.9" transform="matrix(0.8908 -0.4545 0.4545 0.8908 -41.7245 12.0061)" class="st1" width="0.8" height="21.8"/>
				
					<rect x="-0.8" y="104.5" transform="matrix(0.8949 -0.4462 0.4462 0.8949 -46.3545 12.9683)" class="st1" width="10.3" height="0.8"/>
				
					<rect x="53.6" y="115.1" transform="matrix(1.200701e-02 -0.9999 0.9999 1.200701e-02 -116.7397 222.0629)" class="st1" width="0.8" height="110"/>
				
					<rect x="-7.1" y="197.3" transform="matrix(0.8985 -0.4389 0.4389 0.8985 -81.2778 43.8091)" class="st1" width="122.4" height="0.8"/>
				
					<rect x="143.4" y="153.4" transform="matrix(0.5983 -0.8013 0.8013 0.5983 -99.8632 194.2413)" class="st1" width="0.8" height="86.6"/>
				
					<rect x="81.1" y="95.9" transform="matrix(0.7531 -0.658 0.658 0.7531 -15.3394 151.7404)" class="st1" width="226.7" height="0.8"/>
				
					<rect x="103.7" y="142.5" transform="matrix(0.9301 -0.3673 0.3673 0.9301 -39.9131 76.0646)" class="st1" width="152.4" height="0.8"/>
				
					<rect x="72.1" y="112.9" transform="matrix(0.4167 -0.909 0.909 0.4167 -24.0549 189.1357)" class="st1" width="126.6" height="0.8"/>
				
					<rect x="169.8" y="55.4" transform="matrix(0.9951 -9.895480e-02 9.895480e-02 0.9951 -12.9443 17.5258)" class="st1" width="0.8" height="167.7"/>
				
					<rect x="149.7" y="168.4" transform="matrix(0.5571 -0.8304 0.8304 0.5571 -45.1403 252.9564)" class="st1" width="129.8" height="0.8"/>
				<polygon class="st1" points="357,255.9 250.5,115.1 251.1,114.7 357.6,255.5 				"/>
				
					<rect x="267.5" y="148.2" transform="matrix(0.1817 -0.9834 0.9834 0.1817 -16.0112 459.122)" class="st1" width="0.8" height="181.9"/>
				
					<rect x="356.2" y="246" transform="matrix(0.9891 -0.1471 0.1471 0.9891 -31.7025 64.1097)" class="st1" width="122.8" height="0.8"/>
				
					<rect x="172.8" y="195.1" transform="matrix(0.9194 -0.3933 0.3933 0.9194 -57.392 110.9353)" class="st1" width="138.4" height="0.8"/>
				
					<rect x="277.7" y="103.2" transform="matrix(0.6895 -0.7243 0.7243 0.6895 -15.7488 245.1913)" class="st1" width="0.8" height="75.5"/>
				
					<rect x="216.5" y="67.9" transform="matrix(0.297 -0.9549 0.9549 0.297 121.2894 301.3115)" class="st1" width="97.6" height="0.8"/>
				
					<rect x="206" y="32" transform="matrix(0.5536 -0.8328 0.8328 0.5536 20.9812 209.9791)" class="st1" width="0.8" height="106.8"/>
				
					<rect x="58.4" y="75.4" transform="matrix(0.5649 -0.8252 0.8252 0.5649 -86.9498 107.84)" class="st1" width="0.8" height="121.9"/>
				
					<rect x="32.3" y="97.8" transform="matrix(0.9409 -0.3386 0.3386 0.9409 -55.4632 21.0864)" class="st1" width="0.8" height="143.4"/>
				
					<rect x="41" y="203.5" transform="matrix(0.6196 -0.7849 0.7849 0.6196 -128.4234 142.7601)" class="st1" width="84.1" height="0.8"/>
				
					<rect x="391.5" y="109.4" transform="matrix(0.3738 -0.9275 0.9275 0.3738 57.5734 490.3522)" class="st1" width="0.8" height="186.2"/>
				
					<rect x="292.3" y="20.6" transform="matrix(0.9848 -0.1738 0.1738 0.9848 -12.0044 52.3125)" class="st1" width="0.8" height="148.2"/>
				
					<rect x="354.7" y="-23.6" transform="matrix(0.4702 -0.8826 0.8826 0.4702 133.6824 346.1499)" class="st1" width="0.8" height="170.7"/>
				
					<rect x="297.5" y="134.5" transform="matrix(0.8849 -0.4659 0.4659 0.8849 -20.4692 187.0187)" class="st1" width="141.1" height="0.8"/>
				
					<rect x="480.1" y="74.8" transform="matrix(0.5662 -0.8243 0.8243 0.5662 96.2019 455.0952)" class="st1" width="0.8" height="122.7"/>
				
					<rect x="454" y="97.9" transform="matrix(0.9428 -0.3335 0.3335 0.9428 -30.5838 161.26)" class="st1" width="0.8" height="143.6"/>
				
					<rect x="462.2" y="203.7" transform="matrix(0.6202 -0.7844 0.7844 0.6202 31.5097 473.3096)" class="st1" width="84.8" height="0.8"/>
				
					<rect x="565" y="153.4" transform="matrix(0.5909 -0.8067 0.8067 0.5909 73.0095 536.3619)" class="st1" width="0.8" height="85.5"/>
				
					<rect x="477.8" y="229" transform="matrix(0.9915 -0.1301 0.1301 0.9915 -25.2631 72.0864)" class="st1" width="122.6" height="0.8"/>
				
					<rect x="525.2" y="142.6" transform="matrix(0.927 -0.375 0.375 0.927 -9.7053 236.1326)" class="st1" width="153.3" height="0.8"/>
				
					<rect x="688.7" y="147.6" transform="matrix(0.1877 -0.9822 0.9822 0.1877 325.5854 870.4595)" class="st1" width="0.8" height="181.5"/>
				
					<rect x="571.6" y="167.4" transform="matrix(0.5631 -0.8264 0.8264 0.5631 139.4382 599.2949)" class="st1" width="129.7" height="0.8"/>
				<polygon class="st1" points="600,221.7 599.8,221 727.9,167.6 728.2,168.3 				"/>
				
					<rect x="813.5" y="110.1" transform="matrix(0.3757 -0.9267 0.9267 0.3757 320.239 880.8566)" class="st1" width="0.8" height="185.2"/>
				<polygon class="st1" points="777.9,255.7 672.6,114.4 673.2,114 778.5,255.2 				"/>
				
					<rect x="777.5" y="246.1" transform="matrix(0.9893 -0.1458 0.1458 0.9893 -26.9746 124.9532)" class="st1" width="122.9" height="0.8"/>
				
					<rect x="883.5" y="203.6" transform="matrix(0.6202 -0.7844 0.7844 0.6202 191.7294 804.0176)" class="st1" width="85.5" height="0.8"/>
				<g>
					
						<rect x="876.1" y="98.8" transform="matrix(0.9452 -0.3264 0.3264 0.9452 -7.532 295.4096)" class="st1" width="0.8" height="142.7"/>
				</g>
				
					<rect x="839.9" y="56.8" transform="matrix(1.122264e-02 -0.9999 0.9999 1.122264e-02 661.7449 1007.5828)" class="st1" width="0.8" height="224.7"/>
				<polygon class="st1" points="728.3,168.3 727.9,167.6 853,102.3 853.3,103 				"/>
				
					<rect x="700.1" y="102.6" transform="matrix(0.6978 -0.7163 0.7163 0.6978 110.6083 544.42)" class="st1" width="0.8" height="77"/>
				
					<rect x="952.1" y="166" transform="matrix(0.938 -0.3466 0.3466 0.938 2.0513 344.2581)" class="st1" width="22.8" height="0.8"/>
				
					<rect x="949.6" y="161" transform="matrix(0.7633 -0.6461 0.6461 0.7633 123.84 660.7365)" class="st1" width="28" height="0.8"/>
				<polygon class="st1" points="953.1,170.6 952.5,170.3 973.8,123.6 974.5,123.9 				"/>
				
					<rect x="850.3" y="83.4" transform="matrix(0.955 -0.2966 0.2966 0.955 16.2587 274.7719)" class="st1" width="126.8" height="0.8"/>
				
					<rect x="873.1" y="-60" transform="matrix(0.1103 -0.9939 0.9939 0.1103 735.9844 905.0347)" class="st1" width="0.8" height="202.8"/>
				
					<rect x="680.2" y="96" transform="matrix(0.3826 -0.9239 0.9239 0.3826 378.8211 759.6907)" class="st1" width="155.2" height="0.8"/>
				
					<rect x="427.4" y="82.3" transform="matrix(0.9553 -0.2955 0.2955 0.9553 -2.3348 149.9359)" class="st1" width="135" height="0.8"/>
				
					<rect x="409.9" y="19.9" transform="matrix(0.8881 -0.4597 0.4597 0.8881 16.613 195.7523)" class="st1" width="0.8" height="87.7"/>
				
					<rect x="407.1" y="70.3" transform="matrix(0.3021 -0.9533 0.9533 0.3021 240.1349 469.4331)" class="st1" width="67.2" height="0.8"/>
				
					<rect x="256.4" y="93.9" transform="matrix(0.3879 -0.9217 0.9217 0.3879 119.1994 368.0045)" class="st1" width="160.6" height="0.8"/>
				
					<rect x="902.3" y="76" transform="matrix(0.5616 -0.8274 0.8274 0.5616 282.6144 806.8049)" class="st1" width="0.8" height="121.4"/>
				
					<rect x="967.3" y="-42.4" transform="matrix(0.9173 -0.3982 0.3982 0.9173 90.4824 383.1635)" class="st1" width="0.8" height="32.3"/>
				
					<rect x="950.9" y="-37.3" transform="matrix(0.7394 -0.6733 0.6733 0.7394 250.1817 639.6477)" class="st1" width="0.8" height="68"/>
				
					<rect x="931.3" y="-24.1" transform="matrix(0.9766 -0.2151 0.2151 0.9766 5.7844 202.1526)" class="st1" width="0.8" height="197.2"/>
				
					<rect x="810.2" y="44" transform="matrix(0.2966 -0.955 0.955 0.2966 570.4267 863.1985)" class="st1" width="122" height="0.8"/>
				
					<rect x="829.5" y="11.2" transform="matrix(0.8857 -0.4643 0.4643 0.8857 67.1508 392.1448)" class="st1" width="0.8" height="97"/>
				<polygon class="st1" points="852.3,103 738.8,43.4 739.1,42.7 852.6,102.3 				"/>
				
					<rect x="717" y="54.1" transform="matrix(0.9826 -0.1856 0.1856 0.9826 -8.2385 135.0888)" class="st1" width="0.8" height="114.9"/>
				
					<rect x="652.8" y="88.3" transform="matrix(0.284 -0.9588 0.9588 0.284 402.5094 716.52)" class="st1" width="56.4" height="0.8"/>
				
					<rect x="592.2" y="68" transform="matrix(0.9947 -0.1025 0.1025 0.9947 -11.7769 61.507)" class="st1" width="0.8" height="154.7"/>
				
					<rect x="513.7" y="125.2" transform="matrix(0.7561 -0.6544 0.6544 0.7561 60.0892 412.5046)" class="st1" width="139.7" height="0.8"/>
				
					<rect x="497.3" y="118.7" transform="matrix(0.4136 -0.9105 0.9105 0.4136 216.6869 574.7181)" class="st1" width="114.4" height="0.8"/>
				
					<rect x="517.3" y="49.2" transform="matrix(0.9772 -0.2123 0.2123 0.9772 -11.7535 112.4375)" class="st1" width="0.8" height="123.5"/>
				
					<rect x="375.3" y="-63.3" transform="matrix(0.1058 -0.9944 0.9944 0.1058 303.0572 403.1346)" class="st1" width="0.8" height="192.8"/>
				
					<rect x="279.2" y="16.7" transform="matrix(0.9712 -0.2382 0.2382 0.9712 4.6592 72.7502)" class="st1" width="48.3" height="0.8"/>
				
					<rect x="-3" y="-52.6" transform="matrix(0.7032 -0.711 0.711 0.7032 38.9363 -11.1404)" class="st1" width="18.2" height="0.8"/>
				
					<rect x="-3.8" y="-37.6" transform="matrix(0.8749 -0.4843 0.4843 0.8749 21.014 6.9747)" class="st1" width="55.6" height="0.8"/>
				
					<rect x="-46.3" y="26.5" transform="matrix(0.3021 -0.9533 0.9533 0.3021 -2.6425 50.2598)" class="st1" width="158.7" height="0.8"/>
				
					<rect x="114.9" y="-64.2" transform="matrix(0.7385 -0.6742 0.6742 0.7385 26.8743 79.0208)" class="st1" width="0.8" height="138.1"/>
				
					<rect x="85" y="-50.3" transform="matrix(0.9774 -0.2113 0.2113 0.9774 -11.066 19.4336)" class="st1" width="0.8" height="223.6"/>
				
					<rect x="140.9" y="-39.1" transform="matrix(0.9105 -0.4135 0.4135 0.9105 8.2854 59.3711)" class="st1" width="0.8" height="99.3"/>
				
					<rect x="273.5" y="11.7" transform="matrix(0.3917 -0.9201 0.9201 0.3917 161.6304 268.6461)" class="st1" width="20.9" height="0.8"/>
				
					<rect x="267.8" y="-8.1" transform="matrix(0.7779 -0.6284 0.6284 0.7779 53.8982 170.562)" class="st1" width="0.8" height="34.3"/>
				
					<rect x="151" y="22.5" transform="matrix(0.7395 -0.6731 0.6731 0.7395 36.3926 139.8698)" class="st1" width="95.8" height="0.8"/>
				
					<rect x="137.9" y="18.4" transform="matrix(0.4099 -0.9121 0.9121 0.4099 88.0698 173.7897)" class="st1" width="81" height="0.8"/>
				
					<rect x="129.4" y="16.4" transform="matrix(0.1823 -0.9832 0.9832 0.1823 121.7723 179.9566)" class="st1" width="79.4" height="0.8"/>
				
					<rect x="57.2" y="229.4" transform="matrix(0.9931 -0.1173 0.1173 0.9931 -26.1396 15.4512)" class="st1" width="122" height="0.8"/>
			</g>
		</g>
	</g>
</g>
<g>
	<polygon class="st1" points="167.1,56.6 163.6,60.6 158.5,59.6 156.8,54.6 160.2,50.7 165.4,51.7 	"/>
	<polygon class="st1" points="7,106.4 5,102.9 7,99.4 11,99.4 13,102.9 11,106.4 	"/>
	<polygon class="st1" points="106.9,174.6 104.9,171.1 106.9,167.6 110.9,167.6 112.9,171.1 110.9,174.6 	"/>
	<polygon class="st1" points="246.4,117.6 246,112.6 250.2,109.8 254.6,112 255,116.9 250.9,119.7 	"/>
	<polygon class="st1" points="307.2,171.7 303.2,170.5 302.2,166.4 305.2,163.5 309.2,164.7 310.2,168.8 	"/>
	<polygon class="st1" points="427,104.7 426.6,100.4 430.2,98 434.1,99.8 434.4,104.1 430.9,106.6 	"/>
	<polygon class="st1" points="176.5,225.9 174.5,222.4 176.5,218.9 180.5,218.9 182.5,222.4 180.5,225.9 	"/>
	<polygon class="st1" points="355.5,258.8 353.7,255.7 355.5,252.6 359.1,252.6 360.9,255.7 359.1,258.8 	"/>
	<polygon class="st1" points="475.8,241.8 473.2,237.3 475.8,232.8 481,232.8 483.5,237.3 481,241.8 	"/>
	<polygon class="st1" points="596.4,222.4 597.5,218.3 601.6,217.2 604.6,220.2 603.5,224.3 599.4,225.4 	"/>
	<polygon class="st1" points="773.2,254.1 776.5,250.5 781.2,251.5 782.7,256.1 779.4,259.7 774.7,258.7 	"/>
	<polygon class="st1" points="51.8,237.4 54,232.7 59.1,232.2 62.1,236.4 60,241.1 54.9,241.6 	"/>
	<polygon class="st1" points="529.5,176.8 525.1,172.5 526.6,166.6 532.5,164.9 536.9,169.2 535.4,175.1 	"/>
	<polygon class="st1" points="725.1,171.6 723.4,166.7 726.9,162.8 732,163.9 733.6,168.8 730.2,172.7 	"/>
	<polygon class="st1" points="670.7,118.7 668.5,114.9 670.7,111.1 675.1,111.1 677.3,114.9 675.1,118.7 	"/>
	<polygon class="st1" points="850.5,107.6 847.7,102.9 850.5,98.1 856,98.1 858.7,102.9 856,107.6 	"/>
	<polygon class="st1" points="950.8,174.4 948.8,171.1 950.8,167.7 954.6,167.7 956.5,171.1 954.6,174.4 	"/>
	<polygon class="st1" points="897.2,237.5 898.5,235.3 901,235.4 902.2,237.6 900.9,239.7 898.4,239.7 	"/>
</g>
</svg>
