<?xml version="1.0" encoding="utf-8"?>
<!-- Generator: Adobe Illustrator 19.2.1, SVG Export Plug-In . SVG Version: 6.00 Build 0)  -->
<svg version="1.1" id="Layer_1" xmlns="http://www.w3.org/2000/svg" xmlns:xlink="http://www.w3.org/1999/xlink" x="0px" y="0px"
	 viewBox="0 0 974 323" style="enable-background:new 0 0 974 323;" xml:space="preserve">
<style type="text/css">
	.st0{fill:#FFFFFF;}
	.st1{clip-path:url(#SVGID_4_);}
	.st2{fill:#F6F4F2;}
</style>
<g>
	<defs>
		<polygon id="SVGID_1_" points="0,0 639,141.9 974,15.9 974,322.9 0,322.9 		"/>
	</defs>
	<clipPath id="SVGID_2_">
		<use xlink:href="#SVGID_1_"  style="overflow:visible;"/>
	</clipPath>
</g>
<polygon class="st0" points="0,0.1 639,141.9 974,15.9 974,322.9 0,322.9 "/>
<g>
	<g>
		<defs>
			<polygon id="SVGID_3_" points="0,0 639,141.9 974,15.9 974,322.9 0,322.9 			"/>
		</defs>
		<clipPath id="SVGID_4_">
			<use xlink:href="#SVGID_3_"  style="overflow:visible;"/>
		</clipPath>
		<g class="st1">
			
				<rect x="27.7" y="255.2" transform="matrix(0.3682 -0.9298 0.9298 0.3682 -248.5376 207.0453)" class="st2" width="0.8" height="62.3"/>
			
				<rect x="346.6" y="273.8" transform="matrix(0.8998 -0.4362 0.4362 0.8998 -75.1956 220.9656)" class="st2" width="194" height="0.8"/>
			
				<rect x="417.9" y="117.9" transform="matrix(1.181883e-02 -0.9999 0.9999 1.181883e-02 182.8613 646.0859)" class="st2" width="0.8" height="225.3"/>
			
				<rect x="159.6" y="99.9" transform="matrix(0.963 -0.2694 0.2694 0.963 -18.858 63.1635)" class="st2" width="122.2" height="0.8"/>
			<rect x="80" y="25.9" transform="matrix(0.11 -0.9939 0.9939 0.11 -35.496 175.8198)" class="st2" width="0.8" height="163.7"/>
			
				<rect x="3.6" y="155.1" transform="matrix(0.483 -0.8756 0.8756 0.483 -138.6382 86.6073)" class="st2" width="0.8" height="11.3"/>
			
				<rect x="3.7" y="142.9" transform="matrix(0.8908 -0.4545 0.4545 0.8908 -69.4423 18.6543)" class="st2" width="0.8" height="21.8"/>
			
				<rect x="-0.8" y="165.5" transform="matrix(0.8949 -0.4462 0.4462 0.8949 -73.5586 19.3876)" class="st2" width="10.3" height="0.8"/>
			
				<rect x="53.7" y="176.1" transform="matrix(1.200667e-02 -0.9999 0.9999 1.200667e-02 -177.7236 282.4262)" class="st2" width="0.8" height="110"/>
			
				<rect x="-7.1" y="258.3" transform="matrix(0.8985 -0.4389 0.4389 0.8985 -108.0428 49.9913)" class="st2" width="122.4" height="0.8"/>
			
				<rect x="143.4" y="214.4" transform="matrix(0.5983 -0.8013 0.8013 0.5983 -148.7393 218.7623)" class="st2" width="0.8" height="86.6"/>
			
				<rect x="81.1" y="156.9" transform="matrix(0.7531 -0.658 0.658 0.7531 -55.4663 166.7907)" class="st2" width="226.7" height="0.8"/>
			
				<rect x="103.7" y="203.5" transform="matrix(0.9301 -0.3673 0.3673 0.9301 -62.321 80.3304)" class="st2" width="152.4" height="0.8"/>
			
				<rect x="72.1" y="173.9" transform="matrix(0.4167 -0.909 0.909 0.4167 -79.5051 224.7602)" class="st2" width="126.6" height="0.8"/>
			
				<rect x="169.8" y="116.4" transform="matrix(0.9951 -9.895560e-02 9.895560e-02 0.9951 -18.9799 17.8254)" class="st2" width="0.8" height="167.7"/>
			
				<rect x="149.7" y="229.4" transform="matrix(0.5571 -0.8304 0.8304 0.5571 -95.7936 279.9812)" class="st2" width="129.8" height="0.8"/>
			<polygon class="st2" points="357,316.9 250.5,176.1 251.1,175.7 357.6,316.5 			"/>
			
				<rect x="267.4" y="209.2" transform="matrix(0.1817 -0.9834 0.9834 0.1817 -75.9704 508.9985)" class="st2" width="0.8" height="181.9"/>
			
				<rect x="356.2" y="307" transform="matrix(0.9891 -0.1471 0.1471 0.9891 -40.6737 64.7745)" class="st2" width="122.8" height="0.8"/>
			
				<rect x="172.8" y="256.1" transform="matrix(0.9194 -0.3933 0.3933 0.9194 -81.378 115.8629)" class="st2" width="138.4" height="0.8"/>
			
				<rect x="277.7" y="164.2" transform="matrix(0.6895 -0.7243 0.7243 0.6895 -59.9287 264.1469)" class="st2" width="0.8" height="75.5"/>
			
				<rect x="216.5" y="128.9" transform="matrix(0.297 -0.9549 0.9549 0.297 63.0147 344.2162)" class="st2" width="97.6" height="0.8"/>
			
				<rect x="205.9" y="93" transform="matrix(0.5536 -0.8328 0.8328 0.5536 -29.7777 237.1786)" class="st2" width="0.8" height="106.8"/>
			
				<rect x="58.4" y="136.4" transform="matrix(0.5649 -0.8252 0.8252 0.5649 -137.2888 134.4058)" class="st2" width="0.8" height="121.9"/>
			
				<rect x="32.3" y="158.8" transform="matrix(0.9409 -0.3386 0.3386 0.9409 -76.1121 24.6968)" class="st2" width="0.8" height="143.4"/>
			
				<rect x="41" y="264.5" transform="matrix(0.6196 -0.7849 0.7849 0.6196 -176.3018 165.9303)" class="st2" width="84.1" height="0.8"/>
			
				<rect x="391.5" y="170.4" transform="matrix(0.3738 -0.9275 0.9275 0.3738 1.0474 528.5289)" class="st2" width="0.8" height="186.2"/>
			
				<rect x="292.3" y="81.6" transform="matrix(0.9848 -0.1738 0.1738 0.9848 -22.6059 53.2402)" class="st2" width="0.8" height="148.2"/>
			
				<rect x="354.8" y="37.4" transform="matrix(0.4702 -0.8826 0.8826 0.4702 79.7953 378.5133)" class="st2" width="0.8" height="170.7"/>
			
				<rect x="297.5" y="195.5" transform="matrix(0.8849 -0.4659 0.4659 0.8849 -48.8682 194.0394)" class="st2" width="141.1" height="0.8"/>
			
				<rect x="480" y="135.8" transform="matrix(0.5662 -0.8243 0.8243 0.5662 45.9438 481.5199)" class="st2" width="0.8" height="122.7"/>
			
				<rect x="454" y="158.9" transform="matrix(0.9428 -0.3335 0.3335 0.9428 -50.9182 164.7534)" class="st2" width="0.8" height="143.6"/>
			
				<rect x="462.2" y="264.7" transform="matrix(0.6202 -0.7844 0.7844 0.6202 -16.3358 496.5066)" class="st2" width="84.8" height="0.8"/>
			
				<rect x="565" y="214.4" transform="matrix(0.5909 -0.8067 0.8067 0.5909 23.837 561.3495)" class="st2" width="0.8" height="85.5"/>
			
				<rect x="477.8" y="290" transform="matrix(0.9915 -0.1301 0.1301 0.9915 -33.2007 72.6055)" class="st2" width="122.6" height="0.8"/>
			
				<rect x="525.2" y="203.6" transform="matrix(0.927 -0.375 0.375 0.927 -32.5716 240.588)" class="st2" width="153.3" height="0.8"/>
			
				<rect x="688.7" y="208.6" transform="matrix(0.1877 -0.9822 0.9822 0.1877 265.7059 920.0272)" class="st2" width="0.8" height="181.5"/>
			
				<rect x="571.6" y="228.4" transform="matrix(0.5631 -0.8264 0.8264 0.5631 89.0274 625.901)" class="st2" width="129.7" height="0.8"/>
			<polygon class="st2" points="600,282.7 599.8,282 727.9,228.6 728.2,229.3 			"/>
			
				<rect x="813.5" y="171.1" transform="matrix(0.3757 -0.9267 0.9267 0.3757 263.7707 918.9042)" class="st2" width="0.8" height="185.2"/>
			<polygon class="st2" points="777.9,316.7 672.6,175.4 673.2,175 778.5,316.2 			"/>
			
				<rect x="777.5" y="307.1" transform="matrix(0.9893 -0.1458 0.1458 0.9893 -35.8673 125.6055)" class="st2" width="122.9" height="0.8"/>
			
				<rect x="883.5" y="264.6" transform="matrix(0.6202 -0.7844 0.7844 0.6202 143.8812 827.1993)" class="st2" width="85.5" height="0.8"/>
			<g>
				
					<rect x="876.1" y="159.8" transform="matrix(0.9452 -0.3264 0.3264 0.9452 -27.4394 298.7548)" class="st2" width="0.8" height="142.7"/>
			</g>
			
				<rect x="840" y="117.8" transform="matrix(1.122222e-02 -0.9999 0.9999 1.122222e-02 600.7917 1067.9177)" class="st2" width="0.8" height="224.7"/>
			<polygon class="st2" points="728.3,229.3 727.9,228.6 853,163.3 853.3,164 			"/>
			
				<rect x="700.1" y="163.6" transform="matrix(0.6978 -0.7163 0.7163 0.6978 66.935 562.8685)" class="st2" width="0.8" height="77"/>
			
				<rect x="952.1" y="227" transform="matrix(0.938 -0.3466 0.3466 0.938 -19.1076 348.0422)" class="st2" width="22.8" height="0.8"/>
			
				<rect x="949.5" y="222" transform="matrix(0.7633 -0.6461 0.6461 0.7633 84.4287 675.1356)" class="st2" width="28" height="0.8"/>
			<polygon class="st2" points="953.1,231.6 952.5,231.3 973.8,184.6 974.5,184.9 			"/>
			
				<rect x="850.3" y="144.4" transform="matrix(0.955 -0.2966 0.2966 0.955 -1.841 277.5219)" class="st2" width="126.8" height="0.8"/>
			
				<rect x="873.1" y="1.1" transform="matrix(0.1103 -0.9939 0.9939 0.1103 675.2848 959.2933)" class="st2" width="0.8" height="202.8"/>
			
				<rect x="680.2" y="157" transform="matrix(0.3826 -0.9239 0.9239 0.3826 322.4809 797.3087)" class="st2" width="155.2" height="0.8"/>
			
				<rect x="427.4" y="143.3" transform="matrix(0.9553 -0.2955 0.2955 0.9553 -20.362 152.6587)" class="st2" width="135" height="0.8"/>
			
				<rect x="409.9" y="80.9" transform="matrix(0.8881 -0.4597 0.4597 0.8881 -11.4224 202.5833)" class="st2" width="0.8" height="87.7"/>
			
				<rect x="407" y="131.3" transform="matrix(0.3021 -0.9533 0.9533 0.3021 182.0144 511.9525)" class="st2" width="67.2" height="0.8"/>
			
				<rect x="256.4" y="154.8" transform="matrix(0.3879 -0.9217 0.9217 0.3879 63.0171 405.3911)" class="st2" width="160.6" height="0.8"/>
			
				<rect x="902.3" y="137" transform="matrix(0.5616 -0.8274 0.8274 0.5616 232.1351 833.5721)" class="st2" width="0.8" height="121.4"/>
			
				<rect x="967.3" y="18.6" transform="matrix(0.9173 -0.3982 0.3982 0.9173 66.1834 388.2109)" class="st2" width="0.8" height="32.3"/>
			
				<rect x="950.9" y="23.7" transform="matrix(0.7394 -0.6733 0.6733 0.7394 209.0923 655.5075)" class="st2" width="0.8" height="68"/>
			
				<rect x="931.3" y="36.9" transform="matrix(0.9766 -0.2151 0.2151 0.9766 -7.3368 203.5785)" class="st2" width="0.8" height="197.2"/>
			
				<rect x="810.2" y="105" transform="matrix(0.2966 -0.955 0.955 0.2966 512.1384 906.101)" class="st2" width="122" height="0.8"/>
			
				<rect x="829.5" y="72.2" transform="matrix(0.8857 -0.4643 0.4643 0.8857 38.8252 399.127)" class="st2" width="0.8" height="97"/>
			<polygon class="st2" points="852.3,164 738.8,104.4 739.1,103.7 852.6,163.3 			"/>
			
				<rect x="717" y="115.1" transform="matrix(0.9826 -0.1856 0.1856 0.9826 -19.5541 136.1477)" class="st2" width="0.8" height="114.9"/>
			
				<rect x="652.8" y="149.4" transform="matrix(0.284 -0.9588 0.9588 0.284 343.9862 760.1494)" class="st2" width="56.4" height="0.8"/>
			
				<rect x="592.2" y="129" transform="matrix(0.9947 -0.1025 0.1025 0.9947 -18.0302 61.8286)" class="st2" width="0.8" height="154.7"/>
			
				<rect x="513.7" y="186.2" transform="matrix(0.7561 -0.6544 0.6544 0.7561 20.1834 427.4153)" class="st2" width="139.7" height="0.8"/>
			
				<rect x="497.3" y="179.8" transform="matrix(0.4136 -0.9105 0.9105 0.4136 161.0823 610.4871)" class="st2" width="114.4" height="0.8"/>
			
				<rect x="517.3" y="110.2" transform="matrix(0.9772 -0.2123 0.2123 0.9772 -24.7008 113.8285)" class="st2" width="0.8" height="123.5"/>
			
				<rect x="375.3" y="-2.4" transform="matrix(0.1058 -0.9944 0.9944 0.1058 242.4568 457.7123)" class="st2" width="0.8" height="192.8"/>
			
				<rect x="279.2" y="77.7" transform="matrix(0.9712 -0.2382 0.2382 0.9712 -9.8714 74.5043)" class="st2" width="48.3" height="0.8"/>
			<rect x="-3" y="8.4" transform="matrix(0.7032 -0.711 0.711 0.7032 -4.4216 6.9427)" class="st2" width="18.2" height="0.8"/>
			
				<rect x="-3.8" y="23.4" transform="matrix(0.8749 -0.4843 0.4843 0.8749 -8.5161 14.6116)" class="st2" width="55.6" height="0.8"/>
			
				<rect x="-46.4" y="87.5" transform="matrix(0.3021 -0.9533 0.9533 0.3021 -60.7453 92.7913)" class="st2" width="158.7" height="0.8"/>
			
				<rect x="114.9" y="-3.2" transform="matrix(0.7385 -0.6742 0.6742 0.7385 -14.2281 94.9669)" class="st2" width="0.8" height="138.1"/>
			
				<rect x="85" y="10.7" transform="matrix(0.9774 -0.2113 0.2113 0.9774 -23.956 20.8089)" class="st2" width="0.8" height="223.6"/>
			
				<rect x="140.9" y="21.9" transform="matrix(0.9105 -0.4135 0.4135 0.9105 -16.9406 64.8263)" class="st2" width="0.8" height="99.3"/>
			
				<rect x="273.6" y="72.7" transform="matrix(0.3917 -0.9201 0.9201 0.3917 105.4652 305.8064)" class="st2" width="20.9" height="0.8"/>
			
				<rect x="267.8" y="52.9" transform="matrix(0.7779 -0.6284 0.6284 0.7779 15.5791 184.08)" class="st2" width="0.8" height="34.3"/>
			
				<rect x="151" y="83.5" transform="matrix(0.7395 -0.6731 0.6731 0.7395 -4.6337 155.7466)" class="st2" width="95.8" height="0.8"/>
			
				<rect x="137.9" y="79.4" transform="matrix(0.4099 -0.9121 0.9121 0.4099 32.4403 209.8368)" class="st2" width="81" height="0.8"/>
			
				<rect x="129.4" y="77.3" transform="matrix(0.1823 -0.9832 0.9832 0.1823 61.8598 229.8596)" class="st2" width="79.4" height="0.8"/>
			
				<rect x="57.2" y="290.4" transform="matrix(0.9931 -0.1173 0.1173 0.9931 -33.2954 15.8727)" class="st2" width="122" height="0.8"/>
		</g>
	</g>
</g>
<g>
	<polygon class="st2" points="277.6,86.8 275.6,83.4 277.6,79.9 281.6,79.9 283.6,83.4 281.6,86.8 	"/>
	<polygon class="st2" points="167.1,117.6 163.6,121.6 158.5,120.6 156.8,115.6 160.2,111.7 165.4,112.7 	"/>
	<polygon class="st2" points="7,167.4 5,163.9 7,160.4 11,160.4 13,163.9 11,167.4 	"/>
	<polygon class="st2" points="106.9,235.6 104.9,232.1 106.9,228.6 110.9,228.6 112.9,232.1 110.9,235.6 	"/>
	<polygon class="st2" points="246.4,178.6 246,173.6 250.2,170.8 254.6,173 255,177.9 250.9,180.7 	"/>
	<polygon class="st2" points="307.2,232.7 303.2,231.5 302.2,227.4 305.2,224.5 309.2,225.7 310.2,229.8 	"/>
	<polygon class="st2" points="427,165.7 426.6,161.4 430.2,159 434.1,160.8 434.4,165.1 430.9,167.6 	"/>
	<polygon class="st2" points="176.5,286.9 174.5,283.4 176.5,279.9 180.5,279.9 182.5,283.4 180.5,286.9 	"/>
	<polygon class="st2" points="355.5,319.8 353.7,316.7 355.5,313.6 359.1,313.6 360.9,316.7 359.1,319.8 	"/>
	<polygon class="st2" points="475.8,302.8 473.2,298.3 475.8,293.8 481,293.8 483.5,298.3 481,302.8 	"/>
	<polygon class="st2" points="596.4,283.4 597.5,279.3 601.6,278.2 604.6,281.2 603.5,285.3 599.4,286.4 	"/>
	<polygon class="st2" points="773.2,315.1 776.5,311.5 781.2,312.5 782.7,317.1 779.4,320.7 774.7,319.7 	"/>
	<polygon class="st2" points="51.8,298.4 54,293.7 59.1,293.2 62.1,297.4 60,302.1 54.9,302.6 	"/>
	<polygon class="st2" points="529.5,237.8 525.1,233.5 526.6,227.6 532.5,225.9 536.9,230.2 535.4,236.1 	"/>
	<polygon class="st2" points="725.1,232.6 723.4,227.7 726.9,223.8 732,224.9 733.6,229.8 730.2,233.7 	"/>
	<polygon class="st2" points="670.7,179.7 668.5,175.9 670.7,172.1 675.1,172.1 677.3,175.9 675.1,179.7 	"/>
	<polygon class="st2" points="850.5,168.6 847.7,163.9 850.5,159.1 856,159.1 858.7,163.9 856,168.6 	"/>
	<polygon class="st2" points="950.8,235.4 948.8,232.1 950.8,228.7 954.6,228.7 956.5,232.1 954.6,235.4 	"/>
	<polygon class="st2" points="897.2,298.5 898.5,296.3 901,296.4 902.2,298.6 900.9,300.7 898.4,300.7 	"/>
</g>
</svg>
