<?xml version="1.0" encoding="utf-8"?>
<!-- Generator: Adobe Illustrator 19.2.1, SVG Export Plug-In . SVG Version: 6.00 Build 0)  -->
<svg version="1.1" id="Layer_1" xmlns="http://www.w3.org/2000/svg" xmlns:xlink="http://www.w3.org/1999/xlink" x="0px" y="0px"
	 viewBox="0 0 974 191" style="enable-background:new 0 0 974 191;" xml:space="preserve">
<style type="text/css">
	.st0{fill:#FFFFFF;}
	.st1{clip-path:url(#SVGID_2_);}
	.st2{fill:#F6F4F2;}
</style>
<rect class="st0" width="974" height="189.9"/>
<g>
	<g>
		<g>
			<defs>
				<polyline id="SVGID_1_" points="974,189.9 0,189.9 0,0 974,0 				"/>
			</defs>
			<clipPath id="SVGID_2_">
				<use xlink:href="#SVGID_1_"  style="overflow:visible;"/>
			</clipPath>
			<g class="st1">
				
					<rect x="27.7" y="122.2" transform="matrix(0.3682 -0.9298 0.9298 0.3682 -124.8527 122.9767)" class="st2" width="0.8" height="62.3"/>
				
					<rect x="346.6" y="140.8" transform="matrix(0.8998 -0.4362 0.4362 0.8998 -17.1639 207.6321)" class="st2" width="194" height="0.8"/>
				
					<rect x="417.9" y="-15.1" transform="matrix(1.181919e-02 -0.9999 0.9999 1.181919e-02 315.842 514.7024)" class="st2" width="0.8" height="225.3"/>
				
					<rect x="159.6" y="-33.1" transform="matrix(0.963 -0.2694 0.2694 0.963 16.9707 58.2482)" class="st2" width="122.2" height="0.8"/>
				
					<rect x="80" y="-107.1" transform="matrix(0.11 -0.9939 0.9939 0.11 96.6761 57.4915)" class="st2" width="0.8" height="163.7"/>
				
					<rect x="3.6" y="22.1" transform="matrix(0.483 -0.8756 0.8756 0.483 -22.2038 17.8882)" class="st2" width="0.8" height="11.3"/>
				
					<rect x="3.7" y="9.9" transform="matrix(0.8908 -0.4545 0.4545 0.8908 -9.0021 4.1406)" class="st2" width="0.8" height="21.8"/>
				
					<rect x="-0.8" y="32.5" transform="matrix(0.8949 -0.4462 0.4462 0.8949 -14.2271 5.403)" class="st2" width="10.3" height="0.8"/>
				
					<rect x="53.6" y="43.1" transform="matrix(1.200701e-02 -0.9999 0.9999 1.200701e-02 -44.7449 150.9274)" class="st2" width="0.8" height="110"/>
				
					<rect x="-7.1" y="125.3" transform="matrix(0.8985 -0.4389 0.4389 0.8985 -49.676 36.5032)" class="st2" width="122.4" height="0.8"/>
				
					<rect x="143.4" y="81.4" transform="matrix(0.5983 -0.8013 0.8013 0.5983 -42.1709 165.3179)" class="st2" width="0.8" height="86.6"/>
				
					<rect x="81.1" y="23.9" transform="matrix(0.7531 -0.658 0.658 0.7531 32.0337 133.9603)" class="st2" width="226.7" height="0.8"/>
				
					<rect x="103.7" y="70.5" transform="matrix(0.9301 -0.3673 0.3673 0.9301 -13.4675 71.0319)" class="st2" width="152.4" height="0.8"/>
				
					<rect x="72.1" y="40.9" transform="matrix(0.4167 -0.909 0.909 0.4167 41.3957 147.1393)" class="st2" width="126.6" height="0.8"/>
				
					<rect x="169.8" y="-16.6" transform="matrix(0.9951 -9.895480e-02 9.895480e-02 0.9951 -5.8195 17.1724)" class="st2" width="0.8" height="167.7"/>
				
					<rect x="149.7" y="96.4" transform="matrix(0.5571 -0.8304 0.8304 0.5571 14.6507 221.0691)" class="st2" width="129.8" height="0.8"/>
				<polygon class="st2" points="357,183.9 250.5,43.1 251.1,42.7 357.6,183.5 				"/>
				
					<rect x="267.5" y="76.2" transform="matrix(0.1817 -0.9834 0.9834 0.1817 54.7904 400.2038)" class="st2" width="0.8" height="181.9"/>
				
					<rect x="356.2" y="174" transform="matrix(0.9891 -0.1471 0.1471 0.9891 -21.1111 63.3265)" class="st2" width="122.8" height="0.8"/>
				
					<rect x="172.8" y="123.1" transform="matrix(0.9194 -0.3933 0.3933 0.9194 -29.0741 105.1327)" class="st2" width="138.4" height="0.8"/>
				
					<rect x="277.7" y="31.2" transform="matrix(0.6895 -0.7243 0.7243 0.6895 36.4003 222.8348)" class="st2" width="0.8" height="75.5"/>
				
					<rect x="216.5" y="-4.1" transform="matrix(0.297 -0.9549 0.9549 0.297 190.0407 250.6951)" class="st2" width="97.6" height="0.8"/>
				
					<rect x="206" y="-40" transform="matrix(0.5536 -0.8328 0.8328 0.5536 80.9419 177.8377)" class="st2" width="0.8" height="106.8"/>
				
					<rect x="58.4" y="3.4" transform="matrix(0.5649 -0.8252 0.8252 0.5649 -27.5374 76.5114)" class="st2" width="0.8" height="121.9"/>
				
					<rect x="32.3" y="25.8" transform="matrix(0.9409 -0.3386 0.3386 0.9409 -31.0833 16.8332)" class="st2" width="0.8" height="143.4"/>
				
					<rect x="41" y="131.5" transform="matrix(0.6196 -0.7849 0.7849 0.6196 -71.9098 115.3719)" class="st2" width="84.1" height="0.8"/>
				
					<rect x="391.5" y="37.4" transform="matrix(0.3738 -0.9275 0.9275 0.3738 124.354 445.2661)" class="st2" width="0.8" height="186.2"/>
				
					<rect x="292.3" y="-51.4" transform="matrix(0.9848 -0.1738 0.1738 0.9848 0.5089 51.2168)" class="st2" width="0.8" height="148.2"/>
				
					<rect x="354.7" y="-95.6" transform="matrix(0.4702 -0.8826 0.8826 0.4702 197.2273 308.0031)" class="st2" width="0.8" height="170.7"/>
				
					<rect x="297.5" y="62.5" transform="matrix(0.8849 -0.4659 0.4659 0.8849 13.0738 178.728)" class="st2" width="141.1" height="0.8"/>
				
					<rect x="480.1" y="2.8" transform="matrix(0.5662 -0.8243 0.8243 0.5662 155.5499 423.8606)" class="st2" width="0.8" height="122.7"/>
				
					<rect x="454" y="25.9" transform="matrix(0.9428 -0.3335 0.3335 0.9428 -6.5729 157.1384)" class="st2" width="0.8" height="143.6"/>
				
					<rect x="462.2" y="131.7" transform="matrix(0.6202 -0.7844 0.7844 0.6202 87.9885 445.9655)" class="st2" width="84.8" height="0.8"/>
				
					<rect x="565" y="81.4" transform="matrix(0.5909 -0.8067 0.8067 0.5909 131.094 506.9083)" class="st2" width="0.8" height="85.5"/>
				
					<rect x="477.8" y="157" transform="matrix(0.9915 -0.1301 0.1301 0.9915 -15.8959 71.4745)" class="st2" width="122.6" height="0.8"/>
				
					<rect x="525.2" y="70.6" transform="matrix(0.927 -0.375 0.375 0.927 17.2953 230.8781)" class="st2" width="153.3" height="0.8"/>
				
					<rect x="688.7" y="75.6" transform="matrix(0.1877 -0.9822 0.9822 0.1877 396.3056 811.9742)" class="st2" width="0.8" height="181.5"/>
				
					<rect x="571.6" y="95.4" transform="matrix(0.5631 -0.8264 0.8264 0.5631 198.9384 567.8377)" class="st2" width="129.7" height="0.8"/>
				<polygon class="st2" points="600,149.7 599.8,149 727.9,95.6 728.2,96.3 				"/>
				
					<rect x="813.5" y="38.1" transform="matrix(0.3757 -0.9267 0.9267 0.3757 386.964 835.9081)" class="st2" width="0.8" height="185.2"/>
				<polygon class="st2" points="777.9,183.7 672.6,42.4 673.2,42 778.5,183.2 				"/>
				
					<rect x="777.5" y="174.1" transform="matrix(0.9893 -0.1458 0.1458 0.9893 -16.4768 124.1838)" class="st2" width="122.9" height="0.8"/>
				
					<rect x="883.5" y="131.6" transform="matrix(0.6202 -0.7844 0.7844 0.6202 248.2081 776.6735)" class="st2" width="85.5" height="0.8"/>
				<g>
					
						<rect x="876.1" y="26.8" transform="matrix(0.9452 -0.3264 0.3264 0.9452 15.9695 291.466)" class="st2" width="0.8" height="142.7"/>
				</g>
				
					<rect x="839.9" y="-15.2" transform="matrix(1.122264e-02 -0.9999 0.9999 1.122264e-02 733.7404 936.3908)" class="st2" width="0.8" height="224.7"/>
				<polygon class="st2" points="728.3,96.3 727.9,95.6 853,30.3 853.3,31 				"/>
				
					<rect x="700.1" y="30.6" transform="matrix(0.6978 -0.7163 0.7163 0.6978 162.1816 522.6614)" class="st2" width="0.8" height="77"/>
				
					<rect x="952.1" y="94" transform="matrix(0.938 -0.3466 0.3466 0.938 27.0068 339.7949)" class="st2" width="22.8" height="0.8"/>
				
					<rect x="949.6" y="89" transform="matrix(0.7633 -0.6461 0.6461 0.7633 170.3575 643.6921)" class="st2" width="28" height="0.8"/>
				<polygon class="st2" points="953.1,98.6 952.5,98.3 973.8,51.6 974.5,51.9 				"/>
				
					<rect x="850.3" y="11.4" transform="matrix(0.955 -0.2966 0.2966 0.955 37.6139 271.5321)" class="st2" width="126.8" height="0.8"/>
				
					<rect x="873.1" y="-132" transform="matrix(0.1103 -0.9939 0.9939 0.1103 807.545 840.9763)" class="st2" width="0.8" height="202.8"/>
				
					<rect x="680.2" y="24" transform="matrix(0.3826 -0.9239 0.9239 0.3826 445.3427 715.2383)" class="st2" width="155.2" height="0.8"/>
				
					<rect x="427.4" y="10.3" transform="matrix(0.9553 -0.2955 0.2955 0.9553 18.9421 146.7204)" class="st2" width="135" height="0.8"/>
				
					<rect x="409.9" y="-52.1" transform="matrix(0.8881 -0.4597 0.4597 0.8881 49.7107 187.694)" class="st2" width="0.8" height="87.7"/>
				
					<rect x="407.1" y="-1.7" transform="matrix(0.3021 -0.9533 0.9533 0.3021 308.771 419.1838)" class="st2" width="67.2" height="0.8"/>
				
					<rect x="256.4" y="21.9" transform="matrix(0.3879 -0.9217 0.9217 0.3879 185.5619 323.9333)" class="st2" width="160.6" height="0.8"/>
				
					<rect x="902.3" y="4" transform="matrix(0.5616 -0.8274 0.8274 0.5616 342.1876 775.2404)" class="st2" width="0.8" height="121.4"/>
				
					<rect x="967.3" y="-114.4" transform="matrix(0.9173 -0.3982 0.3982 0.9173 119.1528 377.209)" class="st2" width="0.8" height="32.3"/>
				
					<rect x="950.9" y="-109.3" transform="matrix(0.7394 -0.6733 0.6733 0.7394 298.6582 620.8833)" class="st2" width="0.8" height="68"/>
				
					<rect x="931.3" y="-96.1" transform="matrix(0.9766 -0.2151 0.2151 0.9766 21.2715 200.4672)" class="st2" width="0.8" height="197.2"/>
				
					<rect x="810.2" y="-28" transform="matrix(0.2966 -0.955 0.955 0.2966 639.1868 812.5538)" class="st2" width="122" height="0.8"/>
				
					<rect x="829.5" y="-60.8" transform="matrix(0.8857 -0.4643 0.4643 0.8857 100.5798 383.9139)" class="st2" width="0.8" height="97"/>
				<polygon class="st2" points="852.3,31 738.8,-28.6 739.1,-29.3 852.6,30.3 				"/>
				
					<rect x="717" y="-17.9" transform="matrix(0.9826 -0.1856 0.1856 0.9826 5.1251 133.8377)" class="st2" width="0.8" height="114.9"/>
				
					<rect x="652.8" y="16.3" transform="matrix(0.284 -0.9588 0.9588 0.284 471.5446 664.9684)" class="st2" width="56.4" height="0.8"/>
				
					<rect x="592.2" y="-4" transform="matrix(0.9947 -0.1025 0.1025 0.9947 -4.3966 61.1278)" class="st2" width="0.8" height="154.7"/>
				
					<rect x="513.7" y="53.2" transform="matrix(0.7561 -0.6544 0.6544 0.7561 107.2078 394.9458)" class="st2" width="139.7" height="0.8"/>
				
					<rect x="497.3" y="46.7" transform="matrix(0.4136 -0.9105 0.9105 0.4136 282.2404 532.4962)" class="st2" width="114.4" height="0.8"/>
				
					<rect x="517.3" y="-22.8" transform="matrix(0.9772 -0.2123 0.2123 0.9772 3.5321 110.7962)" class="st2" width="0.8" height="123.5"/>
				
					<rect x="375.3" y="-135.3" transform="matrix(0.1058 -0.9944 0.9944 0.1058 374.6531 338.7521)" class="st2" width="0.8" height="192.8"/>
				
					<rect x="279.2" y="-55.3" transform="matrix(0.9712 -0.2382 0.2382 0.9712 21.8098 70.6777)" class="st2" width="48.3" height="0.8"/>
				
					<rect x="-3" y="-124.6" transform="matrix(0.7032 -0.711 0.711 0.7032 90.128 -32.5103)" class="st2" width="18.2" height="0.8"/>
				
					<rect x="-3.8" y="-109.6" transform="matrix(0.8749 -0.4843 0.4843 0.8749 55.8837 -2.0324)" class="st2" width="55.6" height="0.8"/>
				
					<rect x="-46.3" y="-45.5" transform="matrix(0.3021 -0.9533 0.9533 0.3021 65.9935 1.055603e-02)" class="st2" width="158.7" height="0.8"/>
				
					<rect x="114.9" y="-136.2" transform="matrix(0.7385 -0.6742 0.6742 0.7385 75.4185 60.1947)" class="st2" width="0.8" height="138.1"/>
				
					<rect x="85" y="-122.3" transform="matrix(0.9774 -0.2113 0.2113 0.9774 4.1479 17.8078)" class="st2" width="0.8" height="223.6"/>
				
					<rect x="140.9" y="-111.1" transform="matrix(0.9105 -0.4135 0.4135 0.9105 38.0575 52.9273)" class="st2" width="0.8" height="99.3"/>
				
					<rect x="273.5" y="-60.3" transform="matrix(0.3917 -0.9201 0.9201 0.3917 227.8771 224.8484)" class="st2" width="20.9" height="0.8"/>
				
					<rect x="267.8" y="-80.1" transform="matrix(0.7779 -0.6284 0.6284 0.7779 99.1426 154.5704)" class="st2" width="0.8" height="34.3"/>
				
					<rect x="151" y="-49.5" transform="matrix(0.7395 -0.6731 0.6731 0.7395 84.8576 121.1159)" class="st2" width="95.8" height="0.8"/>
				
					<rect x="137.9" y="-53.6" transform="matrix(0.4099 -0.9121 0.9121 0.4099 153.7429 131.3033)" class="st2" width="81" height="0.8"/>
				
					<rect x="129.4" y="-55.6" transform="matrix(0.1823 -0.9832 0.9832 0.1823 192.5657 121.0828)" class="st2" width="79.4" height="0.8"/>
				
					<rect x="57.2" y="157.4" transform="matrix(0.9931 -0.1173 0.1173 0.9931 -17.694 14.9542)" class="st2" width="122" height="0.8"/>
			</g>
		</g>
	</g>
</g>
<g>
	<polygon class="st2" points="7,34.4 5,30.9 7,27.4 11,27.4 13,30.9 11,34.4 	"/>
	<polygon class="st2" points="106.9,102.6 104.9,99.1 106.9,95.6 110.9,95.6 112.9,99.1 110.9,102.6 	"/>
	<polygon class="st2" points="246.4,45.6 246,40.6 250.2,37.8 254.6,40 255,44.9 250.9,47.7 	"/>
	<polygon class="st2" points="307.2,99.7 303.2,98.5 302.2,94.4 305.2,91.5 309.2,92.7 310.2,96.8 	"/>
	<polygon class="st2" points="427,32.7 426.6,28.4 430.2,26 434.1,27.8 434.4,32.1 430.9,34.6 	"/>
	<polygon class="st2" points="176.5,153.9 174.5,150.4 176.5,146.9 180.5,146.9 182.5,150.4 180.5,153.9 	"/>
	<polygon class="st2" points="355.5,186.8 353.7,183.7 355.5,180.6 359.1,180.6 360.9,183.7 359.1,186.8 	"/>
	<polygon class="st2" points="475.8,169.8 473.2,165.3 475.8,160.8 481,160.8 483.5,165.3 481,169.8 	"/>
	<polygon class="st2" points="596.4,150.4 597.5,146.3 601.6,145.2 604.6,148.2 603.5,152.3 599.4,153.4 	"/>
	<polygon class="st2" points="773.2,182.1 776.5,178.5 781.2,179.5 782.7,184.1 779.4,187.7 774.7,186.7 	"/>
	<polygon class="st2" points="51.8,165.4 54,160.7 59.1,160.2 62.1,164.4 60,169.1 54.9,169.6 	"/>
	<polygon class="st2" points="529.5,104.8 525.1,100.5 526.6,94.6 532.5,92.9 536.9,97.2 535.4,103.1 	"/>
	<polygon class="st2" points="725.1,99.6 723.4,94.7 726.9,90.8 732,91.9 733.6,96.8 730.2,100.7 	"/>
	<polygon class="st2" points="670.7,46.7 668.5,42.9 670.7,39.1 675.1,39.1 677.3,42.9 675.1,46.7 	"/>
	<polygon class="st2" points="850.5,35.6 847.7,30.9 850.5,26.1 856,26.1 858.7,30.9 856,35.6 	"/>
	<polygon class="st2" points="950.8,102.4 948.8,99.1 950.8,95.7 954.6,95.7 956.5,99.1 954.6,102.4 	"/>
	<polygon class="st2" points="897.2,165.5 898.5,163.3 901,163.4 902.2,165.6 900.9,167.7 898.4,167.7 	"/>
</g>
</svg>
