<?xml version="1.0" encoding="utf-8"?>
<!-- Generator: Adobe Illustrator 20.1.0, SVG Export Plug-In . SVG Version: 6.00 Build 0)  -->
<svg version="1.1" id="Layer_1" xmlns="http://www.w3.org/2000/svg" xmlns:xlink="http://www.w3.org/1999/xlink" x="0px" y="0px" preserveAspectRatio="xMinYMid"
	 viewBox="0 0 355.7 33.1" style="enable-background:new 0 0 355.7 33.1;" xml:space="preserve">
<style type="text/css">
	.st0{fill:#444444;}
	.st1{fill:#EB008B;}
</style>
<path class="st0" d="M15.4,28.8c0,0.1-0.1,0.4-0.4,0.9c-0.3,0.5-0.7,1-1.3,1.6c-1.2,1.1-2.9,1.7-5.1,1.7H7.5c-1.1,0-2.1-0.2-3-0.5
	s-1.7-0.8-2.3-1.4s-1.1-1.3-1.5-2.2c-0.4-0.9-0.5-1.8-0.5-2.8V13.5c0-1,0.2-2,0.5-2.8C1,9.8,1.5,9.1,2.2,8.5
	c0.6-0.6,1.4-1.1,2.3-1.4s1.9-0.5,3-0.5h1.2c1,0,1.9,0.1,2.7,0.4s1.5,0.6,2.1,1c0.6,0.4,1.1,0.8,1.4,1.3s0.5,0.9,0.5,1.3
	c0,0.1-0.1,0.2-0.2,0.3l-2.6,1.3c-0.1,0-0.1,0-0.2,0c-0.1,0-0.2-0.1-0.3-0.2c-0.5-0.6-0.9-1.2-1.4-1.6c-0.5-0.4-1.1-0.7-2-0.7H7.5
	c-1,0-1.9,0.4-2.6,1.1c-0.7,0.7-1.1,1.6-1.1,2.6V26c0,1,0.4,1.9,1.1,2.6s1.6,1.1,2.6,1.1h1.2c0.5,0,0.9-0.1,1.3-0.3
	c0.4-0.2,0.7-0.4,0.9-0.6c0.5-0.5,0.8-1,1-1.3s0.4-0.5,0.5-0.5s0.1,0,0.2,0.1l2.6,1.3C15.4,28.6,15.4,28.7,15.4,28.8z"/>
<path class="st0" d="M35.6,28.9c-0.4,0.9-0.8,1.6-1.5,2.2c-0.6,0.6-1.4,1.1-2.3,1.4c-0.9,0.3-1.9,0.5-3,0.5h-1.2
	c-1.1,0-2.1-0.2-3-0.5s-1.7-0.8-2.3-1.4c-0.6-0.6-1.1-1.3-1.5-2.2c-0.4-0.9-0.5-1.8-0.5-2.8V13.5c0-1,0.2-2,0.5-2.8
	c0.4-0.9,0.8-1.6,1.5-2.2c0.6-0.6,1.4-1.1,2.3-1.4s1.9-0.5,3-0.5h1.2c1.1,0,2.1,0.2,3,0.5c0.9,0.3,1.7,0.8,2.3,1.4s1.1,1.3,1.5,2.2
	s0.5,1.8,0.5,2.8v12.6C36.1,27.1,35.9,28,35.6,28.9z M32.4,13.5c0-1-0.4-1.9-1.1-2.6c-0.7-0.7-1.6-1.1-2.6-1.1h-1.2
	c-1,0-1.9,0.4-2.6,1.1c-0.7,0.7-1.1,1.6-1.1,2.6v12.6c0,1,0.4,1.9,1.1,2.6s1.6,1.1,2.6,1.1h1.2c1,0,1.9-0.4,2.6-1.1
	c0.7-0.7,1.1-1.6,1.1-2.6V13.5z"/>
<path class="st0" d="M57.4,28.9c-0.4,0.9-0.8,1.6-1.5,2.2c-0.6,0.6-1.4,1.1-2.3,1.4c-0.9,0.3-1.9,0.5-3,0.5h-1.2
	c-1.1,0-2.1-0.2-3-0.5s-1.7-0.8-2.3-1.4s-1.1-1.3-1.5-2.2c-0.4-0.9-0.5-1.8-0.5-2.8V7.4c0-0.3,0.1-0.4,0.4-0.4h2.8
	c0.3,0,0.4,0.1,0.4,0.4v18.7c0,1,0.4,1.9,1.1,2.6c0.7,0.7,1.6,1.1,2.6,1.1h1.2c1,0,1.9-0.4,2.6-1.1c0.7-0.7,1.1-1.6,1.1-2.6V7.4
	c0-0.3,0.1-0.4,0.4-0.4h2.8C57.8,7,58,7.1,58,7.4v18.7C58,27.1,57.8,28,57.4,28.9z"/>
<path class="st0" d="M81.3,32.5h-2.6l-0.4-0.2l-9.7-18.2l0.2,18c0,0.3-0.1,0.4-0.4,0.4h-2.8c-0.3,0-0.4-0.1-0.4-0.4V7.4
	c0-0.3,0.1-0.4,0.4-0.4h2.6l0.4,0.2l9.6,18.2L78,7.4C78,7.1,78.1,7,78.4,7h2.8c0.3,0,0.4,0.1,0.4,0.4v24.7
	C81.7,32.4,81.6,32.5,81.3,32.5z"/>
<path class="st0" d="M101.6,10.2H97c-0.3,0-0.4,0.1-0.4,0.4v21.5c0,0.3-0.1,0.4-0.4,0.4h-2.8c-0.3,0-0.4-0.1-0.4-0.4V10.6
	c0-0.3-0.1-0.4-0.4-0.4h-4.7c-0.3,0-0.4-0.1-0.4-0.4V7.4c0-0.3,0.1-0.4,0.4-0.4h13.8c0.3,0,0.4,0.1,0.4,0.4v2.4
	C102.1,10.1,101.9,10.2,101.6,10.2z"/>
<path class="st0" d="M122,32.5h-13.8c-0.3,0-0.4-0.1-0.4-0.4V7.4c0-0.3,0.1-0.4,0.4-0.4H122c0.3,0,0.4,0.1,0.4,0.4v2.4
	c0,0.3-0.1,0.4-0.4,0.4h-10.1c-0.3,0-0.4,0.1-0.4,0.4v6.9c0,0.3,0.1,0.4,0.4,0.4h8.3c0.3,0,0.4,0.1,0.4,0.4v2.4
	c0,0.3-0.1,0.4-0.4,0.4h-8.3c-0.3,0-0.4,0.1-0.4,0.4v7.3c0,0.3,0.1,0.4,0.4,0.4H122c0.3,0,0.4,0.1,0.4,0.4V32
	C122.4,32.4,122.2,32.5,122,32.5z"/>
<path class="st0" d="M145.2,32.2c0,0.2-0.1,0.3-0.4,0.3h-3.1l-0.4-0.3l-3.8-10.8l-0.3-0.2h-4c-0.3,0-0.4,0.1-0.4,0.4v10.5
	c0,0.3-0.1,0.4-0.4,0.4h-2.8c-0.3,0-0.4-0.1-0.4-0.4V7.4c0-0.3,0.1-0.4,0.4-0.4h8.1c2.2,0,4,0.7,5.3,2s2,3.1,2,5.3v0.4
	c0,0.7-0.2,1.5-0.6,2.3c-0.4,0.8-1,1.6-1.7,2.3c-0.4,0.4-0.7,0.6-1,0.7s-0.4,0.3-0.4,0.5c0,0.1,0,0.1,0,0.1l3.9,11.4
	C145.2,32.1,145.2,32.1,145.2,32.2z M141.3,13.9c0-1-0.4-1.9-1.1-2.6c-0.7-0.7-1.6-1.1-2.6-1.1h-4.5c-0.3,0-0.4,0.1-0.4,0.4v6.9
	c0,0.3,0.1,0.4,0.4,0.4h4.5c1,0,1.9-0.4,2.6-1.1c0.7-0.7,1.1-1.6,1.1-2.6V13.9z"/>
<path class="st0" d="M163.2,10.2h-4.7c-0.3,0-0.4,0.1-0.4,0.4v21.5c0,0.3-0.1,0.4-0.4,0.4h-2.8c-0.3,0-0.4-0.1-0.4-0.4V10.6
	c0-0.3-0.1-0.4-0.4-0.4h-4.7c-0.3,0-0.4-0.1-0.4-0.4V7.4c0-0.3,0.1-0.4,0.4-0.4h13.8c0.3,0,0.4,0.1,0.4,0.4v2.4
	C163.6,10.1,163.4,10.2,163.2,10.2z"/>
<path class="st0" d="M183.3,28.9c-0.4,0.9-0.8,1.6-1.5,2.2s-1.4,1.1-2.3,1.4c-0.9,0.3-1.9,0.5-3,0.5h-1.2c-1.1,0-2.1-0.2-3-0.5
	s-1.7-0.8-2.3-1.4s-1.1-1.3-1.5-2.2s-0.5-1.8-0.5-2.8V13.5c0-1,0.2-2,0.5-2.8s0.8-1.6,1.5-2.2s1.4-1.1,2.3-1.4s1.9-0.5,3-0.5h1.2
	c1.1,0,2.1,0.2,3,0.5s1.7,0.8,2.3,1.4s1.1,1.3,1.5,2.2s0.5,1.8,0.5,2.8v12.6C183.9,27.1,183.7,28,183.3,28.9z M180.2,13.5
	c0-1-0.4-1.9-1.1-2.6c-0.7-0.7-1.6-1.1-2.6-1.1h-1.2c-1,0-1.9,0.4-2.6,1.1c-0.7,0.7-1.1,1.6-1.1,2.6v12.6c0,1,0.4,1.9,1.1,2.6
	c0.7,0.7,1.6,1.1,2.6,1.1h1.2c1,0,1.9-0.4,2.6-1.1c0.7-0.7,1.1-1.6,1.1-2.6V13.5z"/>
<path class="st0" d="M204.1,9c1.3,1.3,2,3.1,2,5.3c0,1-0.2,2-0.5,2.8c-0.4,0.8-0.8,1.6-1.5,2.2c-0.6,0.6-1.4,1.1-2.3,1.4
	c-0.9,0.3-1.9,0.5-3,0.5h-4.5c-0.3,0-0.4,0.1-0.4,0.4v10.5c0,0.3-0.1,0.4-0.4,0.4h-2.8c-0.3,0-0.4-0.1-0.4-0.4V7.4
	c0-0.3,0.1-0.4,0.4-0.4h8.1C201,7,202.8,7.6,204.1,9z M202.4,13.9c0-1-0.4-1.9-1.1-2.6s-1.6-1.1-2.6-1.1h-4.5
	c-0.3,0-0.4,0.1-0.4,0.4v6.9c0,0.3,0.1,0.4,0.4,0.4h4.5c1,0,1.9-0.4,2.6-1.1c0.7-0.7,1.1-1.6,1.1-2.6V13.9z"/>
<path class="st1" d="M235.6,28.9c-0.4,0.9-0.8,1.6-1.5,2.2s-1.4,1.1-2.3,1.4c-0.9,0.3-1.9,0.5-3,0.5h-1.2c-1.1,0-2.1-0.2-3-0.5
	s-1.7-0.8-2.3-1.4s-1.1-1.3-1.5-2.2s-0.5-1.8-0.5-2.8V13.5c0-1,0.2-2,0.5-2.8s0.8-1.6,1.5-2.2s1.4-1.1,2.3-1.4s1.9-0.5,3-0.5h1.2
	c1,0,1.9,0.1,2.8,0.4c0.8,0.3,1.6,0.6,2.2,1.1c0.6,0.4,1.1,0.9,1.4,1.4s0.5,0.9,0.5,1.3c0,0.1-0.1,0.2-0.2,0.3l-2.6,1.3
	c-0.1,0.1-0.2,0.1-0.2,0.1c-0.1,0-0.1,0-0.2-0.1c0-0.1-0.1-0.1-0.1-0.2c-0.2-0.3-0.5-0.6-0.7-0.9c-0.2-0.3-0.4-0.5-0.7-0.7
	c-0.2-0.2-0.5-0.4-0.9-0.5s-0.7-0.2-1.2-0.2h-1.2c-1,0-1.9,0.4-2.6,1.1c-0.7,0.7-1.1,1.6-1.1,2.6v4.9c0,0.3,0.1,0.4,0.3,0.4
	c0.1,0,0.2-0.1,0.4-0.2s0.5-0.3,0.8-0.5s0.7-0.3,1.1-0.5c0.4-0.1,0.9-0.2,1.4-0.2h1.2c1,0,1.9,0.2,2.7,0.5c0.9,0.3,1.6,0.8,2.2,1.4
	s1.1,1.3,1.4,2.2c0.4,0.9,0.5,1.8,0.5,2.8V26C236.1,27.1,235.9,28,235.6,28.9z M232.5,24.4c0-1-0.4-1.9-1.1-2.6
	c-0.7-0.7-1.6-1.1-2.6-1.1h-1.2c-1,0-1.9,0.4-2.6,1.1c-0.7,0.7-1.1,1.6-1.1,2.6V26c0,1,0.4,1.9,1.1,2.6c0.7,0.7,1.6,1.1,2.6,1.1h1.2
	c1.2-0.2,2.1-0.7,2.7-1.3c0.6-0.6,0.9-1.4,0.9-2.4v-1.6H232.5z"/>
<path class="st1" d="M257.1,28.9c-0.4,0.9-0.8,1.6-1.5,2.2s-1.4,1.1-2.3,1.4c-0.9,0.3-1.9,0.5-3,0.5h-1.2c-1.1,0-2.1-0.2-3-0.5
	s-1.7-0.8-2.3-1.4s-1.1-1.3-1.5-2.2s-0.5-1.8-0.5-2.8V13.5c0-1,0.2-2,0.5-2.8s0.8-1.6,1.5-2.2s1.4-1.1,2.3-1.4s1.9-0.5,3-0.5h1.2
	c1,0,1.9,0.1,2.8,0.4c0.8,0.3,1.6,0.6,2.2,1.1c0.6,0.4,1.1,0.9,1.4,1.4s0.5,0.9,0.5,1.3c0,0.1-0.1,0.2-0.2,0.3l-2.6,1.3
	c-0.1,0.1-0.2,0.1-0.2,0.1c-0.1,0-0.1,0-0.2-0.1c0-0.1-0.1-0.1-0.1-0.2c-0.2-0.3-0.5-0.6-0.7-0.9c-0.2-0.3-0.4-0.5-0.7-0.7
	c-0.2-0.2-0.5-0.4-0.9-0.5s-0.7-0.2-1.2-0.2h-1.2c-1,0-1.9,0.4-2.6,1.1c-0.7,0.7-1.1,1.6-1.1,2.6v4.9c0,0.3,0.1,0.4,0.3,0.4
	c0.1,0,0.2-0.1,0.4-0.2s0.5-0.3,0.8-0.5s0.7-0.3,1.1-0.5c0.4-0.1,0.9-0.2,1.4-0.2h1.2c1,0,1.9,0.2,2.7,0.5c0.9,0.3,1.6,0.8,2.2,1.4
	s1.1,1.3,1.4,2.2c0.4,0.9,0.5,1.8,0.5,2.8V26C257.6,27.1,257.4,28,257.1,28.9z M254,24.4c0-1-0.4-1.9-1.1-2.6
	c-0.7-0.7-1.6-1.1-2.6-1.1h-1.2c-1,0-1.9,0.4-2.6,1.1c-0.7,0.7-1.1,1.6-1.1,2.6V26c0,1,0.4,1.9,1.1,2.6c0.7,0.7,1.6,1.1,2.6,1.1h1.2
	c1.2-0.2,2.1-0.7,2.7-1.3c0.6-0.6,0.9-1.4,0.9-2.4v-1.6H254z"/>
<path class="st1" d="M278.9,28.9c-0.4,0.9-0.8,1.6-1.5,2.2s-1.4,1.1-2.3,1.4s-1.9,0.5-3,0.5h-1.2c-1.1,0-2.1-0.2-3-0.5
	s-1.7-0.8-2.3-1.4s-1.1-1.3-1.5-2.2s-0.5-1.8-0.5-2.8V13.5c0-1,0.2-2,0.5-2.8s0.8-1.6,1.5-2.2s1.4-1.1,2.3-1.4s1.9-0.5,3-0.5h1.2
	c1.1,0,2.1,0.2,3,0.5s1.7,0.8,2.3,1.4s1.1,1.3,1.5,2.2s0.5,1.8,0.5,2.8v12.6C279.4,27.1,279.3,28,278.9,28.9z M275.8,13.5
	c0-1-0.4-1.9-1.1-2.6c-0.7-0.7-1.6-1.1-2.6-1.1h-1.2c-1,0-1.9,0.4-2.6,1.1c-0.7,0.7-1.1,1.6-1.1,2.6v12.6c0,1,0.4,1.9,1.1,2.6
	s1.6,1.1,2.6,1.1h1.2c1,0,1.9-0.4,2.6-1.1s1.1-1.6,1.1-2.6V13.5z"/>
</svg>
