<?xml version="1.0" encoding="utf-8"?>
<!-- Generator: Adobe Illustrator 20.1.0, SVG Export Plug-In . SVG Version: 6.00 Build 0)  -->
<svg version="1.1" id="Layer_1" xmlns="http://www.w3.org/2000/svg" xmlns:xlink="http://www.w3.org/1999/xlink" x="0px" y="0px" preserveAspectRatio="xMinYMid"
	 viewBox="0 0 355.7 33.1" style="enable-background:new 0 0 355.7 33.1;" xml:space="preserve">
<style type="text/css">
	.st0{fill:#444444;}
	.st1{fill:#8A8C8E;}
</style>
<path class="st0" d="M16.3,32.7h-2.9c-0.3,0-0.4-0.1-0.4-0.4V21.7c0-0.3-0.1-0.4-0.4-0.4H4.3c-0.3,0-0.4,0.1-0.4,0.4v10.6
	c0,0.3-0.1,0.4-0.4,0.4H0.6c-0.3,0-0.4-0.1-0.4-0.4V7.4C0.2,7.2,0.4,7,0.6,7h2.9c0.3,0,0.4,0.1,0.4,0.4v10.2C3.9,17.9,4,18,4.3,18
	h8.4c0.3,0,0.4-0.1,0.4-0.4V7.4c0-0.3,0.1-0.4,0.4-0.4h2.9c0.3,0,0.4,0.1,0.4,0.4v24.9C16.8,32.6,16.6,32.7,16.3,32.7z"/>
<path class="st0" d="M32.3,20.9v11.4c0,0.3-0.1,0.4-0.4,0.4H29c-0.3,0-0.4-0.1-0.4-0.4V20.9L21.5,7.6c-0.1-0.2-0.1-0.3-0.1-0.3
	c0-0.2,0.1-0.3,0.4-0.3h3.3l0.4,0.2l4.5,9.3c0.1,0.2,0.2,0.3,0.4,0.3s0.3-0.1,0.4-0.3l4.5-9.3L35.6,7H39c0.3,0,0.4,0.1,0.4,0.3
	c0,0,0,0.1-0.1,0.3L32.3,20.9z"/>
<path class="st0" d="M57.7,30.8c-1.3,1.3-3.1,2-5.4,2h-8.2c-0.3,0-0.4-0.1-0.4-0.4V7.4c0-0.3,0.1-0.4,0.4-0.4h8.2c2.3,0,4,0.7,5.4,2
	c1.3,1.3,2,3.1,2,5.4v11C59.7,27.7,59,29.5,57.7,30.8z M56,14c0-1-0.4-1.9-1.1-2.6c-0.7-0.7-1.6-1.1-2.6-1.1h-4.5
	c-0.3,0-0.4,0.1-0.4,0.4V29c0,0.3,0.1,0.4,0.4,0.4h4.5c1,0,1.9-0.4,2.6-1.1c0.7-0.7,1.1-1.6,1.1-2.6V14z"/>
<path class="st0" d="M82,32.4c0,0.2-0.1,0.3-0.4,0.3h-3.1l-0.4-0.3l-3.8-10.9L74,21.3h-4c-0.3,0-0.4,0.1-0.4,0.4v10.6
	c0,0.3-0.1,0.4-0.4,0.4h-2.9c-0.3,0-0.4-0.1-0.4-0.4V7.4C65.9,7.2,66,7,66.3,7h8.2c2.3,0,4,0.7,5.4,2c1.3,1.3,2,3.1,2,5.4v0.4
	c0,0.7-0.2,1.5-0.6,2.3c-0.4,0.8-1,1.6-1.8,2.3c-0.4,0.4-0.7,0.6-1,0.7c-0.3,0.1-0.4,0.3-0.4,0.5c0,0.1,0,0.1,0,0.1l4,11.4
	C82,32.2,82,32.3,82,32.4z M78.1,14c0-1-0.4-1.9-1.1-2.6c-0.7-0.7-1.6-1.1-2.6-1.1h-4.5c-0.3,0-0.4,0.1-0.4,0.4v6.9
	c0,0.3,0.1,0.4,0.4,0.4h4.5c1,0,1.9-0.4,2.6-1.1c0.7-0.7,1.1-1.6,1.1-2.6V14z"/>
<path class="st0" d="M102.2,29c-0.4,0.9-0.9,1.6-1.5,2.2c-0.6,0.6-1.4,1.1-2.3,1.4c-0.9,0.3-1.9,0.5-3,0.5h-1.2
	c-1.1,0-2.1-0.2-3-0.5c-0.9-0.3-1.7-0.8-2.3-1.4c-0.6-0.6-1.1-1.3-1.5-2.2c-0.4-0.9-0.5-1.8-0.5-2.8V13.5c0-1,0.2-2,0.5-2.8
	c0.4-0.9,0.8-1.6,1.5-2.2c0.6-0.6,1.4-1.1,2.3-1.4c0.9-0.3,1.9-0.5,3-0.5h1.2c1.1,0,2.1,0.2,3,0.5c0.9,0.3,1.7,0.8,2.3,1.4
	c0.6,0.6,1.1,1.3,1.5,2.2c0.4,0.9,0.5,1.8,0.5,2.8v12.6C102.7,27.2,102.6,28.2,102.2,29z M99.1,13.5c0-1-0.4-1.9-1.1-2.6
	c-0.7-0.7-1.6-1.1-2.6-1.1h-1.2c-1,0-1.9,0.4-2.6,1.1c-0.7,0.7-1.1,1.6-1.1,2.6v12.6c0,1,0.4,1.9,1.1,2.6c0.7,0.7,1.6,1.1,2.6,1.1
	h1.2c1,0,1.9-0.4,2.6-1.1c0.7-0.7,1.1-1.6,1.1-2.6V13.5z"/>
<path class="st0" d="M115.4,21.2h-6.5c-0.3,0-0.4-0.1-0.4-0.3v-2.2c0-0.2,0.1-0.3,0.4-0.3h6.5c0.3,0,0.4,0.1,0.4,0.3v2.2
	C115.8,21.1,115.7,21.2,115.4,21.2z"/>
<path class="st0" d="M136.4,32.7h-13.9c-0.3,0-0.4-0.1-0.4-0.4V7.4c0-0.3,0.1-0.4,0.4-0.4h13.9c0.3,0,0.4,0.1,0.4,0.4v2.4
	c0,0.3-0.1,0.4-0.4,0.4h-10.2c-0.3,0-0.4,0.1-0.4,0.4v6.9c0,0.3,0.1,0.4,0.4,0.4h8.4c0.3,0,0.4,0.1,0.4,0.4v2.4
	c0,0.3-0.1,0.4-0.4,0.4h-8.4c-0.3,0-0.4,0.1-0.4,0.4V29c0,0.3,0.1,0.4,0.4,0.4h10.2c0.3,0,0.4,0.1,0.4,0.4v2.4
	C136.8,32.6,136.7,32.7,136.4,32.7z"/>
<path class="st0" d="M155.1,10.3h-4.7c-0.3,0-0.4,0.1-0.4,0.4v21.6c0,0.3-0.1,0.4-0.4,0.4h-2.9c-0.3,0-0.4-0.1-0.4-0.4V10.7
	c0-0.3-0.1-0.4-0.4-0.4h-4.7c-0.3,0-0.4-0.1-0.4-0.4V7.4c0-0.3,0.1-0.4,0.4-0.4h13.9c0.3,0,0.4,0.1,0.4,0.4v2.4
	C155.6,10.2,155.4,10.3,155.1,10.3z"/>
<path class="st0" d="M175,28.9c0,0.1-0.1,0.4-0.4,0.9c-0.3,0.5-0.7,1-1.3,1.6c-1.2,1.1-2.9,1.7-5.1,1.7h-1.2c-1.1,0-2.1-0.2-3-0.5
	c-0.9-0.3-1.7-0.8-2.3-1.4c-0.6-0.6-1.1-1.3-1.5-2.2c-0.4-0.9-0.5-1.8-0.5-2.8V13.5c0-1,0.2-2,0.5-2.8c0.4-0.9,0.8-1.6,1.5-2.2
	c0.6-0.6,1.4-1.1,2.3-1.4c0.9-0.3,1.9-0.5,3-0.5h1.2c1,0,1.9,0.1,2.8,0.4c0.8,0.3,1.5,0.6,2.1,1c0.6,0.4,1.1,0.9,1.4,1.3
	c0.3,0.5,0.5,0.9,0.5,1.3c0,0.1-0.1,0.2-0.2,0.3l-2.6,1.3c-0.1,0-0.1,0-0.2,0c-0.1,0-0.2-0.1-0.3-0.2c-0.5-0.6-0.9-1.2-1.4-1.6
	c-0.5-0.4-1.1-0.7-2-0.7h-1.2c-1,0-1.9,0.4-2.6,1.1c-0.7,0.7-1.1,1.6-1.1,2.6v12.6c0,1,0.4,1.9,1.1,2.6c0.7,0.7,1.6,1.1,2.6,1.1h1.2
	c0.5,0,0.9-0.1,1.3-0.3c0.4-0.2,0.7-0.4,0.9-0.6c0.5-0.5,0.8-1,1-1.3c0.2-0.3,0.4-0.5,0.5-0.5c0.1,0,0.1,0,0.2,0.1l2.6,1.3
	C174.9,28.7,175,28.8,175,28.9z"/>
<path class="st0" d="M196.7,32.7h-2.9c-0.3,0-0.4-0.1-0.4-0.4V21.7c0-0.3-0.1-0.4-0.4-0.4h-8.4c-0.3,0-0.4,0.1-0.4,0.4v10.6
	c0,0.3-0.1,0.4-0.4,0.4H181c-0.3,0-0.4-0.1-0.4-0.4V7.4c0-0.3,0.1-0.4,0.4-0.4h2.9c0.3,0,0.4,0.1,0.4,0.4v10.2
	c0,0.3,0.1,0.4,0.4,0.4h8.4c0.3,0,0.4-0.1,0.4-0.4V7.4c0-0.3,0.1-0.4,0.4-0.4h2.9c0.3,0,0.4,0.1,0.4,0.4v24.9
	C197.1,32.6,197,32.7,196.7,32.7z"/>
<path class="st1" d="M235.1,32.7h-12.6c-0.3,0-0.4-0.1-0.4-0.4v-2.4c0-0.3,0.1-0.4,0.4-0.4h4.1c0.3,0,0.4-0.1,0.4-0.4V14.3
	c0-0.3-0.1-0.4-0.4-0.4c-0.1,0-0.2,0.1-0.3,0.2l-2,2c-0.1,0.1-0.2,0.2-0.3,0.2c-0.1,0-0.2-0.1-0.3-0.2l-1.8-1.8
	c-0.1-0.1-0.2-0.2-0.2-0.3c0-0.1,0.1-0.2,0.2-0.3l6.6-6.6l0.3-0.1h1.4c0.3,0,0.4,0.1,0.4,0.4V29c0,0.3,0.1,0.4,0.4,0.4h4.1
	c0.3,0,0.4,0.1,0.4,0.4v2.4C235.5,32.6,235.4,32.7,235.1,32.7z"/>
<path class="st1" d="M255.8,29c-0.4,0.9-0.9,1.6-1.5,2.2c-0.6,0.6-1.4,1.1-2.3,1.4c-0.9,0.3-1.9,0.5-3,0.5h-1.2
	c-1.1,0-2.1-0.2-3-0.5c-0.9-0.3-1.7-0.8-2.3-1.4c-0.6-0.6-1.1-1.3-1.5-2.2c-0.4-0.9-0.5-1.8-0.5-2.8V13.5c0-1,0.2-2,0.5-2.8
	c0.4-0.9,0.8-1.6,1.5-2.2s1.4-1.1,2.3-1.4c0.9-0.3,1.9-0.5,3-0.5h1.2c1.1,0,2.1,0.2,3,0.5c0.9,0.3,1.7,0.8,2.3,1.4s1.1,1.3,1.5,2.2
	c0.4,0.9,0.5,1.8,0.5,2.8v12.6C256.4,27.2,256.2,28.2,255.8,29z M252.7,13.5c0-1-0.4-1.9-1.1-2.6s-1.6-1.1-2.6-1.1h-1.2
	c-1,0-1.9,0.4-2.6,1.1c-0.7,0.7-1.1,1.6-1.1,2.6v12.6c0,1,0.4,1.9,1.1,2.6c0.7,0.7,1.6,1.1,2.6,1.1h1.2c1,0,1.9-0.4,2.6-1.1
	c0.7-0.7,1.1-1.6,1.1-2.6V13.5z"/>
<path class="st1" d="M278,29c-0.4,0.9-0.9,1.6-1.5,2.2c-0.6,0.6-1.4,1.1-2.3,1.4c-0.9,0.3-1.9,0.5-3,0.5H270c-1.1,0-2.1-0.2-3-0.5
	c-0.9-0.3-1.7-0.8-2.3-1.4c-0.6-0.6-1.1-1.3-1.5-2.2c-0.4-0.9-0.5-1.8-0.5-2.8V13.5c0-1,0.2-2,0.5-2.8c0.4-0.9,0.8-1.6,1.5-2.2
	s1.4-1.1,2.3-1.4c0.9-0.3,1.9-0.5,3-0.5h1.2c1.1,0,2.1,0.2,3,0.5c0.9,0.3,1.7,0.8,2.3,1.4s1.1,1.3,1.5,2.2c0.4,0.9,0.5,1.8,0.5,2.8
	v12.6C278.6,27.2,278.4,28.2,278,29z M274.9,13.5c0-1-0.4-1.9-1.1-2.6s-1.6-1.1-2.6-1.1H270c-1,0-1.9,0.4-2.6,1.1
	c-0.7,0.7-1.1,1.6-1.1,2.6v12.6c0,1,0.4,1.9,1.1,2.6c0.7,0.7,1.6,1.1,2.6,1.1h1.2c1,0,1.9-0.4,2.6-1.1c0.7-0.7,1.1-1.6,1.1-2.6V13.5
	z"/>
<path class="st1" d="M300.1,29c-0.4,0.9-0.9,1.6-1.5,2.2c-0.6,0.6-1.4,1.1-2.3,1.4c-0.9,0.3-1.9,0.5-3,0.5h-1.2
	c-1.1,0-2.1-0.2-3-0.5c-0.9-0.3-1.7-0.8-2.3-1.4c-0.6-0.6-1.1-1.3-1.5-2.2c-0.4-0.9-0.5-1.8-0.5-2.8V13.5c0-1,0.2-2,0.5-2.8
	c0.4-0.9,0.8-1.6,1.5-2.2s1.4-1.1,2.3-1.4c0.9-0.3,1.9-0.5,3-0.5h1.2c1.1,0,2.1,0.2,3,0.5c0.9,0.3,1.7,0.8,2.3,1.4s1.1,1.3,1.5,2.2
	c0.4,0.9,0.5,1.8,0.5,2.8v12.6C300.6,27.2,300.5,28.2,300.1,29z M297,13.5c0-1-0.4-1.9-1.1-2.6s-1.6-1.1-2.6-1.1h-1.2
	c-1,0-1.9,0.4-2.6,1.1c-0.7,0.7-1.1,1.6-1.1,2.6v12.6c0,1,0.4,1.9,1.1,2.6c0.7,0.7,1.6,1.1,2.6,1.1h1.2c1,0,1.9-0.4,2.6-1.1
	c0.7-0.7,1.1-1.6,1.1-2.6V13.5z"/>
<path class="st0" d="M203.1,7.9h-0.6c-0.1,0-0.2,0.1-0.2,0.2v2.8c0,0.1-0.1,0.2-0.2,0.2h-0.2c-0.1,0-0.2-0.1-0.2-0.2V8.1
	c0-0.1-0.1-0.2-0.2-0.2h-0.6c-0.1,0-0.2-0.1-0.2-0.2V7.5c0-0.1,0.1-0.2,0.2-0.2h2.2c0.1,0,0.2,0.1,0.2,0.2v0.2
	C203.3,7.8,203.2,7.9,203.1,7.9z M207.5,11.1h-0.2c-0.1,0-0.2-0.1-0.2-0.2V9.5c0-0.2-0.1-0.2-0.2-0.2c-0.1,0-0.1,0-0.2,0.1l-0.5,0.8
	l-0.2,0.1h-0.1l-0.2-0.1l-0.6-0.8c-0.1-0.1-0.1-0.1-0.2-0.1c-0.1,0-0.2,0.1-0.2,0.2v1.5c0,0.1-0.1,0.2-0.2,0.2h-0.2
	c-0.1,0-0.2-0.1-0.2-0.2V7.5c0-0.1,0.1-0.2,0.2-0.2h0.2l0.2,0.1l1,1.7c0.1,0.1,0.1,0.1,0.2,0.1c0.1,0,0.1,0,0.2-0.1l1-1.7l0.2-0.1
	h0.2c0.1,0,0.2,0.1,0.2,0.2v3.5C207.7,11.1,207.6,11.1,207.5,11.1z"/>
</svg>
