<?xml version="1.0" encoding="utf-8"?>
<!-- Generator: Adobe Illustrator 22.1.0, SVG Export Plug-In . SVG Version: 6.00 Build 0)  -->
<svg version="1.1" id="Layer_1" xmlns="http://www.w3.org/2000/svg" xmlns:xlink="http://www.w3.org/1999/xlink" x="0px" y="0px"
	 viewBox="0 0 355.7 33.1" style="enable-background:new 0 0 355.7 33.1;" xml:space="preserve">
<style type="text/css">
	.st0{fill:#444444;}
	.st1{fill:#FF611D;}
	.st2{fill:#F16226;}
</style>
<path class="st0" d="M3.7,32.7H0.8c-0.3,0-0.4-0.1-0.4-0.4V7.4C0.4,7.2,0.6,7,0.8,7h2.9C4,7,4.1,7.2,4.1,7.4v24.9
	C4.1,32.6,4,32.7,3.7,32.7z"/>
<path class="st0" d="M15.4,10.2c-0.4,0.2-0.8,0.4-1.2,0.8c-0.3,0.3-0.6,0.7-0.8,1.2c-0.2,0.4-0.3,0.9-0.3,1.4s0.1,1,0.4,1.4
	s0.6,0.8,1,1.1s1,0.7,1.7,1c0.7,0.3,1.4,0.7,2.2,1c1.1,0.5,2,1,2.8,1.5s1.4,1.1,2,1.8c0.5,0.6,0.9,1.3,1.2,2.1
	c0.3,0.8,0.4,1.7,0.4,2.7s-0.2,2-0.5,2.8c-0.4,0.8-0.9,1.6-1.5,2.2s-1.4,1.1-2.3,1.4s-1.9,0.5-3,0.5h-1.7c-1,0-1.8-0.1-2.6-0.3
	c-0.8-0.2-1.4-0.5-1.8-0.9c-0.8-0.6-1.4-1.2-1.8-1.7S9,29.3,9,28.9c0-0.1,0.1-0.2,0.2-0.3l2.6-1.3c0.1-0.1,0.2-0.1,0.2-0.1
	c0.1,0,0.2,0.1,0.4,0.3c0.2,0.3,0.5,0.6,0.7,0.9s0.4,0.5,0.7,0.7c0.2,0.2,0.5,0.4,0.9,0.5c0.3,0.1,0.7,0.2,1.2,0.2h1.7
	c1,0,1.9-0.4,2.6-1.1s1.1-1.6,1.1-2.6c0-0.6-0.1-1.1-0.3-1.5c-0.2-0.4-0.5-0.8-1-1.2c-0.4-0.4-0.9-0.7-1.5-1s-1.3-0.7-2.1-1.1
	c-1.1-0.5-2.1-1-2.9-1.5c-0.8-0.5-1.5-1-2.1-1.6s-1-1.3-1.3-2c-0.3-0.8-0.4-1.7-0.4-2.7s0.2-2,0.5-2.8c0.4-0.9,0.8-1.6,1.5-2.2
	c0.6-0.6,1.4-1.1,2.3-1.4c0.9-0.3,1.9-0.5,3-0.5h0.7c1,0,1.9,0.1,2.8,0.4c0.8,0.3,1.5,0.6,2.1,1.1C23,8.5,23.4,9,23.8,9.5
	c0.3,0.5,0.5,0.9,0.5,1.3c0,0.1-0.1,0.2-0.2,0.3l-2.6,1.3c-0.1,0-0.1,0-0.2,0s-0.2-0.1-0.3-0.2c-0.5-0.6-0.9-1.2-1.4-1.6
	c-0.5-0.4-1.1-0.7-2-0.7h-0.7C16.3,9.9,15.9,10,15.4,10.2z"/>
<path class="st0" d="M45.1,29c-0.4,0.9-0.9,1.6-1.5,2.2s-1.4,1.1-2.3,1.4c-0.9,0.3-1.9,0.5-3,0.5H37c-1.1,0-2.1-0.2-3-0.5
	s-1.7-0.8-2.3-1.4c-0.6-0.6-1.1-1.3-1.5-2.2c-0.4-0.9-0.5-1.8-0.5-2.8V13.5c0-1,0.2-2,0.5-2.8c0.4-0.9,0.8-1.6,1.5-2.2
	c0.6-0.6,1.4-1.1,2.3-1.4c0.9-0.3,1.9-0.5,3-0.5h1.2c1.1,0,2.1,0.2,3,0.5s1.7,0.8,2.3,1.4s1.1,1.3,1.5,2.2s0.5,1.8,0.5,2.8v12.6
	C45.6,27.2,45.4,28.2,45.1,29z M41.9,13.5c0-1-0.4-1.9-1.1-2.6c-0.7-0.7-1.6-1.1-2.6-1.1H37c-1,0-1.9,0.4-2.6,1.1
	c-0.7,0.7-1.1,1.6-1.1,2.6v12.6c0,1,0.4,1.9,1.1,2.6c0.7,0.7,1.6,1.1,2.6,1.1h1.2c1,0,1.9-0.4,2.6-1.1c0.7-0.7,1.1-1.6,1.1-2.6
	C41.9,26.1,41.9,13.5,41.9,13.5z"/>
<path class="st0" d="M58.2,21.3h-6.5c-0.3,0-0.4-0.1-0.4-0.3v-2.4c0-0.2,0.1-0.3,0.4-0.3h6.5c0.3,0,0.4,0.1,0.4,0.3V21
	C58.6,21.2,58.5,21.3,58.2,21.3z"/>
<path class="st0" d="M75.6,10.3h-4.7c-0.3,0-0.4,0.1-0.4,0.4v21.6c0,0.3-0.1,0.4-0.4,0.4h-2.9c-0.3,0-0.4-0.1-0.4-0.4V10.7
	c0-0.3-0.1-0.4-0.4-0.4h-4.7c-0.3,0-0.4-0.1-0.4-0.4V7.4c0-0.3,0.1-0.4,0.4-0.4h13.9C75.9,7,76,7.2,76,7.4v2.4
	C76,10.2,75.9,10.3,75.6,10.3z"/>
<path class="st0" d="M95.6,32.7H81.7c-0.3,0-0.4-0.1-0.4-0.4V7.4c0-0.3,0.1-0.4,0.4-0.4h13.9C95.9,7,96,7.2,96,7.4v2.4
	c0,0.3-0.1,0.4-0.4,0.4H85.4c-0.3,0-0.4,0.1-0.4,0.4v6.9c0,0.3,0.1,0.4,0.4,0.4h8.4c0.3,0,0.4,0.1,0.4,0.4v2.4
	c0,0.3-0.1,0.4-0.4,0.4h-8.4c-0.3,0-0.4,0.1-0.4,0.4V29c0,0.3,0.1,0.4,0.4,0.4h10.2c0.3,0,0.4,0.1,0.4,0.4v2.4
	C96,32.6,95.9,32.7,95.6,32.7z"/>
<path class="st0" d="M119.8,32.4c0,0.2-0.1,0.3-0.4,0.3h-3.6l-0.3-0.2l-7.3-11.9c-0.8,0.9-1.7,2.1-2.8,3.5v8.2
	c0,0.3-0.1,0.4-0.4,0.4h-3c-0.3,0-0.4-0.1-0.4-0.4V7.4c0-0.3,0.1-0.4,0.4-0.4h2.9c0.3,0,0.4,0.1,0.4,0.4v10.7c0,0.3,0.1,0.5,0.4,0.5
	c0.1,0,0.2-0.1,0.4-0.2l8.6-11.2L115,7h3.4c0.3,0,0.4,0.1,0.4,0.3c0,0.1,0,0.2-0.1,0.3l-7.8,9.6c-0.1,0.1-0.1,0.1-0.1,0.2
	s0,0.1,0,0.2l8.9,14.4C119.7,32.2,119.8,32.3,119.8,32.4z"/>
<path class="st0" d="M123.6,7.9H123c-0.1,0-0.2,0.1-0.2,0.2v2.8c0,0.1-0.1,0.2-0.2,0.2h-0.2c-0.1,0-0.2-0.1-0.2-0.2V8.1
	c0-0.1-0.1-0.2-0.2-0.2h-0.6c-0.1,0-0.2-0.1-0.2-0.2V7.5c0-0.1,0.1-0.2,0.2-0.2h2.2c0.1,0,0.2,0.1,0.2,0.2v0.2
	C123.8,7.8,123.8,7.9,123.6,7.9z M128,11.1h-0.2c-0.1,0-0.2-0.1-0.2-0.2V9.5c0-0.2-0.1-0.2-0.2-0.2s-0.1,0-0.2,0.1l-0.5,0.8
	l-0.2,0.1h-0.1l-0.2-0.1l-0.6-0.8c-0.1-0.1-0.1-0.1-0.2-0.1s-0.2,0.1-0.2,0.2V11c0,0.1-0.1,0.2-0.2,0.2h-0.2c-0.1,0-0.2-0.1-0.2-0.2
	V7.5c0-0.1,0.1-0.2,0.2-0.2h0.2l0.2,0.1l1,1.7c0.1,0.1,0.1,0.1,0.2,0.1s0.1,0,0.2-0.1l1-1.7l0.2-0.1h0.2c0.1,0,0.2,0.1,0.2,0.2V11
	C128.2,11.1,128.1,11.1,128,11.1z"/>
<path class="st1" d="M156,31.2c-1.3,1.3-3.1,2-5.4,2h-1.2c-2.3,0-4.1-0.7-5.4-2c-1.3-1.3-2-3.1-2-5.3v-1c0-0.5,0.1-1,0.3-1.6
	s0.5-1.2,0.9-1.8c0.4-0.5,0.7-0.9,1-1.2c0.3-0.2,0.5-0.4,0.5-0.6s-0.2-0.4-0.5-0.6s-0.7-0.6-1-1c-0.8-1.2-1.3-2.3-1.3-3.3V14
	c0-2.3,0.7-4,2-5.4c1.3-1.3,3.1-2,5.4-2h1.2c2.3,0,4,0.7,5.4,2c1.3,1.3,2,3.1,2,5.4v0.8c0,1-0.4,2.1-1.3,3.3c-0.3,0.5-0.7,0.8-1,1
	s-0.5,0.4-0.5,0.6c0,0.1,0.2,0.3,0.5,0.6c0.3,0.2,0.7,0.6,1,1.2c0.8,1.3,1.3,2.4,1.3,3.4v1C158,28.1,157.3,29.9,156,31.2z
	 M154.3,13.5c0-1-0.4-1.9-1.1-2.6s-1.6-1.1-2.6-1.1h-1.2c-1,0-1.9,0.4-2.6,1.1s-1.1,1.6-1.1,2.6v0.8c0,1,0.4,1.9,1.1,2.6
	c0.7,0.7,1.6,1.1,2.6,1.1h1.2c1,0,1.9-0.4,2.6-1.1c0.7-0.7,1.1-1.6,1.1-2.6V13.5z M154.3,25c0-1-0.4-1.9-1.1-2.6
	c-0.7-0.7-1.6-1.1-2.6-1.1h-1.2c-1,0-1.9,0.4-2.6,1.1c-0.7,0.7-1.1,1.6-1.1,2.6v1.2c0,1,0.4,1.9,1.1,2.6c0.7,0.7,1.6,1.1,2.6,1.1
	h1.2c1,0,1.9-0.4,2.6-1.1c0.7-0.7,1.1-1.6,1.1-2.6V25z"/>
<path class="st1" d="M176.5,31.2c-1.3,1.3-3.1,2-5.4,2h-1.2c-1,0-1.8-0.1-2.6-0.3s-1.4-0.5-1.8-0.9c-0.8-0.6-1.4-1.2-1.8-1.7
	s-0.6-1-0.6-1.3c0-0.1,0.1-0.2,0.2-0.3l2.6-1.3c0.1-0.1,0.2-0.1,0.2-0.1c0.1,0,0.2,0.1,0.4,0.3c0.2,0.3,0.5,0.6,0.7,0.9
	s0.4,0.5,0.7,0.7c0.2,0.2,0.5,0.4,0.9,0.5c0.3,0.1,0.7,0.2,1.2,0.2h1.2c1,0,1.9-0.4,2.6-1.1c0.7-0.7,1.1-1.6,1.1-2.6v-1.4
	c0-1-0.4-1.9-1.1-2.6c-0.7-0.7-1.6-1.1-2.6-1.1h-6.5c-0.3,0-0.4-0.1-0.4-0.4V7.4c0-0.3,0.1-0.4,0.4-0.4h13.1c0.3,0,0.4,0.1,0.4,0.4
	v2.4c0,0.3-0.1,0.4-0.4,0.4h-9.4c-0.3,0-0.4,0.1-0.4,0.4v6.7c0,0.3,0.1,0.4,0.4,0.4h2.9c2.3,0,4.1,0.7,5.4,2c1.3,1.3,2,3.1,2,5.3
	v0.8C178.5,28.1,177.8,29.9,176.5,31.2z"/>
<path class="st2" d="M200.1,26.8h-2.9c-0.3,0-0.4,0.1-0.4,0.4v5.1c0,0.3-0.1,0.4-0.4,0.4h-2.9c-0.3,0-0.4-0.1-0.4-0.4v-5.1
	c0-0.3-0.1-0.4-0.4-0.4h-10.2c-0.2,0-0.4-0.1-0.4-0.3v-0.1l0-2.9l10.8-16.4l0.3-0.2h3.1c0.3,0,0.4,0.1,0.4,0.4v15.7
	c0,0.3,0.1,0.4,0.4,0.4h2.9c0.3,0,0.4,0.1,0.4,0.4v2.4C200.6,26.6,200.4,26.8,200.1,26.8z M193.2,13.8c0-0.3-0.1-0.4-0.4-0.4
	c-0.2,0-0.3,0.1-0.4,0.2l-6.2,9.3c-0.1,0.1-0.1,0.2-0.1,0.3c0,0.2,0.1,0.3,0.4,0.3h6.2c0.3,0,0.4-0.1,0.4-0.4V13.8z"/>
<path class="st2" d="M220,29c-0.4,0.9-0.9,1.6-1.5,2.2c-0.6,0.6-1.4,1.1-2.3,1.4c-0.9,0.3-1.9,0.5-3,0.5H212c-1.1,0-2.1-0.2-3-0.5
	c-0.9-0.3-1.7-0.8-2.3-1.4s-1.1-1.3-1.5-2.2c-0.4-0.9-0.5-1.8-0.5-2.8V13.5c0-1,0.2-2,0.5-2.8c0.4-0.9,0.9-1.6,1.5-2.2
	c0.6-0.6,1.4-1.1,2.3-1.4c0.9-0.3,1.9-0.5,3-0.5h1.2c1.1,0,2.1,0.2,3,0.5c0.9,0.3,1.7,0.8,2.3,1.4c0.6,0.6,1.1,1.3,1.5,2.2
	c0.4,0.9,0.5,1.8,0.5,2.8v12.7C220.5,27.2,220.4,28.2,220,29z M216.9,13.5c0-1-0.4-1.9-1.1-2.6c-0.7-0.7-1.6-1.1-2.6-1.1H212
	c-1,0-1.9,0.4-2.6,1.1c-0.7,0.7-1.1,1.6-1.1,2.6v12.7c0,1,0.4,1.9,1.1,2.6c0.7,0.7,1.6,1.1,2.6,1.1h1.2c1,0,1.9-0.4,2.6-1.1
	c0.7-0.7,1.1-1.6,1.1-2.6V13.5z"/>
<path class="st2" d="M241.7,32.7c-0.1,0.2-0.2,0.3-0.4,0.3h-2.2c-0.2,0-0.3-0.1-0.4-0.3l-7.7-25.4c0-0.1,0-0.1,0-0.1c0,0,0,0,0-0.1
	c0-0.2,0.2-0.4,0.5-0.4h3.1c0.2,0,0.4,0.1,0.4,0.3l5.4,19l5.2-19c0-0.2,0.2-0.3,0.4-0.3h3.1c0.3,0,0.5,0.1,0.5,0.4c0,0,0,0.1,0,0.1
	c0,0,0,0.1,0,0.1L241.7,32.7z"/>
<path class="st2" d="M268.6,29.2c-0.4,0.9-0.9,1.6-1.5,2.2c-0.7,0.6-1.4,1.1-2.3,1.4c-0.9,0.3-1.9,0.5-3.1,0.5h-1.2
	c-1.1,0-2.2-0.2-3.1-0.5c-0.9-0.3-1.7-0.8-2.3-1.4c-0.7-0.6-1.2-1.4-1.5-2.2s-0.5-1.8-0.5-2.9V13.5c0-1.1,0.2-2,0.5-2.9
	s0.9-1.6,1.5-2.2c0.7-0.6,1.4-1.1,2.3-1.4c0.9-0.3,1.9-0.5,3.1-0.5h1.2c1.1,0,2.2,0.2,3.1,0.5c0.9,0.3,1.7,0.8,2.3,1.4
	c0.7,0.6,1.2,1.4,1.5,2.2c0.4,0.9,0.5,1.8,0.5,2.9v12.9C269.1,27.4,268.9,28.4,268.6,29.2z M265.4,13.5c0-1.1-0.4-1.9-1.1-2.7
	c-0.7-0.7-1.6-1.1-2.7-1.1h-1.2c-1.1,0-1.9,0.4-2.7,1.1c-0.7,0.7-1.1,1.6-1.1,2.7v12.9c0,1.1,0.4,1.9,1.1,2.7s1.6,1.1,2.7,1.1h1.2
	c1.1,0,1.9-0.4,2.7-1.1c0.7-0.7,1.1-1.6,1.1-2.7V13.5z"/>
<path class="st2" d="M289.2,29.1c0,0.1-0.1,0.5-0.4,0.9c-0.3,0.5-0.7,1-1.4,1.6c-1.2,1.2-3,1.7-5.2,1.7H281c-1.1,0-2.2-0.2-3.1-0.5
	c-0.9-0.3-1.7-0.8-2.3-1.4c-0.7-0.6-1.2-1.4-1.5-2.2s-0.5-1.8-0.5-2.9V13.5c0-1.1,0.2-2,0.5-2.9s0.9-1.6,1.5-2.2
	c0.7-0.6,1.4-1.1,2.3-1.4c0.9-0.3,1.9-0.5,3.1-0.5h1.2c1,0,2,0.1,2.8,0.4c0.8,0.3,1.6,0.6,2.2,1.1s1.1,0.9,1.4,1.4
	c0.3,0.5,0.5,0.9,0.5,1.4c0,0.1-0.1,0.2-0.2,0.3l-2.7,1.3c-0.1,0-0.1,0-0.2,0c-0.1,0-0.2-0.1-0.3-0.2c-0.5-0.6-0.9-1.2-1.4-1.6
	c-0.5-0.5-1.2-0.7-2-0.7H281c-1.1,0-1.9,0.4-2.7,1.1c-0.7,0.7-1.1,1.6-1.1,2.7v12.9c0,1.1,0.4,1.9,1.1,2.7s1.6,1.1,2.7,1.1h1.2
	c0.5,0,0.9-0.1,1.4-0.3c0.4-0.2,0.7-0.4,0.9-0.6c0.5-0.6,0.8-1,1-1.3s0.4-0.5,0.5-0.5c0.1,0,0.1,0,0.2,0.1l2.6,1.3
	C289.1,28.9,289.2,29,289.2,29.1z"/>
</svg>
