<?xml version="1.0" encoding="utf-8"?>
<!-- Generator: Adobe Illustrator 20.1.0, SVG Export Plug-In . SVG Version: 6.00 Build 0)  -->
<svg version="1.1" id="Layer_1" xmlns="http://www.w3.org/2000/svg" xmlns:xlink="http://www.w3.org/1999/xlink" x="0px" y="0px" preserveAspectRatio="xMinYMid"
	 viewBox="0 0 312.2 33.1" style="enable-background:new 0 0 312.2 33.1;" xml:space="preserve">
<style type="text/css">
	.st0{fill:#DD0330;}
	.st1{fill:#444444;}
</style>
<path class="st0" d="M182.3,26.5h-3c-0.3,0-0.4,0.1-0.4,0.4v5.3c0,0.3-0.1,0.4-0.4,0.4h-3c-0.3,0-0.4-0.1-0.4-0.4v-5.3
	c0-0.3-0.1-0.4-0.4-0.4h-10.6c-0.3,0-0.4-0.1-0.4-0.3v-0.1v-3l11.2-16.9l0.3-0.2h3.2c0.3,0,0.4,0.1,0.4,0.4v16.3
	c0,0.3,0.1,0.4,0.4,0.4h3c0.3,0,0.4,0.1,0.4,0.4V26C182.7,26.4,182.6,26.5,182.3,26.5z M175.1,13.1c0-0.3-0.1-0.5-0.4-0.5
	c-0.2,0-0.3,0.1-0.4,0.2l-6.4,9.6c-0.1,0.1-0.1,0.3-0.1,0.3c0,0.2,0.2,0.3,0.5,0.3h6.4c0.3,0,0.4-0.1,0.4-0.4V13.1z"/>
<path class="st0" d="M199.9,31c-1.4,1.4-3.2,2-5.6,2H193c-1,0-1.9-0.1-2.7-0.3s-1.4-0.5-1.9-0.9c-0.8-0.6-1.4-1.2-1.8-1.8
	c-0.4-0.5-0.6-1-0.6-1.3c0-0.1,0.1-0.2,0.3-0.3L189,27c0.1-0.1,0.2-0.1,0.2-0.1c0.1,0,0.2,0.1,0.4,0.3c0.3,0.3,0.5,0.6,0.7,0.9
	s0.4,0.5,0.7,0.8c0.3,0.2,0.5,0.4,0.9,0.5c0.3,0.1,0.7,0.2,1.2,0.2h1.3c1,0,1.9-0.4,2.7-1.1c0.7-0.7,1.1-1.6,1.1-2.7v-1.5
	c0-1.1-0.4-2-1.1-2.7c-0.7-0.7-1.6-1.1-2.7-1.1h-6.8c-0.3,0-0.4-0.1-0.4-0.4V6.5c0-0.3,0.1-0.4,0.4-0.4h13.5c0.3,0,0.4,0.1,0.4,0.4
	V9c0,0.3-0.1,0.4-0.4,0.4h-9.7c-0.3,0-0.4,0.1-0.4,0.4v7c0,0.3,0.1,0.4,0.4,0.4h3c2.4,0,4.2,0.7,5.6,2c1.4,1.4,2,3.2,2,5.5v0.8
	C201.9,27.9,201.2,29.7,199.9,31z"/>
<path class="st0" d="M222.5,28.8c-0.4,0.9-0.9,1.6-1.5,2.3c-0.7,0.6-1.5,1.1-2.4,1.5c-0.9,0.3-2,0.5-3.1,0.5h-1.3
	c-1.2,0-2.2-0.2-3.1-0.5c-0.9-0.3-1.7-0.8-2.4-1.5c-0.7-0.6-1.2-1.4-1.5-2.3c-0.4-0.9-0.5-1.9-0.5-2.9V12.8c0-1.1,0.2-2,0.5-2.9
	c0.4-0.9,0.9-1.6,1.5-2.3c0.7-0.6,1.5-1.1,2.4-1.5c0.9-0.3,2-0.5,3.1-0.5h1.3c1.2,0,2.2,0.2,3.1,0.5c0.9,0.3,1.7,0.8,2.4,1.5
	c0.7,0.6,1.2,1.4,1.5,2.3c0.4,0.9,0.5,1.9,0.5,2.9v13.1C223.1,27,222.9,27.9,222.5,28.8z M219.3,12.8c0-1.1-0.4-2-1.1-2.7
	c-0.8-0.7-1.7-1.1-2.7-1.1h-1.3c-1.1,0-2,0.4-2.7,1.1c-0.7,0.7-1.1,1.6-1.1,2.7v13.1c0,1.1,0.4,2,1.1,2.7c0.7,0.7,1.6,1.1,2.7,1.1
	h1.3c1.1,0,2-0.4,2.7-1.1s1.1-1.6,1.1-2.7V12.8z"/>
<path class="st0" d="M244,28.8c-0.4,0.9-0.9,1.6-1.5,2.3c-0.7,0.6-1.5,1.1-2.4,1.5c-0.9,0.3-2,0.5-3.1,0.5h-1.3
	c-1.2,0-2.2-0.2-3.1-0.5c-0.9-0.3-1.7-0.8-2.4-1.5c-0.7-0.6-1.2-1.4-1.5-2.3c-0.4-0.9-0.5-1.9-0.5-2.9V12.8c0-1.1,0.2-2,0.5-2.9
	c0.4-0.9,0.9-1.6,1.5-2.3c0.7-0.6,1.5-1.1,2.4-1.5c0.9-0.3,2-0.5,3.1-0.5h1.3c1.2,0,2.2,0.2,3.1,0.5c0.9,0.3,1.7,0.8,2.4,1.5
	c0.7,0.6,1.2,1.4,1.5,2.3c0.4,0.9,0.5,1.9,0.5,2.9v13.1C244.6,27,244.4,27.9,244,28.8z M240.8,12.8c0-1.1-0.4-2-1.1-2.7
	C239,9.4,238.1,9,237,9h-1.3c-1.1,0-2,0.4-2.7,1.1c-0.7,0.7-1.1,1.6-1.1,2.7v13.1c0,1.1,0.4,2,1.1,2.7c0.7,0.7,1.6,1.1,2.7,1.1h1.3
	c1.1,0,2-0.4,2.7-1.1s1.1-1.6,1.1-2.7V12.8z"/>
<path class="st1" d="M14.6,32.5H0.4c-0.3,0-0.4-0.1-0.4-0.4V6.7c0-0.3,0.1-0.4,0.4-0.4h2.9c0.3,0,0.4,0.1,0.4,0.4v22.1
	c0,0.3,0.1,0.4,0.4,0.4h10.4c0.3,0,0.4,0.1,0.4,0.4v2.5C15,32.4,14.9,32.5,14.6,32.5z"/>
<path class="st1" d="M22.5,32.5h-2.9c-0.3,0-0.4-0.1-0.4-0.4V6.7c0-0.3,0.1-0.4,0.4-0.4h2.9c0.3,0,0.4,0.1,0.4,0.4v25.4
	C22.9,32.4,22.8,32.5,22.5,32.5z"/>
<path class="st1" d="M42,9.6h-4.8c-0.3,0-0.4,0.1-0.4,0.4v22.1c0,0.3-0.1,0.4-0.4,0.4h-2.9c-0.3,0-0.4-0.1-0.4-0.4V10
	c0-0.3-0.1-0.4-0.4-0.4h-4.8c-0.3,0-0.4-0.1-0.4-0.4V6.7c0-0.3,0.1-0.4,0.4-0.4h14.2c0.3,0,0.4,0.1,0.4,0.4v2.5
	C42.4,9.5,42.2,9.6,42,9.6z"/>
<path class="st1" d="M63.7,32.5h-2.9c-0.3,0-0.4-0.1-0.4-0.4V21.3c0-0.3-0.1-0.4-0.4-0.4h-8.5c-0.3,0-0.4,0.1-0.4,0.4v10.8
	c0,0.3-0.1,0.4-0.4,0.4h-2.9c-0.3,0-0.4-0.1-0.4-0.4V6.7c0-0.3,0.1-0.4,0.4-0.4h2.9c0.3,0,0.4,0.1,0.4,0.4v10.4
	c0,0.3,0.1,0.4,0.4,0.4H60c0.3,0,0.4-0.1,0.4-0.4V6.7c0-0.3,0.1-0.4,0.4-0.4h2.9c0.3,0,0.4,0.1,0.4,0.4v25.4
	C64.1,32.4,63.9,32.5,63.7,32.5z"/>
<path class="st1" d="M73.3,32.5h-2.9c-0.3,0-0.4-0.1-0.4-0.4V6.7c0-0.3,0.1-0.4,0.4-0.4h2.9c0.3,0,0.4,0.1,0.4,0.4v25.4
	C73.8,32.4,73.6,32.5,73.3,32.5z"/>
<path class="st1" d="M86.1,21.1h-6.7c-0.3,0-0.4-0.1-0.4-0.4V18c0-0.3,0.1-0.4,0.4-0.4h6.7c0.3,0,0.4,0.1,0.4,0.4v2.7
	C86.5,21,86.4,21.1,86.1,21.1z"/>
<path class="st1" d="M103.3,9.6h-4.8c-0.3,0-0.4,0.1-0.4,0.4v22.1c0,0.3-0.1,0.4-0.4,0.4h-2.9c-0.3,0-0.4-0.1-0.4-0.4V10
	c0-0.3-0.1-0.4-0.4-0.4h-4.8c-0.3,0-0.4-0.1-0.4-0.4V6.7c0-0.3,0.1-0.4,0.4-0.4h14.2c0.3,0,0.4,0.1,0.4,0.4v2.5
	C103.7,9.5,103.6,9.6,103.3,9.6z"/>
<path class="st1" d="M123.1,32.5h-14.2c-0.3,0-0.4-0.1-0.4-0.4V6.7c0-0.3,0.1-0.4,0.4-0.4h14.2c0.3,0,0.4,0.1,0.4,0.4v2.5
	c0,0.3-0.1,0.4-0.4,0.4h-10.4c-0.3,0-0.4,0.1-0.4,0.4v7.1c0,0.3,0.1,0.4,0.4,0.4h8.5c0.3,0,0.4,0.1,0.4,0.4v2.5
	c0,0.3-0.1,0.4-0.4,0.4h-8.5c-0.3,0-0.4,0.1-0.4,0.4v7.5c0,0.3,0.1,0.4,0.4,0.4h10.4c0.3,0,0.4,0.1,0.4,0.4V32
	C123.6,32.4,123.4,32.5,123.1,32.5z"/>
<path class="st1" d="M148.2,32.2c0,0.2-0.1,0.3-0.4,0.3h-3.7l-0.3-0.2l-7.5-12.1c-0.8,0.9-1.7,2.1-2.8,3.6v8.3
	c0,0.3-0.1,0.4-0.4,0.4h-2.9c-0.3,0-0.4-0.1-0.4-0.4V6.7c0-0.3,0.1-0.4,0.4-0.4h2.9c0.3,0,0.4,0.1,0.4,0.4v11c0,0.3,0.1,0.5,0.4,0.5
	c0.1,0,0.2-0.1,0.4-0.2L143,6.5l0.3-0.2h3.5c0.3,0,0.5,0.1,0.5,0.3c0,0.1,0,0.2-0.1,0.3l-8,9.8c-0.1,0.1-0.1,0.1-0.1,0.2
	s0,0.2,0,0.2l9.1,14.7C148.1,32,148.2,32.1,148.2,32.2z"/>
<g>
	<path class="st1" d="M156.1,11.2c-0.2,0.4-0.4,0.7-0.7,1s-0.7,0.5-1.1,0.7c-0.4,0.2-0.9,0.2-1.4,0.2h-0.1c-0.5,0-1-0.1-1.4-0.2
		c-0.4-0.2-0.8-0.4-1.1-0.7s-0.5-0.6-0.7-1s-0.2-0.8-0.2-1.3V9.5c0-0.5,0.1-0.9,0.2-1.3c0.2-0.4,0.4-0.7,0.7-1s0.7-0.5,1.1-0.7
		c0.4-0.2,0.9-0.2,1.4-0.2h0.1c0.5,0,1,0.1,1.4,0.2c0.4,0.2,0.8,0.4,1.1,0.7c0.3,0.3,0.5,0.6,0.7,1c0.2,0.4,0.2,0.8,0.2,1.3v0.4
		C156.3,10.4,156.3,10.8,156.1,11.2z M155.8,9.5c0-0.8-0.3-1.4-0.8-1.9s-1.2-0.7-2.1-0.7h-0.1c-0.9,0-1.6,0.2-2.1,0.7
		s-0.8,1.1-0.8,1.9v0.4c0,0.8,0.3,1.4,0.8,1.9s1.2,0.7,2.1,0.7h0.1c0.9,0,1.6-0.2,2.1-0.7s0.8-1.1,0.8-1.9V9.5z M154.2,9.5
		c-0.1,0.1-0.1,0.2-0.2,0.3c-0.1,0.1-0.1,0.1-0.2,0.2c-0.1,0.1-0.1,0.1-0.1,0.2c0,0,0,0,0,0.1l0.5,0.9c0,0.1,0,0.1,0,0.1
		c0,0.1-0.1,0.2-0.2,0.2h-0.3c-0.1,0-0.1-0.1-0.2-0.1l-0.4-1c0,0-0.1-0.1-0.2-0.1h-0.5c-0.1,0-0.2,0.1-0.2,0.2v0.9
		c0,0.1-0.1,0.2-0.2,0.2h-0.2c-0.1,0-0.2-0.1-0.2-0.2V8c0-0.1,0.1-0.2,0.2-0.2h1.2c0.4,0,0.7,0.1,0.9,0.3c0.2,0.2,0.3,0.5,0.3,0.9
		v0.1C154.3,9.3,154.3,9.4,154.2,9.5z M153.7,9c0-0.2-0.1-0.3-0.2-0.4c-0.1-0.1-0.2-0.2-0.4-0.2h-0.6c-0.1,0-0.2,0.1-0.2,0.2v0.9
		c0,0.1,0.1,0.2,0.2,0.2h0.6c0.2,0,0.3-0.1,0.4-0.2C153.6,9.4,153.7,9.2,153.7,9L153.7,9z"/>
</g>
</svg>
