<?xml version="1.0" encoding="utf-8"?>
<!-- Generator: Adobe Illustrator 20.1.0, SVG Export Plug-In . SVG Version: 6.00 Build 0)  -->
<svg version="1.1" id="Layer_1" xmlns="http://www.w3.org/2000/svg" xmlns:xlink="http://www.w3.org/1999/xlink" x="0px" y="0px" preserveAspectRatio="xMinYMid"
	 viewBox="0 0 303.7 33.1" style="enable-background:new 0 0 303.7 33.1;" xml:space="preserve">
<style type="text/css">
	.st0{fill:#444444;}
	.st1{fill:#6C54A3;}
</style>
<path class="st0" d="M6.5,9.5C6.1,9.7,5.7,10,5.3,10.3C5,10.6,4.7,11,4.5,11.5s-0.3,1-0.3,1.5c0,0.6,0.1,1,0.4,1.4
	c0.2,0.4,0.6,0.8,1.1,1.1s1,0.7,1.7,1s1.4,0.7,2.3,1.1c1.1,0.5,2.1,1,2.9,1.6c0.8,0.6,1.5,1.2,2,1.8c0.5,0.6,0.9,1.4,1.2,2.2
	c0.3,0.8,0.4,1.7,0.4,2.7s-0.2,2-0.5,2.9c-0.4,0.9-0.9,1.6-1.5,2.2s-1.4,1.1-2.3,1.5S10,33,8.8,33H6.9c-1,0-1.9-0.1-2.7-0.3
	s-1.4-0.5-1.9-0.9C1.6,31,1,30.4,0.6,29.9S0,28.9,0,28.6c0-0.1,0.1-0.2,0.2-0.3L2.9,27C3,26.9,3,26.9,3.1,26.9s0.2,0.1,0.4,0.3
	c0.2,0.3,0.5,0.6,0.7,0.9s0.4,0.5,0.7,0.7c0.2,0.2,0.5,0.4,0.9,0.5c0.3,0.1,0.7,0.2,1.2,0.2h1.7c1,0,1.9-0.4,2.6-1.1
	s1.1-1.6,1.1-2.7c0-0.6-0.1-1.1-0.3-1.5s-0.5-0.8-1-1.2c-0.4-0.4-1-0.7-1.6-1.1c-0.6-0.3-1.3-0.7-2.1-1.1c-1.1-0.5-2.1-1-2.9-1.5
	c-0.9-0.5-1.6-1-2.2-1.6s-1-1.3-1.3-2.1C0.6,14.9,0.5,14,0.5,13s0.2-2,0.5-2.9c0.4-0.9,0.9-1.6,1.5-2.2C3.2,7.3,4,6.8,4.9,6.4
	C5.8,6.1,6.8,5.9,8,5.9h0.7c1,0,2,0.1,2.8,0.4C12.3,6.7,13,7,13.6,7.5s1.1,0.9,1.4,1.4c0.3,0.5,0.5,0.9,0.5,1.3
	c0,0.1-0.1,0.2-0.2,0.3l-2.7,1.3c-0.1,0-0.1,0-0.2,0c-0.1,0-0.2-0.1-0.3-0.2c-0.5-0.6-0.9-1.2-1.4-1.6c-0.5-0.5-1.1-0.7-2-0.7H8
	C7.5,9.3,7,9.4,6.5,9.5z"/>
<path class="st0" d="M24.3,32.5h-2.9c-0.3,0-0.4-0.1-0.4-0.4V6.8c0-0.3,0.1-0.4,0.4-0.4h2.9c0.3,0,0.4,0.1,0.4,0.4V32
	C24.7,32.3,24.6,32.5,24.3,32.5z"/>
<path class="st0" d="M44.9,32.5H30.8c-0.3,0-0.4-0.1-0.4-0.4V6.8c0-0.3,0.1-0.4,0.4-0.4h2.9c0.3,0,0.4,0.1,0.4,0.4v22
	c0,0.3,0.1,0.4,0.4,0.4h10.4c0.3,0,0.4,0.1,0.4,0.4V32C45.3,32.3,45.2,32.5,44.9,32.5z"/>
<path class="st0" d="M67.2,32C67.2,32,67.2,32.1,67.2,32c0,0.3-0.1,0.4-0.4,0.4h-3.1c-0.2,0-0.4-0.1-0.4-0.3l-1.5-5.5
	c0-0.2-0.2-0.2-0.4-0.2h-6.7c-0.2,0-0.4,0.1-0.4,0.2l-1.5,5.5c0,0.2-0.2,0.3-0.4,0.3h-3.1c-0.3,0-0.5-0.1-0.5-0.4c0,0,0,0,0-0.1
	c0,0,0,0,0-0.1l7.7-25.3c0-0.2,0.2-0.3,0.4-0.3h2.2c0.2,0,0.3,0.1,0.4,0.3l7.7,25.3C67.2,32,67.2,32,67.2,32z M58.5,14.8
	c-0.1-0.2-0.1-0.5-0.2-0.8c-0.1-0.3-0.2-0.6-0.3-1h-0.1l-0.5,1.9l-2,7.7c0,0.1,0,0.1,0,0.1s0,0,0,0.1c0,0.2,0.2,0.4,0.5,0.4h4.3
	c0.3,0,0.5-0.1,0.5-0.4v-0.1v-0.1L58.5,14.8z"/>
<path class="st1" d="M170,30.9c-1.3,1.3-3.1,2-5.5,2h-1.2c-1,0-1.9-0.1-2.7-0.3s-1.4-0.5-1.9-0.9c-0.8-0.6-1.4-1.2-1.8-1.8
	c-0.4-0.5-0.6-1-0.6-1.3c0-0.1,0.1-0.2,0.2-0.3l2.6-1.3c0.1-0.1,0.2-0.1,0.2-0.1c0.1,0,0.1,0,0.2,0.1c0,0.1,0.1,0.1,0.1,0.2
	c0.2,0.3,0.5,0.6,0.7,0.9s0.4,0.5,0.7,0.7c0.2,0.2,0.5,0.4,0.9,0.5c0.3,0.1,0.7,0.2,1.2,0.2h1.2c1,0,1.9-0.4,2.6-1.1
	c0.7-0.7,1.1-1.6,1.1-2.7v-1.4c0-1-0.4-1.9-1.1-2.7c-0.7-0.7-1.6-1.1-2.6-1.1H161c-0.3,0-0.4-0.1-0.4-0.4v-2.5
	c0-0.3,0.1-0.4,0.4-0.4h3.3c1,0,1.9-0.4,2.6-1.1c0.7-0.7,1.1-1.6,1.1-2.7V13c0-1-0.4-1.9-1.1-2.7c-0.7-0.7-1.6-1.1-2.6-1.1h-1.2
	c-0.5,0-0.9,0.1-1.2,0.2c-0.3,0.1-0.6,0.3-0.9,0.5c-0.2,0.2-0.5,0.5-0.7,0.7s-0.4,0.6-0.7,0.9c-0.1,0.2-0.3,0.2-0.4,0.2
	c-0.1,0-0.2,0-0.2,0l-2.6-1.3c-0.2-0.1-0.2-0.2-0.2-0.3c0-0.4,0.2-0.8,0.6-1.3c0.4-0.5,1-1.1,1.8-1.7c0.5-0.4,1.1-0.6,1.9-0.9
	c0.8-0.2,1.6-0.3,2.6-0.3h1.2c2.3,0,4.1,0.7,5.4,2c1.3,1.3,2,3.2,2,5.4V14c0,1-0.4,2.2-1.3,3.4c-0.4,0.5-0.7,0.8-1,1.1
	c-0.3,0.2-0.5,0.4-0.5,0.6s0.2,0.3,0.5,0.6c0.3,0.3,0.7,0.7,1,1.2c0.9,1.3,1.3,2.4,1.3,3.4v1.2C171.9,27.8,171.3,29.6,170,30.9z"/>
<path class="st1" d="M190.2,30.9c-1.3,1.3-3.1,2-5.5,2h-1.2c-1,0-1.9-0.1-2.7-0.3s-1.4-0.5-1.9-0.9c-0.8-0.6-1.4-1.2-1.8-1.8
	c-0.4-0.5-0.6-1-0.6-1.3c0-0.1,0.1-0.2,0.2-0.3l2.6-1.3c0.1-0.1,0.2-0.1,0.2-0.1c0.1,0,0.2,0.1,0.4,0.3c0.2,0.3,0.5,0.6,0.7,0.9
	s0.4,0.5,0.7,0.7c0.2,0.2,0.5,0.4,0.9,0.5c0.3,0.1,0.7,0.2,1.2,0.2h1.2c1,0,1.9-0.4,2.6-1.1c0.7-0.7,1.1-1.6,1.1-2.7v-1.4
	c0-1-0.4-1.9-1.1-2.7c-0.7-0.7-1.6-1.1-2.6-1.1h-6.5c-0.3,0-0.4-0.1-0.4-0.4V6.8c0-0.3,0.1-0.4,0.4-0.4h13.3c0.3,0,0.4,0.1,0.4,0.4
	v2.5c0,0.3-0.1,0.4-0.4,0.4h-9.5c-0.3,0-0.4,0.1-0.4,0.4v6.8c0,0.3,0.1,0.4,0.4,0.4h2.9c2.3,0,4.1,0.7,5.5,2s2,3.1,2,5.4v0.8
	C192.2,27.8,191.5,29.6,190.2,30.9z"/>
<path class="st1" d="M212.4,28.7c-0.4,0.9-0.9,1.6-1.5,2.2s-1.4,1.1-2.3,1.4c-0.9,0.3-1.9,0.5-3.1,0.5h-1.2c-1.1,0-2.2-0.2-3.1-0.5
	c-0.9-0.3-1.7-0.8-2.3-1.4s-1.2-1.4-1.5-2.2c-0.4-0.9-0.5-1.8-0.5-2.9V13c0-1,0.2-2,0.5-2.9c0.4-0.9,0.9-1.6,1.5-2.2
	s1.4-1.1,2.3-1.4c0.9-0.3,1.9-0.5,3.1-0.5h1.2c1.1,0,2.2,0.2,3.1,0.5c0.9,0.3,1.7,0.8,2.3,1.4s1.2,1.4,1.5,2.2
	c0.4,0.9,0.5,1.8,0.5,2.9v12.8C212.9,26.9,212.7,27.8,212.4,28.7z M209.2,13c0-1-0.4-1.9-1.1-2.7c-0.7-0.7-1.6-1.1-2.7-1.1h-1.2
	c-1,0-1.9,0.4-2.7,1.1c-0.7,0.7-1.1,1.6-1.1,2.7v12.8c0,1,0.4,1.9,1.1,2.7c0.7,0.7,1.6,1.1,2.7,1.1h1.2c1,0,1.9-0.4,2.7-1.1
	c0.7-0.7,1.1-1.6,1.1-2.7V13z"/>
<path class="st1" d="M233.7,28.7c-0.4,0.9-0.9,1.6-1.5,2.2s-1.4,1.1-2.3,1.4c-0.9,0.3-1.9,0.5-3.1,0.5h-1.2c-1.1,0-2.2-0.2-3.1-0.5
	c-0.9-0.3-1.7-0.8-2.3-1.4s-1.2-1.4-1.5-2.2c-0.4-0.9-0.5-1.8-0.5-2.9V13c0-1,0.2-2,0.5-2.9c0.4-0.9,0.9-1.6,1.5-2.2
	s1.4-1.1,2.3-1.4c0.9-0.3,1.9-0.5,3.1-0.5h1.2c1.1,0,2.2,0.2,3.1,0.5c0.9,0.3,1.7,0.8,2.3,1.4s1.2,1.4,1.5,2.2
	c0.4,0.9,0.5,1.8,0.5,2.9v12.8C234.2,26.9,234.1,27.8,233.7,28.7z M230.5,13c0-1-0.4-1.9-1.1-2.7c-0.7-0.7-1.6-1.1-2.7-1.1h-1.2
	c-1,0-1.9,0.4-2.7,1.1c-0.7,0.7-1.1,1.6-1.1,2.7v12.8c0,1,0.4,1.9,1.1,2.7c0.7,0.7,1.6,1.1,2.7,1.1h1.2c1,0,1.9-0.4,2.7-1.1
	c0.7-0.7,1.1-1.6,1.1-2.7V13z"/>
<path class="st0" d="M78,21.2h-6.7c-0.3,0-0.4-0.1-0.4-0.4v-2.7c0-0.3,0.1-0.4,0.4-0.4H78c0.3,0,0.4,0.1,0.4,0.4v2.7
	C78.4,21.1,78.3,21.2,78,21.2z"/>
<path class="st0" d="M95.2,9.7h-4.8c-0.3,0-0.4,0.1-0.4,0.4v22.1c0,0.3-0.1,0.4-0.4,0.4h-2.9c-0.3,0-0.4-0.1-0.4-0.4V10.1
	c0-0.3-0.1-0.4-0.4-0.4h-4.8c-0.3,0-0.4-0.1-0.4-0.4V6.8c0-0.3,0.1-0.4,0.4-0.4h14.2c0.3,0,0.4,0.1,0.4,0.4v2.5
	C95.7,9.6,95.6,9.7,95.2,9.7z"/>
<path class="st0" d="M115.3,32.6h-14.2c-0.3,0-0.4-0.1-0.4-0.4V6.8c0-0.3,0.1-0.4,0.4-0.4h14.2c0.3,0,0.4,0.1,0.4,0.4v2.5
	c0,0.3-0.1,0.4-0.4,0.4h-10.4c-0.3,0-0.4,0.1-0.4,0.4v7.1c0,0.3,0.1,0.4,0.4,0.4h8.5c0.3,0,0.4,0.1,0.4,0.4v2.5
	c0,0.3-0.1,0.4-0.4,0.4h-8.5c-0.3,0-0.4,0.1-0.4,0.4v7.5c0,0.3,0.1,0.4,0.4,0.4h10.4c0.3,0,0.4,0.1,0.4,0.4v2.5
	C115.8,32.5,115.6,32.6,115.3,32.6z"/>
<path class="st0" d="M140.1,32.3c0,0.2-0.1,0.3-0.4,0.3H136l-0.3-0.2l-7.5-12.1c-0.8,0.9-1.7,2.1-2.8,3.6v8.3c0,0.3-0.1,0.4-0.4,0.4
	h-2.9c-0.3,0-0.4-0.1-0.4-0.4V6.8c0-0.3,0.1-0.4,0.4-0.4h2.9c0.3,0,0.4,0.1,0.4,0.4v11c0,0.3,0.1,0.5,0.4,0.5c0.1,0,0.2-0.1,0.4-0.2
	l8.7-11.5l0.3-0.2h3.5c0.3,0,0.5,0.1,0.5,0.3c0,0.1,0,0.2-0.1,0.3l-8,9.8c-0.1,0.1-0.1,0.1-0.1,0.2s0,0.2,0,0.2l9.1,14.7
	C140,32.1,140.1,32.2,140.1,32.3z"/>
<g>
	<path class="st0" d="M143.9,7.1h-0.5c-0.1,0-0.2,0.1-0.2,0.2v2.5c0,0.1-0.1,0.2-0.2,0.2h-0.2c-0.1,0-0.2-0.1-0.2-0.2V7.3
		c0-0.1-0.1-0.2-0.2-0.2H142c-0.1,0-0.2-0.1-0.2-0.2V6.7c0-0.1,0.1-0.2,0.2-0.2h1.9c0.1,0,0.2,0.1,0.2,0.2v0.2
		C144.1,7,144,7.1,143.9,7.1z M147.8,10h-0.2c-0.1,0-0.2-0.1-0.2-0.2V8.5c0-0.1-0.1-0.2-0.2-0.2c0,0-0.1,0-0.2,0.1l-0.5,0.8
		l-0.2,0.1h-0.1l-0.1-0.1l-0.5-0.8c-0.1-0.1-0.1-0.1-0.2-0.1c-0.1,0-0.1,0.1-0.1,0.2v1.3c0,0.1-0.1,0.2-0.2,0.2H145
		c-0.1,0-0.2-0.1-0.2-0.2V6.7c0-0.1,0.1-0.2,0.2-0.2h0.2l0.2,0.1l0.9,1.5c0.1,0.1,0.1,0.1,0.2,0.1c0,0,0.1,0,0.2-0.1l0.9-1.5
		l0.2-0.1h0.2c0.1,0,0.2,0.1,0.2,0.2v3.1C148,9.9,147.9,10,147.8,10z"/>
</g>
</svg>
