<?xml version="1.0" encoding="utf-8"?>
<!-- Generator: Adobe Illustrator 21.0.2, SVG Export Plug-In . SVG Version: 6.00 Build 0)  -->
<svg version="1.1" id="Layer_1" xmlns="http://www.w3.org/2000/svg" xmlns:xlink="http://www.w3.org/1999/xlink" x="0px" y="0px"
	 viewBox="0 0 355.7 33.1" style="enable-background:new 0 0 355.7 33.1;" xml:space="preserve">
<style type="text/css">
	.st0{fill:#4E4F51;}
	.st1{fill:#F16522;}
</style>
<path class="st0" d="M21.2,32.5c-0.1,0.2-0.2,0.3-0.4,0.3h-2.3c-0.2,0-0.4-0.1-0.4-0.3l-4.7-18.2L8.5,32.6c0,0.2-0.2,0.3-0.4,0.3
	H5.8c-0.2,0-0.4-0.1-0.4-0.3L0,7.4c0,0,0-0.1,0-0.1c0,0,0-0.1,0-0.1C0,7.1,0.1,7,0.5,7h3c0.2,0,0.4,0.1,0.4,0.3l3.6,18.9l4.8-19.1
	c0-0.2,0.2-0.3,0.4-0.3h1.3c0.2,0,0.4,0.1,0.4,0.3l4.9,19.1l3.5-18.9C22.8,7.1,22.9,7,23.1,7h3c0.3,0,0.5,0.1,0.5,0.3
	c0,0,0,0.1,0,0.1c0,0,0,0.1,0,0.1L21.2,32.5z"/>
<path class="st0" d="M44.2,32.8h-14c-0.3,0-0.4-0.1-0.4-0.4V7.4c0-0.3,0.1-0.4,0.4-0.4h14c0.3,0,0.4,0.1,0.4,0.4v2.5
	c0,0.3-0.1,0.4-0.4,0.4H33.9c-0.3,0-0.4,0.1-0.4,0.4v7c0,0.3,0.1,0.4,0.4,0.4h8.4c0.3,0,0.4,0.1,0.4,0.4v2.5c0,0.3-0.1,0.4-0.4,0.4
	h-8.4c-0.3,0-0.4,0.1-0.4,0.4v7.4c0,0.3,0.1,0.4,0.4,0.4h10.3c0.3,0,0.4,0.1,0.4,0.4v2.5C44.6,32.7,44.5,32.8,44.2,32.8z"/>
<path class="st0" d="M65.4,32.4C65.4,32.4,65.4,32.4,65.4,32.4c0,0.3-0.1,0.4-0.4,0.4h-3.1c-0.2,0-0.4-0.1-0.4-0.3L60,27.1
	c0-0.2-0.2-0.2-0.4-0.2h-6.7c-0.2,0-0.4,0.1-0.4,0.2L51,32.6c0,0.2-0.2,0.3-0.4,0.3h-3.1c-0.3,0-0.5-0.1-0.5-0.4c0,0,0,0,0-0.1
	c0,0,0,0,0-0.1l7.6-25.1c0-0.2,0.2-0.3,0.4-0.3h2.2c0.2,0,0.3,0.1,0.4,0.3l7.6,25.1C65.4,32.4,65.4,32.4,65.4,32.4z M56.8,15.3
	c-0.1-0.2-0.1-0.5-0.2-0.8c-0.1-0.3-0.2-0.6-0.3-1h-0.2l-0.5,1.8l-2,7.7c0,0.1,0,0.1,0,0.1c0,0,0,0,0,0.1c0,0.2,0.1,0.4,0.5,0.4h4.3
	c0.3,0,0.5-0.1,0.5-0.4c0,0,0-0.1,0-0.1c0,0,0-0.1,0-0.1L56.8,15.3z"/>
<path class="st0" d="M85.1,32.5c0,0.2-0.1,0.3-0.4,0.3h-3.2l-0.4-0.3l-3.8-11L77,21.3H73c-0.3,0-0.4,0.1-0.4,0.4v10.7
	c0,0.3-0.1,0.4-0.4,0.4h-2.9c-0.3,0-0.4-0.1-0.4-0.4V7.4C68.8,7.1,69,7,69.3,7h8.2c2.3,0,4.1,0.7,5.4,2c1.3,1.3,2,3.1,2,5.4v0.4
	c0,0.7-0.2,1.5-0.6,2.3c-0.4,0.8-1,1.6-1.8,2.4c-0.4,0.4-0.7,0.6-1,0.7c-0.3,0.1-0.5,0.3-0.5,0.5c0,0.1,0,0.1,0,0.1l4,11.5
	C85.1,32.4,85.1,32.4,85.1,32.5z M81.2,13.9c0-1-0.4-1.9-1.1-2.6c-0.7-0.7-1.6-1.1-2.6-1.1H73c-0.3,0-0.4,0.1-0.4,0.4v7
	c0,0.3,0.1,0.4,0.4,0.4h4.5c1,0,1.9-0.4,2.6-1.1c0.7-0.7,1.1-1.6,1.1-2.6V13.9z"/>
<path class="st0" d="M94.8,22.1h-6.6c-0.3,0-0.4-0.1-0.4-0.4v-2.9c0-0.3,0.1-0.4,0.4-0.4h6.6c0.3,0,0.4,0.1,0.4,0.4v2.9
	C95.2,22,95.1,22.1,94.8,22.1z"/>
<path class="st0" d="M109.8,10.2h-4.7c-0.3,0-0.4,0.1-0.4,0.4v21.8c0,0.3-0.1,0.4-0.4,0.4h-2.9c-0.3,0-0.4-0.1-0.4-0.4V10.7
	c0-0.3-0.1-0.4-0.4-0.4h-4.7c-0.3,0-0.4-0.1-0.4-0.4V7.4c0-0.3,0.1-0.4,0.4-0.4h14c0.3,0,0.4,0.1,0.4,0.4v2.5
	C110.2,10.1,110.1,10.2,109.8,10.2z"/>
<path class="st0" d="M128.5,32.8h-14c-0.3,0-0.4-0.1-0.4-0.4V7.4c0-0.3,0.1-0.4,0.4-0.4h14c0.3,0,0.4,0.1,0.4,0.4v2.5
	c0,0.3-0.1,0.4-0.4,0.4h-10.3c-0.3,0-0.4,0.1-0.4,0.4v7c0,0.3,0.1,0.4,0.4,0.4h8.4c0.3,0,0.4,0.1,0.4,0.4v2.5c0,0.3-0.1,0.4-0.4,0.4
	h-8.4c-0.3,0-0.4,0.1-0.4,0.4v7.4c0,0.3,0.1,0.4,0.4,0.4h10.3c0.3,0,0.4,0.1,0.4,0.4v2.5C128.9,32.7,128.8,32.8,128.5,32.8z"/>
<path class="st0" d="M152.1,32.5c0,0.2-0.1,0.3-0.4,0.3h-3.7l-0.3-0.2l-7.4-12c-0.8,0.9-1.7,2.1-2.8,3.5v8.2c0,0.3-0.1,0.4-0.4,0.4
	h-2.9c-0.3,0-0.4-0.1-0.4-0.4V7.4c0-0.3,0.1-0.4,0.4-0.4h2.9c0.3,0,0.4,0.1,0.4,0.4v10.8c0,0.3,0.1,0.5,0.4,0.5
	c0.1,0,0.2-0.1,0.4-0.2l8.6-11.3l0.3-0.2h3.4c0.3,0,0.5,0.1,0.5,0.3c0,0.1,0,0.2-0.1,0.3l-7.9,9.7c-0.1,0.1-0.1,0.1-0.1,0.2
	c0,0.1,0,0.2,0,0.2l9,14.5C152.1,32.3,152.1,32.4,152.1,32.5z"/>
<path class="st1" d="M224.6,29.1c-0.4,0.9-0.9,1.6-1.5,2.2c-0.6,0.6-1.4,1.1-2.3,1.4c-0.9,0.3-1.9,0.5-3,0.5h-1.2
	c-1.1,0-2.1-0.2-3-0.5c-0.9-0.3-1.7-0.8-2.3-1.4c-0.6-0.6-1.1-1.4-1.5-2.2c-0.4-0.9-0.5-1.8-0.5-2.9V13.5c0-1,0.2-2,0.5-2.9
	c0.4-0.9,0.9-1.6,1.5-2.2s1.4-1.1,2.3-1.4c0.9-0.3,1.9-0.5,3-0.5h1.2c1.1,0,2.1,0.2,3,0.5c0.9,0.3,1.7,0.8,2.3,1.4s1.1,1.4,1.5,2.2
	c0.4,0.9,0.5,1.8,0.5,2.9v12.7C225.1,27.3,224.9,28.3,224.6,29.1z M221.4,13.5c0-1-0.4-1.9-1.1-2.6c-0.7-0.7-1.6-1.1-2.6-1.1h-1.2
	c-1,0-1.9,0.4-2.6,1.1c-0.7,0.7-1.1,1.6-1.1,2.6v12.7c0,1,0.4,1.9,1.1,2.6c0.7,0.7,1.6,1.1,2.6,1.1h1.2c1,0,1.9-0.4,2.6-1.1
	c0.7-0.7,1.1-1.6,1.1-2.6V13.5z"/>
<path class="st1" d="M245.3,29.1c-0.4,0.9-0.9,1.6-1.5,2.2c-0.6,0.6-1.4,1.1-2.3,1.4c-0.9,0.3-1.9,0.5-3,0.5h-1.2
	c-1.1,0-2.1-0.2-3-0.5c-0.9-0.3-1.7-0.8-2.3-1.4c-0.6-0.6-1.1-1.4-1.5-2.2c-0.4-0.9-0.5-1.8-0.5-2.9V13.5c0-1,0.2-2,0.5-2.9
	c0.4-0.9,0.9-1.6,1.5-2.2s1.4-1.1,2.3-1.4c0.9-0.3,1.9-0.5,3-0.5h1.2c1.1,0,2.1,0.2,3,0.5c0.9,0.3,1.7,0.8,2.3,1.4
	c0.6,0.6,1.1,1.4,1.5,2.2c0.4,0.9,0.5,1.8,0.5,2.9v12.7C245.8,27.3,245.7,28.3,245.3,29.1z M242.1,13.5c0-1-0.4-1.9-1.1-2.6
	c-0.7-0.7-1.6-1.1-2.6-1.1h-1.2c-1,0-1.9,0.4-2.6,1.1c-0.7,0.7-1.1,1.6-1.1,2.6v12.7c0,1,0.4,1.9,1.1,2.6c0.7,0.7,1.6,1.1,2.6,1.1
	h1.2c1,0,1.9-0.4,2.6-1.1c0.7-0.7,1.1-1.6,1.1-2.6V13.5z"/>
<path class="st0" d="M158.8,10.8c-0.1,0.3-0.3,0.6-0.6,0.8c-0.2,0.2-0.5,0.4-0.9,0.5c-0.3,0.1-0.7,0.2-1.1,0.2h-0.1
	c-0.4,0-0.8-0.1-1.1-0.2c-0.3-0.1-0.6-0.3-0.9-0.5c-0.2-0.2-0.4-0.5-0.6-0.8c-0.1-0.3-0.2-0.7-0.2-1.1V9.5c0-0.4,0.1-0.7,0.2-1.1
	c0.1-0.3,0.3-0.6,0.6-0.8c0.2-0.2,0.5-0.4,0.9-0.5c0.3-0.1,0.7-0.2,1.1-0.2h0.1c0.4,0,0.8,0.1,1.1,0.2c0.3,0.1,0.6,0.3,0.9,0.5
	c0.2,0.2,0.4,0.5,0.6,0.8c0.1,0.3,0.2,0.7,0.2,1.1v0.3C159,10.2,159,10.5,158.8,10.8 M158.6,9.5c0-0.6-0.2-1.1-0.6-1.5
	c-0.4-0.4-1-0.6-1.7-0.6h-0.1c-0.7,0-1.2,0.2-1.7,0.6c-0.4,0.4-0.6,0.9-0.6,1.5v0.3c0,0.6,0.2,1.1,0.6,1.5c0.4,0.4,1,0.6,1.7,0.6
	h0.1c0.7,0,1.2-0.2,1.7-0.6c0.4-0.4,0.6-0.9,0.6-1.5V9.5z M157.3,9.5c0,0.1-0.1,0.2-0.2,0.2c-0.1,0.1-0.1,0.1-0.2,0.2
	c0,0.1-0.1,0.1-0.1,0.1c0,0,0,0,0,0l0.4,0.8c0,0,0,0.1,0,0.1c0,0.1-0.1,0.1-0.2,0.1H157c-0.1,0-0.1,0-0.1-0.1l-0.3-0.8
	c0,0-0.1-0.1-0.1-0.1H156c-0.1,0-0.2,0.1-0.2,0.2v0.7c0,0.1-0.1,0.2-0.2,0.2h-0.2c-0.1,0-0.2-0.1-0.2-0.2V8.3c0-0.1,0.1-0.2,0.2-0.2
	h1c0.3,0,0.5,0.1,0.7,0.3c0.2,0.2,0.3,0.4,0.3,0.7v0.1C157.4,9.3,157.4,9.4,157.3,9.5 M156.9,9.1c0-0.1,0-0.3-0.1-0.3
	c-0.1-0.1-0.2-0.1-0.3-0.1H156c-0.1,0-0.2,0.1-0.2,0.2v0.7c0,0.1,0.1,0.2,0.2,0.2h0.5c0.1,0,0.3,0,0.3-0.1
	C156.9,9.4,156.9,9.2,156.9,9.1L156.9,9.1z"/>
<path class="st1" d="M182.1,27.2h-2.9c-0.3,0-0.4,0.1-0.4,0.4v5.2c0,0.3-0.1,0.4-0.4,0.4h-2.9c-0.3,0-0.4-0.1-0.4-0.4v-5.2
	c0-0.3-0.1-0.4-0.4-0.4h-10.5c-0.3,0-0.4-0.1-0.4-0.3v-0.1l0-2.9L174.9,7l0.3-0.2h3.1c0.3,0,0.4,0.1,0.4,0.4v16.1
	c0,0.3,0.1,0.4,0.4,0.4h2.9c0.3,0,0.4,0.1,0.4,0.4v2.5C182.5,27,182.4,27.2,182.1,27.2z M175,13.9c0-0.3-0.1-0.5-0.4-0.5
	c-0.2,0-0.3,0.1-0.4,0.2l-6.3,9.5c-0.1,0.1-0.1,0.3-0.1,0.3c0,0.2,0.2,0.3,0.5,0.3h6.3c0.3,0,0.4-0.1,0.4-0.4V13.9z"/>
<path class="st1" d="M204.4,27.2h-2.9c-0.3,0-0.4,0.1-0.4,0.4v5.2c0,0.3-0.1,0.4-0.4,0.4h-2.9c-0.3,0-0.4-0.1-0.4-0.4v-5.2
	c0-0.3-0.1-0.4-0.4-0.4h-10.5c-0.3,0-0.4-0.1-0.4-0.3v-0.1l0-2.9L197.2,7l0.3-0.2h3.1c0.3,0,0.4,0.1,0.4,0.4v16.1
	c0,0.3,0.1,0.4,0.4,0.4h2.9c0.3,0,0.4,0.1,0.4,0.4v2.5C204.9,27,204.7,27.2,204.4,27.2z M197.3,13.9c0-0.3-0.1-0.5-0.4-0.5
	c-0.2,0-0.3,0.1-0.4,0.2l-6.3,9.5c-0.1,0.1-0.1,0.3-0.1,0.3c0,0.2,0.2,0.3,0.5,0.3h6.3c0.3,0,0.4-0.1,0.4-0.4V13.9z"/>
</svg>
