<?xml version="1.0" encoding="utf-8"?>
<svg version="1.1" id="Layer_1" xmlns="http://www.w3.org/2000/svg" xmlns:xlink="http://www.w3.org/1999/xlink" x="0px" y="0px" viewBox="0 0 283 65" style="enable-background:new 0 0 283 65;" xml:space="preserve" preserveAspectRatio="xMidYMid">
<style type="text/css"> .st0{fill:#FFFFFF;} .st1{fill:#DE6B2C;} </style>
<g>
	<g>
		<rect x="43.2" y="2.7" width="28.1" height="34.5"/>
	</g>
	<g>
		<path class="st0" d="M57.4,5.6c0,0.1,0.1,0.1,0.1,0.2C58,8,58.8,10.2,60,12.2c0.7,1.2,1.4,2.3,2.1,3.4c1,1.6,2,3.3,2.8,5
			c0.6,1.3,1.1,2.5,1.4,3.9c0.5,2.2,0,4.3-1.2,6.2c-1.2,1.9-2.9,3.3-5.1,3.9C59,34.9,58.1,35,57.2,35c-1.7,0-3.2-0.4-4.7-1.3
			c-2.4-1.4-3.7-3.6-4.2-6.3c-0.2-1.5,0-2.9,0.5-4.4c0.5-1.5,1.2-3,2.1-4.4c0.9-1.5,1.8-3,2.7-4.5c1.2-2.1,2.4-4.3,3.2-6.6
			c0.2-0.5,0.3-1.1,0.5-1.7C57.2,5.8,57.3,5.7,57.4,5.6C57.3,5.6,57.4,5.6,57.4,5.6z M56.5,14.5C56.5,14.5,56.5,14.5,56.5,14.5
			c-0.2,0.1-0.3,0.2-0.3,0.3c-0.2,0.2-0.3,0.5-0.5,0.7c-1.2,1.7-2.3,3.4-3.3,5.2c-0.7,1.4-1.4,2.9-1.6,4.5c-0.2,1.1-0.3,2.2,0.1,3.2
			c0.5,1.5,1.6,2.2,3,2.1c0.8,0,1.4-0.5,1.7-1.2c0.2-0.6,0.3-1.3,0.3-2c0-0.5-0.2-0.8-0.5-1.2c-0.1-0.1-0.3-0.3-0.4-0.4
			c-0.1-0.2-0.2-0.3-0.3-0.5c-0.1-0.3-0.1-0.6-0.1-0.8c0.1-0.8,0.1-1.6,0.2-2.3c0.3-2.3,0.8-4.5,1.5-6.7
			C56.4,15.1,56.4,14.8,56.5,14.5z M63.4,29.2c-0.1,0.1-0.2,0.2-0.3,0.3c-1,1.2-2.2,2.1-3.6,2.7c-0.4,0.2-0.8,0.3-1.1,0.5
			c-0.1,0.1-0.3,0.1-0.2,0.3c0,0.2,0.2,0.1,0.4,0.1c1.2,0,2.4-0.4,3.3-1.1c0.7-0.6,1.2-1.2,1.5-2.1C63.4,29.7,63.5,29.5,63.4,29.2z"
			/>
		<path d="M56.5,14.5c-0.1,0.3-0.2,0.6-0.3,0.9c-0.7,2.2-1.2,4.4-1.5,6.7c-0.1,0.8-0.2,1.6-0.2,2.3c0,0.3,0,0.6,0.1,0.8
			c0.1,0.2,0.2,0.4,0.3,0.5c0.1,0.1,0.3,0.3,0.4,0.4c0.3,0.3,0.5,0.7,0.5,1.2c0,0.7-0.1,1.3-0.3,2c-0.3,0.7-0.9,1.2-1.7,1.2
			c-1.4,0-2.5-0.7-3-2.1c-0.3-1.1-0.3-2.2-0.1-3.2c0.3-1.6,0.9-3.1,1.6-4.5c1-1.8,2.1-3.6,3.3-5.2c0.2-0.2,0.3-0.5,0.5-0.7
			C56.3,14.7,56.4,14.6,56.5,14.5C56.5,14.5,56.5,14.5,56.5,14.5z"/>
		<path d="M63.4,29.2c0.1,0.3,0,0.6-0.1,0.8c-0.3,0.9-0.8,1.5-1.5,2.1c-1,0.8-2.1,1.1-3.3,1.1c-0.1,0-0.3,0-0.4-0.1
			c0-0.2,0.1-0.2,0.2-0.3c0.4-0.2,0.8-0.4,1.1-0.5c1.4-0.6,2.6-1.6,3.6-2.7C63.2,29.4,63.3,29.3,63.4,29.2z"/>
	</g>
	<path d="M5.2,20.5C5.2,9.9,13.3,2.7,24,2.7c9,0,13.5,5.2,15.6,10l-8.9,4.2c-0.9-2.7-3.5-5-6.6-5c-5,0-8.3,3.8-8.3,8.6
		c0,4.8,3.3,8.6,8.3,8.6c3.1,0,5.8-2.3,6.6-5l8.9,4.1c-2,4.6-6.6,10-15.6,10C13.3,38.2,5.2,31,5.2,20.5z"/>
	<path d="M99.7,37.2L87,19.7v17.5H76.5V2.7h10.8l12,16.3V2.7h10.4v34.5H99.7z"/>
	<g>
		<g>
			<path class="st1" d="M113.8,20.3c0-10.4,7.7-17.5,17.4-17.5c6,0,10.2,2.9,12.9,6.7l-3.6,2c-1.9-2.8-5.4-4.9-9.3-4.9
				c-7.4,0-13.1,5.7-13.1,13.8c0,8,5.6,13.8,13.1,13.8c3.9,0,7.4-2,9.3-4.9l3.6,2c-2.8,3.9-6.9,6.7-12.9,6.7
				C121.4,37.8,113.8,30.7,113.8,20.3z"/>
			<path class="st1" d="M169.2,37.2l-8.6-13.5h-6.8v13.5h-4.2V3.3h13.6c6.2,0,10.6,4,10.6,10.2c0,6.1-4.2,9.5-8.8,9.9l9.2,13.8
				H169.2z M169.4,13.5c0-3.8-2.7-6.5-6.8-6.5h-8.9v13h8.9C166.7,20,169.4,17.3,169.4,13.5z"/>
			<path class="st1" d="M180.4,37.2V3.3h22.2v3.8h-18V18h17.7v3.8h-17.7v11.7h18v3.8H180.4z"/>
			<path class="st1" d="M217.8,37.2V7.1H207V3.3h25.7v3.8H222v30.2H217.8z"/>
			<path class="st1" d="M238.4,37.2V3.3h22.2v3.8h-18V18h17.7v3.8h-17.7v11.7h18v3.8H238.4z"/>
		</g>
	</g>
	<g>
		<path d="M15.2,45.9c-1.2-0.9-2.6-1.8-4.3-1.8c-2,0-3.6,1.2-3.6,2.9c0,1.3,0.7,2.2,3.1,3.4l1.6,0.8c3.1,1.6,4.5,2.6,4.5,4.6
			c0,2.9-2.2,4.6-5.5,4.6c-2.3,0-4.1-0.9-5.5-2.5l1-0.7c1,1.3,2.7,2.2,4.5,2.2c2.3,0,4.2-1.4,4.2-3.4c0-1.6-0.2-2.2-3.8-4l-1.8-0.9
			c-1.9-1-3.5-2.1-3.5-4.1c0-2.5,2.2-4,5-4c1.8,0,3.6,0.8,5,1.9L15.2,45.9z"/>
		<path d="M32.7,44.4h-8.3v6.7h5.9v0.9h-5.9v7.2h8.5v0.9h-9.7V43.5h9.5V44.4z"/>
		<path d="M50,60.2h-1.4l-1.8-5.1h-6.6l-1.8,5.1h-1.4l6.5-17.4L50,60.2z M40.4,54.2h6.1l-3.1-8.4L40.4,54.2z"/>
		<path d="M57.4,59.3H66v0.9h-9.8V43.5h1.3V59.3z"/>
		<path d="M81.4,44.4h-8.3v6.7h5.9v0.9h-5.9v7.2h8.5v0.9h-9.7V43.5h9.5V44.4z"/>
		<path d="M88,43.5h4.6c3.3,0,5.2,1.9,5.2,4.6c0,2.1-1.4,4-3.8,4.6l5.3,7.5h-1.6L92.8,53h-3.6v7.2H88V43.5z M89.2,52h3.2
			c1.7,0,4-1.1,4-4.1c0-1.9-1.1-3.6-3.8-3.6h-3.4V52z"/>
		<path d="M129,45.9c-1.2-0.9-2.6-1.8-4.3-1.8c-2,0-3.6,1.2-3.6,2.9c0,1.3,0.7,2.2,3.1,3.4l1.6,0.8c3.1,1.6,4.5,2.6,4.5,4.6
			c0,2.9-2.2,4.6-5.5,4.6c-2.3,0-4.1-0.9-5.5-2.5l1-0.7c1,1.3,2.7,2.2,4.5,2.2c2.3,0,4.2-1.4,4.2-3.4c0-1.6-0.2-2.2-3.8-4l-1.8-0.9
			c-1.9-1-3.5-2.1-3.5-4.1c0-2.5,2.2-4,5-4c1.8,0,3.6,0.8,5,1.9L129,45.9z"/>
		<path d="M135.2,51.8c0-3.8,0.5-8.7,5.8-8.7c5.7,0,5.7,5.8,5.7,8.7c0,7.1-2.6,8.7-5.7,8.7C137.9,60.5,135.2,59,135.2,51.8z
			 M141,59.6c2.6,0,4.4-1.7,4.4-7.7c0-6.2-1.9-7.8-4.4-7.8c-2.8,0-4.4,2-4.4,7.8C136.6,58.1,138.6,59.6,141,59.6z"/>
		<path d="M154.9,59.3h8.6v0.9h-9.8V43.5h1.3V59.3z"/>
		<path d="M178.6,43.5v12.4c0,3.3-2.9,4.6-5.1,4.6c-2.7,0-5.1-1.9-5.1-4.4V43.5h1.3v11.9c0,3.2,1.8,4.2,3.9,4.2
			c2.2,0,3.8-1.2,3.8-3.9V43.5H178.6z"/>
		<path d="M196,44.4h-5.6v15.8h-1.3V44.4h-5.6v-0.9H196V44.4z"/>
		<path d="M209.3,44.4h-2.7v14.9h2.7v0.9h-6.7v-0.9h2.7V44.4h-2.7v-0.9h6.7V44.4z"/>
		<path d="M216.5,51.8c0-3.8,0.5-8.7,5.8-8.7c5.7,0,5.7,5.8,5.7,8.7c0,7.1-2.6,8.7-5.7,8.7C219.2,60.5,216.5,59,216.5,51.8z
			 M222.3,59.6c2.6,0,4.4-1.7,4.4-7.7c0-6.2-1.9-7.8-4.4-7.8c-2.8,0-4.4,2-4.4,7.8C217.8,58.1,219.9,59.6,222.3,59.6z"/>
		<path d="M235.1,45L235.1,45L235,60.2h-1.3V43.5h1.8l6.6,14.3l0.1,0V43.5h1.3v16.9h-1.3L235.1,45z"/>
		<path d="M259.1,45.9c-1.2-0.9-2.6-1.8-4.3-1.8c-2,0-3.6,1.2-3.6,2.9c0,1.3,0.7,2.2,3.1,3.4l1.6,0.8c3.1,1.6,4.5,2.6,4.5,4.6
			c0,2.9-2.2,4.6-5.5,4.6c-2.3,0-4.1-0.9-5.5-2.5l1-0.7c1,1.3,2.7,2.2,4.5,2.2c2.3,0,4.2-1.4,4.2-3.4c0-1.6-0.2-2.2-3.8-4l-1.8-0.9
			c-1.9-1-3.5-2.1-3.5-4.1c0-2.5,2.2-4,5-4c1.8,0,3.6,0.8,5,1.9L259.1,45.9z"/>
	</g>
	<g>
		<path d="M270,3.6h-2.3v7.5h-0.5V3.6h-2.3V3.1h5.1V3.6z"/>
		<path d="M276,3.1h0.6v8H276V4.2h0l-1.9,4.4l-1.9-4.4l0,0v6.9h-0.5v-8h0.6l1.8,4.4L276,3.1z"/>
	</g>
</g>
</svg>
