<?xml version="1.0" encoding="utf-8"?>
<!-- Generator: Adobe Illustrator 22.1.0, SVG Export Plug-In . SVG Version: 6.00 Build 0)  -->
<svg version="1.1" id="Layer_1" xmlns="http://www.w3.org/2000/svg" xmlns:xlink="http://www.w3.org/1999/xlink" x="0px" y="0px"
	 viewBox="0 0 492.9 104.9" style="enable-background:new 0 0 492.9 104.9;" xml:space="preserve">
<style type="text/css">
	.st0{fill:#FFFFFF;}
</style>
<path class="st0" d="M20.9,94.8l5.9,1.8c-0.4,1.7-1,3-1.9,4.1c-0.9,1.1-1.9,1.9-3.2,2.5c-1.3,0.6-2.9,0.8-4.8,0.8
	c-2.4,0-4.3-0.3-5.8-1s-2.8-1.9-3.9-3.6s-1.6-3.9-1.6-6.6c0-3.6,1-6.4,2.9-8.3c1.9-1.9,4.6-2.9,8.1-2.9c2.7,0,4.9,0.6,6.5,1.7
	c1.6,1.1,2.7,2.8,3.5,5.1l-5.9,1.3c-0.2-0.7-0.4-1.1-0.7-1.5c-0.4-0.5-0.8-0.9-1.4-1.2c-0.5-0.3-1.2-0.4-1.8-0.4
	c-1.5,0-2.7,0.6-3.5,1.8c-0.6,0.9-0.9,2.3-0.9,4.3c0,2.4,0.4,4.1,1.1,5c0.7,0.9,1.8,1.3,3.1,1.3c1.3,0,2.3-0.4,2.9-1.1
	C20.2,97.2,20.6,96.1,20.9,94.8z"/>
<path class="st0" d="M29.3,92.8c0-3.6,1-6.3,3-8.3c2-2,4.7-3,8.3-3c3.6,0,6.4,1,8.4,2.9c2,1.9,2.9,4.7,2.9,8.2
	c0,2.5-0.4,4.6-1.3,6.3c-0.9,1.6-2.1,2.9-3.7,3.8c-1.6,0.9-3.6,1.4-6,1.4c-2.5,0-4.5-0.4-6.1-1.2c-1.6-0.8-2.9-2-3.9-3.7
	C29.8,97.5,29.3,95.3,29.3,92.8z M36,92.8c0,2.2,0.4,3.8,1.2,4.7c0.8,1,1.9,1.4,3.3,1.4c1.4,0,2.6-0.5,3.4-1.4
	c0.8-0.9,1.2-2.6,1.2-5.1c0-2-0.4-3.5-1.2-4.5c-0.8-0.9-1.9-1.4-3.4-1.4c-1.4,0-2.4,0.5-3.3,1.4C36.4,89,36,90.6,36,92.8z"/>
<path class="st0" d="M55.2,81.9h6.3l8.2,12v-12H76v21.8h-6.3l-8.1-11.9v11.9h-6.3V81.9z"/>
<path class="st0" d="M94.8,94.8l5.9,1.8c-0.4,1.7-1,3-1.9,4.1c-0.9,1.1-1.9,1.9-3.2,2.5c-1.3,0.6-2.9,0.8-4.8,0.8
	c-2.4,0-4.3-0.3-5.8-1c-1.5-0.7-2.8-1.9-3.9-3.6s-1.6-3.9-1.6-6.6c0-3.6,1-6.4,2.9-8.3c1.9-1.9,4.6-2.9,8.1-2.9
	c2.7,0,4.9,0.6,6.5,1.7c1.6,1.1,2.7,2.8,3.5,5.1l-5.9,1.3c-0.2-0.7-0.4-1.1-0.7-1.5c-0.4-0.5-0.8-0.9-1.4-1.2
	c-0.5-0.3-1.2-0.4-1.8-0.4c-1.5,0-2.7,0.6-3.5,1.8c-0.6,0.9-0.9,2.3-0.9,4.3c0,2.4,0.4,4.1,1.1,5c0.7,0.9,1.8,1.3,3.1,1.3
	c1.3,0,2.3-0.4,2.9-1.1C94.1,97.2,94.5,96.1,94.8,94.8z"/>
<path class="st0" d="M104.4,103.7V81.9h11.2c2.1,0,3.7,0.2,4.8,0.5c1.1,0.4,2,1,2.7,2c0.7,1,1,2.1,1,3.5c0,1.2-0.3,2.2-0.8,3.1
	c-0.5,0.9-1.2,1.6-2.1,2.1c-0.6,0.3-1.4,0.6-2.4,0.9c0.8,0.3,1.4,0.5,1.8,0.8c0.2,0.2,0.6,0.6,1.1,1.1c0.5,0.6,0.8,1,0.9,1.4
	l3.3,6.3h-7.6l-3.6-6.6c-0.5-0.9-0.9-1.4-1.2-1.7c-0.5-0.3-1-0.5-1.6-0.5h-0.6v8.8H104.4z M111.1,90.7h2.8c0.3,0,0.9-0.1,1.8-0.3
	c0.4-0.1,0.8-0.3,1.1-0.7c0.3-0.4,0.4-0.8,0.4-1.3c0-0.7-0.2-1.2-0.7-1.6c-0.4-0.4-1.3-0.6-2.5-0.6h-3V90.7z"/>
<path class="st0" d="M128.9,81.9h18v4.6h-11.3V90h10.5v4.4h-10.5v4.3h11.6v4.9h-18.3V81.9z"/>
<path class="st0" d="M150.1,81.9h20.4v5.4h-6.9v16.4H157V87.3h-6.9V81.9z"/>
<path class="st0" d="M174,81.9h18v4.6h-11.3V90h10.5v4.4h-10.5v4.3h11.6v4.9H174V81.9z"/>
<path class="st0" d="M205.1,96.5l6.4-0.4c0.1,1,0.4,1.8,0.8,2.4c0.7,0.9,1.7,1.3,3,1.3c1,0,1.7-0.2,2.2-0.7c0.5-0.5,0.8-1,0.8-1.6
	c0-0.6-0.2-1.1-0.7-1.5c-0.5-0.4-1.6-0.9-3.4-1.3c-2.9-0.7-5-1.5-6.3-2.6c-1.3-1.1-1.9-2.5-1.9-4.2c0-1.1,0.3-2.2,1-3.2
	c0.6-1,1.6-1.8,2.9-2.3c1.3-0.6,3.1-0.9,5.3-0.9c2.8,0,4.9,0.5,6.4,1.6c1.5,1,2.3,2.7,2.6,4.9l-6.3,0.4c-0.2-1-0.5-1.7-1.1-2.1
	c-0.5-0.4-1.3-0.7-2.2-0.7c-0.8,0-1.4,0.2-1.8,0.5c-0.4,0.3-0.6,0.7-0.6,1.2c0,0.3,0.2,0.7,0.5,0.9c0.3,0.3,1.1,0.6,2.3,0.8
	c2.9,0.6,5,1.3,6.3,1.9c1.3,0.6,2.2,1.5,2.8,2.4c0.6,1,0.9,2,0.9,3.2c0,1.4-0.4,2.7-1.2,3.9c-0.8,1.2-1.8,2.1-3.2,2.7
	c-1.4,0.6-3.1,0.9-5.2,0.9c-3.7,0-6.3-0.7-7.7-2.1C206.1,100.5,205.3,98.7,205.1,96.5z"/>
<path class="st0" d="M228.2,81.9h18v4.6H235V90h10.5v4.4H235v4.3h11.6v4.9h-18.3V81.9z"/>
<path class="st0" d="M264.6,100.1h-7.6l-1.1,3.6H249l8.2-21.8h7.3l8.2,21.8h-7L264.6,100.1z M263.2,95.4l-2.4-7.8l-2.4,7.8H263.2z"
	/>
<path class="st0" d="M275.1,81.9h6.7v16.4h10.5v5.4h-17.2V81.9z"/>
<path class="st0" d="M295.7,81.9h18v4.6h-11.3V90h10.5v4.4h-10.5v4.3H314v4.9h-18.3V81.9z"/>
<path class="st0" d="M318.1,103.7V81.9h11.2c2.1,0,3.7,0.2,4.8,0.5c1.1,0.4,2,1,2.7,2c0.7,1,1,2.1,1,3.5c0,1.2-0.3,2.2-0.8,3.1
	c-0.5,0.9-1.2,1.6-2.1,2.1c-0.6,0.3-1.4,0.6-2.4,0.9c0.8,0.3,1.4,0.5,1.8,0.8c0.2,0.2,0.6,0.6,1.1,1.1c0.5,0.6,0.8,1,0.9,1.4
	l3.3,6.3h-7.6l-3.6-6.6c-0.5-0.9-0.9-1.4-1.2-1.7c-0.5-0.3-1-0.5-1.6-0.5h-0.6v8.8H318.1z M324.8,90.7h2.8c0.3,0,0.9-0.1,1.8-0.3
	c0.4-0.1,0.8-0.3,1.1-0.7c0.3-0.4,0.4-0.8,0.4-1.3c0-0.7-0.2-1.2-0.7-1.6c-0.4-0.4-1.3-0.6-2.5-0.6h-3V90.7z"/>
<path class="st0" d="M352,96.5l6.4-0.4c0.1,1,0.4,1.8,0.8,2.4c0.7,0.9,1.7,1.3,3,1.3c1,0,1.7-0.2,2.2-0.7c0.5-0.5,0.8-1,0.8-1.6
	c0-0.6-0.2-1.1-0.7-1.5c-0.5-0.4-1.6-0.9-3.4-1.3c-2.9-0.7-5-1.5-6.3-2.6c-1.3-1.1-1.9-2.5-1.9-4.2c0-1.1,0.3-2.2,1-3.2
	c0.6-1,1.6-1.8,2.9-2.3s3.1-0.9,5.3-0.9c2.8,0,4.9,0.5,6.4,1.6c1.5,1,2.3,2.7,2.6,4.9l-6.3,0.4c-0.2-1-0.5-1.7-1.1-2.1
	c-0.5-0.4-1.3-0.7-2.2-0.7c-0.8,0-1.4,0.2-1.8,0.5c-0.4,0.3-0.6,0.7-0.6,1.2c0,0.3,0.2,0.7,0.5,0.9c0.3,0.3,1.1,0.6,2.3,0.8
	c2.9,0.6,5,1.3,6.3,1.9c1.3,0.6,2.2,1.5,2.8,2.4c0.6,1,0.9,2,0.9,3.2c0,1.4-0.4,2.7-1.2,3.9c-0.8,1.2-1.8,2.1-3.2,2.7
	c-1.4,0.6-3.1,0.9-5.2,0.9c-3.7,0-6.3-0.7-7.7-2.1C353,100.5,352.2,98.7,352,96.5z"/>
<path class="st0" d="M389.2,81.9h6.7v13c0,1.3-0.2,2.5-0.6,3.6c-0.4,1.1-1,2.1-1.9,3c-0.9,0.9-1.8,1.5-2.7,1.8
	c-1.3,0.5-2.9,0.7-4.7,0.7c-1.1,0-2.2-0.1-3.5-0.2c-1.3-0.1-2.3-0.4-3.1-0.9c-0.8-0.4-1.6-1.1-2.3-1.9c-0.7-0.8-1.2-1.6-1.4-2.5
	c-0.4-1.4-0.6-2.6-0.6-3.7v-13h6.7v13.3c0,1.2,0.3,2.1,1,2.8c0.7,0.7,1.6,1,2.7,1c1.2,0,2.1-0.3,2.7-1c0.7-0.7,1-1.6,1-2.8V81.9z"/>
<path class="st0" d="M400,81.9h11.2c2.4,0,4.3,0.6,5.5,1.7c1.2,1.2,1.8,2.8,1.8,4.9c0,2.2-0.7,3.9-2,5.2c-1.3,1.2-3.3,1.9-6,1.9
	h-3.7v8.1H400V81.9z M406.8,91.2h1.6c1.3,0,2.2-0.2,2.7-0.7c0.5-0.4,0.8-1,0.8-1.7c0-0.7-0.2-1.3-0.7-1.7c-0.5-0.5-1.3-0.7-2.6-0.7
	h-1.9V91.2z"/>
<path class="st0" d="M421.7,81.9h11.2c2.4,0,4.3,0.6,5.5,1.7c1.2,1.2,1.8,2.8,1.8,4.9c0,2.2-0.7,3.9-2,5.2c-1.3,1.2-3.3,1.9-6,1.9
	h-3.7v8.1h-6.8V81.9z M428.5,91.2h1.6c1.3,0,2.2-0.2,2.7-0.7c0.5-0.4,0.8-1,0.8-1.7c0-0.7-0.2-1.3-0.7-1.7c-0.5-0.5-1.3-0.7-2.6-0.7
	h-1.9V91.2z"/>
<path class="st0" d="M444,81.9h6.7v16.4h10.5v5.4H444V81.9z"/>
<path class="st0" d="M459,81.9h7.5l4.4,7.3l4.4-7.3h7.4l-8.5,12.6v9.1h-6.7v-9.1L459,81.9z"/>
<path class="st0" d="M182.8,62c-8,5.9-18.6,5.7-21.2,5.7c-9.1,0-17.8-1.5-25.2-7.1c-2.8-2.1-4.5-4-6.6-6.7l15.1-9.6
	c1.3,2.1,2.1,3.1,3,3.8c3.5,3.1,10.1,4.4,14.4,4.4c5.6,0,9.5-1.7,9.5-4.8c0-0.7-0.4-1.2-0.4-1.5c-0.4-0.9-1.1-1.7-3-2.3
	c-2.2-0.8-6.2-1.3-11.8-2.5c-8.6-1.7-13.2-3.8-16.2-6.5c-1.9-1.7-5.5-5.8-5.4-12.6c0-1.7,0.1-5.5,2.3-9.5
	c6.4-11.7,22.9-11.5,25.3-11.5c3.2,0,14.4,0.2,23.3,6.7c1.9,1.4,3.1,2.7,4.8,4.3l-12.5,10.3c-0.8-1.1-1.2-1.6-1.8-2
	c-3.6-3.4-9.9-4.3-14.6-4.3c-0.4,0-2.8,0-4.7,0.8c-0.4,0.2-2.5,1.1-2.5,3.3c0,1.1,0.7,2.2,1.6,2.8c1.6,1,5.3,1.7,7,1.9
	c2.2,0.4,8,1.1,14.2,3.2c3.9,1.2,13.5,4.7,13.5,17.1C191.1,54.9,185.6,60,182.8,62z"/>
<path class="st0" d="M252.3,51.9c-4.3,11.3-15.6,15.6-26.8,15.6c-2.3,0-8.5-0.2-14.7-2.9c-2.7-1.1-9-4.2-11.9-11.9
	c-1.1-3.1-1.6-5.7-1.6-12.2v-37h19.8v39c0,0.6-0.1,2.8,0.6,4.8c1.6,4.8,6.5,5,8,5c1.3,0,6.3-0.3,8-4.9c0.6-1.6,0.6-3,0.6-4.9v-39
	h19.9v37.4C254.3,44.9,253.7,48.2,252.3,51.9z"/>
<path class="st0" d="M319.1,32.8c-0.8,2.1-4,8.7-10.9,11.2c-3.7,1.4-7.4,1.6-11.3,1.6h-15.2v20.3h-19.8V3.5h35.6
	c6.1,0,11.8,0.4,16.6,4.7c6.3,5.4,6.5,12.9,6.5,15.6C320.6,25.1,320.5,29,319.1,32.8z M300,20.1c-1.9-3.5-6.1-3.5-7.2-3.5h-11.1
	v15.9H293c0.3,0,2.2-0.1,3.5-0.5c1.8-0.6,4.5-2.6,4.5-7.5C301,23.7,301,21.9,300,20.1z"/>
<path class="st0" d="M381.7,32.8c-0.8,2.1-4,8.7-10.9,11.2c-3.7,1.4-7.4,1.6-11.3,1.6h-15.2v20.3h-19.8V3.5h35.6
	c6.1,0,11.8,0.4,16.6,4.7c6.3,5.4,6.5,12.9,6.5,15.6C383.2,25.1,383.1,29,381.7,32.8z M362.6,20.1c-1.9-3.5-6.1-3.5-7.2-3.5h-11.1
	v15.9h11.2c0.3,0,2.2-0.1,3.5-0.5c1.8-0.6,4.5-2.6,4.5-7.5C363.6,23.7,363.6,21.9,362.6,20.1z"/>
<path class="st0" d="M387.1,65.9V3.5h19.7v46.7h24.1v15.7H387.1z"/>
<path class="st0" d="M467.2,39.6v26.2h-19.8V39.6l-25-36.1h22.8l12.3,20.8l12-20.8h22.8L467.2,39.6z"/>
<path class="st0" d="M63.4,48.7"/>
<path class="st0" d="M113.1,28.5c-6.2-2-12-2.8-14.2-3.2c-1.7-0.3-5.4-1-7-1.9c-0.9-0.6-1.6-1.7-1.6-2.8c0-2.1,2.1-3.1,2.5-3.3
	c1.9-0.8,4.2-0.8,4.7-0.8c4.7,0,11,1,14.6,4.3c0.5,0.4,1,1,1.8,2l12.5-10.3c-1.7-1.7-2.8-2.9-4.8-4.3c-8.9-6.5-20.2-6.7-23.3-6.7
	c-2.4,0-18.9-0.2-25.3,11.5c-0.3,0.6-0.6,1.2-0.8,1.8c2.9,4.6,7.6,12.7,9.2,18.5c0.5,1.9,0.8,3.7,0.8,5.5c2.6,1.1,5.9,2,10.1,2.8
	c5.6,1.1,9.5,1.7,11.8,2.5c1.9,0.6,2.6,1.4,3,2.3c0.1,0.3,0.4,0.8,0.4,1.5c0,3.1-3.9,4.8-9.5,4.8c-4.3,0-10.9-1.3-14.4-4.4
	c-0.7-0.6-1.4-1.4-2.3-2.8c-0.6,1.8-1.4,3.5-2.6,4.9c-1.9,2.5-5.3,5.4-11,6.3c1.3,1.4,2.6,2.7,4.4,4.1c7.4,5.6,16.1,7.1,25.2,7.1
	c2.7,0,13.2,0.2,21.2-5.7c2.7-2,8.2-7.1,8.2-16.4C126.6,33.2,117,29.7,113.1,28.5z"/>
<g>
	<g>
		<path class="st0" d="M62.8,17.4c-0.4,0.6-0.9,1.3-1.4,2.3l2.1-1.1C63.3,18.2,63,17.8,62.8,17.4z"/>
		<path class="st0" d="M48.3,50.2c-1.2-1.6-2.2-3.5-2.7-5.4c-0.1,0.1-0.1,0.3-0.2,0.4c-1.2,2.1-4.4,6.7-11.2,6.7
			c-1.5,0-4.3-0.1-7.4-2.5c-3-2.4-5.7-7-5.7-15.6c0-1.6-0.3-10.6,5.9-15.2c1.2-0.9,3.5-2.2,7.2-2.2c8-0.1,11,6.4,12.1,8.5
			c0.3,0.6,0.6,1.2,0.9,1.9l1.4-0.7c2.8-5.9,6.7-11.9,8.1-14.1l0.1-0.1l0.9-1.4c-4.2-4-12.2-9.4-24.2-9.4c-5.5,0-17.4,0.9-26,13
			c-6,8.4-6.5,17.1-6.5,20.9c0,4.4,0.8,16.9,11.2,25.6c6.1,5.2,13.2,7.2,21.1,7.2c13.9,0,21.8-6.4,25.5-10.6
			c0.2-0.2,0.4-0.4,0.5-0.6C53.6,55.6,50.2,52.7,48.3,50.2z"/>
		<path class="st0" d="M60.9,48.5l-5.7-2.7C56.6,47.2,58.4,48.1,60.9,48.5z"/>
	</g>
</g>
<path class="st0" d="M63.5,16.6L63.5,16.6h-0.1c-1,1.5-8.1,12.5-9.8,18.8c-1.8,6.7,0.5,13.4,9.9,13.4c0,0,0.1,0,0.1,0
	c9.3,0,11.5-6.7,9.8-13.4C71.6,29,64.5,18.1,63.5,16.6z"/>
</svg>
