<?xml version="1.0" encoding="utf-8"?>
<!-- Generator: Adobe Illustrator 19.2.1, SVG Export Plug-In . SVG Version: 6.00 Build 0)  -->
<svg version="1.1" id="Layer_1" xmlns="http://www.w3.org/2000/svg" xmlns:xlink="http://www.w3.org/1999/xlink" x="0px" y="0px"
	 viewBox="0 0 283 138" style="enable-background:new 0 0 283 138;" xml:space="preserve">
<style type="text/css">
	.st0{fill:#FFFFFF;}
</style>
<g>
	<polygon class="st0" points="86.2,128.7 89,128.7 89,128.7 89,124.6 93.3,124.6 93.3,122 89,122 89,120 93.5,120 93.5,117.4 
		86.2,117.4 	"/>
	<path class="st0" d="M99.1,117.4h-4.4v11.3h2.7v-3.8H98l2.3,3.8h2.9v-0.5l-2.4-3.6C104.2,122.9,103.6,117.4,99.1,117.4z M99,122.4
		h-1.6v-2.3H99C100.8,120.1,100.8,122.4,99,122.4z"/>
	<polygon class="st0" points="104.2,128.7 111.5,128.7 111.5,126 107,126 107,124.4 111.5,124.4 111.5,121.7 107,121.7 107,120 
		111.5,120 111.5,117.4 104.2,117.4 	"/>
	<polygon class="st0" points="112.7,128.7 120,128.7 120,126 115.5,126 115.5,124.4 120,124.4 120,121.7 115.5,121.7 115.5,120 
		120,120 120,117.4 112.7,117.4 	"/>
	<path class="st0" d="M129.8,122.2c-1.2-0.1-2.4-0.2-2.5-1.4c0-0.3,0.1-0.7,0.3-1c0.4-0.6,1.2-0.9,2-0.9c1,0,2.1,0.4,2.3,1.4h1.5
		c-0.3-2.1-2.1-3-3.8-3c-1.3,0-2.6,0.5-3.4,1.5c-0.5,0.6-0.7,1.3-0.6,2.1c0.2,2.3,2.3,2.7,4,2.9c1.2,0.1,2.3,0.3,2.5,1.1
		c0,0.2,0,0.3,0,0.4c0,1.1-1.3,1.8-2.5,1.8c-1,0-2.3-0.6-2.4-1.6v-0.1h-1.6v0.3c0.2,2,2.3,3,4,3c2.1,0,4.2-1.2,4.2-3.4
		c0-0.2-0.1-0.5-0.1-0.7C133.1,122.8,131.2,122.4,129.8,122.2z"/>
	<polygon class="st0" points="141.5,122.2 136.8,122.2 136.8,117.5 135.2,117.5 135.2,128.7 136.8,128.7 136.8,123.8 141.5,123.8 
		141.5,128.7 143.2,128.7 143.2,117.5 141.5,117.5 	"/>
	<polygon class="st0" points="144.5,119.1 146.7,119.1 146.7,127.1 144.5,127.1 144.5,128.7 150.3,128.7 150.3,127.1 148.2,127.1 
		148.2,119.1 150.3,119.1 150.3,117.5 144.5,117.5 	"/>
	<path class="st0" d="M155.8,117.4h-4.1v11.3h1.6v-3.8h2.5c2.4,0,3.6-1.8,3.6-3.7C159.5,119.3,158.2,117.4,155.8,117.4z
		 M155.8,123.3h-2.5v-4.2h2.5c1.3,0,2,1,2,2.1C157.8,122.2,157.2,123.3,155.8,123.3z"/>
	<path class="st0" d="M165,117.4h-4.1v11.3h1.6v-3.8h2.5c2.4,0,3.6-1.8,3.6-3.7C168.5,119.3,167.3,117.4,165,117.4z M165,123.3h-2.5
		v-4.2h2.5c1.3,0,2,1,2,2.1C167,122.2,166.3,123.3,165,123.3z"/>
	<polygon class="st0" points="169,119.1 171.2,119.1 171.2,127.1 169,127.1 169,128.7 174.8,128.7 174.8,127.1 172.8,127.1 
		172.8,119.1 174.8,119.1 174.8,117.5 169,117.5 	"/>
	<polygon class="st0" points="183.2,125.3 177.7,117.4 176.3,117.4 176.3,128.7 178,128.7 178,120.9 183.5,128.7 184.8,128.7 
		184.8,117.4 183.2,117.4 	"/>
	<path class="st0" d="M191,124.9h4.2c-0.6,1.7-2.1,2.3-3.5,2.3c-2.2,0-3.9-1.7-3.9-4.1c0-2.4,1.7-4.1,3.9-4.1c1.4,0,3.2,0.7,3.6,2.5
		v-0.1h1.6c-0.6-3-3.2-4.1-5.3-4.1c-3.1,0-5.5,2.4-5.5,5.7c0,3.3,2.4,5.7,5.5,5.7c2,0,4.3-1.4,5.1-3.5c0.1-0.3,0.2-1,0.3-1.9h-6
		V124.9z"/>
	<path class="st0" d="M229.8,83.6c-0.5-0.6-1-1.2-1.8-1.5c-0.7-0.4-1.6-0.6-2.6-0.6c-1,0-1.9,0.2-2.6,0.6c-0.7,0.4-1.3,0.9-1.8,1.5
		c-0.5,0.6-0.8,1.4-1,2.2c-0.2,0.8-0.3,1.6-0.3,2.4s0.1,1.6,0.3,2.4s0.6,1.5,1,2.2c0.5,0.6,1,1.2,1.8,1.5c0.7,0.4,1.6,0.6,2.6,0.6
		c1,0,1.9-0.2,2.6-0.6c0.7-0.4,1.3-0.9,1.8-1.5s0.8-1.4,1-2.2c0.2-0.8,0.3-1.6,0.3-2.4s-0.1-1.6-0.3-2.4
		C230.6,85,230.2,84.2,229.8,83.6z"/>
	<path class="st0" d="M107.4,84.6c0-0.8-0.2-1.5-0.7-2c-0.5-0.5-1.2-0.8-2.2-0.8h-5.4v5.7h4.5c0.5,0,1,0,1.4-0.1
		c0.5-0.1,0.9-0.2,1.2-0.4s0.6-0.5,0.8-0.9S107.4,85.2,107.4,84.6z"/>
	<path class="st0" d="M152.2,83.6c-0.5-0.6-1-1.2-1.8-1.5c-0.7-0.4-1.6-0.6-2.6-0.6c-1,0-1.9,0.2-2.6,0.6c-0.7,0.4-1.3,0.9-1.8,1.5
		s-0.8,1.4-1,2.2c-0.2,0.8-0.3,1.6-0.3,2.4s0.1,1.6,0.3,2.4s0.6,1.5,1,2.2s1,1.2,1.8,1.5c0.7,0.4,1.6,0.6,2.6,0.6
		c1,0,1.9-0.2,2.6-0.6c0.7-0.4,1.3-0.9,1.8-1.5s0.8-1.4,1-2.2c0.2-0.8,0.3-1.6,0.3-2.4s-0.1-1.6-0.3-2.4
		C153,85,152.6,84.2,152.2,83.6z"/>
	<path class="st0" d="M176.7,47.3c0-3.8-2.7-6.5-6.8-6.5H161v13h8.9C174,53.8,176.7,51.1,176.7,47.3z"/>
	<path class="st0" d="M2.9,11v111h77.2v-10.1h123v10.1h77.2V11H2.9z M26.3,94.1c-0.4,0.6-0.9,1.1-1.5,1.5c-0.6,0.4-1.3,0.7-2.1,0.8
		c-0.8,0.2-1.5,0.3-2.3,0.3c-0.9,0-1.8-0.1-2.6-0.3c-0.8-0.2-1.5-0.6-2.2-1c-0.6-0.5-1.1-1.1-1.5-1.8c-0.4-0.7-0.5-1.6-0.5-2.6h2.1
		c0,0.7,0.1,1.3,0.4,1.8c0.3,0.5,0.6,0.9,1.1,1.2c0.4,0.3,0.9,0.6,1.5,0.7c0.6,0.2,1.2,0.2,1.8,0.2c0.5,0,1,0,1.5-0.1
		s0.9-0.2,1.3-0.5c0.4-0.2,0.7-0.5,1-0.9c0.2-0.4,0.4-0.9,0.4-1.5c0-0.6-0.1-1-0.4-1.4c-0.3-0.4-0.7-0.6-1.2-0.9
		c-0.5-0.2-1.1-0.4-1.7-0.5c-0.6-0.1-1.3-0.3-1.9-0.4s-1.3-0.3-1.9-0.5s-1.2-0.4-1.7-0.8c-0.5-0.3-0.9-0.7-1.2-1.2s-0.4-1.1-0.4-1.9
		c0-0.8,0.2-1.5,0.5-2.1c0.3-0.6,0.8-1.1,1.3-1.5c0.6-0.4,1.2-0.7,1.9-0.9c0.7-0.2,1.4-0.3,2.2-0.3c0.8,0,1.6,0.1,2.3,0.3
		c0.7,0.2,1.4,0.5,1.9,0.9c0.5,0.4,1,1,1.3,1.6c0.3,0.7,0.5,1.4,0.5,2.3h-2.1c-0.1-1.2-0.5-2-1.3-2.6c-0.7-0.5-1.7-0.8-2.8-0.8
		c-0.5,0-0.9,0-1.4,0.1s-0.8,0.2-1.2,0.5c-0.3,0.2-0.6,0.5-0.8,0.9s-0.3,0.8-0.3,1.3c0,0.5,0.1,0.9,0.4,1.2c0.3,0.3,0.7,0.6,1.2,0.8
		c0.5,0.2,1.1,0.4,1.7,0.5c0.6,0.1,1.3,0.3,1.9,0.4c0.7,0.2,1.3,0.3,1.9,0.5c0.6,0.2,1.2,0.5,1.7,0.8c0.5,0.4,0.9,0.8,1.2,1.3
		c0.3,0.5,0.4,1.2,0.4,2C26.9,92.8,26.7,93.5,26.3,94.1z M43.2,96.4H31.9V80h11.3v1.8H34v5.2h8.5v1.8H34v5.7h9.2V96.4z M31.3,72
		c-10.7,0-18.8-7.2-18.8-17.7c0-10.6,8.1-17.8,18.8-17.8c9,0,13.5,5.2,15.6,10L38,50.7c-0.9-2.7-3.5-5-6.6-5c-5,0-8.3,3.8-8.3,8.6
		s3.3,8.6,8.3,8.6c3.1,0,5.8-2.3,6.6-5l8.9,4.1C44.9,66.6,40.3,72,31.3,72z M59.1,96.4l-1.8-4.9h-6.9l-1.8,4.9h-2.2L52.7,80h2.4
		l6.4,16.4H59.1z M76.3,96.4H65.4V80h2.2v14.6h8.7V96.4z M78.6,71H50.5V36.5h28.1V71z M262.5,26.9h1.4l1.3,3.8h0l1.3-3.8h1.4v4.9
		h-0.9v-4.1h0l-1.4,4.1h-0.8l-1.4-4.1h0v4.1h-0.9V26.9z M257.7,26.9h3.9v0.8h-1.5v4.2h-0.9v-4.2h-1.5V26.9z M245.7,37.1h22.2v3.8
		h-18v10.9h17.7v3.8h-17.7v11.7h18v3.8L245.7,71V37.1z M91.9,96.4H80.5V80h11.3v1.8h-9.1v5.2h8.5v1.8h-8.5v5.7h9.2V96.4z
		 M107.7,96.4c-0.2-0.2-0.3-0.4-0.3-0.7c-0.1-0.3-0.1-0.6-0.1-1s0-0.7,0-1.2s-0.1-0.8-0.1-1.2c-0.1-0.4-0.1-0.8-0.2-1.1
		s-0.2-0.7-0.4-0.9c-0.2-0.3-0.5-0.5-0.8-0.6c-0.3-0.2-0.8-0.2-1.3-0.2h-5.3v7h-2.2V80h7.7c1.6,0,2.8,0.4,3.7,1.1
		c0.9,0.8,1.3,1.8,1.3,3.1c0,1-0.2,1.9-0.7,2.6c-0.5,0.8-1.2,1.3-2.2,1.5v0c0.5,0.1,0.9,0.2,1.2,0.5c0.3,0.2,0.5,0.5,0.7,0.8
		c0.2,0.3,0.3,0.6,0.4,1s0.1,0.8,0.2,1.1c0,0.4,0.1,0.8,0.1,1.2c0,0.4,0.1,0.8,0.1,1.2c0.1,0.4,0.1,0.8,0.3,1.1s0.3,0.7,0.5,1H107.7
		z M117,71h-10L94.3,53.5V71H83.8V36.5h10.8l12,16.3V36.5H117V71z M135.3,94.1c-0.4,0.6-0.9,1.1-1.5,1.5c-0.6,0.4-1.3,0.7-2.1,0.8
		c-0.8,0.2-1.5,0.3-2.3,0.3c-0.9,0-1.8-0.1-2.6-0.3c-0.8-0.2-1.5-0.6-2.2-1c-0.6-0.5-1.1-1.1-1.5-1.8c-0.4-0.7-0.5-1.6-0.5-2.6h2.1
		c0,0.7,0.1,1.3,0.4,1.8c0.3,0.5,0.6,0.9,1.1,1.2c0.4,0.3,0.9,0.6,1.5,0.7c0.6,0.2,1.2,0.2,1.8,0.2c0.5,0,1,0,1.5-0.1
		s0.9-0.2,1.3-0.5c0.4-0.2,0.7-0.5,1-0.9c0.2-0.4,0.4-0.9,0.4-1.5c0-0.6-0.1-1-0.4-1.4c-0.3-0.4-0.7-0.6-1.2-0.9
		c-0.5-0.2-1.1-0.4-1.7-0.5c-0.6-0.1-1.3-0.3-1.9-0.4s-1.3-0.3-1.9-0.5s-1.2-0.4-1.7-0.8c-0.5-0.3-0.9-0.7-1.2-1.2s-0.4-1.1-0.4-1.9
		c0-0.8,0.2-1.5,0.5-2.1c0.3-0.6,0.8-1.1,1.3-1.5c0.6-0.4,1.2-0.7,1.9-0.9c0.7-0.2,1.4-0.3,2.2-0.3c0.8,0,1.6,0.1,2.3,0.3
		c0.7,0.2,1.4,0.5,1.9,0.9c0.5,0.4,1,1,1.3,1.6c0.3,0.7,0.5,1.4,0.5,2.3h-2.1c-0.1-1.2-0.5-2-1.3-2.6c-0.7-0.5-1.7-0.8-2.8-0.8
		c-0.5,0-0.9,0-1.4,0.1s-0.8,0.2-1.2,0.5c-0.3,0.2-0.6,0.5-0.8,0.9s-0.3,0.8-0.3,1.3c0,0.5,0.1,0.9,0.4,1.2c0.3,0.3,0.7,0.6,1.2,0.8
		c0.5,0.2,1.1,0.4,1.7,0.5c0.6,0.1,1.3,0.3,1.9,0.4c0.7,0.2,1.3,0.3,1.9,0.5c0.6,0.2,1.2,0.5,1.7,0.8c0.5,0.4,0.9,0.8,1.2,1.3
		c0.3,0.5,0.4,1.2,0.4,2C135.9,92.8,135.7,93.5,135.3,94.1z M121.1,54.1c0-10.4,7.7-17.5,17.4-17.5c6,0,10.2,2.9,12.9,6.7l-3.6,2
		c-1.9-2.8-5.4-4.9-9.3-4.9c-7.4,0-13.1,5.7-13.1,13.8c0,8,5.6,13.8,13.1,13.8c3.9,0,7.4-2,9.3-4.9l3.6,2c-2.8,3.9-6.9,6.7-12.9,6.7
		C128.7,71.6,121.1,64.5,121.1,54.1z M155.2,91.4c-0.3,1-0.8,1.9-1.5,2.7s-1.5,1.4-2.5,1.9s-2.1,0.7-3.4,0.7c-1.3,0-2.4-0.2-3.4-0.7
		s-1.8-1.1-2.5-1.9c-0.7-0.8-1.2-1.7-1.5-2.7s-0.5-2.1-0.5-3.2s0.2-2.2,0.5-3.2c0.3-1,0.8-1.9,1.5-2.7c0.7-0.8,1.5-1.4,2.5-1.9
		c1-0.5,2.1-0.7,3.4-0.7c1.3,0,2.4,0.2,3.4,0.7c1,0.5,1.8,1.1,2.5,1.9c0.7,0.8,1.2,1.7,1.5,2.7c0.3,1,0.5,2.1,0.5,3.2
		S155.5,90.4,155.2,91.4z M156.9,37.1h13.6c6.2,0,10.6,4,10.6,10.2c0,6.1-4.2,9.5-8.8,9.9l9.2,13.8h-5l-8.6-13.5h-6.8V71h-4.2V37.1z
		 M171.6,96.4h-10.9V80h2.2v14.6h8.7V96.4z M188.9,90.5c0,2.1-0.6,3.7-1.7,4.7c-1.1,1-2.7,1.6-4.8,1.6c-2.1,0-3.8-0.5-4.9-1.5
		c-1.2-1-1.8-2.6-1.8-4.8V80h2.2v10.5c0,1.5,0.4,2.6,1.2,3.3c0.8,0.8,1.9,1.1,3.4,1.1c1.4,0,2.5-0.4,3.2-1.1
		c0.7-0.8,1.1-1.9,1.1-3.3V80h2.2V90.5z M206.1,81.8h-5.5v14.6h-2.2V81.8H193V80h13.1V81.8z M209.9,40.9h-18v10.9h17.7v3.8h-17.7
		v11.7h18v3.8L187.7,71V37.1h22.2V40.9z M212.5,96.4h-2.2V80h2.2V96.4z M214.3,37.1H240v3.8h-10.7v30.2l-4.2-0.1V40.9h-10.8V37.1z
		 M232.8,91.4c-0.3,1-0.8,1.9-1.5,2.7s-1.5,1.4-2.5,1.9s-2.1,0.7-3.4,0.7s-2.4-0.2-3.4-0.7c-1-0.5-1.8-1.1-2.5-1.9
		c-0.7-0.8-1.2-1.7-1.5-2.7c-0.3-1-0.5-2.1-0.5-3.2s0.2-2.2,0.5-3.2c0.3-1,0.8-1.9,1.5-2.7c0.7-0.8,1.5-1.4,2.5-1.9
		c1-0.5,2.1-0.7,3.4-0.7s2.4,0.2,3.4,0.7c1,0.5,1.8,1.1,2.5,1.9c0.7,0.8,1.2,1.7,1.5,2.7c0.3,1,0.5,2.1,0.5,3.2
		S233.1,90.4,232.8,91.4z M251.3,96.4H249l-8.6-13.2h0v13.2h-2.1V80h2.3l8.6,13.3h0V80h2.1V96.4z M268.9,94.1
		c-0.4,0.6-0.9,1.1-1.5,1.5c-0.6,0.4-1.3,0.7-2.1,0.8s-1.5,0.3-2.3,0.3c-0.9,0-1.8-0.1-2.6-0.3c-0.8-0.2-1.5-0.6-2.2-1
		c-0.6-0.5-1.1-1.1-1.5-1.8s-0.5-1.6-0.5-2.6h2.1c0,0.7,0.1,1.3,0.4,1.8s0.6,0.9,1.1,1.2c0.4,0.3,0.9,0.6,1.5,0.7
		c0.6,0.2,1.2,0.2,1.8,0.2c0.5,0,1,0,1.5-0.1s0.9-0.2,1.3-0.5c0.4-0.2,0.7-0.5,1-0.9c0.2-0.4,0.4-0.9,0.4-1.5c0-0.6-0.1-1-0.4-1.4
		c-0.3-0.4-0.7-0.6-1.2-0.9s-1.1-0.4-1.7-0.5c-0.6-0.1-1.3-0.3-1.9-0.4c-0.7-0.1-1.3-0.3-1.9-0.5c-0.6-0.2-1.2-0.4-1.7-0.8
		s-0.9-0.7-1.2-1.2c-0.3-0.5-0.4-1.1-0.4-1.9c0-0.8,0.2-1.5,0.5-2.1c0.3-0.6,0.8-1.1,1.3-1.5s1.2-0.7,1.9-0.9
		c0.7-0.2,1.4-0.3,2.2-0.3c0.8,0,1.6,0.1,2.3,0.3c0.7,0.2,1.4,0.5,1.9,0.9c0.5,0.4,1,1,1.3,1.6c0.3,0.7,0.5,1.4,0.5,2.3h-2.1
		c-0.1-1.2-0.5-2-1.3-2.6c-0.7-0.5-1.7-0.8-2.8-0.8c-0.5,0-0.9,0-1.4,0.1c-0.4,0.1-0.8,0.2-1.2,0.5c-0.3,0.2-0.6,0.5-0.8,0.9
		c-0.2,0.4-0.3,0.8-0.3,1.3c0,0.5,0.1,0.9,0.4,1.2c0.3,0.3,0.7,0.6,1.2,0.8s1.1,0.4,1.7,0.5c0.6,0.1,1.3,0.3,1.9,0.4
		c0.6,0.2,1.3,0.3,1.9,0.5c0.6,0.2,1.2,0.5,1.7,0.8c0.5,0.4,0.9,0.8,1.2,1.3c0.3,0.5,0.4,1.2,0.4,2
		C269.4,92.8,269.3,93.5,268.9,94.1z"/>
	<polygon class="st0" points="53.8,82 51,89.6 56.6,89.6 53.9,82 	"/>
	<path class="st0" d="M59.8,67.5c1.5,0.9,3,1.3,4.7,1.3c0.9,0,1.8-0.1,2.8-0.4c2.2-0.6,3.9-2,5.1-3.9c1.2-1.9,1.7-4,1.2-6.2
		c-0.3-1.4-0.8-2.6-1.4-3.9c-0.8-1.7-1.8-3.4-2.8-5c-0.7-1.1-1.4-2.2-2.1-3.4c-1.2-2-2-4.2-2.5-6.4c0-0.1-0.1-0.1-0.1-0.2
		c-0.1,0.1-0.2,0.2-0.1,0.2c-0.2,0.6-0.3,1.2-0.5,1.7c-0.8,2.3-2,4.5-3.2,6.6c-0.9,1.5-1.8,3-2.7,4.5c-0.9,1.4-1.6,2.9-2.1,4.4
		s-0.7,2.9-0.5,4.4C56.1,63.9,57.4,66.1,59.8,67.5z M65.5,66.7c0-0.1,0.1-0.1,0.2-0.2c0.3-0.2,0.7-0.3,1.1-0.5
		c0.6-0.3,1.2-0.6,1.7-1c0.7-0.5,1.3-1,1.8-1.6c0,0,0.1-0.1,0.1-0.1c0.1-0.1,0.2-0.2,0.3-0.3c0.1,0.3,0,0.5,0,0.7
		c-0.2,0.7-0.6,1.2-1.1,1.7c-0.2,0.2-0.3,0.3-0.5,0.5c-1,0.8-2.1,1.1-3.3,1.1c-0.1,0-0.3,0-0.4-0.1C65.4,66.8,65.4,66.7,65.5,66.7z
		 M58,59c0.3-1.6,0.9-3.1,1.6-4.5c1-1.8,2.1-3.6,3.3-5.2c0.2-0.2,0.3-0.5,0.5-0.7l0.1-0.1c0.1-0.1,0.2-0.1,0.3-0.2
		c-0.1,0.3-0.1,0.6-0.2,0.9c-0.7,2.2-1.2,4.4-1.5,6.7c-0.1,0.7-0.1,1.5-0.2,2.3c0,0.2,0,0.5,0.1,0.8c0.1,0.2,0.2,0.3,0.3,0.5
		c0.1,0.1,0.3,0.3,0.4,0.4c0.3,0.4,0.5,0.7,0.5,1.2c0,0.7-0.1,1.4-0.3,2c-0.3,0.7-0.9,1.2-1.7,1.2c-0.7,0.1-1.4-0.1-1.9-0.5
		s-0.9-0.9-1.2-1.6C57.8,61.1,57.8,60,58,59z"/>
</g>
</svg>
