<?xml version="1.0" encoding="utf-8"?>
<!-- Generator: Adobe Illustrator 19.2.1, SVG Export Plug-In . SVG Version: 6.00 Build 0)  -->
<svg version="1.1" id="Layer_1" xmlns="http://www.w3.org/2000/svg" xmlns:xlink="http://www.w3.org/1999/xlink" x="0px" y="0px"
	 viewBox="0 0 283 84" style="enable-background:new 0 0 283 84;" xml:space="preserve">
<style type="text/css">
	.st0{fill:#FFFFFF;}
</style>
<g>
	<g>
		<path class="st0" d="M63.1,46.6c-1,1.2-2.2,2.1-3.6,2.7c-0.4,0.2-0.8,0.3-1.1,0.5c-0.1,0.1-0.3,0.1-0.2,0.3c0,0.2,0.2,0.1,0.4,0.1
			c1.2,0,2.4-0.4,3.3-1.1c0.7-0.6,1.2-1.2,1.5-2.1c0-0.2,0.1-0.4,0-0.7C63.3,46.4,63.2,46.5,63.1,46.6z"/>
		<path class="st0" d="M56.2,31.8c0,0-0.1,0.1-0.1,0.1c-0.2,0.2-0.3,0.5-0.5,0.7c-1.2,1.6-2.3,3.4-3.3,5.2c-0.7,1.4-1.3,2.9-1.6,4.5
			c-0.2,1-0.2,2.1,0.1,3.2c0.3,0.7,0.7,1.2,1.2,1.6c0.5,0.4,1.2,0.6,1.9,0.5c0.8,0,1.4-0.5,1.7-1.2c0.2-0.6,0.3-1.3,0.3-2
			c0-0.5-0.2-0.8-0.5-1.2c-0.1-0.1-0.3-0.3-0.4-0.4c-0.1-0.2-0.2-0.3-0.3-0.5c-0.1-0.3-0.1-0.6-0.1-0.8c0.1-0.8,0.1-1.6,0.2-2.3
			c0.3-2.3,0.8-4.5,1.5-6.7c0.1-0.3,0.1-0.6,0.2-0.9C56.4,31.7,56.3,31.7,56.2,31.8z"/>
		<path class="st0" d="M43.2,19.8v34.5h28.1V19.8H43.2z M65.1,47.8c-1.2,1.9-2.9,3.3-5.1,3.9c-1,0.3-1.9,0.4-2.8,0.4
			c-1.7,0-3.2-0.4-4.7-1.3c-2.4-1.4-3.7-3.6-4.2-6.3c-0.2-1.5,0-2.9,0.5-4.4s1.2-3,2.1-4.4c0.9-1.5,1.8-3,2.7-4.5
			c1.2-2.1,2.4-4.3,3.2-6.6c0.2-0.5,0.3-1.1,0.5-1.7c-0.1,0,0-0.1,0.1-0.2c0,0.1,0.1,0.1,0.1,0.2c0.5,2.2,1.3,4.4,2.5,6.4
			c0.7,1.2,1.4,2.3,2.1,3.4c1,1.6,2,3.3,2.8,5c0.6,1.3,1.1,2.5,1.4,3.9C66.8,43.8,66.3,45.9,65.1,47.8z"/>
	</g>
	<path class="st0" d="M63.4,46.3c0.1,0.3,0,0.6-0.1,0.8c-0.3,0.9-0.8,1.5-1.5,2.1c-1,0.8-2.1,1.1-3.3,1.1c-0.1,0-0.3,0-0.4-0.1
		c0-0.2,0.1-0.2,0.2-0.3c0.4-0.2,0.8-0.4,1.1-0.5c1.4-0.6,2.6-1.6,3.6-2.7C63.2,46.5,63.3,46.4,63.4,46.3z"/>
	<path class="st0" d="M5.2,37.6C5.2,27,13.3,19.8,24,19.8c9,0,13.5,5.2,15.6,10L30.7,34c-0.9-2.7-3.5-5-6.6-5c-5,0-8.3,3.8-8.3,8.6
		s3.3,8.6,8.3,8.6c3.1,0,5.8-2.3,6.6-5l8.9,4.1c-2,4.6-6.6,10-15.6,10C13.3,55.3,5.2,48.1,5.2,37.6z"/>
	<path class="st0" d="M99.7,54.3L87,36.8v17.5H76.5V19.8h10.8l12,16.3V19.8h10.4v34.5H99.7z"/>
	<g>
		<g>
			<path class="st0" d="M113.8,37.4c0-10.4,7.7-17.5,17.4-17.5c6,0,10.2,2.9,12.9,6.7l-3.6,2c-1.9-2.8-5.4-4.9-9.3-4.9
				c-7.4,0-13.1,5.7-13.1,13.8c0,8,5.6,13.8,13.1,13.8c3.9,0,7.4-2,9.3-4.9l3.6,2c-2.8,3.9-6.9,6.7-12.9,6.7
				C121.4,54.9,113.8,47.8,113.8,37.4z"/>
			<path class="st0" d="M169.2,54.3l-8.6-13.5h-6.8v13.5h-4.2V20.4h13.6c6.2,0,10.6,4,10.6,10.2c0,6.1-4.2,9.5-8.8,9.9l9.2,13.8
				H169.2z M169.4,30.6c0-3.8-2.7-6.5-6.8-6.5h-8.9v13h8.9C166.7,37.1,169.4,34.4,169.4,30.6z"/>
			<path class="st0" d="M180.4,54.3V20.4h22.2v3.8h-18v10.9h17.7v3.8h-17.7v11.7h18v3.8L180.4,54.3L180.4,54.3z"/>
			<path class="st0" d="M217.8,54.3V24.2H207v-3.8h25.7v3.8H222v30.2L217.8,54.3L217.8,54.3z"/>
			<path class="st0" d="M238.4,54.3V20.4h22.2v3.8h-18v10.9h17.7v3.8h-17.7v11.7h18v3.8L238.4,54.3L238.4,54.3z"/>
		</g>
	</g>
	<g>
		<path class="st0" d="M15.2,63c-1.2-0.9-2.6-1.8-4.3-1.8c-2,0-3.6,1.2-3.6,2.9c0,1.3,0.7,2.2,3.1,3.4l1.6,0.8
			c3.1,1.6,4.5,2.6,4.5,4.6c0,2.9-2.2,4.6-5.5,4.6c-2.3,0-4.1-0.9-5.5-2.5l1-0.7c1,1.3,2.7,2.2,4.5,2.2c2.3,0,4.2-1.4,4.2-3.4
			c0-1.6-0.2-2.2-3.8-4l-1.8-0.9c-1.9-1-3.5-2.1-3.5-4.1c0-2.5,2.2-4,5-4c1.8,0,3.6,0.8,5,1.9L15.2,63z"/>
		<path class="st0" d="M32.7,61.5h-8.3v6.7h5.9v0.9h-5.9v7.2h8.5v0.9h-9.7V60.6h9.5V61.5z"/>
		<path class="st0" d="M50,77.3h-1.4l-1.8-5.1h-6.6l-1.8,5.1H37l6.5-17.4L50,77.3z M40.4,71.3h6.1l-3.1-8.4L40.4,71.3z"/>
		<path class="st0" d="M57.4,76.4H66v0.9h-9.8V60.6h1.3L57.4,76.4L57.4,76.4z"/>
		<path class="st0" d="M81.4,61.5h-8.3v6.7H79v0.9h-5.9v7.2h8.5v0.9h-9.7V60.6h9.5V61.5z"/>
		<path class="st0" d="M88,60.6h4.6c3.3,0,5.2,1.9,5.2,4.6c0,2.1-1.4,4-3.8,4.6l5.3,7.5h-1.6l-4.9-7.2h-3.6v7.2H88V60.6z M89.2,69.1
			h3.2c1.7,0,4-1.1,4-4.1c0-1.9-1.1-3.6-3.8-3.6h-3.4C89.2,61.4,89.2,69.1,89.2,69.1z"/>
		<path class="st0" d="M129,63c-1.2-0.9-2.6-1.8-4.3-1.8c-2,0-3.6,1.2-3.6,2.9c0,1.3,0.7,2.2,3.1,3.4l1.6,0.8
			c3.1,1.6,4.5,2.6,4.5,4.6c0,2.9-2.2,4.6-5.5,4.6c-2.3,0-4.1-0.9-5.5-2.5l1-0.7c1,1.3,2.7,2.2,4.5,2.2c2.3,0,4.2-1.4,4.2-3.4
			c0-1.6-0.2-2.2-3.8-4l-1.8-0.9c-1.9-1-3.5-2.1-3.5-4.1c0-2.5,2.2-4,5-4c1.8,0,3.6,0.8,5,1.9L129,63z"/>
		<path class="st0" d="M135.2,68.9c0-3.8,0.5-8.7,5.8-8.7c5.7,0,5.7,5.8,5.7,8.7c0,7.1-2.6,8.7-5.7,8.7
			C137.9,77.6,135.2,76.1,135.2,68.9z M141,76.7c2.6,0,4.4-1.7,4.4-7.7c0-6.2-1.9-7.8-4.4-7.8c-2.8,0-4.4,2-4.4,7.8
			C136.6,75.2,138.6,76.7,141,76.7z"/>
		<path class="st0" d="M154.9,76.4h8.6v0.9h-9.8V60.6h1.3v15.8H154.9z"/>
		<path class="st0" d="M178.6,60.6V73c0,3.3-2.9,4.6-5.1,4.6c-2.7,0-5.1-1.9-5.1-4.4V60.6h1.3v11.9c0,3.2,1.8,4.2,3.9,4.2
			c2.2,0,3.8-1.2,3.8-3.9V60.6H178.6z"/>
		<path class="st0" d="M196,61.5h-5.6v15.8h-1.3V61.5h-5.6v-0.9H196V61.5z"/>
		<path class="st0" d="M209.3,61.5h-2.7v14.9h2.7v0.9h-6.7v-0.9h2.7V61.5h-2.7v-0.9h6.7V61.5z"/>
		<path class="st0" d="M216.5,68.9c0-3.8,0.5-8.7,5.8-8.7c5.7,0,5.7,5.8,5.7,8.7c0,7.1-2.6,8.7-5.7,8.7
			C219.2,77.6,216.5,76.1,216.5,68.9z M222.3,76.7c2.6,0,4.4-1.7,4.4-7.7c0-6.2-1.9-7.8-4.4-7.8c-2.8,0-4.4,2-4.4,7.8
			C217.8,75.2,219.9,76.7,222.3,76.7z"/>
		<path class="st0" d="M235.1,62.1L235.1,62.1L235,77.3h-1.3V60.6h1.8l6.6,14.3h0.1V60.6h1.3v16.9h-1.3L235.1,62.1z"/>
		<path class="st0" d="M259.1,63c-1.2-0.9-2.6-1.8-4.3-1.8c-2,0-3.6,1.2-3.6,2.9c0,1.3,0.7,2.2,3.1,3.4l1.6,0.8
			c3.1,1.6,4.5,2.6,4.5,4.6c0,2.9-2.2,4.6-5.5,4.6c-2.3,0-4.1-0.9-5.5-2.5l1-0.7c1,1.3,2.7,2.2,4.5,2.2c2.3,0,4.2-1.4,4.2-3.4
			c0-1.6-0.2-2.2-3.8-4l-1.8-0.9c-1.9-1-3.5-2.1-3.5-4.1c0-2.5,2.2-4,5-4c1.8,0,3.6,0.8,5,1.9L259.1,63z"/>
	</g>
	<g>
		<path class="st0" d="M270,20.7h-2.3v7.5h-0.5v-7.5h-2.3v-0.5h5.1L270,20.7L270,20.7z"/>
		<path class="st0" d="M276,20.2h0.6v8H276v-6.9l0,0l-1.9,4.4l-1.9-4.4l0,0v6.9h-0.5v-8h0.6l1.8,4.4L276,20.2z"/>
	</g>
</g>
<g>
	<path class="st0" d="M152.2,18h-2.7V6.7h7.3v2.6h-4.5v2h4.3v2.6h-4.3V18z"/>
	<path class="st0" d="M160.7,14.2V18h-2.7V6.7h4.4c4.5,0,5.1,5.5,1.7,7.2l2.4,3.6V18h-2.9l-2.3-3.8H160.7z M160.7,11.7h1.6
		c1.7,0,1.7-2.3,0-2.3h-1.6V11.7z"/>
	<path class="st0" d="M170.1,15.3h4.7V18h-7.4V6.7h7.4v2.6h-4.6V11h4.5v2.7h-4.5V15.3z"/>
	<path class="st0" d="M178.6,15.3h4.7V18h-7.4V6.7h7.4v2.6h-4.6V11h4.5v2.7h-4.5V15.3z"/>
	<path class="st0" d="M195.1,9.6c-0.2-1-1.3-1.4-2.3-1.4c-0.8,0-1.6,0.3-2,0.9c-0.2,0.3-0.3,0.7-0.3,1c0.1,1.2,1.3,1.3,2.5,1.4
		c1.5,0.2,3.4,0.6,3.9,2.4c0,0.2,0.1,0.5,0.1,0.7c0,2.2-2.1,3.4-4.2,3.4c-1.7,0-3.8-1-4-3l0-0.3l1.6,0l0,0.2v-0.1
		c0.1,1,1.4,1.6,2.4,1.6c1.2,0,2.5-0.7,2.5-1.8c0-0.1,0-0.2,0-0.4c-0.2-0.8-1.3-1-2.5-1.1c-1.7-0.2-3.8-0.6-4-2.9v0
		c-0.1-0.8,0.1-1.5,0.6-2.1c0.8-1,2.1-1.5,3.4-1.5c1.7,0,3.5,0.9,3.8,3L195.1,9.6z"/>
	<path class="st0" d="M200.1,11.5h4.7V6.8h1.6V18h-1.6v-4.9h-4.7V18h-1.6V6.8h1.6V11.5z"/>
	<path class="st0" d="M213.6,8.4h-2.1v8h2.1V18h-5.8v-1.6h2.1v-8h-2.1V6.8h5.8V8.4z"/>
	<path class="st0" d="M219.1,6.7c2.4,0,3.6,1.9,3.6,3.8s-1.2,3.7-3.6,3.7h-2.5V18H215V6.7H219.1z M219.1,12.6c1.4,0,2-1.1,2-2.1
		c0-1.1-0.7-2.1-2-2.1h-2.5v4.2H219.1z"/>
	<path class="st0" d="M228.2,6.7c2.4,0,3.6,1.9,3.6,3.8s-1.2,3.7-3.6,3.7h-2.5V18h-1.6V6.7H228.2z M228.2,12.6c1.4,0,2-1.1,2-2.1
		c0-1.1-0.7-2.1-2-2.1h-2.5v4.2H228.2z"/>
	<path class="st0" d="M238.1,8.4H236v8h2.1V18h-5.8v-1.6h2.1v-8h-2.1V6.8h5.8V8.4z"/>
	<path class="st0" d="M239.6,18V6.7l1.3,0l5.5,7.9V6.7h1.6V18h-1.3l-5.4-7.8V18H239.6z"/>
	<path class="st0" d="M258.5,10.8c-0.4-1.8-2.2-2.5-3.6-2.5c-2.2,0-3.9,1.7-3.9,4.1c0,2.4,1.7,4.1,3.9,4.1c1.4,0,2.9-0.6,3.5-2.3
		h-4.2v-1.6h6c-0.1,0.9-0.2,1.6-0.3,1.9v0c-0.8,2.1-3.1,3.5-5.1,3.5c-3.1,0-5.5-2.4-5.5-5.7c0-3.3,2.4-5.7,5.5-5.7
		c2.1,0,4.7,1.1,5.3,4.1H258.5z"/>
</g>
</svg>
