<?xml version="1.0" encoding="utf-8"?>
<!-- Generator: Adobe Illustrator 19.2.1, SVG Export Plug-In . SVG Version: 6.00 Build 0)  -->
<svg version="1.1"
	 id="svg5890" xmlns:cc="http://creativecommons.org/ns#" xmlns:dc="http://purl.org/dc/elements/1.1/" xmlns:rdf="http://www.w3.org/1999/02/22-rdf-syntax-ns#" xmlns:svg="http://www.w3.org/2000/svg"
	 xmlns="http://www.w3.org/2000/svg" xmlns:xlink="http://www.w3.org/1999/xlink" x="0px" y="0px" viewBox="0 0 127.5 31.5"
	 style="enable-background:new 0 0 127.5 31.5;" xml:space="preserve">
<style type="text/css">
	.st0{fill:#FFFFFF;}
</style>
<path class="st0" d="M2.9,4.4h11c2.2,0,3.9,0.3,5.2,0.9c1.3,0.6,2.4,1.4,3.3,2.6c0.9,1.1,1.5,2.4,1.9,3.9c0.4,1.5,0.6,3,0.6,4.7
	c0,2.6-0.3,4.6-0.9,6c-0.6,1.4-1.4,2.6-2.4,3.6c-1,1-2.1,1.6-3.3,1.9c-1.6,0.4-3.1,0.7-4.4,0.7h-11V4.4z M10.2,9.9v13.2h1.8
	c1.5,0,1.6-0.2,2.2-0.5c0.7-0.3,1.2-1,1.5-1.8c0.4-0.9,0.6-2.3,0.6-4.2c0-2.6-0.4-4.3-1.2-5.3c-0.8-0.9-1.1-1.4-3-1.4H10.2z"/>
<path class="st0" d="M22.9,24.7h4.1v3.9h-4.1V24.7z"/>
<path class="st0" d="M36.8,24.7h4.1v3.9h-4.1V24.7z"/>
<path class="st0" d="M52.1,24.7h4.1v3.9h-4.1V24.7z"/>
<path class="st0" d="M27.9,12.5h7.7v16.1h-7.7V12.5z"/>
<path class="st0" d="M35.3,4.4h8.6l3.3,5.7l3.1-5.7h8.8L51,16.5l0.1,12.1h-7.6V16.5L35.3,4.4z"/>
<path class="st0" d="M33,9.8l-1.9-3.6c1.1-1,1.5-2.2,1.1-3.1c-0.6-1.2-2.8-1.4-4.8-0.3c-2,1-3.1,2.9-2.5,4.1c0.5,1,2.1,1.3,3.7,0.8
	l1.8,3.5c0.3,0.5,1,0.8,1.5,0.5l0.5-0.3C33.1,11,33.3,10.3,33,9.8z"/>
<g>
	<path class="st0" d="M65,4.7V9h5.9V4.7h3.5v11.2h-3.5v-4.7H65v4.7h-3.6V4.7H65z"/>
	<path class="st0" d="M91.8,10.1c0,3.7-3.1,5.9-7.7,5.9c-4.7,0-7.4-2.5-7.4-5.7c0-3.3,3-5.9,7.6-5.9C89.2,4.5,91.8,7.1,91.8,10.1z
		 M80.5,10.3c0,2.2,1.4,3.7,3.8,3.7c2.4,0,3.8-1.6,3.8-3.8c0-2-1.4-3.7-3.8-3.7C81.9,6.5,80.5,8.1,80.5,10.3z"/>
	<path class="st0" d="M107.5,11.6c-0.1-1.3-0.1-3-0.1-4.6h-0.1c-0.5,1.4-1.1,3-1.7,4.3l-1.9,4.4h-2.8l-1.7-4.3
		c-0.5-1.3-1-2.9-1.4-4.4h0c-0.1,1.5-0.2,3.2-0.3,4.6l-0.3,4.2h-3.3l1-11.2h4.7l1.5,3.7c0.5,1.3,1,2.7,1.3,4h0.1
		c0.4-1.3,1-2.8,1.5-4l1.7-3.7h4.6l0.9,11.2h-3.5L107.5,11.6z"/>
	<path class="st0" d="M123.3,11.1h-5.8v2.7h6.5v2.1h-10V4.7h9.7v2.1h-6.1v2.3h5.8V11.1z"/>
</g>
<g>
	<path class="st0" d="M70.1,28.2c-0.5,0.2-1.7,0.5-3.2,0.5c-4.3,0-6.5-2.4-6.5-5.6c0-3.8,3-5.9,6.8-5.9c1.5,0,2.6,0.3,3.1,0.5
		l-0.6,2c-0.6-0.2-1.4-0.4-2.4-0.4c-2.2,0-4,1.2-4,3.7c0,2.2,1.5,3.6,4,3.6c0.9,0,1.8-0.2,2.4-0.4L70.1,28.2z"/>
	<path class="st0" d="M79.4,23.8h-4.6v2.7h5.1v2.1h-8V17.4h7.7v2.1h-4.9v2.3h4.6V23.8z"/>
	<path class="st0" d="M81.9,28.6V17.4h3.3l2.6,4.1c0.7,1.2,1.5,2.6,2,3.8h0.1c-0.2-1.5-0.2-3-0.2-4.7v-3.3h2.6v11.2h-3l-2.7-4.3
		c-0.7-1.2-1.6-2.6-2.2-3.9l-0.1,0c0.1,1.5,0.1,3,0.1,4.9v3.4H81.9z"/>
	<path class="st0" d="M97.1,19.5h-3.4v-2.1h9.6v2.1h-3.4v9h-2.8V19.5z"/>
	<path class="st0" d="M112.3,23.8h-4.6v2.7h5.1v2.1h-8V17.4h7.7v2.1h-4.9v2.3h4.6V23.8z"/>
	<path class="st0" d="M114.7,17.5c0.9-0.1,2.3-0.2,3.8-0.2c1.9,0,3.2,0.2,4,0.9c0.7,0.5,1.1,1.3,1.1,2.3c0,1.4-1.1,2.4-2.2,2.8v0
		c0.9,0.3,1.4,1.1,1.7,2.1c0.4,1.3,0.8,2.7,1,3.1h-2.9c-0.2-0.3-0.5-1.2-0.9-2.6c-0.3-1.4-0.9-1.8-2-1.8h-0.9v4.4h-2.8V17.5z
		 M117.5,22.3h1.1c1.4,0,2.2-0.6,2.2-1.6c0-1-0.8-1.5-2.1-1.6c-0.7,0-1.1,0-1.3,0.1V22.3z"/>
</g>
</svg>
