<?xml version="1.0" encoding="utf-8"?>
<!-- Generator: Adobe Illustrator 19.2.1, SVG Export Plug-In . SVG Version: 6.00 Build 0)  -->
<svg version="1.1"
	 id="svg5890" xmlns:cc="http://creativecommons.org/ns#" xmlns:dc="http://purl.org/dc/elements/1.1/" xmlns:rdf="http://www.w3.org/1999/02/22-rdf-syntax-ns#" xmlns:svg="http://www.w3.org/2000/svg"
	 xmlns="http://www.w3.org/2000/svg" xmlns:xlink="http://www.w3.org/1999/xlink" x="0px" y="0px" viewBox="0 0 127.5 31.5"
	 style="enable-background:new 0 0 127.5 31.5;" xml:space="preserve">
<style type="text/css">
	.st0{fill:url(#SVGID_1_);}
	.st1{fill:url(#SVGID_2_);}
	.st2{fill:url(#SVGID_3_);}
	.st3{fill:url(#SVGID_4_);}
	.st4{fill:#A8A8A8;}
	.st5{fill:#828282;}
</style>
<linearGradient id="SVGID_1_" gradientUnits="userSpaceOnUse" x1="13.9" y1="28.7" x2="13.9" y2="4.4">
	<stop  offset="0" style="stop-color:#D4632A"/>
	<stop  offset="0.4102" style="stop-color:#FF993B"/>
	<stop  offset="1" style="stop-color:#B84D00"/>
</linearGradient>
<path class="st0" d="M2.9,4.4h11c2.2,0,3.9,0.3,5.2,0.9s2.4,1.4,3.3,2.6c0.9,1.1,1.5,2.4,1.9,3.9s0.6,3,0.6,4.7c0,2.6-0.3,4.6-0.9,6
	s-1.4,2.6-2.4,3.6s-2.1,1.6-3.3,1.9c-1.6,0.4-3.1,0.7-4.4,0.7h-11C2.9,28.7,2.9,4.4,2.9,4.4z M10.2,9.9v13.2H12
	c1.5,0,1.6-0.2,2.2-0.5c0.7-0.3,1.2-1,1.5-1.8c0.4-0.9,0.6-2.3,0.6-4.2c0-2.6-0.4-4.3-1.2-5.3c-0.8-0.9-1.1-1.4-3-1.4
	C12.1,9.9,10.2,9.9,10.2,9.9z"/>
<path d="M22.9,24.7H27v3.9h-4.1V24.7z"/>
<path d="M36.8,24.7h4.1v3.9h-4.1V24.7z"/>
<path d="M52.1,24.7h4.1v3.9h-4.1V24.7z"/>
<linearGradient id="SVGID_2_" gradientUnits="userSpaceOnUse" x1="31.75" y1="28.6" x2="31.75" y2="12.5">
	<stop  offset="0" style="stop-color:#D4632A"/>
	<stop  offset="0.4102" style="stop-color:#FF993B"/>
	<stop  offset="1" style="stop-color:#B84D00"/>
</linearGradient>
<path class="st1" d="M27.9,12.5h7.7v16.1h-7.7C27.9,28.6,27.9,12.5,27.9,12.5z"/>
<linearGradient id="SVGID_3_" gradientUnits="userSpaceOnUse" x1="47.2" y1="28.6" x2="47.2" y2="4.4">
	<stop  offset="0" style="stop-color:#D4632A"/>
	<stop  offset="0.4102" style="stop-color:#FF993B"/>
	<stop  offset="1" style="stop-color:#B84D00"/>
</linearGradient>
<path class="st2" d="M35.3,4.4h8.6l3.3,5.7l3.1-5.7h8.8L51,16.5l0.1,12.1h-7.6V16.5L35.3,4.4z"/>
<path d="M33,9.8l-1.9-3.6c1.1-1,1.5-2.2,1.1-3.1c-0.6-1.2-2.8-1.4-4.8-0.3c-2,1-3.1,2.9-2.5,4.1c0.5,1,2.1,1.3,3.7,0.8l1.8,3.5
	c0.3,0.5,1,0.8,1.5,0.5l0.5-0.3C33.1,11,33.3,10.3,33,9.8z"/>
<linearGradient id="SVGID_4_" gradientUnits="userSpaceOnUse" x1="29.8985" y1="9.6976" x2="32.0707" y2="8.4936">
	<stop  offset="0" style="stop-color:#000000"/>
	<stop  offset="1.915541e-02" style="stop-color:#090909"/>
	<stop  offset="8.008310e-02" style="stop-color:#202020"/>
	<stop  offset="0.1456" style="stop-color:#303030"/>
	<stop  offset="0.2184" style="stop-color:#3A3A3A"/>
	<stop  offset="0.3127" style="stop-color:#3D3D3D"/>
	<stop  offset="0.3671" style="stop-color:#585858"/>
	<stop  offset="0.4315" style="stop-color:#707070"/>
	<stop  offset="0.4995" style="stop-color:#818181"/>
	<stop  offset="0.5731" style="stop-color:#8C8C8C"/>
	<stop  offset="0.6622" style="stop-color:#8F8F8F"/>
	<stop  offset="0.7341" style="stop-color:#A5A5A5"/>
	<stop  offset="0.8235" style="stop-color:#B9B9B9"/>
	<stop  offset="0.9126" style="stop-color:#C5C5C5"/>
	<stop  offset="1" style="stop-color:#C9C9C9"/>
</linearGradient>
<path class="st3" d="M28.9,7.5l1.8,3.5c0.2,0.4,0.9,0.5,1.3,0.3l0.3-0.2c0.6-0.3,0.8-0.8,0.5-1.3l-1.9-3.6C30,7.2,28.9,7.5,28.9,7.5
	z"/>
<g>
	<path d="M65,4.7V9h5.9V4.7h3.5v11.2h-3.5v-4.7H65v4.7h-3.6V4.7H65z"/>
	<path d="M91.8,10.1c0,3.7-3.1,5.9-7.7,5.9c-4.7,0-7.4-2.5-7.4-5.7c0-3.3,3-5.9,7.6-5.9C89.2,4.5,91.8,7.1,91.8,10.1z M80.5,10.3
		c0,2.2,1.4,3.7,3.8,3.7s3.8-1.6,3.8-3.8c0-2-1.4-3.7-3.8-3.7S80.5,8.1,80.5,10.3z"/>
	<path d="M107.5,11.6c-0.1-1.3-0.1-3-0.1-4.6h-0.1c-0.5,1.4-1.1,3-1.7,4.3l-1.9,4.4h-2.8l-1.7-4.3c-0.5-1.3-1-2.9-1.4-4.4l0,0
		c-0.1,1.5-0.2,3.2-0.3,4.6l-0.3,4.2h-3.3l1-11.2h4.7l1.5,3.7c0.5,1.3,1,2.7,1.3,4h0.1c0.4-1.3,1-2.8,1.5-4l1.7-3.7h4.6l0.9,11.2
		h-3.5L107.5,11.6z"/>
	<path d="M123.3,11.1h-5.8v2.7h6.5v2.1h-10V4.7h9.7v2.1h-6.1v2.3h5.8L123.3,11.1L123.3,11.1z"/>
</g>
<g>
	<path d="M70.1,28.2c-0.5,0.2-1.7,0.5-3.2,0.5c-4.3,0-6.5-2.4-6.5-5.6c0-3.8,3-5.9,6.8-5.9c1.5,0,2.6,0.3,3.1,0.5l-0.6,2
		c-0.6-0.2-1.4-0.4-2.4-0.4c-2.2,0-4,1.2-4,3.7c0,2.2,1.5,3.6,4,3.6c0.9,0,1.8-0.2,2.4-0.4L70.1,28.2z"/>
	<path d="M79.4,23.8h-4.6v2.7h5.1v2.1h-8V17.4h7.7v2.1h-4.9v2.3h4.6v2H79.4z"/>
	<path d="M81.9,28.6V17.4h3.3l2.6,4.1c0.7,1.2,1.5,2.6,2,3.8h0.1c-0.2-1.5-0.2-3-0.2-4.7v-3.3h2.6v11.2h-3l-2.7-4.3
		c-0.7-1.2-1.6-2.6-2.2-3.9h-0.1c0.1,1.5,0.1,3,0.1,4.9v3.4H81.9z"/>
	<path d="M97.1,19.5h-3.4v-2.1h9.6v2.1h-3.4v9h-2.8C97.1,28.5,97.1,19.5,97.1,19.5z"/>
	<path d="M112.3,23.8h-4.6v2.7h5.1v2.1h-8V17.4h7.7v2.1h-4.9v2.3h4.6v2H112.3z"/>
	<path d="M114.7,17.5c0.9-0.1,2.3-0.2,3.8-0.2c1.9,0,3.2,0.2,4,0.9c0.7,0.5,1.1,1.3,1.1,2.3c0,1.4-1.1,2.4-2.2,2.8l0,0
		c0.9,0.3,1.4,1.1,1.7,2.1c0.4,1.3,0.8,2.7,1,3.1h-2.9c-0.2-0.3-0.5-1.2-0.9-2.6c-0.3-1.4-0.9-1.8-2-1.8h-0.9v4.4h-2.8v-11
		C114.6,17.5,114.7,17.5,114.7,17.5z M117.5,22.3h1.1c1.4,0,2.2-0.6,2.2-1.6s-0.8-1.5-2.1-1.6c-0.7,0-1.1,0-1.3,0.1v3.1H117.5z"/>
</g>
<ellipse transform="matrix(0.8792 -0.4765 0.4765 0.8792 1.1255 14.1941)" class="st4" cx="28.6" cy="4.9" rx="3.6" ry="2.2"/>
<path class="st5" d="M31.8,3.2c0-0.1-0.1-0.1-0.1-0.2C32,4,31,5.5,29.4,6.4c-1.7,0.9-3.4,0.9-4.1,0.1c0,0.1,0,0.1,0.1,0.2
	c0.6,1.1,2.5,1.1,4.2,0.2S32.3,4.2,31.8,3.2z"/>
</svg>
