<?xml version="1.0" encoding="utf-8"?>
<!-- Generator: Adobe Illustrator 21.0.2, SVG Export Plug-In . SVG Version: 6.00 Build 0)  -->
<svg version="1.1"
	 id="svg5890" xmlns:cc="http://creativecommons.org/ns#" xmlns:dc="http://purl.org/dc/elements/1.1/" xmlns:rdf="http://www.w3.org/1999/02/22-rdf-syntax-ns#" xmlns:svg="http://www.w3.org/2000/svg"
	 xmlns="http://www.w3.org/2000/svg" xmlns:xlink="http://www.w3.org/1999/xlink" x="0px" y="0px" viewBox="0 0 127.5 31.5"
	 style="enable-background:new 0 0 127.5 31.5;" xml:space="preserve">
<style type="text/css">
	.st0{fill-rule:evenodd;clip-rule:evenodd;fill:#F48120;}
	.st1{fill-rule:evenodd;clip-rule:evenodd;fill:#5F6570;}
	.st2{fill-rule:evenodd;clip-rule:evenodd;fill:#929497;}
</style>
<polygon class="st0" points="7.8,20.2 7.8,10.8 9.8,9.7 18.7,4.9 27.5,9.7 32.4,9.7 21.1,3.6 18.7,2.3 16.2,3.6 7.8,8.2 7.8,5.6 
	5.5,5.6 5.5,9.4 2,11.2 3.1,13.3 5.5,12 5.5,23.7 5.5,26 7.8,26 31.7,26 31.7,23.7 7.8,23.7 "/>
<path class="st0" d="M12.9,13.9h1.5c0.4,0,0.8,0.1,1.1,0.2c0.3,0.1,0.6,0.3,0.8,0.5c0.2,0.2,0.4,0.5,0.5,0.8c0.1,0.3,0.2,0.6,0.2,1
	c0,0.3-0.1,0.7-0.2,1c-0.1,0.3-0.3,0.6-0.5,0.8c-0.2,0.2-0.5,0.4-0.8,0.5c-0.3,0.1-0.7,0.2-1.1,0.2h-1.5V13.9L12.9,13.9z M14.4,21
	c0.7,0,1.4-0.1,2-0.3c0.6-0.2,1.1-0.5,1.6-0.9c0.4-0.4,0.8-0.9,1-1.4c0.2-0.6,0.4-1.2,0.4-1.9c0-0.7-0.1-1.3-0.4-1.9
	c-0.2-0.6-0.6-1-1-1.4c-0.4-0.4-1-0.7-1.6-0.9c-0.6-0.2-1.3-0.3-2-0.3h-3.8V21H14.4z"/>
<rect x="20.3" y="11.9" class="st0" width="2.3" height="9.1"/>
<polygon class="st0" points="23.2,11.9 26.7,17.3 26.7,21 29,21 29,17.3 32.5,11.9 29.8,11.9 27.8,15.2 25.9,11.9 "/>
<polygon class="st1" points="40.6,11.9 40.6,15.3 36.8,15.3 36.8,11.9 34.4,11.9 34.4,21 36.8,21 36.8,17.3 40.6,17.3 40.6,21 
	42.9,21 42.9,11.9 "/>
<path class="st1" d="M45.5,13c-0.4,0.4-0.8,0.9-1,1.5c-0.2,0.6-0.4,1.2-0.4,1.9c0,0.7,0.1,1.3,0.4,1.9c0.2,0.6,0.6,1.1,1,1.5
	c0.4,0.4,1,0.7,1.5,1c0.6,0.2,1.2,0.3,1.9,0.3c0.7,0,1.3-0.1,1.9-0.3c0.6-0.2,1.1-0.6,1.5-1c0.4-0.4,0.8-0.9,1-1.5
	c0.2-0.6,0.4-1.2,0.4-1.9c0-0.7-0.1-1.3-0.4-1.9c-0.2-0.6-0.6-1.1-1-1.5c-0.4-0.4-1-0.7-1.5-1c-0.6-0.2-1.2-0.3-1.9-0.3
	c-0.7,0-1.3,0.1-1.9,0.3C46.4,12.3,45.9,12.6,45.5,13L45.5,13z M49,13.8c0.4,0,0.7,0.1,1,0.2c0.3,0.1,0.6,0.3,0.8,0.6
	c0.2,0.2,0.4,0.5,0.5,0.8c0.1,0.3,0.2,0.7,0.2,1c0,0.4-0.1,0.7-0.2,1c-0.1,0.3-0.3,0.6-0.5,0.8c-0.2,0.2-0.5,0.4-0.8,0.6
	c-0.3,0.1-0.6,0.2-1,0.2c-0.4,0-0.7-0.1-1-0.2c-0.3-0.1-0.6-0.3-0.8-0.6c-0.2-0.2-0.4-0.5-0.5-0.8c-0.1-0.3-0.2-0.7-0.2-1
	c0-0.4,0.1-0.7,0.2-1c0.1-0.3,0.3-0.6,0.5-0.8c0.2-0.2,0.5-0.4,0.8-0.6C48.2,13.9,48.6,13.8,49,13.8z"/>
<polygon class="st1" points="55,11.9 55,21 57.4,21 57.4,15 59.7,21 60.7,21 63,15 63,21 65.4,21 65.4,11.9 62.1,11.9 60.2,16.9 
	58.3,11.9 "/>
<polygon class="st1" points="67,11.9 67,21 73.7,21 73.7,18.9 69.4,18.9 69.4,17.4 73.6,17.4 73.6,15.3 69.4,15.3 69.4,13.9 
	73.7,13.9 73.7,11.9 "/>
<path class="st1" d="M80.2,12.7c0.3,0,0.7,0.1,1,0.2c0.3,0.1,0.6,0.3,0.9,0.5c0.3,0.2,0.5,0.4,0.7,0.7l0.9-0.5
	c-0.2-0.3-0.5-0.7-0.9-0.9c-0.3-0.3-0.7-0.5-1.1-0.6c-0.4-0.2-0.9-0.2-1.5-0.2c-0.5,0-1,0.1-1.5,0.2c-0.5,0.1-0.9,0.4-1.3,0.6
	c-0.4,0.3-0.7,0.6-1,1c-0.3,0.4-0.5,0.8-0.7,1.3c-0.2,0.5-0.2,1-0.2,1.6c0,0.6,0.1,1.1,0.2,1.6c0.2,0.5,0.4,0.9,0.7,1.3
	c0.3,0.4,0.6,0.7,1,1c0.4,0.3,0.8,0.5,1.3,0.6c0.5,0.1,1,0.2,1.5,0.2c0.5,0,1-0.1,1.4-0.2c0.4-0.2,0.8-0.4,1.1-0.6
	c0.3-0.3,0.6-0.6,0.9-0.9l-1-0.5c-0.2,0.3-0.4,0.5-0.7,0.7c-0.3,0.2-0.5,0.4-0.9,0.5c-0.3,0.1-0.6,0.2-1,0.2c-0.5,0-1-0.1-1.4-0.3
	c-0.4-0.2-0.8-0.4-1.1-0.8c-0.3-0.3-0.6-0.7-0.7-1.2c-0.2-0.5-0.3-0.9-0.3-1.5c0-0.5,0.1-1,0.3-1.5c0.2-0.5,0.4-0.8,0.7-1.2
	c0.3-0.3,0.7-0.6,1.1-0.8C79.2,12.8,79.7,12.7,80.2,12.7z"/>
<polygon class="st1" points="84.9,11.9 84.9,21 90.8,21 90.8,20 86,20 86,16.8 90.7,16.8 90.7,15.8 86,15.8 86,12.9 90.8,12.9 
	90.8,11.9 "/>
<polygon class="st1" points="92.4,11.9 92.4,21 93.5,21 93.5,13.7 98.9,21 100,21 100,11.9 98.8,11.9 98.8,19 93.6,11.9 "/>
<polygon class="st1" points="101.5,12.9 104.4,12.9 104.4,21 105.5,21 105.5,12.9 108.4,12.9 108.4,11.9 101.5,11.9 "/>
<polygon class="st1" points="109.9,11.9 109.9,21 115.9,21 115.9,20 111.1,20 111.1,16.8 115.8,16.8 115.8,15.8 111.1,15.8 
	111.1,12.9 115.9,12.9 115.9,11.9 "/>
<path class="st1" d="M117.5,11.9V21h1.1v-3.6h1.8l2.3,3.6h1.3l-2.5-3.7c0.3,0,0.6-0.1,0.9-0.2c0.3-0.1,0.5-0.3,0.8-0.5
	c0.2-0.2,0.4-0.5,0.5-0.8c0.1-0.3,0.2-0.7,0.2-1.1c0-0.4-0.1-0.8-0.2-1.1c-0.1-0.3-0.3-0.6-0.6-0.9c-0.3-0.2-0.6-0.4-0.9-0.5
	c-0.4-0.1-0.7-0.2-1.2-0.2H117.5L117.5,11.9z M118.6,16.4v-3.5h2.4c0.4,0,0.7,0.1,1,0.2c0.3,0.1,0.5,0.3,0.6,0.6
	c0.2,0.3,0.2,0.6,0.2,0.9c0,0.3-0.1,0.6-0.2,0.9c-0.2,0.3-0.4,0.5-0.6,0.6c-0.3,0.1-0.6,0.2-1,0.2H118.6z"/>
<g>
	<polygon class="st2" points="122.3,23.2 122.3,26.1 124.2,26.1 124.2,25.7 122.8,25.7 122.8,24.9 124.2,24.9 124.2,24.4 
		122.8,24.4 122.8,23.7 124.2,23.7 124.2,23.2 	"/>
	<polygon class="st2" points="35.8,26.1 35.8,23.7 36.7,23.7 36.7,23.2 34.4,23.2 34.4,23.7 35.3,23.7 35.3,26.1 	"/>
	<polygon class="st2" points="37.1,23.2 37.1,26.1 37.6,26.1 37.6,24.9 39.1,24.9 39.1,26.1 39.6,26.1 39.6,23.2 39.1,23.2 
		39.1,24.4 37.6,24.4 37.6,23.2 	"/>
	<polygon class="st2" points="40.2,23.2 40.2,26.1 42.2,26.1 42.2,25.7 40.7,25.7 40.7,24.9 42.2,24.9 42.2,24.4 40.7,24.4 
		40.7,23.7 42.2,23.7 42.2,23.2 	"/>
	<path class="st2" d="M43.8,23.2v2.9h1.5c0.1,0,0.3,0,0.4-0.1c0.1,0,0.2-0.1,0.3-0.2c0.1-0.1,0.1-0.2,0.2-0.2c0-0.1,0.1-0.2,0.1-0.3
		c0-0.1,0-0.2,0-0.3c0-0.1-0.1-0.2-0.1-0.2c-0.1-0.1-0.1-0.1-0.2-0.2c-0.1,0-0.1-0.1-0.2-0.1c0.1,0,0.1,0,0.2-0.1
		c0.1,0,0.1-0.1,0.2-0.1c0-0.1,0.1-0.1,0.1-0.2c0-0.1,0-0.2,0-0.2c0-0.1,0-0.2-0.1-0.3c0-0.1-0.1-0.2-0.2-0.2
		c-0.1-0.1-0.2-0.1-0.3-0.2c-0.1,0-0.2-0.1-0.4-0.1H43.8L43.8,23.2z M44.3,24.4v-0.7h0.8c0.1,0,0.2,0,0.2,0c0.1,0,0.1,0.1,0.1,0.1
		c0,0.1,0,0.1,0,0.2c0,0.1,0,0.1,0,0.2c0,0.1-0.1,0.1-0.1,0.1c-0.1,0-0.1,0-0.2,0H44.3L44.3,24.4z M44.3,25.7v-0.8h0.8
		c0.1,0,0.2,0,0.2,0.1c0.1,0,0.1,0.1,0.1,0.1c0,0.1,0,0.1,0,0.2c0,0.1,0,0.2-0.1,0.3c-0.1,0.1-0.2,0.1-0.3,0.1H44.3z"/>
	<polygon class="st2" points="46.6,23.2 46.6,26.1 48.6,26.1 48.6,25.7 47.1,25.7 47.1,24.9 48.6,24.9 48.6,24.4 47.1,24.4 
		47.1,23.7 48.6,23.7 48.6,23.2 	"/>
	<path class="st2" d="M49,24c0,0.1,0,0.2,0.1,0.3c0,0.1,0.1,0.2,0.2,0.2c0.1,0.1,0.2,0.1,0.3,0.2c0.1,0,0.2,0.1,0.3,0.1l0.3,0.1
		c0.1,0,0.2,0.1,0.3,0.1c0.1,0,0.1,0.1,0.2,0.1c0,0,0.1,0.1,0.1,0.2c0,0,0,0.1,0,0.1c0,0-0.1,0.1-0.1,0.1c0,0-0.1,0.1-0.2,0.1
		c-0.1,0-0.2,0-0.3,0c-0.1,0-0.3,0-0.4-0.1c-0.1,0-0.2-0.1-0.3-0.1c-0.1-0.1-0.2-0.1-0.2-0.2l-0.3,0.4c0.1,0.1,0.2,0.2,0.3,0.2
		c0.1,0.1,0.2,0.1,0.4,0.2c0.1,0,0.3,0.1,0.5,0.1c0.2,0,0.4,0,0.5-0.1c0.1,0,0.3-0.1,0.3-0.2c0.1-0.1,0.2-0.2,0.2-0.3
		c0-0.1,0.1-0.2,0.1-0.3c0-0.1,0-0.2-0.1-0.3c0-0.1-0.1-0.2-0.2-0.2c-0.1-0.1-0.2-0.1-0.3-0.2c-0.1,0-0.2-0.1-0.3-0.1
		c-0.1,0-0.2-0.1-0.3-0.1c-0.1,0-0.2-0.1-0.3-0.1c-0.1,0-0.1-0.1-0.2-0.1c0,0-0.1-0.1-0.1-0.2c0-0.1,0-0.1,0.1-0.2
		c0-0.1,0.1-0.1,0.2-0.1c0.1,0,0.2,0,0.3,0c0.1,0,0.2,0,0.3,0c0.1,0,0.2,0.1,0.3,0.1c0.1,0,0.2,0.1,0.3,0.2l0.3-0.4
		c-0.1-0.1-0.3-0.2-0.5-0.3c-0.2-0.1-0.4-0.1-0.6-0.1c-0.2,0-0.3,0-0.4,0.1c-0.1,0-0.2,0.1-0.3,0.2c-0.1,0.1-0.2,0.2-0.2,0.3
		C49.1,23.8,49,23.9,49,24z"/>
	<polygon class="st2" points="52.4,23.7 52.4,26.1 52.9,26.1 52.9,23.7 53.8,23.7 53.8,23.2 51.5,23.2 51.5,23.7 	"/>
	<path class="st2" d="M55.3,23.2v2.9h1.5c0.1,0,0.3,0,0.4-0.1c0.1,0,0.2-0.1,0.3-0.2c0.1-0.1,0.1-0.2,0.2-0.2c0-0.1,0.1-0.2,0.1-0.3
		c0-0.1,0-0.2,0-0.3c0-0.1-0.1-0.2-0.1-0.2c-0.1-0.1-0.1-0.1-0.2-0.2c-0.1,0-0.1-0.1-0.2-0.1c0.1,0,0.1,0,0.2-0.1
		c0.1,0,0.1-0.1,0.2-0.1c0-0.1,0.1-0.1,0.1-0.2c0-0.1,0-0.2,0-0.2c0-0.1,0-0.2-0.1-0.3c0-0.1-0.1-0.2-0.2-0.2
		c-0.1-0.1-0.2-0.1-0.3-0.2c-0.1,0-0.2-0.1-0.4-0.1H55.3L55.3,23.2z M55.8,24.4v-0.7h0.8c0.1,0,0.2,0,0.2,0c0.1,0,0.1,0.1,0.1,0.1
		c0,0.1,0,0.1,0,0.2c0,0.1,0,0.1,0,0.2c0,0.1-0.1,0.1-0.1,0.1c-0.1,0-0.1,0-0.2,0H55.8L55.8,24.4z M55.8,24.9h0.8
		c0.1,0,0.2,0,0.2,0.1c0.1,0,0.1,0.1,0.1,0.1c0,0.1,0,0.1,0,0.2c0,0.1,0,0.2-0.1,0.3c-0.1,0.1-0.2,0.1-0.3,0.1h-0.8V24.9z"/>
	<path class="st2" d="M58.1,23.2v2.9h0.5V25h0.5l0.6,1.1h0.6L59.6,25c0.1,0,0.2,0,0.3-0.1c0.1,0,0.2-0.1,0.2-0.2
		c0.1-0.1,0.1-0.2,0.2-0.3c0-0.1,0.1-0.2,0.1-0.3c0-0.1,0-0.3-0.1-0.4c0-0.1-0.1-0.2-0.2-0.3c-0.1-0.1-0.2-0.1-0.3-0.2
		c-0.1,0-0.2-0.1-0.4-0.1H58.1L58.1,23.2z M58.6,24.6v-0.9h0.7c0.1,0,0.2,0,0.3,0.1c0.1,0,0.1,0.1,0.2,0.2c0,0.1,0.1,0.1,0.1,0.2
		c0,0.1,0,0.2-0.1,0.2c0,0.1-0.1,0.1-0.2,0.2c-0.1,0-0.2,0.1-0.3,0.1H58.6z"/>
	<path class="st2" d="M61.7,23.2l-1.1,2.9h0.6l0.2-0.6h1.3l0.2,0.6h0.6l-1.1-2.9H61.7L61.7,23.2z M61.5,25.1l0.5-1.4l0.5,1.4H61.5z"
		/>
	<polygon class="st2" points="63.7,23.2 63.7,26.1 64.2,26.1 64.2,24.1 65.7,26.1 66.2,26.1 66.2,23.2 65.7,23.2 65.7,25.2 
		64.2,23.2 	"/>
	<path class="st2" d="M66.8,23.2v2.9h1.1c0.2,0,0.4,0,0.6-0.1c0.2-0.1,0.3-0.2,0.5-0.3c0.1-0.1,0.2-0.3,0.3-0.5
		c0.1-0.2,0.1-0.4,0.1-0.6c0-0.2,0-0.4-0.1-0.6c-0.1-0.2-0.2-0.3-0.3-0.5c-0.1-0.1-0.3-0.2-0.5-0.3c-0.2-0.1-0.4-0.1-0.6-0.1H66.8
		L66.8,23.2z M67.3,25.7v-2h0.6c0.2,0,0.3,0,0.4,0.1c0.1,0.1,0.2,0.1,0.3,0.2c0.1,0.1,0.1,0.2,0.2,0.3c0,0.1,0.1,0.2,0.1,0.4
		c0,0.1,0,0.3-0.1,0.4c0,0.1-0.1,0.2-0.2,0.3c-0.1,0.1-0.2,0.2-0.3,0.2c-0.1,0.1-0.3,0.1-0.4,0.1H67.3z"/>
	<path class="st2" d="M69.8,24c0,0.1,0,0.2,0.1,0.3c0,0.1,0.1,0.2,0.2,0.2c0.1,0.1,0.2,0.1,0.3,0.2c0.1,0,0.2,0.1,0.3,0.1l0.3,0.1
		c0.1,0,0.2,0.1,0.3,0.1c0.1,0,0.1,0.1,0.2,0.1c0,0,0.1,0.1,0.1,0.2c0,0,0,0.1,0,0.1c0,0-0.1,0.1-0.1,0.1c0,0-0.1,0.1-0.2,0.1
		c-0.1,0-0.2,0-0.3,0c-0.1,0-0.3,0-0.4-0.1c-0.1,0-0.2-0.1-0.3-0.1c-0.1-0.1-0.2-0.1-0.2-0.2l-0.3,0.4c0.1,0.1,0.2,0.2,0.3,0.2
		c0.1,0.1,0.2,0.1,0.4,0.2c0.1,0,0.3,0.1,0.5,0.1c0.2,0,0.4,0,0.5-0.1c0.1,0,0.3-0.1,0.3-0.2c0.1-0.1,0.2-0.2,0.2-0.3
		c0-0.1,0.1-0.2,0.1-0.3c0-0.1,0-0.2-0.1-0.3c0-0.1-0.1-0.2-0.2-0.2c-0.1-0.1-0.2-0.1-0.3-0.2c-0.1,0-0.2-0.1-0.3-0.1
		c-0.1,0-0.2-0.1-0.3-0.1c-0.1,0-0.2-0.1-0.3-0.1c-0.1,0-0.1-0.1-0.2-0.1c0,0-0.1-0.1-0.1-0.2c0-0.1,0-0.1,0.1-0.2
		c0-0.1,0.1-0.1,0.2-0.1c0.1,0,0.2,0,0.3,0c0.1,0,0.2,0,0.3,0c0.1,0,0.2,0.1,0.3,0.1c0.1,0,0.2,0.1,0.3,0.2l0.3-0.4
		c-0.1-0.1-0.3-0.2-0.5-0.3c-0.2-0.1-0.4-0.1-0.6-0.1c-0.2,0-0.3,0-0.4,0.1c-0.1,0-0.2,0.1-0.3,0.2c-0.1,0.1-0.2,0.2-0.2,0.3
		C69.8,23.8,69.8,23.9,69.8,24z"/>
	<polygon class="st2" points="73.6,23.2 73.6,26.1 74.1,26.1 74.1,24.9 75.5,24.9 75.5,24.4 74.1,24.4 74.1,23.7 75.6,23.7 
		75.6,23.2 	"/>
	<path class="st2" d="M77.8,25.6c-0.1,0.1-0.2,0.1-0.4,0.1c-0.1,0-0.3,0-0.4-0.1c-0.1-0.1-0.2-0.1-0.3-0.2c-0.1-0.1-0.1-0.2-0.2-0.3
		c0-0.1-0.1-0.3-0.1-0.4c0-0.1,0-0.3,0.1-0.4c0-0.1,0.1-0.2,0.2-0.3c0.1-0.1,0.2-0.2,0.3-0.2c0.1-0.1,0.2-0.1,0.4-0.1
		c0.1,0,0.3,0,0.4,0.1c0.1,0.1,0.2,0.1,0.3,0.2c0.1,0.1,0.1,0.2,0.2,0.3c0,0.1,0.1,0.3,0.1,0.4c0,0.1,0,0.3-0.1,0.4
		c0,0.1-0.1,0.2-0.2,0.3C78,25.5,77.9,25.6,77.8,25.6L77.8,25.6z M75.9,24.7c0,0.2,0,0.4,0.1,0.6c0.1,0.2,0.2,0.3,0.3,0.5
		c0.1,0.1,0.3,0.2,0.5,0.3c0.2,0.1,0.4,0.1,0.6,0.1c0.2,0,0.4,0,0.6-0.1c0.2-0.1,0.3-0.2,0.5-0.3c0.1-0.1,0.2-0.3,0.3-0.5
		c0.1-0.2,0.1-0.4,0.1-0.6c0-0.2,0-0.4-0.1-0.6c-0.1-0.2-0.2-0.3-0.3-0.5c-0.1-0.1-0.3-0.2-0.5-0.3c-0.2-0.1-0.4-0.1-0.6-0.1
		c-0.2,0-0.4,0-0.6,0.1c-0.2,0.1-0.3,0.2-0.5,0.3c-0.1,0.1-0.2,0.3-0.3,0.5C75.9,24.3,75.9,24.5,75.9,24.7z"/>
	<path class="st2" d="M79.3,23.2v2.9h0.5V25h0.5l0.6,1.1h0.6L80.9,25c0.1,0,0.2,0,0.3-0.1c0.1,0,0.2-0.1,0.2-0.2
		c0.1-0.1,0.1-0.2,0.2-0.3c0-0.1,0.1-0.2,0.1-0.3c0-0.1,0-0.3-0.1-0.4c0-0.1-0.1-0.2-0.2-0.3c-0.1-0.1-0.2-0.1-0.3-0.2
		c-0.1,0-0.2-0.1-0.4-0.1H79.3L79.3,23.2z M79.8,24.6v-0.9h0.7c0.1,0,0.2,0,0.3,0.1c0.1,0,0.1,0.1,0.2,0.2C81,24,81,24,81,24.1
		c0,0.1,0,0.2-0.1,0.2c0,0.1-0.1,0.1-0.2,0.2c-0.1,0-0.2,0.1-0.3,0.1H79.8z"/>
	<polygon class="st2" points="84,24.9 84,26.1 84.5,26.1 84.5,24.9 85.6,23.2 85,23.2 84.2,24.5 83.5,23.2 82.9,23.2 	"/>
	<path class="st2" d="M85.7,25.3c0.1,0.2,0.2,0.3,0.3,0.5c0.1,0.1,0.3,0.2,0.5,0.3c0.2,0.1,0.4,0.1,0.6,0.1c0.2,0,0.4,0,0.6-0.1
		c0.2-0.1,0.3-0.2,0.5-0.3c0.1-0.1,0.2-0.3,0.3-0.5c0.1-0.2,0.1-0.4,0.1-0.6c0-0.2,0-0.4-0.1-0.6c-0.1-0.2-0.2-0.3-0.3-0.5
		c-0.1-0.1-0.3-0.2-0.5-0.3c-0.2-0.1-0.4-0.1-0.6-0.1c-0.2,0-0.4,0-0.6,0.1c-0.2,0.1-0.3,0.2-0.5,0.3c-0.1,0.1-0.2,0.3-0.3,0.5
		c-0.1,0.2-0.1,0.4-0.1,0.6C85.6,24.9,85.7,25.1,85.7,25.3L85.7,25.3z M87.1,25.7c-0.1,0-0.3,0-0.4-0.1c-0.1-0.1-0.2-0.1-0.3-0.2
		c-0.1-0.1-0.1-0.2-0.2-0.3c0-0.1-0.1-0.3-0.1-0.4c0-0.1,0-0.3,0.1-0.4c0-0.1,0.1-0.2,0.2-0.3c0.1-0.1,0.2-0.2,0.3-0.2
		c0.1-0.1,0.2-0.1,0.4-0.1c0.1,0,0.3,0,0.4,0.1c0.1,0.1,0.2,0.1,0.3,0.2c0.1,0.1,0.1,0.2,0.2,0.3c0,0.1,0.1,0.3,0.1,0.4
		c0,0.1,0,0.3-0.1,0.4c0,0.1-0.1,0.2-0.2,0.3c-0.1,0.1-0.2,0.2-0.3,0.2C87.4,25.7,87.2,25.7,87.1,25.7z"/>
	<path class="st2" d="M89.1,25.5c0.1,0.1,0.1,0.3,0.2,0.4c0.1,0.1,0.2,0.2,0.4,0.2c0.2,0.1,0.3,0.1,0.5,0.1c0.2,0,0.4,0,0.5-0.1
		c0.2-0.1,0.3-0.1,0.4-0.2c0.1-0.1,0.2-0.2,0.2-0.4c0.1-0.1,0.1-0.3,0.1-0.5v-1.7H91V25c0,0.2,0,0.3-0.1,0.4
		c-0.1,0.1-0.1,0.2-0.2,0.3c-0.1,0.1-0.2,0.1-0.4,0.1c-0.2,0-0.3,0-0.4-0.1c-0.1-0.1-0.2-0.1-0.2-0.3c-0.1-0.1-0.1-0.2-0.1-0.4v-1.7
		h-0.5V25C89.1,25.2,89.1,25.3,89.1,25.5z"/>
	<path class="st2" d="M92.2,23.2v2.9h0.5V25h0.5l0.6,1.1h0.6L93.7,25c0.1,0,0.2,0,0.3-0.1c0.1,0,0.2-0.1,0.2-0.2
		c0.1-0.1,0.1-0.2,0.2-0.3c0-0.1,0.1-0.2,0.1-0.3c0-0.1,0-0.3-0.1-0.4c0-0.1-0.1-0.2-0.2-0.3c-0.1-0.1-0.2-0.1-0.3-0.2
		c-0.1,0-0.2-0.1-0.4-0.1H92.2L92.2,23.2z M92.7,24.6v-0.9h0.7c0.1,0,0.2,0,0.3,0.1c0.1,0,0.1,0.1,0.2,0.2c0,0.1,0.1,0.1,0.1,0.2
		c0,0.1,0,0.2-0.1,0.2c0,0.1-0.1,0.1-0.2,0.2c-0.1,0-0.2,0.1-0.3,0.1H92.7z"/>
	<path class="st2" d="M96,23.2v2.9h1.1c0.2,0,0.4,0,0.6-0.1c0.2-0.1,0.3-0.2,0.5-0.3c0.1-0.1,0.2-0.3,0.3-0.5
		c0.1-0.2,0.1-0.4,0.1-0.6c0-0.2,0-0.4-0.1-0.6c-0.1-0.2-0.2-0.3-0.3-0.5c-0.1-0.1-0.3-0.2-0.5-0.3c-0.2-0.1-0.4-0.1-0.6-0.1H96
		L96,23.2z M96.5,25.7v-2h0.6c0.2,0,0.3,0,0.4,0.1c0.1,0.1,0.2,0.1,0.3,0.2c0.1,0.1,0.1,0.2,0.2,0.3c0,0.1,0.1,0.2,0.1,0.4
		c0,0.1,0,0.3-0.1,0.4c0,0.1-0.1,0.2-0.2,0.3c-0.1,0.1-0.2,0.2-0.3,0.2c-0.1,0.1-0.3,0.1-0.4,0.1H96.5z"/>
	<polygon class="st2" points="99.1,23.2 99.1,26.1 101,26.1 101,25.7 99.6,25.7 99.6,24.9 101,24.9 101,24.4 99.6,24.4 99.6,23.7 
		101,23.7 101,23.2 	"/>
	<path class="st2" d="M101.5,25.2c0,0.2,0.1,0.3,0.2,0.4c0.1,0.1,0.2,0.2,0.3,0.3c0.1,0.1,0.3,0.2,0.4,0.2c0.2,0,0.3,0.1,0.5,0.1
		c0.1,0,0.3,0,0.4-0.1c0.1,0,0.2-0.1,0.3-0.1c0.1-0.1,0.2-0.1,0.3-0.2c0.1-0.1,0.1-0.2,0.2-0.2l-0.4-0.2c0,0.1-0.1,0.2-0.2,0.2
		c-0.1,0.1-0.2,0.1-0.3,0.1c-0.1,0-0.2,0.1-0.3,0.1c-0.1,0-0.3,0-0.4-0.1c-0.1-0.1-0.2-0.1-0.3-0.2c-0.1-0.1-0.2-0.2-0.2-0.3
		c0-0.1-0.1-0.3-0.1-0.4c0-0.2,0-0.3,0.1-0.4c0-0.1,0.1-0.2,0.2-0.3c0.1-0.1,0.2-0.2,0.3-0.2c0.1-0.1,0.3-0.1,0.4-0.1
		c0.1,0,0.2,0,0.3,0.1c0.1,0,0.2,0.1,0.3,0.1c0.1,0.1,0.1,0.1,0.2,0.2l0.4-0.2c-0.1-0.1-0.1-0.2-0.2-0.2c-0.1-0.1-0.2-0.1-0.3-0.2
		c-0.1-0.1-0.2-0.1-0.3-0.1c-0.1,0-0.3-0.1-0.4-0.1c-0.2,0-0.3,0-0.5,0.1c-0.2,0-0.3,0.1-0.4,0.2c-0.1,0.1-0.2,0.2-0.3,0.3
		c-0.1,0.1-0.2,0.3-0.2,0.4c0,0.2-0.1,0.3-0.1,0.5C101.4,24.9,101.5,25,101.5,25.2z"/>
	<polygon class="st2" points="104.5,23.2 104.5,26.1 105,26.1 105,25.2 105.3,24.9 106.2,26.1 106.9,26.1 105.6,24.6 106.8,23.2 
		106.1,23.2 105,24.6 105,23.2 	"/>
	<path class="st2" d="M108.5,24.6c-0.1,0.1-0.1,0.1-0.2,0.2c-0.1,0.1-0.1,0.1-0.1,0.2c0,0.1-0.1,0.2-0.1,0.3c0,0.1,0,0.3,0.1,0.4
		c0,0.1,0.1,0.2,0.2,0.3c0.1,0.1,0.2,0.1,0.3,0.2c0.1,0,0.2,0.1,0.4,0.1c0.1,0,0.2,0,0.3,0c0.1,0,0.2-0.1,0.3-0.1
		c0.1,0,0.2-0.1,0.2-0.2c0,0,0.1,0.1,0.1,0.1c0,0,0.1,0.1,0.1,0.1h0.6c-0.1-0.1-0.2-0.2-0.3-0.3c-0.1-0.1-0.2-0.2-0.3-0.3
		c0.1-0.1,0.2-0.2,0.2-0.4c0.1-0.1,0.1-0.2,0.2-0.4l-0.4-0.2c0,0.1,0,0.1-0.1,0.2c0,0.1-0.1,0.1-0.1,0.2c0,0.1-0.1,0.1-0.1,0.2
		c0-0.1-0.1-0.1-0.1-0.2l-0.1-0.2c0,0-0.1-0.1-0.1-0.2c0-0.1-0.1-0.1-0.1-0.2c0.1,0,0.2-0.1,0.3-0.1c0.1,0,0.2-0.1,0.2-0.2
		c0.1-0.1,0.1-0.1,0.2-0.2c0-0.1,0.1-0.2,0.1-0.3c0-0.1,0-0.2-0.1-0.3c0-0.1-0.1-0.1-0.2-0.2c-0.1,0-0.1-0.1-0.2-0.1
		c-0.1,0-0.2,0-0.3,0c-0.1,0-0.2,0-0.3,0.1c-0.1,0-0.2,0.1-0.2,0.1c-0.1,0.1-0.1,0.1-0.2,0.2c0,0.1-0.1,0.2-0.1,0.3
		c0,0.1,0,0.2,0.1,0.3c0,0.1,0.1,0.2,0.1,0.3C108.7,24.5,108.6,24.6,108.5,24.6L108.5,24.6z M109.1,25c0.1,0.1,0.1,0.1,0.2,0.2
		c0,0,0.1,0.1,0.1,0.2c0.1,0.1,0.1,0.1,0.2,0.2c-0.1,0.1-0.2,0.1-0.2,0.1c-0.1,0-0.2,0.1-0.3,0.1c-0.1,0-0.1,0-0.2,0
		c-0.1,0-0.1-0.1-0.2-0.1c0,0-0.1-0.1-0.1-0.2c0-0.1,0-0.1,0-0.2c0-0.1,0-0.2,0-0.2c0-0.1,0.1-0.1,0.1-0.2c0,0,0.1-0.1,0.2-0.1
		C109,24.9,109,24.9,109.1,25L109.1,25z M109.2,24.3c0-0.1-0.1-0.2-0.1-0.2c0-0.1,0-0.1,0-0.2c0-0.1,0-0.1,0-0.2
		c0-0.1,0.1-0.1,0.1-0.1c0.1,0,0.1,0,0.2,0c0.1,0,0.1,0,0.1,0c0,0,0.1,0.1,0.1,0.1c0,0,0,0.1,0,0.2c0,0.1,0,0.2-0.1,0.2
		c0,0.1-0.1,0.1-0.2,0.2C109.3,24.2,109.3,24.3,109.2,24.3z"/>
	<polygon class="st2" points="112.2,23.2 112.2,26.1 112.7,26.1 112.7,24.9 114.2,24.9 114.2,26.1 114.7,26.1 114.7,23.2 
		114.2,23.2 114.2,24.4 112.7,24.4 112.7,23.2 	"/>
	<path class="st2" d="M115.2,24.7c0,0.2,0,0.4,0.1,0.6c0.1,0.2,0.2,0.3,0.3,0.5c0.1,0.1,0.3,0.2,0.5,0.3c0.2,0.1,0.4,0.1,0.6,0.1
		c0.2,0,0.4,0,0.6-0.1c0.2-0.1,0.3-0.2,0.5-0.3c0.1-0.1,0.2-0.3,0.3-0.5c0.1-0.2,0.1-0.4,0.1-0.6c0-0.2,0-0.4-0.1-0.6
		c-0.1-0.2-0.2-0.3-0.3-0.5c-0.1-0.1-0.3-0.2-0.5-0.3c-0.2-0.1-0.4-0.1-0.6-0.1c-0.2,0-0.4,0-0.6,0.1c-0.2,0.1-0.3,0.2-0.5,0.3
		c-0.1,0.1-0.2,0.3-0.3,0.5C115.3,24.3,115.2,24.5,115.2,24.7L115.2,24.7z M115.8,25.1c0-0.1-0.1-0.3-0.1-0.4c0-0.1,0-0.3,0.1-0.4
		c0-0.1,0.1-0.2,0.2-0.3c0.1-0.1,0.2-0.2,0.3-0.2c0.1-0.1,0.2-0.1,0.4-0.1c0.1,0,0.3,0,0.4,0.1c0.1,0.1,0.2,0.1,0.3,0.2
		c0.1,0.1,0.1,0.2,0.2,0.3c0,0.1,0.1,0.3,0.1,0.4c0,0.1,0,0.3-0.1,0.4c0,0.1-0.1,0.2-0.2,0.3c-0.1,0.1-0.2,0.2-0.3,0.2
		c-0.1,0.1-0.2,0.1-0.4,0.1c-0.1,0-0.3,0-0.4-0.1c-0.1-0.1-0.2-0.1-0.3-0.2C115.9,25.3,115.8,25.2,115.8,25.1z"/>
	<polygon class="st2" points="118.7,23.2 118.7,26.1 119.2,26.1 119.2,23.9 120,26.1 120.3,26.1 121.1,23.9 121.1,26.1 121.6,26.1 
		121.6,23.2 120.9,23.2 120.2,25.2 119.4,23.2 	"/>
</g>
</svg>
