<?xml version="1.0" encoding="utf-8"?>
<!-- Generator: Adobe Illustrator 19.2.1, SVG Export Plug-In . SVG Version: 6.00 Build 0)  -->
<svg version="1.1" id="GLFFC-LOGO-SOURCE-social-media_inversed_xA0_Image_1_"
	 xmlns="http://www.w3.org/2000/svg" xmlns:xlink="http://www.w3.org/1999/xlink" x="0px" y="0px" viewBox="0 0 1205.9 300.9"
	 style="enable-background:new 0 0 1205.9 300.9;" xml:space="preserve">
<style type="text/css">
	.st0{fill:#FFFFFF;}
</style>
<g>
	<g>
		<path class="st0" d="M-2.2,123.3c0.5,0.2,0.7,0.3,0.9,0.3c1.8,0.4,3.7,0.9,5.5,1.3c10.6,2.2,21.3,3,32.1,2.9
			c14.1-0.1,28-1.5,41.9-3.6c13.8-2.1,27.4-4.8,41-7.8c21.5-4.8,42.8-10.4,64-16.4c27.6-7.8,55.2-15.7,82.8-23.5
			c35-9.9,70.1-19.2,105.7-26.8c16.2-3.5,32.4-6.5,48.8-9c11.5-1.7,23-3.3,34.5-4.3c9.3-0.8,18.6-1.5,27.9-1.9
			c15.7-0.6,31.4-0.2,47.1,1.9c9.3,1.2,18.5,3,27.6,5.3c17,4.3,33.3,10.5,49.1,18.1c18.7,9,36.3,19.9,53.2,31.9
			c4.3,3.1,8.6,6.3,12.9,9.4c0.5,0.4,1,0.8,1.7,0.7c4.1-0.3,8.1-0.6,12.2-0.9c7.5-0.5,14.9-1.1,22.4-1.6c6.3-0.5,12.7-0.9,19-1.3
			c8.1-0.6,16.1-1.1,24.2-1.7c7.3-0.5,14.5-0.9,21.8-1.3c10-0.6,20-1.2,30-1.6c10.7-0.5,21.5-1,32.3-1.3c16.3-0.5,32.5-0.9,48.8-1.1
			c28.5-0.3,57,0.1,85.5,2c11.1,0.7,22.2,1.6,33.3,2.7c8.8,0.8,17.6,1.9,26.4,3.1c10.6,1.4,21.2,3.2,31.7,5.2
			c16.7,3.3,33.2,7.3,49.4,12.6c17.6,5.7,34.6,12.8,50.6,22.1c0.2,0.1,0.5,0.3,0.8,0.4c0-0.2,0-0.3,0-0.3c-0.3-0.4-0.6-0.8-1-1.1
			c-4.9-5.5-10.5-10.4-16.5-14.7c-10.5-7.5-21.8-13.4-33.7-18.5c-17.6-7.5-35.9-13-54.5-17.6c-20.9-5.1-42.1-8.9-63.4-11.8
			c-11.4-1.6-22.9-2.9-34.4-4.2c-10-1.1-19.9-1.9-29.9-2.7c-10.9-0.8-21.8-1.5-32.7-2.1c-12.4-0.6-24.9-1.1-37.3-1.5
			c-20.5-0.6-41-0.9-61.4-0.6c-18.3,0.3-36.6,0.7-54.9,1.2c-5.3,0.1-10.6,0.4-15.9,0.6c-7.1,0.3-14.3,0.7-21.4,1.1
			c-5.5,0.3-11.1,0.6-16.6,1c-1.4,0.1-2.4-0.2-3.5-1c-15-11.3-30.5-21.7-46.9-30.9c-18.4-10.3-37.6-18.7-57.8-24.6
			c-14.1-4.1-28.5-6.9-43.1-8.6c-8.4-0.9-16.9-1.5-25.4-1.7c-13.2-0.4-26.5-0.2-39.7,0.6c-8.4,0.5-16.7,1.1-25.1,1.9
			c-8.3,0.8-16.6,2-24.9,3.1c-11.9,1.6-23.8,3.9-35.5,6.4c-21.8,4.6-43.3,10.4-64.6,17c-24.5,7.6-48.6,16.2-72.5,25.2
			c-23,8.7-46,17.6-69,26.2c-22.1,8.3-44.4,16.1-67.1,22.8c-26.1,7.7-52.5,13.8-79.6,16.6c-7.2,0.8-14.5,1.3-21.8,1.7
			C7.8,123.1,3,123.1-2.2,123.3z M647.1,105.2c-0.2-0.3-0.3-0.4-0.3-0.5c-0.7-0.4-1.3-0.9-2-1.3c-17.8-11.1-36.4-20.7-55.7-29
			c-23.3-10-47.2-18-72.3-22c-7.9-1.3-15.9-2-24-2.2c-7.5-0.2-15,0.2-22.4,1.2c-3.7,0.5-7.2,1.6-10.5,3.5c-3.8,2.2-7.1,5-10.1,8.2
			c-7.2,7.7-12.6,16.5-16.3,26.4c-1.6,4.3-2.8,8.7-3.1,13.3c-0.1,2,0,4,0.7,5.9c1,2.8,3.1,4.3,6.1,4.4c2.1,0.1,4.3,0.2,6.4,0.2
			c15.7,0.3,31.4,0.7,47.1,0.9c22.6,0.3,45.2-0.1,67.8-0.9c6.9-0.2,13.9-0.6,20.8-1c6.7-0.4,13.4-0.8,20-1.4c6-0.5,12.1-1,18.1-1.6
			c6.8-0.7,13.7-1.7,20.5-2.6C640.9,106.4,643.9,105.8,647.1,105.2z M144,269.9c0,0.1-0.1,0.2-0.1,0.4
			c11.8,12.9,26.1,21.9,42.9,26.7c21.2,6.1,42.1,5,62.6-3.3c13-5.2,24.2-13.2,33.8-23.8c-0.7,0-1.1-0.1-1.5-0.1
			c-10.9,0-21.7,0-32.6,0c-0.8,0-1.5,0.2-2.3,0.6c-3.1,1.7-6.2,3-9.5,4.1c-9.5,3.2-19.3,4.2-29.3,3.4c-9.4-0.7-18.2-3.2-26.5-7.6
			c-0.6-0.3-1.4-0.4-2.1-0.4c-11.3,0-22.6,0-33.9,0C145,269.9,144.5,269.9,144,269.9z M854.1,269.9c0,0.3,0,0.4,0.1,0.5
			c0.4,0.4,0.7,0.8,1.1,1.2c18.1,18.8,40.2,28.4,66.2,29.2c11.3,0.4,22.3-1.4,33-5.1c14.6-5,27.2-13.2,37.8-24.5
			c0.3-0.3,0.6-0.7,1-1.2c-0.5,0-0.7-0.1-0.8-0.1c-11.1,0-22.2,0-33.3,0c-0.6,0-1.2,0.2-1.8,0.5c-2.4,1.1-4.8,2.3-7.3,3.3
			c-11.2,4.3-22.8,5.3-34.6,4c-8.1-0.9-15.8-3.3-23-7.1c-0.9-0.5-1.8-0.7-2.8-0.7c-11.3,0-22.5,0-33.8,0
			C855.2,269.9,854.7,269.9,854.1,269.9z M262.7,126.7c0-0.1,0-0.2,0.1-0.3c-19.4-11.9-40.4-15.8-62.9-12.9
			c-12,1.5-32.5,9.2-35.8,13.3C197,126.7,229.9,126.7,262.7,126.7z M972.9,126.7c0-0.1,0.1-0.2,0.1-0.2c-0.3-0.2-0.6-0.4-0.9-0.6
			c-12.4-7.6-26-11.8-40.5-13c-8.3-0.7-16.5-0.3-24.7,1.1c-11.4,2-22,5.9-31.8,12c-0.3,0.2-0.6,0.4-1,0.8
			C907.1,126.7,940,126.7,972.9,126.7z M1200.7,230.6c0.1-0.2,0.2-0.4,0.3-0.6c0.8-3.4,1.7-6.8,2.5-10.2c0.2-0.8,0.3-1.7,0.3-2.5
			c0-2-0.9-3.3-2.8-3.9c-1.3-0.4-2.6-0.5-3.9-0.6c-3.6-0.1-7.1-0.1-10.7,0c-1.4,0-2.8,0.2-4.1,0.4c-1.3,0.2-2.2,0.9-2.7,2.1
			c-0.4,1-0.9,2.1-1.2,3.2c-2.8,11.1-5.6,22.3-8.3,33.4c-0.3,1-0.4,2.2-0.4,3.2c0,1.2,0.6,1.9,1.7,2.1c0.8,0.2,1.7,0.3,2.5,0.3
			c5,0,10,0,15,0c0.8,0,1.6-0.1,2.4-0.2c1.2-0.2,2.2-0.8,2.8-2c0.4-0.9,0.8-1.8,1.1-2.8c1-3.8,2-7.7,3-11.5c0.1-0.4,0.2-0.8,0.2-1.3
			c-3.7,0-7.3,0-11,0c-0.8,3-1.6,5.9-2.4,8.8c-1,0-1.9,0-2.9,0c2.3-9,4.6-17.9,6.8-26.8c1,0,1.9,0,2.9,0c-0.7,3-1.3,5.8-2,8.7
			C1193.5,230.6,1197.1,230.6,1200.7,230.6z M1154.9,212.7c-3.7,14.9-7.4,29.7-11.2,44.6c7.2,0,14.3,0,21.4,0
			c0.7-2.9,1.4-5.8,2.2-8.8c-1.3,0-2.4,0-3.4,0c-1.1,0-2.2,0-3.3,0c-1.1,0-2.1,0.2-3.3-0.2c3-11.9,6.1-23.6,9.1-35.5
			C1162.5,212.7,1158.7,212.7,1154.9,212.7z M1141.6,212.7c-4,0-7.7,0-11.5,0c-3.7,14.9-7.4,29.7-11.2,44.5
			c1.9,0.3,20.3,0.3,21.4-0.1c0.7-2.8,1.4-5.6,2.2-8.7c-3.4,0-6.6,0-10,0C1135.5,236.5,1138.5,224.7,1141.6,212.7z"/>
		<path class="st0" d="M-2.2,123.3c5.1-0.1,10-0.1,14.7-0.4c7.3-0.4,14.5-0.9,21.8-1.7c27.1-2.9,53.5-9,79.6-16.6
			c22.7-6.7,45-14.5,67.1-22.8c23-8.7,46-17.5,69-26.2c24-9,48.1-17.7,72.5-25.2c21.3-6.6,42.8-12.4,64.6-17
			c11.8-2.5,23.6-4.7,35.5-6.4c8.3-1.1,16.6-2.3,24.9-3.1c8.3-0.8,16.7-1.4,25.1-1.9c13.2-0.8,26.5-1,39.7-0.6
			c8.5,0.3,16.9,0.8,25.4,1.7c14.6,1.6,29,4.4,43.1,8.6c20.3,5.9,39.4,14.4,57.8,24.6c16.4,9.1,31.9,19.6,46.9,30.9
			c1.1,0.8,2.2,1.1,3.5,1c5.5-0.4,11.1-0.7,16.6-1c7.1-0.4,14.3-0.8,21.4-1.1c5.3-0.2,10.6-0.5,15.9-0.6c18.3-0.4,36.6-0.9,54.9-1.2
			c20.5-0.3,41,0,61.4,0.6c12.4,0.4,24.9,0.9,37.3,1.5c10.9,0.5,21.8,1.3,32.7,2.1c10,0.8,20,1.6,29.9,2.7
			c11.5,1.2,22.9,2.6,34.4,4.2c21.3,2.9,42.5,6.7,63.4,11.8c18.6,4.5,36.9,10,54.5,17.6c11.8,5.1,23.2,11,33.7,18.5
			c6,4.3,11.6,9.2,16.5,14.7c0.3,0.4,0.6,0.8,1,1.1c0,0.1,0,0.2,0,0.3c-0.3-0.1-0.5-0.3-0.8-0.4c-16-9.3-33-16.3-50.6-22.1
			c-16.2-5.3-32.7-9.3-49.4-12.6c-10.5-2-21.1-3.8-31.7-5.2c-8.8-1.2-17.6-2.2-26.4-3.1c-11.1-1.1-22.2-1.9-33.3-2.7
			c-28.5-1.9-57-2.3-85.5-2c-16.3,0.2-32.5,0.6-48.8,1.1c-10.8,0.3-21.5,0.8-32.3,1.3c-10,0.5-20,1.1-30,1.6
			c-7.3,0.4-14.6,0.8-21.8,1.3c-8.1,0.5-16.1,1.1-24.2,1.7c-6.3,0.4-12.7,0.9-19,1.3c-7.5,0.5-14.9,1.1-22.4,1.6
			c-4.1,0.3-8.1,0.6-12.2,0.9c-0.7,0.1-1.2-0.3-1.7-0.7c-4.3-3.1-8.5-6.3-12.9-9.4c-16.9-12-34.6-22.8-53.2-31.9
			c-15.8-7.6-32.1-13.8-49.1-18.1c-9.1-2.3-18.3-4-27.6-5.3c-15.6-2.1-31.3-2.6-47.1-1.9c-9.3,0.4-18.6,1.2-27.9,1.9
			c-11.6,1-23.1,2.5-34.5,4.3c-16.4,2.5-32.6,5.5-48.8,9c-35.6,7.6-70.7,16.9-105.7,26.8c-27.6,7.8-55.2,15.7-82.8,23.5
			c-21.2,6-42.5,11.5-64,16.4c-13.6,3-27.2,5.8-41,7.8c-13.9,2.1-27.8,3.5-41.9,3.6c-10.8,0.1-21.5-0.7-32.1-2.9
			c-1.8-0.4-3.7-0.9-5.5-1.3C-1.4,123.6-1.7,123.5-2.2,123.3z"/>
		<path class="st0" d="M647.1,105.2c-3.2,0.5-6.2,1.1-9.2,1.5c-6.8,0.9-13.7,1.8-20.5,2.6c-6,0.7-12,1.1-18.1,1.6
			c-6.7,0.5-13.3,1-20,1.4c-6.9,0.4-13.9,0.7-20.8,1c-22.6,0.8-45.2,1.1-67.8,0.9c-15.7-0.2-31.4-0.6-47.1-0.9
			c-2.1,0-4.3-0.1-6.4-0.2c-3-0.1-5-1.6-6.1-4.4c-0.7-1.9-0.8-3.9-0.7-5.9c0.2-4.6,1.4-9,3.1-13.3c3.7-9.8,9.1-18.7,16.3-26.4
			c3-3.2,6.3-6,10.1-8.2c3.3-1.9,6.8-3,10.5-3.5c7.4-1,14.9-1.4,22.4-1.2c8,0.2,16,1,24,2.2c25.1,4,49,11.9,72.3,22
			c19.3,8.3,37.9,18,55.7,29c0.7,0.4,1.3,0.9,2,1.3C646.9,104.8,646.9,104.9,647.1,105.2z"/>
		<path class="st0" d="M144,269.9c0.5,0,1,0,1.5,0c11.3,0,22.6,0,33.9,0c0.7,0,1.5,0.1,2.1,0.4c8.3,4.4,17.2,6.9,26.5,7.6
			c10,0.8,19.8-0.2,29.3-3.4c3.3-1.1,6.5-2.5,9.5-4.1c0.7-0.4,1.4-0.6,2.3-0.6c10.9,0,21.7,0,32.6,0c0.4,0,0.8,0,1.5,0.1
			c-9.7,10.6-20.8,18.6-33.8,23.8c-20.5,8.3-41.4,9.3-62.6,3.3c-16.8-4.8-31.1-13.9-42.9-26.7C143.9,270.1,144,270,144,269.9z"/>
		<path class="st0" d="M854.1,269.9c0.6,0,1.1,0,1.6,0c11.3,0,22.5,0,33.8,0c1,0,1.9,0.2,2.8,0.7c7.2,3.8,14.9,6.1,23,7.1
			c11.9,1.4,23.4,0.3,34.6-4c2.5-1,4.9-2.2,7.3-3.3c0.6-0.3,1.2-0.5,1.8-0.5c11.1,0,22.2,0,33.3,0c0.2,0,0.4,0,0.8,0.1
			c-0.4,0.5-0.7,0.9-1,1.2c-10.6,11.3-23.1,19.5-37.8,24.5c-10.7,3.7-21.7,5.5-33,5.1c-26-0.8-48.1-10.4-66.2-29.2
			c-0.4-0.4-0.7-0.8-1.1-1.2C854.1,270.3,854.2,270.2,854.1,269.9z"/>
		<path class="st0" d="M262.7,126.7c-32.8,0-65.7,0-98.6,0c3.2-4.1,23.7-11.7,35.8-13.3c22.4-2.9,43.5,1,62.9,12.9
			C262.8,126.4,262.7,126.5,262.7,126.7z"/>
		<path class="st0" d="M972.9,126.7c-32.9,0-65.7,0-98.9,0c0.4-0.4,0.7-0.6,1-0.8c9.8-6,20.4-10,31.8-12c8.2-1.4,16.4-1.8,24.7-1.1
			c14.5,1.2,28.1,5.4,40.5,13c0.3,0.2,0.6,0.4,0.9,0.6C972.9,126.5,972.9,126.6,972.9,126.7z"/>
		<path class="st0" d="M1200.7,230.6c-3.6,0-7.2,0-10.9,0c0.7-2.9,1.3-5.8,2-8.7c-1,0-1.9,0-2.9,0c-2.3,8.9-4.5,17.8-6.8,26.8
			c1,0,1.9,0,2.9,0c0.8-2.9,1.6-5.8,2.4-8.8c3.6,0,7.2,0,11,0c-0.1,0.4-0.1,0.9-0.2,1.3c-1,3.8-2,7.7-3,11.5
			c-0.3,0.9-0.7,1.9-1.1,2.8c-0.5,1.2-1.5,1.8-2.8,2c-0.8,0.1-1.6,0.2-2.4,0.2c-5,0-10,0.1-15,0c-0.8,0-1.7-0.1-2.5-0.3
			c-1.1-0.2-1.7-0.9-1.7-2.1c0-1.1,0.1-2.2,0.4-3.2c2.7-11.2,5.5-22.3,8.3-33.4c0.3-1.1,0.7-2.2,1.2-3.2c0.5-1.2,1.4-1.9,2.7-2.1
			c1.4-0.2,2.8-0.4,4.1-0.4c3.6-0.1,7.1-0.1,10.7,0c1.3,0,2.7,0.2,3.9,0.6c1.9,0.6,2.8,1.9,2.8,3.9c0,0.8-0.1,1.7-0.3,2.5
			c-0.8,3.4-1.7,6.8-2.5,10.2C1201,230.2,1200.8,230.3,1200.7,230.6z"/>
		<path class="st0" d="M1154.9,212.7c3.9,0,7.6,0,11.5,0c-3,11.9-6.1,23.7-9.1,35.5c1.1,0.4,2.2,0.2,3.3,0.2c1.1,0,2.2,0,3.3,0
			c1.1,0,2.2,0,3.4,0c-0.8,3.1-1.5,5.9-2.2,8.8c-7.1,0-14.2,0-21.4,0C1147.4,242.4,1151.1,227.7,1154.9,212.7z"/>
		<path class="st0" d="M1141.6,212.7c-3.1,12-6.1,23.7-9.2,35.8c3.4,0,6.6,0,10,0c-0.8,3.1-1.5,5.9-2.2,8.7
			c-1.1,0.3-19.5,0.4-21.4,0.1c3.7-14.8,7.4-29.6,11.2-44.5C1133.9,212.7,1137.7,212.7,1141.6,212.7z"/>
	</g>
</g>
<g>
	<path class="st0" d="M150.5,211.2c-4,16-8,32.1-12,48.4c-10,0.1-20-0.1-30.1-0.3c0.1-0.7,0.2-1.2,0.4-1.7
		c4.6-17.9,9.2-35.8,13.8-53.7c4.2-16.4,8.4-32.7,12.6-49.1c1-3.8,2.6-7.4,4.5-10.8c1.8-3.1,4.4-4.8,7.8-5.4c2-0.4,4-0.7,6-0.7
		c12.5,0,25,0,37.5,0.1c2,0,4,0.3,5.9,0.8c4.8,1.1,6.6,3.5,6.9,8.4c0.2,3-0.3,5.8-1,8.7c-2.4,9.8-4.9,19.6-7.4,29.4
		c-6,24.1-12,48.2-18,72.4c-0.2,0.6-0.3,1.2-0.5,1.9c-10.2,0-20.2,0-30.5,0c4.2-16.1,8.4-32.2,12.6-48.2
		C157.8,211,152.5,210.9,150.5,211.2z M162.9,162.2c-1,3.1-5.2,23.1-5.1,24.3c2.4,0,4.8,0,7.2,0c1.1-3,5.9-23.1,5.8-24.3
		C168.2,162.2,165.6,162.2,162.9,162.2z"/>
	<path class="st0" d="M311,211.2c-4,16.1-8,32.2-12,48.5c-10-0.1-20-0.2-30.2-0.3c0.5-2.2,1-4.2,1.6-6.2c8.4-32.7,16.8-65.3,25.2-98
		c0.9-3.7,2.5-7.1,4.2-10.4c2.1-4,5.5-5.9,9.7-6.4c1.5-0.2,3-0.4,4.4-0.4c12.6,0,25.2,0,37.8,0.1c2.1,0,4.1,0.4,6.2,0.9
		c4.2,1.1,6,3.4,6.3,7.7c0.3,3.3-0.3,6.5-1.1,9.7c-3,12.2-6.1,24.3-9.1,36.5c-5.4,21.7-10.8,43.4-16.3,65.1c-0.1,0.5-0.3,1-0.4,1.4
		c-1.1,0.3-27.4,0.4-30.5,0.1c4.2-16.1,8.5-32.1,12.6-48.3C316.6,211.2,313.8,211.2,311,211.2z M325.6,186.5c2-8.1,4-16.1,6-24.2
		c-0.5-0.1-0.9-0.1-1.2-0.2c-1.9,0-3.9,0-5.8,0c-1.2,0-1.2,0-1.5,1.3c-1.6,7.3-3.2,14.7-4.8,22c-0.1,0.3-0.1,0.6-0.1,1.1
		C320.7,186.5,323.1,186.5,325.6,186.5z"/>
	<path class="st0" d="M707.2,259.6c-6.6,0-13.2,0-19.8,0c-1.2,0-2.5-0.1-3.7-0.4c-5.1-1-7.2-5.1-7.9-8.5c-0.5-2.3-0.1-4.5,0.4-6.8
		c6.6-25.9,13.3-51.7,19.9-77.6c0.9-3.7,1.9-7.4,2.9-11.1c1.1-4.1,3-7.9,5.7-11.2c2.8-3.4,6.3-5.3,10.7-5.8c1.4-0.2,2.8-0.2,4.1-0.2
		c10.7,0,21.4,0,32.1,0c2,0,4.1,0.2,6,0.9c6.6,2.1,10.4,8,9.5,14.8c-0.5,3.4-1.4,6.7-2.2,10c-6.4,25.7-12.8,51.3-19.2,77
		c-0.7,2.9-1.6,5.8-2.9,8.6c-0.8,1.5-1.7,3-2.6,4.5c-2.3,3.5-5.7,5.2-9.8,5.6c-1.6,0.2-3.3,0.2-4.9,0.3
		C719.3,259.6,713.2,259.6,707.2,259.6C707.2,259.6,707.2,259.6,707.2,259.6z M709.3,235.3c2.7,0,5.1,0,7.5,0
		c0.1-0.2,0.2-0.3,0.3-0.4c6.1-23.9,12.1-47.8,18.2-71.7c0.1-0.2,0.1-0.5,0.1-0.7c0,0,0-0.1-0.1-0.1c0,0-0.1-0.1-0.1-0.2
		c-2.5,0-5,0-7.6,0C721.4,186.5,715.4,210.8,709.3,235.3z"/>
	<path class="st0" d="M785.3,259.6c-6.6,0-13.2,0-19.8,0c-1.3,0-2.6-0.1-3.8-0.4c-4.4-1-7.6-4.9-7.9-9.5c-0.1-1.8,0-3.7,0.5-5.5
		c4.9-19.2,9.9-38.5,14.8-57.7c2.6-10.2,5.2-20.4,7.9-30.6c0.9-3.6,2.4-6.9,4.5-10c3.5-5.3,8.5-7.8,14.8-7.8c8.6,0,17.2,0,25.7,0
		c2.7,0,5.5,0,8.2,0c2,0,4.1,0.3,6,1c6.6,2.3,10.3,8.5,9,15.4c-0.8,4-1.9,8-2.8,12c-6.2,24.9-12.5,49.9-18.7,74.8
		c-0.7,2.8-1.6,5.6-2.9,8.2c-0.8,1.6-1.7,3.1-2.8,4.6c-2.3,3.3-5.6,4.8-9.4,5.3c-1.7,0.2-3.4,0.3-5,0.3
		C797.4,259.6,791.3,259.6,785.3,259.6C785.3,259.6,785.3,259.6,785.3,259.6z M795,235.3c6.2-24.4,12.3-48.7,18.5-73.1
		c-0.7,0-1.2-0.1-1.6-0.1c-1.6,0-3.2,0-4.8,0c-1.6,0-1.6,0-2,1.6c-5.8,23.4-11.7,46.9-17.5,70.3c-0.1,0.4-0.1,0.8-0.2,1.3
		C790.1,235.3,792.5,235.3,795,235.3z"/>
	<path class="st0" d="M1019,259.6c-10.1,0-20.1,0-30.3,0c8.2-32.5,16.4-64.9,24.5-97.3c-1.4-0.4-2.7-0.2-3.9-0.2c-1.2,0-2.5,0-3.9,0
		c-8.3,32.5-16.6,65-24.8,97.5c-9.9,0-19.7,0-29.4,0c0-0.1-0.1-0.1-0.1-0.2c0,0,0-0.1,0-0.1c0-0.3,0.1-0.6,0.1-0.9
		c10-40.1,20-80.1,30-120.3c0.5,0,1-0.1,1.5-0.1c15.3,0,30.6,0,46,0c2.7,0,5.4,0.2,8.1,0.9c5.4,1.3,8.2,4,8.8,10.6
		c0.4,4.3-0.5,8.4-1.5,12.5c-8.2,32-16.4,64.1-24.6,96.1C1019.3,258.5,1019.1,259,1019,259.6z"/>
	<path class="st0" d="M261.6,259.5c-9.9,0-19.6,0-29.4,0c-1.8-12.6-3.7-25.1-5.5-37.6c-0.1,0-0.2,0-0.3,0c-1.1,4.1-2,8.3-3,12.4
		c-1,4.2-2,8.4-3,12.6c-1,4.2-2,8.4-3,12.6c-10,0-19.9,0-30,0c10.1-40.5,20.2-81,30.3-121.5c0.6,0,1.1,0,1.6,0c14.6,0,29.2,0,43.7,0
		c2.3,0,4.7,0.2,6.9,0.7c6.2,1.3,10,5.1,11.4,11.3c0.3,1.2,0.5,2.3,0.6,3.5c0.1,0.7,0,1.5-0.2,2.2c-3.6,13.4-7.3,26.9-10.9,40.3
		c-1.2,4.6-4,8-7.9,10.6c-2.3,1.5-4.7,3-7.4,3.7c-0.6,0.2-1.2,0.5-1.8,0.8C256.2,227.3,258.9,243.3,261.6,259.5z M243.2,186.6
		c0.8-2,5.8-23,5.7-24.2c-2.4,0-4.8,0-7.4,0c-2.2,8-4.4,16-6.7,24.2C237.9,186.6,240.6,186.6,243.2,186.6z"/>
	<path class="st0" d="M868.3,221.9c-3,12.5-6,25.1-9,37.6c-10,0-19.9,0-30,0c10.1-40.5,20.1-80.9,30.3-121.5c0.6,0,1.1,0,1.6,0
		c14.5,0,29.1,0,43.6,0c2.5,0,5,0.2,7.5,0.8c5.8,1.4,9.3,5,10.7,10.7c0.4,1.5,0.6,3.1,0.8,4.7c0.1,0.5-0.1,1.1-0.2,1.6
		c-3.7,13.5-7.3,27.1-11,40.6c-1.2,4.5-4,7.8-7.9,10.3c-2.3,1.5-4.6,2.9-7.3,3.7c-0.6,0.2-1.2,0.5-1.9,0.8
		c2.7,16.1,5.4,32.2,8.1,48.4c-9.8,0-19.5,0-29.4,0c-0.9-6.3-1.9-12.6-2.8-18.9c-0.9-6.2-1.8-12.5-2.8-18.7
		C868.5,221.9,868.4,221.9,868.3,221.9z M883.5,162.4c-2.2,8.1-4.4,16-6.6,24.1c0.5,0.1,0.8,0.2,1.1,0.2c2,0,4.1,0,6.1,0
		c1.1,0,1.2,0,1.5-1.2c1.8-7.2,3.5-14.4,5.3-21.6c0.1-0.4,0.1-0.9,0.2-1.4C888.5,162.4,886.1,162.4,883.5,162.4z"/>
	<path class="st0" d="M1064.9,235.5c5.4,0,10.7,0,16.1,0c1-3.6,2-7.3,3.1-11.2c-3.3-0.2-6.4,0-9.7-0.1c2.3-8.5,4.6-16.8,6.8-25.1
		c12.6,0,25.1,0,37.7,0c0,0.4-0.1,0.7-0.1,1c-3.7,14.7-7.3,29.3-11.1,43.9c-0.6,2.5-1.6,5-2.7,7.4c-2.4,5.4-6.9,7.9-12.6,8.2
		c-2.6,0.1-5.2-0.1-7.7-0.1c-12.5,0-25.1,0-37.6,0c-2.6,0-5.3-0.1-7.8-0.7c-0.5-0.1-1-0.2-1.4-0.4c-3.9-1.3-5.6-3.5-5.9-7.6
		c-0.3-4.2,0.3-8.2,1.3-12.2c6.6-25.7,13.1-51.4,19.7-77.2c0.9-3.6,1.7-7.1,2.8-10.6c0.6-2,1.4-3.9,2.3-5.8c1.4-2.9,3.8-4.6,6.9-5.5
		c2.9-0.8,6-1.1,9-1.1c12.9,0,25.8,0,38.7,0c3,0,5.9,0.4,8.8,1.4c0.4,0.2,0.8,0.3,1.2,0.5c5,2.1,7.5,5.9,7.5,11.4
		c0,2.9-0.6,5.6-1.2,8.4c-1.1,5.3-2.2,10.6-3.4,15.8c-0.1,0.4-0.2,0.8-0.3,1.2c-9.6,0-19.2,0-28.9,0c1.2-4.8,2.4-9.6,3.6-14.4
		c-0.5-0.1-0.8-0.2-1.2-0.2c-4.8,0-9.6,0-14.4,0c-1.2,0-1.2,0-1.5,1.3c-2.8,11.1-5.5,22.1-8.3,33.2c-3,12.2-6.1,24.4-9.1,36.6
		C1065.2,234.1,1065.1,234.7,1064.9,235.5z"/>
	<path class="st0" d="M443.8,177.1c-9.7,0-19.2,0-28.9,0c1.2-4.9,2.4-9.6,3.6-14.6c-0.6-0.1-1.2-0.1-1.7-0.1c-4.5,0-9,0-13.5,0
		c-1.7,0-1.7,0-2.1,1.6c-3.1,12.4-6.2,24.9-9.3,37.3c-2.6,10.7-5.3,21.3-7.9,32c-0.2,0.7-0.3,1.3-0.5,2.1c5.5,0,10.7,0,16.1,0
		c1-3.7,2-7.3,3.1-11.2c-3.3,0-6.4,0-9.7,0c2.3-8.5,4.6-16.8,6.8-25.2c12.6,0,25.2,0,37.8,0c-0.1,0.5-0.1,0.9-0.2,1.3
		c-3.6,14.5-7.2,29-11,43.5c-0.6,2.5-1.6,5-2.7,7.4c-2.4,5.5-6.9,7.9-12.7,8.2c-2.5,0.1-5-0.1-7.4-0.1c-12.5,0-25.1,0-37.6,0
		c-2.7,0-5.5-0.1-8.1-0.8c-0.7-0.2-1.3-0.4-2-0.6c-3.2-1.1-4.9-3.4-5.2-6.9c-0.3-4.1,0.1-8,1.1-11.9c3.2-12.5,6.3-25,9.5-37.4
		c4.2-16.5,8.4-32.9,12.6-49.4c0.5-1.9,1.1-3.7,1.8-5.5c1.8-4.9,5.5-7.5,10.6-8.1c2.5-0.3,4.9-0.5,7.4-0.5c12.2-0.1,24.5,0,36.7,0
		c3,0,6.1,0.2,8.9,1.2c6.9,2.3,10.1,6.4,9.2,14.4c-0.4,4-1.5,8-2.3,12c-0.7,3.3-1.4,6.5-2.1,9.7C444,176.1,443.9,176.6,443.8,177.1z
		"/>
	<path class="st0" d="M119.6,177.1c-9.6,0-19.1,0-28.9,0c1.2-4.9,2.4-9.6,3.6-14.6c-0.6-0.1-1.1-0.1-1.5-0.1c-4.7,0-9.3,0-14,0
		c-1.4,0-1.4,0-1.7,1.4c-5.8,23.4-11.6,46.7-17.4,70.1c-0.1,0.5-0.2,1-0.3,1.6c5.4,0,10.7,0,16.1,0c1-3.6,2-7.3,3.1-11.2
		c-3.3,0-6.4,0-9.7,0c2.3-8.6,4.6-16.9,6.9-25.3c12.6,0,25.1,0,37.7,0c0,0.4,0,0.7-0.1,1c-3.7,14.6-7.3,29.2-11,43.8
		c-0.6,2.5-1.6,5-2.7,7.4c-2.4,5.5-6.9,8-12.7,8.3c-2.6,0.1-5.3-0.1-7.9-0.1c-12.5,0-25,0-37.5,0c-3,0-6-0.1-8.8-1
		c-0.8-0.3-1.6-0.6-2.3-0.9c-2.1-1.1-3.3-2.7-3.7-5.1c-0.5-3.2-0.5-6.4,0.2-9.5c1.2-5.3,2.5-10.6,3.8-15.9
		c6.3-24.7,12.6-49.4,18.9-74.1c0.5-2.1,1.3-4.2,2-6.2c1.8-4.8,5.5-7.3,10.5-7.8c2.5-0.3,5-0.5,7.6-0.5c12.1-0.1,24.3,0,36.4,0
		c3.3,0,6.5,0.3,9.7,1.4c1.1,0.4,2.2,0.9,3.2,1.5c3.6,2,5.2,5.1,5.5,9.1c0.2,3.1-0.3,6-0.9,9c-1.2,5.5-2.4,11-3.6,16.6
		C119.8,176.3,119.7,176.7,119.6,177.1z"/>
	<path class="st0" d="M502.6,210.9c-9.4,0-18.6,0-27.9,0c-2.2,8.1-4.3,16.2-6.5,24.5c4.9,0,9.5,0,14.2,0c4.6,0,9.3,0,14.2,0
		c-2,8.2-3.9,16.1-5.9,24.1c-19.5,0-38.9,0-58.3,0c-0.1-1,30.1-119.7,30.9-121.6c19.4,0,38.9,0,58.6,0c-2.3,8.1-4.5,16-6.8,24.1
		c-9.3,0-18.5,0-28,0c-2,8.2-4,16.2-6,24.5c9.3,0,18.3,0,27.6,0C506.6,194.7,504.7,202.7,502.6,210.9z"/>
	<path class="st0" d="M619.2,162.1c-0.8,0-1.4,0-2,0c-7.7,0-15.5,0-23.2,0c-0.3,0-0.7,0-1,0c-1.2,0-1.2,0-1.5,1.2
		c-0.6,2.3-1.2,4.7-1.9,7c-1.3,5-2.6,10-3.9,14.9c-0.1,0.4-0.2,0.9-0.3,1.5c1.9,0.1,3.8,0.1,5.6,0.1c1.8,0,3.7,0,5.5,0
		c1.9,0,3.8,0,5.7,0c1.8,0,3.7,0,5.5,0c1.9,0,3.7,0,5.8,0c-2.2,8.2-4.3,16.2-6.5,24.3c-9.4,0-18.7,0-28.2,0
		c-4.1,16.2-8.1,32.3-12.2,48.4c-10.1,0-20,0-30.1,0c10.3-40.5,20.6-80.8,31-121.2c19.6,0,39.2,0,58.9,0
		C623.9,146.3,621.6,154.1,619.2,162.1z"/>
	<path class="st0" d="M666,137.8c-8.3,32.5-16.6,64.9-25,97.5c9.2,0,18.2,0,27.4,0c-2,8.2-4,16.1-6,24.1c-19.3,0-38.6,0-58,0
		c10.2-40.6,20.3-81,30.5-121.5C645.2,137.8,655.5,137.8,666,137.8z"/>
	<path class="st0" d="M941.2,259.6c-10,0-19.8,0-29.7,0c-0.1-0.1-0.1-0.1-0.1-0.1c0,0,0-0.1,0-0.1c0-0.2,0.1-0.5,0.1-0.7
		c10-40,20-79.9,30-119.9c0-0.2,0.1-0.4,0.2-0.6c10,0,20,0,30.2,0C961.6,178.7,951.4,219.1,941.2,259.6z"/>
</g>
</svg>
