<?xml version="1.0" encoding="utf-8"?>
<!-- Generator: Adobe Illustrator 19.2.1, SVG Export Plug-In . SVG Version: 6.00 Build 0)  -->
<svg version="1.1" id="Layer_1" xmlns="http://www.w3.org/2000/svg" xmlns:xlink="http://www.w3.org/1999/xlink" x="0px" y="0px"
	 viewBox="0 0 111 103.1" style="enable-background:new 0 0 111 103.1;" xml:space="preserve">
<style type="text/css">
	.st0{fill:#FFFFFF;}
</style>
<path class="st0" d="M24.7,60.1L24.7,60.1c0.3,0,0.5-0.3,0.5-0.3l9.6-26.2c1-2.5,2.3-4.3,3.8-5.3c1.5-1,3.8-1.5,6.3-1.5h47.4
	c0.3,0,0.5-0.3,0.5-0.5l0.5-3.8c1.3-9.8,1.3-16.4,1.3-16.4c0-0.3-0.3-0.5-0.5-0.5c-5.3-1-11.1-1.5-16.6-1.5c-31,0-55.7,14.6-56,14.9
	c-0.3,0-0.3,0.3-0.3,0.5c-1.5,14.6-0.5,28.3,3.3,40.4C24.2,59.9,24.4,60.1,24.7,60.1"/>
<path class="st0" d="M91,34.4c0,0-0.3-0.3-0.5-0.3H49.7c-0.5,0-1,0.3-1.3,0.8c0,0.3,0,0-0.8,2l-2,5.5c-0.8,2.3-1.8,4.5-2.5,7.1
	c-1,2.5-1.8,4.8-2.5,7.1c-0.8,2.3-1.8,4.8-2.8,7.6c0,0,0,0,0,0.3s0.3,0.8,0.5,0.8c0.3,0,0.3,0,0.3,0h13.1c0.3,0,0.8,0,1.3-0.8
	c0.3-0.5,0.5-1.3,0.8-2c0.3-0.8,0.5-1.3,0.8-1.8l1.5-4.3c0-0.3,0-0.3,0-0.5s-0.3-0.3-0.5-0.3h-5.8c0.8-2,2-3.5,3.3-4.3
	c1.5-1,3.5-1.5,6.1-1.5h13.4l-5.3,14.6c-0.8,2.5-2,4-3.8,5c-1.5,1-3.8,1.5-6.3,1.5H11.8c-0.3,0-0.5,0.3-0.5,0.5
	c0,0.3,0.3,0.5,0.5,0.5l18.9,4c9.1,16.1,20.9,22.7,20.9,23h0.3h0.3c24.5-13.4,34.3-42.1,38.6-64.3C91.3,34.7,91.3,34.4,91,34.4"/>
</svg>
