<?xml version="1.0" encoding="utf-8"?>
<svg version="1.1" id="Layer_1" xmlns="http://www.w3.org/2000/svg" xmlns:xlink="http://www.w3.org/1999/xlink" x="0px" y="0px"
	 viewBox="0 0 229.3 43.3" style="enable-background:new 0 0 229.3 43.3;" xml:space="preserve" preserveAspectRatio="xMinYMin">
<style type="text/css"> .st0{fill:#FFFFFF;} </style>
	<polygon class="st0" points="149.8,29.5 155.8,29.5 161.8,11.9 155.8,11.9 	"/>
	<polygon class="st0" points="50.3,11.9 47.8,19.2 42.1,19.2 44.7,11.9 38.7,11.9 32.6,29.5 38.6,29.5 41,22.4 46.7,22.4 44.3,29.5 
		50.3,29.5 56.3,11.9 	"/>
	<path class="st0" d="M73.3,11.9H61.6c-1.6,0-3.4,1.3-4,3l-4,11.7c-0.6,1.6,0.3,3,2,3h11.7c1.6,0,3.4-1.3,4-3l4-11.7
		C75.8,13.2,75,11.9,73.3,11.9z M65.6,25.6c-0.2,0.5-0.8,1-1.3,1h-3.7c-0.5,0-0.8-0.4-0.6-1l3.4-9.8c0.2-0.5,0.8-1,1.3-1h3.7
		c0.5,0,0.8,0.4,0.6,1L65.6,25.6z"/>
	<path class="st0" d="M8.4,24.8L8.4,24.8c0.1,0,0.2-0.1,0.2-0.1l3.8-10.3c0.4-1,0.9-1.7,1.5-2.1c0.6-0.4,1.5-0.6,2.5-0.6h18.7
		c0.1,0,0.2-0.1,0.2-0.2l0.2-1.5C36,6.1,36,3.6,36,3.6c0-0.1-0.1-0.2-0.2-0.2c-2.1-0.4-4.4-0.6-6.6-0.6C17,2.8,7.1,8.6,7,8.6
		c-0.1,0-0.1,0.1-0.1,0.2C6.3,14.6,6.7,20,8.2,24.7C8.2,24.7,8.3,24.8,8.4,24.8"/>
	<path class="st0" d="M165.7,26.7"/>
	<path class="st0" d="M166.9,22.3h9.6l1.1-3.1H162l-2.6,7.6c-0.1,0.3-0.2,0.6-0.2,0.9c0,0.7,0.2,1.2,0.7,1.5s1,0.4,1.6,0.4h11.5
		c1.1,0,1.9-0.2,2.6-0.6c0.7-0.4,1.3-1.5,1.6-2.5h-11.8L166.9,22.3z"/>
	<path class="st0" d="M183.7,15l-5,14.5l12.3,0c1.1,0,1.9-0.2,2.6-0.6c0.7-0.4,1.2-1.4,1.5-2.5l-9.4,0l5-14.5l-23.1,0
		c-1.1,0-2,0.3-2.7,0.7c-0.7,0.4-1.2,1.3-1.5,2.4L183.7,15z"/>
	<path class="st0" d="M216.7,11.9c1.6,0,2.5,1.3,2,3l-4,11.7c-0.6,1.6-2.4,3-4,3h-14.7c0,0,2.7-7.7,4.5-12.9h6l-3.4,10h4.7
		c0.5,0,1.1-0.4,1.3-1l3.4-9.8c0.2-0.5-0.1-1-0.6-1h-13.9c0.6-1.6,2.4-2.9,4-2.9L216.7,11.9z"/>
	<path class="st0" d="M19.2,26.7c0.1,0,0.3,0,0.5-0.3l1.2-3.2c0-0.1,0-0.1,0-0.1c0-0.1-0.1-0.2-0.2-0.2h0h-2.3
		c0.3-0.8,0.8-1.4,1.3-1.7c0.6-0.4,1.4-0.6,2.4-0.6h5.3l-2,5.8c-0.3,1-0.9,1.6-1.6,2c-0.6,0.4-1.5,0.6-2.5,0.6H3.5
		c-0.1,0-0.2,0.1-0.2,0.2c0,0.1,0.1,0.2,0.2,0.2L11,31c3.6,6.4,8.3,9.1,8.3,9.1l0.1,0l0.1,0c9.6-5.3,13.5-16.6,15.2-25.4
		c0-0.1,0-0.2-0.2-0.2c0,0,0,0-0.1,0h-16c-0.2,0-0.4,0.1-0.5,0.3l-4.2,11.5c0,0-0.1,0.2,0,0.3c0,0.1,0.1,0.1,0.2,0.1H19.2z"/>
	<g>
		<path class="st0" d="M225.5,13.2c0,0.4-0.1,0.7-0.2,1c-0.1,0.3-0.3,0.6-0.6,0.8c-0.2,0.2-0.5,0.4-0.8,0.6c-0.3,0.1-0.6,0.2-1,0.2
			c-0.4,0-0.7-0.1-1-0.2c-0.3-0.1-0.6-0.3-0.8-0.6c-0.2-0.2-0.4-0.5-0.6-0.8c-0.1-0.3-0.2-0.6-0.2-1s0.1-0.7,0.2-1
			c0.1-0.3,0.3-0.6,0.6-0.8c0.2-0.2,0.5-0.4,0.8-0.6c0.3-0.1,0.6-0.2,1-0.2c0.4,0,0.7,0.1,1,0.2c0.3,0.1,0.6,0.3,0.8,0.6
			c0.2,0.2,0.4,0.5,0.6,0.8C225.5,12.5,225.5,12.8,225.5,13.2z M221.3,14.4l0.7-2c0,0,0,0,0,0h-0.6c0.1-0.2,0.1-0.3,0.2-0.3
			c0.1-0.1,0.2-0.1,0.4-0.1h2.3c0.1,0,0.1,0,0.1,0c0,0,0.1,0,0.1,0.1c0,0,0.1,0.1,0.1,0.1c0,0,0,0.1,0,0.1c0,0,0,0.1,0,0.1l-0.2,0.5
			c0,0.1-0.1,0.2-0.2,0.3c-0.1,0.1-0.2,0.1-0.3,0.1c0.1,0,0.1,0.1,0.2,0.1c0.1,0.1,0.1,0.1,0.1,0.2c0,0,0,0.1,0,0.1l-0.3,0.9l-0.9,0
			l0.3-1c0,0,0,0,0,0h-0.8c0,0,0,0,0,0l-0.3,1l-0.8,0l0.1,0.1c0.2,0.2,0.4,0.3,0.7,0.4c0.3,0.1,0.5,0.2,0.8,0.2
			c0.3,0,0.6-0.1,0.8-0.2c0.3-0.1,0.5-0.3,0.7-0.4c0.2-0.2,0.3-0.4,0.5-0.7c0.1-0.3,0.2-0.5,0.2-0.8c0-0.3-0.1-0.5-0.2-0.8
			c-0.1-0.3-0.3-0.5-0.5-0.7c-0.2-0.2-0.4-0.3-0.7-0.5c-0.3-0.1-0.5-0.2-0.8-0.2c-0.3,0-0.6,0.1-0.8,0.2c-0.3,0.1-0.5,0.3-0.7,0.4
			c-0.2,0.2-0.3,0.4-0.4,0.7c-0.1,0.3-0.2,0.5-0.2,0.8c0,0.3,0.1,0.6,0.2,0.8C221.1,14.2,221.2,14.3,221.3,14.4L221.3,14.4z
			 M223.6,12.4h-0.7c0,0,0,0,0,0l-0.2,0.6h0.8c0.1,0,0.1,0,0.1-0.1L223.6,12.4C223.7,12.4,223.7,12.4,223.6,12.4z"/>
	</g>
	<path class="st0" d="M147,11.9l-2.5,7.3h-5.7l2.5-7.3l-23.4,0c-1.6,0-3.4,1.3-4,3l-1.5,4.3c-0.6,1.6,0.3,3,2,3l7.7,0
		c0.5,0,0.8,0.4,0.6,1l-0.9,2.5c-0.2,0.5-0.8,1-1.3,1l-10.7,0l0,0h0c-0.1,0.3-0.1,0.6-0.1,0.9c0,0.7,0.2,1.3,0.7,1.6
		c0.5,0.3,1,0.4,1.7,0.4l0,0l0,0h11.4c1.6,0,3.4-1.3,4-3l1.5-4.3c0.6-1.6-0.3-3-2-3l-7.7,0c-0.5,0-0.8-0.4-0.6-1l0.8-2.5
		c0.2-0.5,0.8-1,1.3-1l13.4,0l-5.1,14.7h6l2.5-7.2h5.7l-2.5,7.2h6l6.1-17.6H147z"/>
	<path class="st0" d="M81.3,11.9c-1.6,0-3.4,1.3-4,3l-1.5,4.3c-0.6,1.6,0.3,3,2,3l7.7,0c0.5,0,0.8,0.4,0.6,1l-0.9,2.5
		c-0.2,0.5-0.8,1-1.3,1l-10.7,0l0,0h0c-0.1,0.3-0.1,0.6-0.1,0.9c0,0.7,0.2,1.3,0.7,1.6c0.5,0.3,1,0.4,1.7,0.4h11.4
		c1.6,0,3.4-1.3,4-3l1.5-4.3c0.6-1.6-0.3-3-2-3l-7.7,0c-0.5,0-0.8-0.4-0.6-1l0.8-2.5c0.2-0.5,0.8-1,1.3-1l16.2,0l-5.1,14.7h6
		l5.1-14.7h4.7c2.4,0,3.1-2.9,3.1-2.9L81.3,11.9z"/>
</svg>
