<?xml version="1.0" encoding="utf-8"?>
<!-- Generator: Adobe Illustrator 20.1.0, SVG Export Plug-In . SVG Version: 6.00 Build 0)  -->
<svg version="1.1" id="Layer_1" xmlns="http://www.w3.org/2000/svg" xmlns:xlink="http://www.w3.org/1999/xlink" x="0px" y="0px"
	 viewBox="0 0 170.8 30.3" style="enable-background:new 0 0 170.8 30.3;" xml:space="preserve">
<style type="text/css">
	.st0{fill:#FC6A21;}
</style>
<polygon class="st0" points="112.3,21.6 116.8,21.6 121.4,8.2 116.9,8.2 "/>
<polygon class="st0" points="37,8.2 35.1,13.8 30.8,13.8 32.7,8.2 28.2,8.2 23.6,21.6 28.1,21.6 30,16.2 34.3,16.2 32.4,21.6 
	36.9,21.6 41.5,8.2 "/>
<path class="st0" d="M54.4,8.2h-8.8c-1.2,0-2.6,1-3,2.3l-3,8.8c-0.4,1.2,0.2,2.3,1.5,2.3h8.8c1.2,0,2.6-1,3-2.3l3-8.8
	C56.3,9.3,55.6,8.2,54.4,8.2z M48.5,18.6c-0.1,0.4-0.6,0.7-1,0.7h-2.8c-0.4,0-0.6-0.3-0.5-0.7l2.6-7.4c0.1-0.4,0.6-0.7,1-0.7h2.8
	c0.4,0,0.6,0.3,0.5,0.7L48.5,18.6z"/>
<path class="st0" d="M5.2,18.1L5.2,18.1c0.1,0,0.2-0.1,0.2-0.1l2.9-7.8c0.3-0.8,0.7-1.3,1.1-1.6c0.5-0.3,1.1-0.5,1.9-0.5h14.2
	c0.1,0,0.2-0.1,0.2-0.2l0.2-1.1c0.4-2.9,0.4-4.9,0.4-4.9c0-0.1-0.1-0.1-0.2-0.2c-1.6-0.3-3.3-0.5-5-0.5c-9.3,0-16.7,4.4-16.8,4.4
	c-0.1,0-0.1,0.1-0.1,0.2c-0.5,4.4-0.2,8.4,1,12C5.1,18,5.2,18.1,5.2,18.1"/>
<path class="st0" d="M124.3,19.4"/>
<path class="st0" d="M125.2,16.1h7.3l0.8-2.4h-11.8l-2,5.8c-0.1,0.2-0.1,0.5-0.1,0.7c0,0.5,0.2,0.9,0.5,1.1c0.4,0.2,0.8,0.3,1.2,0.3
	h8.7c0.8,0,1.4-0.2,2-0.5c0.5-0.3,1-1.1,1.2-1.9h-8.9L125.2,16.1z"/>
<path class="st0" d="M138,10.6l-3.8,11l9.3,0c0.8,0,1.4-0.2,2-0.5c0.5-0.3,0.9-1.1,1.1-1.9l-7.1,0l3.8-11l-17.5,0
	c-0.8,0-1.5,0.2-2,0.5c-0.5,0.3-0.9,1-1.2,1.8L138,10.6z"/>
<path class="st0" d="M162.9,8.2c1.2,0,1.9,1,1.5,2.3l-3,8.8c-0.4,1.2-1.8,2.3-3,2.3h-11.1c0,0,2-5.8,3.4-9.8h4.5l-2.6,7.6h3.5
	c0.4,0,0.9-0.3,1-0.7l2.6-7.5c0.1-0.4-0.1-0.7-0.5-0.7h-10.5c0.4-1.2,1.8-2.2,3-2.2L162.9,8.2z"/>
<path class="st0" d="M13.4,19.5c0.1,0,0.2,0,0.4-0.2l0.9-2.4c0-0.1,0-0.1,0-0.1c0-0.1-0.1-0.1-0.1-0.1h0h-1.7c0.2-0.6,0.6-1.1,1-1.3
	c0.5-0.3,1.1-0.5,1.8-0.5h4l-1.5,4.4c-0.2,0.8-0.7,1.2-1.2,1.5c-0.5,0.3-1.1,0.5-1.9,0.5H1.6c-0.1,0-0.2,0.1-0.2,0.2
	c0,0.1,0.1,0.2,0.2,0.2l5.6,1.2c2.7,4.8,6.3,6.9,6.3,6.9l0.1,0l0.1,0c7.3-4,10.2-12.6,11.5-19.2c0-0.1,0-0.1-0.1-0.1c0,0,0,0-0.1,0
	H12.8c-0.2,0-0.3,0.1-0.4,0.2l-3.2,8.7c0,0-0.1,0.1,0,0.2c0,0.1,0.1,0.1,0.2,0.1H13.4z"/>
<g>
	<path class="st0" d="M169.6,9.2c0,0.3-0.1,0.5-0.2,0.8c-0.1,0.2-0.2,0.4-0.4,0.6c-0.2,0.2-0.4,0.3-0.6,0.4
		c-0.2,0.1-0.5,0.2-0.8,0.2c-0.3,0-0.5-0.1-0.8-0.2c-0.2-0.1-0.4-0.2-0.6-0.4c-0.2-0.2-0.3-0.4-0.4-0.6c-0.1-0.2-0.2-0.5-0.2-0.8
		s0-0.5,0.2-0.8c0.1-0.2,0.2-0.4,0.4-0.6c0.2-0.2,0.4-0.3,0.6-0.4c0.2-0.1,0.5-0.2,0.8-0.2c0.3,0,0.5,0.1,0.8,0.2
		c0.2,0.1,0.4,0.2,0.6,0.4c0.2,0.2,0.3,0.4,0.4,0.6C169.6,8.7,169.6,9,169.6,9.2z M166.4,10.2l0.5-1.5c0,0,0,0,0,0h-0.4
		c0-0.1,0.1-0.2,0.2-0.2c0.1,0,0.2-0.1,0.3-0.1h1.7c0,0,0.1,0,0.1,0c0,0,0.1,0,0.1,0c0,0,0,0,0.1,0.1c0,0,0,0.1,0,0.1
		c0,0,0,0.1,0,0.1L168.8,9c0,0.1-0.1,0.2-0.1,0.2c-0.1,0-0.1,0.1-0.2,0.1c0.1,0,0.1,0,0.1,0.1c0,0,0.1,0.1,0.1,0.1c0,0,0,0.1,0,0.1
		l-0.2,0.7l-0.7,0l0.2-0.8c0,0,0,0,0,0h-0.6c0,0,0,0,0,0l-0.2,0.8l-0.6,0l0.1,0.1c0.1,0.1,0.3,0.2,0.5,0.3c0.2,0.1,0.4,0.1,0.6,0.1
		c0.2,0,0.4,0,0.6-0.1c0.2-0.1,0.4-0.2,0.5-0.3c0.1-0.1,0.3-0.3,0.3-0.5c0.1-0.2,0.1-0.4,0.1-0.6c0-0.2,0-0.4-0.1-0.6
		c-0.1-0.2-0.2-0.4-0.3-0.5c-0.1-0.1-0.3-0.3-0.5-0.3c-0.2-0.1-0.4-0.1-0.6-0.1c-0.2,0-0.4,0-0.6,0.1c-0.2,0.1-0.4,0.2-0.5,0.3
		c-0.1,0.1-0.2,0.3-0.3,0.5c-0.1,0.2-0.1,0.4-0.1,0.6c0,0.2,0,0.4,0.1,0.6C166.3,10,166.3,10.1,166.4,10.2L166.4,10.2z M168.2,8.6
		h-0.5c0,0,0,0,0,0l-0.1,0.5h0.6c0,0,0.1,0,0.1,0L168.2,8.6C168.2,8.6,168.2,8.6,168.2,8.6z"/>
</g>
<path class="st0" d="M110.2,8.2l-1.9,5.6h-4.3l1.9-5.6l-17.7,0c-1.2,0-2.6,1-3,2.3L84,13.8C83.6,15,84.2,16,85.5,16l5.8,0
	c0.4,0,0.6,0.3,0.5,0.7l-0.6,1.9c-0.1,0.4-0.6,0.7-1,0.7l-8.1,0l0,0h0C82,19.6,82,19.9,82,20.1c0,0.6,0.2,0.9,0.6,1.2
	c0.4,0.2,0.8,0.3,1.3,0.3l0,0l0,0h8.6c1.2,0,2.6-1,3-2.3l1.1-3.3c0.4-1.2-0.2-2.3-1.5-2.3l-5.8,0c-0.4,0-0.6-0.3-0.5-0.7l0.6-1.9
	c0.1-0.4,0.6-0.7,1-0.7l10.1,0l-3.8,11.1h4.5l1.9-5.4h4.3l-1.9,5.4h4.5l4.6-13.4H110.2z"/>
<path class="st0" d="M60.4,8.2c-1.2,0-2.6,1-3,2.3l-1.1,3.3C55.8,15,56.5,16,57.7,16l5.8,0c0.4,0,0.6,0.3,0.5,0.7l-0.6,1.9
	c-0.1,0.4-0.6,0.7-1,0.7l-8.1,0l0,0h0c-0.1,0.2-0.1,0.5-0.1,0.7c0,0.6,0.2,0.9,0.6,1.2c0.4,0.2,0.8,0.3,1.3,0.3h8.6
	c1.2,0,2.6-1,3-2.3l1.1-3.3c0.4-1.2-0.2-2.3-1.5-2.3l-5.8,0c-0.4,0-0.6-0.3-0.5-0.7l0.6-1.9c0.1-0.4,0.6-0.7,1-0.7l12.2,0l-3.8,11.1
	h4.5l3.8-11.1H83c1.8,0,2.3-2.2,2.3-2.2L60.4,8.2z"/>
</svg>
