<?xml version="1.0" encoding="utf-8"?>
<!-- Generator: Adobe Illustrator 19.2.1, SVG Export Plug-In . SVG Version: 6.00 Build 0)  -->
<svg version="1.1" id="Layer_1" xmlns="http://www.w3.org/2000/svg" xmlns:xlink="http://www.w3.org/1999/xlink" x="0px" y="0px"
	 viewBox="0 0 196 49" style="enable-background:new 0 0 196 49;" xml:space="preserve" preserveAspectRatio="xMidYMid">
<style type="text/css">
	.st0{fill:#EE3224;}
	.st1{fill:#FFFFFF;}
</style>
<g>
	<polyline points="165.4,4 164.1,11.9 157.9,11.9 158.3,9.3 153.6,9.3 153,13 158.5,13 157.5,19.1 152,19.1 151.3,23.6 156.3,23.6 
		156.8,20.4 163.2,20.4 161.8,29.2 141.8,29.2 142.7,23.6 144.6,23.6 146.9,9.3 145,9.3 145.9,4 165.4,4 	"/>
	<polyline points="109.4,16.5 110.6,9.3 108.8,9.3 109.6,4 120.1,4 119.3,9.3 117.4,9.3 114.1,29.2 108.5,29.2 101.3,15.1 100,23.6 
		101.8,23.6 100.9,29.2 90.4,29.2 91.3,23.6 93.1,23.6 95.5,9.3 93.6,9.3 94.4,4 102.9,4 109.4,16.5 	"/>
	<path d="M77.2,29.2l0.9-5.6h-1.9L72.9,4H60.8L60,9.3h1.9l-7.3,14.3h-1.9l-0.9,5.6h10.6l0.9-5.6h-1.9l0.9-2.1h6.5l0.3,2.1h-1.9
		l-0.9,5.6L77.2,29.2 M65.2,16.2l2.6-5.9l0.5,5.9H65.2z"/>
	<path d="M46.6,19.1c1.3-0.3,2.3-1.1,3.4-1.9c2.3-2.1,3.6-5.2,2.7-8.3c-0.9-3-4-4.6-6.9-4.8H33.1l-0.9,5.3h1.9l-2.3,14.3h-1.9
		L29,29.2h10.2l0.9-5.6h-1.4l0.5-3.4l5,9h6.3l0.9-5.6h-2.4L46.6,19.1 M44.9,14.4c-1.2,1.1-3.1,0.7-4.8,0.8L41,9.6
		c1.9,0,4.5-0.5,5.2,1.6C46.3,12.4,45.9,13.6,44.9,14.4z"/>
	<polyline points="89.2,29.2 90.1,23.6 88.3,23.6 90.6,9.3 92.5,9.3 93.3,4 82.5,4 81.6,9.3 83.5,9.3 81.1,23.6 79.3,23.6 
		78.4,29.2 89.2,29.2 	"/>
	<path d="M25.3,5.4l-0.4-0.5c-0.5-0.4-1-0.7-1.5-0.9c-5.1-1.9-11-0.4-14.6,3.8c-3.2,3.8-4.5,9-3,14c1.2,3.9,5.3,6.8,9.1,7.4
		c2.8,0.1,5.8-0.2,8.1-2l-0.4,2.1h5.4L30.2,15H16.3l-0.8,5.1l6.6,0c-0.7,1.5-2.3,2.8-3.9,3.1c-2.1,0.3-4-0.5-5.2-2.3
		c-1.7-2.7-1.1-6.7,0.7-9.1c1.6-2,4.1-2.8,6.6-2.3c1.4,0.3,2.8,1.6,3.1,3h5.9L30.7,4h-5.2L25.3,5.4"/>
	<path d="M138.1,5.4l-0.4-0.5c-0.5-0.4-1-0.7-1.5-0.9c-5.1-1.9-11-0.4-14.6,3.8c-3.2,3.8-4.5,9.1-3,14c1.3,3.9,5.3,6.8,9.1,7.4
		c2.8,0.1,5.8-0.2,8.1-2l-0.4,2.1h5.4l2.3-14.2H129l-0.8,5.1l6.6,0c-0.7,1.5-2.3,2.8-3.9,3.1c-2.1,0.3-4-0.5-5.2-2.3
		c-1.7-2.7-1.1-6.7,0.7-9.2c1.6-2,4.1-2.8,6.7-2.3c1.4,0.3,2.8,1.6,3.1,3h5.9l1.4-8.6h-5.2L138.1,5.4"/>
	<path d="M180.4,19.1c1.3-0.3,2.3-1.1,3.4-1.9c2.3-2.1,3.6-5.2,2.7-8.3c-0.9-3-4-4.6-6.9-4.8H167l-0.9,5.3h1.9l-2.3,14.3h-1.9
		l-0.9,5.6h10.2l0.9-5.6h-1.4l0.5-3.4l5,9h6.3l0.9-5.6h-2.4L180.4,19.1 M178.8,14.4c-1.2,1.1-3.1,0.7-4.8,0.8l0.9-5.5
		c1.9,0,4.5-0.5,5.2,1.6C180.2,12.4,179.8,13.6,178.8,14.4z"/>
	<polyline class="st0" points="41.3,34.8 39.4,46.1 181.7,46.1 183.6,34.8 41.3,34.8 	"/>
	<polyline class="st0" points="15.2,34.8 12.6,34.8 10.8,46.1 13.4,46.1 15.2,34.8 	"/>
	<polyline class="st0" points="23.4,34.8 19.8,34.8 18,46.1 21.5,46.1 23.4,34.8 	"/>
	<polyline class="st0" points="7,34.8 5.5,34.8 3.7,46.1 5.2,46.1 7,34.8 	"/>
	<polyline class="st0" points="39.8,34.8 34.1,34.8 32.3,46.1 37.9,46.1 39.8,34.8 	"/>
	<polyline class="st0" points="31.6,34.8 27,34.8 25.1,46.1 29.7,46.1 31.6,34.8 	"/>
	<polyline class="st1" points="51.6,38 51.5,38.9 48.9,38.9 48.7,40 51.1,40 51,40.9 48.6,40.9 48.2,42.9 47,42.9 47.8,38 51.6,38 	
		"/>
	<path class="st1" d="M55.9,40.6c-0.2,1-0.9,1.5-1.5,1.5c-0.6,0-1.2-0.4-1-1.6c0.1-0.9,0.7-1.5,1.5-1.5c0.3,0,0.6,0.1,0.8,0.4
		C55.9,39.5,56,40.1,55.9,40.6 M55.9,42.5c0.6-0.4,1.2-1.2,1.3-2.1c0.1-0.3,0.2-2-1.2-2.5c-0.3-0.1-0.6-0.1-0.9-0.1
		c-1.6,0-2.7,1.3-2.9,2.6c-0.2,1.4,0.5,2.6,2,2.6C54.7,43.1,55.3,42.9,55.9,42.5z"/>
	<path class="st1" d="M60.9,38.9c0.3,0,0.7,0,0.6,0.7c-0.1,0.7-0.7,0.7-0.9,0.7h-1l0.2-1.3H60.9 M57.9,42.9h1.3l0.3-1.8h0.8l0.7,1.8
		h1.4l-0.8-2c0.4-0.1,1.1-0.4,1.3-1.4c0.1-0.4,0-0.8-0.2-1.1c-0.4-0.5-1-0.5-1.6-0.5h-2.2L57.9,42.9z"/>
	<polyline class="st1" points="65.9,38 69.8,38 69.6,39 68.3,39 67.6,42.9 66.4,42.9 67,39 65.7,39 65.9,38 	"/>
	<polyline class="st1" points="75,38 74.2,42.9 72.9,42.9 73.3,40.8 71.5,40.8 71.1,42.9 69.8,42.9 70.7,38 71.9,38 71.6,39.8 
		73.5,39.8 73.8,38 75,38 	"/>
	<polyline class="st1" points="76.6,38 80.3,38 80.2,39 77.7,39 77.6,39.8 79.8,39.8 79.7,40.8 77.4,40.8 77.2,42 79.7,42 
		79.5,42.9 75.8,42.9 76.6,38 	"/>
	<path class="st1" d="M87,40.6c-0.2,1-0.9,1.5-1.5,1.5c-0.6,0-1.2-0.4-1-1.6c0.1-0.9,0.7-1.5,1.5-1.5c0.3,0,0.6,0.1,0.8,0.4
		C87,39.5,87.1,40.1,87,40.6 M86.9,42.5c0.6-0.4,1.2-1.2,1.3-2.1c0.1-0.3,0.2-2-1.2-2.5c-0.3-0.1-0.6-0.1-0.9-0.1
		c-1.6,0-2.7,1.3-2.9,2.6c-0.2,1.4,0.5,2.6,2,2.6C85.8,43.1,86.4,42.9,86.9,42.5z"/>
	<path class="st1" d="M89.8,38H91l0.8,1.8c0.3,0.7,0.4,0.9,0.5,1.3l0.5-3.2H94l-0.8,4.9h-1.2l-0.7-1.6c-0.3-0.7-0.4-0.9-0.6-1.5
		l-0.5,3.1h-1.2L89.8,38"/>
	<polyline class="st1" points="95.6,38 99.3,38 99.1,39 96.7,39 96.5,39.8 98.8,39.8 98.7,40.8 96.4,40.8 96.2,42 98.6,42 
		98.5,42.9 94.8,42.9 95.6,38 	"/>
	<path class="st1" d="M100.8,41.4c0.1,0.1,0.2,0.3,0.4,0.4c0.3,0.2,0.6,0.2,0.9,0.2c0.5,0,1-0.2,1-0.6c0.1-0.4-0.4-0.5-0.8-0.5
		c-0.3,0-0.5-0.1-0.8-0.1c-0.3-0.1-1.3-0.3-1.1-1.3c0.2-1.3,1.4-1.6,2.3-1.6c1.2,0,1.7,0.6,2.1,0.9l-1,0.6c-0.1-0.2-0.3-0.3-0.4-0.4
		c-0.2-0.1-0.5-0.2-0.8-0.2c-0.5,0-0.8,0.3-0.8,0.5c-0.1,0.4,0.4,0.4,0.6,0.5c0.5,0.1,1.2,0.2,1.5,0.3c0.5,0.2,0.8,0.6,0.7,1.2
		c-0.1,0.4-0.3,0.7-0.6,1c-0.5,0.5-1.3,0.7-2,0.7c-1.4,0-1.9-0.6-2.1-1L100.8,41.4"/>
	<path class="st1" d="M111.8,38c0.1,0.5,0.1,1.1,0.2,1.6c0.1,0.9,0.1,1.1,0.1,2.1c0.3-1,0.4-1.1,0.8-2.1c0.2-0.5,0.4-1,0.6-1.5h1.2
		l-2.1,4.9h-1.3c-0.1-0.5-0.1-1.1-0.2-1.6c-0.1-0.9-0.1-0.9-0.2-1.6c-0.2,0.6-0.3,0.7-0.7,1.6l-0.8,1.7h-1.3l-0.4-4.9h1.2
		c0.1,2.3,0.2,2.6,0.1,3.7c0.3-1,0.4-1.2,0.9-2.1l0.7-1.5H111.8"/>
	<polyline class="st1" points="119.9,38 119.1,42.9 117.8,42.9 118.2,40.8 116.4,40.8 116,42.9 114.8,42.9 115.6,38 116.8,38 
		116.5,39.8 118.4,39.8 118.7,38 119.9,38 	"/>
	<path class="st1" d="M124.5,40.6c-0.2,1-0.9,1.5-1.5,1.5c-0.6,0-1.2-0.4-1-1.6c0.2-0.9,0.7-1.5,1.5-1.5c0.3,0,0.6,0.1,0.8,0.4
		C124.6,39.5,124.6,40.1,124.5,40.6 M124.5,42.5c0.6-0.4,1.2-1.2,1.3-2.1c0.1-0.3,0.2-2-1.2-2.5c-0.3-0.1-0.6-0.1-0.9-0.1
		c-1.6,0-2.7,1.3-2.9,2.6c-0.2,1.4,0.5,2.6,2,2.6C123.4,43.1,123.9,42.9,124.5,42.5z"/>
	<path class="st1" d="M132.4,42.5c-0.2,0.2-0.7,0.6-1.6,0.6c-1.4,0-2.1-1.1-1.8-2.6c0.3-1.6,1.5-2.6,2.9-2.6c1.3,0,1.8,0.8,2,1.1
		l-1,0.6c-0.1-0.3-0.3-0.7-1-0.7c-0.9,0-1.4,0.8-1.6,1.6c-0.1,0.6,0,1,0.2,1.3c0.2,0.2,0.5,0.4,0.9,0.4c0.2,0,0.5-0.1,0.7-0.2
		c0.4-0.2,0.4-0.5,0.5-0.7h-1.1l0.2-0.9h2.2l-0.5,2.7h-1L132.4,42.5"/>
	<polyline class="st1" points="135.6,38 139.3,38 139.1,39 136.7,39 136.5,39.8 138.8,39.8 138.6,40.8 136.4,40.8 136.2,42 
		138.6,42 138.5,42.9 134.8,42.9 135.6,38 	"/>
	<polyline class="st1" points="140.1,38 143.9,38 143.8,39 142.5,39 141.8,42.9 140.6,42.9 141.2,39 139.9,39 140.1,38 	"/>
	<polyline class="st1" points="148.3,38 147.5,42.9 146.3,42.9 147.1,38 148.3,38 	"/>
	<polyline class="st1" points="149.2,38 153.1,38 152.9,39 151.6,39 151,42.9 149.7,42.9 150.4,39 149.1,39 149.2,38 	"/>
	<path class="st1" d="M157.9,39c0.4,0,0.9,0,1.1,0.4c0.2,0.3,0.2,0.6,0.1,1c-0.2,1.4-1.2,1.5-1.8,1.5h-0.4l0.5-2.9H157.9
		 M155.4,42.9h2c0.5,0,1.9,0,2.6-1.6c0.1-0.2,0.2-0.5,0.3-0.9c0.1-0.7,0-1.4-0.4-1.8c-0.5-0.6-1.5-0.6-2.1-0.6h-1.6L155.4,42.9z"/>
	<path class="st1" d="M165.1,40.6c-0.2,1-0.9,1.5-1.5,1.5c-0.6,0-1.2-0.4-1-1.6c0.2-0.9,0.7-1.5,1.5-1.5c0.3,0,0.6,0.1,0.8,0.4
		C165.1,39.5,165.2,40.1,165.1,40.6 M165,42.5c0.6-0.4,1.2-1.2,1.3-2.1c0.1-0.3,0.2-2-1.2-2.5c-0.3-0.1-0.6-0.1-0.9-0.1
		c-1.6,0-2.7,1.3-2.9,2.6c-0.2,1.4,0.5,2.6,2,2.6C163.9,43.1,164.5,42.9,165,42.5z"/>
	<path class="st1" d="M167.9,38h1.2l0.8,1.8c0.3,0.7,0.4,0.9,0.5,1.3l0.5-3.2h1.2l-0.8,4.9H170l-0.7-1.6c-0.3-0.7-0.4-0.9-0.6-1.5
		l-0.5,3.1h-1.2L167.9,38"/>
	<polyline class="st1" points="173.7,38 177.4,38 177.2,39 174.8,39 174.6,39.8 176.9,39.8 176.8,40.8 174.5,40.8 174.3,42 
		176.8,42 176.6,42.9 172.9,42.9 173.7,38 	"/>
	<path d="M192.1,26.5c0,1.4-1.1,2.4-2.5,2.4c-1.3,0-2.4-1.1-2.4-2.4c0-1.3,1.1-2.4,2.5-2.4C191,24,192.1,25.1,192.1,26.5
		 M188.5,24.8v3.4h0.5v-1.6h0.2c0.5,0,0.8,0.1,0.9,0.6c0,0.1,0.1,0.5,0.1,0.5c0,0.2,0.1,0.3,0.1,0.5h0.6c-0.2-0.3-0.2-0.5-0.2-1
		c-0.1-0.4-0.2-0.6-0.5-0.7c0.4-0.1,0.8-0.3,0.8-0.8c0-0.3-0.2-0.6-0.5-0.8c-0.2-0.1-0.4-0.1-0.8-0.1H188.5z M189,25.2h0.5
		c0.4,0,0.6,0,0.7,0.1c0.1,0.1,0.2,0.2,0.2,0.4c0,0.5-0.6,0.5-0.8,0.5H189V25.2z M192.3,26.5c0-1.5-1.1-2.7-2.7-2.7
		c-1.5,0-2.7,1.1-2.7,2.7c0,1.6,1.3,2.7,2.7,2.7C191.1,29.2,192.3,28,192.3,26.5z"/>
</g>
</svg>
