<?xml version="1.0" encoding="utf-8"?>
<!-- Generator: Adobe Illustrator 19.2.1, SVG Export Plug-In . SVG Version: 6.00 Build 0)  -->
<svg version="1.1" id="Layer_1" xmlns="http://www.w3.org/2000/svg" xmlns:xlink="http://www.w3.org/1999/xlink" x="0px" y="0px"
	 viewBox="0 0 196 49" style="enable-background:new 0 0 196 49;" xml:space="preserve">
<style type="text/css">
	.st0{fill:#FFFFFF;}
</style>
<g>
	<polyline class="st0" points="165.4,4 164.1,11.9 157.9,11.9 158.3,9.3 153.6,9.3 153,13 158.5,13 157.5,19.1 152,19.1 151.3,23.6 
		156.3,23.6 156.8,20.4 163.2,20.4 161.8,29.2 141.8,29.2 142.7,23.6 144.6,23.6 146.9,9.3 145,9.3 145.9,4 165.4,4 	"/>
	<polyline class="st0" points="109.4,16.5 110.6,9.3 108.8,9.3 109.6,4 120.1,4 119.3,9.3 117.4,9.3 114.1,29.2 108.5,29.2 
		101.3,15.1 100,23.6 101.8,23.6 100.9,29.2 90.4,29.2 91.3,23.6 93.1,23.6 95.5,9.3 93.6,9.3 94.4,4 102.9,4 109.4,16.5 	"/>
	<path class="st0" d="M77.2,29.2l0.9-5.6h-1.9L72.9,4H60.8L60,9.3h1.9l-7.3,14.3h-1.9l-0.9,5.6h10.6l0.9-5.6h-1.9l0.9-2.1h6.5
		l0.3,2.1h-1.9l-0.9,5.6H77.2 M65.2,16.2l2.6-5.9l0.5,5.9H65.2z"/>
	<path class="st0" d="M46.6,19.1c1.3-0.3,2.3-1.1,3.4-1.9c2.3-2.1,3.6-5.2,2.7-8.3c-0.9-3-4-4.6-6.9-4.8H33.1l-0.9,5.3h1.9
		l-2.3,14.3h-1.9L29,29.2h10.2l0.9-5.6h-1.4l0.5-3.4l5,9h6.3l0.9-5.6H49L46.6,19.1 M44.9,14.4c-1.2,1.1-3.1,0.7-4.8,0.8L41,9.6
		c1.9,0,4.5-0.5,5.2,1.6C46.3,12.4,45.9,13.6,44.9,14.4z"/>
	<polyline class="st0" points="89.2,29.2 90.1,23.6 88.3,23.6 90.6,9.3 92.5,9.3 93.3,4 82.5,4 81.6,9.3 83.5,9.3 81.1,23.6 
		79.3,23.6 78.4,29.2 89.2,29.2 	"/>
	<path class="st0" d="M25.3,5.4l-0.4-0.5c-0.5-0.4-1-0.7-1.5-0.9c-5.1-1.9-11-0.4-14.6,3.8c-3.2,3.8-4.5,9-3,14
		c1.2,3.9,5.3,6.8,9.1,7.4c2.8,0.1,5.8-0.2,8.1-2l-0.4,2.1H28L30.2,15H16.3l-0.8,5.1h6.6c-0.7,1.5-2.3,2.8-3.9,3.1
		c-2.1,0.3-4-0.5-5.2-2.3c-1.7-2.7-1.1-6.7,0.7-9.1c1.6-2,4.1-2.8,6.6-2.3c1.4,0.3,2.8,1.6,3.1,3h5.9L30.7,4h-5.2L25.3,5.4"/>
	<path class="st0" d="M138.1,5.4l-0.4-0.5c-0.5-0.4-1-0.7-1.5-0.9c-5.1-1.9-11-0.4-14.6,3.8c-3.2,3.8-4.5,9.1-3,14
		c1.3,3.9,5.3,6.8,9.1,7.4c2.8,0.1,5.8-0.2,8.1-2l-0.4,2.1h5.4l2.3-14.2H129l-0.8,5.1h6.6c-0.7,1.5-2.3,2.8-3.9,3.1
		c-2.1,0.3-4-0.5-5.2-2.3c-1.7-2.7-1.1-6.7,0.7-9.2c1.6-2,4.1-2.8,6.7-2.3c1.4,0.3,2.8,1.6,3.1,3h5.9l1.4-8.6h-5.2L138.1,5.4"/>
	<path class="st0" d="M180.4,19.1c1.3-0.3,2.3-1.1,3.4-1.9c2.3-2.1,3.6-5.2,2.7-8.3c-0.9-3-4-4.6-6.9-4.8H167l-0.9,5.3h1.9
		l-2.3,14.3h-1.9l-0.9,5.6h10.2l0.9-5.6h-1.4l0.5-3.4l5,9h6.3l0.9-5.6h-2.4L180.4,19.1 M178.8,14.4c-1.2,1.1-3.1,0.7-4.8,0.8
		l0.9-5.5c1.9,0,4.5-0.5,5.2,1.6C180.2,12.4,179.8,13.6,178.8,14.4z"/>
	<polyline class="st0" points="15.2,34.8 12.6,34.8 10.8,46.1 13.4,46.1 15.2,34.8 	"/>
	<polyline class="st0" points="23.4,34.8 19.8,34.8 18,46.1 21.5,46.1 23.4,34.8 	"/>
	<polyline class="st0" points="7,34.8 5.5,34.8 3.7,46.1 5.2,46.1 7,34.8 	"/>
	<polyline class="st0" points="39.8,34.8 34.1,34.8 32.3,46.1 37.9,46.1 39.8,34.8 	"/>
	<polyline class="st0" points="31.6,34.8 27,34.8 25.1,46.1 29.7,46.1 31.6,34.8 	"/>
	<g>
		<path class="st0" d="M164.1,39c-0.8,0-1.3,0.6-1.5,1.5c-0.2,1.2,0.4,1.6,1,1.6c0.6,0,1.3-0.5,1.5-1.5c0.1-0.5,0-1.1-0.2-1.2
			C164.7,39.1,164.4,39,164.1,39z"/>
		<path class="st0" d="M60.9,38.9L60.9,38.9L59.8,39l-0.2,1.3h1c0.2,0,0.8,0,0.9-0.7C61.6,38.9,61.2,38.9,60.9,38.9z"/>
		<path class="st0" d="M124.3,39.4c-0.2-0.3-0.5-0.4-0.8-0.4c-0.8,0-1.3,0.6-1.5,1.5c-0.2,1.2,0.4,1.6,1,1.6s1.3-0.5,1.5-1.5
			C124.6,40.1,124.6,39.5,124.3,39.4z"/>
		<path class="st0" d="M86,39c-0.8,0-1.4,0.6-1.5,1.5c-0.2,1.2,0.4,1.6,1,1.6s1.3-0.5,1.5-1.5c0.1-0.5,0-1.1-0.2-1.2
			C86.6,39.1,86.3,39,86,39z"/>
		<path class="st0" d="M157.9,39h-0.5l-0.5,2.9h0.4c0.6,0,1.6-0.1,1.8-1.5c0.1-0.4,0.1-0.7-0.1-1C158.8,39,158.3,39,157.9,39z"/>
		<path class="st0" d="M54.9,39c-0.8,0-1.4,0.6-1.5,1.5c-0.2,1.2,0.4,1.6,1,1.6c0.6,0,1.3-0.5,1.5-1.5c0.1-0.5,0-1.1-0.2-1.2
			C55.5,39.1,55.2,39,54.9,39z"/>
		<path class="st0" d="M41.3,34.8l-1.9,11.3h142.3l1.9-11.3H41.3z M51.5,38.9h-2.6L48.7,40h2.4L51,40.9h-2.4l-0.4,2H47l0.8-4.9h3.8
			L51.5,38.9z M57.2,40.4c-0.1,0.9-0.7,1.7-1.3,2.1c-0.6,0.4-1.2,0.6-1.7,0.5c-1.5,0-2.2-1.2-2-2.6c0.2-1.3,1.3-2.6,2.9-2.6
			c0.3,0,0.6,0,0.9,0.1C57.4,38.4,57.3,40.1,57.2,40.4z M62.9,39.5c-0.2,1-0.9,1.3-1.3,1.4l0.8,2H61l-0.7-1.8h-0.8l-0.3,1.8h-1.3
			l1-5h2.2c0.6,0,1.2,0,1.6,0.5C62.9,38.7,63,39.1,62.9,39.5z M68.3,39l-0.7,3.9h-1.2L67,39h-1.3l0.2-1h3.9l-0.2,1H68.3z M74.2,42.9
			h-1.3l0.4-2.1h-1.8l-0.4,2.1h-1.3l0.9-4.9h1.2l-0.3,1.8h1.9l0.3-1.8H75L74.2,42.9z M80.2,39h-2.5l-0.1,0.8h2.2l-0.1,1h-2.3
			L77.2,42h2.5l-0.2,0.9h-3.7l0.8-4.9h3.7L80.2,39z M88.2,40.4c-0.1,0.9-0.7,1.7-1.3,2.1c-0.5,0.4-1.1,0.6-1.7,0.5
			c-1.5,0-2.2-1.2-2-2.6c0.2-1.3,1.3-2.6,2.9-2.6c0.3,0,0.6,0,0.9,0.1C88.4,38.4,88.3,40.1,88.2,40.4z M93.2,42.8H92l-0.7-1.6
			c-0.3-0.7-0.4-0.9-0.6-1.5l-0.5,3.1H89l0.8-4.8H91l0.8,1.8c0.3,0.7,0.4,0.9,0.5,1.3l0.5-3.2H94L93.2,42.8z M99.1,39h-2.4l-0.2,0.8
			h2.3l-0.1,1h-2.3L96.2,42h2.4l-0.1,0.9h-3.7l0.8-4.9h3.7L99.1,39z M102.4,39.8c0.5,0.1,1.2,0.2,1.5,0.3c0.5,0.2,0.8,0.6,0.7,1.2
			c-0.1,0.4-0.3,0.7-0.6,1c-0.5,0.5-1.3,0.7-2,0.7c-1.4,0-1.9-0.6-2.1-1l0.9-0.6c0.1,0.1,0.2,0.3,0.4,0.4c0.3,0.2,0.6,0.2,0.9,0.2
			c0.5,0,1-0.2,1-0.6c0.1-0.4-0.4-0.5-0.8-0.5c-0.3,0-0.5-0.1-0.8-0.1c-0.3-0.1-1.3-0.3-1.1-1.3c0.2-1.3,1.4-1.6,2.3-1.6
			c1.2,0,1.7,0.6,2.1,0.9l-1,0.6c-0.1-0.2-0.3-0.3-0.4-0.4c-0.2-0.1-0.5-0.2-0.8-0.2c-0.5,0-0.8,0.3-0.8,0.5
			C101.7,39.7,102.2,39.7,102.4,39.8z M112.6,43h-1.3c-0.1-0.5-0.1-1.1-0.2-1.6c-0.1-0.9-0.1-0.9-0.2-1.6c-0.2,0.6-0.3,0.7-0.7,1.6
			l-0.8,1.7h-1.3l-0.4-4.9h1.2c0.1,2.3,0.2,2.6,0.1,3.7c0.3-1,0.4-1.2,0.9-2.1l0.7-1.5h1.2V38c0.1,0.5,0.1,1.1,0.2,1.6
			c0.1,0.9,0.1,1.1,0.1,2.1c0.3-1,0.4-1.1,0.8-2.1c0.2-0.5,0.4-1,0.6-1.5h1.2L112.6,43z M119.1,42.9h-1.3l0.4-2.1h-1.8l-0.4,2.1
			h-1.2l0.8-4.9h1.2l-0.3,1.8h1.9l0.3-1.8h1.2L119.1,42.9z M125.8,40.4c-0.1,0.9-0.7,1.7-1.3,2.1s-1.1,0.6-1.7,0.5
			c-1.5,0-2.2-1.2-2-2.6c0.2-1.3,1.3-2.6,2.9-2.6c0.3,0,0.6,0,0.9,0.1C126,38.4,125.9,40.1,125.8,40.4z M130.5,41.8
			c0.2,0.2,0.5,0.4,0.9,0.4c0.2,0,0.5-0.1,0.7-0.2c0.4-0.2,0.4-0.5,0.5-0.7h-1.1l0.2-0.9h2.2l-0.5,2.7h-1l0-0.6
			c-0.2,0.2-0.7,0.6-1.6,0.6c-1.4,0-2.1-1.1-1.8-2.6c0.3-1.6,1.5-2.6,2.9-2.6c1.3,0,1.8,0.8,2,1.1l-1,0.6c-0.1-0.3-0.3-0.7-1-0.7
			c-0.9,0-1.4,0.8-1.6,1.6C130.2,41.1,130.3,41.5,130.5,41.8z M139.1,39h-2.4l-0.2,0.8h2.3l-0.2,1h-2.2l-0.2,1.2h2.4l-0.1,0.9h-3.7
			l0.8-4.9h3.7L139.1,39z M143.8,39h-1.3l-0.7,3.9h-1.2l0.6-3.9h-1.3l0.2-1h3.8L143.8,39z M147.5,42.9h-1.2l0.8-4.9h1.2L147.5,42.9z
			 M152.9,39h-1.3l-0.6,3.9h-1.3l0.7-3.9h-1.3l0.1-1h3.9L152.9,39z M160.3,40.4c-0.1,0.4-0.2,0.7-0.3,0.9c-0.7,1.6-2.1,1.6-2.6,1.6
			h-2l0.8-4.9h1.6c0.6,0,1.6,0,2.1,0.6C160.3,39,160.4,39.7,160.3,40.4z M166.3,40.4c-0.1,0.9-0.7,1.7-1.3,2.1
			c-0.5,0.4-1.1,0.6-1.7,0.5c-1.5,0-2.2-1.2-2-2.6c0.2-1.3,1.3-2.6,2.9-2.6c0.3,0,0.6,0,0.9,0.1C166.5,38.4,166.4,40.1,166.3,40.4z
			 M171.3,42.8H170l-0.7-1.6c-0.3-0.7-0.4-0.9-0.6-1.5l-0.5,3.1H167l0.9-4.8h1.2l0.8,1.8c0.3,0.7,0.4,0.9,0.5,1.3l0.5-3.2h1.2
			L171.3,42.8z M177.2,39h-2.4l-0.2,0.8h2.3l-0.1,1h-2.3l-0.2,1.2h2.5l-0.2,0.9h-3.7l0.8-4.9h3.7L177.2,39z"/>
	</g>
	<path class="st0" d="M192.1,26.5c0,1.4-1.1,2.4-2.5,2.4c-1.3,0-2.4-1.1-2.4-2.4s1.1-2.4,2.5-2.4C191,24,192.1,25.1,192.1,26.5
		 M188.5,24.8v3.4h0.5v-1.6h0.2c0.5,0,0.8,0.1,0.9,0.6c0,0.1,0.1,0.5,0.1,0.5c0,0.2,0.1,0.3,0.1,0.5h0.6c-0.2-0.3-0.2-0.5-0.2-1
		c-0.1-0.4-0.2-0.6-0.5-0.7c0.4-0.1,0.8-0.3,0.8-0.8c0-0.3-0.2-0.6-0.5-0.8c-0.2-0.1-0.4-0.1-0.8-0.1H188.5z M189,25.2h0.5
		c0.4,0,0.6,0,0.7,0.1c0.1,0.1,0.2,0.2,0.2,0.4c0,0.5-0.6,0.5-0.8,0.5H189V25.2z M192.3,26.5c0-1.5-1.1-2.7-2.7-2.7
		c-1.5,0-2.7,1.1-2.7,2.7s1.3,2.7,2.7,2.7C191.1,29.2,192.3,28,192.3,26.5z"/>
</g>
</svg>
