<?xml version="1.0" encoding="utf-8"?>
<!-- Generator: Adobe Illustrator 19.2.1, SVG Export Plug-In . SVG Version: 6.00 Build 0)  -->
<svg version="1.1" id="Layer_1" xmlns="http://www.w3.org/2000/svg" xmlns:xlink="http://www.w3.org/1999/xlink" x="0px" y="0px"
	 viewBox="0 0 176 176" style="enable-background:new 0 0 176 176;" xml:space="preserve">
<style type="text/css">
	.st0{fill:#FFFFFF;}
</style>
<g>
	<path class="st0" d="M31.8,171.1L4.6,143.9c-1.9-1.9-2.2-2.3-4.6-1c0,0,0,0-0.1,0v32.8h32.8c0,0,0-0.1,0-0.1
		C34.1,173.3,33.7,173,31.8,171.1z"/>
	<path class="st0" d="M168.9,172.7c2.1,0,3.8-1.8,3.8-4.1c0-2.3-1.7-4.1-3.8-4.1c-2.1,0-3.8,1.8-3.8,4.1
		C165.1,171,166.7,172.7,168.9,172.7z M169.1,165.8c1.3,0,1.9,0.5,1.9,1.6c0,1-0.6,1.5-1.4,1.6l1.5,2.5h-0.9l-1.4-2.5h-0.9v2.5h-0.8
		l0-5.7H169.1z"/>
	<path class="st0" d="M168.9,168.3L168.9,168.3c0.7,0,1.3-0.1,1.3-0.9c0-0.7-0.6-0.8-1.2-0.8h-1.1l0,1.8H168.9z"/>
	<path class="st0" d="M169.8,24l6,6V0H145l6.5,6.5c0.3,0.3,1.2,1.3-0.4,2.8c-0.9,0.9-1.7,0.6-2.7,0.1c-5.5-2.9-10.7-2.8-16,1.1l-3-3
		l7.5-7.5H0v136.9l12.5-12.5c0.2-0.2,2-1.8,3.5-0.3c0.7,0.7,0.7,1.7,0.3,2.5c-1.2,2.4-0.9,2.6,1,4.6l27.2,27.2
		c1.9,1.9,2.2,2.3,4.6,1c0.9-0.5,1.8-0.5,2.5,0.3c1.5,1.5-0.1,3.3-0.3,3.5l-12.5,12.5h50c0.1-0.2,0.2-0.4,0.3-0.6
		c0.4-0.7-0.5-1.5-0.9-1.9l-15.3-15.3c-0.4-0.4-1.2-1.3-1.9-0.9c-0.8,0.4-1.4,0.8-2.2,0.1c-0.8-0.8-0.1-1.6,0.5-2.2l7.5-7.5
		l21.8,21.8l-6.4,6.4h83.6V92.2l-7,7c-0.1,0.1-1.1,1-2,0.2c-0.4-0.4-0.4-0.9-0.1-1.4c0.7-1.3,0.5-1.5-0.6-2.6l-18.6-18.6l7.1-7.1
		l18.6,18.6c1.1,1.1,1.2,1.3,2.6,0.6v-50l-7.5,7.5l-3-3c3.7-4.7,4-10.8,1.3-16.3c-0.4-1.1-0.9-2.3,0-3.2
		C168.2,22.1,169.6,23.8,169.8,24z M145.8,13.3c1.6-1.6,3.2,0.5,3.6,0.9l11.2,11.2c0.4,0.4,2.5,2,0.9,3.6c-1.1,1.1-2.2,0.6-3.4-0.1
		c-2.4-1.5-5.4-2.5-8.2-0.9l-3.2-3.2c1.6-2.7,0.6-5.8-0.9-8.2C145.2,15.5,144.7,14.3,145.8,13.3z M107.7,29.2c0.2-0.2,2-1.8,3.5-0.3
		c0.7,0.7,0.7,1.7,0.3,2.5c-1.2,2.4-0.9,2.6,1,4.6l27.2,27.2c1.9,1.9,2.2,2.3,4.6,1c0.9-0.5,1.8-0.5,2.5,0.3
		c1.5,1.5-0.1,3.3-0.3,3.5l-14.7,14.7c-0.2,0.2-2,1.8-3.5,0.3c-0.7-0.7-0.7-1.7-0.3-2.5c1.2-2.4,0.9-2.6-1-4.6l-24.1-24.1l21,38.8
		l-1.5,1.5L79.5,70.8c-1-0.5-2.1-1-3.2-1.3c-1.2-0.3-2.1-0.7-3,0.1c-0.7,0.6-2.2,1.9-3.4,0.6c-1.6-1.6,0-3.2,0.6-3.8l13.1-13.1
		l21.5,10.4l0.1-0.1L94,42.9L107.7,29.2z M107.2,131.5c-0.4-0.6-0.6-1.3,0-1.9c0.9-0.9,1.8,0.3,2,0.5l6.3,6.3c0.2,0.2,1.4,1.1,0.5,2
		c-0.6,0.6-1.3,0.3-1.9,0c-1.4-0.8-3.1-1.4-4.6-0.5l-1.8-1.8C108.6,134.5,108,132.8,107.2,131.5z M110.2,127.3
		c-0.5,0.5-0.9,0.4-1.5,0.1c-3.1-1.6-6-1.5-9,0.6l-1.7-1.7l6.5-6.5l5.9,5.9C110.6,125.9,111.1,126.5,110.2,127.3z M88.5,114.1
		L61.6,87.2c-1.3-1.3-3.1-2.6-6.4-1.1l-3-3c12-10,26-6.2,36.3,4.1c10.3,10.3,14.1,24.3,4.1,36.3l-3-3
		C91.2,117.2,89.8,115.4,88.5,114.1z M103.3,94.9L85.8,77.4l0.1-0.1L97.3,83l8.9,8.9c7.3,5.7,8.6,0.3,10.8,2.6
		c1.6,1.6-0.6,3.6-1.2,4.2l-5.9,5.9c-0.6,0.6-2.6,2.8-4.2,1.2C103.6,103.5,108.9,102.2,103.3,94.9z M83.6,33.9
		c-0.2-0.6-0.5-1.2,0-1.7c0.9-0.9,1.6,0,1.7,0.1l5.5,5.5l-6.3,6.3l-1.6-1.6C84.8,40.1,85,36.8,83.6,33.9z M81,35
		c-0.6,0.6-1.2,0.3-1.8,0c-1.3-0.8-2.9-1.3-4.3-0.5l-1.7-1.7c0.8-1.5,0.3-3-0.5-4.3c-0.3-0.6-0.6-1.2,0-1.8c0.9-0.9,1.7,0.3,1.9,0.5
		l5.9,5.9C80.7,33.3,81.8,34.2,81,35z M70.1,17.5l5.6,5.6c0.1,0.1,0.6,0.7-0.2,1.5c-0.5,0.5-0.9,0.3-1.4,0.1
		c-2.9-1.5-5.7-1.5-8.5,0.6L64,23.6L70.1,17.5z M55.5,32.1l7.2-7.2l20.5,20.5L76,52.6c-0.1,0.1-1.1,1-1.9,0.2
		c-0.4-0.4-0.4-0.9-0.1-1.3c0.7-1.3,0.5-1.4-0.5-2.4L59.1,34.7c-1-1-1.2-1.2-2.4-0.5c-0.5,0.2-1,0.2-1.3-0.1
		C54.5,33.2,55.4,32.2,55.5,32.1z M45.2,42.4l7.8-7.8c0.1-0.1,1.1-1,1.9-0.2c0.4,0.4,0.4,0.9,0.1,1.3c-0.7,1.3-0.5,1.4,0.5,2.4
		l14.4,14.4c1,1,1.2,1.2,2.4,0.5c0.5-0.2,1-0.2,1.3,0.1c0.8,0.8-0.1,1.8-0.2,1.9L65.7,63c-0.1,0.1-1.1,1-1.9,0.2
		c-0.4-0.4-0.4-0.9-0.1-1.3c0.7-1.3,0.5-1.4-0.5-2.4l-6.6-6.6l-2.4,2.4l-1.6-1.6l2.4-2.4L48.8,45c-1-1-1.2-1.2-2.4-0.5
		c-0.5,0.2-1,0.2-1.3-0.1C44.2,43.5,45.1,42.6,45.2,42.4z M34.8,52.8l7.8-7.8c0.1-0.1,1.1-1,1.9-0.2c0.4,0.4,0.4,0.9,0.1,1.3
		c-0.7,1.3-0.5,1.4,0.5,2.4L59.5,63c1,1,1.2,1.2,2.4,0.5c0.5-0.2,1-0.2,1.3,0.1c0.8,0.8-0.1,1.8-0.2,1.9l-7.8,7.8
		c-0.1,0.1-1.1,1-1.9,0.2c-0.4-0.4-0.4-0.9-0.1-1.3c0.7-1.3,0.5-1.4-0.5-2.4L38.4,55.4c-1-1-1.2-1.2-2.4-0.5c-0.5,0.2-1,0.2-1.3-0.1
		C33.8,53.9,34.7,52.9,34.8,52.8z M33,54.6l6.4,6.4c0.1,0.1,0.7,0.9-0.1,1.7c-0.8,0.8-1.6,0.2-2.3-0.3c-1.7-1.2-3.9-2.6-6.3-2.2
		L29,58.6L33,54.6z M27.8,59.8l17.4,17.4c1,1,1.2,1.2,2.4,0.5c0.5-0.2,1-0.2,1.3,0.1c0.8,0.8-0.1,1.8-0.2,1.9L41,87.6
		c-0.1,0.1-1.1,1-1.9,0.2c-0.4-0.4-0.4-0.9-0.1-1.3c0.7-1.3,0.5-1.4-0.5-2.4L21.1,66.5L27.8,59.8z M15.9,71.7l3.9-3.9l1.6,1.6
		c-0.4,2.4,1,4.6,2.2,6.3c0.5,0.7,1.1,1.5,0.3,2.3c-0.8,0.8-1.6,0.2-1.7,0.1L15.9,71.7z M70.9,143.7l-14.7,14.6
		c-0.2,0.2-2,1.8-3.5,0.3c-0.7-0.7-0.7-1.7-0.3-2.5c1.2-2.4,0.9-2.6-1-4.6L39,139.1l-4.6,4.6l-3-3l4.6-4.6l-11.8-11.8
		c-1.9-1.9-2.2-2.3-4.6-1c-0.9,0.5-1.8,0.5-2.5-0.3c-1.5-1.5,0.1-3.3,0.3-3.5l14.7-14.6c0.2-0.2,2-1.8,3.5-0.3
		c0.7,0.7,0.7,1.7,0.3,2.5c-1.2,2.4-0.9,2.6,1,4.6l27.2,27.2c1.9,1.9,2.2,2.3,4.6,1c0.9-0.5,1.8-0.5,2.5,0.3
		C72.7,141.7,71.1,143.5,70.9,143.7z M54,121.7c-10.3-10.3-14.1-24.3-4.1-36.3l3,3c-1.6,3.3-0.2,5.1,1.1,6.4l26.9,26.9
		c1.3,1.3,3.1,2.6,6.4,1.1l3,3C78.3,135.8,64.3,132.1,54,121.7z M99.9,168l-1.7-1.7c1.5-2,0-3.8-1.1-4.9L84.7,149
		c-1.1-1.1-2.9-2.7-4.9-1.1l-1.7-1.7c4.9-5,12.5-5.7,20.4,1.5C105.6,154.2,104.8,163.2,99.9,168z M110.8,157.2c-0.1,0.1-1.1,1-2,0.2
		c-0.4-0.4-0.4-0.9-0.1-1.4c0.7-1.3,0.5-1.5-0.6-2.6L92.8,138c-1.1-1.1-1.2-1.3-2.6-0.6c-0.5,0.3-1,0.3-1.4-0.1
		c-0.8-0.8,0.1-1.9,0.2-2l7.7-7.7l21.8,21.8L110.8,157.2z M119.8,148.1l-1.7-1.7c2.1-2.7,2.3-6.1,0.7-9.2c-0.2-0.6-0.5-1.3,0-1.8
		c0.9-0.9,1.7,0,1.8,0.1l5.8,5.8L119.8,148.1z M136.8,131.1l-8.3,8.3c-0.1,0.1-0.9,0.8-1.8-0.1c-0.4-0.4-0.5-0.9-0.2-1.4
		c0.7-1.3,0.3-1.3-0.7-2.4l-15.3-15.3c-1.1-1.1-1.2-1.3-2.6-0.6c-0.5,0.3-1,0.3-1.4-0.1c-0.8-0.8,0.1-1.9,0.2-2l7.7-7.7l18.6,18.6
		c1.1,1.1,1.2,1.3,2.6,0.6c0.5-0.3,1-0.3,1.4,0.1C137.8,130,136.9,131,136.8,131.1z M134.8,111.3c-0.4-0.4-0.8-0.8-1.1-1.2
		c0.6,1.5,0.7,3.2,0.2,5.1c-0.6,2.2-1.9,4.1-4.7,6.9l-1.7-1.7c1.4-2,0.3-3.3-1.1-4.8l-4.4-4.4c-1.3-1.3-2.8-2.2-4.6-0.9l-1.7-1.7
		c2.8-2.8,4.7-4.1,6.9-4.7c3.4-0.9,6.1,0.2,8.5,2.5c-2.6-4.9-2.7-10.5,1.5-15.5l1.7,1.7c-0.9,1.9-0.1,2.9,0.6,3.6l15.1,15.1
		c0.7,0.7,1.7,1.5,3.6,0.6l1.7,1.7C148.5,119.2,140.6,117.1,134.8,111.3z M168.9,163.7c2.6,0,4.7,2.1,4.7,4.9c0,2.9-2.2,5-4.7,5
		c-2.6,0-4.8-2.1-4.8-5C164.1,165.8,166.3,163.7,168.9,163.7z M147.9,79.8c-0.4,2.6,1.1,4.9,2.4,6.7c0.5,0.7,1.1,1.6,0.4,2.4
		c1.3,0.8,2.5,1.8,3.6,2.9c5.8,5.8,7.9,13.7,2.3,20.4l-1.7-1.7c0.9-1.9,0.1-2.9-0.6-3.6l-15.1-15.1c-0.7-0.7-1.7-1.5-3.6-0.6
		l-1.7-1.7c4.1-3.4,8.6-4,12.8-2.6l-4.6-4.6l4.2-4.2L147.9,79.8z M166.8,72.8c-0.8,0.8-1.7,0.2-2.4-0.4c-1.8-1.3-4.1-2.8-6.7-2.4
		l-1.7-1.7l4.2-4.2l6.8,6.8C167.1,71.1,167.7,71.9,166.8,72.8z M165.9,48.6l-13.7,13.7c-0.2,0.2-2,1.8-3.5,0.3
		c-0.7-0.7-0.7-1.7-0.3-2.5c1.2-2.4,0.9-2.6-1-4.6l-27.2-27.2c-1.9-1.9-2.2-2.3-4.6-1c-0.9,0.5-1.8,0.5-2.5-0.3
		c-1.5-1.5,0.1-3.3,0.3-3.5l13.7-13.7L165.9,48.6z"/>
</g>
</svg>
