<?xml version="1.0" encoding="utf-8"?>
<!-- Generator: Adobe Illustrator 19.2.1, SVG Export Plug-In . SVG Version: 6.00 Build 0)  -->
<svg version="1.1"
	 id="svg5890" xmlns:cc="http://creativecommons.org/ns#" xmlns:dc="http://purl.org/dc/elements/1.1/" xmlns:rdf="http://www.w3.org/1999/02/22-rdf-syntax-ns#" xmlns:svg="http://www.w3.org/2000/svg"
	 xmlns="http://www.w3.org/2000/svg" xmlns:xlink="http://www.w3.org/1999/xlink" x="0px" y="0px" viewBox="0 0 91.2 43"
	 style="enable-background:new 0 0 91.2 43;" xml:space="preserve">
<style type="text/css">
	.st0{fill:#FFFFFF;}
</style>
<g>
	<path class="st0" d="M82.6,21.6c0-0.2-0.2-0.2-0.3-0.2H82v0.4h0.3v0C82.4,21.9,82.6,21.9,82.6,21.6z"/>
	<path class="st0" d="M83,14.9v-4H68.7L45.6,1l-23,9.9H8.2v4H1V42h89.2V14.9H83z M21.5,36.5H11.2V18.1h4.1V33h6.3V36.5z M35,34.6
		c0,1.1-0.9,1.9-1.9,1.9h-7.9c-1.1,0-1.9-0.9-1.9-1.9V23.3c0-1.1,0.9-1.9,1.9-1.9H33c1.1,0,1.9,0.9,1.9,1.9V34.6z M54,34.6
		c0,1.1-0.9,1.9-1.9,1.9h-4.8c-0.8,0-1.6-0.6-1.6-1.4c0,0.8-0.8,1.4-1.6,1.4h-4.8c-1.1,0-1.9-0.9-1.9-1.9V21.3h4.1V33h2.5V21.3h3.6
		V33h2.5V21.3H54V34.6z M66,24.9h-5.6v2.3H66v3.4h-5.6V33H66v3.6h-9.7V21.4v0H66V24.9z M66.9,18.1L66.9,18.1l3.4,0l-0.6,4.4l-2.8,0
		L66.9,18.1z M79,36.3c-0.7,0.6-1.8,0.9-3.3,0.9h0c-2.7,0-5.7-1-5.8-1l-0.1,0v-3.6l0.1,0c0,0,3.2,1.2,4.7,1.4l0,0c0.1,0,0.2,0,0.3,0
		c0.8,0,1.4-0.4,1.6-0.9c0.1-0.5-0.2-1.1-0.9-1.5l0,0c-0.6-0.3-1.2-0.6-1.8-0.9c-1.5-0.7-3-1.3-3.9-3c-0.7-1.4-0.6-3.4,0.2-4.6
		c1-1.5,2.6-2.2,4.7-2.2c0.2,0,0.5,0,0.8,0c2.3,0.3,4.5,1.7,4.5,1.7l0,0v3.3l-0.1,0c0,0-1-0.4-2.2-0.9c-0.6-0.2-1.6-0.6-2.6-0.6
		c-0.6,0-1,0.2-1.3,0.5c-0.3,0.2-0.4,0.6-0.3,0.9c0.2,0.9,1.6,1.4,2,1.6l0.1,0c2.3,0.9,3.8,2,4.4,3.3l0,0c0,0,0,0.1,0,0.1l0,0.1l0,0
		l0,0c0.3,0.6,0.4,1.3,0.4,1.9C80.7,34.9,79,36.3,79,36.3z M82.2,23.2c-0.7,0-1.3-0.5-1.3-1.2c0-0.7,0.6-1.2,1.3-1.2
		c0.7,0,1.3,0.5,1.3,1.2C83.5,22.7,82.9,23.2,82.2,23.2z"/>
	<rect x="27.3" y="24.9" class="st0" width="3.6" height="8.1"/>
	<path class="st0" d="M82.2,20.9c-0.6,0-1,0.4-1,1c0,0.6,0.4,1,1,1c0.6,0,1-0.4,1-1C83.2,21.4,82.8,20.9,82.2,20.9z M82.6,22.7
		L82.2,22H82v0.6h-0.2v-1.4h0.5c0.3,0,0.5,0.1,0.5,0.4c0,0.3-0.2,0.4-0.4,0.4l0.4,0.6H82.6z"/>
</g>
</svg>
