<?xml version="1.0" encoding="utf-8"?>
<!-- Generator: Adobe Illustrator 21.0.2, SVG Export Plug-In . SVG Version: 6.00 Build 0)  -->
<svg version="1.1" id="Layer_1" xmlns="http://www.w3.org/2000/svg" xmlns:xlink="http://www.w3.org/1999/xlink" x="0px" y="0px"
	 viewBox="0 0 209 52" style="enable-background:new 0 0 209 52;" xml:space="preserve">
<style type="text/css">
	.st0{fill-rule:evenodd;clip-rule:evenodd;fill:#FFFFFF;}
	.st1{fill:#FFFFFF;}
</style>
<g>
	<rect x="58.1" y="1.5" class="st0" width="0.7" height="49.3"/>
	<g>
		<g>
			<path class="st1" d="M84.8,28.7L80,23.5h-7.1v-2.9h7.9c1.2,0,2.1-0.3,2.7-1c0.6-0.6,0.9-1.6,0.9-2.8s-0.3-2.2-1-2.8
				c-0.6-0.6-1.5-0.9-2.7-0.9H70.5v15.7h-3.3v-19h13.6c1.1,0,2,0.2,2.9,0.5c0.9,0.3,1.6,0.8,2.2,1.4c0.6,0.6,1,1.3,1.4,2.2
				s0.5,1.8,0.5,2.9c0,1.6-0.3,2.9-1,4C86,21.7,85,22.5,83.8,23l5.7,5.8H84.8z"/>
			<path class="st1" d="M91.2,28.7v-19h17v3.3H94.5v12.4h13.7v3.3H91.2z M96.9,20.5v-2.8h10.5v2.8H96.9z"/>
			<path class="st1" d="M111,28.7v-19h11c1.3,0,2.6,0.2,3.7,0.7c1.1,0.5,2.1,1.1,2.9,1.9c0.8,0.8,1.5,1.8,1.9,2.9
				c0.5,1.1,0.7,2.4,0.7,3.8c0,1.4-0.2,2.7-0.7,3.8c-0.5,1.2-1.1,2.2-1.9,3.1c-0.8,0.9-1.8,1.5-2.9,2c-1.1,0.5-2.4,0.7-3.7,0.7H111z
				 M122.1,25.4c0.9,0,1.6-0.2,2.4-0.5c0.7-0.3,1.3-0.7,1.9-1.3c0.5-0.5,0.9-1.2,1.2-2c0.3-0.8,0.4-1.6,0.4-2.5s-0.1-1.7-0.4-2.5
				c-0.3-0.8-0.7-1.4-1.2-1.9c-0.5-0.5-1.2-1-1.9-1.3s-1.5-0.5-2.4-0.5h-7.7v12.4H122.1z"/>
			<path class="st1" d="M134.2,28.7v-19h3.3v19H134.2z"/>
			<path class="st1" d="M140.1,20.2V18h6.3v2.2H140.1z"/>
			<path class="st1" d="M171.5,28.7l-3.6-13.4l-5.4,12.4c-0.2,0.4-0.4,0.7-0.7,0.9c-0.3,0.2-0.6,0.3-1,0.3c-0.8,0-1.3-0.4-1.7-1.3
				l-5.4-12.4l-3.6,13.4h-3.3l4.9-17.9c0.2-0.9,0.8-1.4,1.6-1.4c0.3,0,0.7,0.1,1,0.3c0.3,0.2,0.5,0.5,0.7,0.8l5.9,13.4l5.9-13.4
				c0.3-0.7,0.8-1.1,1.6-1.1c0.8,0,1.3,0.5,1.6,1.4l4.9,17.9H171.5z"/>
			<path class="st1" d="M177.2,28.7v-19h3.3v19H177.2z"/>
			<path class="st1" d="M203.1,28.7l-8-7.8l-7.9,7.8h-4.3l10.2-9.9l-9.5-9.1h4.6l7.2,7l7.1-7h4.3l-9.5,9.1l10.3,9.9H203.1z"/>
		</g>
		<g>
			<path class="st1" d="M77.5,39.6l1.5,0.3c-0.5,0.9-1.1,1.5-1.7,2c-1.1,0.7-2.4,1-4,1c-1.9,0-3.4-0.5-4.5-1.5
				c-1-0.9-1.5-2.2-1.5-3.7c0-1.7,0.6-3,1.8-3.9c1.1-0.8,2.4-1.2,4.1-1.2c1.5,0,2.8,0.3,3.7,0.9c0.7,0.4,1.3,1.1,1.8,1.9l-1.5,0.3
				c-0.1-0.3-0.3-0.5-0.4-0.6c-0.2-0.2-0.4-0.4-0.7-0.6c-0.8-0.5-1.7-0.7-2.9-0.7c-1.3,0-2.3,0.3-3.1,0.9c-0.9,0.7-1.4,1.7-1.4,3
				c0,1.1,0.3,2.1,1,2.8c0.8,0.8,2,1.2,3.6,1.3c1.3,0,2.4-0.3,3.1-0.9C76.9,40.4,77.3,40,77.5,39.6z"/>
			<path class="st1" d="M99.9,32.5c1.7,0,3.2,0.5,4.3,1.4c1.1,1,1.7,2.3,1.7,3.9c0,1.6-0.6,2.9-1.8,3.8c-1.1,0.8-2.5,1.3-4.1,1.3
				c-1.7,0-3-0.4-4-1.1c-1.3-0.9-2-2.3-2-4s0.6-3,1.9-4C96.9,32.9,98.3,32.5,99.9,32.5z M99.8,33.7c-1.2,0-2.2,0.3-3,0.9
				c-0.9,0.7-1.4,1.7-1.4,3.1c0,1,0.3,1.8,0.9,2.5c0.8,0.9,2.1,1.4,3.8,1.4c1.6,0,2.8-0.5,3.6-1.4c0.6-0.7,0.9-1.6,0.9-2.6
				c0-1.3-0.5-2.3-1.4-3C102.3,34,101.2,33.7,99.8,33.7z"/>
			<path class="st1" d="M121.8,42.6v-9.8h1.4v8.6h6.5v1.2H121.8z"/>
			<path class="st1" d="M150.1,32.5c1.7,0,3.2,0.5,4.3,1.4c1.1,1,1.7,2.3,1.7,3.9c0,1.6-0.6,2.9-1.8,3.8c-1.1,0.8-2.5,1.3-4.1,1.3
				c-1.7,0-3-0.4-4-1.1c-1.3-0.9-2-2.3-2-4s0.6-3,1.9-4C147.2,32.9,148.5,32.5,150.1,32.5z M150,33.7c-1.2,0-2.2,0.3-3,0.9
				c-0.9,0.7-1.4,1.7-1.4,3.1c0,1,0.3,1.8,0.9,2.5c0.8,0.9,2.1,1.4,3.8,1.4c1.6,0,2.8-0.5,3.6-1.4c0.6-0.7,0.9-1.6,0.9-2.6
				c0-1.3-0.5-2.3-1.4-3C152.5,34,151.4,33.7,150,33.7z"/>
			<path class="st1" d="M172,42.6v-9.8h6.7c1.2,0,2.2,0.3,2.8,0.8c0.6,0.5,0.9,1.2,0.9,2.1c0,1.6-0.9,2.5-2.6,2.8l3.6,4.2h-1.8
				l-3.3-3.9h-4.8v3.9H172z M178.8,33.9h-5.4v3.6h4.9c1.1,0,1.9-0.3,2.3-0.8c0.2-0.3,0.3-0.6,0.3-1c0-0.4-0.1-0.7-0.3-1.1
				c-0.2-0.3-0.5-0.5-0.8-0.6C179.5,34,179.2,33.9,178.8,33.9z"/>
			<path class="st1" d="M197.5,40.6l1.3-0.5c0.2,0.2,0.4,0.4,0.7,0.6c0.9,0.6,2.2,1,3.7,1c1.1,0,1.9-0.2,2.5-0.5
				c0.6-0.4,0.9-0.8,0.9-1.5c0-0.6-0.3-1-1-1.3c-0.4-0.1-1.2-0.3-2.5-0.4c-1.4-0.1-2.3-0.2-2.7-0.3c-0.6-0.1-1.1-0.3-1.4-0.7
				c-0.5-0.4-0.7-1-0.7-1.6c0-1.2,0.7-2,2-2.5c0.7-0.3,1.6-0.4,2.6-0.4c1.6,0,2.9,0.3,3.9,1c0.4,0.2,0.7,0.6,1,1l-1.3,0.5
				c-0.1-0.1-0.3-0.3-0.6-0.5c-0.8-0.5-1.8-0.8-3-0.8c-1,0-1.8,0.1-2.4,0.4c-0.6,0.3-0.9,0.7-0.9,1.2c0,0.3,0.1,0.5,0.3,0.8
				c0.3,0.3,0.8,0.5,1.8,0.6c0.6,0.1,1.5,0.1,2.7,0.3c0.5,0.1,1,0.1,1.3,0.2c1.5,0.4,2.3,1.2,2.3,2.5c0,0.6-0.2,1.2-0.5,1.6
				c-0.7,1-2.2,1.6-4.3,1.6c-0.9,0-1.8-0.1-2.5-0.3C199.2,42.2,198.1,41.5,197.5,40.6z"/>
		</g>
	</g>
	<g>
		<rect x="0.9" y="1.5" class="st0" width="14.6" height="14.6"/>
		<rect x="0.9" y="18.9" class="st0" width="14.6" height="14.6"/>
		<rect x="0.9" y="36.3" class="st0" width="14.6" height="14.6"/>
		<polygon class="st0" points="32.9,50.8 18.3,36.3 32.9,36.3 		"/>
		<path class="st0" d="M35.6,1.5c8,0,14.6,6.5,14.6,14.6H35.6V1.5z"/>
		<path class="st0" d="M50.1,18.9c0,8-6.5,14.6-14.6,14.6V18.9H50.1z"/>
		<rect x="18.3" y="1.5" class="st0" width="14.6" height="14.6"/>
		<rect x="18.3" y="18.9" class="st0" width="14.6" height="14.6"/>
		<polygon class="st0" points="35.6,36.3 50.1,50.8 35.6,50.8 		"/>
	</g>
</g>
</svg>
