<?xml version="1.0" encoding="utf-8"?>
<!-- Generator: Adobe Illustrator 21.0.2, SVG Export Plug-In . SVG Version: 6.00 Build 0)  -->
<svg version="1.1" id="YouTube_Logo" xmlns="http://www.w3.org/2000/svg" xmlns:xlink="http://www.w3.org/1999/xlink" x="0px"
	 y="0px" viewBox="0 0 534.8 224.7" style="enable-background:new 0 0 534.8 224.7;" xml:space="preserve">
<style type="text/css">
	.st0{fill:#FFFFFF;}
</style>
<g id="You">
	<path id="u_2_" class="st0" d="M204,177h-19v-11c-7.2,8.3-13.3,12.4-20,12.4c-5.8,0-9.9-2.8-11.9-7.7c-1.2-3-2.1-7.8-2.1-14.7V76
		h19v75c0,4.2,0,6,0,7c0.4,2.8,1.6,3.8,4.1,3.8c3.6,0,6.9-3.2,10.9-8.8V76h19V177z"/>
	<path id="o_2_" class="st0" d="M137,109c0-10.8-2.2-18.9-6-24c-5.1-6.9-13-9.7-21-9.7c-9.1,0-15.9,2.8-21,9.7
		c-3.9,5.1-6,13.3-6,24.1l0,35.9c0,10.7,1.9,18.1,5.8,23.2c5.1,6.9,13.2,10.5,21.2,10.5s16.3-3.6,21.4-10.5
		c3.8-5.1,5.6-12.5,5.6-23.2V109z M118,147c1,10-2.1,15-8,15s-9-5-8-15v-40c-1-10,2.1-14.7,8-14.7c5.9,0,9,4.7,8,14.7L118,147z"/>
	<path id="y_2_" class="st0" d="M62,122v55H42v-55c0,0-20.7-67.4-25-80h21l14,52.7L66,42h21L62,122z"/>
</g>
<g id="Tube">
	<g>
		<path class="st0" d="M399.4,92.1c-3,0-6.4,1.6-9.4,4.6l0,60.6c3,3,6.5,4.6,9.4,4.6c5.2,0,7.6-3.8,7.6-13.8v-43
			C407,95,404.6,92.1,399.4,92.1z"/>
		<path class="st0" d="M474,104.1c0-9.2-2.4-12-8.4-12c-6,0-8.6,2.5-8.6,11.9V115l17,0V104.1z"/>
		<path class="st0" d="M515,52.9c0,0-2.9-20.5-11.9-29.5c-11.4-11.8-24.1-11.9-29.9-12.6c-41.8-3-104.5-3-104.5-3h-0.1
			c0,0-62.7,0-104.5,3c-5.8,0.7-18.6,0.8-29.9,12.6c-9,9-11.9,29.5-11.9,29.5s-3,24.1-3,48.1v22.6c0,24.1,3,48.1,3,48.1
			s2.9,20.5,11.9,29.5c11.4,11.8,26.3,11.5,32.9,12.7c23.9,2.3,101.5,3,101.5,3s62.7-0.1,104.5-3.1c5.8-0.7,18.6-0.8,29.9-12.6
			c9-9,11.9-29.5,11.9-29.5s3-24.1,3-48.1V101C518,77,515,52.9,515,52.9z M285,177h-20V62h-21V43l63,0v19h-22V177z M357,177h-19v-11
			c-7.2,8.3-13.3,12.4-20,12.4c-5.8,0-9.9-2.8-11.9-7.7c-1.2-3-2.1-7.8-2.1-14.7V77h19v74c0,4.2,0,6,0,7c0.4,2.8,1.6,3.8,4.1,3.8
			c3.6,0,6.9-3.2,10.9-8.8V77h19V177z M426,147c0,9.2-0.8,15.8-2,20c-2.4,7.4-7.7,11.3-14.9,11.3c-6.4,0-13-3.9-19.1-11.4l0,10.1
			h-18V43h18l0,43.7c5.8-7.2,12.5-11.3,19.1-11.3c7.2,0,12.1,4.2,14.5,11.6c1.2,4,2.4,10.5,2.4,20V147z M465.8,161.8
			c4.5,0,7.1-2.4,8.1-7.3c0.2-1,0.1-5.3,0.1-12.6h19v2.8c0,5.8-0.5,10-0.6,11.8c-0.6,4-2,7.6-4.2,10.8c-5,7.3-12.4,10.8-21.9,10.8
			c-9.5,0-16.7-3.4-21.9-10.2c-3.8-5-6.3-12.4-6.3-23.1v-35c0-10.7,2.2-18.9,6.1-24c5.2-6.8,12.4-10.5,21.7-10.5
			c9.1,0,16.3,3.6,21.4,10.5c3.8,5.1,5.9,12.9,5.9,23.5l0,20.4h-36v18C456.9,157.2,459.6,161.8,465.8,161.8z"/>
	</g>
</g>
</svg>
