<?xml version="1.0" encoding="utf-8"?>
<!-- Generator: Adobe Illustrator 19.2.1, SVG Export Plug-In . SVG Version: 6.00 Build 0)  -->
<svg version="1.1" id="Layer_1" xmlns="http://www.w3.org/2000/svg" xmlns:xlink="http://www.w3.org/1999/xlink" x="0px" y="0px"
	 viewBox="0 0 27.6 30.8" style="enable-background:new 0 0 27.6 30.8;" xml:space="preserve">
<style type="text/css">
	.st0{fill:#3A2B2F;}
</style>
<g>
	<path class="st0" d="M19.6,12.3H8.9V7.2c0-3.5,3.5-3.5,5.3-3.5s5.3,0,5.3,3.5v5.1C19.5,12.3,19.6,12.3,19.6,12.3z M9.9,11.4h8.8
		V7.2c0-1.9-1.2-2.6-4.4-2.6S9.9,5.3,9.9,7.2V11.4z"/>
</g>
<polygon class="st0" points="22.8,10.9 21.7,10 20.3,10.9 19.2,10 17.8,10.9 16.6,10 15.3,10.9 14.1,10 14.1,10 12.8,10.9 11.5,10 
	10.3,10.9 8.9,10 7.8,10.9 6.4,10 5.3,10.9 3.9,10 4,10.9 4,10.9 6.5,27.2 22.3,27.2 24.1,10.9 24.2,10 "/>
</svg>
