<?xml version="1.0" encoding="utf-8"?>
<!-- Generator: Adobe Illustrator 19.2.1, SVG Export Plug-In . SVG Version: 6.00 Build 0)  -->
<svg version="1.1" id="Layer_1" xmlns="http://www.w3.org/2000/svg" xmlns:xlink="http://www.w3.org/1999/xlink" x="0px" y="0px"
	 viewBox="0 0 27.6 30.8" style="enable-background:new 0 0 27.6 30.8;" xml:space="preserve">
<style type="text/css">
	.st0{fill:#FFFFFF;}
</style>
<path class="st0" d="M13.9,3.7C7.2,3.7,1.8,9.1,1.8,15.8s5.4,12.1,12.1,12.1S26,22.5,26,15.8C26,9,20.6,3.7,13.9,3.7z M3,16h1.6
	c0,2.1,0.6,4,1.7,5.9H4.9C3.7,20.3,3,18.2,3,16z M18.3,15.4c0-2.1-0.4-4.1-1-5.8h3.5c1,1.5,1.9,3.4,1.9,5.9L18.3,15.4z M14.1,26.7
	c-0.1,0-0.1,0-0.2,0c-0.1,0-0.1,0-0.2,0c-0.5-0.5-1.5-1.8-2.2-3.9h4.8C15.5,24.8,14.6,26.2,14.1,26.7z M11.1,22
	c-0.6-1.7-1-3.6-1-5.8l7.4,0.1c0,2.2-0.5,4.1-1,5.7C16.6,22,11.1,22,11.1,22z M10,15.3c0-2.2,0.5-4.1,1.1-5.7h5.3
	c0.5,1.7,1,3.6,1,5.8L10,15.3z M13.8,4.8C13.8,4.8,13.9,4.8,13.8,4.8c0.1,0,0.1,0,0.1,0c0.5,0.2,1.5,1.7,2.2,3.9h-4.7
	C12.3,6.6,13.3,5.2,13.8,4.8z M17,8.8c-0.6-1.6-1.2-2.9-1.8-3.8c1.5,0.5,3,1.6,4.4,3c0.2,0.2,0.4,0.5,0.6,0.7H17z M10.5,8.8H7.7
	C9.1,7,10.9,5.5,12.4,5C11.8,5.9,11.1,7.1,10.5,8.8z M10.3,9.5c-0.6,1.7-1,3.6-1,5.7H5.4c0.1-2.1,0.8-4,1.8-5.7H10.3z M4.5,15.2H2.9
	c0.1-2.1,0.7-4,1.9-5.7h1.3C5.2,11.3,4.6,13.3,4.5,15.2z M5.3,16h3.9c0,2.1,0.5,4.1,1,5.8h-3C6,20.3,5.4,18.2,5.3,16z M10.5,22.8
	c0.6,1.6,1.3,2.9,1.9,3.8c0,0,0,0-0.1,0c-1.6-0.6-3.4-1.9-4.7-3.8H10.5z M15.2,26.6c0.6-0.8,1.3-2.2,1.8-3.8h3.1
	c-0.2,0.4-0.5,0.6-0.7,0.8C18.3,25,16.7,26.1,15.2,26.6C15.4,26.6,15.2,26.6,15.2,26.6z M17.3,22c0.5-1.7,0.8-3.6,0.8-5.7h4.6
	c-0.1,2.3-1,4.2-1.9,5.7C20.8,22,17.3,22,17.3,22z M23.7,16.3h1.1c-0.1,2.1-0.8,4-1.9,5.7h-1C23,20.2,23.6,18.2,23.7,16.3z
	 M23.7,15.4c-0.1-2.1-0.7-4-1.8-5.9H23c1.2,1.7,1.8,3.8,1.9,5.9H23.7z M22.2,8.8h-1c-0.4-0.5-0.7-0.8-1.1-1.3
	c-0.5-0.6-1.1-1.1-1.7-1.6C20,6.5,21.3,7.5,22.2,8.8z M9.5,5.8C8.9,6.2,8.3,6.8,7.7,7.5C7.4,7.8,7,8.3,6.8,8.8H5.6
	C6.5,7.5,8,6.4,9.5,5.8z M5.6,22.8h1.2c0.4,0.5,0.6,1,1.1,1.3c0.5,0.5,1,1,1.5,1.5C7.7,24.9,6.5,23.9,5.6,22.8z M18.9,25.5
	c0.5-0.4,1-0.8,1.3-1.3c0.4-0.5,0.7-1,1.1-1.5h1C21.3,23.9,20.1,24.8,18.9,25.5z"/>
</svg>
