<?xml version="1.0" encoding="utf-8"?>
<!-- Generator: Adobe Illustrator 19.2.1, SVG Export Plug-In . SVG Version: 6.00 Build 0)  -->
<svg version="1.1" id="Layer_1" xmlns="http://www.w3.org/2000/svg" xmlns:xlink="http://www.w3.org/1999/xlink" x="0px" y="0px"
	 viewBox="0 0 140.4 156.7" style="enable-background:new 0 0 140.4 156.7;" xml:space="preserve">
<style type="text/css">
	.st0{fill:#231F20;}
</style>
<path class="st0" d="M30.6,41.6c7.8-12.7,18.8-22,29.1-25.7C42.4,18.4,27.4,28,17.5,41.6H30.6z"/>
<path class="st0" d="M19.7,77c0.3-11.3,3.5-21.9,8.4-31H14.6c-5.5,9.1-8.8,19.7-9.1,31H19.7z"/>
<g>
	<path class="st0" d="M30.7,115.8H17.4c9.9,13.8,25.2,23.5,42.7,26C49.8,138,38.7,128.6,30.7,115.8z"/>
	<path class="st0" d="M28.1,111.4c-4.8-8.9-8-19.1-8.4-30H5.5c0.4,10.9,3.7,21.2,9,30H28.1z"/>
</g>
<path class="st0" d="M52.5,41.6c4.2-13.3,9.8-22.9,13.9-26.2c-10.6,1.5-23,11.5-31.5,26.2H52.5z"/>
<path class="st0" d="M46.7,77c0.2-11.3,1.9-21.9,4.4-31H32.5c-4.5,9.1-7.5,19.7-7.8,31H46.7z"/>
<g>
	<path class="st0" d="M50.9,111.4c-2.3-8.9-3.9-19.1-4.2-30h-22c0.4,10.9,3.4,21.2,7.8,30H50.9z"/>
	<path class="st0" d="M52.1,115.8H34.9c8.5,14.6,20.9,24.6,31.1,26.3C61.6,138.7,56.1,129,52.1,115.8z"/>
</g>
<path class="st0" d="M81.3,41.6c-4-16-9.7-26.4-12.3-26.4c-2.9,0-8.4,10.5-12.4,26.4H81.3z"/>
<path class="st0" d="M85.9,77c-0.1-11.3-1.6-21.9-3.6-31H55.6c-2,9.1-3.3,19.7-3.5,31H85.9z"/>
<g>
	<path class="st0" d="M82.8,111.4c1.8-8.9,3-19.1,3.1-30H52.2c0.2,10.9,1.4,21.2,3.3,30H82.8z"/>
	<path class="st0" d="M56.4,115.8c3.8,16.1,9.3,26.6,12.6,26.6c3.7,0,9.1-10.5,12.8-26.6H56.4z"/>
</g>
<path class="st0" d="M85.5,41.6h17.6c-8.7-14.7-21.2-24.8-31.5-26.2C75.5,18.7,81.2,28.3,85.5,41.6z"/>
<path class="st0" d="M113.4,77c-0.3-11.3-3.4-21.9-7.9-31H86.8c2.6,9.1,4.4,19.7,4.6,31H113.4z"/>
<g>
	<path class="st0" d="M105.6,111.4c4.4-8.9,7.4-19.1,7.8-30h-22c-0.2,10.9-1.8,21.1-4,30H105.6z"/>
	<path class="st0" d="M86.2,115.8c-3.9,13.2-9.3,22.9-13.8,26.3c10.3-1.8,22.5-11.8,30.9-26.3H86.2z"/>
</g>
<path class="st0" d="M107.3,41.6h13.3C110.6,27.9,95.4,18.3,78,15.8C88.2,19.5,99.3,28.9,107.3,41.6z"/>
<path class="st0" d="M132.6,77c-0.3-11.3-3.6-21.9-9.1-31h-13.6c4.9,9.1,8.2,19.7,8.5,31H132.6z"/>
<g>
	<path class="st0" d="M123.6,111.4c5.3-8.9,8.6-19.1,9-30h-14.2c-0.4,10.9-3.6,21.1-8.3,30H123.6z"/>
	<path class="st0" d="M107.5,115.8c-8,12.8-19.1,22.2-29.3,25.9c17.4-2.5,32.6-12.2,42.5-25.9H107.5z"/>
</g>
</svg>
