<?xml version="1.0" encoding="utf-8"?>
<!-- Generator: Adobe Illustrator 19.2.1, SVG Export Plug-In . SVG Version: 6.00 Build 0)  -->
<svg version="1.1" id="Layer_1" xmlns="http://www.w3.org/2000/svg" xmlns:xlink="http://www.w3.org/1999/xlink" x="0px" y="0px"
	 viewBox="0 0 27.6 30.8" style="enable-background:new 0 0 27.6 30.8;" xml:space="preserve">
<style type="text/css">
	.st0{fill:#FFFFFF;}
</style>
<g>
	<path class="st0" d="M5,10.7c0-5,4.2-7.2,9-7.2c4.8,0,9.1,2.1,9,7.1c0,4.9-4.5,5.4-6.4,6.7c-0.9,0.6-1.3,1.6-1.3,3.1v0.2h-4.4v-0.2
		c0-4.6,1.9-5.7,3.7-6.6c1.8-0.9,3.8-1.2,3.8-3.2C18.4,8,16,7.3,14,7.3c-2.2,0-4.4,1.2-4.4,3.3H5z M15.8,24.7c0,3.5-5.4,3.5-5.4,0
		C10.4,21.1,15.8,21.1,15.8,24.7z"/>
</g>
</svg>
