<?xml version="1.0" encoding="utf-8"?>
<!-- Generator: Adobe Illustrator 19.2.1, SVG Export Plug-In . SVG Version: 6.00 Build 0)  -->
<svg version="1.1" id="Layer_1" xmlns="http://www.w3.org/2000/svg" xmlns:xlink="http://www.w3.org/1999/xlink" x="0px" y="0px"
	 viewBox="0 0 27.6 30.8" style="enable-background:new 0 0 27.6 30.8;" xml:space="preserve">
<style type="text/css">
	.st0{fill:#231F20;}
</style>
<g>
	<polygon class="st0" points="13.4,3.6 8.9,3.6 8.8,5.1 13.6,5.1 	"/>
	<path class="st0" d="M22.8,22.3L22.8,22.3c0.1-0.1,0.1-0.3,0-2.1s0-2.9,0-2.9c0.3-5.5-1.4-11.8-1.4-11.8c0.4-0.9,0-1.2,0-1.2
		c-1.1-0.9-1.8-0.8-2.6-0.7s-3.7,1.8-4.2,2c-0.5,0.2-0.9,0.2-0.9,0.2c-0.1-0.1-0.1-0.2-0.1-0.2H8.7v0.1c0,1.1-0.3,1.5-0.3,1.5
		s-2.8,5.9-3.1,6.7S5,15.6,5,15.6v0.6l0.1,0.1v0.5L5,16.9v1.4v0.1v0.4v0.1v1.4l0.1,0.1v0.4L5,20.9v1.5l0.1,0.1v0.4L5,23v1.5l0.1,0.1
		V25L5,25.1v1.4c0,1.5,1.4,1.6,1.4,1.6c8.8,0.1,12.8,0,14.5,0s1.9-1.5,1.9-1.5V25h-0.1v-0.5h0.1V23h-0.1v-0.7H22.8z M19.7,15.1
		c-0.8,0-0.9-0.6-0.9-0.6c-0.8-3.5-1.6-5.4-1.7-6c-0.2-0.6,0.2-1,0.2-1l1.4-1c0.3-0.1,0.5,0.2,0.5,0.2c1.3,2.9,1.4,7,1.4,7.4
		S20.5,15,19.7,15.1z"/>
</g>
</svg>
