<?xml version="1.0" encoding="utf-8"?>
<!-- Generator: Adobe Illustrator 19.2.1, SVG Export Plug-In . SVG Version: 6.00 Build 0)  -->
<svg version="1.1" id="Layer_1" xmlns="http://www.w3.org/2000/svg" xmlns:xlink="http://www.w3.org/1999/xlink" x="0px" y="0px"
	 viewBox="0 0 27.6 30.8" style="enable-background:new 0 0 27.6 30.8;" xml:space="preserve">
<style type="text/css">
	.st0{fill:#FFFFFF;}
</style>
<ellipse class="st0" cx="14" cy="5.4" rx="8.8" ry="2.2"/>
<path class="st0" d="M5.2,22.5c0,1.2,3.9,3.2,8.8,3.2s8.8-2,8.8-3.2v-7c0,1.2-3.9,2.7-8.8,2.7s-8.8-1.5-8.8-2.7V22.5z"/>
<path class="st0" d="M5.2,24.4c0,1.2,3.9,3.2,8.8,3.2s8.8-2,8.8-3.2v-1c0,1.2-3.9,3.2-8.8,3.2s-8.8-2-8.8-3.2V24.4z"/>
<path class="st0" d="M5.2,6.4c0,1.2,3.9,2.2,8.8,2.2s8.8-1,8.8-2.2v-1c0,1.2-3.9,2.2-8.8,2.2s-8.8-1-8.8-2.2V6.4z"/>
<path class="st0" d="M5.2,14.5c0,1.2,3.9,2.7,8.8,2.7s8.8-1.5,8.8-2.7V7.3c0,1.2-3.9,2.2-8.8,2.2s-8.8-1-8.8-2.2V14.5z"/>
</svg>
