<?xml version="1.0" encoding="utf-8"?>
<!-- Generator: Adobe Illustrator 19.2.1, SVG Export Plug-In . SVG Version: 6.00 Build 0)  -->
<svg version="1.1" id="Layer_1" xmlns="http://www.w3.org/2000/svg" xmlns:xlink="http://www.w3.org/1999/xlink" x="0px" y="0px"
	 viewBox="0 0 50 50" style="enable-background:new 0 0 50 50;" xml:space="preserve">
<style type="text/css">
	.st0{fill:none;stroke:#FFFFFF;stroke-width:0.75;stroke-miterlimit:10;}
	.st1{fill:none;stroke:#FFFFFF;stroke-width:0.75;stroke-linejoin:round;stroke-miterlimit:10;}
</style>
<g id="bridge">
	<path class="st0" d="M9.7,36c1.6-7.3,7.9-12.4,15.3-12.4S38.6,28.7,40.3,36"/>
	<path class="st1" d="M6.8,21.1c0.6,0,1.1,0.5,1.1,1.1L7.8,35.1c1.8-7.8,8.9-13.3,17.2-13.3s15.4,5.5,17.2,13.3l-0.1-12.9
		c0-0.6,0.5-1.1,1.1-1.1"/>
	<path class="st0" d="M9.6,30.6v-8.3c0-0.6,0.5-1.1,1.1-1.1s1.1,0.5,1.1,1.1v5.1"/>
	<path class="st0" d="M13.6,25.9v-3.7c0-0.6,0.5-1.1,1.1-1.1s1.1,0.5,1.1,1.1v2"/>
	<path class="st0" d="M19.8,22.2c0-0.6-0.5-1.1-1.1-1.1s-1.1,0.5-1.1,1.1v1.1"/>
	<path class="st0" d="M40.4,30.6v-8.3c0-0.6-0.5-1.1-1.1-1.1s-1.1,0.5-1.1,1.1v5.1"/>
	<path class="st0" d="M36.4,25.9v-3.7c0-0.6-0.5-1.1-1.1-1.1s-1.1,0.5-1.1,1.1v2"/>
	<path class="st0" d="M30.2,22.2c0-0.6,0.5-1.1,1.1-1.1s1.1,0.5,1.1,1.1v1.1"/>
	<line class="st0" x1="6.8" y1="19.4" x2="43.2" y2="19.4"/>
	<line class="st0" x1="6.8" y1="17.9" x2="43.2" y2="17.9"/>
</g>
</svg>
