<?xml version="1.0" encoding="utf-8"?>
<!-- Generator: Adobe Illustrator 19.2.1, SVG Export Plug-In . SVG Version: 6.00 Build 0)  -->
<svg version="1.1" id="Layer_1" xmlns="http://www.w3.org/2000/svg" xmlns:xlink="http://www.w3.org/1999/xlink" x="0px" y="0px"
	 viewBox="0 0 50 50" style="enable-background:new 0 0 50 50;" xml:space="preserve">
<style type="text/css">
	.st0{fill:#FFFFFF;}
	.st1{fill:none;stroke:#FFFFFF;stroke-width:0.75;stroke-miterlimit:10;}
</style>
<g id="counter">
	<g>
		<g>
			<path class="st0" d="M33,23.6h-0.7v-0.7c0-1.5-1-2.8-2.3-3.2c-0.7-0.2-1.6-0.4-2.5-0.6v-1v-0.2c0.4-0.2,0.7-0.7,0.7-1.2
				c0-1.4-2.1-2.1-4.1-2.1S20,15.4,20,16.8c0,0.5,0.3,0.9,0.7,1.2v0.2v1c-0.9,0.1-1.7,0.3-2.4,0.6C16.9,20.3,16,21.5,16,23v5.5
				c0,0.8,0.6,1.4,1.4,1.4v0.7c0,0.4,0.3,0.7,0.7,0.7H20c0.4,0,0.7-0.3,0.7-0.7v-0.7h6.8v0.7c0,0.4,0.3,0.7,0.7,0.7h2.1
				c0.4,0,0.7-0.3,0.7-0.7v-0.7c0.8,0,1.4-0.6,1.4-1.4v-2.1H33c0.4,0,0.7-0.3,0.7-0.7v-1.4C33.7,23.9,33.4,23.6,33,23.6z M20.7,16.8
				c0-0.8,1.5-1.4,3.4-1.4s3.4,0.6,3.4,1.4c0,0.2-0.1,0.5-0.3,0.6l-0.3,0.2V18v0.2V19c-0.9-0.1-1.8-0.2-2.7-0.2
				c-1,0-1.9,0.1-2.7,0.2v-0.9v-0.2v-0.4L21,17.4C20.8,17.2,20.7,17,20.7,16.8z M20,30.5h-2.1v-0.7H20V30.5z M30.2,30.5h-2.1v-0.7
				h2.1V30.5z M30.9,29.1H17.2c-0.2,0-0.4-0.1-0.5-0.2s-0.2-0.3-0.2-0.5v-5.5c0-1.2,0.8-2.2,1.9-2.6c1.7-0.6,3.6-0.8,5.7-0.8
				c2,0,4,0.3,5.7,0.8c1.1,0.4,1.9,1.4,1.9,2.6v5.5C31.6,28.8,31.3,29.1,30.9,29.1z M33,25.7h-0.7v-1.4H33V25.7z"/>
		</g>
	</g>
	<path class="st1" d="M45,34H5c-0.6,0-1-0.4-1-1v-1.1c0-0.6,0.4-1,1-1h40c0.5,0,1,0.4,1,1V33C46,33.5,45.5,34,45,34z"/>
</g>
</svg>
