<?xml version="1.0" encoding="utf-8"?>
<!-- Generator: Adobe Illustrator 19.2.1, SVG Export Plug-In . SVG Version: 6.00 Build 0)  -->
<svg version="1.1" id="Layer_1" xmlns="http://www.w3.org/2000/svg" xmlns:xlink="http://www.w3.org/1999/xlink" x="0px" y="0px"
	 viewBox="0 0 50 50" style="enable-background:new 0 0 50 50;" xml:space="preserve">
<style type="text/css">
	.st0{fill:none;stroke:#FFFFFF;stroke-width:0.75;stroke-linecap:round;stroke-linejoin:round;stroke-miterlimit:10;}
</style>
<g id="patio">
	<path class="st0" d="M7.8,17.9L24.7,9l17.5,8.8c0,0-10.4-4.5-16.4,2.2C25.8,19.9,18.5,13.3,7.8,17.9z"/>
	<ellipse class="st0" cx="24.8" cy="30" rx="11.6" ry="1.4"/>
	<path class="st0" d="M13.2,30v0.9c0,0.8,5.2,1.4,11.6,1.4s11.6-0.6,11.6-1.4V30"/>
	<line class="st0" x1="24.9" y1="29.8" x2="24.9" y2="19.4"/>
	<line class="st0" x1="24.8" y1="37.6" x2="24.8" y2="32.6"/>
	<path class="st0" d="M29.1,41.1c0,0.5-1.8,0.8-4.1,0.8s-4.1-0.4-4.1-0.8l3.9-3.3L29.1,41.1z"/>
	<path class="st0" d="M17.9,16.5c0,0,3.2,0.9,3.8,2.1l0.7-0.7"/>
	<line class="st0" x1="24.7" y1="9.1" x2="24.7" y2="6.9"/>
</g>
</svg>
