<?xml version="1.0" encoding="utf-8"?>
<!-- Generator: Adobe Illustrator 19.2.1, SVG Export Plug-In . SVG Version: 6.00 Build 0)  -->
<svg version="1.1" id="Layer_1" xmlns="http://www.w3.org/2000/svg" xmlns:xlink="http://www.w3.org/1999/xlink" x="0px" y="0px"
	 viewBox="0 0 50 50" style="enable-background:new 0 0 50 50;" xml:space="preserve">
<style type="text/css">
	.st0{fill:none;stroke:#FFFFFF;stroke-width:0.75;stroke-linecap:round;stroke-linejoin:round;}
</style>
<g id="pool">
	<g>
		<g>
			<g>
				<path class="st0" d="M42.1,32.6c-0.8-0.4-1.6-0.9-2.6-1.2c-0.4-0.1-0.8-0.1-1.1-0.1c-1.6,0-3.1,0.8-4.4,1.5
					c-1,0.6-2,0.9-2.8,0.9c-0.4,0-0.8-0.1-1.2-0.2c-0.6-0.2-1.1-0.5-1.6-0.8c-1.1-0.6-2.2-1.2-3.5-1.3c-0.1,0-0.2,0-0.3,0
					c-1.4,0-2.7,0.7-3.9,1.4c-0.4,0.2-0.7,0.4-1.1,0.6c-0.6,0.3-1.2,0.4-1.8,0.4c-0.7,0-1.5-0.2-2.2-0.5c-0.2-0.1-0.4-0.2-0.6-0.3
					l0,0c-1.3-0.7-2.7-1.4-4.1-1.4c-0.2,0-0.4,0-0.6,0C9,31.5,8,32,7,32.6"/>
				<path class="st0" d="M42.1,37c-0.8-0.4-1.6-0.9-2.6-1.2c-0.4-0.1-0.8-0.1-1.1-0.1c-1.6,0-3.1,0.8-4.4,1.5c-1,0.6-2,0.9-2.8,0.9
					c-0.4,0-0.8-0.1-1.2-0.2c-0.6-0.2-1.1-0.5-1.6-0.8c-1.1-0.6-2.2-1.2-3.5-1.3c-0.1,0-0.2,0-0.3,0c-1.4,0-2.7,0.7-3.9,1.4
					c-0.4,0.2-0.7,0.4-1.1,0.6C19,37.9,18.3,38,17.7,38c-0.7,0-1.5-0.2-2.2-0.5c-0.2-0.1-0.4-0.2-0.6-0.3l0,0
					c-1.3-0.7-2.7-1.4-4.1-1.4c-0.2,0-0.4,0-0.6,0C9,35.9,8,36.5,7,37"/>
				<g>
					<path class="st0" d="M26.2,11c-0.6-0.2-1.2-0.3-1.8-0.3c-2.7,0-4.8,2.2-4.8,4.8v14.3"/>
					<path class="st0" d="M36,11c-0.6-0.2-1.2-0.3-1.8-0.3c-2.7,0-4.8,2.2-4.8,4.8v14.3"/>
				</g>
				<line class="st0" x1="29.2" y1="18" x2="19.7" y2="18"/>
				<line class="st0" x1="19.7" y1="22.6" x2="29.2" y2="22.6"/>
				<line class="st0" x1="29.2" y1="27.1" x2="19.7" y2="27.1"/>
			</g>
		</g>
	</g>
</g>
</svg>
