<?xml version="1.0" encoding="utf-8"?>
<!-- Generator: Adobe Illustrator 19.2.1, SVG Export Plug-In . SVG Version: 6.00 Build 0)  -->
<svg version="1.1" id="Layer_1" xmlns="http://www.w3.org/2000/svg" xmlns:xlink="http://www.w3.org/1999/xlink" x="0px" y="0px"
	 viewBox="0 0 50 50" style="enable-background:new 0 0 50 50;" xml:space="preserve">
<style type="text/css">
	.st0{fill:none;stroke:#FFFFFF;stroke-width:0.75;stroke-miterlimit:10;}
	.st1{fill:none;stroke:#FFFFFF;stroke-width:0.75;stroke-linecap:round;stroke-miterlimit:10;}
</style>
<g id="shop_floor_1_">
	<g>
		<g>
			<circle class="st0" cx="17.1" cy="23.4" r="1.8"/>
			<circle class="st0" cx="33.2" cy="23.4" r="1.8"/>
		</g>
		<line class="st1" x1="21.5" y1="22.5" x2="28.8" y2="22.5"/>
		<line class="st1" x1="21.5" y1="24.3" x2="28.8" y2="24.3"/>
		<path class="st1" d="M32.5,18.2H17.9c-0.4,0-0.7-0.3-0.7-0.7l1.8-5.2c0-0.4,0.6-0.7,1-0.7h10.5c0.4,0,1,0.3,1,0.7l1.8,5.2
			C33.2,17.9,32.8,18.2,32.5,18.2z"/>
		<path class="st1" d="M12.5,26.6v-5.8c0-0.3,0.3-0.8,0.5-1l1.3-0.8c0.5-0.4,1.1-1.1,1.3-1.7l2.2-6.6c0.1-0.3,0.4-0.5,0.7-0.5h13.2
			c0.3,0,0.6,0.2,0.7,0.5l2.2,6.6c0.2,0.6,0.8,1.3,1.3,1.7l1.3,0.8c0.3,0.2,0.5,0.7,0.5,1v5.8c0,0.2-0.2,0.4-0.4,0.4H12.9
			C12.7,27,12.5,26.8,12.5,26.6z"/>
		<g>
			<path class="st1" d="M17.9,27v2.8c0,0.4-0.3,0.7-0.7,0.7h-2c-0.4,0-0.7-0.3-0.7-0.7V27"/>
			<path class="st1" d="M35.8,27v2.8c0,0.4-0.3,0.7-0.7,0.7h-2c-0.4,0-0.7-0.3-0.7-0.7V27"/>
		</g>
	</g>
	<g>
		<line class="st1" x1="10.6" y1="31.6" x2="39.7" y2="31.6"/>
		<line class="st1" x1="15.1" y1="31.6" x2="35.2" y2="40.9"/>
		<line class="st1" x1="35.2" y1="31.6" x2="15.1" y2="40.9"/>
	</g>
</g>
</svg>
