<?xml version="1.0" encoding="utf-8"?>
<!-- Generator: Adobe Illustrator 19.2.1, SVG Export Plug-In . SVG Version: 6.00 Build 0)  -->
<svg version="1.1" id="Layer_1" xmlns="http://www.w3.org/2000/svg" xmlns:xlink="http://www.w3.org/1999/xlink" x="0px" y="0px"
	 viewBox="0 0 50 50" style="enable-background:new 0 0 50 50;" xml:space="preserve">
<style type="text/css">
	.st0{fill:none;stroke:#FFFFFF;stroke-width:0.75;stroke-linecap:round;stroke-linejoin:round;stroke-miterlimit:10;}
</style>
<g id="wall_1_">
	<path class="st0" d="M42.8,36.6H7.1c-0.6,0-1-0.5-1-1V14.8c0-0.6,0.4-1,1-1h35.7c0.5,0,1,0.4,1,1v20.8
		C43.8,36.2,43.3,36.6,42.8,36.6z"/>
	<line class="st0" x1="43.8" y1="30.9" x2="6.1" y2="30.9"/>
	<line class="st0" x1="43.8" y1="25.2" x2="6.1" y2="25.2"/>
	<line class="st0" x1="43.8" y1="19.5" x2="6.1" y2="19.5"/>
	<line class="st0" x1="16.8" y1="19.4" x2="16.8" y2="13.8"/>
	<line class="st0" x1="27.4" y1="19.4" x2="27.4" y2="13.8"/>
	<line class="st0" x1="38" y1="19.4" x2="38" y2="13.8"/>
	<line class="st0" x1="16.8" y1="30.9" x2="16.8" y2="25.3"/>
	<line class="st0" x1="27.4" y1="30.9" x2="27.4" y2="25.3"/>
	<line class="st0" x1="38" y1="30.9" x2="38" y2="25.3"/>
	<line class="st0" x1="11.7" y1="25.1" x2="11.7" y2="19.5"/>
	<line class="st0" x1="22.3" y1="25.1" x2="22.3" y2="19.5"/>
	<line class="st0" x1="32.9" y1="25.1" x2="32.9" y2="19.5"/>
	<line class="st0" x1="11.7" y1="36.6" x2="11.7" y2="31"/>
	<line class="st0" x1="22.3" y1="36.6" x2="22.3" y2="31"/>
	<line class="st0" x1="32.9" y1="36.6" x2="32.9" y2="31"/>
</g>
</svg>
