<?xml version="1.0" encoding="utf-8"?>
<!-- Generator: Adobe Illustrator 22.1.0, SVG Export Plug-In . SVG Version: 6.00 Build 0)  -->
<svg version="1.1" id="Layer_1" xmlns="http://www.w3.org/2000/svg" xmlns:xlink="http://www.w3.org/1999/xlink" x="0px" y="0px"
	 viewBox="0 0 253.3 33.1" style="enable-background:new 0 0 253.3 33.1;" xml:space="preserve">
<style type="text/css">
	.st0{fill:#444444;}
	.st1{fill:#F7CE3C;}
</style>
<path class="st0" d="M15.2,28.8c0,0.1-0.1,0.4-0.4,0.9c-0.3,0.5-0.7,1-1.3,1.5c-1.2,1.1-2.9,1.7-5,1.7H7.3c-1.1,0-2.1-0.2-3-0.5
	S2.7,31.6,2,31c-0.6-0.6-1.1-1.3-1.5-2.2C0.2,28,0,27,0,26V13.6c0-1,0.2-1.9,0.5-2.8C1,10,1.5,9.3,2.1,8.7s1.4-1.1,2.3-1.4
	s1.9-0.5,3-0.5h1.2c1,0,1.9,0.1,2.7,0.4s1.5,0.6,2.1,1c0.6,0.4,1,0.8,1.4,1.3c0.3,0.5,0.5,0.9,0.5,1.3c0,0.1-0.1,0.2-0.2,0.3
	l-2.6,1.3c-0.1,0-0.1,0-0.2,0c-0.1,0-0.2-0.1-0.3-0.2c-0.5-0.6-0.9-1.1-1.4-1.6C10,10.3,9.4,10,8.5,10H7.3c-1,0-1.9,0.3-2.6,1
	s-1,1.6-1,2.6v12.5c0,1,0.3,1.9,1,2.6s1.6,1,2.6,1h1.2c0.5,0,0.9-0.1,1.3-0.3c0.4-0.2,0.7-0.4,0.9-0.6c0.5-0.5,0.8-1,1-1.3
	s0.4-0.5,0.5-0.5s0.1,0,0.2,0.1l2.5,1.3C15.2,28.6,15.2,28.7,15.2,28.8z"/>
<path class="st0" d="M36.2,32.2c0,0.2-0.1,0.3-0.4,0.3h-3.1l-0.4-0.3l-3.7-10.7l-0.3-0.2h-4c-0.3,0-0.4,0.1-0.4,0.4v10.4
	c0,0.3-0.1,0.4-0.4,0.4h-2.8c-0.3,0-0.4-0.1-0.4-0.4V7.6c0-0.3,0.1-0.4,0.4-0.4h8c2.2,0,4,0.6,5.3,1.9s1.9,3.1,1.9,5.3v0.4
	c0,0.7-0.2,1.5-0.6,2.3c-0.4,0.8-1,1.6-1.7,2.3c-0.4,0.3-0.7,0.6-1,0.7s-0.4,0.3-0.4,0.5c0,0.1,0,0.1,0,0.1L36.1,32
	C36.2,32.1,36.2,32.1,36.2,32.2z M32.3,14.1c0-1-0.3-1.9-1-2.6c-0.7-0.7-1.6-1-2.6-1h-4.4c-0.3,0-0.4,0.1-0.4,0.4v6.8
	c0,0.3,0.1,0.4,0.4,0.4h4.4c1,0,1.9-0.3,2.6-1s1-1.6,1-2.6V14.1z"/>
<path class="st0" d="M48.7,20.9v11.2c0,0.3-0.1,0.4-0.4,0.4h-2.8c-0.3,0-0.4-0.1-0.4-0.4V20.9l-7-13.1C38,7.6,38,7.5,38,7.5
	c0-0.2,0.1-0.3,0.4-0.3h3.3l0.4,0.2l4.4,9.2c0.1,0.2,0.2,0.3,0.4,0.3s0.3-0.1,0.4-0.3l4.4-9.2l0.4-0.2h3.3c0.3,0,0.4,0.1,0.4,0.3
	c0,0,0,0.1-0.1,0.3L48.7,20.9z"/>
<path class="st0" d="M74.1,32.5H60.5c-0.3,0-0.4-0.1-0.4-0.4V7.6c0-0.3,0.1-0.4,0.4-0.4h2.8c0.3,0,0.4,0.1,0.4,0.4v21.3
	c0,0.3,0.1,0.4,0.4,0.4h10c0.3,0,0.4,0.1,0.4,0.4v2.4C74.5,32.4,74.4,32.5,74.1,32.5z"/>
<path class="st0" d="M82.3,32.5h-2.8c-0.3,0-0.4-0.1-0.4-0.4V7.6c0-0.3,0.1-0.4,0.4-0.4h2.8c0.3,0,0.4,0.1,0.4,0.4v24.5
	C82.7,32.4,82.6,32.5,82.3,32.5z"/>
<path class="st1" d="M188.3,31c-1.3,1.3-3.2,1.9-5.4,1.9h-1.2c-1,0-1.8-0.1-2.7-0.3c-0.8-0.2-1.4-0.5-1.8-0.8
	c-0.8-0.6-1.4-1.2-1.7-1.7c-0.4-0.5-0.6-0.9-0.6-1.3c0-0.1,0.1-0.2,0.2-0.3l2.6-1.3c0.1-0.1,0.2-0.1,0.2-0.1c0.1,0,0.2,0.1,0.4,0.3
	c0.2,0.3,0.5,0.6,0.7,0.9s0.4,0.5,0.7,0.7c0.2,0.2,0.5,0.4,0.8,0.5s0.7,0.2,1.2,0.2h1.2c1,0,1.8-0.3,2.7-1c0.7-0.7,1.1-1.6,1.1-2.7
	v-1.4c0-1-0.4-1.9-1.1-2.7c-0.7-0.7-1.6-1-2.7-1h-6.5c-0.3,0-0.4-0.1-0.4-0.4V7.1c0-0.3,0.1-0.4,0.4-0.4h13.1c0.3,0,0.4,0.1,0.4,0.4
	v2.4c0,0.3-0.1,0.4-0.4,0.4h-9.4c-0.3,0-0.4,0.1-0.4,0.4V17c0,0.3,0.1,0.4,0.4,0.4h2.9c2.3,0,4.1,0.6,5.4,1.9
	c1.3,1.3,1.9,3.1,1.9,5.3v0.8C190.3,27.9,189.6,29.6,188.3,31z"/>
<path class="st1" d="M208.5,31c-1.3,1.3-3.2,1.9-5.4,1.9h-1.2c-1,0-1.8-0.1-2.7-0.3c-0.8-0.2-1.4-0.5-1.8-0.8
	c-0.8-0.6-1.4-1.2-1.7-1.7c-0.4-0.5-0.6-0.9-0.6-1.3c0-0.1,0.1-0.2,0.2-0.3l2.6-1.3c0.1-0.1,0.2-0.1,0.2-0.1c0.1,0,0.2,0.1,0.4,0.3
	c0.2,0.3,0.5,0.6,0.7,0.9s0.4,0.5,0.7,0.7c0.2,0.2,0.5,0.4,0.8,0.5s0.7,0.2,1.2,0.2h1.2c1,0,1.8-0.3,2.7-1c0.7-0.7,1.1-1.6,1.1-2.7
	v-1.4c0-1-0.4-1.9-1.1-2.7c-0.7-0.7-1.6-1-2.7-1h-6.5c-0.3,0-0.4-0.1-0.4-0.4V7.1c0-0.3,0.1-0.4,0.4-0.4h13.2c0.3,0,0.4,0.1,0.4,0.4
	v2.4c0,0.3-0.1,0.4-0.4,0.4h-9.5c-0.3,0-0.4,0.1-0.4,0.4V17c0,0.3,0.1,0.4,0.4,0.4h2.9c2.3,0,4.1,0.6,5.4,1.9
	c1.3,1.3,1.9,3.1,1.9,5.3v0.8C210.4,27.9,209.8,29.6,208.5,31z"/>
<path class="st1" d="M231.1,28.8c-0.3,0.8-0.8,1.6-1.5,2.2c-0.6,0.6-1.4,1.1-2.3,1.4c-0.9,0.3-1.9,0.5-3.1,0.5H223
	c-1.1,0-2.1-0.2-3.1-0.5c-0.9-0.3-1.6-0.8-2.3-1.4c-0.6-0.6-1.1-1.3-1.5-2.2c-0.3-0.8-0.5-1.8-0.5-2.9V13.2c0-1,0.2-1.9,0.5-2.9
	c0.3-0.8,0.8-1.6,1.5-2.2c0.6-0.6,1.4-1.1,2.3-1.4c0.9-0.3,1.9-0.5,3.1-0.5h1.2c1.1,0,2.1,0.2,3.1,0.5s1.6,0.8,2.3,1.4
	c0.6,0.6,1.1,1.3,1.5,2.2c0.3,0.8,0.5,1.8,0.5,2.9V26C231.6,27,231.4,28,231.1,28.8z M228,13.2c0-1-0.3-1.9-1-2.7s-1.6-1-2.7-1h-1.2
	c-1,0-1.9,0.3-2.7,1c-0.7,0.7-1,1.6-1,2.7V26c0,1,0.3,1.9,1,2.7c0.7,0.7,1.6,1,2.7,1h1.2c1,0,1.9-0.3,2.7-1c0.7-0.7,1-1.6,1-2.7
	V13.2z"/>
<path class="st1" d="M252.5,28.8c-0.3,0.8-0.8,1.6-1.5,2.2c-0.6,0.6-1.4,1.1-2.3,1.4c-0.9,0.3-1.9,0.5-3.1,0.5h-1.2
	c-1.1,0-2.1-0.2-3.1-0.5c-0.9-0.3-1.6-0.8-2.3-1.4c-0.6-0.6-1.1-1.3-1.5-2.2c-0.3-0.8-0.5-1.8-0.5-2.9V13.2c0-1,0.2-1.9,0.5-2.9
	c0.3-0.8,0.8-1.6,1.5-2.2c0.6-0.6,1.4-1.1,2.3-1.4c0.9-0.3,1.9-0.5,3.1-0.5h1.2c1.1,0,2.1,0.2,3.1,0.5s1.6,0.8,2.3,1.4
	c0.6,0.6,1.1,1.3,1.5,2.2c0.3,0.8,0.5,1.8,0.5,2.9V26C253.1,27,252.9,28,252.5,28.8z M249.4,13.2c0-1-0.3-1.9-1-2.7s-1.6-1-2.7-1
	h-1.2c-1,0-1.9,0.3-2.7,1c-0.7,0.7-1,1.6-1,2.7V26c0,1,0.3,1.9,1,2.7c0.7,0.7,1.6,1,2.7,1h1.2c1,0,1.9-0.3,2.7-1
	c0.7-0.7,1-1.6,1-2.7V13.2z"/>
<path class="st0" d="M95.7,21.1H89c-0.3,0-0.4-0.1-0.4-0.4V18c0-0.3,0.1-0.4,0.4-0.4h6.7c0.3,0,0.4,0.1,0.4,0.4v2.7
	C96.1,21,96.1,21.1,95.7,21.1z"/>
<path class="st0" d="M113,9.6h-4.8c-0.3,0-0.4,0.1-0.4,0.4v22.1c0,0.3-0.1,0.4-0.4,0.4h-2.9c-0.3,0-0.4-0.1-0.4-0.4V10
	c0-0.3-0.1-0.4-0.4-0.4h-4.8c-0.3,0-0.4-0.1-0.4-0.4V6.7c0-0.3,0.1-0.4,0.4-0.4h14.2c0.3,0,0.4,0.1,0.4,0.4v2.5
	C113.4,9.5,113.3,9.6,113,9.6z"/>
<path class="st0" d="M132.7,32.5h-14.2c-0.3,0-0.4-0.1-0.4-0.4V6.7c0-0.3,0.1-0.4,0.4-0.4h14.2c0.3,0,0.4,0.1,0.4,0.4v2.5
	c0,0.3-0.1,0.4-0.4,0.4h-10.4c-0.3,0-0.4,0.1-0.4,0.4v7.1c0,0.3,0.1,0.4,0.4,0.4h8.5c0.3,0,0.4,0.1,0.4,0.4v2.5
	c0,0.3-0.1,0.4-0.4,0.4h-8.5c-0.3,0-0.4,0.1-0.4,0.4v7.5c0,0.3,0.1,0.4,0.4,0.4h10.4c0.3,0,0.4,0.1,0.4,0.4V32
	C133.2,32.4,133.1,32.5,132.7,32.5z"/>
<path class="st0" d="M157.9,32.2c0,0.2-0.1,0.3-0.4,0.3h-3.7l-0.3-0.2L146,20.2c-0.8,0.9-1.7,2.1-2.8,3.6v8.3c0,0.3-0.1,0.4-0.4,0.4
	h-2.9c-0.3,0-0.4-0.1-0.4-0.4V6.7c0-0.3,0.1-0.4,0.4-0.4h2.9c0.3,0,0.4,0.1,0.4,0.4v11c0,0.3,0.1,0.5,0.4,0.5c0.1,0,0.2-0.1,0.4-0.2
	l8.7-11.5l0.3-0.2h3.5c0.3,0,0.5,0.1,0.5,0.3c0,0.1,0,0.2-0.1,0.3l-8,9.8c-0.1,0.1-0.1,0.1-0.1,0.2s0,0.2,0,0.2l9.1,14.7
	C157.7,32,157.9,32.1,157.9,32.2z"/>
<g>
	<path class="st0" d="M165.7,11.2c-0.2,0.4-0.4,0.7-0.7,1s-0.7,0.5-1.1,0.7c-0.4,0.2-0.9,0.2-1.4,0.2h-0.1c-0.5,0-1-0.1-1.4-0.2
		c-0.4-0.2-0.8-0.4-1.1-0.7s-0.5-0.6-0.7-1s-0.2-0.8-0.2-1.3V9.5c0-0.5,0.1-0.9,0.2-1.3c0.2-0.4,0.4-0.7,0.7-1s0.7-0.5,1.1-0.7
		c0.4-0.2,0.9-0.2,1.4-0.2h0.1c0.5,0,1,0.1,1.4,0.2c0.4,0.2,0.8,0.4,1.1,0.7c0.3,0.3,0.5,0.6,0.7,1c0.2,0.4,0.2,0.8,0.2,1.3v0.4
		C166,10.4,166,10.8,165.7,11.2z M165.5,9.5c0-0.8-0.3-1.4-0.8-1.9s-1.2-0.7-2.1-0.7h-0.1c-0.9,0-1.6,0.2-2.1,0.7s-0.8,1.1-0.8,1.9
		v0.4c0,0.8,0.3,1.4,0.8,1.9s1.2,0.7,2.1,0.7h0.1c0.9,0,1.6-0.2,2.1-0.7s0.8-1.1,0.8-1.9V9.5z M163.9,9.5c-0.1,0.1-0.1,0.2-0.2,0.3
		c-0.1,0.1-0.1,0.1-0.2,0.2c-0.1,0.1-0.1,0.1-0.1,0.2c0,0,0,0,0,0.1l0.5,0.9c0,0.1,0,0.1,0,0.1c0,0.1-0.1,0.2-0.2,0.2h-0.3
		c-0.1,0-0.1-0.1-0.2-0.1l-0.4-1c0,0-0.1-0.1-0.2-0.1h-0.5c-0.1,0-0.2,0.1-0.2,0.2v0.9c0,0.1-0.1,0.2-0.2,0.2h-0.2
		c-0.1,0-0.2-0.1-0.2-0.2V8c0-0.1,0.1-0.2,0.2-0.2h1.2c0.4,0,0.7,0.1,0.9,0.3c0.2,0.2,0.3,0.5,0.3,0.9v0.1
		C164,9.3,164,9.4,163.9,9.5z M163.4,9c0-0.2-0.1-0.3-0.2-0.4c-0.1-0.1-0.2-0.2-0.4-0.2h-0.6c-0.1,0-0.2,0.1-0.2,0.2v0.9
		c0,0.1,0.1,0.2,0.2,0.2h0.6c0.2,0,0.3-0.1,0.4-0.2C163.2,9.4,163.4,9.2,163.4,9L163.4,9z"/>
</g>
</svg>
