<?xml version="1.0" encoding="utf-8"?>
<!-- Generator: Adobe Illustrator 22.1.0, SVG Export Plug-In . SVG Version: 6.00 Build 0)  -->
<svg version="1.1" id="Layer_1" xmlns="http://www.w3.org/2000/svg" xmlns:xlink="http://www.w3.org/1999/xlink" x="0px" y="0px"
	 viewBox="0 0 233.2 33.1" style="enable-background:new 0 0 233.2 33.1;" xml:space="preserve">
<style type="text/css">
	.st0{fill:#444444;}
	.st1{fill:#8A8C8E;}
</style>
<g>
	<path class="st0" d="M15.2,32.7H1.4c-0.3,0-0.4-0.1-0.4-0.4V7.4C1,7.2,1.1,7,1.4,7h13.8c0.3,0,0.4,0.1,0.4,0.4v2.4
		c0,0.3-0.1,0.4-0.4,0.4H5.1c-0.3,0-0.4,0.1-0.4,0.4v6.9c0,0.3,0.1,0.4,0.4,0.4h8.4c0.3,0,0.4,0.1,0.4,0.4v2.4
		c0,0.3-0.1,0.4-0.4,0.4H5.1c-0.3,0-0.4,0.1-0.4,0.4V29c0,0.3,0.1,0.4,0.4,0.4h10.2c0.3,0,0.4,0.1,0.4,0.4v2.4
		C15.7,32.6,15.5,32.7,15.2,32.7z"/>
	<path class="st0" d="M33.9,28.9c0,0.1-0.1,0.4-0.4,0.9s-0.7,1-1.3,1.6c-1.2,1.1-2.9,1.7-5.1,1.7h-1.2c-1.1,0-2.1-0.2-3-0.5
		c-0.9-0.3-1.7-0.8-2.3-1.4c-0.6-0.6-1.1-1.3-1.5-2.2s-0.5-1.8-0.5-2.8V13.5c0-1,0.2-2,0.5-2.8c0.4-0.9,0.8-1.6,1.5-2.2
		c0.6-0.6,1.4-1.1,2.3-1.4c0.9-0.3,1.9-0.5,3-0.5h1.2c1,0,1.9,0.1,2.7,0.4s1.5,0.6,2.1,1c0.6,0.4,1.1,0.8,1.4,1.3
		c0.3,0.5,0.5,0.9,0.5,1.3c0,0.1-0.1,0.2-0.2,0.3L31,12.4c-0.1,0-0.1,0-0.2,0c-0.1,0-0.2-0.1-0.3-0.2c-0.5-0.6-0.9-1.2-1.4-1.6
		c-0.5-0.4-1.1-0.7-2-0.7h-1.2c-1,0-1.9,0.4-2.6,1.1c-0.7,0.7-1.1,1.6-1.1,2.6v12.6c0,1,0.4,1.9,1.1,2.6c0.7,0.7,1.6,1.1,2.6,1.1
		h1.2c0.5,0,0.9-0.1,1.3-0.3c0.4-0.2,0.7-0.4,0.9-0.6c0.5-0.5,0.8-1,1-1.3c0.2-0.3,0.4-0.5,0.5-0.5c0.1,0,0.1,0,0.2,0.1l2.6,1.3
		C33.9,28.7,33.9,28.8,33.9,28.9z"/>
	<path class="st0" d="M52.1,29c-0.4,0.9-0.8,1.6-1.5,2.2c-0.6,0.6-1.4,1.1-2.3,1.4c-0.9,0.3-1.9,0.5-3,0.5h-1.2
		c-1.1,0-2.1-0.2-3-0.5c-0.9-0.3-1.7-0.8-2.3-1.4c-0.6-0.6-1.1-1.3-1.5-2.2c-0.4-0.9-0.5-1.8-0.5-2.8V13.5c0-1,0.2-2,0.5-2.8
		c0.4-0.9,0.8-1.6,1.5-2.2c0.6-0.6,1.4-1.1,2.3-1.4c0.9-0.3,1.9-0.5,3-0.5h1.2c1.1,0,2.1,0.2,3,0.5c0.9,0.3,1.7,0.8,2.3,1.4
		c0.6,0.6,1.1,1.3,1.5,2.2c0.4,0.9,0.5,1.8,0.5,2.8v12.6C52.7,27.2,52.5,28.2,52.1,29z M49,13.5c0-1-0.4-1.9-1.1-2.6
		c-0.7-0.7-1.6-1.1-2.6-1.1h-1.2c-1,0-1.9,0.4-2.6,1.1c-0.7,0.7-1.1,1.6-1.1,2.6v12.6c0,1,0.4,1.9,1.1,2.6c0.7,0.7,1.6,1.1,2.6,1.1
		h1.2c1,0,1.9-0.4,2.6-1.1c0.7-0.7,1.1-1.6,1.1-2.6V13.5z"/>
	<path class="st0" d="M63.8,21.7h-6.5c-0.3,0-0.4-0.1-0.4-0.4v-2.9c0-0.3,0.1-0.4,0.4-0.4h6.5c0.3,0,0.4,0.1,0.4,0.4v2.9
		C64.2,21.6,64,21.7,63.8,21.7z"/>
	<path class="st0" d="M83.2,32.7H69.3c-0.3,0-0.4-0.1-0.4-0.4V7.4c0-0.3,0.1-0.4,0.4-0.4h13.8c0.3,0,0.4,0.1,0.4,0.4v2.4
		c0,0.3-0.1,0.4-0.4,0.4H73c-0.3,0-0.4,0.1-0.4,0.4v6.9c0,0.3,0.1,0.4,0.4,0.4h8.4c0.3,0,0.4,0.1,0.4,0.4v2.4c0,0.3-0.1,0.4-0.4,0.4
		H73c-0.3,0-0.4,0.1-0.4,0.4V29c0,0.3,0.1,0.4,0.4,0.4h10.2c0.3,0,0.4,0.1,0.4,0.4v2.4C83.6,32.6,83.5,32.7,83.2,32.7z"/>
	<path class="st0" d="M100.4,10.3h-4.7c-0.3,0-0.4,0.1-0.4,0.4v21.6c0,0.3-0.1,0.4-0.4,0.4H92c-0.3,0-0.4-0.1-0.4-0.4V10.7
		c0-0.3-0.1-0.4-0.4-0.4h-4.7c-0.3,0-0.4-0.1-0.4-0.4V7.4c0-0.3,0.1-0.4,0.4-0.4h13.9c0.3,0,0.4,0.1,0.4,0.4v2.4
		C100.8,10.2,100.7,10.3,100.4,10.3z"/>
	<path class="st0" d="M118.6,28.9c0,0.1-0.1,0.4-0.4,0.9c-0.3,0.5-0.7,1-1.3,1.6c-1.2,1.1-2.9,1.7-5.1,1.7h-1.2
		c-1.1,0-2.1-0.2-3-0.5c-0.9-0.3-1.7-0.8-2.3-1.4c-0.6-0.6-1.1-1.3-1.5-2.2s-0.5-1.8-0.5-2.8V13.5c0-1,0.2-2,0.5-2.8
		c0.4-0.9,0.8-1.6,1.5-2.2c0.6-0.6,1.4-1.1,2.3-1.4c0.9-0.3,1.9-0.5,3-0.5h1.2c1,0,1.9,0.1,2.7,0.4c0.8,0.3,1.5,0.6,2.1,1
		c0.6,0.4,1.1,0.8,1.4,1.3c0.3,0.5,0.5,0.9,0.5,1.3c0,0.1-0.1,0.2-0.2,0.3l-2.6,1.3c-0.1,0-0.1,0-0.2,0c-0.1,0-0.2-0.1-0.3-0.2
		c-0.5-0.6-0.9-1.2-1.4-1.6c-0.5-0.4-1.1-0.7-2-0.7h-1.2c-1,0-1.9,0.4-2.6,1.1c-0.7,0.7-1.1,1.6-1.1,2.6v12.6c0,1,0.4,1.9,1.1,2.6
		c0.7,0.7,1.6,1.1,2.6,1.1h1.2c0.5,0,0.9-0.1,1.3-0.3c0.4-0.2,0.7-0.4,0.9-0.6c0.5-0.5,0.8-1,1-1.3c0.2-0.3,0.4-0.5,0.5-0.5
		c0.1,0,0.1,0,0.2,0.1l2.6,1.3C118.5,28.7,118.6,28.8,118.6,28.9z"/>
	<path class="st0" d="M138.8,32.7h-2.9c-0.3,0-0.4-0.1-0.4-0.4V21.7c0-0.3-0.1-0.4-0.4-0.4h-8.4c-0.3,0-0.4,0.1-0.4,0.4v10.6
		c0,0.3-0.1,0.4-0.4,0.4h-2.9c-0.3,0-0.4-0.1-0.4-0.4V7.4c0-0.3,0.1-0.4,0.4-0.4h2.9c0.3,0,0.4,0.1,0.4,0.4v10.2
		c0,0.3,0.1,0.4,0.4,0.4h8.4c0.3,0,0.4-0.1,0.4-0.4V7.4c0-0.3,0.1-0.4,0.4-0.4h2.9c0.3,0,0.4,0.1,0.4,0.4v24.8
		C139.2,32.6,139.1,32.7,138.8,32.7z"/>
	<path class="st0" d="M145,7.5h-0.5c-0.1,0-0.2,0.1-0.2,0.2v2.7c0,0.1-0.1,0.2-0.2,0.2h-0.2c-0.1,0-0.2-0.1-0.2-0.2V7.7
		c0-0.1-0.1-0.2-0.2-0.2h-0.5c-0.1,0-0.2-0.1-0.2-0.2V7.1c0-0.1,0.1-0.2,0.2-0.2h2.1c0.1,0,0.2,0.1,0.2,0.2v0.2
		C145.2,7.5,145.1,7.5,145,7.5z M149.1,10.6h-0.2c-0.1,0-0.2-0.1-0.2-0.2V9c0-0.2-0.1-0.2-0.2-0.2c-0.1,0-0.1,0-0.2,0.1l-0.5,0.8
		l-0.2,0.1h-0.1l-0.2-0.1l-0.5-0.8c-0.1-0.1-0.1-0.1-0.2-0.1c-0.1,0-0.2,0.1-0.2,0.2v1.4c0,0.1-0.1,0.2-0.2,0.2h-0.2
		c-0.1,0-0.2-0.1-0.2-0.2V7.1c0-0.1,0.1-0.2,0.2-0.2h0.2l0.2,0.1l0.9,1.6c0.1,0.1,0.1,0.1,0.2,0.1c0.1,0,0.1,0,0.2-0.1l0.9-1.6
		l0.2-0.1h0.2c0.1,0,0.2,0.1,0.2,0.2v3.3C149.3,10.5,149.2,10.6,149.1,10.6z"/>
	<path class="st1" d="M174.6,32.7H162c-0.3,0-0.4-0.1-0.4-0.4v-2.4c0-0.3,0.1-0.4,0.4-0.4h4.1c0.3,0,0.4-0.1,0.4-0.4V14.3
		c0-0.3-0.1-0.4-0.4-0.4c-0.1,0-0.2,0.1-0.3,0.2l-2,2c-0.1,0.1-0.2,0.2-0.3,0.2s-0.2-0.1-0.3-0.2l-1.8-1.8c-0.1-0.1-0.2-0.2-0.2-0.3
		c0-0.1,0.1-0.2,0.2-0.3l6.6-6.6l0.3-0.1h1.4c0.3,0,0.4,0.1,0.4,0.4V29c0,0.3,0.1,0.4,0.4,0.4h4.1c0.3,0,0.4,0.1,0.4,0.4v2.4
		C175,32.6,174.9,32.7,174.6,32.7z"/>
	<path class="st1" d="M192.9,29c-0.4,0.9-0.8,1.6-1.5,2.2c-0.6,0.6-1.4,1.1-2.3,1.4c-0.9,0.3-1.9,0.5-3,0.5h-1.2
		c-1.1,0-2.1-0.2-3-0.5c-0.9-0.3-1.7-0.8-2.3-1.4c-0.6-0.6-1.1-1.3-1.5-2.2s-0.5-1.8-0.5-2.8V13.5c0-1,0.2-2,0.5-2.8
		c0.4-0.9,0.8-1.6,1.5-2.2c0.6-0.6,1.4-1.1,2.3-1.4c0.9-0.3,1.9-0.5,3-0.5h1.2c1.1,0,2.1,0.2,3,0.5c0.9,0.3,1.7,0.8,2.3,1.4
		c0.6,0.6,1.1,1.3,1.5,2.2c0.4,0.9,0.5,1.8,0.5,2.8v12.6C193.4,27.2,193.3,28.2,192.9,29z M189.8,13.5c0-1-0.4-1.9-1.1-2.6
		c-0.7-0.7-1.6-1.1-2.6-1.1h-1.2c-1,0-1.9,0.4-2.6,1.1c-0.7,0.7-1.1,1.6-1.1,2.6v12.6c0,1,0.4,1.9,1.1,2.6c0.7,0.7,1.6,1.1,2.6,1.1
		h1.2c1,0,1.9-0.4,2.6-1.1c0.7-0.7,1.1-1.6,1.1-2.6V13.5z"/>
	<path class="st1" d="M214.2,29c-0.4,0.9-0.8,1.6-1.5,2.2c-0.6,0.6-1.4,1.1-2.3,1.4c-0.9,0.3-1.9,0.5-3,0.5h-1.2
		c-1.1,0-2.1-0.2-3-0.5c-0.9-0.3-1.7-0.8-2.3-1.4c-0.6-0.6-1.1-1.3-1.5-2.2c-0.4-0.9-0.5-1.8-0.5-2.8V13.5c0-1,0.2-2,0.5-2.8
		c0.4-0.9,0.8-1.6,1.5-2.2c0.6-0.6,1.4-1.1,2.3-1.4c0.9-0.3,1.9-0.5,3-0.5h1.2c1.1,0,2.1,0.2,3,0.5c0.9,0.3,1.7,0.8,2.3,1.4
		c0.6,0.6,1.1,1.3,1.5,2.2c0.4,0.9,0.5,1.8,0.5,2.8v12.6C214.7,27.2,214.6,28.2,214.2,29z M211.1,13.5c0-1-0.4-1.9-1.1-2.6
		c-0.7-0.7-1.6-1.1-2.6-1.1h-1.2c-1,0-1.9,0.4-2.6,1.1c-0.7,0.7-1.1,1.6-1.1,2.6v12.6c0,1,0.4,1.9,1.1,2.6c0.7,0.7,1.6,1.1,2.6,1.1
		h1.2c1,0,1.9-0.4,2.6-1.1c0.7-0.7,1.1-1.6,1.1-2.6V13.5z"/>
	<path class="st1" d="M232.3,32.7h-12.6c-0.3,0-0.4-0.1-0.4-0.4v-2.4c0-0.3,0.1-0.4,0.4-0.4h4.1c0.3,0,0.4-0.1,0.4-0.4V14.3
		c0-0.3-0.1-0.4-0.4-0.4c-0.1,0-0.2,0.1-0.3,0.2l-2,2c-0.1,0.1-0.2,0.2-0.3,0.2s-0.2-0.1-0.3-0.2l-1.8-1.8c-0.1-0.1-0.2-0.2-0.2-0.3
		c0-0.1,0.1-0.2,0.2-0.3l6.6-6.6L226,7h1.4c0.3,0,0.4,0.1,0.4,0.4V29c0,0.3,0.1,0.4,0.4,0.4h4.1c0.3,0,0.4,0.1,0.4,0.4v2.4
		C232.8,32.6,232.6,32.7,232.3,32.7z"/>
</g>
</svg>
