<?xml version="1.0" encoding="utf-8"?>
<!-- Generator: Adobe Illustrator 22.1.0, SVG Export Plug-In . SVG Version: 6.00 Build 0)  -->
<svg version="1.1" id="Layer_1" xmlns="http://www.w3.org/2000/svg" xmlns:xlink="http://www.w3.org/1999/xlink" x="0px" y="0px"
	 viewBox="0 0 170 33.1" style="enable-background:new 0 0 170 33.1;" xml:space="preserve">
<style type="text/css">
	.st0{fill:#444444;}
	.st1{fill:#FF611D;}
</style>
<path class="st0" d="M14.6,32.7H0.7c-0.3,0-0.4-0.1-0.4-0.4V7.4C0.3,7.2,0.5,7,0.7,7h13.9C14.9,7,15,7.2,15,7.4v2.4
	c0,0.3-0.1,0.4-0.4,0.4H4.4c-0.3,0-0.4,0.1-0.4,0.4v6.9C4,17.9,4.1,18,4.4,18h8.4c0.3,0,0.4,0.1,0.4,0.4v2.4c0,0.3-0.1,0.4-0.4,0.4
	H4.4c-0.3,0-0.4,0.1-0.4,0.4V29c0,0.3,0.1,0.4,0.4,0.4h10.2c0.3,0,0.4,0.1,0.4,0.4v2.4C15,32.6,14.9,32.7,14.6,32.7z"/>
<path class="st0" d="M34.5,9c1.3,1.3,2,3.1,2,5.4c0,1-0.2,2-0.5,2.8c-0.4,0.8-0.9,1.6-1.5,2.2s-1.4,1.1-2.3,1.4
	c-0.9,0.3-1.9,0.5-3,0.5h-4.5c-0.3,0-0.4,0.1-0.4,0.4v10.6c0,0.3-0.1,0.4-0.4,0.4H21c-0.3,0-0.4-0.1-0.4-0.4V7.4
	C20.5,7.2,20.7,7,21,7h8.2C31.4,7,33.2,7.7,34.5,9z M32.8,14c0-1-0.4-1.9-1.1-2.6c-0.7-0.7-1.6-1.1-2.6-1.1h-4.5
	c-0.3,0-0.4,0.1-0.4,0.4v6.9c0,0.3,0.1,0.4,0.4,0.4h4.5c1,0,1.9-0.4,2.6-1.1c0.7-0.7,1.1-1.6,1.1-2.6V14z"/>
<path class="st0" d="M56.2,29c-0.4,0.9-0.9,1.6-1.5,2.2s-1.4,1.1-2.3,1.4c-0.9,0.3-1.9,0.5-3,0.5h-1.2c-1.1,0-2.1-0.2-3-0.5
	s-1.7-0.8-2.3-1.4s-1.1-1.3-1.5-2.2c-0.4-0.9-0.5-1.8-0.5-2.8V13.5c0-1,0.2-2,0.5-2.8c0.4-0.9,0.8-1.6,1.5-2.2
	c0.6-0.6,1.4-1.1,2.3-1.4c0.9-0.3,1.9-0.5,3-0.5h1.2c1.1,0,2.1,0.2,3,0.5s1.7,0.8,2.3,1.4s1.1,1.3,1.5,2.2s0.5,1.8,0.5,2.8v12.6
	C56.7,27.2,56.6,28.2,56.2,29z M53.1,13.5c0-1-0.4-1.9-1.1-2.6c-0.7-0.7-1.6-1.1-2.6-1.1h-1.2c-1,0-1.9,0.4-2.6,1.1
	c-0.7,0.7-1.1,1.6-1.1,2.6v12.6c0,1,0.4,1.9,1.1,2.6c0.7,0.7,1.6,1.1,2.6,1.1h1.2c1,0,1.9-0.4,2.6-1.1c0.7-0.7,1.1-1.6,1.1-2.6V13.5
	z"/>
<path class="st0" d="M78.4,32.4c0,0.2-0.1,0.3-0.4,0.3h-3.5c-0.2,0-0.3-0.1-0.4-0.2l-4-8.6c-0.1-0.2-0.2-0.3-0.4-0.3
	c-0.2,0-0.3,0.1-0.4,0.3l-4.2,8.6l-0.4,0.2h-3.5c-0.3,0-0.4-0.1-0.4-0.3c0,0,0-0.1,0.1-0.3L67,20v-0.4l-6.2-12
	c-0.1-0.2-0.1-0.3-0.1-0.3c0-0.2,0.1-0.3,0.4-0.3h3.5L65,7.2l4.2,8.7c0.1,0.2,0.2,0.3,0.4,0.3c0.2,0,0.3-0.1,0.4-0.3l4-8.7
	C74.2,7.1,74.3,7,74.5,7H78c0.3,0,0.4,0.1,0.4,0.3c0,0.1,0,0.1-0.1,0.2l-6.1,12.1V20l6.1,12.1C78.4,32.3,78.4,32.3,78.4,32.4z"/>
<path class="st0" d="M92.7,20.9v11.4c0,0.3-0.1,0.4-0.4,0.4h-2.9c-0.3,0-0.4-0.1-0.4-0.4V20.9L82,7.6c-0.1-0.2-0.1-0.3-0.1-0.3
	C81.9,7.1,82,7,82.3,7h3.3L86,7.3l4.5,9.3c0.1,0.2,0.2,0.3,0.4,0.3s0.3-0.1,0.4-0.3l4.5-9.3L96.1,7h3.3c0.3,0,0.4,0.1,0.4,0.3
	c0,0,0,0.1-0.1,0.3L92.7,20.9z"/>
<path class="st1" d="M126,31.2c-1.3,1.3-3.1,2-5.4,2h-1.2c-1,0-1.8-0.1-2.6-0.3c-0.8-0.2-1.4-0.5-1.8-0.9c-0.8-0.6-1.4-1.2-1.8-1.7
	s-0.6-1-0.6-1.3c0-0.1,0.1-0.2,0.2-0.3l2.6-1.3c0.1-0.1,0.2-0.1,0.2-0.1c0.1,0,0.1,0,0.2,0.1c0,0.1,0.1,0.1,0.1,0.2
	c0.2,0.3,0.5,0.6,0.7,0.9s0.4,0.5,0.7,0.7c0.2,0.2,0.5,0.4,0.9,0.5c0.3,0.1,0.7,0.2,1.2,0.2h1.2c1,0,1.9-0.4,2.6-1.1
	s1.1-1.6,1.1-2.6v-1.4c0-1-0.4-1.9-1.1-2.6s-1.6-1.1-2.6-1.1h-3.3c-0.3,0-0.4-0.1-0.4-0.4v-2.4c0-0.3,0.1-0.4,0.4-0.4h3.3
	c1,0,1.9-0.4,2.6-1.1s1.1-1.6,1.1-2.6v-0.6c0-1-0.4-1.9-1.1-2.6c-0.7-0.7-1.6-1.1-2.6-1.1h-1.2c-0.5,0-0.9,0.1-1.2,0.2
	c-0.3,0.1-0.6,0.3-0.9,0.5s-0.5,0.4-0.7,0.7s-0.4,0.6-0.7,0.9c-0.1,0.2-0.3,0.2-0.4,0.2s-0.1,0-0.2,0l-2.6-1.3
	c-0.2-0.1-0.2-0.2-0.2-0.3c0-0.4,0.2-0.8,0.6-1.3s1-1.1,1.8-1.7c0.5-0.4,1.1-0.6,1.8-0.9c0.8-0.2,1.6-0.3,2.6-0.3h1.2
	c2.3,0,4,0.7,5.4,2c1.3,1.3,2,3.1,2,5.4v0.6c0,1-0.4,2.1-1.3,3.3c-0.4,0.5-0.7,0.8-1,1.1c-0.3,0.2-0.5,0.4-0.5,0.6s0.2,0.3,0.5,0.6
	c0.3,0.3,0.7,0.6,1,1.2c0.8,1.3,1.3,2.4,1.3,3.4V26C128,28.1,127.3,29.9,126,31.2z"/>
<path class="st1" d="M144.4,7.1c0.9,0.3,1.7,0.8,2.3,1.4s1.1,1.3,1.5,2.2c0.4,0.8,0.5,1.8,0.5,2.8c0,1.2-0.3,2.3-0.8,3.4
	s-1.2,2-2.2,2.8c-0.7,0.6-1.5,1.1-2.3,1.6s-1.7,1-2.5,1.5c-1.2,0.8-2.1,1.5-2.7,2.3c-0.6,0.8-0.9,1.7-0.9,2.8V29
	c0,0.3,0.1,0.4,0.4,0.4H148c0.3,0,0.4,0.1,0.4,0.4v2.4c0,0.3-0.1,0.4-0.4,0.4h-13.9c-0.3,0-0.4-0.1-0.4-0.4V28c0-2,0.5-3.7,1.5-5
	s2.5-2.6,4.6-3.9c0.8-0.5,1.5-0.9,2.1-1.3c0.7-0.4,1.2-0.8,1.7-1.2c0.5-0.4,0.8-0.8,1.1-1.3s0.4-1,0.4-1.7c0-0.5-0.1-1-0.3-1.4
	s-0.5-0.8-0.8-1.2c-0.3-0.3-0.7-0.6-1.2-0.8c-0.4-0.2-0.9-0.3-1.4-0.3h-1.5c-0.5,0-0.9,0.1-1.2,0.2c-0.3,0.1-0.6,0.3-0.9,0.5
	s-0.5,0.4-0.7,0.7s-0.4,0.6-0.7,0.9c-0.1,0.2-0.3,0.2-0.4,0.2c-0.1,0-0.1,0-0.2,0l-2.6-1.3c-0.2-0.1-0.2-0.2-0.2-0.3
	c0-0.4,0.2-0.8,0.6-1.3c0.4-0.5,1-1.1,1.8-1.7c0.5-0.4,1.1-0.6,1.8-0.9c0.8-0.2,1.6-0.3,2.6-0.3h1.5C142.5,6.6,143.5,6.8,144.4,7.1z
	"/>
<path class="st1" d="M167.4,31.2c-1.3,1.3-3.1,2-5.4,2h-1.2c-1,0-1.8-0.1-2.6-0.3s-1.4-0.5-1.8-0.9c-0.8-0.6-1.4-1.2-1.8-1.7
	s-0.6-1-0.6-1.3c0-0.1,0.1-0.2,0.2-0.3l2.6-1.3c0.1-0.1,0.2-0.1,0.2-0.1c0.1,0,0.2,0.1,0.4,0.3c0.2,0.3,0.5,0.6,0.7,0.9
	s0.4,0.5,0.7,0.7c0.2,0.2,0.5,0.4,0.9,0.5c0.3,0.1,0.7,0.2,1.2,0.2h1.2c1,0,1.9-0.4,2.6-1.1c0.7-0.7,1.1-1.6,1.1-2.6v-1.4
	c0-1-0.4-1.9-1.1-2.6c-0.7-0.7-1.6-1.1-2.6-1.1h-6.5c-0.3,0-0.4-0.1-0.4-0.4V7.4c0-0.3,0.1-0.4,0.4-0.4h13.1c0.3,0,0.4,0.1,0.4,0.4
	v2.4c0,0.3-0.1,0.4-0.4,0.4h-9.4c-0.3,0-0.4,0.1-0.4,0.4v6.7c0,0.3,0.1,0.4,0.4,0.4h2.9c2.3,0,4.1,0.7,5.4,2s2,3.1,2,5.3v0.8
	C169.4,28.1,168.7,29.9,167.4,31.2z"/>
</svg>
