<?xml version="1.0" encoding="utf-8"?>
<!-- Generator: Adobe Illustrator 22.1.0, SVG Export Plug-In . SVG Version: 6.00 Build 0)  -->
<svg version="1.1" id="Layer_1" xmlns="http://www.w3.org/2000/svg" xmlns:xlink="http://www.w3.org/1999/xlink" x="0px" y="0px"
	 viewBox="0 0 230.8 33.1" style="enable-background:new 0 0 230.8 33.1;" xml:space="preserve">
<style type="text/css">
	.st0{fill:#444444;}
	.st1{fill:#00AD68;}
</style>
<path class="st0" d="M12.3,6.5c0.8,0.3,1.6,0.6,2.2,1c0.6,0.4,1,0.8,1.4,1.3c0.3,0.5,0.5,0.9,0.5,1.3c0,0.1-0.1,0.2-0.2,0.3L13.6,12
	c-0.1,0-0.1,0-0.2,0s-0.2-0.1-0.3-0.2c-0.5-0.6-0.9-1.1-1.4-1.7c-0.5-0.4-1.1-0.7-2.1-0.7h-2c-1,0-2,0.3-2.7,1s-1,1.6-1,2.7V26
	c0,1,0.3,2,1,2.7s1.6,1,2.7,1h1.2c1,0,2-0.3,2.7-1s1-1.6,1-2.7v-2.7c0-0.3-0.1-0.4-0.4-0.4H8c-0.3,0-0.4-0.1-0.4-0.4V20
	c0-0.3,0.1-0.4,0.4-0.4h7.9c0.3,0,0.4,0.1,0.4,0.4v6c0,1-0.2,2-0.5,2.9c-0.3,0.8-0.8,1.7-1.6,2.3c-0.6,0.6-1.4,1.1-2.4,1.4
	c-0.9,0.3-2,0.5-3.1,0.5H7.6c-1.1,0-2.2-0.2-3.1-0.5s-1.7-0.8-2.4-1.4c-0.6-0.6-1.1-1.3-1.6-2.3C0.1,28,0.1,27.1,0.1,26V13.1
	c0-1,0.2-2,0.5-2.9C1,9.4,1.5,8.7,2.2,8.1C2.8,7.5,3.6,7,4.6,6.7s2-0.5,3.1-0.5h2C10.6,6.1,11.5,6.3,12.3,6.5z"/>
<path class="st0" d="M36.1,32.6H22c-0.3,0-0.4-0.1-0.4-0.4V6.9c0-0.3,0.1-0.4,0.4-0.4h14.1c0.3,0,0.4,0.1,0.4,0.4v2.5
	c0,0.3-0.1,0.4-0.4,0.4H25.8c-0.3,0-0.4,0.1-0.4,0.4v7c0,0.3,0.1,0.4,0.4,0.4h8.5c0.3,0,0.4,0.1,0.4,0.4v2.5c0,0.3-0.1,0.4-0.4,0.4
	h-8.5c-0.3,0-0.4,0.1-0.4,0.4v7.5c0,0.3,0.1,0.4,0.4,0.4h10.3c0.3,0,0.4,0.1,0.4,0.4v2.5C36.5,32.5,36.4,32.6,36.1,32.6z"/>
<path class="st0" d="M62.6,32.6h-2.9c-0.3,0-0.4-0.1-0.4-0.4l0.4-18.4l-5.9,14.8c-0.1,0.1-0.2,0.2-0.4,0.2H52
	c-0.2,0-0.3-0.1-0.4-0.2l-5.8-14.9l0.4,18.4c0,0.3-0.1,0.4-0.4,0.4h-2.9c-0.3,0-0.4-0.1-0.4-0.4V6.9c0-0.3,0.1-0.4,0.4-0.4h2.9
	c0.2,0,0.3,0.1,0.4,0.2l6.5,16.5h0.1l6.5-16.5l0.4-0.2h2.9c0.3,0,0.4,0.1,0.4,0.4v25.2C63,32.5,62.9,32.6,62.6,32.6z"/>
<path class="st1" d="M167.5,31c-1.3,1.3-3.1,2-5.5,2h-1.2c-1,0-1.9-0.1-2.7-0.3c-0.7-0.2-1.3-0.5-1.9-0.8c-0.8-0.6-1.3-1.2-1.8-1.8
	s-0.6-0.9-0.6-1.3c0-0.1,0.1-0.2,0.2-0.3l2.6-1.3c0.1-0.1,0.2-0.1,0.2-0.1c0.1,0,0.2,0.1,0.4,0.3c0.2,0.3,0.5,0.6,0.7,0.9
	s0.4,0.5,0.7,0.7c0.2,0.2,0.5,0.4,0.8,0.5s0.7,0.2,1.2,0.2h1.2c1,0,1.9-0.3,2.6-1c0.7-0.7,1.1-1.6,1.1-2.7v-1.4c0-1-0.4-2-1.1-2.7
	c-0.7-0.7-1.7-1-2.6-1h-6.6c-0.3,0-0.4-0.1-0.4-0.4V6.9c0-0.3,0.1-0.4,0.4-0.4h13.2c0.3,0,0.4,0.1,0.4,0.4v2.5
	c0,0.3-0.1,0.4-0.4,0.4h-9.5c-0.3,0-0.4,0.1-0.4,0.4V17c0,0.3,0.1,0.4,0.4,0.4h2.9c2.3,0,4.1,0.6,5.5,2c1.3,1.3,2,3.1,2,5.4v0.8
	C169.4,27.9,168.7,29.7,167.5,31z"/>
<path class="st1" d="M188.1,32.6h-12.8c-0.3,0-0.4-0.1-0.4-0.4v-2.5c0-0.3,0.1-0.4,0.4-0.4h4.1c0.3,0,0.4-0.1,0.4-0.4V14
	c0-0.3-0.1-0.4-0.4-0.4c-0.1,0-0.2,0.1-0.3,0.2l-2,2.1c-0.1,0.1-0.2,0.2-0.3,0.2s-0.2-0.1-0.3-0.2l-1.9-1.8
	c-0.1-0.1-0.2-0.2-0.2-0.3s0.1-0.2,0.2-0.3l6.6-6.6l0.3-0.1h1.4c0.3,0,0.4,0.1,0.4,0.4v21.9c0,0.3,0.1,0.4,0.4,0.4h4.1
	c0.3,0,0.4,0.1,0.4,0.4v2.5C188.5,32.5,188.4,32.6,188.1,32.6z"/>
<path class="st1" d="M208.4,28.9c-0.3,0.8-0.8,1.7-1.6,2.3c-0.6,0.6-1.4,1.1-2.4,1.4c-0.9,0.3-2,0.5-3.1,0.5h-1
	c-1.1,0-2.2-0.2-3.1-0.5s-1.7-0.8-2.4-1.4c-0.6-0.6-1.1-1.3-1.6-2.3c-0.4-0.9-0.5-1.9-0.5-2.9V13.1c0-1,0.2-2,0.5-2.9
	c0.3-0.8,0.8-1.7,1.6-2.3c0.6-0.6,1.4-1.1,2.4-1.4c0.9-0.3,2-0.5,3.1-0.5h1.2c1.1,0,2.2,0.2,3.1,0.5c0.9,0.3,1.7,0.8,2.4,1.4
	c0.6,0.6,1.1,1.3,1.6,2.3c0.3,0.8,0.5,1.9,0.5,2.9V26C209,27.1,208.9,28,208.4,28.9z M205.2,13.1c0-1-0.3-2-1-2.7s-1.6-1-2.7-1h-1.2
	c-1,0-2,0.3-2.7,1s-1,1.6-1,2.7V26c0,1,0.3,2,1,2.7s1.6,1,2.7,1h1.2c1,0,2-0.3,2.7-1s1-1.6,1-2.7V13.1z"/>
<path class="st1" d="M229.7,28.9c-0.3,0.8-0.8,1.7-1.6,2.3c-0.6,0.6-1.4,1.1-2.4,1.4c-0.9,0.3-2,0.5-3.1,0.5h-1.1
	c-1.1,0-2.2-0.2-3.1-0.5c-0.9-0.3-1.7-0.8-2.4-1.4c-0.6-0.6-1.1-1.3-1.6-2.3c-0.4-0.9-0.5-1.9-0.5-2.9V13.1c0-1,0.2-2,0.5-2.9
	c0.3-0.8,0.8-1.7,1.6-2.3c0.6-0.6,1.4-1.1,2.4-1.4c0.9-0.3,2-0.5,3.1-0.5h1.2c1.1,0,2.2,0.2,3.1,0.5c0.9,0.3,1.7,0.8,2.4,1.4
	c0.6,0.6,1.1,1.3,1.6,2.3c0.3,0.8,0.5,1.9,0.5,2.9V26C230.3,27.1,230.2,28,229.7,28.9z M226.5,13.1c0-1-0.3-2-1-2.7s-1.6-1-2.7-1
	h-1.2c-1,0-2,0.3-2.7,1s-1,1.6-1,2.7V26c0,1,0.3,2,1,2.7s1.6,1,2.7,1h1.2c1,0,2-0.3,2.7-1s1-1.6,1-2.7V13.1z"/>
<path class="st0" d="M75.3,21.2h-6.7c-0.3,0-0.4-0.1-0.4-0.4v-2.7c0-0.3,0.1-0.4,0.4-0.4h6.7c0.3,0,0.4,0.1,0.4,0.4v2.7
	C75.7,21.1,75.6,21.2,75.3,21.2z"/>
<path class="st0" d="M92.6,9.7h-4.8c-0.3,0-0.4,0.1-0.4,0.4v22.1c0,0.3-0.1,0.4-0.4,0.4h-2.9c-0.3,0-0.4-0.1-0.4-0.4V10.1
	c0-0.3-0.1-0.4-0.4-0.4h-4.8c-0.3,0-0.4-0.1-0.4-0.4V6.8c0-0.3,0.1-0.4,0.4-0.4h14.2c0.3,0,0.4,0.1,0.4,0.4v2.5
	C93.1,9.6,93,9.7,92.6,9.7z"/>
<path class="st0" d="M112.5,32.6H98.3c-0.3,0-0.4-0.1-0.4-0.4V6.8c0-0.3,0.1-0.4,0.4-0.4h14.2c0.3,0,0.4,0.1,0.4,0.4v2.5
	c0,0.3-0.1,0.4-0.4,0.4h-10.4c-0.3,0-0.4,0.1-0.4,0.4v7.1c0,0.3,0.1,0.4,0.4,0.4h8.5c0.3,0,0.4,0.1,0.4,0.4v2.5
	c0,0.3-0.1,0.4-0.4,0.4h-8.5c-0.3,0-0.4,0.1-0.4,0.4v7.5c0,0.3,0.1,0.4,0.4,0.4h10.4c0.3,0,0.4,0.1,0.4,0.4v2.5
	C113,32.5,112.7,32.6,112.5,32.6z"/>
<path class="st0" d="M137.5,32.3c0,0.2-0.1,0.3-0.4,0.3h-3.7l-0.3-0.2l-7.5-12.1c-0.8,0.9-1.7,2.1-2.8,3.6v8.3
	c0,0.3-0.1,0.4-0.4,0.4h-2.9c-0.3,0-0.4-0.1-0.4-0.4V6.8c0-0.3,0.1-0.4,0.4-0.4h2.9c0.3,0,0.4,0.1,0.4,0.4v11c0,0.3,0.1,0.5,0.4,0.5
	c0.1,0,0.2-0.1,0.4-0.2l8.7-11.5l0.3-0.2h3.5c0.3,0,0.5,0.1,0.5,0.3c0,0.1,0,0.2-0.1,0.3l-8,9.8c-0.1,0.1-0.1,0.1-0.1,0.2
	s0,0.2,0,0.2l9.1,14.7C137.4,32.1,137.5,32.2,137.5,32.3z"/>
<g>
	<path class="st0" d="M145.4,11.3c-0.2,0.4-0.4,0.7-0.7,1s-0.7,0.5-1.1,0.7c-0.4,0.2-0.9,0.2-1.4,0.2h-0.1c-0.5,0-1-0.1-1.4-0.2
		c-0.4-0.2-0.8-0.4-1.1-0.7s-0.5-0.6-0.7-1s-0.2-0.8-0.2-1.3V9.6c0-0.5,0.1-0.9,0.2-1.3c0.2-0.4,0.4-0.7,0.7-1s0.7-0.5,1.1-0.7
		c0.4-0.2,0.9-0.2,1.4-0.2h0.1c0.5,0,1,0.1,1.4,0.2c0.4,0.2,0.8,0.4,1.1,0.7c0.3,0.3,0.5,0.6,0.7,1c0.2,0.4,0.2,0.8,0.2,1.3V10
		C145.7,10.5,145.7,10.9,145.4,11.3z M145.2,9.6c0-0.8-0.3-1.4-0.8-1.9S143.2,7,142.2,7h-0.1c-0.9,0-1.6,0.2-2.1,0.7
		s-0.8,1.1-0.8,1.9V10c0,0.8,0.3,1.4,0.8,1.9s1.2,0.7,2.1,0.7h0.1c0.9,0,1.6-0.2,2.1-0.7s0.8-1.1,0.8-1.9L145.2,9.6L145.2,9.6z
		 M143.5,9.6c-0.1,0.1-0.1,0.2-0.2,0.3c-0.1,0.1-0.1,0.1-0.2,0.2c-0.1,0.1-0.1,0.1-0.1,0.2c0,0,0,0,0,0.1l0.5,0.9c0,0.1,0,0.1,0,0.1
		c0,0.1-0.1,0.2-0.2,0.2H143c-0.1,0-0.1-0.1-0.2-0.1l-0.4-1c0,0-0.1-0.1-0.2-0.1h-0.5c-0.1,0-0.2,0.1-0.2,0.2v0.9
		c0,0.1-0.1,0.2-0.2,0.2h-0.2c-0.1,0-0.2-0.1-0.2-0.2V8.1c0-0.1,0.1-0.2,0.2-0.2h1.2c0.4,0,0.7,0.1,0.9,0.3s0.3,0.5,0.3,0.9v0.1
		C143.7,9.4,143.7,9.5,143.5,9.6z M143.1,9.1c0-0.2-0.1-0.3-0.2-0.4c-0.1-0.1-0.2-0.2-0.4-0.2h-0.6c-0.1,0-0.2,0.1-0.2,0.2v0.9
		c0,0.1,0.1,0.2,0.2,0.2h0.6c0.2,0,0.3-0.1,0.4-0.2C142.9,9.5,143.1,9.3,143.1,9.1L143.1,9.1z"/>
</g>
</svg>
