<?xml version="1.0" encoding="utf-8"?>
<!-- Generator: Adobe Illustrator 22.1.0, SVG Export Plug-In . SVG Version: 6.00 Build 0)  -->
<svg version="1.1" id="Layer_1" xmlns="http://www.w3.org/2000/svg" xmlns:xlink="http://www.w3.org/1999/xlink" x="0px" y="0px"
	 viewBox="0 0 218.8 33.1" style="enable-background:new 0 0 218.8 33.1;" xml:space="preserve">
<style type="text/css">
	.st0{fill:#444444;}
	.st1{fill:#FF611D;}
</style>
<path class="st0" d="M3.7,32.7H0.8c-0.3,0-0.4-0.1-0.4-0.4V7.4C0.4,7.2,0.6,7,0.8,7h2.9C4,7,4.1,7.2,4.1,7.4v24.9
	C4.1,32.6,4,32.7,3.7,32.7z"/>
<path class="st0" d="M15.4,10.2c-0.4,0.2-0.8,0.4-1.2,0.8c-0.3,0.3-0.6,0.7-0.8,1.2c-0.2,0.4-0.3,0.9-0.3,1.4s0.1,1,0.4,1.4
	s0.6,0.8,1,1.1s1,0.7,1.7,1c0.7,0.3,1.4,0.7,2.2,1c1.1,0.5,2,1,2.8,1.5s1.4,1.1,2,1.8c0.5,0.6,0.9,1.3,1.2,2.1
	c0.3,0.8,0.4,1.7,0.4,2.7s-0.2,2-0.5,2.8c-0.4,0.8-0.9,1.6-1.5,2.2s-1.4,1.1-2.3,1.4s-1.9,0.5-3,0.5h-1.7c-1,0-1.8-0.1-2.6-0.3
	c-0.8-0.2-1.4-0.5-1.8-0.9c-0.8-0.6-1.4-1.2-1.8-1.7S9,29.3,9,28.9c0-0.1,0.1-0.2,0.2-0.3l2.6-1.3c0.1-0.1,0.2-0.1,0.2-0.1
	c0.1,0,0.2,0.1,0.4,0.3c0.2,0.3,0.5,0.6,0.7,0.9s0.4,0.5,0.7,0.7c0.2,0.2,0.5,0.4,0.9,0.5c0.3,0.1,0.7,0.2,1.2,0.2h1.7
	c1,0,1.9-0.4,2.6-1.1s1.1-1.6,1.1-2.6c0-0.6-0.1-1.1-0.3-1.5c-0.2-0.4-0.5-0.8-1-1.2c-0.4-0.4-0.9-0.7-1.5-1s-1.3-0.7-2.1-1.1
	c-1.1-0.5-2.1-1-2.9-1.5c-0.8-0.5-1.5-1-2.1-1.6s-1-1.3-1.3-2c-0.3-0.8-0.4-1.7-0.4-2.7s0.2-2,0.5-2.8c0.4-0.9,0.8-1.6,1.5-2.2
	c0.6-0.6,1.4-1.1,2.3-1.4c0.9-0.3,1.9-0.5,3-0.5h0.7c1,0,1.9,0.1,2.8,0.4c0.8,0.3,1.5,0.6,2.1,1.1C23,8.5,23.4,9,23.8,9.5
	c0.3,0.5,0.5,0.9,0.5,1.3c0,0.1-0.1,0.2-0.2,0.3l-2.6,1.3c-0.1,0-0.1,0-0.2,0s-0.2-0.1-0.3-0.2c-0.5-0.6-0.9-1.2-1.4-1.6
	c-0.5-0.4-1.1-0.7-2-0.7h-0.7C16.3,9.9,15.9,10,15.4,10.2z"/>
<path class="st0" d="M45.1,29c-0.4,0.9-0.9,1.6-1.5,2.2s-1.4,1.1-2.3,1.4c-0.9,0.3-1.9,0.5-3,0.5H37c-1.1,0-2.1-0.2-3-0.5
	s-1.7-0.8-2.3-1.4c-0.6-0.6-1.1-1.3-1.5-2.2c-0.4-0.9-0.5-1.8-0.5-2.8V13.5c0-1,0.2-2,0.5-2.8c0.4-0.9,0.8-1.6,1.5-2.2
	c0.6-0.6,1.4-1.1,2.3-1.4c0.9-0.3,1.9-0.5,3-0.5h1.2c1.1,0,2.1,0.2,3,0.5s1.7,0.8,2.3,1.4s1.1,1.3,1.5,2.2s0.5,1.8,0.5,2.8v12.6
	C45.6,27.2,45.4,28.2,45.1,29z M41.9,13.5c0-1-0.4-1.9-1.1-2.6c-0.7-0.7-1.6-1.1-2.6-1.1H37c-1,0-1.9,0.4-2.6,1.1
	c-0.7,0.7-1.1,1.6-1.1,2.6v12.6c0,1,0.4,1.9,1.1,2.6c0.7,0.7,1.6,1.1,2.6,1.1h1.2c1,0,1.9-0.4,2.6-1.1c0.7-0.7,1.1-1.6,1.1-2.6
	C41.9,26.1,41.9,13.5,41.9,13.5z"/>
<path class="st0" d="M58.2,21.3h-6.5c-0.3,0-0.4-0.1-0.4-0.3v-2.4c0-0.2,0.1-0.3,0.4-0.3h6.5c0.3,0,0.4,0.1,0.4,0.3V21
	C58.6,21.2,58.5,21.3,58.2,21.3z"/>
<path class="st0" d="M75.6,10.3h-4.7c-0.3,0-0.4,0.1-0.4,0.4v21.6c0,0.3-0.1,0.4-0.4,0.4h-2.9c-0.3,0-0.4-0.1-0.4-0.4V10.7
	c0-0.3-0.1-0.4-0.4-0.4h-4.7c-0.3,0-0.4-0.1-0.4-0.4V7.4c0-0.3,0.1-0.4,0.4-0.4h13.9C75.9,7,76,7.2,76,7.4v2.4
	C76,10.2,75.9,10.3,75.6,10.3z"/>
<path class="st0" d="M95.6,32.7H81.7c-0.3,0-0.4-0.1-0.4-0.4V7.4c0-0.3,0.1-0.4,0.4-0.4h13.9C95.9,7,96,7.2,96,7.4v2.4
	c0,0.3-0.1,0.4-0.4,0.4H85.4c-0.3,0-0.4,0.1-0.4,0.4v6.9c0,0.3,0.1,0.4,0.4,0.4h8.4c0.3,0,0.4,0.1,0.4,0.4v2.4
	c0,0.3-0.1,0.4-0.4,0.4h-8.4c-0.3,0-0.4,0.1-0.4,0.4V29c0,0.3,0.1,0.4,0.4,0.4h10.2c0.3,0,0.4,0.1,0.4,0.4v2.4
	C96,32.6,95.9,32.7,95.6,32.7z"/>
<path class="st0" d="M119.8,32.4c0,0.2-0.1,0.3-0.4,0.3h-3.6l-0.3-0.2l-7.3-11.9c-0.8,0.9-1.7,2.1-2.8,3.5v8.2
	c0,0.3-0.1,0.4-0.4,0.4h-3c-0.3,0-0.4-0.1-0.4-0.4V7.4c0-0.3,0.1-0.4,0.4-0.4h2.9c0.3,0,0.4,0.1,0.4,0.4v10.7c0,0.3,0.1,0.5,0.4,0.5
	c0.1,0,0.2-0.1,0.4-0.2l8.6-11.2L115,7h3.4c0.3,0,0.4,0.1,0.4,0.3c0,0.1,0,0.2-0.1,0.3l-7.8,9.6c-0.1,0.1-0.1,0.1-0.1,0.2
	s0,0.1,0,0.2l8.9,14.4C119.7,32.2,119.8,32.3,119.8,32.4z"/>
<path class="st0" d="M123.6,7.9H123c-0.1,0-0.2,0.1-0.2,0.2v2.8c0,0.1-0.1,0.2-0.2,0.2h-0.2c-0.1,0-0.2-0.1-0.2-0.2V8.1
	c0-0.1-0.1-0.2-0.2-0.2h-0.6c-0.1,0-0.2-0.1-0.2-0.2V7.5c0-0.1,0.1-0.2,0.2-0.2h2.2c0.1,0,0.2,0.1,0.2,0.2v0.2
	C123.8,7.8,123.8,7.9,123.6,7.9z M128,11.1h-0.2c-0.1,0-0.2-0.1-0.2-0.2V9.5c0-0.2-0.1-0.2-0.2-0.2s-0.1,0-0.2,0.1l-0.5,0.8
	l-0.2,0.1h-0.1l-0.2-0.1l-0.6-0.8c-0.1-0.1-0.1-0.1-0.2-0.1s-0.2,0.1-0.2,0.2V11c0,0.1-0.1,0.2-0.2,0.2h-0.2c-0.1,0-0.2-0.1-0.2-0.2
	V7.5c0-0.1,0.1-0.2,0.2-0.2h0.2l0.2,0.1l1,1.7c0.1,0.1,0.1,0.1,0.2,0.1s0.1,0,0.2-0.1l1-1.7l0.2-0.1h0.2c0.1,0,0.2,0.1,0.2,0.2V11
	C128.2,11.1,128.1,11.1,128,11.1z"/>
<g>
	<path class="st1" d="M155.9,30.9c-1.3,1.3-3,2-5.3,2h-1.2c-2.3,0-4-0.7-5.3-2s-2-3-2-5.2v-1c0-0.5,0.1-1,0.3-1.6s0.5-1.2,0.9-1.8
		c0.4-0.5,0.7-0.9,1-1.2c0.3-0.2,0.5-0.4,0.5-0.6s-0.2-0.4-0.5-0.6s-0.7-0.6-1-1c-0.8-1.2-1.3-2.3-1.3-3.2V14c0-2.3,0.7-3.9,2-5.3
		c1.3-1.3,3-2,5.3-2h1.2c2.3,0,3.9,0.7,5.3,2c1.3,1.3,2,3,2,5.3v0.8c0,1-0.4,2.1-1.3,3.2c-0.3,0.5-0.7,0.8-1,1s-0.5,0.4-0.5,0.6
		c0,0.1,0.2,0.3,0.5,0.6c0.3,0.2,0.7,0.6,1,1.2c0.8,1.3,1.3,2.4,1.3,3.3v1C157.9,27.8,157.2,29.6,155.9,30.9z M154.3,13.5
		c0-1-0.4-1.9-1.1-2.6c-0.7-0.7-1.6-1.1-2.6-1.1h-1.2c-1,0-1.9,0.4-2.6,1.1s-1.1,1.6-1.1,2.6v0.8c0,1,0.4,1.9,1.1,2.6
		c0.7,0.7,1.6,1.1,2.6,1.1h1.2c1,0,1.9-0.4,2.6-1.1c0.7-0.7,1.1-1.6,1.1-2.6V13.5z M154.3,24.8c0-1-0.4-1.9-1.1-2.6
		c-0.7-0.7-1.6-1.1-2.6-1.1h-1.2c-1,0-1.9,0.4-2.6,1.1c-0.7,0.7-1.1,1.6-1.1,2.6V26c0,1,0.4,1.9,1.1,2.6c0.7,0.7,1.6,1.1,2.6,1.1
		h1.2c1,0,1.9-0.4,2.6-1.1c0.7-0.7,1.1-1.6,1.1-2.6V24.8z"/>
	<path class="st1" d="M217.7,28.7c-0.4,0.9-0.9,1.6-1.5,2.2s-1.4,1.1-2.3,1.4c-0.9,0.3-1.9,0.5-2.9,0.5h-1.2c-1.1,0-2.1-0.2-2.9-0.5
		c-0.9-0.3-1.7-0.8-2.3-1.4s-1.1-1.3-1.5-2.2c-0.4-0.9-0.5-1.8-0.5-2.7V13.5c0-1,0.2-2,0.5-2.7c0.4-0.9,0.8-1.6,1.5-2.2
		c0.7-0.6,1.4-1.1,2.3-1.4c0.9-0.3,1.9-0.5,2.9-0.5h1.2c1.1,0,2.1,0.2,2.9,0.5c0.9,0.3,1.7,0.8,2.3,1.4s1.1,1.3,1.5,2.2
		s0.5,1.8,0.5,2.7v12.4C218.2,27,218,27.9,217.7,28.7z M214.5,13.5c0-1-0.4-1.9-1.1-2.6c-0.7-0.7-1.6-1.1-2.6-1.1h-1.2
		c-1,0-1.9,0.4-2.6,1.1c-0.7,0.7-1.1,1.6-1.1,2.6v12.4c0,1,0.4,1.9,1.1,2.6s1.6,1.1,2.6,1.1h1.2c1,0,1.9-0.4,2.6-1.1
		s1.1-1.6,1.1-2.6V13.5z"/>
	<path class="st1" d="M196.7,28.7c-0.4,0.9-0.9,1.6-1.5,2.2s-1.4,1.1-2.3,1.4c-0.9,0.3-1.9,0.5-2.9,0.5h-1.2c-1.1,0-2.1-0.2-2.9-0.5
		c-0.9-0.3-1.7-0.8-2.3-1.4s-1.1-1.3-1.5-2.2c-0.4-0.9-0.5-1.8-0.5-2.7V13.5c0-1,0.2-2,0.5-2.7c0.4-0.9,0.8-1.6,1.5-2.2
		s1.4-1.1,2.3-1.4c0.9-0.3,1.9-0.5,2.9-0.5h1.2c1.1,0,2.1,0.2,2.9,0.5c0.9,0.3,1.7,0.8,2.3,1.4s1.1,1.3,1.5,2.2s0.5,1.8,0.5,2.7
		v12.4C197.2,27,197,27.9,196.7,28.7z M193.6,13.5c0-1-0.4-1.9-1.1-2.6c-0.7-0.7-1.6-1.1-2.6-1.1h-1.2c-1,0-1.9,0.4-2.6,1.1
		c-0.7,0.7-1.1,1.6-1.1,2.6v12.4c0,1,0.4,1.9,1.1,2.6s1.6,1.1,2.6,1.1h1.2c1,0,1.9-0.4,2.6-1.1c0.7-0.7,1.1-1.6,1.1-2.6V13.5z"/>
	<path class="st1" d="M176.8,32.4h-12.4c-0.3,0-0.4-0.1-0.4-0.4v-2.4c0-0.3,0.1-0.4,0.4-0.4h4c0.3,0,0.4-0.1,0.4-0.4V14.3
		c0-0.3-0.1-0.4-0.4-0.4c-0.1,0-0.2,0.1-0.3,0.2l-2,2c-0.1,0.1-0.2,0.2-0.3,0.2s-0.2-0.1-0.3-0.2l-1.8-1.8c-0.1-0.1-0.2-0.2-0.2-0.3
		s0.1-0.2,0.2-0.3l6.5-6.5l0.3-0.1h1.4c0.3,0,0.4,0.1,0.4,0.4v21.2c0,0.3,0.1,0.4,0.4,0.4h4c0.3,0,0.4,0.1,0.4,0.4v2.4
		C177.1,32.3,177,32.4,176.8,32.4z"/>
</g>
</svg>
