<?xml version="1.0" encoding="utf-8"?>
<!-- Generator: Adobe Illustrator 22.1.0, SVG Export Plug-In . SVG Version: 6.00 Build 0)  -->
<svg version="1.1" id="Layer_1" xmlns="http://www.w3.org/2000/svg" xmlns:xlink="http://www.w3.org/1999/xlink" x="0px" y="0px"
	 viewBox="0 0 370 33.1" style="enable-background:new 0 0 370 33.1;" xml:space="preserve">
<style type="text/css">
	.st0{fill:#444444;}
	.st1{fill:#8A8C8E;}
</style>
<g>
	<path class="st0" d="M20.8,32.6h-2.8c-0.3,0-0.4-0.1-0.4-0.4L18,14.1l-5.8,14.6c-0.1,0.1-0.2,0.2-0.4,0.2h-1.4
		c-0.2,0-0.3-0.1-0.4-0.2L4.3,14.1l0.4,18.1c0,0.3-0.1,0.4-0.4,0.4H1.4c-0.3,0-0.4-0.1-0.4-0.4V7.3c0-0.3,0.1-0.4,0.4-0.4h2.8
		c0.2,0,0.3,0.1,0.4,0.2L11,23.3h0.1l6.4-16.2l0.4-0.2l2.9,0c0.3,0,0.4,0.1,0.4,0.4v24.8C21.2,32.4,21,32.6,20.8,32.6z"/>
	<path class="st0" d="M29.2,32.6h-2.8c-0.3,0-0.4-0.1-0.4-0.4V7.3c0-0.3,0.1-0.4,0.4-0.4h2.8c0.3,0,0.4,0.1,0.4,0.4v24.8
		C29.6,32.4,29.4,32.6,29.2,32.6z"/>
	<path class="st0" d="M50.3,28.8c0,0.1-0.1,0.4-0.4,0.9c-0.3,0.5-0.7,1-1.3,1.6c-1.2,1.1-2.9,1.7-5.1,1.7h-1.2c-1.1,0-2.1-0.2-3-0.5
		c-0.9-0.3-1.7-0.8-2.3-1.4c-0.6-0.6-1.1-1.3-1.5-2.2c-0.4-0.9-0.5-1.8-0.5-2.8V13.4c0-1,0.2-2,0.5-2.8C35.8,9.8,36.3,9,37,8.4
		c0.6-0.6,1.4-1.1,2.3-1.4c0.9-0.3,1.9-0.5,3-0.5h1.2c1,0,1.9,0.1,2.7,0.4c0.8,0.3,1.5,0.6,2.1,1c0.6,0.4,1.1,0.8,1.4,1.3
		c0.3,0.5,0.5,0.9,0.5,1.3c0,0.1-0.1,0.2-0.2,0.3l-2.6,1.3c-0.1,0-0.1,0-0.2,0c-0.1,0-0.2-0.1-0.3-0.2c-0.5-0.6-0.9-1.2-1.4-1.6
		c-0.5-0.4-1.1-0.7-2-0.7h-1.2c-1,0-1.9,0.4-2.6,1.1c-0.7,0.7-1.1,1.6-1.1,2.6v12.6c0,1,0.4,1.9,1.1,2.6c0.7,0.7,1.6,1.1,2.6,1.1
		h1.2c0.5,0,0.9-0.1,1.3-0.3c0.4-0.2,0.7-0.4,0.9-0.6c0.5-0.5,0.8-1,1-1.3c0.2-0.3,0.4-0.5,0.5-0.5c0.1,0,0.1,0,0.2,0.1l2.6,1.3
		C50.2,28.6,50.3,28.7,50.3,28.8z"/>
	<path class="st0" d="M70.5,32.3c0,0.2-0.1,0.3-0.4,0.3h-3.1l-0.4-0.3l-3.8-10.9l-0.3-0.2h-4c-0.3,0-0.4,0.1-0.4,0.4v10.6
		c0,0.3-0.1,0.4-0.4,0.4h-2.8c-0.3,0-0.4-0.1-0.4-0.4V7.3c0-0.3,0.1-0.4,0.4-0.4h8.1c2.3,0,4,0.7,5.4,2c1.3,1.3,2,3.1,2,5.4v0.4
		c0,0.7-0.2,1.5-0.6,2.3c-0.4,0.8-1,1.6-1.8,2.3c-0.4,0.4-0.7,0.6-1,0.7c-0.3,0.1-0.4,0.3-0.4,0.5c0,0.1,0,0.1,0,0.1L70.4,32
		C70.5,32.1,70.5,32.2,70.5,32.3z M66.6,13.9c0-1-0.4-1.9-1.1-2.6c-0.7-0.7-1.6-1.1-2.6-1.1h-4.5c-0.3,0-0.4,0.1-0.4,0.4v6.9
		c0,0.3,0.1,0.4,0.4,0.4h4.5c1,0,1.9-0.4,2.6-1.1c0.7-0.7,1.1-1.6,1.1-2.6V13.9z"/>
	<path class="st0" d="M89.1,28.9c-0.4,0.9-0.8,1.6-1.5,2.2c-0.6,0.6-1.4,1.1-2.3,1.4c-0.9,0.3-1.9,0.5-3,0.5h-1.2
		c-1.1,0-2.1-0.2-3-0.5c-0.9-0.3-1.7-0.8-2.3-1.4c-0.6-0.6-1.1-1.3-1.5-2.2c-0.4-0.9-0.5-1.8-0.5-2.8V13.4c0-1,0.2-2,0.5-2.8
		c0.4-0.9,0.8-1.6,1.5-2.2C76.4,7.8,77.2,7.3,78,7c0.9-0.3,1.9-0.5,3-0.5h1.2c1.1,0,2.1,0.2,3,0.5c0.9,0.3,1.7,0.8,2.3,1.4
		c0.6,0.6,1.1,1.3,1.5,2.2c0.4,0.9,0.5,1.8,0.5,2.8v12.6C89.6,27.1,89.4,28,89.1,28.9z M85.9,13.4c0-1-0.4-1.9-1.1-2.6
		c-0.7-0.7-1.6-1.1-2.6-1.1h-1.2c-1,0-1.9,0.4-2.6,1.1c-0.7,0.7-1.1,1.6-1.1,2.6v12.6c0,1,0.4,1.9,1.1,2.6c0.7,0.7,1.6,1.1,2.6,1.1
		h1.2c1,0,1.9-0.4,2.6-1.1c0.7-0.7,1.1-1.6,1.1-2.6V13.4z"/>
	<path class="st0" d="M100.7,21.6h-6.5c-0.3,0-0.4-0.1-0.4-0.4v-2.8c0-0.3,0.1-0.4,0.4-0.4h6.5c0.3,0,0.4,0.1,0.4,0.4v2.8
		C101.1,21.5,101,21.6,100.7,21.6z"/>
	<path class="st0" d="M119.8,30.6c-1.3,1.3-3.1,2-5.4,2h-8.1c-0.3,0-0.4-0.1-0.4-0.4V7.3c0-0.3,0.1-0.4,0.4-0.4h8.1
		c2.3,0,4,0.7,5.4,2c1.3,1.3,2,3.1,2,5.4v11C121.7,27.5,121.1,29.3,119.8,30.6z M118.1,13.9c0-1-0.4-1.9-1.1-2.6
		c-0.7-0.7-1.6-1.1-2.6-1.1h-4.5c-0.3,0-0.4,0.1-0.4,0.4v18.3c0,0.3,0.1,0.4,0.4,0.4h4.5c1,0,1.9-0.4,2.6-1.1
		c0.7-0.7,1.1-1.6,1.1-2.6V13.9z"/>
	<path class="st0" d="M140.3,32.6h-13.8c-0.3,0-0.4-0.1-0.4-0.4V7.3c0-0.3,0.1-0.4,0.4-0.4h13.8c0.3,0,0.4,0.1,0.4,0.4v2.4
		c0,0.3-0.1,0.4-0.4,0.4h-10.2c-0.3,0-0.4,0.1-0.4,0.4v6.9c0,0.3,0.1,0.4,0.4,0.4h8.3c0.3,0,0.4,0.1,0.4,0.4v2.4
		c0,0.3-0.1,0.4-0.4,0.4h-8.3c-0.3,0-0.4,0.1-0.4,0.4v7.3c0,0.3,0.1,0.4,0.4,0.4h10.2c0.3,0,0.4,0.1,0.4,0.4v2.4
		C140.7,32.4,140.6,32.6,140.3,32.6z"/>
	<path class="st0" d="M155.7,7c0.8,0.3,1.5,0.6,2.1,1c0.6,0.4,1.1,0.8,1.4,1.3c0.3,0.5,0.5,0.9,0.5,1.3c0,0.1-0.1,0.2-0.2,0.3
		l-2.6,1.3c-0.1,0-0.1,0-0.2,0c-0.1,0-0.2-0.1-0.3-0.2c-0.5-0.6-0.9-1.2-1.4-1.6c-0.5-0.4-1.1-0.7-2-0.7h-2c-1,0-1.9,0.4-2.6,1.1
		c-0.7,0.7-1.1,1.6-1.1,2.6v12.6c0,1,0.4,1.9,1.1,2.6c0.7,0.7,1.6,1.1,2.6,1.1h1.2c1,0,1.9-0.4,2.6-1.1c0.7-0.7,1.1-1.6,1.1-2.6
		v-2.6c0-0.3-0.1-0.4-0.4-0.4h-4.1c-0.3,0-0.4-0.1-0.4-0.4v-2.4c0-0.3,0.1-0.4,0.4-0.4h7.7c0.3,0,0.4,0.1,0.4,0.4v5.9
		c0,1-0.2,2-0.5,2.8c-0.4,0.9-0.8,1.6-1.5,2.2c-0.6,0.6-1.4,1.1-2.3,1.4c-0.9,0.3-1.9,0.5-3,0.5H151c-1.1,0-2.1-0.2-3-0.5
		c-0.9-0.3-1.7-0.8-2.3-1.4c-0.6-0.6-1.1-1.3-1.5-2.2c-0.4-0.9-0.5-1.8-0.5-2.8V13.4c0-1,0.2-2,0.5-2.8s0.8-1.6,1.5-2.2
		c0.6-0.6,1.4-1.1,2.3-1.4c0.9-0.3,1.9-0.5,3-0.5h2C153.9,6.5,154.8,6.7,155.7,7z"/>
	<path class="st0" d="M179.7,32.3c0,0.2-0.1,0.3-0.4,0.3h-3.1l-0.4-0.3L172,21.4l-0.3-0.2h-4c-0.3,0-0.4,0.1-0.4,0.4v10.6
		c0,0.3-0.1,0.4-0.4,0.4h-2.8c-0.3,0-0.4-0.1-0.4-0.4V7.3c0-0.3,0.1-0.4,0.4-0.4h8.1c2.3,0,4,0.7,5.4,2c1.3,1.3,2,3.1,2,5.4v0.4
		c0,0.7-0.2,1.5-0.6,2.3c-0.4,0.8-1,1.6-1.8,2.3c-0.4,0.4-0.7,0.6-1,0.7c-0.3,0.1-0.4,0.3-0.4,0.5c0,0.1,0,0.1,0,0.1l3.9,11.4
		C179.6,32.1,179.7,32.2,179.7,32.3z M175.7,13.9c0-1-0.4-1.9-1.1-2.6c-0.7-0.7-1.6-1.1-2.6-1.1h-4.5c-0.3,0-0.4,0.1-0.4,0.4v6.9
		c0,0.3,0.1,0.4,0.4,0.4h4.5c1,0,1.9-0.4,2.6-1.1c0.7-0.7,1.1-1.6,1.1-2.6V13.9z"/>
	<path class="st0" d="M198.4,32.6h-13.8c-0.3,0-0.4-0.1-0.4-0.4V7.3c0-0.3,0.1-0.4,0.4-0.4h13.8c0.3,0,0.4,0.1,0.4,0.4v2.4
		c0,0.3-0.1,0.4-0.4,0.4h-10.2c-0.3,0-0.4,0.1-0.4,0.4v6.9c0,0.3,0.1,0.4,0.4,0.4h8.3c0.3,0,0.4,0.1,0.4,0.4v2.4
		c0,0.3-0.1,0.4-0.4,0.4h-8.3c-0.3,0-0.4,0.1-0.4,0.4v7.3c0,0.3,0.1,0.4,0.4,0.4h10.2c0.3,0,0.4,0.1,0.4,0.4v2.4
		C198.8,32.4,198.7,32.6,198.4,32.6z"/>
	<path class="st0" d="M219.3,32.2C219.3,32.2,219.3,32.2,219.3,32.2c0,0.3-0.1,0.4-0.4,0.4h-3.1c-0.2,0-0.4-0.1-0.4-0.3l-1.5-5.4
		c0-0.2-0.2-0.2-0.4-0.2h-6.6c-0.2,0-0.4,0.1-0.4,0.2l-1.5,5.4c0,0.2-0.2,0.3-0.4,0.3h-3.1c-0.3,0-0.4-0.1-0.4-0.4c0,0,0,0,0-0.1
		c0,0,0,0,0-0.1l7.6-24.8c0-0.2,0.2-0.3,0.4-0.3h2.2c0.2,0,0.3,0.1,0.4,0.3l7.6,24.8C219.3,32.1,219.3,32.1,219.3,32.2z M210.8,15.2
		c-0.1-0.2-0.1-0.5-0.2-0.8c-0.1-0.3-0.2-0.6-0.3-1h-0.2l-0.5,1.8l-2,7.6c0,0.1,0,0.1,0,0.1c0,0,0,0,0,0.1c0,0.2,0.1,0.4,0.4,0.4
		h4.3c0.3,0,0.4-0.1,0.4-0.4c0,0,0-0.1,0-0.1c0,0,0-0.1,0-0.1L210.8,15.2z"/>
	<path class="st0" d="M227.3,10.1c-0.4,0.2-0.8,0.4-1.2,0.8c-0.3,0.3-0.6,0.7-0.8,1.2c-0.2,0.4-0.3,0.9-0.3,1.4c0,0.5,0.1,1,0.4,1.4
		c0.2,0.4,0.6,0.8,1,1.1c0.4,0.3,1,0.7,1.7,1c0.7,0.3,1.4,0.7,2.2,1c1.1,0.5,2,1,2.8,1.5c0.8,0.5,1.4,1.1,2,1.8
		c0.5,0.6,0.9,1.3,1.2,2.1c0.3,0.8,0.4,1.7,0.4,2.7c0,1-0.2,2-0.5,2.8c-0.4,0.8-0.8,1.6-1.5,2.2c-0.6,0.6-1.4,1.1-2.3,1.4
		c-0.9,0.3-1.9,0.5-3,0.5h-1.7c-1,0-1.8-0.1-2.6-0.3c-0.8-0.2-1.4-0.5-1.8-0.9c-0.8-0.6-1.4-1.2-1.8-1.7c-0.4-0.5-0.6-1-0.6-1.3
		c0-0.1,0.1-0.2,0.2-0.3l2.6-1.3c0.1-0.1,0.2-0.1,0.2-0.1c0.1,0,0.2,0.1,0.4,0.3c0.2,0.3,0.5,0.6,0.7,0.9c0.2,0.3,0.4,0.5,0.7,0.7
		c0.2,0.2,0.5,0.4,0.9,0.5c0.3,0.1,0.7,0.2,1.2,0.2h1.7c1,0,1.9-0.4,2.6-1.1c0.7-0.7,1.1-1.6,1.1-2.6c0-0.6-0.1-1.1-0.3-1.5
		c-0.2-0.4-0.5-0.8-1-1.2c-0.4-0.4-0.9-0.7-1.5-1c-0.6-0.3-1.3-0.7-2.1-1.1c-1.1-0.5-2-1-2.9-1.5c-0.8-0.5-1.5-1-2.1-1.6
		c-0.6-0.6-1-1.3-1.3-2c-0.3-0.8-0.4-1.7-0.4-2.7s0.2-2,0.5-2.8c0.4-0.9,0.8-1.6,1.5-2.2c0.6-0.6,1.4-1.1,2.3-1.4
		c0.9-0.3,1.9-0.5,3-0.5h0.7c1,0,1.9,0.1,2.7,0.4c0.8,0.3,1.5,0.6,2.1,1.1c0.6,0.4,1.1,0.9,1.4,1.3c0.3,0.5,0.5,0.9,0.5,1.3
		c0,0.1-0.1,0.2-0.2,0.3l-2.6,1.3c-0.1,0-0.1,0-0.2,0c-0.1,0-0.2-0.1-0.3-0.2c-0.5-0.6-0.9-1.2-1.4-1.6c-0.5-0.4-1.1-0.7-2-0.7h-0.7
		C228.2,9.8,227.7,9.9,227.3,10.1z"/>
	<path class="st0" d="M254.8,32.6H241c-0.3,0-0.4-0.1-0.4-0.4V7.3c0-0.3,0.1-0.4,0.4-0.4h13.8c0.3,0,0.4,0.1,0.4,0.4v2.4
		c0,0.3-0.1,0.4-0.4,0.4h-10.2c-0.3,0-0.4,0.1-0.4,0.4v6.9c0,0.3,0.1,0.4,0.4,0.4h8.3c0.3,0,0.4,0.1,0.4,0.4v2.4
		c0,0.3-0.1,0.4-0.4,0.4h-8.3c-0.3,0-0.4,0.1-0.4,0.4v7.3c0,0.3,0.1,0.4,0.4,0.4h10.2c0.3,0,0.4,0.1,0.4,0.4v2.4
		C255.2,32.4,255.1,32.6,254.8,32.6z"/>
	<path class="st0" d="M276.1,32.3c0,0.2-0.1,0.3-0.4,0.3h-3.1l-0.4-0.3l-3.8-10.9l-0.3-0.2h-4c-0.3,0-0.4,0.1-0.4,0.4v10.6
		c0,0.3-0.1,0.4-0.4,0.4h-2.8c-0.3,0-0.4-0.1-0.4-0.4V7.3c0-0.3,0.1-0.4,0.4-0.4h8.1c2.3,0,4,0.7,5.4,2c1.3,1.3,2,3.1,2,5.4v0.4
		c0,0.7-0.2,1.5-0.6,2.3c-0.4,0.8-1,1.6-1.8,2.3c-0.4,0.4-0.7,0.6-1,0.7c-0.3,0.1-0.4,0.3-0.4,0.5c0,0.1,0,0.1,0,0.1L276,32
		C276.1,32.1,276.1,32.2,276.1,32.3z M272.2,13.9c0-1-0.4-1.9-1.1-2.6c-0.7-0.7-1.6-1.1-2.6-1.1H264c-0.3,0-0.4,0.1-0.4,0.4v6.9
		c0,0.3,0.1,0.4,0.4,0.4h4.5c1,0,1.9-0.4,2.6-1.1c0.7-0.7,1.1-1.6,1.1-2.6V13.9z"/>
	<path class="st0" d="M280.4,7.4h-0.5c-0.1,0-0.2,0.1-0.2,0.2v2.7c0,0.1-0.1,0.2-0.2,0.2h-0.2c-0.1,0-0.2-0.1-0.2-0.2V7.6
		c0-0.1-0.1-0.2-0.2-0.2h-0.5c-0.1,0-0.2-0.1-0.2-0.2V7c0-0.1,0.1-0.2,0.2-0.2h2.1c0.1,0,0.2,0.1,0.2,0.2v0.2
		C280.6,7.4,280.5,7.4,280.4,7.4z M284.5,10.5h-0.2c-0.1,0-0.2-0.1-0.2-0.2V8.9c0-0.2-0.1-0.2-0.2-0.2c-0.1,0-0.1,0-0.2,0.1
		l-0.5,0.8L283,9.7h-0.1l-0.2-0.1l-0.5-0.8c-0.1-0.1-0.1-0.1-0.2-0.1c-0.1,0-0.2,0.1-0.2,0.2v1.4c0,0.1-0.1,0.2-0.2,0.2h-0.2
		c-0.1,0-0.2-0.1-0.2-0.2V7c0-0.1,0.1-0.2,0.2-0.2h0.2l0.2,0.1l0.9,1.6c0.1,0.1,0.1,0.1,0.2,0.1s0.1,0,0.2-0.1l0.9-1.6l0.2-0.1h0.2
		c0.1,0,0.2,0.1,0.2,0.2v3.3C284.7,10.4,284.6,10.5,284.5,10.5z"/>
	<path class="st1" d="M310,32.6h-12.6c-0.3,0-0.4-0.1-0.4-0.4v-2.4c0-0.3,0.1-0.4,0.4-0.4h4.1c0.3,0,0.4-0.1,0.4-0.4V14.2
		c0-0.3-0.1-0.4-0.4-0.4c-0.1,0-0.2,0.1-0.3,0.2l-2,2c-0.1,0.1-0.2,0.2-0.3,0.2c-0.1,0-0.2-0.1-0.3-0.2l-1.8-1.8
		c-0.1-0.1-0.2-0.2-0.2-0.3c0-0.1,0.1-0.2,0.2-0.3l6.6-6.6l0.3-0.1h1.4c0.3,0,0.4,0.1,0.4,0.4v21.6c0,0.3,0.1,0.4,0.4,0.4h4.1
		c0.3,0,0.4,0.1,0.4,0.4v2.4C310.4,32.4,310.2,32.6,310,32.6z"/>
	<path class="st1" d="M328.2,32.6h-12.6c-0.3,0-0.4-0.1-0.4-0.4v-2.4c0-0.3,0.1-0.4,0.4-0.4h4.1c0.3,0,0.4-0.1,0.4-0.4V14.2
		c0-0.3-0.1-0.4-0.4-0.4c-0.1,0-0.2,0.1-0.3,0.2l-2,2c-0.1,0.1-0.2,0.2-0.3,0.2c-0.1,0-0.2-0.1-0.3-0.2l-1.8-1.8
		c-0.1-0.1-0.2-0.2-0.2-0.3c0-0.1,0.1-0.2,0.2-0.3l6.6-6.6l0.3-0.1h1.4c0.3,0,0.4,0.1,0.4,0.4v21.6c0,0.3,0.1,0.4,0.4,0.4h4.1
		c0.3,0,0.4,0.1,0.4,0.4v2.4C328.6,32.4,328.5,32.6,328.2,32.6z"/>
	<path class="st1" d="M347.7,28.9c-0.4,0.9-0.8,1.6-1.5,2.2c-0.6,0.6-1.4,1.1-2.3,1.4c-0.9,0.3-1.9,0.5-3,0.5h-1.2
		c-1.1,0-2.1-0.2-3-0.5c-0.9-0.3-1.7-0.8-2.3-1.4c-0.6-0.6-1.1-1.3-1.5-2.2c-0.4-0.9-0.5-1.8-0.5-2.8V13.4c0-1,0.2-2,0.5-2.8
		s0.8-1.6,1.5-2.2c0.6-0.6,1.4-1.1,2.3-1.4c0.9-0.3,1.9-0.5,3-0.5h1.2c1.1,0,2.1,0.2,3,0.5c0.9,0.3,1.7,0.8,2.3,1.4
		c0.6,0.6,1.1,1.3,1.5,2.2c0.4,0.9,0.5,1.8,0.5,2.8v12.6C348.2,27.1,348,28,347.7,28.9z M344.5,13.4c0-1-0.4-1.9-1.1-2.6
		c-0.7-0.7-1.6-1.1-2.6-1.1h-1.2c-1,0-1.9,0.4-2.6,1.1c-0.7,0.7-1.1,1.6-1.1,2.6v12.6c0,1,0.4,1.9,1.1,2.6c0.7,0.7,1.6,1.1,2.6,1.1
		h1.2c1,0,1.9-0.4,2.6-1.1c0.7-0.7,1.1-1.6,1.1-2.6V13.4z"/>
	<path class="st1" d="M369,28.9c-0.4,0.9-0.8,1.6-1.5,2.2c-0.6,0.6-1.4,1.1-2.3,1.4c-0.9,0.3-1.9,0.5-3,0.5h-1.2
		c-1.1,0-2.1-0.2-3-0.5c-0.9-0.3-1.7-0.8-2.3-1.4c-0.6-0.6-1.1-1.3-1.5-2.2c-0.4-0.9-0.5-1.8-0.5-2.8V13.4c0-1,0.2-2,0.5-2.8
		s0.8-1.6,1.5-2.2c0.6-0.6,1.4-1.1,2.3-1.4c0.9-0.3,1.9-0.5,3-0.5h1.2c1.1,0,2.1,0.2,3,0.5c0.9,0.3,1.7,0.8,2.3,1.4
		c0.6,0.6,1.1,1.3,1.5,2.2c0.4,0.9,0.5,1.8,0.5,2.8v12.6C369.5,27.1,369.3,28,369,28.9z M365.8,13.4c0-1-0.4-1.9-1.1-2.6
		c-0.7-0.7-1.6-1.1-2.6-1.1h-1.2c-1,0-1.9,0.4-2.6,1.1c-0.7,0.7-1.1,1.6-1.1,2.6v12.6c0,1,0.4,1.9,1.1,2.6c0.7,0.7,1.6,1.1,2.6,1.1
		h1.2c1,0,1.9-0.4,2.6-1.1c0.7-0.7,1.1-1.6,1.1-2.6V13.4z"/>
</g>
</svg>
