<?xml version="1.0" encoding="utf-8"?>
<!-- Generator: Adobe Illustrator 22.1.0, SVG Export Plug-In . SVG Version: 6.00 Build 0)  -->
<svg version="1.1" id="Layer_1" xmlns="http://www.w3.org/2000/svg" xmlns:xlink="http://www.w3.org/1999/xlink" x="0px" y="0px"
	 viewBox="0 0 290.2 33.1" style="enable-background:new 0 0 290.2 33.1;" xml:space="preserve">
<style type="text/css">
	.st0{fill:#444444;}
	.st1{fill:#FF611D;}
</style>
<path class="st0" d="M14.8,9c1.3,1.3,2,3.1,2,5.4c0,1-0.2,2-0.5,2.8c-0.4,0.8-0.9,1.6-1.5,2.2s-1.4,1.1-2.3,1.4
	c-0.9,0.3-1.9,0.5-3,0.5H4.9c-0.3,0-0.4,0.1-0.4,0.4v10.6c0,0.3-0.1,0.4-0.4,0.4H1.2c-0.3,0-0.4-0.1-0.4-0.4V7.4C0.8,7.2,1,7,1.2,7
	h8.2C11.7,7,13.4,7.7,14.8,9z M13.1,14c0-1-0.4-1.9-1.1-2.6c-0.7-0.7-1.6-1.1-2.6-1.1H4.9c-0.3,0-0.4,0.1-0.4,0.4v6.9
	c0,0.3,0.1,0.4,0.4,0.4h4.5c1,0,1.9-0.4,2.6-1.1c0.7-0.7,1.1-1.6,1.1-2.6V14z"/>
<path class="st0" d="M35,29c-0.4,0.9-0.9,1.6-1.5,2.2s-1.4,1.1-2.3,1.4c-0.9,0.3-1.9,0.5-3,0.5H27c-1.1,0-2.1-0.2-3-0.5
	s-1.7-0.8-2.3-1.4c-0.6-0.6-1.1-1.3-1.5-2.2c-0.4-0.9-0.5-1.8-0.5-2.8V13.5c0-1,0.2-2,0.5-2.8c0.4-0.9,0.8-1.6,1.5-2.2
	c0.6-0.6,1.4-1.1,2.3-1.4s1.9-0.5,3-0.5h1.2c1.1,0,2.1,0.2,3,0.5c0.9,0.3,1.7,0.8,2.3,1.4s1.1,1.3,1.5,2.2s0.5,1.8,0.5,2.8v12.6
	C35.5,27.2,35.4,28.2,35,29z M31.9,13.5c0-1-0.4-1.9-1.1-2.6c-0.7-0.7-1.6-1.1-2.6-1.1H27c-1,0-1.9,0.4-2.6,1.1
	c-0.7,0.7-1.1,1.6-1.1,2.6v12.6c0,1,0.4,1.9,1.1,2.6s1.6,1.1,2.6,1.1h1.2c1,0,1.9-0.4,2.6-1.1s1.1-1.6,1.1-2.6
	C31.9,26.1,31.9,13.5,31.9,13.5z"/>
<path class="st0" d="M55.7,32.7H41.8c-0.3,0-0.4-0.1-0.4-0.4V7.4c0-0.3,0.1-0.4,0.4-0.4h2.9c0.3,0,0.4,0.1,0.4,0.4V29
	c0,0.3,0.1,0.4,0.4,0.4h10.2c0.3,0,0.4,0.1,0.4,0.4v2.4C56.1,32.6,55.9,32.7,55.7,32.7z"/>
<path class="st0" d="M66.2,20.9v11.4c0,0.3-0.1,0.4-0.4,0.4H63c-0.3,0-0.4-0.1-0.4-0.4V20.9L55.5,7.6c-0.1-0.2-0.1-0.3-0.1-0.3
	c0-0.2,0.1-0.3,0.4-0.3h3.3l0.4,0.2l4.5,9.3c0.1,0.2,0.2,0.3,0.4,0.3s0.3-0.1,0.4-0.3l4.5-9.3L69.6,7H73c0.3,0,0.4,0.1,0.4,0.3
	c0,0,0,0.1-0.1,0.3L66.2,20.9z"/>
<path class="st0" d="M92.2,32.3L92.2,32.3c0,0.3-0.1,0.4-0.4,0.4h-3.1c-0.2,0-0.4-0.1-0.4-0.3L86.8,27c0-0.2-0.2-0.2-0.4-0.2h-6.6
	c-0.2,0-0.4,0.1-0.4,0.2l-1.5,5.4c0,0.2-0.2,0.3-0.4,0.3h-3.1c-0.3,0-0.4-0.1-0.4-0.4c0,0,0,0,0-0.1c0,0,0,0,0-0.1l7.6-24.9
	C81.6,7.1,81.7,7,82,7h2.2c0.2,0,0.3,0.1,0.4,0.3L92.2,32.3L92.2,32.3z M83.6,15.3c-0.1-0.2-0.1-0.5-0.2-0.8s-0.2-0.6-0.3-1H83
	l-0.5,1.8l-2,7.6c0,0.1,0,0.1,0,0.1s0,0,0,0.1c0,0.2,0.1,0.4,0.4,0.4h4.3c0.3,0,0.4-0.1,0.4-0.4V23v-0.1L83.6,15.3z"/>
<path class="st0" d="M101.4,10.2c-0.4,0.2-0.8,0.4-1.2,0.8c-0.3,0.3-0.6,0.7-0.8,1.2c-0.2,0.4-0.3,0.9-0.3,1.4s0.1,1,0.4,1.4
	s0.6,0.8,1,1.1s1,0.7,1.7,1s1.4,0.7,2.2,1c1.1,0.5,2,1,2.8,1.5s1.4,1.1,2,1.8c0.5,0.6,0.9,1.3,1.2,2.1c0.3,0.8,0.4,1.7,0.4,2.7
	s-0.2,2-0.5,2.8c-0.4,0.8-0.9,1.6-1.5,2.2s-1.4,1.1-2.3,1.4s-1.9,0.5-3,0.5h-1.7c-1,0-1.8-0.1-2.6-0.3c-0.8-0.2-1.4-0.5-1.8-0.9
	c-0.8-0.6-1.4-1.2-1.8-1.7s-0.6-1-0.6-1.3c0-0.1,0.1-0.2,0.2-0.3l2.6-1.3c0.1-0.1,0.2-0.1,0.2-0.1c0.1,0,0.2,0.1,0.4,0.3
	c0.2,0.3,0.5,0.6,0.7,0.9s0.4,0.5,0.7,0.7c0.2,0.2,0.5,0.4,0.9,0.5c0.3,0.1,0.7,0.2,1.2,0.2h1.7c1,0,1.9-0.4,2.6-1.1
	s1.1-1.6,1.1-2.6c0-0.6-0.1-1.1-0.3-1.5c-0.2-0.4-0.5-0.8-1-1.2c-0.4-0.4-0.9-0.7-1.5-1s-1.3-0.7-2.1-1.1c-1.1-0.5-2.1-1-2.9-1.5
	s-1.5-1-2.1-1.6s-1-1.3-1.3-2c-0.3-0.8-0.4-1.7-0.4-2.7s0.2-2,0.5-2.8c0.4-0.9,0.8-1.6,1.5-2.2c0.6-0.6,1.4-1.1,2.3-1.4
	s1.9-0.5,3-0.5h0.7c1,0,1.9,0.1,2.8,0.4c0.8,0.3,1.5,0.6,2.1,1.1c0.6,0.4,1.1,0.9,1.4,1.3c0.3,0.5,0.5,0.9,0.5,1.3
	c0,0.1-0.1,0.2-0.2,0.3l-2.6,1.3c-0.1,0-0.1,0-0.2,0s-0.2-0.1-0.3-0.2c-0.5-0.6-0.9-1.2-1.4-1.6c-0.5-0.4-1.1-0.7-2-0.7h-0.7
	C102.3,9.9,101.8,10,101.4,10.2z"/>
<path class="st0" d="M130.2,9c1.3,1.3,2,3.1,2,5.4c0,1-0.2,2-0.5,2.8c-0.4,0.8-0.9,1.6-1.5,2.2s-1.4,1.1-2.3,1.4
	c-0.9,0.3-1.9,0.5-3,0.5h-4.5c-0.3,0-0.4,0.1-0.4,0.4v10.6c0,0.3-0.1,0.4-0.4,0.4h-2.9c-0.3,0-0.4-0.1-0.4-0.4V7.4
	c0-0.3,0.1-0.4,0.4-0.4h8.2C127.1,7,128.9,7.7,130.2,9z M128.5,14c0-1-0.4-1.9-1.1-2.6c-0.7-0.7-1.6-1.1-2.6-1.1h-4.5
	c-0.3,0-0.4,0.1-0.4,0.4v6.9c0,0.3,0.1,0.4,0.4,0.4h4.5c1,0,1.9-0.4,2.6-1.1c0.7-0.7,1.1-1.6,1.1-2.6V14z"/>
<path class="st0" d="M151.1,32.3L151.1,32.3c0,0.3-0.1,0.4-0.4,0.4h-3.1c-0.2,0-0.4-0.1-0.4-0.3l-1.5-5.4c0-0.2-0.2-0.2-0.4-0.2
	h-6.6c-0.2,0-0.4,0.1-0.4,0.2l-1.5,5.4c0,0.2-0.2,0.3-0.4,0.3h-3.1c-0.3,0-0.4-0.1-0.4-0.4c0,0,0,0,0-0.1c0,0,0,0,0-0.1l7.6-24.9
	c0-0.2,0.2-0.3,0.4-0.3h2.2c0.2,0,0.3,0.1,0.4,0.3l7.6,24.9C151.1,32.2,151.1,32.3,151.1,32.3z M142.6,15.3
	c-0.1-0.2-0.1-0.5-0.2-0.8c-0.1-0.3-0.2-0.6-0.3-1h-0.2l-0.5,1.8l-2,7.6c0,0.1,0,0.1,0,0.1s0,0,0,0.1c0,0.2,0.1,0.4,0.4,0.4h4.3
	c0.3,0,0.4-0.1,0.4-0.4V23v-0.1L142.6,15.3z"/>
<path class="st0" d="M171.8,32.4c0,0.2-0.1,0.3-0.4,0.3h-3.1l-0.4-0.3l-3.8-10.9l-0.3-0.2h-4c-0.3,0-0.4,0.1-0.4,0.4v10.6
	c0,0.3-0.1,0.4-0.4,0.4h-2.9c-0.3,0-0.4-0.1-0.4-0.4V7.4c0-0.3,0.1-0.4,0.4-0.4h8.2c2.3,0,4,0.7,5.4,2c1.3,1.3,2,3.1,2,5.4v0.4
	c0,0.7-0.2,1.5-0.6,2.3c-0.4,0.8-1,1.6-1.8,2.3c-0.4,0.4-0.7,0.6-1,0.7s-0.4,0.3-0.4,0.5c0,0.1,0,0.1,0,0.1l4,11.4
	C171.8,32.2,171.8,32.3,171.8,32.4z M167.9,14c0-1-0.4-1.9-1.1-2.6c-0.7-0.7-1.6-1.1-2.6-1.1h-4.5c-0.3,0-0.4,0.1-0.4,0.4v6.9
	c0,0.3,0.1,0.4,0.4,0.4h4.5c1,0,1.9-0.4,2.6-1.1c0.7-0.7,1.1-1.6,1.1-2.6V14z"/>
<path class="st0" d="M189.5,10.3h-4.7c-0.3,0-0.4,0.1-0.4,0.4v21.6c0,0.3-0.1,0.4-0.4,0.4h-2.9c-0.3,0-0.4-0.1-0.4-0.4V10.7
	c0-0.3-0.1-0.4-0.4-0.4h-4.7c-0.3,0-0.4-0.1-0.4-0.4V7.4c0-0.3,0.1-0.4,0.4-0.4h13.9c0.3,0,0.4,0.1,0.4,0.4v2.4
	C189.9,10.2,189.7,10.3,189.5,10.3z"/>
<path class="st0" d="M198,32.7h-2.9c-0.3,0-0.4-0.1-0.4-0.4V7.4c0-0.3,0.1-0.4,0.4-0.4h2.9c0.3,0,0.4,0.1,0.4,0.4v24.9
	C198.4,32.6,198.3,32.7,198,32.7z"/>
<path class="st0" d="M220.7,28.9c0,0.1-0.1,0.4-0.4,0.9c-0.3,0.5-0.7,1-1.3,1.6c-1.2,1.1-2.9,1.7-5.1,1.7h-1.2c-1.1,0-2.1-0.2-3-0.5
	s-1.7-0.8-2.3-1.4s-1.1-1.3-1.5-2.2c-0.4-0.9-0.5-1.8-0.5-2.8V13.5c0-1,0.2-2,0.5-2.8c0.4-0.9,0.8-1.6,1.5-2.2s1.4-1.1,2.3-1.4
	c0.9-0.3,1.9-0.5,3-0.5h1.2c1,0,1.9,0.1,2.8,0.4c0.8,0.3,1.5,0.6,2.1,1c0.6,0.4,1.1,0.9,1.4,1.3c0.3,0.5,0.5,0.9,0.5,1.3
	c0,0.1-0.1,0.2-0.2,0.3l-2.6,1.3c-0.1,0-0.1,0-0.2,0c-0.1,0-0.2-0.1-0.3-0.2c-0.5-0.6-0.9-1.2-1.4-1.6c-0.5-0.4-1.1-0.7-2-0.7h-1.2
	c-1,0-1.9,0.4-2.6,1.1c-0.7,0.7-1.1,1.6-1.1,2.6V26c0,1,0.4,1.9,1.1,2.6c0.7,0.7,1.6,1.1,2.6,1.1h1.2c0.5,0,0.9-0.1,1.3-0.3
	s0.7-0.4,0.9-0.6c0.5-0.5,0.8-1,1-1.3s0.4-0.5,0.5-0.5s0.1,0,0.2,0.1l2.6,1.3C220.6,28.7,220.7,28.8,220.7,28.9z"/>
<path class="st1" d="M249.7,14.7c-0.3,0.9-0.7,1.6-1.2,2.4c-0.5,0.7-1.2,1.4-1.9,2c-0.8,0.6-1.6,1.3-2.6,1.9
	c-0.6,0.4-1.2,0.8-1.7,1.2c-0.5,0.4-1,0.8-1.3,1.2c-0.4,0.4-0.6,0.8-0.8,1.3c-0.2,0.4-0.3,1-0.3,1.5v6.1c0,0.3-0.1,0.4-0.4,0.4h-2.9
	c-0.3,0-0.4-0.1-0.4-0.4v-6.1c0-1,0.1-1.8,0.3-2.6c0.2-0.7,0.6-1.4,1-2.1c0.4-0.6,1-1.2,1.6-1.8c0.7-0.6,1.4-1.1,2.3-1.7
	c0.7-0.5,1.4-1,2-1.4s1.1-0.9,1.5-1.4s0.8-1,1-1.5c0.2-0.6,0.4-1.2,0.4-1.9v-1.1c0-0.3-0.1-0.4-0.4-0.4h-10.2
	c-0.3,0-0.4-0.1-0.4-0.4V7.4c0-0.3,0.1-0.4,0.4-0.4h13.9c0.3,0,0.4,0.1,0.4,0.4v4.3C250.2,12.9,250,13.9,249.7,14.7z"/>
<path class="st1" d="M269.7,26.8h-2.9c-0.3,0-0.4,0.1-0.4,0.4v5.1c0,0.3-0.1,0.4-0.4,0.4h-2.9c-0.3,0-0.4-0.1-0.4-0.4v-5.1
	c0-0.3-0.1-0.4-0.4-0.4h-10.2c-0.2,0-0.4-0.1-0.4-0.3v-0.1v-2.9l10.8-16.4L263,7h3.1c0.3,0,0.4,0.1,0.4,0.4v15.7
	c0,0.3,0.1,0.4,0.4,0.4h2.9c0.3,0,0.4,0.1,0.4,0.4v2.4C270.1,26.7,270,26.8,269.7,26.8z M262.8,13.9c0-0.3-0.1-0.4-0.4-0.4
	c-0.2,0-0.3,0.1-0.4,0.2l-6.2,9.3c-0.1,0.1-0.1,0.2-0.1,0.3c0,0.2,0.1,0.3,0.4,0.3h6.2c0.3,0,0.4-0.1,0.4-0.4L262.8,13.9L262.8,13.9
	z"/>
<path class="st1" d="M287.2,31.2c-1.3,1.3-3.1,2-5.4,2h-1.2c-1,0-1.8-0.1-2.6-0.3c-0.8-0.2-1.4-0.5-1.8-0.9
	c-0.8-0.6-1.4-1.2-1.8-1.7s-0.6-1-0.6-1.3c0-0.1,0.1-0.2,0.2-0.3l2.6-1.3c0.1-0.1,0.2-0.1,0.2-0.1c0.1,0,0.2,0.1,0.4,0.3
	c0.2,0.3,0.5,0.6,0.7,0.9s0.4,0.5,0.7,0.7c0.2,0.2,0.5,0.4,0.9,0.5c0.3,0.1,0.7,0.2,1.2,0.2h1.2c1,0,1.9-0.4,2.6-1.1
	s1.1-1.6,1.1-2.6v-1.4c0-1-0.4-1.9-1.1-2.6s-1.6-1.1-2.6-1.1h-6.5c-0.3,0-0.4-0.1-0.4-0.4V7.4c0-0.3,0.1-0.4,0.4-0.4h13.1
	c0.3,0,0.4,0.1,0.4,0.4v2.4c0,0.3-0.1,0.4-0.4,0.4h-9.4c-0.3,0-0.4,0.1-0.4,0.4v6.7c0,0.3,0.1,0.4,0.4,0.4h2.9c2.3,0,4.1,0.7,5.4,2
	s2,3.1,2,5.3v0.8C289.1,28.1,288.5,29.9,287.2,31.2z"/>
</svg>
