<?xml version="1.0" encoding="utf-8"?>
<!-- Generator: Adobe Illustrator 22.1.0, SVG Export Plug-In . SVG Version: 6.00 Build 0)  -->
<svg version="1.1" id="Layer_1" xmlns="http://www.w3.org/2000/svg" xmlns:xlink="http://www.w3.org/1999/xlink" x="0px" y="0px"
	 viewBox="0 0 268.2 33.1" style="enable-background:new 0 0 268.2 33.1;" xml:space="preserve">
<style type="text/css">
	.st0{fill:#FF611D;}
	.st1{fill:#444444;}
</style>
<path class="st0" d="M265.6,30.9c-1.3,1.3-3.1,1.9-5.4,1.9H259c-1,0-1.8-0.1-2.6-0.3c-0.8-0.2-1.4-0.5-1.8-0.9
	c-0.8-0.6-1.4-1.2-1.7-1.7c-0.4-0.5-0.6-1-0.6-1.3c0-0.1,0.1-0.2,0.2-0.3l2.6-1.3c0.1-0.1,0.2-0.1,0.2-0.1c0.1,0,0.2,0.1,0.4,0.3
	c0.2,0.3,0.5,0.6,0.7,0.9s0.4,0.5,0.7,0.7c0.2,0.2,0.5,0.4,0.9,0.5c0.3,0.1,0.7,0.2,1.2,0.2h1.2c1,0,1.9-0.4,2.6-1.1
	s1.1-1.6,1.1-2.6v-1.4c0-1-0.4-1.9-1.1-2.6s-1.6-1.1-2.6-1.1h-6.5c-0.3,0-0.4-0.1-0.4-0.4v-13c0-0.3,0.1-0.4,0.4-0.4h13
	c0.3,0,0.4,0.1,0.4,0.4v2.4c0,0.3-0.1,0.4-0.4,0.4h-9.3c-0.3,0-0.4,0.1-0.4,0.4v6.7c0,0.3,0.1,0.4,0.4,0.4h2.8
	c2.3,0,4.1,0.6,5.4,1.9s1.9,3.1,1.9,5.3v0.8C267.5,27.8,266.9,29.6,265.6,30.9z"/>
<path class="st1" d="M6.4,10.1c-0.4,0.2-0.8,0.4-1.2,0.8c-0.3,0.3-0.6,0.7-0.8,1.2c-0.2,0.4-0.3,0.9-0.3,1.4s0.1,1,0.4,1.4
	c0.2,0.4,0.6,0.8,1,1.1c0.4,0.3,1,0.7,1.7,1s1.4,0.7,2.2,1c1.1,0.5,2,1,2.8,1.5s1.4,1.1,2,1.8c0.5,0.6,0.9,1.3,1.2,2.1
	c0.3,0.8,0.4,1.7,0.4,2.7s-0.2,2-0.5,2.8c-0.4,0.8-0.8,1.6-1.5,2.2c-0.6,0.6-1.4,1.1-2.3,1.4c-0.9,0.3-1.9,0.5-3,0.5H6.8
	c-1,0-1.8-0.1-2.6-0.3s-1.4-0.5-1.8-0.9c-0.8-0.6-1.4-1.2-1.7-1.7c-0.4-0.5-0.6-1-0.6-1.3c0-0.1,0.1-0.2,0.2-0.3l2.6-1.3L3,27.1
	c0.1,0,0.2,0.1,0.4,0.3c0.2,0.3,0.5,0.6,0.7,0.9s0.4,0.5,0.7,0.7c0.2,0.2,0.5,0.4,0.9,0.5c0.3,0.1,0.7,0.2,1.2,0.2h1.7
	c1,0,1.9-0.4,2.6-1.1s1.1-1.6,1.1-2.6c0-0.6-0.1-1.1-0.3-1.5s-0.5-0.8-1-1.2c-0.4-0.4-0.9-0.7-1.5-1c-0.8-0.3-1.5-0.6-2.3-1
	c-1.1-0.5-2-1-2.9-1.5c-0.8-0.5-1.5-1-2.1-1.6s-1-1.3-1.3-2c-0.3-0.8-0.4-1.7-0.4-2.7s0.2-2,0.5-2.8c0.4-0.9,0.8-1.6,1.5-2.2
	c0.6-0.6,1.4-1.1,2.3-1.4s1.9-0.5,3-0.5h0.7c1,0,1.9,0.1,2.7,0.4s1.5,0.6,2.1,1.1c0.6,0.4,1.1,0.9,1.4,1.3c0.3,0.5,0.5,0.9,0.5,1.3
	c0,0.1-0.1,0.2-0.2,0.3l-2.6,1.3c-0.1,0-0.1,0-0.2,0c-0.1,0-0.2-0.1-0.3-0.2c-0.5-0.6-0.9-1.2-1.4-1.6C10,10,9.3,9.8,8.5,9.8H7.8
	C7.3,9.8,6.9,9.9,6.4,10.1z"/>
<path class="st1" d="M23.4,32.6h-2.8c-0.3,0-0.4-0.1-0.4-0.4V7.4c0-0.3,0.1-0.4,0.4-0.4h2.8c0.3,0,0.4,0.1,0.4,0.4v24.8
	C23.8,32.5,23.6,32.6,23.4,32.6z"/>
<path class="st1" d="M43.7,32.6H29.9c-0.3,0-0.4-0.1-0.4-0.4V7.4c0-0.3,0.1-0.4,0.4-0.4h2.8c0.3,0,0.4,0.1,0.4,0.4V29
	c0,0.3,0.1,0.4,0.4,0.4h10.2c0.3,0,0.4,0.1,0.4,0.4v2.4C44.1,32.5,44,32.6,43.7,32.6z"/>
<path class="st1" d="M62.7,28.9c-0.4,0.9-0.8,1.6-1.5,2.2c-0.6,0.6-1.4,1.1-2.3,1.4C58,32.8,57,33,55.9,33h-1.2
	c-1.1,0-2.1-0.2-3-0.5s-1.7-0.8-2.3-1.4s-1.1-1.3-1.5-2.2c-0.4-0.9-0.5-1.8-0.5-2.8V13.5c0-1,0.2-2,0.5-2.8c0.4-0.9,0.8-1.6,1.5-2.2
	c0.6-0.6,1.4-1.1,2.3-1.4c0.9-0.3,1.9-0.5,3-0.5h1.2c1.1,0,2.1,0.2,3,0.5s1.7,0.8,2.3,1.4s1.1,1.3,1.5,2.2s0.5,1.8,0.5,2.8v12.6
	C63.2,27.1,63,28.1,62.7,28.9z M59.5,13.5c0-1-0.4-1.9-1.1-2.6c-0.7-0.7-1.6-1.1-2.6-1.1h-1.2c-1,0-1.9,0.4-2.6,1.1
	c-0.7,0.7-1.1,1.6-1.1,2.6v12.6c0,1,0.4,1.9,1.1,2.6c0.7,0.7,1.6,1.1,2.6,1.1h1.2c1,0,1.9-0.4,2.6-1.1c0.7-0.7,1.1-1.6,1.1-2.6V13.5
	z"/>
<path class="st1" d="M83.8,32.3c0,0.2-0.1,0.3-0.4,0.3h-3.5c-0.2,0-0.3-0.1-0.4-0.2l-4-8.6c-0.1-0.2-0.2-0.3-0.4-0.3
	c-0.2,0-0.3,0.1-0.4,0.3l-4.2,8.6l-0.4,0.2h-3.5c-0.3,0-0.4-0.1-0.4-0.3c0,0,0-0.1,0.1-0.3l6.1-12v-0.4l-6.1-12
	c-0.1-0.2-0.1-0.3-0.1-0.3c0-0.2,0.1-0.3,0.4-0.3h3.5l0.4,0.2l4.2,8.7c0.1,0.2,0.2,0.3,0.4,0.3c0.2,0,0.3-0.1,0.4-0.3l4-8.7
	C79.6,7.1,79.7,7,79.8,7h3.5c0.3,0,0.4,0.1,0.4,0.3c0,0.1,0,0.1-0.1,0.2l-6.1,12v0.4L83.7,32C83.8,32.1,83.8,32.2,83.8,32.3z"/>
<path class="st1" d="M104.5,32.2L104.5,32.2c0,0.3-0.1,0.4-0.4,0.4h-3c-0.2,0-0.4-0.1-0.4-0.3l-1.5-5.4c0-0.2-0.2-0.2-0.4-0.2h-6.6
	c-0.2,0-0.4,0.1-0.4,0.2l-1.5,5.4c0,0.2-0.2,0.3-0.4,0.3h-3c-0.3,0-0.4-0.1-0.4-0.4c0,0,0,0,0-0.1c0,0,0,0,0-0.1l7.6-24.8
	C94,7.1,94.1,7,94.3,7h2.2c0.2,0,0.3,0.1,0.4,0.3l7.6,24.8V32.2z M96,15.3c-0.1-0.2-0.1-0.5-0.2-0.8s-0.2-0.6-0.3-1h-0.2l-0.5,1.8
	l-2,7.6c0,0.1,0,0.1,0,0.1s0,0,0,0.1c0,0.2,0.1,0.4,0.4,0.4h4.3c0.3,0,0.4-0.1,0.4-0.4V23v-0.1L96,15.3z"/>
<path class="st1" d="M131.2,10.2h-4.7c-0.3,0-0.4,0.1-0.4,0.4v21.6c0,0.3-0.1,0.4-0.4,0.4h-2.8c-0.3,0-0.4-0.1-0.4-0.4V10.6
	c0-0.3-0.1-0.4-0.4-0.4h-4.7c-0.3,0-0.4-0.1-0.4-0.4V7.4c0-0.3,0.1-0.4,0.4-0.4h13.8c0.3,0,0.4,0.1,0.4,0.4v2.4
	C131.6,10.1,131.5,10.2,131.2,10.2z"/>
<path class="st1" d="M150.6,32.6h-13.8c-0.3,0-0.4-0.1-0.4-0.4V7.4c0-0.3,0.1-0.4,0.4-0.4h13.8c0.3,0,0.4,0.1,0.4,0.4v2.4
	c0,0.3-0.1,0.4-0.4,0.4h-10.2c-0.3,0-0.4,0.1-0.4,0.4v6.9c0,0.3,0.1,0.4,0.4,0.4h8.3c0.3,0,0.4,0.1,0.4,0.4v2.4
	c0,0.3-0.1,0.4-0.4,0.4h-8.3c-0.3,0-0.4,0.1-0.4,0.4v7.3c0,0.3,0.1,0.4,0.4,0.4h10.2c0.3,0,0.4,0.1,0.4,0.4V32
	C151,32.5,150.9,32.6,150.6,32.6z"/>
<path class="st1" d="M174.1,32.3c0,0.2-0.1,0.3-0.4,0.3h-3.6l-0.3-0.2l-7.3-11.8c-0.8,0.9-1.7,2.1-2.8,3.5v8.1
	c0,0.3-0.1,0.4-0.4,0.4h-2.8c-0.3,0-0.4-0.1-0.4-0.4V7.4c0-0.3,0.1-0.4,0.4-0.4h2.8c0.3,0,0.4,0.1,0.4,0.4v10.7
	c0,0.3,0.1,0.5,0.4,0.5c0.1,0,0.2-0.1,0.4-0.2L169,7.2l0.3-0.2h3.4c0.3,0,0.4,0.1,0.4,0.3c0,0.1,0,0.2-0.1,0.3l-7.8,9.6
	c-0.1,0.1-0.1,0.1-0.1,0.2s0,0.1,0,0.2l8.9,14.3C174.1,32.1,174.1,32.2,174.1,32.3z"/>
<path class="st0" d="M205.6,31c-1.3,1.3-3.1,2-5.4,2H199c-2.3,0-4.1-0.7-5.4-2s-2-3.1-2-5.3v-1c0-0.5,0.1-1,0.3-1.6s0.5-1.2,0.9-1.8
	c0.4-0.5,0.7-0.9,1-1.2s0.5-0.4,0.5-0.6s-0.2-0.4-0.5-0.6s-0.7-0.6-1-1c-0.8-1.2-1.3-2.3-1.3-3.3v-0.8c0-2.3,0.7-4,2-5.3
	s3.1-2,5.3-2h1.2c2.3,0,4,0.7,5.3,2s2,3.1,2,5.3v0.8c0,1-0.4,2.1-1.3,3.3c-0.3,0.5-0.7,0.8-1,1s-0.5,0.4-0.5,0.6
	c0,0.1,0.2,0.3,0.5,0.6c0.3,0.2,0.7,0.6,1,1.2c0.8,1.2,1.3,2.4,1.3,3.4v1C207.6,28,206.9,29.7,205.6,31z M203.9,13.5
	c0-1-0.4-1.9-1.1-2.6c-0.7-0.7-1.6-1.1-2.6-1.1H199c-1,0-1.9,0.4-2.6,1.1c-0.7,0.7-1.1,1.6-1.1,2.6v0.8c0,1,0.4,1.9,1.1,2.6
	c0.7,0.7,1.6,1.1,2.6,1.1h1.2c1,0,1.9-0.4,2.6-1.1c0.7-0.7,1.1-1.6,1.1-2.6L203.9,13.5L203.9,13.5z M203.9,24.9c0-1-0.4-1.9-1.1-2.6
	c-0.7-0.7-1.6-1.1-2.6-1.1H199c-1,0-1.9,0.4-2.6,1.1c-0.7,0.7-1.1,1.6-1.1,2.6v1.2c0,1,0.4,1.9,1.1,2.6c0.7,0.7,1.6,1.1,2.6,1.1h1.2
	c1,0,1.9-0.4,2.6-1.1c0.7-0.7,1.1-1.6,1.1-2.6L203.9,24.9L203.9,24.9z"/>
<path class="st0" d="M224.9,31c-1.3,1.3-3.1,2-5.4,2h-1.2c-1,0-1.8-0.1-2.6-0.3s-1.4-0.5-1.8-0.9c-0.8-0.6-1.4-1.2-1.7-1.7
	c-0.4-0.5-0.6-1-0.6-1.3c0-0.1,0.1-0.2,0.2-0.3l2.6-1.3c0.1-0.1,0.2-0.1,0.2-0.1c0.1,0,0.2,0.1,0.4,0.3c0.2,0.3,0.5,0.6,0.7,0.9
	s0.4,0.5,0.7,0.7c0.2,0.2,0.5,0.4,0.9,0.5c0.3,0.1,0.7,0.2,1.2,0.2h1.2c1,0,1.9-0.4,2.6-1.1c0.7-0.7,1.1-1.6,1.1-2.6v-1.4
	c0-1-0.4-1.9-1.1-2.6c-0.7-0.7-1.6-1.1-2.6-1.1h-6.5c-0.3,0-0.4-0.1-0.4-0.4V7.4c0-0.3,0.1-0.4,0.4-0.4h13c0.3,0,0.4,0.1,0.4,0.4
	v2.4c0,0.3-0.1,0.4-0.4,0.4h-9.4c-0.3,0-0.4,0.1-0.4,0.4v6.7c0,0.3,0.1,0.4,0.4,0.4h2.8c2.3,0,4.1,0.7,5.4,2c1.3,1.3,2,3.1,2,5.3
	v0.8C226.9,28,226.2,29.7,224.9,31z"/>
<path class="st0" d="M246.9,28.9c-0.4,0.9-0.8,1.6-1.5,2.2c-0.6,0.6-1.4,1.1-2.3,1.4c-0.9,0.3-1.9,0.5-3,0.5h-1.2
	c-1.1,0-2.1-0.2-3-0.5s-1.7-0.8-2.3-1.4s-1.1-1.3-1.5-2.2c-0.4-0.9-0.5-1.8-0.5-2.8V13.5c0-1,0.2-2,0.5-2.8c0.4-0.9,0.8-1.6,1.5-2.2
	c0.6-0.6,1.4-1.1,2.3-1.4c0.9-0.3,1.9-0.5,3-0.5h1.2c1.1,0,2.1,0.2,3,0.5s1.7,0.8,2.3,1.4s1.1,1.3,1.5,2.2s0.5,1.8,0.5,2.8v12.6
	C247.4,27.1,247.2,28.1,246.9,28.9z M243.7,13.5c0-1-0.4-1.9-1.1-2.6c-0.7-0.7-1.6-1.1-2.6-1.1h-1.2c-1,0-1.9,0.4-2.6,1.1
	c-0.7,0.7-1.1,1.6-1.1,2.6v12.6c0,1,0.4,1.9,1.1,2.6c0.7,0.7,1.6,1.1,2.6,1.1h1.2c1,0,1.9-0.4,2.6-1.1c0.7-0.7,1.1-1.6,1.1-2.6V13.5
	z"/>
<g>
	<path class="st1" d="M182.3,11.9c-0.2,0.4-0.4,0.7-0.7,1s-0.7,0.5-1.1,0.7c-0.4,0.2-0.9,0.2-1.4,0.2H179c-0.5,0-1-0.1-1.4-0.2
		c-0.4-0.2-0.8-0.4-1.1-0.7s-0.5-0.6-0.7-1s-0.2-0.8-0.2-1.3v-0.4c0-0.5,0.1-0.9,0.2-1.3c0.2-0.4,0.4-0.7,0.7-1s0.7-0.5,1.1-0.7
		C178,7,178.5,7,179,7h0.1c0.5,0,1,0.1,1.4,0.2c0.4,0.2,0.8,0.4,1.1,0.7c0.3,0.3,0.5,0.6,0.7,1s0.2,0.8,0.2,1.3v0.4
		C182.5,11.1,182.4,11.5,182.3,11.9z M181.9,10.2c0-0.8-0.3-1.4-0.8-1.9s-1.2-0.7-2.1-0.7h-0.1c-0.9,0-1.6,0.2-2.1,0.7
		s-0.8,1.1-0.8,1.9v0.4c0,0.8,0.3,1.4,0.8,1.9s1.2,0.7,2.1,0.7h0.1c0.9,0,1.6-0.2,2.1-0.7s0.8-1.1,0.8-1.9V10.2z M180.4,10.2
		c-0.1,0.1-0.1,0.2-0.2,0.3c-0.1,0.1-0.1,0.1-0.2,0.2c-0.1,0.1-0.1,0.1-0.1,0.2c0,0,0,0,0,0.1l0.5,0.9c0,0.1,0,0.1,0,0.1
		c0,0.1-0.1,0.2-0.2,0.2h-0.3c-0.1,0-0.1-0.1-0.2-0.1l-0.4-1c0,0-0.1-0.1-0.2-0.1h-0.5c-0.1,0-0.2,0.1-0.2,0.2v0.9
		c0,0.1-0.1,0.2-0.2,0.2h-0.1c-0.1,0-0.2-0.1-0.2-0.2V8.7c0-0.1,0.1-0.2,0.2-0.2h1.2c0.4,0,0.7,0.1,0.9,0.3s0.3,0.5,0.3,0.9v0.1
		C180.5,10,180.4,10.1,180.4,10.2z M179.9,9.7c0-0.2-0.1-0.3-0.2-0.4c-0.1-0.1-0.2-0.2-0.4-0.2h-0.6c-0.1,0-0.2,0.1-0.2,0.2v0.9
		c0,0.1,0.1,0.2,0.2,0.2h0.6c0.2,0,0.3-0.1,0.4-0.2S179.9,9.9,179.9,9.7L179.9,9.7z"/>
</g>
<path class="st1" d="M113.9,21.3h-6.7c-0.3,0-0.4-0.1-0.4-0.4v-2.7c0-0.3,0.1-0.4,0.4-0.4h6.7c0.3,0,0.4,0.1,0.4,0.4v2.7
	C114.3,21.2,114.2,21.3,113.9,21.3z"/>
</svg>
