<?xml version="1.0" encoding="utf-8"?>
<!-- Generator: Adobe Illustrator 22.1.0, SVG Export Plug-In . SVG Version: 6.00 Build 0)  -->
<svg version="1.1" id="Layer_1" xmlns="http://www.w3.org/2000/svg" xmlns:xlink="http://www.w3.org/1999/xlink" x="0px" y="0px"
	 viewBox="0 0 237.5 33.1" style="enable-background:new 0 0 237.5 33.1;" xml:space="preserve">
<style type="text/css">
	.st0{fill:#444444;}
	.st1{fill:#FF611D;}
</style>
<path class="st0" d="M15.6,29c-0.4,0.9-0.9,1.6-1.5,2.2s-1.4,1.1-2.3,1.4c-0.9,0.3-1.9,0.5-3,0.5H7.6c-1.1,0-2.1-0.2-3-0.5
	s-1.7-0.8-2.3-1.4S1.2,29.9,0.8,29c-0.4-0.9-0.5-1.8-0.5-2.8V7.4C0.2,7.2,0.4,7,0.6,7h2.9c0.3,0,0.4,0.1,0.4,0.4v18.8
	c0,1,0.4,1.9,1.1,2.6s1.6,1.1,2.6,1.1h1.2c1,0,1.9-0.4,2.6-1.1s1.1-1.6,1.1-2.6V7.4c0-0.3,0.1-0.4,0.4-0.4h2.9
	c0.3,0,0.4,0.1,0.4,0.4v18.8C16.1,27.2,16,28.2,15.6,29z"/>
<path class="st0" d="M39.2,32.4c0,0.2-0.1,0.3-0.4,0.3h-3.1l-0.4-0.3l-3.8-10.9l-0.3-0.2h-4c-0.3,0-0.4,0.1-0.4,0.4v10.6
	c0,0.3-0.1,0.4-0.4,0.4h-2.9c-0.3,0-0.4-0.1-0.4-0.4V7.4c0-0.3,0.1-0.4,0.4-0.4h8.2c2.3,0,4,0.7,5.4,2c1.3,1.3,2,3.1,2,5.4v0.4
	c0,0.7-0.2,1.5-0.6,2.3c-0.4,0.8-1,1.6-1.8,2.3c-0.4,0.4-0.7,0.6-1,0.7s-0.4,0.3-0.4,0.5c0,0.1,0,0.1,0,0.1l4,11.4
	C39.2,32.2,39.2,32.3,39.2,32.4z M35.3,14c0-1-0.4-1.9-1.1-2.6c-0.7-0.7-1.6-1.1-2.6-1.1h-4.5c-0.3,0-0.4,0.1-0.4,0.4v6.9
	c0,0.3,0.1,0.4,0.4,0.4h4.5c1,0,1.9-0.4,2.6-1.1s1.1-1.6,1.1-2.6V14z"/>
<path class="st0" d="M59.2,32.7H45.3c-0.3,0-0.4-0.1-0.4-0.4V7.4C44.9,7.2,45,7,45.3,7h13.9c0.3,0,0.4,0.1,0.4,0.4v2.4
	c0,0.3-0.1,0.4-0.4,0.4H49c-0.3,0-0.4,0.1-0.4,0.4v6.9c0,0.3,0.1,0.4,0.4,0.4h8.4c0.3,0,0.4,0.1,0.4,0.4v2.4c0,0.3-0.1,0.4-0.4,0.4
	H49c-0.3,0-0.4,0.1-0.4,0.4V29c0,0.3,0.1,0.4,0.4,0.4h10.2c0.3,0,0.4,0.1,0.4,0.4v2.4C59.6,32.6,59.4,32.7,59.2,32.7z"/>
<path class="st0" d="M77.9,10.3h-4.7c-0.3,0-0.4,0.1-0.4,0.4v21.6c0,0.3-0.1,0.4-0.4,0.4h-2.9c-0.3,0-0.4-0.1-0.4-0.4V10.7
	c0-0.3-0.1-0.4-0.4-0.4H64c-0.3,0-0.4-0.1-0.4-0.4V7.4C63.6,7.1,63.7,7,64,7h13.9c0.3,0,0.4,0.1,0.4,0.4v2.4
	C78.3,10.2,78.2,10.3,77.9,10.3z"/>
<path class="st0" d="M99.3,32.7h-2.9c-0.3,0-0.4-0.1-0.4-0.4V21.7c0-0.3-0.1-0.4-0.4-0.4h-8.4c-0.3,0-0.4,0.1-0.4,0.4v10.6
	c0,0.3-0.1,0.4-0.4,0.4h-2.9c-0.3,0-0.4-0.1-0.4-0.4V7.4c0-0.3,0.1-0.4,0.4-0.4h2.9c0.3,0,0.4,0.1,0.4,0.4v10.2
	c0,0.3,0.1,0.4,0.4,0.4h8.4c0.3,0,0.4-0.1,0.4-0.4V7.4C96,7.2,96.1,7,96.4,7h2.9c0.3,0,0.4,0.1,0.4,0.4v24.9
	C99.7,32.6,99.5,32.7,99.3,32.7z"/>
<path class="st0" d="M122.5,32.3C122.6,32.3,122.6,32.3,122.5,32.3c0,0.3-0.1,0.4-0.4,0.4H119c-0.2,0-0.4-0.1-0.4-0.3l-1.5-5.4
	c0-0.2-0.2-0.2-0.4-0.2h-6.6c-0.2,0-0.4,0.1-0.4,0.2l-1.5,5.4c0,0.2-0.2,0.3-0.4,0.3h-3.1c-0.3,0-0.4-0.1-0.4-0.4c0,0,0,0,0-0.1
	c0,0,0,0,0-0.1l7.6-24.9c0-0.2,0.2-0.3,0.4-0.3h2.2c0.2,0,0.3,0.1,0.4,0.3l7.6,24.9C122.5,32.2,122.5,32.3,122.5,32.3z M114,15.3
	c-0.1-0.2-0.1-0.5-0.2-0.8s-0.2-0.6-0.3-1h-0.2l-0.5,1.8l-2,7.6c0,0.1,0,0.1,0,0.1s0,0,0,0.1c0,0.2,0.1,0.4,0.4,0.4h4.3
	c0.3,0,0.4-0.1,0.4-0.4V23v-0.1L114,15.3z"/>
<path class="st0" d="M143.2,32.7h-2.6l-0.4-0.2l-9.7-18.3l0.2,18.1c0,0.3-0.1,0.4-0.4,0.4h-2.9c-0.3,0-0.4-0.1-0.4-0.4V7.4
	c0-0.3,0.1-0.4,0.4-0.4h2.6l0.4,0.2l9.7,18.3l-0.2-18.1c0-0.3,0.1-0.4,0.4-0.4h2.9c0.3,0,0.4,0.1,0.4,0.4v24.9
	C143.6,32.6,143.5,32.7,143.2,32.7z"/>
<path class="st0" d="M165,32.7h-13.9c-0.3,0-0.4-0.1-0.4-0.4V7.4c0-0.3,0.1-0.4,0.4-0.4H165c0.3,0,0.4,0.1,0.4,0.4v2.4
	c0,0.3-0.1,0.4-0.4,0.4h-10.2c-0.3,0-0.4,0.1-0.4,0.4v6.9c0,0.3,0.1,0.4,0.4,0.4h8.4c0.3,0,0.4,0.1,0.4,0.4v2.4
	c0,0.3-0.1,0.4-0.4,0.4h-8.4c-0.3,0-0.4,0.1-0.4,0.4V29c0,0.3,0.1,0.4,0.4,0.4H165c0.3,0,0.4,0.1,0.4,0.4v2.4
	C165.4,32.6,165.3,32.7,165,32.7z"/>
<path class="st1" d="M195.3,29c-0.4,0.9-0.9,1.6-1.5,2.2s-1.4,1.1-2.3,1.4c-0.9,0.3-1.9,0.5-3,0.5h-1.2c-1.1,0-2.1-0.2-3-0.5
	s-1.7-0.8-2.3-1.4s-1.1-1.3-1.5-2.2s-0.5-1.8-0.5-2.8V13.5c0-1,0.2-2,0.5-2.8s0.8-1.6,1.5-2.2c0.6-0.6,1.4-1.1,2.3-1.4
	c0.9-0.3,1.9-0.5,3-0.5h1.2c1,0,1.9,0.1,2.8,0.4s1.6,0.6,2.2,1.1c0.6,0.4,1.1,0.9,1.4,1.4c0.3,0.5,0.5,0.9,0.5,1.3
	c0,0.1-0.1,0.2-0.2,0.3l-2.6,1.3c-0.1,0.1-0.2,0.1-0.2,0.1c-0.1,0-0.1,0-0.2-0.1c0-0.1-0.1-0.1-0.1-0.2c-0.2-0.3-0.5-0.6-0.7-0.9
	c-0.2-0.3-0.4-0.5-0.7-0.7s-0.5-0.4-0.9-0.5c-0.3-0.1-0.7-0.2-1.2-0.2h-1.2c-1,0-1.9,0.4-2.6,1.1s-1.1,1.6-1.1,2.6v5
	c0,0.3,0.1,0.4,0.3,0.4c0.1,0,0.2-0.1,0.4-0.2s0.5-0.3,0.8-0.5s0.7-0.3,1.1-0.5c0.4-0.1,0.9-0.2,1.4-0.2h1.2c1,0,1.9,0.2,2.8,0.5
	c0.9,0.3,1.6,0.8,2.2,1.4c0.6,0.6,1.1,1.3,1.4,2.2c0.4,0.9,0.5,1.8,0.5,2.8v1.6C195.8,27.2,195.6,28.2,195.3,29z M192.1,24.6
	c0-1-0.4-1.9-1.1-2.6s-1.6-1.1-2.6-1.1h-1.2c-1,0-1.9,0.4-2.6,1.1s-1.1,1.6-1.1,2.6v1.6c0,1,0.4,1.9,1.1,2.6
	c0.7,0.7,1.6,1.1,2.6,1.1h1.2c1.2-0.2,2.1-0.7,2.8-1.3c0.6-0.6,0.9-1.4,0.9-2.4L192.1,24.6L192.1,24.6z"/>
<path class="st1" d="M217.4,26.8h-2.9c-0.3,0-0.4,0.1-0.4,0.4v5.1c0,0.3-0.1,0.4-0.4,0.4h-2.9c-0.3,0-0.4-0.1-0.4-0.4v-5.1
	c0-0.3-0.1-0.4-0.4-0.4h-10.2c-0.2,0-0.4-0.1-0.4-0.3v-0.1v-2.9l10.8-16.4l0.3-0.2h3.1c0.3,0,0.4,0.1,0.4,0.4V23
	c0,0.3,0.1,0.4,0.4,0.4h2.9c0.3,0,0.4,0.1,0.4,0.4v2.4C217.8,26.7,217.7,26.8,217.4,26.8z M210.5,13.9c0-0.3-0.1-0.4-0.4-0.4
	c-0.2,0-0.3,0.1-0.4,0.2l-6.2,9.3c-0.1,0.1-0.1,0.2-0.1,0.3c0,0.2,0.1,0.3,0.4,0.3h6.2c0.3,0,0.4-0.1,0.4-0.4v-9.3H210.5z"/>
<path class="st1" d="M234.9,31.2c-1.3,1.3-3.1,2-5.4,2h-1.2c-1,0-1.8-0.1-2.6-0.3s-1.4-0.5-1.8-0.9c-0.8-0.6-1.4-1.2-1.8-1.7
	s-0.6-1-0.6-1.3c0-0.1,0.1-0.2,0.2-0.3l2.6-1.3c0.1-0.1,0.2-0.1,0.2-0.1c0.1,0,0.2,0.1,0.4,0.3c0.2,0.3,0.5,0.6,0.7,0.9
	s0.4,0.5,0.7,0.7c0.2,0.2,0.5,0.4,0.9,0.5c0.3,0.1,0.7,0.2,1.2,0.2h1.2c1,0,1.9-0.4,2.6-1.1c0.7-0.7,1.1-1.6,1.1-2.6v-1.4
	c0-1-0.4-1.9-1.1-2.6c-0.7-0.7-1.6-1.1-2.6-1.1h-6.5c-0.3,0-0.4-0.1-0.4-0.4V7.4c0-0.3,0.1-0.4,0.4-0.4H236c0.3,0,0.4,0.1,0.4,0.4
	v2.4c0,0.3-0.1,0.4-0.4,0.4h-9.4c-0.3,0-0.4,0.1-0.4,0.4v6.7c0,0.3,0.1,0.4,0.4,0.4h2.9c2.3,0,4.1,0.7,5.4,2c1.3,1.3,2,3.1,2,5.3
	v0.8C236.8,28.1,236.2,29.9,234.9,31.2z"/>
</svg>
