<?xml version="1.0" encoding="utf-8"?>
<!-- Generator: Adobe Illustrator 22.1.0, SVG Export Plug-In . SVG Version: 6.00 Build 0)  -->
<svg version="1.1" id="Layer_1" xmlns="http://www.w3.org/2000/svg" xmlns:xlink="http://www.w3.org/1999/xlink" x="0px" y="0px"
	 viewBox="0 0 239.2 33.1" style="enable-background:new 0 0 239.2 33.1;" xml:space="preserve">
<style type="text/css">
	.st0{fill:#444444;}
	.st1{fill:#FF611D;}
</style>
<path class="st0" d="M11.4,32.4c-0.1,0.2-0.2,0.3-0.4,0.3H8.8c-0.2,0-0.3-0.1-0.4-0.3L0.8,7.6c0-0.1,0-0.1,0-0.1s0,0,0-0.1
	C0.7,7.2,0.9,7,1.2,7h3.1c0.2,0,0.4,0.1,0.4,0.3L9.9,26L15,7.4c0-0.2,0.2-0.3,0.4-0.3h3.1C18.8,7,19,7.2,19,7.4v0.1v0.1L11.4,32.4z"
	/>
<path class="st0" d="M37.3,32.3L37.3,32.3c0,0.3-0.1,0.4-0.4,0.4h-3.1c-0.2,0-0.4-0.1-0.4-0.3L31.9,27c0-0.2-0.2-0.2-0.4-0.2h-6.6
	c-0.2,0-0.4,0.1-0.4,0.2L23,32.4c0,0.2-0.2,0.3-0.4,0.3h-3.1c-0.3,0-0.4-0.1-0.4-0.4c0,0,0,0,0-0.1c0,0,0,0,0-0.1l7.6-24.8
	c0-0.2,0.2-0.3,0.4-0.3h2.2c0.2,0,0.3,0.1,0.4,0.3l7.6,24.8C37.3,32.2,37.3,32.3,37.3,32.3z M28.8,15.4c-0.1-0.2-0.1-0.5-0.2-0.8
	s-0.2-0.6-0.3-1h-0.2l-0.5,1.8l-2,7.6c0,0.1,0,0.1,0,0.1s0,0,0,0.1c0,0.2,0.1,0.4,0.4,0.4h4.3c0.3,0,0.4-0.1,0.4-0.4v-0.1V23
	L28.8,15.4z"/>
<path class="st0" d="M54.3,9c1.3,1.3,2,3.1,2,5.4c0,1-0.2,2-0.5,2.8c-0.4,0.8-0.8,1.6-1.5,2.2c-0.6,0.6-1.4,1.1-2.3,1.4
	c-0.9,0.3-1.9,0.5-3,0.5h-4.5c-0.3,0-0.4,0.1-0.4,0.4v10.6c0,0.3-0.1,0.4-0.4,0.4h-2.9c-0.3,0-0.4-0.1-0.4-0.4V7.5
	c0-0.3,0.1-0.4,0.4-0.4h8.1C51.2,7,53,7.7,54.3,9z M52.6,14c0-1-0.4-1.9-1.1-2.6c-0.7-0.7-1.6-1.1-2.6-1.1h-4.5
	c-0.3,0-0.4,0.1-0.4,0.4v6.9c0,0.3,0.1,0.4,0.4,0.4h4.5c1,0,1.9-0.4,2.6-1.1c0.7-0.7,1.1-1.6,1.1-2.6V14z"/>
<path class="st0" d="M74.9,29c-0.4,0.9-0.8,1.6-1.5,2.2c-0.6,0.6-1.4,1.1-2.3,1.4c-0.9,0.3-1.9,0.5-3,0.5h-1.2c-1.1,0-2.1-0.2-3-0.5
	s-1.7-0.8-2.3-1.4s-1.1-1.3-1.5-2.2c-0.4-0.9-0.5-1.8-0.5-2.8V13.6c0-1,0.2-2,0.5-2.8c0.4-0.9,0.8-1.6,1.5-2.2
	C62.2,8,63,7.5,63.9,7.2c0.9-0.3,1.9-0.5,3-0.5h1.2c1.1,0,2.1,0.2,3,0.5s1.7,0.8,2.3,1.4c0.6,0.6,1.1,1.3,1.5,2.2s0.5,1.8,0.5,2.8
	v12.6C75.4,27.2,75.2,28.2,74.9,29z M71.7,13.6c0-1-0.4-1.9-1.1-2.6C69.9,10.3,69,9.9,68,9.9h-1.2c-1,0-1.9,0.4-2.6,1.1
	c-0.7,0.7-1.1,1.6-1.1,2.6v12.6c0,1,0.4,1.9,1.1,2.6s1.6,1.1,2.6,1.1H68c1,0,1.9-0.4,2.6-1.1s1.1-1.6,1.1-2.6V13.6z"/>
<path class="st0" d="M97,32.4c0,0.2-0.1,0.3-0.4,0.3h-3.1l-0.4-0.3l-3.8-10.9L89,21.3h-4c-0.3,0-0.4,0.1-0.4,0.4v10.6
	c0,0.3-0.1,0.4-0.4,0.4h-2.9c-0.3,0-0.4-0.1-0.4-0.4V7.5C80.9,7.2,81,7,81.3,7h8.1c2.3,0,4,0.7,5.4,2c1.3,1.3,2,3.1,2,5.4v0.4
	c0,0.7-0.2,1.5-0.6,2.3s-1,1.6-1.8,2.3c-0.4,0.4-0.7,0.6-1,0.7S93,20.4,93,20.6c0,0.1,0,0.1,0,0.1l4,11.5C97,32.2,97,32.3,97,32.4z
	 M93.1,14c0-1-0.4-1.9-1.1-2.6c-0.7-0.7-1.6-1.1-2.6-1.1H85c-0.3,0-0.4,0.1-0.4,0.4v6.9c0,0.3,0.1,0.4,0.4,0.4h4.5
	c1,0,1.9-0.4,2.6-1.1s1.1-1.6,1.1-2.6L93.1,14L93.1,14z"/>
<path class="st0" d="M124.7,10.3H120c-0.3,0-0.4,0.1-0.4,0.4v21.6c0,0.3-0.1,0.4-0.4,0.4h-2.9c-0.3,0-0.4-0.1-0.4-0.4V10.7
	c0-0.3-0.1-0.4-0.4-0.4h-4.7c-0.3,0-0.4-0.1-0.4-0.4V7.5c0-0.3,0.1-0.4,0.4-0.4h13.8c0.3,0,0.4,0.1,0.4,0.4v2.4
	C125.1,10.2,124.9,10.3,124.7,10.3z"/>
<path class="st0" d="M143.2,32.7h-13.8c-0.3,0-0.4-0.1-0.4-0.4V7.5c0-0.3,0.1-0.4,0.4-0.4h13.8c0.3,0,0.4,0.1,0.4,0.4v2.4
	c0,0.3-0.1,0.4-0.4,0.4H133c-0.3,0-0.4,0.1-0.4,0.4v6.9c0,0.3,0.1,0.4,0.4,0.4h8.3c0.3,0,0.4,0.1,0.4,0.4v2.4c0,0.3-0.1,0.4-0.4,0.4
	H133c-0.3,0-0.4,0.1-0.4,0.4V29c0,0.3,0.1,0.4,0.4,0.4h10.2c0.3,0,0.4,0.1,0.4,0.4v2.4C143.6,32.6,143.5,32.7,143.2,32.7z"/>
<path class="st0" d="M166.6,32.4c0,0.2-0.1,0.3-0.4,0.3h-3.6l-0.3-0.2L155,20.7c-0.8,0.9-1.7,2.1-2.8,3.5v8.1c0,0.3-0.1,0.4-0.4,0.4
	h-2.9c-0.3,0-0.4-0.1-0.4-0.4V7.5c0-0.3,0.1-0.4,0.4-0.4h2.9c0.3,0,0.4,0.1,0.4,0.4v10.7c0,0.3,0.1,0.5,0.4,0.5
	c0.1,0,0.2-0.1,0.4-0.2l8.5-11.2l0.3-0.2h3.4c0.3,0,0.4,0.1,0.4,0.3c0,0.1,0,0.2-0.1,0.3l-7.8,9.6c-0.1,0.1-0.1,0.1-0.1,0.2
	s0,0.1,0,0.2l8.9,14.3C166.6,32.2,166.6,32.3,166.6,32.4z"/>
<path class="st1" d="M197.9,26.8H195c-0.3,0-0.4,0.1-0.4,0.4v5.1c0,0.3-0.1,0.4-0.4,0.4h-2.8c-0.3,0-0.4-0.1-0.4-0.4v-5.1
	c0-0.3-0.1-0.4-0.4-0.4h-10.2c-0.2,0-0.4-0.1-0.4-0.3v-0.1v-2.8l10.8-16.3l0.3-0.2h3.1c0.3,0,0.4,0.1,0.4,0.4v15.7
	c0,0.3,0.1,0.4,0.4,0.4h2.8c0.3,0,0.4,0.1,0.4,0.4v2.4C198.3,26.7,198.2,26.8,197.9,26.8z M191,13.9c0-0.3-0.1-0.4-0.4-0.4
	c-0.2,0-0.3,0.1-0.4,0.2l-6.1,9.2c-0.1,0.1-0.1,0.2-0.1,0.3c0,0.2,0.1,0.3,0.4,0.3h6.1c0.3,0,0.4-0.1,0.4-0.4v-9.2H191z"/>
<path class="st1" d="M218.7,26.8h-2.8c-0.3,0-0.4,0.1-0.4,0.4v5.1c0,0.3-0.1,0.4-0.4,0.4h-2.8c-0.3,0-0.4-0.1-0.4-0.4v-5.1
	c0-0.3-0.1-0.4-0.4-0.4h-10.2c-0.2,0-0.4-0.1-0.4-0.3v-0.1v-2.8l10.8-16.3l0.3-0.2h3.1c0.3,0,0.4,0.1,0.4,0.4v15.7
	c0,0.3,0.1,0.4,0.4,0.4h2.8c0.3,0,0.4,0.1,0.4,0.4v2.4C219.1,26.7,218.9,26.8,218.7,26.8z M211.7,13.9c0-0.3-0.1-0.4-0.4-0.4
	c-0.2,0-0.3,0.1-0.4,0.2l-6.1,9.2c-0.1,0.1-0.1,0.2-0.1,0.3c0,0.2,0.1,0.3,0.4,0.3h6.1c0.3,0,0.4-0.1,0.4-0.4v-9.2H211.7z"/>
<path class="st1" d="M238.1,29c-0.4,0.9-0.8,1.6-1.5,2.2c-0.6,0.6-1.4,1.1-2.3,1.4c-0.9,0.3-1.9,0.5-3,0.5h-1.2
	c-1.1,0-2.1-0.2-3-0.5s-1.7-0.8-2.3-1.4s-1.1-1.3-1.5-2.2c-0.4-0.9-0.5-1.8-0.5-2.8V13.6c0-1,0.2-2,0.5-2.8s0.8-1.6,1.5-2.2
	c0.6-0.6,1.4-1.1,2.3-1.4c0.9-0.3,1.9-0.5,3-0.5h1.2c1.1,0,2.1,0.2,3,0.5s1.7,0.8,2.3,1.4s1.1,1.3,1.5,2.2s0.5,1.8,0.5,2.8v12.6
	C238.6,27.2,238.4,28.2,238.1,29z M234.9,13.6c0-1-0.4-1.9-1.1-2.6c-0.7-0.7-1.6-1.1-2.6-1.1H230c-1,0-1.9,0.4-2.6,1.1
	c-0.7,0.7-1.1,1.6-1.1,2.6v12.6c0,1,0.4,1.9,1.1,2.6s1.6,1.1,2.6,1.1h1.2c1,0,1.9-0.4,2.6-1.1s1.1-1.6,1.1-2.6V13.6z"/>
<path class="st0" d="M107.8,21.6h-6.7c-0.3,0-0.4-0.1-0.4-0.4v-2.7c0-0.3,0.1-0.4,0.4-0.4h6.7c0.3,0,0.4,0.1,0.4,0.4v2.7
	C108.2,21.5,108.1,21.6,107.8,21.6z"/>
<path class="st0" d="M170.8,7.9h-0.6c-0.1,0-0.2,0.1-0.2,0.2v2.8c0,0.1-0.1,0.2-0.2,0.2h-0.2c-0.1,0-0.2-0.1-0.2-0.2V8.1
	c0-0.1-0.1-0.2-0.2-0.2h-0.6c-0.1,0-0.2-0.1-0.2-0.2V7.5c0-0.1,0.1-0.2,0.2-0.2h2.2c0.1,0,0.2,0.1,0.2,0.2v0.2
	C171,7.8,170.9,7.9,170.8,7.9z M175.2,11.1H175c-0.1,0-0.2-0.1-0.2-0.2V9.5c0-0.2-0.1-0.2-0.2-0.2c-0.1,0-0.1,0-0.2,0.1l-0.5,0.8
	l-0.2,0.1h-0.1l-0.2-0.1l-0.6-0.8c-0.1-0.1-0.1-0.1-0.2-0.1c-0.1,0-0.2,0.1-0.2,0.2V11c0,0.1-0.1,0.2-0.2,0.2H172
	c-0.1,0-0.2-0.1-0.2-0.2V7.5c0-0.1,0.1-0.2,0.2-0.2h0.2l0.2,0.1l1,1.7c0.1,0.1,0.1,0.1,0.2,0.1c0.1,0,0.1,0,0.2-0.1l1-1.7l0.2-0.1
	h0.2c0.1,0,0.2,0.1,0.2,0.2V11C175.4,11.1,175.3,11.1,175.2,11.1z"/>
</svg>
